<?xml version="1.0" encoding="UTF-8" standalone="no"?>
<!-- Created with Inkscape (http://www.inkscape.org/) -->

<svg
   version="1.1"
   id="svg2"
   width="545.14667"
   height="94.986664"
   viewBox="0 0 545.14667 94.986664"
   sodipodi:docname="CITYLAB_LOGO_GROEN_WIT_INLINE_HORIZONTAAL_CMYK.eps"
   xmlns:inkscape="http://www.inkscape.org/namespaces/inkscape"
   xmlns:sodipodi="http://sodipodi.sourceforge.net/DTD/sodipodi-0.dtd"
   xmlns="http://www.w3.org/2000/svg"
   xmlns:svg="http://www.w3.org/2000/svg">
  <defs
     id="defs6" />
  <sodipodi:namedview
     id="namedview4"
     pagecolor="#ffffff"
     bordercolor="#000000"
     borderopacity="0.25"
     inkscape:showpageshadow="2"
     inkscape:pageopacity="0.0"
     inkscape:pagecheckerboard="0"
     inkscape:deskcolor="#d1d1d1" />
  <g
     id="g8"
     inkscape:groupmode="layer"
     inkscape:label="ink_ext_XXXXXX"
     transform="matrix(1.3333333,0,0,-1.3333333,0,94.986667)">
    <g
       id="g10"
       transform="scale(0.1)">
      <path
         d="M 3503.7,712.398 V 2.17188 l 314,0.28906 h 29.52 V 2.48047 L 3967.31,2.60938 4088.57,123.348 V 330.32 l -26.99,26.953 26.99,26.993 v 206.933 l -121.21,121.199 z m 188.47,-188.472 h 197.04 l 16.67,-16.668 v -40.574 l -16.04,-15.188 h -197.67 z m 0,-260.793 197.02,-0.067 16.36,-16.375 -0.65,-40.343 -16,-15.957 -196.73,-3.129 z M 2958.58,709.852 2804.86,557.363 V 0 h 187.41 v 194.23 h 227.85 V 0 h 187.33 v 560.992 l -155.18,150.196 z m 34.19,-232.508 44.05,44.035 138.24,-0.082 43.98,-43.953 v -94.516 h -226.27 z m -842.11,233.824 0.55,-710.250031 h 584.33 V 189.41 h -396.43 v 521.758 z m -250.76,0 V 592.93 L 1795.92,489.383 1691.93,593.348 v 117.82 H 1503.46 V 515.184 L 1701.69,316.949 V 0.9375 h 188.45 l -1.84,316.0115 199.16,199.153 v 195.066 z m -1008.92,0 V 522.695 h 177.37 V 0.9375 h 188.43 V 522.695 h 177.34 v 188.473 z m -264.8,0 V 0.917969 H 821.078 V 711.168 Z M 153.738,710.645 0,556.863 V 155.18 L 154.262,0.917969 H 386.52 L 543.156,154.973 V 306.77 H 354.688 V 233.363 L 310.754,189.41 h -78.246 l -44.348,45.328 v 79.145 l 0.289,164.84 43.977,43.949 h 78.328 l 43.934,-43.949 V 406.836 H 543.156 V 556.863 L 388.895,711.168 153.738,710.645"
         style="fill:#19ae48;fill-opacity:1;fill-rule:nonzero;stroke:none"
         id="path12" />
      <path
         d="m 4067.44,441.246 v 39.094 h -39.12 v -39.094 h 8.6 v -35.59 l -48.4,-48.394 48.4,-48.375 V 144.82 l -90.95,-90.5505 h -51.63 l -48.02,47.9965 h -238.98 v 34.754 l -51.98,44.933 v 478.785 h 56.18 v -8.574 h 39.11 v 39.07 h -39.11 v -8.554 h -78.12 V 171.941 l 52,-44.933 V 80.3438 h 251.8 l 48.04,-48 h 69.76 l 103.84,103.3632 v 182.297 l -39.32,39.258 39.32,39.32 v 44.664 z M 3926.82,71.7891 v 8.5547 h 2.21 l 76.24,76.9532 V 296.77 l -14.54,15.14 6.2,5.945 -27.06,28.204 -28.22,-27.055 27.05,-28.203 6.2,5.926 8.43,-8.805 V 166.328 l -56.51,-57.074 v 1.629 h -39.07 V 71.7891 Z m 5.19,559.3479 H 3585.32 V 399.84 h 118.38 v -8.574 h 39.09 v 39.113 h -39.09 v -8.598 h -96.46 v 187.41 h 315.66 l 60.43,-60.433 V 426.645 l -62.08,-58.18 -114.75,-0.231 -60.54,-53.507 H 3640.49 V 134.766 l 270.16,4.277 45.56,45.52 1.33,83.21 -46.95,46.954 h -66.17 v 8.554 h -39.07 v -39.093 h 39.07 v 8.617 h 57.09 l 33.96,-34.004 -1.04,-64.977 -33,-33.004 -238.99,-3.754 v 135.739 h 91.82 l 60.58,53.527 115.09,0.207 75.34,70.594 V 557.832 Z M 3607.24,220.441 v 125.516 h 133.59 l 58.72,53.883 h 110.85 l 47.14,44.598 v 84.21 l -46.95,46.957 h -270.1 V 483.57 h -8.57 v -39.132 h 39.07 v 39.132 h -8.55 v 70.09 h 239.07 l 34.09,-34.105 v -65.668 l -33.92,-32.106 h -110.64 l -58.76,-53.902 H 3585.32 V 220.441 h -8.6 v -39.093 h 39.09 v 39.093 z m 421.08,285.637 h 39.12 v 39.094 h -8.58 v 33.687 L 3955.04,682.68 h -241.16 v 8.554 h -39.07 v -39.07 h 39.07 v 8.574 h 232.09 l 90.95,-90.953 v -24.613 h -8.6 z m -464.39,-380.32 h -39.07 V 86.6641 h 8.56 V 31.9063 h 253.86 v -8.5938 h 39.1 v 39.1133 h -39.1 v -8.5977 h -231.92 v 32.836 h 8.57 z m -186.19,328.379 h 8.57 v 39.113 h -39.07 v -39.113 h 8.55 V 51.6406 h -84 V 245.867 h -136.28 v 8.598 h -39.07 v -39.094 h 39.07 v 8.594 h 114.33 V 29.7148 h 127.9 z m -187.93,182.945 h -39.1 v -39.094 h 39.1 v 8.575 h 24.3 l 87.63,-87.59 V 372.324 h -8.59 V 333.23 h 39.11 v 39.094 h -8.59 V 528.047 L 3223.2,628.508 h -33.39 z M 2991.99,628.508 2886.9,523.414 V 278.766 h 105.67 v -8.551 h 39.1 v 39.09 h -39.1 v -8.614 h -83.75 V 514.34 l 92.24,92.223 h 88.05 l 56.45,-55.532 h 41.83 l 61.37,-61.371 V 353.109 h -285.7 V 489.66 l 61.37,61.371 h 34.44 v -8.551 h 39.09 v 39.071 h -39.09 v -8.574 h -43.54 l -74.2,-74.219 v -167.57 h 329.55 v 167.57 l -74.22,74.219 h -41.89 l -56.44,55.531 z M 2886.9,205.609 v -81.187 h -8.6 V 85.3516 h 39.09 v 39.0704 h -8.57 v 81.187 h 8.57 v 39.071 h -39.09 v -39.071 z m 460.34,315.196 h 39.07 v 39.113 h -22.22 L 3240.2,681.43 2970.9,680.156 2834.6,544.984 V 29.7148 h 127.96 V 223.965 h 87.32 l 58.95,54.801 h 192.91 V 124.422 h -8.59 V 85.3516 h 39.11 v 39.0704 h -8.59 v 176.269 h -223.46 l -58.97,-54.824 H 2940.63 V 51.6406 H 2856.5 V 535.824 l 123.47,122.449 251.33,1.168 115.94,-113.664 z M 2466.33,71.0586 v 8.5977 h 154.04 v -8.5977 h 39.09 v 39.0934 h -39.09 v -8.574 h -154.04 v 8.574 h -39.11 V 71.0586 Z m -285.4,-40.4258 h 524.9 V 159.676 h -289.1 l -54.84,-58.098 h -108.08 v 154.973 h 8.57 v 39.09 h -39.09 v -39.09 h 8.6 V 79.6563 h 139.47 l 54.82,58.0547 h 257.71 V 52.5781 H 2202.85 V 293.242 l 52.63,52.235 v 252.218 h 8.57 v 39.075 h -39.07 v -39.075 h 8.6 V 354.613 l -52.65,-52.254 z m 146.6,98.5232 h 39.07 v 39.09 h -39.07 v -8.57 h -18.15 V 681.43 h -129 V 389.91 h -8.57 v -39.074 h 39.11 v 39.074 h -8.59 v 269.574 h 85.15 V 137.711 h 40.05 z M 1858.59,329.27 2057.72,528.398 V 681.43 h -128.1 V 581.008 l -19.08,-19.067 -6.07,6.051 -27.64,-27.621 27.64,-27.637 27.64,27.637 -6.08,6.074 25.52,25.489 v 87.55 h 84.25 V 537.496 L 1836.67,338.363 v -91.386 l -51.71,-51.715 v -80.481 h -8.6 V 75.6914 h 39.09 v 39.0896 h -8.57 v 71.387 l 51.71,51.754 z M 1607.9,561.984 v 35.547 h 8.59 v 39.09 h -39.09 v -39.09 h 8.57 V 552.91 l 22.8,-22.801 -6.07,-6.07 27.64,-27.66 27.64,27.66 -27.64,27.641 -6.07,-6.071 z m 199.59,-280.109 v 69.609 l 59.84,59.848 6.07,-6.07 27.64,27.64 -27.64,27.637 -27.66,-27.637 6.07,-6.05 -66.23,-66.25 v -78.727 h -8.59 v -39.051 h 39.09 v 39.051 z m 114.29,216.695 h -74.62 l -51.25,-51.254 -133.69,133.715 V 681.43 H 1533.2 V 527.504 l 64.87,-64.875 h 77.37 l 55.24,-55.238 -6.07,-6.071 27.64,-27.64 27.66,27.64 -27.66,27.66 -6.07,-6.089 -61.66,61.66 h -77.4 l -51.98,52.027 v 122.906 h 85.13 v -87.55 l 155.64,-155.637 60.33,60.348 h 74.7 l 73.17,74.386 0.07,46.477 h 8.57 l 0.06,39.074 -39.11,0.082 -0.02,-39.133 h 8.55 l -0.04,-37.527 z m -676.56,99.629 v 8.594 h 74.43 v -8.594 h 39.09 v 39.114 h -39.09 v -8.598 h -74.43 v 8.598 h -39.09 V 598.199 Z M 1151.6,287.277 V 110.863 h -8.57 V 71.7891 h 39.09 v 39.0739 h -8.6 v 176.414 h 8.6 v 39.071 h -39.09 v -39.071 z m 75.47,265.153 h 177.36 v 129 H 920.719 v -129 H 1098.07 V 30.6523 h 129 V 329.938 l -53.5,53.503 v 245.274 h -170.41 v 8.598 h -39.094 v -39.114 h 39.094 v 8.594 h 148.46 V 374.348 l 53.53,-53.508 V 52.5781 H 1120 V 574.355 H 942.645 v 85.129 H 1382.5 V 574.355 H 1205.15 V 422.367 h -8.57 v -39.133 h 39.07 v 39.133 h -8.58 z M 710.973,292.18 V 114.531 h -8.575 V 75.4219 h 39.09 v 39.1091 h -8.57 V 292.18 h 8.57 v 39.07 h -39.09 v -39.07 z m 49.894,114.98 h 39.074 v 39.094 h -8.574 V 681.43 H 655.879 V 30.6328 H 791.367 V 335.047 l -58.492,65.355 0.043,197.293 h 8.57 v 39.114 h -39.133 v -39.114 h 8.618 l -0.043,-206.41 58.511,-65.269 V 52.5781 H 677.824 V 659.484 h 91.617 v -213.23 h -8.574 z M 332.215,597.406 v 8.551 h 15.308 l 84.715,-85.152 h -3.59 v -39.11 h 39.075 v 39.11 h -8.598 v 4.07 L 356.66,627.902 h -24.445 v 8.594 h -39.094 v -39.09 z M 513.445,436.574 V 544.566 L 376.582,681.43 h -93.559 l -50.687,-54.383 -46.164,-0.938 -102.59,-102.57 v -33.668 h -8.5976 v -39.133 h 39.0936 v 39.133 h -8.574 v 24.574 l 89.906,89.907 46.606,0.898 50.562,54.234 h 74.93 L 491.5,535.492 V 458.52 h -85.148 v 41.593 l -74.204,74.242 H 211.016 L 136.797,500.113 V 344.516 h -8.574 v -39.071 h 39.09 v 39.071 h -8.575 V 491.02 l 61.371,61.371 H 323.055 L 384.426,491.02 V 436.574 Z M 191.969,650.91 h 39.07 v 39.074 h -39.07 V 681.43 H 166.563 L 29.7188,544.566 V 430.523 L 83.582,375.703 V 188.129 l 107.305,-106.4493 31.226,0.3516 0.063,-8.5079 39.113,0.3125 -0.336,39.0701 -39.07,-0.312 0.062,-8.656 -22.09,-0.274 -94.351,93.602 v 187.449 l -53.8595,54.777 v 96 L 175.656,659.484 h 16.313 z m 134.715,-576.5311 -0.063,8.6563 25.867,0.289 106.66,106.4728 v 0.082 l 8.575,-0.063 0.187,39.094 -39.074,0.207 -0.188,-38.82 -85.296,-85.109 -16.895,-0.208 -0.062,8.508 -39.114,-0.332 0.332,-39.0935 z M 60.2383,380.211 H 21.1445 v -39.094 h 8.5743 V 167.477 L 166.563,30.6328 H 374.352 L 513.445,167.434 V 277.055 H 384.426 V 221.047 L 323.055,159.676 H 220.109 l -61.371,61.371 v 22.09 h 8.575 v 39.07 h -39.09 v -39.07 h 8.574 v -31.188 l 74.219,-74.238 h 121.132 l 74.204,74.238 v 43.16 H 491.5 V 176.633 L 365.34,52.5781 H 175.656 L 51.6445,176.57 v 164.547 h 8.5938 z m 1597.9717,65.414 -27.64,-27.617 27.64,-27.66 6.05,6.047 67.15,-67.125 V 30.6523 h 129 V 145.488 h 8.59 v 39.094 h -39.09 v -39.094 h 8.57 V 52.5781 h -85.13 V 338.363 l -73.57,73.551 6.07,6.094 -27.64,27.617"
         style="fill:#ffffff;fill-opacity:1;fill-rule:nonzero;stroke:none"
         id="path14" />
    </g>
  </g>
</svg>
