<?xml version="1.0" encoding="UTF-8" standalone="no"?>
<!-- Created with Inkscape (http://www.inkscape.org/) -->

<svg
   version="1.1"
   id="svg2"
   width="572.20001"
   height="99.706665"
   viewBox="0 0 572.20001 99.706665"
   sodipodi:docname="CITYLAB_LOGO_ZWART_GROEN_INLINE_HORIZONTAAL_CMYK.eps"
   xmlns:inkscape="http://www.inkscape.org/namespaces/inkscape"
   xmlns:sodipodi="http://sodipodi.sourceforge.net/DTD/sodipodi-0.dtd"
   xmlns="http://www.w3.org/2000/svg"
   xmlns:svg="http://www.w3.org/2000/svg">
  <defs
     id="defs6" />
  <sodipodi:namedview
     id="namedview4"
     pagecolor="#ffffff"
     bordercolor="#000000"
     borderopacity="0.25"
     inkscape:showpageshadow="2"
     inkscape:pageopacity="0.0"
     inkscape:pagecheckerboard="0"
     inkscape:deskcolor="#d1d1d1" />
  <g
     id="g8"
     inkscape:groupmode="layer"
     inkscape:label="ink_ext_XXXXXX"
     transform="matrix(1.3333333,0,0,-1.3333333,0,99.706667)">
    <g
       id="g10"
       transform="scale(0.1)">
      <path
         d="M 3677.58,747.754 V 2.27734 l 329.59,0.3086 h 30.98 V 2.60547 L 4164.2,2.73828 4291.48,129.469 v 217.246 l -28.33,28.289 28.33,28.332 V 620.539 L 4164.25,747.754 Z M 3875.4,549.926 h 206.83 l 17.49,-17.492 v -42.59 l -16.84,-15.938 H 3875.4 Z m 0,-273.735 206.81,-0.066 17.16,-17.187 -0.68,-42.348 -16.79,-16.75 -206.5,-3.285 z M 3105.41,745.082 2944.06,585.023 V 0 h 196.71 v 203.867 h 239.16 V 0 h 196.62 V 588.836 L 3413.67,746.48 Z m 35.88,-244.047 46.25,46.219 145.1,-0.086 46.15,-46.133 v -99.211 h -237.5 z M 2257.4,746.461 2257.97,0.964844 H 2871.3 V 198.813 h -416.1 v 547.648 z m -263.21,0 V 622.355 L 1885.04,513.668 1775.89,622.797 V 746.461 H 1578.07 V 540.754 L 1786.14,332.68 V 0.984375 h 197.8 L 1982.02,332.68 2191.05,541.715 v 204.746 z m -1058.991,0 V 548.637 H 1121.37 V 0.984375 h 197.79 V 548.637 h 186.13 v 197.824 z m -277.941,0 V 0.964844 H 861.824 V 746.461 Z M 161.367,745.914 0,584.5 V 162.883 L 161.918,0.964844 H 405.699 L 570.113,162.66 V 321.996 H 372.289 v -77.051 l -46.113,-46.132 h -82.129 l -46.551,47.578 v 83.07 l 0.309,173.019 46.156,46.133 h 82.215 L 372.289,502.48 V 427.027 H 570.113 V 584.5 L 408.195,746.461 161.367,745.914"
         style="fill:#231f20;fill-opacity:1;fill-rule:nonzero;stroke:none"
         id="path12" />
      <path
         d="m 4269.3,463.145 v 41.031 h -41.06 v -41.031 h 9.02 v -37.356 l -50.79,-50.797 50.79,-50.773 V 152.008 L 4141.8,56.9609 h -54.19 l -50.41,50.3831 h -250.83 v 36.476 l -54.56,47.164 v 502.543 h 58.96 v -9 h 41.06 v 41.012 h -41.06 v -8.976 h -82 v -536.09 l 54.59,-47.16 V 84.332 h 264.3 l 50.42,-50.3828 h 73.22 l 109,108.4918 v 191.344 l -41.28,41.207 41.28,41.274 v 46.879 z M 4121.7,75.3555 v 8.9765 h 2.32 l 80.03,80.77 v 146.394 l -15.26,15.895 6.5,6.242 -28.4,29.601 -29.62,-28.398 28.39,-29.602 6.51,6.219 8.84,-9.242 V 174.586 L 4121.7,114.68 v 1.707 h -41.01 V 75.3555 Z m 5.45,587.1015 h -363.9 V 419.68 h 124.26 v -8.996 h 41.03 v 41.05 h -41.03 v -9.019 h -101.25 v 196.711 h 331.32 l 63.43,-63.434 V 447.816 l -65.16,-61.066 -120.44,-0.238 -63.54,-56.164 H 3821.16 V 141.457 l 283.57,4.488 47.82,47.774 1.4,87.344 -49.29,49.285 h -69.45 v 8.976 h -41.01 v -41.031 h 41.01 v 9.043 h 59.93 l 35.65,-35.691 -1.1,-68.204 -34.64,-34.636 -250.85,-3.942 v 142.473 h 96.38 l 63.58,56.184 120.8,0.218 79.09,74.094 V 585.52 Z M 3786.26,231.383 v 131.742 h 140.22 l 61.63,56.555 h 116.36 l 49.48,46.812 v 88.395 l -49.29,49.285 h -283.5 V 507.57 h -9 v -41.078 h 41.01 v 41.078 h -8.97 v 73.571 h 250.94 l 35.78,-35.801 v -68.926 l -35.61,-33.699 H 3979.18 L 3917.5,386.137 H 3763.25 V 231.383 h -9.02 v -41.035 h 41.03 v 41.035 z m 441.98,299.812 h 41.06 v 41.032 h -9 v 35.363 l -108.98,108.973 h -253.13 v 8.976 h -41.01 v -41.012 h 41.01 v 9 h 243.61 l 95.46,-95.464 v -25.836 h -9.02 z M 3740.81,131.996 H 3699.8 V 90.9648 h 8.97 V 33.4883 h 266.47 v -9.0195 h 41.03 v 41.0546 h -41.03 v -9.0195 h -243.43 v 34.4609 h 9 z m -195.44,344.68 h 9 v 41.054 h -41.01 v -41.054 h 8.97 V 54.2031 h -88.17 V 258.07 h -143.04 v 9.024 h -41.01 v -41.035 h 41.01 v 9.023 h 120.01 V 31.1914 h 134.24 z m -197.26,192.023 h -41.03 v -41.031 h 41.03 v 8.996 h 25.51 l 91.98,-91.937 V 390.801 h -9.02 V 349.77 h 41.06 v 41.031 h -9.03 V 554.25 l -105.44,105.449 h -35.06 z m -207.63,-9 -110.31,-110.308 V 292.602 h 110.92 v -8.981 h 41.03 v 41.035 h -41.03 v -9.043 h -87.91 v 224.254 l 96.82,96.797 h 92.42 l 59.25,-58.285 h 43.9 l 64.42,-64.414 V 370.637 h -299.88 v 143.328 l 64.41,64.414 h 36.15 v -8.977 h 41.04 v 41.012 h -41.04 v -9 h -45.69 L 3087.1,523.512 V 347.625 H 3433 v 175.887 l -77.9,77.902 h -43.97 l -59.25,58.285 z M 3030.17,215.813 v -85.215 h -9.02 V 89.5859 h 41.03 v 41.0121 h -9 v 85.215 h 9 v 41.011 h -41.03 v -41.011 z m 483.19,330.839 h 41.01 v 41.055 h -23.32 L 3401.01,715.25 3118.34,713.914 2975.28,572.031 V 31.1914 h 134.3 V 235.082 h 91.66 l 61.87,57.52 H 3465.6 V 130.598 h -9.02 V 89.5859 h 41.06 v 41.0121 h -9.03 v 185.015 h -234.54 l -61.9,-57.543 h -105.6 V 54.2031 h -88.3 V 562.418 l 129.6,128.527 263.79,1.227 121.7,-119.309 z M 2588.73,74.5859 v 9.0235 h 161.68 v -9.0235 h 41.03 v 41.0311 h -41.03 v -8.996 h -161.68 v 8.996 h -41.05 V 74.5859 Z M 2289.16,32.1523 h 550.96 V 167.598 h -303.45 l -57.57,-60.977 h -113.44 v 162.66 h 9 v 41.032 h -41.03 v -41.032 h 9.02 V 83.6094 h 146.39 l 57.55,60.9336 h 270.49 V 55.1875 H 2312.17 V 307.797 l 55.24,54.824 v 264.738 h 9 v 41.012 h -41.01 v -41.012 h 9.02 V 372.211 l -55.26,-54.848 z m 153.88,103.4137 h 41.01 v 41.032 h -41.01 v -9 h -19.05 V 715.25 h -135.4 V 409.258 h -9 V 368.25 h 41.06 v 41.008 h -9.02 V 692.215 H 2401 V 144.543 h 42.04 z m -492.21,210.043 209.02,209.016 V 715.25 H 2025.39 V 609.844 l -20.04,-20.012 -6.37,6.348 -29.01,-28.989 29.01,-29.011 29.01,29.011 -6.37,6.372 26.78,26.757 v 91.895 h 88.43 V 564.172 L 1927.82,355.156 V 259.23 l -54.28,-54.277 V 120.48 h -9.02 V 79.4492 h 41.03 V 120.48 h -9 v 74.926 l 54.28,54.324 z m -263.14,244.266 v 37.309 h 9.02 v 41.035 h -41.03 v -41.035 h 9 v -46.832 l 23.93,-23.934 -6.37,-6.371 29.01,-29.031 29.01,29.031 -29.01,29.012 -6.37,-6.371 z m 209.5,-294.012 v 73.067 l 62.82,62.816 6.37,-6.371 29.01,29.012 -29.01,29.011 -29.04,-29.011 6.38,-6.352 -69.52,-69.539 v -82.633 h -9.02 v -40.988 h 41.03 v 40.988 z m 119.96,227.45 h -78.32 l -53.79,-53.797 -140.33,140.347 V 715.25 H 1609.29 V 553.684 l 68.09,-68.098 h 81.21 l 57.98,-57.977 -6.37,-6.375 29.01,-29.007 29.03,29.007 -29.03,29.036 -6.37,-6.395 -64.72,64.723 h -81.24 l -54.56,54.609 v 129.008 h 89.36 V 600.32 l 163.36,-163.363 63.32,63.344 h 78.41 l 76.8,78.078 0.07,48.785 h 9 l 0.07,41.008 -41.06,0.09 -0.02,-41.078 h 8.98 l -0.05,-39.387 z m -710.13,104.574 v 9.019 h 78.12 v -9.019 h 41.03 v 41.051 h -41.03 v -9.02 h -78.12 v 9.02 h -41.03 V 627.887 Z M 1208.75,301.535 V 116.363 h -9 V 75.3555 h 41.04 v 41.0075 h -9.03 v 185.172 h 9.03 v 41.008 h -41.04 v -41.008 z m 79.22,278.313 h 186.16 V 715.25 H 966.414 V 579.848 H 1152.57 V 32.1758 h 135.4 V 346.309 l -56.16,56.164 v 257.445 h -178.87 v 9.02 h -41.03 v -41.051 h 41.03 v 9.019 h 155.83 v -243.98 l 56.19,-56.164 V 55.1875 h -89.38 V 602.859 H 989.426 v 89.356 H 1451.11 V 602.859 H 1264.96 V 443.328 h -9 v -41.074 h 41.01 v 41.074 h -9 z M 746.254,306.68 V 120.219 h -8.996 V 79.1641 h 41.031 v 41.0549 h -9 V 306.68 h 9 v 41.008 H 737.258 V 306.68 Z m 52.375,120.687 h 41.012 v 41.031 h -9 V 715.25 H 688.43 V 32.1523 H 830.641 V 351.676 l -61.395,68.597 0.043,207.086 h 9 v 41.055 h -41.074 v -41.055 h 9.039 l -0.043,-216.656 61.418,-68.512 V 55.1875 H 711.465 V 692.215 h 96.164 V 468.398 h -9 z m -449.93,199.688 v 8.976 h 16.071 l 88.918,-89.379 h -3.766 v -41.054 h 41.012 v 41.054 h -9.024 v 4.27 L 374.363,659.063 h -25.664 v 9.023 H 307.668 V 627.055 Z M 538.93,458.238 V 571.594 L 395.273,715.25 H 297.07 L 243.863,658.168 195.41,657.18 87.7266,549.52 V 514.184 H 78.707 v -41.079 h 41.031 v 41.079 h -8.996 v 25.793 l 94.367,94.367 48.914,0.941 53.075,56.93 h 78.648 L 515.895,562.066 v -80.793 h -89.379 v 43.661 l -77.883,77.925 H 221.488 L 143.586,524.934 V 361.613 h -9 v -41.008 h 41.031 v 41.008 h -9 v 153.774 l 64.418,64.418 H 339.09 l 64.414,-64.418 V 458.238 Z M 201.496,683.215 h 41.012 v 41.012 H 201.496 V 715.25 H 174.828 L 31.1953,571.594 V 451.891 L 87.7266,394.348 V 197.465 L 200.359,85.7305 l 32.778,0.375 0.066,-8.9336 41.051,0.3281 -0.348,41.008 -41.011,-0.328 0.066,-9.086 -23.188,-0.285 -99.031,98.246 v 196.754 l -56.535,57.496 v 100.761 l 130.168,130.149 h 17.121 z m 141.402,-605.1447 -0.066,9.086 27.152,0.3046 111.95,111.7541 v 0.09 l 9,-0.067 0.195,41.032 -41.008,0.218 -0.199,-40.746 -89.531,-89.336 -17.735,-0.218 -0.066,8.933 -41.055,-0.348 0.352,-41.0347 z M 63.2266,399.078 H 22.1953 v -41.031 h 9 V 175.789 L 174.828,32.1523 H 392.93 l 146,143.5897 V 290.805 H 403.504 V 232.016 L 339.09,167.598 H 231.035 l -64.418,64.418 v 23.187 h 9 v 41.012 h -41.031 v -41.012 h 9 v -32.734 l 77.902,-77.926 h 127.145 l 77.883,77.926 v 45.301 h 89.379 V 185.398 L 383.469,55.1875 H 184.375 L 54.207,185.336 v 172.711 h 9.0196 z m 1677.2734,68.664 -29.01,-28.988 29.01,-29.035 6.35,6.351 70.49,-70.461 V 32.1758 h 135.4 V 152.711 h 9.02 v 41.031 h -41.03 v -41.031 h 9 V 55.1875 h -89.36 V 355.156 l -77.23,77.203 6.38,6.395 -29.02,28.988"
         style="fill:#19ae48;fill-opacity:1;fill-rule:nonzero;stroke:none"
         id="path14" />
    </g>
  </g>
</svg>
