<?xml version="1.0" encoding="UTF-8" standalone="no"?>
<!-- Created with Inkscape (http://www.inkscape.org/) -->

<svg
   version="1.1"
   id="svg2"
   width="556.20001"
   height="127.13333"
   viewBox="0 0 556.20001 127.13333"
   sodipodi:docname="CITYLAB_LOGO_GROEN_LABEL_HORIZONTAAL_CMYK.eps"
   xmlns:inkscape="http://www.inkscape.org/namespaces/inkscape"
   xmlns:sodipodi="http://sodipodi.sourceforge.net/DTD/sodipodi-0.dtd"
   xmlns="http://www.w3.org/2000/svg"
   xmlns:svg="http://www.w3.org/2000/svg">
  <defs
     id="defs6" />
  <sodipodi:namedview
     id="namedview4"
     pagecolor="#ffffff"
     bordercolor="#000000"
     borderopacity="0.25"
     inkscape:showpageshadow="2"
     inkscape:pageopacity="0.0"
     inkscape:pagecheckerboard="0"
     inkscape:deskcolor="#d1d1d1" />
  <g
     id="g8"
     inkscape:groupmode="layer"
     inkscape:label="ink_ext_XXXXXX"
     transform="matrix(1.3333333,0,0,-1.3333333,0,127.13333)">
    <g
       id="g10"
       transform="scale(0.1)">
      <path
         d="M 240.609,953.512 0,712.883 V 225.844 L 225.809,0.0117188 3977.55,0 4171.49,193.957 V 747.242 L 3965.25,953.5 240.609,953.512"
         style="fill:#19ae48;fill-opacity:1;fill-rule:nonzero;stroke:none"
         id="path12" />
      <path
         d="m 4013.9,438.469 -39.39,39.355 39.39,39.399 0.01,182.668 -104.03,104.019 -422.52,0.004 V 151.777 l 422.5,0.442 104.04,103.582 z m -397.25,-25.246 239.58,-0.004 34.04,-34.078 -1.05,-65.106 -33.07,-33.051 -239.5,-3.781 z m 273.74,161.414 -33.99,-32.168 -239.75,0.004 v 132.148 h 239.58 l 34.17,-34.164 z M 3232.84,149.594 h 128.15 V 667.516 L 3223.17,802.652 2953.3,801.395 2816.71,665.922 V 149.594 h 128.24 v 194.652 h 287.89 z m -1.1,324.07 h -286.29 v 136.84 l 61.5,61.492 h 163.28 l 61.51,-61.492 z m -1019.53,-323.141 526,-0.003 v 129.293 h -397.27 v 522.843 h -129.27 z m -302.1,239.665 199.55,199.546 V 802.656 H 1981.3 V 642.441 l -134,-133.957 -133.98,134 v 160.172 l -129.29,0.004 V 588.836 L 1782.67,390.188 V 150.547 h 129.27 z M 1327.8,673.41 h 177.73 V 802.66 H 1020.82 V 673.41 h 177.71 l -0.01,-522.863 H 1327.8 Z M 762.613,150.527 H 912.781 V 802.66 H 762.613 Z M 513.008,397.445 V 341.313 L 451.516,279.82 H 348.375 l -61.512,61.493 v 270.566 l 61.516,61.492 h 103.137 l 61.492,-61.492 v -54.574 l 129.293,-0.004 V 665.527 L 505.168,802.66 294.707,802.664 157.574,665.531 157.57,568.742 V 287.664 L 294.703,150.527 h 208.211 l 139.387,137.071 v 109.843 l -129.293,0.004"
         style="fill:#ffffff;fill-opacity:1;fill-rule:nonzero;stroke:none"
         id="path14" />
    </g>
  </g>
</svg>
