<?xml version='1.0' encoding='utf-8'?>
<svg height="212.82mm" viewBox="0.0 0.0 189.66 212.82" width="189.66mm" xmlns="http://www.w3.org/2000/svg" xmlns:cc="http://creativecommons.org/ns#" xmlns:dc="http://purl.org/dc/elements/1.1/" xmlns:inkscape="http://www.inkscape.org/namespaces/inkscape" xmlns:rdf="http://www.w3.org/1999/02/22-rdf-syntax-ns#" xmlns:svg="http://www.w3.org/2000/svg" xmlns:xlink="http://www.w3.org/1999/xlink">
<!--
NotesHolder - Box for holding a stack of paper, coasters etc


If the feet of the `Stackable` `bottom_edge`
don't fit on the front (and back) walls you can make them smaller by
reducing `width` and/or increasing `angle` in the `Settings for
Stackable Edges`. Reducing the `opening` will also give more space for
the feet.


Created with Boxes.py (https://boxes.hackerspace-bamberg.de/)
Creation date: 2025-04-18 12:06:32
Command line (remove spaces between dashes): boxes NotesHolder '- -sx=78*1' - -burn=0.04
Url: https://boxes.hackerspace-bamberg.de/NotesHolder?FingerJoint_style=rectangular&FingerJoint_surroundingspaces=1.0&FingerJoint_bottom_lip=0.0&FingerJoint_edge_width=1.0&FingerJoint_extra_length=0.0&FingerJoint_finger=2.0&FingerJoint_play=0.0&FingerJoint_space=2.0&FingerJoint_width=1.0&Stackable_angle=60&Stackable_bottom_stabilizers=0.0&Stackable_height=2.0&Stackable_holedistance=1.0&Stackable_width=4.0&sx=78*1&y=78&h=35&bottom_edge=s&opening=40&back_openings=0&thickness=3.0&format=svg&tabs=0.0&qr_code=0&debug=0&labels=0&labels=1&reference=100.0&inner_corners=loop&burn=0.04&language=None&render=2
Url short: https://boxes.hackerspace-bamberg.de/NotesHolder?sx=78*1&burn=0.04
SettingsUrl: https://boxes.hackerspace-bamberg.de/NotesHolder?FingerJoint_style=rectangular&FingerJoint_surroundingspaces=1.0&FingerJoint_bottom_lip=0.0&FingerJoint_edge_width=1.0&FingerJoint_extra_length=0.0&FingerJoint_finger=2.0&FingerJoint_play=0.0&FingerJoint_space=2.0&FingerJoint_width=1.0&Stackable_angle=60&Stackable_bottom_stabilizers=0.0&Stackable_height=2.0&Stackable_holedistance=1.0&Stackable_width=4.0&sx=78*1&y=78&h=35&bottom_edge=s&opening=40&back_openings=0&thickness=3.0&format=svg&tabs=0.0&qr_code=0&debug=0&labels=0&labels=1&reference=100.0&inner_corners=loop&burn=0.04&language=None&render=2
SettingsUrl short: https://boxes.hackerspace-bamberg.de/NotesHolder?sx=78*1&burn=0.04
-->
<title>NotesHolder</title>
<metadata>
<rdf:RDF><cc:Work>
<dc:title>Box - NotesHolder</dc:title>
<dc:date>2025-04-18 12:06:32</dc:date>
<dc:source>https://boxes.hackerspace-bamberg.de/NotesHolder?FingerJoint_style=rectangular&amp;FingerJoint_surroundingspaces=1.0&amp;FingerJoint_bottom_lip=0.0&amp;FingerJoint_edge_width=1.0&amp;FingerJoint_extra_length=0.0&amp;FingerJoint_finger=2.0&amp;FingerJoint_play=0.0&amp;FingerJoint_space=2.0&amp;FingerJoint_width=1.0&amp;Stackable_angle=60&amp;Stackable_bottom_stabilizers=0.0&amp;Stackable_height=2.0&amp;Stackable_holedistance=1.0&amp;Stackable_width=4.0&amp;sx=78*1&amp;y=78&amp;h=35&amp;bottom_edge=s&amp;opening=40&amp;back_openings=0&amp;thickness=3.0&amp;format=svg&amp;tabs=0.0&amp;qr_code=0&amp;debug=0&amp;labels=0&amp;labels=1&amp;reference=100.0&amp;inner_corners=loop&amp;burn=0.04&amp;language=None&amp;render=2</dc:source>
<dc:source>https://boxes.hackerspace-bamberg.de/NotesHolder?sx=78*1&amp;burn=0.04</dc:source>
<dc:description>Box for holding a stack of paper, coasters etc

If the feet of the `Stackable` `bottom_edge`
don't fit on the front (and back) walls you can make them smaller by
reducing `width` and/or increasing `angle` in the `Settings for
Stackable Edges`. Reducing the `opening` will also give more space for
the feet.

Created with Boxes.py (https://boxes.hackerspace-bamberg.de/)
Command line: boxes NotesHolder --FingerJoint_style=rectangular --FingerJoint_surroundingspaces=1.0 --FingerJoint_bottom_lip=0.0 --FingerJoint_edge_width=1.0 --FingerJoint_extra_length=0.0 --FingerJoint_finger=2.0 --FingerJoint_play=0.0 --FingerJoint_space=2.0 --FingerJoint_width=1.0 --Stackable_angle=60 --Stackable_bottom_stabilizers=0.0 --Stackable_height=2.0 --Stackable_holedistance=1.0 --Stackable_width=4.0 '--sx=78*1' --y=78 --h=35 --bottom_edge=s --opening=40 --back_openings=0 --thickness=3.0 --format=svg --tabs=0.0 --qr_code=0 --debug=0 --labels=0 --labels=1 --reference=100.0 --inner_corners=loop --burn=0.04
Command line short: boxes NotesHolder '--sx=78*1' --burn=0.04
Url: https://boxes.hackerspace-bamberg.de/NotesHolder?FingerJoint_style=rectangular&amp;FingerJoint_surroundingspaces=1.0&amp;FingerJoint_bottom_lip=0.0&amp;FingerJoint_edge_width=1.0&amp;FingerJoint_extra_length=0.0&amp;FingerJoint_finger=2.0&amp;FingerJoint_play=0.0&amp;FingerJoint_space=2.0&amp;FingerJoint_width=1.0&amp;Stackable_angle=60&amp;Stackable_bottom_stabilizers=0.0&amp;Stackable_height=2.0&amp;Stackable_holedistance=1.0&amp;Stackable_width=4.0&amp;sx=78*1&amp;y=78&amp;h=35&amp;bottom_edge=s&amp;opening=40&amp;back_openings=0&amp;thickness=3.0&amp;format=svg&amp;tabs=0.0&amp;qr_code=0&amp;debug=0&amp;labels=0&amp;labels=1&amp;reference=100.0&amp;inner_corners=loop&amp;burn=0.04&amp;language=None&amp;render=2
Url short: https://boxes.hackerspace-bamberg.de/NotesHolder?sx=78*1&amp;burn=0.04
SettingsUrl: https://boxes.hackerspace-bamberg.de/NotesHolder?FingerJoint_style=rectangular&amp;FingerJoint_surroundingspaces=1.0&amp;FingerJoint_bottom_lip=0.0&amp;FingerJoint_edge_width=1.0&amp;FingerJoint_extra_length=0.0&amp;FingerJoint_finger=2.0&amp;FingerJoint_play=0.0&amp;FingerJoint_space=2.0&amp;FingerJoint_width=1.0&amp;Stackable_angle=60&amp;Stackable_bottom_stabilizers=0.0&amp;Stackable_height=2.0&amp;Stackable_holedistance=1.0&amp;Stackable_width=4.0&amp;sx=78*1&amp;y=78&amp;h=35&amp;bottom_edge=s&amp;opening=40&amp;back_openings=0&amp;thickness=3.0&amp;format=svg&amp;tabs=0.0&amp;qr_code=0&amp;debug=0&amp;labels=0&amp;labels=1&amp;reference=100.0&amp;inner_corners=loop&amp;burn=0.04&amp;language=None&amp;render=2
SettingsUrl short: https://boxes.hackerspace-bamberg.de/NotesHolder?sx=78*1&amp;burn=0.04
</dc:description>
</cc:Work></rdf:RDF></metadata>
<g id="p-0" style="fill:none;stroke-linecap:round;stroke-linejoin:round;">
  <path d="M 10.040 202.820 H 110.040 V 192.820 H 10.040 V 202.820 Z" stroke="rgb(0,0,0)" stroke-width="0.08" />
  <text dominant-baseline="hanging" font-size="6px" style="font-family: sans-serif ; font-weight: normal; font-style: normal; fill: rgb(255,0,0)" text-anchor="middle" transform="matrix( 1.000 0.000 0.000 1.000 60.040 194.820 )">100.0mm, burn:0.04mm</text>
</g>
<g id="p-1" style="fill:none;stroke-linecap:round;stroke-linejoin:round;">
  <path d="M 22.040 182.200 H 19.080 C 19.040 182.200 19.080 182.240 19.080 182.200 V 179.280 C 19.080 179.240 19.040 179.280 19.080 179.280 H 25.000 C 25.040 179.280 25.000 179.240 25.000 179.280 V 182.200 C 25.000 182.240 25.040 182.200 25.000 182.200 H 22.040 Z" stroke="rgb(0,0,255)" stroke-width="0.08" />
  <path d="M 34.040 182.200 H 31.080 C 31.040 182.200 31.080 182.240 31.080 182.200 V 179.280 C 31.080 179.240 31.040 179.280 31.080 179.280 H 37.000 C 37.040 179.280 37.000 179.240 37.000 179.280 V 182.200 C 37.000 182.240 37.040 182.200 37.000 182.200 H 34.040 Z" stroke="rgb(0,0,255)" stroke-width="0.08" />
  <path d="M 46.040 182.200 H 43.080 C 43.040 182.200 43.080 182.240 43.080 182.200 V 179.280 C 43.080 179.240 43.040 179.280 43.080 179.280 H 49.000 C 49.040 179.280 49.000 179.240 49.000 179.280 V 182.200 C 49.000 182.240 49.040 182.200 49.000 182.200 H 46.040 Z" stroke="rgb(0,0,255)" stroke-width="0.08" />
  <path d="M 58.040 182.200 H 55.080 C 55.040 182.200 55.080 182.240 55.080 182.200 V 179.280 C 55.080 179.240 55.040 179.280 55.080 179.280 H 61.000 C 61.040 179.280 61.000 179.240 61.000 179.280 V 182.200 C 61.000 182.240 61.040 182.200 61.000 182.200 H 58.040 Z" stroke="rgb(0,0,255)" stroke-width="0.08" />
  <path d="M 70.040 182.200 H 67.080 C 67.040 182.200 67.080 182.240 67.080 182.200 V 179.280 C 67.080 179.240 67.040 179.280 67.080 179.280 H 73.000 C 73.040 179.280 73.000 179.240 73.000 179.280 V 182.200 C 73.000 182.240 73.040 182.200 73.000 182.200 H 70.040 Z" stroke="rgb(0,0,255)" stroke-width="0.08" />
  <path d="M 82.040 182.200 H 79.080 C 79.040 182.200 79.080 182.240 79.080 182.200 V 179.280 C 79.080 179.240 79.040 179.280 79.080 179.280 H 85.000 C 85.040 179.280 85.000 179.240 85.000 179.280 V 182.200 C 85.000 182.240 85.040 182.200 85.000 182.200 H 82.040 Z" stroke="rgb(0,0,255)" stroke-width="0.08" />
  <path d="M 13.040 191.240 H 25.040 C 26.100 191.240 27.142 190.961 28.060 190.431 C 28.978 189.901 29.741 189.138 30.271 188.220 C 30.794 187.314 31.546 186.562 32.452 186.038 C 33.358 185.515 34.386 185.240 35.432 185.240 H 68.648 C 69.694 185.240 70.722 185.515 71.628 186.038 C 72.534 186.562 73.286 187.314 73.809 188.220 C 74.339 189.138 75.102 189.901 76.020 190.431 C 76.938 190.961 77.980 191.240 79.040 191.240 H 91.040 H 94.040 C 94.062 191.240 94.080 191.222 94.080 191.200 V 182.700 C 94.080 182.678 94.062 182.660 94.040 182.660 H 91.080 C 91.040 182.660 91.080 182.700 91.080 182.660 V 176.740 C 91.080 176.700 91.040 176.740 91.080 176.740 H 94.040 C 94.062 176.740 94.080 176.722 94.080 176.700 V 170.700 C 94.080 170.678 94.062 170.660 94.040 170.660 H 91.080 C 91.040 170.660 91.080 170.700 91.080 170.660 V 164.740 C 91.080 164.700 91.040 164.740 91.080 164.740 H 94.040 C 94.062 164.740 94.080 164.722 94.080 164.700 V 158.700 C 94.080 158.678 94.062 158.660 94.040 158.660 H 91.080 C 91.040 158.660 91.080 158.700 91.080 158.660 V 152.740 C 91.080 152.700 91.040 152.740 91.080 152.740 H 94.040 C 94.062 152.740 94.080 152.722 94.080 152.700 V 144.200 C 94.080 144.178 94.062 144.160 94.040 144.160 H 91.040 H 13.040 H 10.040 C 10.018 144.160 10.000 144.178 10.000 144.200 V 152.700 C 10.000 152.722 10.018 152.740 10.040 152.740 H 13.000 C 13.040 152.740 13.000 152.700 13.000 152.740 V 158.660 C 13.000 158.700 13.040 158.660 13.000 158.660 H 10.040 C 10.018 158.660 10.000 158.678 10.000 158.700 V 164.700 C 10.000 164.722 10.018 164.740 10.040 164.740 H 13.000 C 13.040 164.740 13.000 164.700 13.000 164.740 V 170.660 C 13.000 170.700 13.040 170.660 13.000 170.660 H 10.040 C 10.018 170.660 10.000 170.678 10.000 170.700 V 176.700 C 10.000 176.722 10.018 176.740 10.040 176.740 H 13.000 C 13.040 176.740 13.000 176.700 13.000 176.740 V 182.660 C 13.000 182.700 13.040 182.660 13.000 182.660 H 10.040 C 10.018 182.660 10.000 182.678 10.000 182.700 V 191.200 C 10.000 191.222 10.018 191.240 10.040 191.240 H 13.040 Z" stroke="rgb(0,0,0)" stroke-width="0.08" />
</g>
<g id="p-2" style="fill:none;stroke-linecap:round;stroke-linejoin:round;">
  <path d="M 110.320 182.200 H 107.360 C 107.320 182.200 107.360 182.240 107.360 182.200 V 179.280 C 107.360 179.240 107.320 179.280 107.360 179.280 H 113.280 C 113.320 179.280 113.280 179.240 113.280 179.280 V 182.200 C 113.280 182.240 113.320 182.200 113.280 182.200 H 110.320 Z" stroke="rgb(0,0,255)" stroke-width="0.08" />
  <path d="M 98.620 191.240 H 110.620 C 111.680 191.240 112.722 190.961 113.640 190.431 C 114.558 189.901 115.321 189.138 115.851 188.220 C 116.374 187.314 117.126 186.562 118.032 186.038 C 118.938 185.515 119.966 185.240 121.012 185.240 H 122.020 C 122.042 185.240 122.060 185.222 122.060 185.200 V 144.200 C 122.060 144.178 122.042 144.160 122.020 144.160 H 98.620 C 98.598 144.160 98.580 144.178 98.580 144.200 V 152.660 C 98.580 152.700 98.620 152.660 98.580 152.660 H 95.620 C 95.598 152.660 95.580 152.678 95.580 152.700 V 158.700 C 95.580 158.722 95.598 158.740 95.620 158.740 H 98.580 C 98.620 158.740 98.580 158.700 98.580 158.740 V 164.660 C 98.580 164.700 98.620 164.660 98.580 164.660 H 95.620 C 95.598 164.660 95.580 164.678 95.580 164.700 V 170.700 C 95.580 170.722 95.598 170.740 95.620 170.740 H 98.580 C 98.620 170.740 98.580 170.700 98.580 170.740 V 176.660 C 98.580 176.700 98.620 176.660 98.580 176.660 H 95.620 C 95.598 176.660 95.580 176.678 95.580 176.700 V 182.700 C 95.580 182.722 95.598 182.740 95.620 182.740 H 98.580 C 98.620 182.740 98.580 182.700 98.580 182.740 V 191.200 C 98.580 191.222 98.598 191.240 98.620 191.240 Z" stroke="rgb(0,0,0)" stroke-width="0.08" />
</g>
<g id="p-3" style="fill:none;stroke-linecap:round;stroke-linejoin:round;">
  <path d="M 135.300 182.200 H 138.260 C 138.300 182.200 138.260 182.240 138.260 182.200 V 179.280 C 138.260 179.240 138.300 179.280 138.260 179.280 H 132.340 C 132.300 179.280 132.340 179.240 132.340 179.280 V 182.200 C 132.340 182.240 132.300 182.200 132.340 182.200 H 135.300 Z" stroke="rgb(0,0,255)" stroke-width="0.08" />
  <path d="M 147.000 191.240 H 135.000 C 133.940 191.240 132.898 190.961 131.980 190.431 C 131.062 189.901 130.299 189.138 129.769 188.220 C 129.246 187.314 128.494 186.562 127.588 186.038 C 126.682 185.515 125.654 185.240 124.608 185.240 H 123.600 C 123.578 185.240 123.560 185.222 123.560 185.200 V 144.200 C 123.560 144.178 123.578 144.160 123.600 144.160 H 147.000 C 147.022 144.160 147.040 144.178 147.040 144.200 V 152.660 C 147.040 152.700 147.000 152.660 147.040 152.660 H 150.000 C 150.022 152.660 150.040 152.678 150.040 152.700 V 158.700 C 150.040 158.722 150.022 158.740 150.000 158.740 H 147.040 C 147.000 158.740 147.040 158.700 147.040 158.740 V 164.660 C 147.040 164.700 147.000 164.660 147.040 164.660 H 150.000 C 150.022 164.660 150.040 164.678 150.040 164.700 V 170.700 C 150.040 170.722 150.022 170.740 150.000 170.740 H 147.040 C 147.000 170.740 147.040 170.700 147.040 170.740 V 176.660 C 147.040 176.700 147.000 176.660 147.040 176.660 H 150.000 C 150.022 176.660 150.040 176.678 150.040 176.700 V 182.700 C 150.040 182.722 150.022 182.740 150.000 182.740 H 147.040 C 147.000 182.740 147.040 182.700 147.040 182.740 V 191.200 C 147.040 191.222 147.022 191.240 147.000 191.240 Z" stroke="rgb(0,0,0)" stroke-width="0.08" />
</g>
<g id="p-4" style="fill:none;stroke-linecap:round;stroke-linejoin:round;">
  <path d="M 22.040 133.620 H 19.080 C 19.040 133.620 19.080 133.660 19.080 133.620 V 130.700 C 19.080 130.660 19.040 130.700 19.080 130.700 H 25.000 C 25.040 130.700 25.000 130.660 25.000 130.700 V 133.620 C 25.000 133.660 25.040 133.620 25.000 133.620 H 22.040 Z" stroke="rgb(0,0,255)" stroke-width="0.08" />
  <path d="M 34.040 133.620 H 31.080 C 31.040 133.620 31.080 133.660 31.080 133.620 V 130.700 C 31.080 130.660 31.040 130.700 31.080 130.700 H 37.000 C 37.040 130.700 37.000 130.660 37.000 130.700 V 133.620 C 37.000 133.660 37.040 133.620 37.000 133.620 H 34.040 Z" stroke="rgb(0,0,255)" stroke-width="0.08" />
  <path d="M 46.040 133.620 H 43.080 C 43.040 133.620 43.080 133.660 43.080 133.620 V 130.700 C 43.080 130.660 43.040 130.700 43.080 130.700 H 49.000 C 49.040 130.700 49.000 130.660 49.000 130.700 V 133.620 C 49.000 133.660 49.040 133.620 49.000 133.620 H 46.040 Z" stroke="rgb(0,0,255)" stroke-width="0.08" />
  <path d="M 58.040 133.620 H 55.080 C 55.040 133.620 55.080 133.660 55.080 133.620 V 130.700 C 55.080 130.660 55.040 130.700 55.080 130.700 H 61.000 C 61.040 130.700 61.000 130.660 61.000 130.700 V 133.620 C 61.000 133.660 61.040 133.620 61.000 133.620 H 58.040 Z" stroke="rgb(0,0,255)" stroke-width="0.08" />
  <path d="M 70.040 133.620 H 67.080 C 67.040 133.620 67.080 133.660 67.080 133.620 V 130.700 C 67.080 130.660 67.040 130.700 67.080 130.700 H 73.000 C 73.040 130.700 73.000 130.660 73.000 130.700 V 133.620 C 73.000 133.660 73.040 133.620 73.000 133.620 H 70.040 Z" stroke="rgb(0,0,255)" stroke-width="0.08" />
  <path d="M 82.040 133.620 H 79.080 C 79.040 133.620 79.080 133.660 79.080 133.620 V 130.700 C 79.080 130.660 79.040 130.700 79.080 130.700 H 85.000 C 85.040 130.700 85.000 130.660 85.000 130.700 V 133.620 C 85.000 133.660 85.040 133.620 85.000 133.620 H 82.040 Z" stroke="rgb(0,0,255)" stroke-width="0.08" />
  <path d="M 13.040 142.660 H 25.040 C 26.100 142.660 27.142 142.381 28.060 141.851 C 28.978 141.321 29.741 140.558 30.271 139.640 C 30.794 138.734 31.546 137.982 32.452 137.458 C 33.358 136.935 34.386 136.660 35.432 136.660 H 68.648 C 69.694 136.660 70.722 136.935 71.628 137.458 C 72.534 137.982 73.286 138.734 73.809 139.640 C 74.339 140.558 75.102 141.321 76.020 141.851 C 76.938 142.381 77.980 142.660 79.040 142.660 H 91.040 H 94.040 C 94.062 142.660 94.080 142.642 94.080 142.620 V 134.120 C 94.080 134.098 94.062 134.080 94.040 134.080 H 91.080 C 91.040 134.080 91.080 134.120 91.080 134.080 V 128.160 C 91.080 128.120 91.040 128.160 91.080 128.160 H 94.040 C 94.062 128.160 94.080 128.142 94.080 128.120 V 122.120 C 94.080 122.098 94.062 122.080 94.040 122.080 H 91.080 C 91.040 122.080 91.080 122.120 91.080 122.080 V 116.160 C 91.080 116.120 91.040 116.160 91.080 116.160 H 94.040 C 94.062 116.160 94.080 116.142 94.080 116.120 V 110.120 C 94.080 110.098 94.062 110.080 94.040 110.080 H 91.080 C 91.040 110.080 91.080 110.120 91.080 110.080 V 104.160 C 91.080 104.120 91.040 104.160 91.080 104.160 H 94.040 C 94.062 104.160 94.080 104.142 94.080 104.120 V 95.620 C 94.080 95.598 94.062 95.580 94.040 95.580 H 91.040 H 13.040 H 10.040 C 10.018 95.580 10.000 95.598 10.000 95.620 V 104.120 C 10.000 104.142 10.018 104.160 10.040 104.160 H 13.000 C 13.040 104.160 13.000 104.120 13.000 104.160 V 110.080 C 13.000 110.120 13.040 110.080 13.000 110.080 H 10.040 C 10.018 110.080 10.000 110.098 10.000 110.120 V 116.120 C 10.000 116.142 10.018 116.160 10.040 116.160 H 13.000 C 13.040 116.160 13.000 116.120 13.000 116.160 V 122.080 C 13.000 122.120 13.040 122.080 13.000 122.080 H 10.040 C 10.018 122.080 10.000 122.098 10.000 122.120 V 128.120 C 10.000 128.142 10.018 128.160 10.040 128.160 H 13.000 C 13.040 128.160 13.000 128.120 13.000 128.160 V 134.080 C 13.000 134.120 13.040 134.080 13.000 134.080 H 10.040 C 10.018 134.080 10.000 134.098 10.000 134.120 V 142.620 C 10.000 142.642 10.018 142.660 10.040 142.660 H 13.040 Z" stroke="rgb(0,0,0)" stroke-width="0.08" />
</g>
<g id="p-5" style="fill:none;stroke-linecap:round;stroke-linejoin:round;">
  <path d="M 107.620 133.620 H 104.660 C 104.620 133.620 104.660 133.660 104.660 133.620 V 130.700 C 104.660 130.660 104.620 130.700 104.660 130.700 H 110.580 C 110.620 130.700 110.580 130.660 110.580 130.700 V 133.620 C 110.580 133.660 110.620 133.620 110.580 133.620 H 107.620 Z" stroke="rgb(0,0,255)" stroke-width="0.08" />
  <path d="M 119.620 133.620 H 116.660 C 116.620 133.620 116.660 133.660 116.660 133.620 V 130.700 C 116.660 130.660 116.620 130.700 116.660 130.700 H 122.580 C 122.620 130.700 122.580 130.660 122.580 130.700 V 133.620 C 122.580 133.660 122.620 133.620 122.580 133.620 H 119.620 Z" stroke="rgb(0,0,255)" stroke-width="0.08" />
  <path d="M 131.620 133.620 H 128.660 C 128.620 133.620 128.660 133.660 128.660 133.620 V 130.700 C 128.660 130.660 128.620 130.700 128.660 130.700 H 134.580 C 134.620 130.700 134.580 130.660 134.580 130.700 V 133.620 C 134.580 133.660 134.620 133.620 134.580 133.620 H 131.620 Z" stroke="rgb(0,0,255)" stroke-width="0.08" />
  <path d="M 143.620 133.620 H 140.660 C 140.620 133.620 140.660 133.660 140.660 133.620 V 130.700 C 140.660 130.660 140.620 130.700 140.660 130.700 H 146.580 C 146.620 130.700 146.580 130.660 146.580 130.700 V 133.620 C 146.580 133.660 146.620 133.620 146.580 133.620 H 143.620 Z" stroke="rgb(0,0,255)" stroke-width="0.08" />
  <path d="M 155.620 133.620 H 152.660 C 152.620 133.620 152.660 133.660 152.660 133.620 V 130.700 C 152.660 130.660 152.620 130.700 152.660 130.700 H 158.580 C 158.620 130.700 158.580 130.660 158.580 130.700 V 133.620 C 158.580 133.660 158.620 133.620 158.580 133.620 H 155.620 Z" stroke="rgb(0,0,255)" stroke-width="0.08" />
  <path d="M 167.620 133.620 H 164.660 C 164.620 133.620 164.660 133.660 164.660 133.620 V 130.700 C 164.660 130.660 164.620 130.700 164.660 130.700 H 170.580 C 170.620 130.700 170.580 130.660 170.580 130.700 V 133.620 C 170.580 133.660 170.620 133.620 170.580 133.620 H 167.620 Z" stroke="rgb(0,0,255)" stroke-width="0.08" />
  <path d="M 98.620 142.660 H 110.620 C 111.680 142.660 112.722 142.381 113.640 141.851 C 114.558 141.321 115.321 140.558 115.851 139.640 C 116.374 138.734 117.126 137.982 118.032 137.458 C 118.938 136.935 119.966 136.660 121.012 136.660 H 154.228 C 155.274 136.660 156.302 136.935 157.208 137.458 C 158.114 137.982 158.866 138.734 159.389 139.640 C 159.919 140.558 160.682 141.321 161.600 141.851 C 162.518 142.381 163.560 142.660 164.620 142.660 H 176.620 C 176.642 142.660 176.660 142.642 176.660 142.620 V 134.160 C 176.660 134.120 176.620 134.160 176.660 134.160 H 179.620 C 179.642 134.160 179.660 134.142 179.660 134.120 V 128.120 C 179.660 128.098 179.642 128.080 179.620 128.080 H 176.660 C 176.620 128.080 176.660 128.120 176.660 128.080 V 122.160 C 176.660 122.120 176.620 122.160 176.660 122.160 H 179.620 C 179.642 122.160 179.660 122.142 179.660 122.120 V 116.120 C 179.660 116.098 179.642 116.080 179.620 116.080 H 176.660 C 176.620 116.080 176.660 116.120 176.660 116.080 V 110.160 C 176.660 110.120 176.620 110.160 176.660 110.160 H 179.620 C 179.642 110.160 179.660 110.142 179.660 110.120 V 104.120 C 179.660 104.098 179.642 104.080 179.620 104.080 H 176.660 C 176.620 104.080 176.660 104.120 176.660 104.080 V 95.620 C 176.660 95.598 176.642 95.580 176.620 95.580 H 98.620 C 98.598 95.580 98.580 95.598 98.580 95.620 V 104.080 C 98.580 104.120 98.620 104.080 98.580 104.080 H 95.620 C 95.598 104.080 95.580 104.098 95.580 104.120 V 110.120 C 95.580 110.142 95.598 110.160 95.620 110.160 H 98.580 C 98.620 110.160 98.580 110.120 98.580 110.160 V 116.080 C 98.580 116.120 98.620 116.080 98.580 116.080 H 95.620 C 95.598 116.080 95.580 116.098 95.580 116.120 V 122.120 C 95.580 122.142 95.598 122.160 95.620 122.160 H 98.580 C 98.620 122.160 98.580 122.120 98.580 122.160 V 128.080 C 98.580 128.120 98.620 128.080 98.580 128.080 H 95.620 C 95.598 128.080 95.580 128.098 95.580 128.120 V 134.120 C 95.580 134.142 95.598 134.160 95.620 134.160 H 98.580 C 98.620 134.160 98.580 134.120 98.580 134.160 V 142.620 C 98.580 142.642 98.598 142.660 98.620 142.660 Z" stroke="rgb(0,0,0)" stroke-width="0.08" />
</g>
<g id="p-6" style="fill:none;stroke-linecap:round;stroke-linejoin:round;">
  <path d="M 13.040 91.080 H 21.700 C 21.740 91.080 21.700 91.040 21.700 91.080 V 94.040 C 21.700 94.062 21.718 94.080 21.740 94.080 H 27.740 C 27.762 94.080 27.780 94.062 27.780 94.040 V 91.080 C 27.780 91.040 27.740 91.080 27.780 91.080 H 36.440 C 36.462 91.080 36.480 91.062 36.480 91.040 C 36.480 89.467 36.894 87.922 37.680 86.560 C 38.467 85.198 39.598 84.067 40.960 83.280 C 42.322 82.494 43.867 82.080 45.440 82.080 H 58.640 C 60.213 82.080 61.758 82.494 63.120 83.280 C 64.482 84.067 65.613 85.198 66.400 86.560 C 67.186 87.922 67.600 89.467 67.600 91.040 C 67.600 91.062 67.618 91.080 67.640 91.080 H 76.300 C 76.340 91.080 76.300 91.040 76.300 91.080 V 94.040 C 76.300 94.062 76.318 94.080 76.340 94.080 H 82.340 C 82.362 94.080 82.380 94.062 82.380 94.040 V 91.080 C 82.380 91.040 82.340 91.080 82.380 91.080 H 91.040 C 91.062 91.080 91.080 91.062 91.080 91.040 V 85.080 C 91.080 85.040 91.040 85.080 91.080 85.080 H 94.040 C 94.062 85.080 94.080 85.062 94.080 85.040 V 79.040 C 94.080 79.018 94.062 79.000 94.040 79.000 H 91.080 C 91.040 79.000 91.080 79.040 91.080 79.000 V 73.080 C 91.080 73.040 91.040 73.080 91.080 73.080 H 94.040 C 94.062 73.080 94.080 73.062 94.080 73.040 V 67.040 C 94.080 67.018 94.062 67.000 94.040 67.000 H 91.080 C 91.040 67.000 91.080 67.040 91.080 67.000 V 61.080 C 91.080 61.040 91.040 61.080 91.080 61.080 H 94.040 C 94.062 61.080 94.080 61.062 94.080 61.040 V 55.040 C 94.080 55.018 94.062 55.000 94.040 55.000 H 91.080 C 91.040 55.000 91.080 55.040 91.080 55.000 V 49.080 C 91.080 49.040 91.040 49.080 91.080 49.080 H 94.040 C 94.062 49.080 94.080 49.062 94.080 49.040 V 43.040 C 94.080 43.018 94.062 43.000 94.040 43.000 H 91.080 C 91.040 43.000 91.080 43.040 91.080 43.000 V 37.080 C 91.080 37.040 91.040 37.080 91.080 37.080 H 94.040 C 94.062 37.080 94.080 37.062 94.080 37.040 V 31.040 C 94.080 31.018 94.062 31.000 94.040 31.000 H 91.080 C 91.040 31.000 91.080 31.040 91.080 31.000 V 25.080 C 91.080 25.040 91.040 25.080 91.080 25.080 H 94.040 C 94.062 25.080 94.080 25.062 94.080 25.040 V 19.040 C 94.080 19.018 94.062 19.000 94.040 19.000 H 91.080 C 91.040 19.000 91.080 19.040 91.080 19.000 V 13.040 C 91.080 13.018 91.062 13.000 91.040 13.000 H 85.080 C 85.040 13.000 85.080 13.040 85.080 13.000 V 10.040 C 85.080 10.018 85.062 10.000 85.040 10.000 H 79.040 C 79.018 10.000 79.000 10.018 79.000 10.040 V 13.000 C 79.000 13.040 79.040 13.000 79.000 13.000 H 73.080 C 73.040 13.000 73.080 13.040 73.080 13.000 V 10.040 C 73.080 10.018 73.062 10.000 73.040 10.000 H 67.040 C 67.018 10.000 67.000 10.018 67.000 10.040 V 13.000 C 67.000 13.040 67.040 13.000 67.000 13.000 H 61.080 C 61.040 13.000 61.080 13.040 61.080 13.000 V 10.040 C 61.080 10.018 61.062 10.000 61.040 10.000 H 55.040 C 55.018 10.000 55.000 10.018 55.000 10.040 V 13.000 C 55.000 13.040 55.040 13.000 55.000 13.000 H 49.080 C 49.040 13.000 49.080 13.040 49.080 13.000 V 10.040 C 49.080 10.018 49.062 10.000 49.040 10.000 H 43.040 C 43.018 10.000 43.000 10.018 43.000 10.040 V 13.000 C 43.000 13.040 43.040 13.000 43.000 13.000 H 37.080 C 37.040 13.000 37.080 13.040 37.080 13.000 V 10.040 C 37.080 10.018 37.062 10.000 37.040 10.000 H 31.040 C 31.018 10.000 31.000 10.018 31.000 10.040 V 13.000 C 31.000 13.040 31.040 13.000 31.000 13.000 H 25.080 C 25.040 13.000 25.080 13.040 25.080 13.000 V 10.040 C 25.080 10.018 25.062 10.000 25.040 10.000 H 19.040 C 19.018 10.000 19.000 10.018 19.000 10.040 V 13.000 C 19.000 13.040 19.040 13.000 19.000 13.000 H 13.040 C 13.018 13.000 13.000 13.018 13.000 13.040 V 19.000 C 13.000 19.040 13.040 19.000 13.000 19.000 H 10.040 C 10.018 19.000 10.000 19.018 10.000 19.040 V 25.040 C 10.000 25.062 10.018 25.080 10.040 25.080 H 13.000 C 13.040 25.080 13.000 25.040 13.000 25.080 V 31.000 C 13.000 31.040 13.040 31.000 13.000 31.000 H 10.040 C 10.018 31.000 10.000 31.018 10.000 31.040 V 37.040 C 10.000 37.062 10.018 37.080 10.040 37.080 H 13.000 C 13.040 37.080 13.000 37.040 13.000 37.080 V 43.000 C 13.000 43.040 13.040 43.000 13.000 43.000 H 10.040 C 10.018 43.000 10.000 43.018 10.000 43.040 V 49.040 C 10.000 49.062 10.018 49.080 10.040 49.080 H 13.000 C 13.040 49.080 13.000 49.040 13.000 49.080 V 55.000 C 13.000 55.040 13.040 55.000 13.000 55.000 H 10.040 C 10.018 55.000 10.000 55.018 10.000 55.040 V 61.040 C 10.000 61.062 10.018 61.080 10.040 61.080 H 13.000 C 13.040 61.080 13.000 61.040 13.000 61.080 V 67.000 C 13.000 67.040 13.040 67.000 13.000 67.000 H 10.040 C 10.018 67.000 10.000 67.018 10.000 67.040 V 73.040 C 10.000 73.062 10.018 73.080 10.040 73.080 H 13.000 C 13.040 73.080 13.000 73.040 13.000 73.080 V 79.000 C 13.000 79.040 13.040 79.000 13.000 79.000 H 10.040 C 10.018 79.000 10.000 79.018 10.000 79.040 V 85.040 C 10.000 85.062 10.018 85.080 10.040 85.080 H 13.000 C 13.040 85.080 13.000 85.040 13.000 85.080 V 91.040 C 13.000 91.062 13.018 91.080 13.040 91.080 Z" stroke="rgb(0,0,0)" stroke-width="0.08" />
</g>
</svg>