  0
SECTION
  2
HEADER
  9
$ACADVER
  1
AC1009
  9
$FILLMODE
 70
 0
  9
$SPLFRAME
 70
 1
  9
$EXTMIN
 10
0
 20
0
 30
0.0
  9
$EXTMAX
 10
41.6667
 20
41.6667
 30
0.0
  0
ENDSEC
  0
SECTION
  2
TABLES
  0
TABLE
  2
LAYER
 70
1
  0
LAYER
  2
0
 70
     0
 62
     7
  6
CONTINUOUS
  0
ENDTAB
  0
ENDSEC
  0
SECTION
  2
ENTITIES
  0
POLYLINE
  8
0
 62
     3
 66
     1
 10
0
 20
0
 30
0.0
 70
     1
 40
0
 41
0
  0
VERTEX
  8
0
 10
4.86626
 20
0.989421
 30
0.0
 40
0
 41
0
  0
VERTEX
  8
0
 10
4.86626
 20
0.00303819
 30
0.0
 40
0
 41
0
  0
VERTEX
  8
0
 10
5.30236
 20
0.00341797
 30
0.0
 40
0
 41
0
  0
VERTEX
  8
0
 10
5.34337
 20
0.00341797
 30
0.0
 40
0
 41
0
  0
VERTEX
  8
0
 10
5.34337
 20
0.00347222
 30
0.0
 40
0
 41
0
  0
VERTEX
  8
0
 10
5.51014
 20
0.00363499
 30
0.0
 40
0
 41
0
  0
VERTEX
  8
0
 10
5.67854
 20
0.171332
 30
0.0
 40
0
 41
0
  0
VERTEX
  8
0
 10
5.67854
 20
0.458768
 30
0.0
 40
0
 41
0
  0
VERTEX
  8
0
 10
5.64106
 20
0.496203
 30
0.0
 40
0
 41
0
  0
VERTEX
  8
0
 10
5.67854
 20
0.533692
 30
0.0
 40
0
 41
0
  0
VERTEX
  8
0
 10
5.67854
 20
0.821126
 30
0.0
 40
0
 41
0
  0
VERTEX
  8
0
 10
5.51019
 20
0.989421
 30
0.0
 40
0
 41
0
  0
VERTEX
  8
0
 10
4.86626
 20
0.989421
 30
0.0
 40
0
 41
0
  0
SEQEND
 8
0
  0
POLYLINE
  8
0
 62
     3
 66
     1
 10
0
 20
0
 30
0.0
 70
     1
 40
0
 41
0
  0
VERTEX
  8
0
 10
5.12804
 20
0.727647
 30
0.0
 40
0
 41
0
  0
VERTEX
  8
0
 10
5.40169
 20
0.727647
 30
0.0
 40
0
 41
0
  0
VERTEX
  8
0
 10
5.42486
 20
0.704536
 30
0.0
 40
0
 41
0
  0
VERTEX
  8
0
 10
5.42486
 20
0.648167
 30
0.0
 40
0
 41
0
  0
VERTEX
  8
0
 10
5.40256
 20
0.627061
 30
0.0
 40
0
 41
0
  0
VERTEX
  8
0
 10
5.12804
 20
0.627061
 30
0.0
 40
0
 41
0
  0
VERTEX
  8
0
 10
5.12804
 20
0.727647
 30
0.0
 40
0
 41
0
  0
SEQEND
 8
0
  0
POLYLINE
  8
0
 62
     3
 66
     1
 10
0
 20
0
 30
0.0
 70
     1
 40
0
 41
0
  0
VERTEX
  8
0
 10
5.12804
 20
0.365451
 30
0.0
 40
0
 41
0
  0
VERTEX
  8
0
 10
5.40164
 20
0.365397
 30
0.0
 40
0
 41
0
  0
VERTEX
  8
0
 10
5.42437
 20
0.342611
 30
0.0
 40
0
 41
0
  0
VERTEX
  8
0
 10
5.42344
 20
0.286621
 30
0.0
 40
0
 41
0
  0
VERTEX
  8
0
 10
5.40126
 20
0.264432
 30
0.0
 40
0
 41
0
  0
VERTEX
  8
0
 10
5.12804
 20
0.260092
 30
0.0
 40
0
 41
0
  0
VERTEX
  8
0
 10
5.12804
 20
0.365451
 30
0.0
 40
0
 41
0
  0
SEQEND
 8
0
  0
POLYLINE
  8
0
 62
     3
 66
     1
 10
0
 20
0
 30
0.0
 70
     1
 40
0
 41
0
  0
VERTEX
  8
0
 10
4.10915
 20
0.985894
 30
0.0
 40
0
 41
0
  0
VERTEX
  8
0
 10
3.89561
 20
0.774143
 30
0.0
 40
0
 41
0
  0
VERTEX
  8
0
 10
3.89561
 20
0
 30
0.0
 40
0
 41
0
  0
VERTEX
  8
0
 10
4.15593
 20
0
 30
0.0
 40
0
 41
0
  0
VERTEX
  8
0
 10
4.15593
 20
0.269749
 30
0.0
 40
0
 41
0
  0
VERTEX
  8
0
 10
4.47239
 20
0.269749
 30
0.0
 40
0
 41
0
  0
VERTEX
  8
0
 10
4.47239
 20
0
 30
0.0
 40
0
 41
0
  0
VERTEX
  8
0
 10
4.73258
 20
0
 30
0.0
 40
0
 41
0
  0
VERTEX
  8
0
 10
4.73258
 20
0.779135
 30
0.0
 40
0
 41
0
  0
VERTEX
  8
0
 10
4.51704
 20
0.987739
 30
0.0
 40
0
 41
0
  0
VERTEX
  8
0
 10
4.10915
 20
0.985894
 30
0.0
 40
0
 41
0
  0
SEQEND
 8
0
  0
POLYLINE
  8
0
 62
     3
 66
     1
 10
0
 20
0
 30
0.0
 70
     1
 40
0
 41
0
  0
VERTEX
  8
0
 10
4.15663
 20
0.662978
 30
0.0
 40
0
 41
0
  0
VERTEX
  8
0
 10
4.21783
 20
0.724121
 30
0.0
 40
0
 41
0
  0
VERTEX
  8
0
 10
4.40983
 20
0.724012
 30
0.0
 40
0
 41
0
  0
VERTEX
  8
0
 10
4.47086
 20
0.662978
 30
0.0
 40
0
 41
0
  0
VERTEX
  8
0
 10
4.47086
 20
0.531685
 30
0.0
 40
0
 41
0
  0
VERTEX
  8
0
 10
4.15663
 20
0.531685
 30
0.0
 40
0
 41
0
  0
VERTEX
  8
0
 10
4.15663
 20
0.662978
 30
0.0
 40
0
 41
0
  0
SEQEND
 8
0
  0
POLYLINE
  8
0
 62
     3
 66
     1
 10
0
 20
0
 30
0.0
 70
     1
 40
0
 41
0
  0
VERTEX
  8
0
 10
2.98703
 20
0.987739
 30
0.0
 40
0
 41
0
  0
VERTEX
  8
0
 10
2.98779
 20
0.00124783
 30
0.0
 40
0
 41
0
  0
VERTEX
  8
0
 10
3.79937
 20
0.00124783
 30
0.0
 40
0
 41
0
  0
VERTEX
  8
0
 10
3.79937
 20
0.263075
 30
0.0
 40
0
 41
0
  0
VERTEX
  8
0
 10
3.24875
 20
0.263075
 30
0.0
 40
0
 41
0
  0
VERTEX
  8
0
 10
3.24875
 20
0.987739
 30
0.0
 40
0
 41
0
  0
VERTEX
  8
0
 10
2.98703
 20
0.987739
 30
0.0
 40
0
 41
0
  0
SEQEND
 8
0
  0
POLYLINE
  8
0
 62
     3
 66
     1
 10
0
 20
0
 30
0.0
 70
     1
 40
0
 41
0
  0
VERTEX
  8
0
 10
2.63872
 20
0.987739
 30
0.0
 40
0
 41
0
  0
VERTEX
  8
0
 10
2.63872
 20
0.823514
 30
0.0
 40
0
 41
0
  0
VERTEX
  8
0
 10
2.49436
 20
0.679688
 30
0.0
 40
0
 41
0
  0
VERTEX
  8
0
 10
2.34987
 20
0.82411
 30
0.0
 40
0
 41
0
  0
VERTEX
  8
0
 10
2.34987
 20
0.987739
 30
0.0
 40
0
 41
0
  0
VERTEX
  8
0
 10
2.08817
 20
0.987739
 30
0.0
 40
0
 41
0
  0
VERTEX
  8
0
 10
2.08817
 20
0.715549
 30
0.0
 40
0
 41
0
  0
VERTEX
  8
0
 10
2.36344
 20
0.440212
 30
0.0
 40
0
 41
0
  0
VERTEX
  8
0
 10
2.36344
 20
0.00130208
 30
0.0
 40
0
 41
0
  0
VERTEX
  8
0
 10
2.62522
 20
0.00130208
 30
0.0
 40
0
 41
0
  0
VERTEX
  8
0
 10
2.62261
 20
0.440212
 30
0.0
 40
0
 41
0
  0
VERTEX
  8
0
 10
2.89925
 20
0.716797
 30
0.0
 40
0
 41
0
  0
VERTEX
  8
0
 10
2.89925
 20
0.987739
 30
0.0
 40
0
 41
0
  0
VERTEX
  8
0
 10
2.63872
 20
0.987739
 30
0.0
 40
0
 41
0
  0
SEQEND
 8
0
  0
POLYLINE
  8
0
 62
     3
 66
     1
 10
0
 20
0
 30
0.0
 70
     1
 40
0
 41
0
  0
VERTEX
  8
0
 10
1.23747
 20
0.987739
 30
0.0
 40
0
 41
0
  0
VERTEX
  8
0
 10
1.23747
 20
0.725965
 30
0.0
 40
0
 41
0
  0
VERTEX
  8
0
 10
1.48383
 20
0.725965
 30
0.0
 40
0
 41
0
  0
VERTEX
  8
0
 10
1.48383
 20
0.00130208
 30
0.0
 40
0
 41
0
  0
VERTEX
  8
0
 10
1.74556
 20
0.00130208
 30
0.0
 40
0
 41
0
  0
VERTEX
  8
0
 10
1.74556
 20
0.725965
 30
0.0
 40
0
 41
0
  0
VERTEX
  8
0
 10
1.99181
 20
0.725965
 30
0.0
 40
0
 41
0
  0
VERTEX
  8
0
 10
1.99181
 20
0.987739
 30
0.0
 40
0
 41
0
  0
VERTEX
  8
0
 10
1.23747
 20
0.987739
 30
0.0
 40
0
 41
0
  0
SEQEND
 8
0
  0
POLYLINE
  8
0
 62
     3
 66
     1
 10
0
 20
0
 30
0.0
 70
     1
 40
0
 41
0
  0
VERTEX
  8
0
 10
0.869683
 20
0.987739
 30
0.0
 40
0
 41
0
  0
VERTEX
  8
0
 10
0.869683
 20
0.00124783
 30
0.0
 40
0
 41
0
  0
VERTEX
  8
0
 10
1.14041
 20
0.00124783
 30
0.0
 40
0
 41
0
  0
VERTEX
  8
0
 10
1.14041
 20
0.524251
 30
0.0
 40
0
 41
0
  0
VERTEX
  8
0
 10
1.14041
 20
0.987739
 30
0.0
 40
0
 41
0
  0
VERTEX
  8
0
 10
0.869683
 20
0.987739
 30
0.0
 40
0
 41
0
  0
SEQEND
 8
0
  0
POLYLINE
  8
0
 62
     3
 66
     1
 10
0
 20
0
 30
0.0
 70
     1
 40
0
 41
0
  0
VERTEX
  8
0
 10
0.213542
 20
0.986979
 30
0.0
 40
0
 41
0
  0
VERTEX
  8
0
 10
0
 20
0.773438
 30
0.0
 40
0
 41
0
  0
VERTEX
  8
0
 10
0
 20
0.215549
 30
0.0
 40
0
 41
0
  0
VERTEX
  8
0
 10
0.214247
 20
0.00124783
 30
0.0
 40
0
 41
0
  0
VERTEX
  8
0
 10
0.536838
 20
0.00124783
 30
0.0
 40
0
 41
0
  0
VERTEX
  8
0
 10
0.754394
 20
0.215224
 30
0.0
 40
0
 41
0
  0
VERTEX
  8
0
 10
0.754394
 20
0.426053
 30
0.0
 40
0
 41
0
  0
VERTEX
  8
0
 10
0.492622
 20
0.426053
 30
0.0
 40
0
 41
0
  0
VERTEX
  8
0
 10
0.492622
 20
0.32411
 30
0.0
 40
0
 41
0
  0
VERTEX
  8
0
 10
0.431586
 20
0.263075
 30
0.0
 40
0
 41
0
  0
VERTEX
  8
0
 10
0.322917
 20
0.263075
 30
0.0
 40
0
 41
0
  0
VERTEX
  8
0
 10
0.261339
 20
0.32601
 30
0.0
 40
0
 41
0
  0
VERTEX
  8
0
 10
0.261339
 20
0.435926
 30
0.0
 40
0
 41
0
  0
VERTEX
  8
0
 10
0.261719
 20
0.664876
 30
0.0
 40
0
 41
0
  0
VERTEX
  8
0
 10
0.322808
 20
0.725911
 30
0.0
 40
0
 41
0
  0
VERTEX
  8
0
 10
0.431586
 20
0.725911
 30
0.0
 40
0
 41
0
  0
VERTEX
  8
0
 10
0.492622
 20
0.664876
 30
0.0
 40
0
 41
0
  0
VERTEX
  8
0
 10
0.492622
 20
0.56505
 30
0.0
 40
0
 41
0
  0
VERTEX
  8
0
 10
0.754394
 20
0.56505
 30
0.0
 40
0
 41
0
  0
VERTEX
  8
0
 10
0.754394
 20
0.773438
 30
0.0
 40
0
 41
0
  0
VERTEX
  8
0
 10
0.540147
 20
0.987739
 30
0.0
 40
0
 41
0
  0
VERTEX
  8
0
 10
0.213542
 20
0.986979
 30
0.0
 40
0
 41
0
  0
SEQEND
 8
0
  0
POLYLINE
  8
0
 62
     7
 66
     1
 10
0
 20
0
 30
0.0
 70
     1
 40
0
 41
0
  0
VERTEX
  8
0
 10
5.64919
 20
0.612847
 30
0.0
 40
0
 41
0
  0
VERTEX
  8
0
 10
5.64919
 20
0.667156
 30
0.0
 40
0
 41
0
  0
VERTEX
  8
0
 10
5.59489
 20
0.667156
 30
0.0
 40
0
 41
0
  0
VERTEX
  8
0
 10
5.59489
 20
0.612847
 30
0.0
 40
0
 41
0
  0
VERTEX
  8
0
 10
5.60682
 20
0.612847
 30
0.0
 40
0
 41
0
  0
VERTEX
  8
0
 10
5.60682
 20
0.563422
 30
0.0
 40
0
 41
0
  0
VERTEX
  8
0
 10
5.53961
 20
0.496203
 30
0.0
 40
0
 41
0
  0
VERTEX
  8
0
 10
5.60682
 20
0.429036
 30
0.0
 40
0
 41
0
  0
VERTEX
  8
0
 10
5.60682
 20
0.201118
 30
0.0
 40
0
 41
0
  0
VERTEX
  8
0
 10
5.48053
 20
0.0753581
 30
0.0
 40
0
 41
0
  0
VERTEX
  8
0
 10
5.40881
 20
0.0753581
 30
0.0
 40
0
 41
0
  0
VERTEX
  8
0
 10
5.34212
 20
0.142036
 30
0.0
 40
0
 41
0
  0
VERTEX
  8
0
 10
5.01019
 20
0.142036
 30
0.0
 40
0
 41
0
  0
VERTEX
  8
0
 10
5.01019
 20
0.190321
 30
0.0
 40
0
 41
0
  0
VERTEX
  8
0
 10
4.93799
 20
0.252712
 30
0.0
 40
0
 41
0
  0
VERTEX
  8
0
 10
4.93799
 20
0.917697
 30
0.0
 40
0
 41
0
  0
VERTEX
  8
0
 10
5.016
 20
0.917697
 30
0.0
 40
0
 41
0
  0
VERTEX
  8
0
 10
5.016
 20
0.905761
 30
0.0
 40
0
 41
0
  0
VERTEX
  8
0
 10
5.07036
 20
0.905761
 30
0.0
 40
0
 41
0
  0
VERTEX
  8
0
 10
5.07036
 20
0.960069
 30
0.0
 40
0
 41
0
  0
VERTEX
  8
0
 10
5.016
 20
0.960069
 30
0.0
 40
0
 41
0
  0
VERTEX
  8
0
 10
5.016
 20
0.948188
 30
0.0
 40
0
 41
0
  0
VERTEX
  8
0
 10
4.90756
 20
0.948188
 30
0.0
 40
0
 41
0
  0
VERTEX
  8
0
 10
4.90756
 20
0.238824
 30
0.0
 40
0
 41
0
  0
VERTEX
  8
0
 10
4.97976
 20
0.176378
 30
0.0
 40
0
 41
0
  0
VERTEX
  8
0
 10
4.97976
 20
0.111599
 30
0.0
 40
0
 41
0
  0
VERTEX
  8
0
 10
5.32949
 20
0.111599
 30
0.0
 40
0
 41
0
  0
VERTEX
  8
0
 10
5.39621
 20
0.0449219
 30
0.0
 40
0
 41
0
  0
VERTEX
  8
0
 10
5.49311
 20
0.0449219
 30
0.0
 40
0
 41
0
  0
VERTEX
  8
0
 10
5.63732
 20
0.188476
 30
0.0
 40
0
 41
0
  0
VERTEX
  8
0
 10
5.63732
 20
0.441678
 30
0.0
 40
0
 41
0
  0
VERTEX
  8
0
 10
5.58268
 20
0.496203
 30
0.0
 40
0
 41
0
  0
VERTEX
  8
0
 10
5.63732
 20
0.550836
 30
0.0
 40
0
 41
0
  0
VERTEX
  8
0
 10
5.63732
 20
0.612847
 30
0.0
 40
0
 41
0
  0
VERTEX
  8
0
 10
5.64919
 20
0.612847
 30
0.0
 40
0
 41
0
  0
SEQEND
 8
0
  0
POLYLINE
  8
0
 62
     7
 66
     1
 10
0
 20
0
 30
0.0
 70
     1
 40
0
 41
0
  0
VERTEX
  8
0
 10
5.45394
 20
0.0997179
 30
0.0
 40
0
 41
0
  0
VERTEX
  8
0
 10
5.45394
 20
0.111599
 30
0.0
 40
0
 41
0
  0
VERTEX
  8
0
 10
5.45697
 20
0.111599
 30
0.0
 40
0
 41
0
  0
VERTEX
  8
0
 10
5.56288
 20
0.218479
 30
0.0
 40
0
 41
0
  0
VERTEX
  8
0
 10
5.56288
 20
0.412164
 30
0.0
 40
0
 41
0
  0
VERTEX
  8
0
 10
5.54269
 20
0.433214
 30
0.0
 40
0
 41
0
  0
VERTEX
  8
0
 10
5.55126
 20
0.441461
 30
0.0
 40
0
 41
0
  0
VERTEX
  8
0
 10
5.51372
 20
0.480632
 30
0.0
 40
0
 41
0
  0
VERTEX
  8
0
 10
5.4745
 20
0.443088
 30
0.0
 40
0
 41
0
  0
VERTEX
  8
0
 10
5.5121
 20
0.403917
 30
0.0
 40
0
 41
0
  0
VERTEX
  8
0
 10
5.52067
 20
0.41211
 30
0.0
 40
0
 41
0
  0
VERTEX
  8
0
 10
5.53239
 20
0.399903
 30
0.0
 40
0
 41
0
  0
VERTEX
  8
0
 10
5.53239
 20
0.231011
 30
0.0
 40
0
 41
0
  0
VERTEX
  8
0
 10
5.45394
 20
0.151747
 30
0.0
 40
0
 41
0
  0
VERTEX
  8
0
 10
5.45394
 20
0.154025
 30
0.0
 40
0
 41
0
  0
VERTEX
  8
0
 10
5.39963
 20
0.154025
 30
0.0
 40
0
 41
0
  0
VERTEX
  8
0
 10
5.39963
 20
0.0997179
 30
0.0
 40
0
 41
0
  0
VERTEX
  8
0
 10
5.45394
 20
0.0997179
 30
0.0
 40
0
 41
0
  0
SEQEND
 8
0
  0
POLYLINE
  8
0
 62
     7
 66
     1
 10
0
 20
0
 30
0.0
 70
     1
 40
0
 41
0
  0
VERTEX
  8
0
 10
5.4611
 20
0.876574
 30
0.0
 40
0
 41
0
  0
VERTEX
  8
0
 10
4.9796
 20
0.876574
 30
0.0
 40
0
 41
0
  0
VERTEX
  8
0
 10
4.9796
 20
0.555339
 30
0.0
 40
0
 41
0
  0
VERTEX
  8
0
 10
5.14404
 20
0.555339
 30
0.0
 40
0
 41
0
  0
VERTEX
  8
0
 10
5.14404
 20
0.543403
 30
0.0
 40
0
 41
0
  0
VERTEX
  8
0
 10
5.19829
 20
0.543403
 30
0.0
 40
0
 41
0
  0
VERTEX
  8
0
 10
5.19829
 20
0.597765
 30
0.0
 40
0
 41
0
  0
VERTEX
  8
0
 10
5.14404
 20
0.597765
 30
0.0
 40
0
 41
0
  0
VERTEX
  8
0
 10
5.14404
 20
0.585829
 30
0.0
 40
0
 41
0
  0
VERTEX
  8
0
 10
5.01004
 20
0.585829
 30
0.0
 40
0
 41
0
  0
VERTEX
  8
0
 10
5.01004
 20
0.846083
 30
0.0
 40
0
 41
0
  0
VERTEX
  8
0
 10
5.44846
 20
0.846083
 30
0.0
 40
0
 41
0
  0
VERTEX
  8
0
 10
5.53239
 20
0.762153
 30
0.0
 40
0
 41
0
  0
VERTEX
  8
0
 10
5.53239
 20
0.592557
 30
0.0
 40
0
 41
0
  0
VERTEX
  8
0
 10
5.44618
 20
0.511774
 30
0.0
 40
0
 41
0
  0
VERTEX
  8
0
 10
5.28678
 20
0.511447
 30
0.0
 40
0
 41
0
  0
VERTEX
  8
0
 10
5.20275
 20
0.437121
 30
0.0
 40
0
 41
0
  0
VERTEX
  8
0
 10
5.05626
 20
0.437121
 30
0.0
 40
0
 41
0
  0
VERTEX
  8
0
 10
5.05626
 20
0.187175
 30
0.0
 40
0
 41
0
  0
VERTEX
  8
0
 10
5.43147
 20
0.193143
 30
0.0
 40
0
 41
0
  0
VERTEX
  8
0
 10
5.49474
 20
0.256347
 30
0.0
 40
0
 41
0
  0
VERTEX
  8
0
 10
5.49658
 20
0.371907
 30
0.0
 40
0
 41
0
  0
VERTEX
  8
0
 10
5.43137
 20
0.437121
 30
0.0
 40
0
 41
0
  0
VERTEX
  8
0
 10
5.33946
 20
0.437121
 30
0.0
 40
0
 41
0
  0
VERTEX
  8
0
 10
5.33946
 20
0.449001
 30
0.0
 40
0
 41
0
  0
VERTEX
  8
0
 10
5.28521
 20
0.449001
 30
0.0
 40
0
 41
0
  0
VERTEX
  8
0
 10
5.28521
 20
0.394694
 30
0.0
 40
0
 41
0
  0
VERTEX
  8
0
 10
5.33946
 20
0.394694
 30
0.0
 40
0
 41
0
  0
VERTEX
  8
0
 10
5.33946
 20
0.406685
 30
0.0
 40
0
 41
0
  0
VERTEX
  8
0
 10
5.41878
 20
0.406685
 30
0.0
 40
0
 41
0
  0
VERTEX
  8
0
 10
5.46593
 20
0.359429
 30
0.0
 40
0
 41
0
  0
VERTEX
  8
0
 10
5.46446
 20
0.269206
 30
0.0
 40
0
 41
0
  0
VERTEX
  8
0
 10
5.41868
 20
0.223361
 30
0.0
 40
0
 41
0
  0
VERTEX
  8
0
 10
5.08669
 20
0.218153
 30
0.0
 40
0
 41
0
  0
VERTEX
  8
0
 10
5.08669
 20
0.406685
 30
0.0
 40
0
 41
0
  0
VERTEX
  8
0
 10
5.21425
 20
0.406685
 30
0.0
 40
0
 41
0
  0
VERTEX
  8
0
 10
5.29839
 20
0.481011
 30
0.0
 40
0
 41
0
  0
VERTEX
  8
0
 10
5.45822
 20
0.481282
 30
0.0
 40
0
 41
0
  0
VERTEX
  8
0
 10
5.56288
 20
0.579372
 30
0.0
 40
0
 41
0
  0
VERTEX
  8
0
 10
5.56288
 20
0.774794
 30
0.0
 40
0
 41
0
  0
VERTEX
  8
0
 10
5.4611
 20
0.876574
 30
0.0
 40
0
 41
0
  0
SEQEND
 8
0
  0
POLYLINE
  8
0
 62
     7
 66
     1
 10
0
 20
0
 30
0.0
 70
     1
 40
0
 41
0
  0
VERTEX
  8
0
 10
5.01004
 20
0.306153
 30
0.0
 40
0
 41
0
  0
VERTEX
  8
0
 10
5.01004
 20
0.480469
 30
0.0
 40
0
 41
0
  0
VERTEX
  8
0
 10
5.19558
 20
0.480469
 30
0.0
 40
0
 41
0
  0
VERTEX
  8
0
 10
5.27713
 20
0.555339
 30
0.0
 40
0
 41
0
  0
VERTEX
  8
0
 10
5.4311
 20
0.555339
 30
0.0
 40
0
 41
0
  0
VERTEX
  8
0
 10
5.49658
 20
0.617296
 30
0.0
 40
0
 41
0
  0
VERTEX
  8
0
 10
5.49658
 20
0.734213
 30
0.0
 40
0
 41
0
  0
VERTEX
  8
0
 10
5.43137
 20
0.799479
 30
0.0
 40
0
 41
0
  0
VERTEX
  8
0
 10
5.05626
 20
0.799479
 30
0.0
 40
0
 41
0
  0
VERTEX
  8
0
 10
5.05626
 20
0.671604
 30
0.0
 40
0
 41
0
  0
VERTEX
  8
0
 10
5.04432
 20
0.671604
 30
0.0
 40
0
 41
0
  0
VERTEX
  8
0
 10
5.04432
 20
0.617296
 30
0.0
 40
0
 41
0
  0
VERTEX
  8
0
 10
5.09858
 20
0.617296
 30
0.0
 40
0
 41
0
  0
VERTEX
  8
0
 10
5.09858
 20
0.671604
 30
0.0
 40
0
 41
0
  0
VERTEX
  8
0
 10
5.08669
 20
0.671604
 30
0.0
 40
0
 41
0
  0
VERTEX
  8
0
 10
5.08669
 20
0.768989
 30
0.0
 40
0
 41
0
  0
VERTEX
  8
0
 10
5.41878
 20
0.768989
 30
0.0
 40
0
 41
0
  0
VERTEX
  8
0
 10
5.4661
 20
0.721625
 30
0.0
 40
0
 41
0
  0
VERTEX
  8
0
 10
5.4661
 20
0.630371
 30
0.0
 40
0
 41
0
  0
VERTEX
  8
0
 10
5.419
 20
0.585829
 30
0.0
 40
0
 41
0
  0
VERTEX
  8
0
 10
5.26535
 20
0.585829
 30
0.0
 40
0
 41
0
  0
VERTEX
  8
0
 10
5.18371
 20
0.51096
 30
0.0
 40
0
 41
0
  0
VERTEX
  8
0
 10
4.9796
 20
0.51096
 30
0.0
 40
0
 41
0
  0
VERTEX
  8
0
 10
4.9796
 20
0.306153
 30
0.0
 40
0
 41
0
  0
VERTEX
  8
0
 10
4.96767
 20
0.306153
 30
0.0
 40
0
 41
0
  0
VERTEX
  8
0
 10
4.96767
 20
0.251844
 30
0.0
 40
0
 41
0
  0
VERTEX
  8
0
 10
5.02197
 20
0.251844
 30
0.0
 40
0
 41
0
  0
VERTEX
  8
0
 10
5.02197
 20
0.306153
 30
0.0
 40
0
 41
0
  0
VERTEX
  8
0
 10
5.01004
 20
0.306153
 30
0.0
 40
0
 41
0
  0
SEQEND
 8
0
  0
POLYLINE
  8
0
 62
     7
 66
     1
 10
0
 20
0
 30
0.0
 70
     1
 40
0
 41
0
  0
VERTEX
  8
0
 10
5.59489
 20
0.702908
 30
0.0
 40
0
 41
0
  0
VERTEX
  8
0
 10
5.64919
 20
0.702908
 30
0.0
 40
0
 41
0
  0
VERTEX
  8
0
 10
5.64919
 20
0.757161
 30
0.0
 40
0
 41
0
  0
VERTEX
  8
0
 10
5.63732
 20
0.757161
 30
0.0
 40
0
 41
0
  0
VERTEX
  8
0
 10
5.63732
 20
0.803982
 30
0.0
 40
0
 41
0
  0
VERTEX
  8
0
 10
5.49311
 20
0.948188
 30
0.0
 40
0
 41
0
  0
VERTEX
  8
0
 10
5.15815
 20
0.948188
 30
0.0
 40
0
 41
0
  0
VERTEX
  8
0
 10
5.15815
 20
0.960069
 30
0.0
 40
0
 41
0
  0
VERTEX
  8
0
 10
5.10389
 20
0.960069
 30
0.0
 40
0
 41
0
  0
VERTEX
  8
0
 10
5.10389
 20
0.905761
 30
0.0
 40
0
 41
0
  0
VERTEX
  8
0
 10
5.15815
 20
0.905761
 30
0.0
 40
0
 41
0
  0
VERTEX
  8
0
 10
5.15815
 20
0.917697
 30
0.0
 40
0
 41
0
  0
VERTEX
  8
0
 10
5.48053
 20
0.917697
 30
0.0
 40
0
 41
0
  0
VERTEX
  8
0
 10
5.60682
 20
0.791396
 30
0.0
 40
0
 41
0
  0
VERTEX
  8
0
 10
5.60682
 20
0.757161
 30
0.0
 40
0
 41
0
  0
VERTEX
  8
0
 10
5.59489
 20
0.757161
 30
0.0
 40
0
 41
0
  0
VERTEX
  8
0
 10
5.59489
 20
0.702908
 30
0.0
 40
0
 41
0
  0
SEQEND
 8
0
  0
POLYLINE
  8
0
 62
     7
 66
     1
 10
0
 20
0
 30
0.0
 70
     1
 40
0
 41
0
  0
VERTEX
  8
0
 10
4.94993
 20
0.174642
 30
0.0
 40
0
 41
0
  0
VERTEX
  8
0
 10
4.89561
 20
0.174642
 30
0.0
 40
0
 41
0
  0
VERTEX
  8
0
 10
4.89561
 20
0.120388
 30
0.0
 40
0
 41
0
  0
VERTEX
  8
0
 10
4.90756
 20
0.120388
 30
0.0
 40
0
 41
0
  0
VERTEX
  8
0
 10
4.90756
 20
0.0443251
 30
0.0
 40
0
 41
0
  0
VERTEX
  8
0
 10
5.2601
 20
0.0443251
 30
0.0
 40
0
 41
0
  0
VERTEX
  8
0
 10
5.2601
 20
0.0323893
 30
0.0
 40
0
 41
0
  0
VERTEX
  8
0
 10
5.3144
 20
0.0323893
 30
0.0
 40
0
 41
0
  0
VERTEX
  8
0
 10
5.3144
 20
0.0866971
 30
0.0
 40
0
 41
0
  0
VERTEX
  8
0
 10
5.2601
 20
0.0866971
 30
0.0
 40
0
 41
0
  0
VERTEX
  8
0
 10
5.2601
 20
0.0747613
 30
0.0
 40
0
 41
0
  0
VERTEX
  8
0
 10
4.93799
 20
0.0747613
 30
0.0
 40
0
 41
0
  0
VERTEX
  8
0
 10
4.93799
 20
0.120388
 30
0.0
 40
0
 41
0
  0
VERTEX
  8
0
 10
4.94993
 20
0.120388
 30
0.0
 40
0
 41
0
  0
VERTEX
  8
0
 10
4.94993
 20
0.174642
 30
0.0
 40
0
 41
0
  0
SEQEND
 8
0
  0
POLYLINE
  8
0
 62
     7
 66
     1
 10
0
 20
0
 30
0.0
 70
     1
 40
0
 41
0
  0
VERTEX
  8
0
 10
4.69129
 20
0.630751
 30
0.0
 40
0
 41
0
  0
VERTEX
  8
0
 10
4.70324
 20
0.630751
 30
0.0
 40
0
 41
0
  0
VERTEX
  8
0
 10
4.70324
 20
0.685058
 30
0.0
 40
0
 41
0
  0
VERTEX
  8
0
 10
4.64893
 20
0.685058
 30
0.0
 40
0
 41
0
  0
VERTEX
  8
0
 10
4.64893
 20
0.630751
 30
0.0
 40
0
 41
0
  0
VERTEX
  8
0
 10
4.66081
 20
0.630751
 30
0.0
 40
0
 41
0
  0
VERTEX
  8
0
 10
4.66081
 20
0.0717231
 30
0.0
 40
0
 41
0
  0
VERTEX
  8
0
 10
4.54417
 20
0.0717231
 30
0.0
 40
0
 41
0
  0
VERTEX
  8
0
 10
4.54417
 20
0.341471
 30
0.0
 40
0
 41
0
  0
VERTEX
  8
0
 10
4.35487
 20
0.341471
 30
0.0
 40
0
 41
0
  0
VERTEX
  8
0
 10
4.35487
 20
0.353407
 30
0.0
 40
0
 41
0
  0
VERTEX
  8
0
 10
4.30062
 20
0.353407
 30
0.0
 40
0
 41
0
  0
VERTEX
  8
0
 10
4.30062
 20
0.2991
 30
0.0
 40
0
 41
0
  0
VERTEX
  8
0
 10
4.35487
 20
0.2991
 30
0.0
 40
0
 41
0
  0
VERTEX
  8
0
 10
4.35487
 20
0.311089
 30
0.0
 40
0
 41
0
  0
VERTEX
  8
0
 10
4.51367
 20
0.311089
 30
0.0
 40
0
 41
0
  0
VERTEX
  8
0
 10
4.51367
 20
0.0412869
 30
0.0
 40
0
 41
0
  0
VERTEX
  8
0
 10
4.69129
 20
0.0412869
 30
0.0
 40
0
 41
0
  0
VERTEX
  8
0
 10
4.69129
 20
0.630751
 30
0.0
 40
0
 41
0
  0
SEQEND
 8
0
  0
POLYLINE
  8
0
 62
     7
 66
     1
 10
0
 20
0
 30
0.0
 70
     1
 40
0
 41
0
  0
VERTEX
  8
0
 10
4.43028
 20
0.884819
 30
0.0
 40
0
 41
0
  0
VERTEX
  8
0
 10
4.37597
 20
0.884819
 30
0.0
 40
0
 41
0
  0
VERTEX
  8
0
 10
4.37597
 20
0.830567
 30
0.0
 40
0
 41
0
  0
VERTEX
  8
0
 10
4.43028
 20
0.830567
 30
0.0
 40
0
 41
0
  0
VERTEX
  8
0
 10
4.43028
 20
0.842449
 30
0.0
 40
0
 41
0
  0
VERTEX
  8
0
 10
4.46403
 20
0.842449
 30
0.0
 40
0
 41
0
  0
VERTEX
  8
0
 10
4.58578
 20
0.720811
 30
0.0
 40
0
 41
0
  0
VERTEX
  8
0
 10
4.58578
 20
0.51709
 30
0.0
 40
0
 41
0
  0
VERTEX
  8
0
 10
4.57383
 20
0.51709
 30
0.0
 40
0
 41
0
  0
VERTEX
  8
0
 10
4.57383
 20
0.462836
 30
0.0
 40
0
 41
0
  0
VERTEX
  8
0
 10
4.62815
 20
0.462836
 30
0.0
 40
0
 41
0
  0
VERTEX
  8
0
 10
4.62815
 20
0.51709
 30
0.0
 40
0
 41
0
  0
VERTEX
  8
0
 10
4.61621
 20
0.51709
 30
0.0
 40
0
 41
0
  0
VERTEX
  8
0
 10
4.61621
 20
0.733399
 30
0.0
 40
0
 41
0
  0
VERTEX
  8
0
 10
4.47667
 20
0.872939
 30
0.0
 40
0
 41
0
  0
VERTEX
  8
0
 10
4.43028
 20
0.872939
 30
0.0
 40
0
 41
0
  0
VERTEX
  8
0
 10
4.43028
 20
0.884819
 30
0.0
 40
0
 41
0
  0
SEQEND
 8
0
  0
POLYLINE
  8
0
 62
     7
 66
     1
 10
0
 20
0
 30
0.0
 70
     1
 40
0
 41
0
  0
VERTEX
  8
0
 10
4.15554
 20
0.872939
 30
0.0
 40
0
 41
0
  0
VERTEX
  8
0
 10
4.0096
 20
0.726942
 30
0.0
 40
0
 41
0
  0
VERTEX
  8
0
 10
4.0096
 20
0.387153
 30
0.0
 40
0
 41
0
  0
VERTEX
  8
0
 10
4.15636
 20
0.387153
 30
0.0
 40
0
 41
0
  0
VERTEX
  8
0
 10
4.15636
 20
0.375271
 30
0.0
 40
0
 41
0
  0
VERTEX
  8
0
 10
4.21067
 20
0.375271
 30
0.0
 40
0
 41
0
  0
VERTEX
  8
0
 10
4.21067
 20
0.429579
 30
0.0
 40
0
 41
0
  0
VERTEX
  8
0
 10
4.15636
 20
0.429579
 30
0.0
 40
0
 41
0
  0
VERTEX
  8
0
 10
4.15636
 20
0.417643
 30
0.0
 40
0
 41
0
  0
VERTEX
  8
0
 10
4.04004
 20
0.417643
 30
0.0
 40
0
 41
0
  0
VERTEX
  8
0
 10
4.04004
 20
0.714356
 30
0.0
 40
0
 41
0
  0
VERTEX
  8
0
 10
4.16813
 20
0.842449
 30
0.0
 40
0
 41
0
  0
VERTEX
  8
0
 10
4.29042
 20
0.842449
 30
0.0
 40
0
 41
0
  0
VERTEX
  8
0
 10
4.36882
 20
0.7653
 30
0.0
 40
0
 41
0
  0
VERTEX
  8
0
 10
4.42692
 20
0.7653
 30
0.0
 40
0
 41
0
  0
VERTEX
  8
0
 10
4.51215
 20
0.680067
 30
0.0
 40
0
 41
0
  0
VERTEX
  8
0
 10
4.51215
 20
0.490451
 30
0.0
 40
0
 41
0
  0
VERTEX
  8
0
 10
4.11535
 20
0.490451
 30
0.0
 40
0
 41
0
  0
VERTEX
  8
0
 10
4.11535
 20
0.680067
 30
0.0
 40
0
 41
0
  0
VERTEX
  8
0
 10
4.20057
 20
0.7653
 30
0.0
 40
0
 41
0
  0
VERTEX
  8
0
 10
4.24843
 20
0.7653
 30
0.0
 40
0
 41
0
  0
VERTEX
  8
0
 10
4.24843
 20
0.753418
 30
0.0
 40
0
 41
0
  0
VERTEX
  8
0
 10
4.30274
 20
0.753418
 30
0.0
 40
0
 41
0
  0
VERTEX
  8
0
 10
4.30274
 20
0.807726
 30
0.0
 40
0
 41
0
  0
VERTEX
  8
0
 10
4.24843
 20
0.807726
 30
0.0
 40
0
 41
0
  0
VERTEX
  8
0
 10
4.24843
 20
0.79579
 30
0.0
 40
0
 41
0
  0
VERTEX
  8
0
 10
4.18793
 20
0.79579
 30
0.0
 40
0
 41
0
  0
VERTEX
  8
0
 10
4.0849
 20
0.692708
 30
0.0
 40
0
 41
0
  0
VERTEX
  8
0
 10
4.0849
 20
0.459961
 30
0.0
 40
0
 41
0
  0
VERTEX
  8
0
 10
4.54258
 20
0.459961
 30
0.0
 40
0
 41
0
  0
VERTEX
  8
0
 10
4.54258
 20
0.692708
 30
0.0
 40
0
 41
0
  0
VERTEX
  8
0
 10
4.43951
 20
0.79579
 30
0.0
 40
0
 41
0
  0
VERTEX
  8
0
 10
4.38135
 20
0.79579
 30
0.0
 40
0
 41
0
  0
VERTEX
  8
0
 10
4.30296
 20
0.872939
 30
0.0
 40
0
 41
0
  0
VERTEX
  8
0
 10
4.15554
 20
0.872939
 30
0.0
 40
0
 41
0
  0
SEQEND
 8
0
  0
POLYLINE
  8
0
 62
     7
 66
     1
 10
0
 20
0
 30
0.0
 70
     1
 40
0
 41
0
  0
VERTEX
  8
0
 10
4.0096
 20
0.28559
 30
0.0
 40
0
 41
0
  0
VERTEX
  8
0
 10
4.0096
 20
0.172797
 30
0.0
 40
0
 41
0
  0
VERTEX
  8
0
 10
3.99761
 20
0.172797
 30
0.0
 40
0
 41
0
  0
VERTEX
  8
0
 10
3.99761
 20
0.118544
 30
0.0
 40
0
 41
0
  0
VERTEX
  8
0
 10
4.05192
 20
0.118544
 30
0.0
 40
0
 41
0
  0
VERTEX
  8
0
 10
4.05192
 20
0.172797
 30
0.0
 40
0
 41
0
  0
VERTEX
  8
0
 10
4.04004
 20
0.172797
 30
0.0
 40
0
 41
0
  0
VERTEX
  8
0
 10
4.04004
 20
0.28559
 30
0.0
 40
0
 41
0
  0
VERTEX
  8
0
 10
4.05192
 20
0.28559
 30
0.0
 40
0
 41
0
  0
VERTEX
  8
0
 10
4.05192
 20
0.339844
 30
0.0
 40
0
 41
0
  0
VERTEX
  8
0
 10
3.99761
 20
0.339844
 30
0.0
 40
0
 41
0
  0
VERTEX
  8
0
 10
3.99761
 20
0.28559
 30
0.0
 40
0
 41
0
  0
VERTEX
  8
0
 10
4.0096
 20
0.28559
 30
0.0
 40
0
 41
0
  0
SEQEND
 8
0
  0
POLYLINE
  8
0
 62
     7
 66
     1
 10
0
 20
0
 30
0.0
 70
     1
 40
0
 41
0
  0
VERTEX
  8
0
 10
4.64893
 20
0.723361
 30
0.0
 40
0
 41
0
  0
VERTEX
  8
0
 10
4.70324
 20
0.723361
 30
0.0
 40
0
 41
0
  0
VERTEX
  8
0
 10
4.70324
 20
0.777669
 30
0.0
 40
0
 41
0
  0
VERTEX
  8
0
 10
4.67236
 20
0.777669
 30
0.0
 40
0
 41
0
  0
VERTEX
  8
0
 10
4.50028
 20
0.946451
 30
0.0
 40
0
 41
0
  0
VERTEX
  8
0
 10
4.12625
 20
0.944661
 30
0.0
 40
0
 41
0
  0
VERTEX
  8
0
 10
3.93696
 20
0.756944
 30
0.0
 40
0
 41
0
  0
VERTEX
  8
0
 10
3.93696
 20
0.0412869
 30
0.0
 40
0
 41
0
  0
VERTEX
  8
0
 10
4.11469
 20
0.0412869
 30
0.0
 40
0
 41
0
  0
VERTEX
  8
0
 10
4.11469
 20
0.311089
 30
0.0
 40
0
 41
0
  0
VERTEX
  8
0
 10
4.23594
 20
0.311089
 30
0.0
 40
0
 41
0
  0
VERTEX
  8
0
 10
4.31782
 20
0.387153
 30
0.0
 40
0
 41
0
  0
VERTEX
  8
0
 10
4.58578
 20
0.387153
 30
0.0
 40
0
 41
0
  0
VERTEX
  8
0
 10
4.58578
 20
0.172797
 30
0.0
 40
0
 41
0
  0
VERTEX
  8
0
 10
4.57383
 20
0.172797
 30
0.0
 40
0
 41
0
  0
VERTEX
  8
0
 10
4.57383
 20
0.118544
 30
0.0
 40
0
 41
0
  0
VERTEX
  8
0
 10
4.62815
 20
0.118544
 30
0.0
 40
0
 41
0
  0
VERTEX
  8
0
 10
4.62815
 20
0.172797
 30
0.0
 40
0
 41
0
  0
VERTEX
  8
0
 10
4.61621
 20
0.172797
 30
0.0
 40
0
 41
0
  0
VERTEX
  8
0
 10
4.61621
 20
0.417643
 30
0.0
 40
0
 41
0
  0
VERTEX
  8
0
 10
4.30583
 20
0.417643
 30
0.0
 40
0
 41
0
  0
VERTEX
  8
0
 10
4.22396
 20
0.341471
 30
0.0
 40
0
 41
0
  0
VERTEX
  8
0
 10
4.08421
 20
0.341471
 30
0.0
 40
0
 41
0
  0
VERTEX
  8
0
 10
4.08421
 20
0.0717231
 30
0.0
 40
0
 41
0
  0
VERTEX
  8
0
 10
3.96733
 20
0.0717231
 30
0.0
 40
0
 41
0
  0
VERTEX
  8
0
 10
3.96733
 20
0.744194
 30
0.0
 40
0
 41
0
  0
VERTEX
  8
0
 10
4.13883
 20
0.914279
 30
0.0
 40
0
 41
0
  0
VERTEX
  8
0
 10
4.4879
 20
0.915907
 30
0.0
 40
0
 41
0
  0
VERTEX
  8
0
 10
4.64893
 20
0.758029
 30
0.0
 40
0
 41
0
  0
VERTEX
  8
0
 10
4.64893
 20
0.723361
 30
0.0
 40
0
 41
0
  0
SEQEND
 8
0
  0
POLYLINE
  8
0
 62
     7
 66
     1
 10
0
 20
0
 30
0.0
 70
     1
 40
0
 41
0
  0
VERTEX
  8
0
 10
3.42546
 20
0.0986871
 30
0.0
 40
0
 41
0
  0
VERTEX
  8
0
 10
3.42546
 20
0.110623
 30
0.0
 40
0
 41
0
  0
VERTEX
  8
0
 10
3.63938
 20
0.110623
 30
0.0
 40
0
 41
0
  0
VERTEX
  8
0
 10
3.63938
 20
0.0986871
 30
0.0
 40
0
 41
0
  0
VERTEX
  8
0
 10
3.69368
 20
0.0986871
 30
0.0
 40
0
 41
0
  0
VERTEX
  8
0
 10
3.69368
 20
0.152994
 30
0.0
 40
0
 41
0
  0
VERTEX
  8
0
 10
3.63938
 20
0.152994
 30
0.0
 40
0
 41
0
  0
VERTEX
  8
0
 10
3.63938
 20
0.14106
 30
0.0
 40
0
 41
0
  0
VERTEX
  8
0
 10
3.42546
 20
0.14106
 30
0.0
 40
0
 41
0
  0
VERTEX
  8
0
 10
3.42546
 20
0.152994
 30
0.0
 40
0
 41
0
  0
VERTEX
  8
0
 10
3.37115
 20
0.152994
 30
0.0
 40
0
 41
0
  0
VERTEX
  8
0
 10
3.37115
 20
0.0986871
 30
0.0
 40
0
 41
0
  0
VERTEX
  8
0
 10
3.42546
 20
0.0986871
 30
0.0
 40
0
 41
0
  0
SEQEND
 8
0
  0
POLYLINE
  8
0
 62
     7
 66
     1
 10
0
 20
0
 30
0.0
 70
     1
 40
0
 41
0
  0
VERTEX
  8
0
 10
3.02908
 20
0.0425347
 30
0.0
 40
0
 41
0
  0
VERTEX
  8
0
 10
3.75808
 20
0.0425347
 30
0.0
 40
0
 41
0
  0
VERTEX
  8
0
 10
3.75808
 20
0.221789
 30
0.0
 40
0
 41
0
  0
VERTEX
  8
0
 10
3.35656
 20
0.221789
 30
0.0
 40
0
 41
0
  0
VERTEX
  8
0
 10
3.28039
 20
0.14106
 30
0.0
 40
0
 41
0
  0
VERTEX
  8
0
 10
3.13032
 20
0.14106
 30
0.0
 40
0
 41
0
  0
VERTEX
  8
0
 10
3.13032
 20
0.356337
 30
0.0
 40
0
 41
0
  0
VERTEX
  8
0
 10
3.14219
 20
0.356337
 30
0.0
 40
0
 41
0
  0
VERTEX
  8
0
 10
3.14219
 20
0.41059
 30
0.0
 40
0
 41
0
  0
VERTEX
  8
0
 10
3.08789
 20
0.41059
 30
0.0
 40
0
 41
0
  0
VERTEX
  8
0
 10
3.08789
 20
0.356337
 30
0.0
 40
0
 41
0
  0
VERTEX
  8
0
 10
3.09983
 20
0.356337
 30
0.0
 40
0
 41
0
  0
VERTEX
  8
0
 10
3.09983
 20
0.110623
 30
0.0
 40
0
 41
0
  0
VERTEX
  8
0
 10
3.29357
 20
0.110623
 30
0.0
 40
0
 41
0
  0
VERTEX
  8
0
 10
3.36968
 20
0.191243
 30
0.0
 40
0
 41
0
  0
VERTEX
  8
0
 10
3.72765
 20
0.191243
 30
0.0
 40
0
 41
0
  0
VERTEX
  8
0
 10
3.72765
 20
0.0730251
 30
0.0
 40
0
 41
0
  0
VERTEX
  8
0
 10
3.05951
 20
0.0730251
 30
0.0
 40
0
 41
0
  0
VERTEX
  8
0
 10
3.05951
 20
0.407281
 30
0.0
 40
0
 41
0
  0
VERTEX
  8
0
 10
3.1326
 20
0.479818
 30
0.0
 40
0
 41
0
  0
VERTEX
  8
0
 10
3.1326
 20
0.830132
 30
0.0
 40
0
 41
0
  0
VERTEX
  8
0
 10
3.14453
 20
0.830132
 30
0.0
 40
0
 41
0
  0
VERTEX
  8
0
 10
3.14453
 20
0.884386
 30
0.0
 40
0
 41
0
  0
VERTEX
  8
0
 10
3.09022
 20
0.884386
 30
0.0
 40
0
 41
0
  0
VERTEX
  8
0
 10
3.09022
 20
0.830132
 30
0.0
 40
0
 41
0
  0
VERTEX
  8
0
 10
3.10221
 20
0.830132
 30
0.0
 40
0
 41
0
  0
VERTEX
  8
0
 10
3.10221
 20
0.492512
 30
0.0
 40
0
 41
0
  0
VERTEX
  8
0
 10
3.02908
 20
0.419922
 30
0.0
 40
0
 41
0
  0
VERTEX
  8
0
 10
3.02908
 20
0.0425347
 30
0.0
 40
0
 41
0
  0
SEQEND
 8
0
  0
POLYLINE
  8
0
 62
     7
 66
     1
 10
0
 20
0
 30
0.0
 70
     1
 40
0
 41
0
  0
VERTEX
  8
0
 10
3.23269
 20
0.179362
 30
0.0
 40
0
 41
0
  0
VERTEX
  8
0
 10
3.28694
 20
0.179362
 30
0.0
 40
0
 41
0
  0
VERTEX
  8
0
 10
3.28694
 20
0.233669
 30
0.0
 40
0
 41
0
  0
VERTEX
  8
0
 10
3.23269
 20
0.233669
 30
0.0
 40
0
 41
0
  0
VERTEX
  8
0
 10
3.23269
 20
0.221789
 30
0.0
 40
0
 41
0
  0
VERTEX
  8
0
 10
3.20747
 20
0.221789
 30
0.0
 40
0
 41
0
  0
VERTEX
  8
0
 10
3.20747
 20
0.946451
 30
0.0
 40
0
 41
0
  0
VERTEX
  8
0
 10
3.02832
 20
0.946451
 30
0.0
 40
0
 41
0
  0
VERTEX
  8
0
 10
3.02832
 20
0.541558
 30
0.0
 40
0
 41
0
  0
VERTEX
  8
0
 10
3.01639
 20
0.541558
 30
0.0
 40
0
 41
0
  0
VERTEX
  8
0
 10
3.01639
 20
0.48725
 30
0.0
 40
0
 41
0
  0
VERTEX
  8
0
 10
3.07075
 20
0.48725
 30
0.0
 40
0
 41
0
  0
VERTEX
  8
0
 10
3.07075
 20
0.541558
 30
0.0
 40
0
 41
0
  0
VERTEX
  8
0
 10
3.05881
 20
0.541558
 30
0.0
 40
0
 41
0
  0
VERTEX
  8
0
 10
3.05881
 20
0.915961
 30
0.0
 40
0
 41
0
  0
VERTEX
  8
0
 10
3.17703
 20
0.915961
 30
0.0
 40
0
 41
0
  0
VERTEX
  8
0
 10
3.17703
 20
0.191243
 30
0.0
 40
0
 41
0
  0
VERTEX
  8
0
 10
3.23269
 20
0.191243
 30
0.0
 40
0
 41
0
  0
VERTEX
  8
0
 10
3.23269
 20
0.179362
 30
0.0
 40
0
 41
0
  0
SEQEND
 8
0
  0
POLYLINE
  8
0
 62
     7
 66
     1
 10
0
 20
0
 30
0.0
 70
     1
 40
0
 41
0
  0
VERTEX
  8
0
 10
2.58137
 20
0.457303
 30
0.0
 40
0
 41
0
  0
VERTEX
  8
0
 10
2.85796
 20
0.733886
 30
0.0
 40
0
 41
0
  0
VERTEX
  8
0
 10
2.85796
 20
0.946451
 30
0.0
 40
0
 41
0
  0
VERTEX
  8
0
 10
2.68001
 20
0.946451
 30
0.0
 40
0
 41
0
  0
VERTEX
  8
0
 10
2.68001
 20
0.806967
 30
0.0
 40
0
 41
0
  0
VERTEX
  8
0
 10
2.65354
 20
0.78049
 30
0.0
 40
0
 41
0
  0
VERTEX
  8
0
 10
2.64507
 20
0.7889
 30
0.0
 40
0
 41
0
  0
VERTEX
  8
0
 10
2.60672
 20
0.750543
 30
0.0
 40
0
 41
0
  0
VERTEX
  8
0
 10
2.64507
 20
0.712131
 30
0.0
 40
0
 41
0
  0
VERTEX
  8
0
 10
2.68349
 20
0.750543
 30
0.0
 40
0
 41
0
  0
VERTEX
  8
0
 10
2.67503
 20
0.758951
 30
0.0
 40
0
 41
0
  0
VERTEX
  8
0
 10
2.7105
 20
0.794379
 30
0.0
 40
0
 41
0
  0
VERTEX
  8
0
 10
2.7105
 20
0.915961
 30
0.0
 40
0
 41
0
  0
VERTEX
  8
0
 10
2.82747
 20
0.915961
 30
0.0
 40
0
 41
0
  0
VERTEX
  8
0
 10
2.82747
 20
0.746528
 30
0.0
 40
0
 41
0
  0
VERTEX
  8
0
 10
2.55094
 20
0.469943
 30
0.0
 40
0
 41
0
  0
VERTEX
  8
0
 10
2.55094
 20
0.343044
 30
0.0
 40
0
 41
0
  0
VERTEX
  8
0
 10
2.47911
 20
0.271213
 30
0.0
 40
0
 41
0
  0
VERTEX
  8
0
 10
2.47911
 20
0.159397
 30
0.0
 40
0
 41
0
  0
VERTEX
  8
0
 10
2.46718
 20
0.159397
 30
0.0
 40
0
 41
0
  0
VERTEX
  8
0
 10
2.46718
 20
0.105143
 30
0.0
 40
0
 41
0
  0
VERTEX
  8
0
 10
2.52149
 20
0.105143
 30
0.0
 40
0
 41
0
  0
VERTEX
  8
0
 10
2.52149
 20
0.159397
 30
0.0
 40
0
 41
0
  0
VERTEX
  8
0
 10
2.50956
 20
0.159397
 30
0.0
 40
0
 41
0
  0
VERTEX
  8
0
 10
2.50956
 20
0.258572
 30
0.0
 40
0
 41
0
  0
VERTEX
  8
0
 10
2.58137
 20
0.330458
 30
0.0
 40
0
 41
0
  0
VERTEX
  8
0
 10
2.58137
 20
0.457303
 30
0.0
 40
0
 41
0
  0
SEQEND
 8
0
  0
POLYLINE
  8
0
 62
     7
 66
     1
 10
0
 20
0
 30
0.0
 70
     1
 40
0
 41
0
  0
VERTEX
  8
0
 10
2.23318
 20
0.780544
 30
0.0
 40
0
 41
0
  0
VERTEX
  8
0
 10
2.23318
 20
0.829915
 30
0.0
 40
0
 41
0
  0
VERTEX
  8
0
 10
2.24511
 20
0.829915
 30
0.0
 40
0
 41
0
  0
VERTEX
  8
0
 10
2.24511
 20
0.884224
 30
0.0
 40
0
 41
0
  0
VERTEX
  8
0
 10
2.19081
 20
0.884224
 30
0.0
 40
0
 41
0
  0
VERTEX
  8
0
 10
2.19081
 20
0.829915
 30
0.0
 40
0
 41
0
  0
VERTEX
  8
0
 10
2.20275
 20
0.829915
 30
0.0
 40
0
 41
0
  0
VERTEX
  8
0
 10
2.20275
 20
0.767904
 30
0.0
 40
0
 41
0
  0
VERTEX
  8
0
 10
2.23443
 20
0.736274
 30
0.0
 40
0
 41
0
  0
VERTEX
  8
0
 10
2.22597
 20
0.72781
 30
0.0
 40
0
 41
0
  0
VERTEX
  8
0
 10
2.26438
 20
0.689399
 30
0.0
 40
0
 41
0
  0
VERTEX
  8
0
 10
2.30274
 20
0.72781
 30
0.0
 40
0
 41
0
  0
VERTEX
  8
0
 10
2.26438
 20
0.766222
 30
0.0
 40
0
 41
0
  0
VERTEX
  8
0
 10
2.25592
 20
0.757813
 30
0.0
 40
0
 41
0
  0
VERTEX
  8
0
 10
2.23318
 20
0.780544
 30
0.0
 40
0
 41
0
  0
SEQEND
 8
0
  0
POLYLINE
  8
0
 62
     7
 66
     1
 10
0
 20
0
 30
0.0
 70
     1
 40
0
 41
0
  0
VERTEX
  8
0
 10
2.51042
 20
0.391493
 30
0.0
 40
0
 41
0
  0
VERTEX
  8
0
 10
2.51042
 20
0.488172
 30
0.0
 40
0
 41
0
  0
VERTEX
  8
0
 10
2.59353
 20
0.571289
 30
0.0
 40
0
 41
0
  0
VERTEX
  8
0
 10
2.60194
 20
0.562879
 30
0.0
 40
0
 41
0
  0
VERTEX
  8
0
 10
2.64035
 20
0.601238
 30
0.0
 40
0
 41
0
  0
VERTEX
  8
0
 10
2.60194
 20
0.639649
 30
0.0
 40
0
 41
0
  0
VERTEX
  8
0
 10
2.56353
 20
0.601238
 30
0.0
 40
0
 41
0
  0
VERTEX
  8
0
 10
2.57194
 20
0.592828
 30
0.0
 40
0
 41
0
  0
VERTEX
  8
0
 10
2.47999
 20
0.500814
 30
0.0
 40
0
 41
0
  0
VERTEX
  8
0
 10
2.47999
 20
0.391493
 30
0.0
 40
0
 41
0
  0
VERTEX
  8
0
 10
2.46804
 20
0.391493
 30
0.0
 40
0
 41
0
  0
VERTEX
  8
0
 10
2.46804
 20
0.33724
 30
0.0
 40
0
 41
0
  0
VERTEX
  8
0
 10
2.52235
 20
0.33724
 30
0.0
 40
0
 41
0
  0
VERTEX
  8
0
 10
2.52235
 20
0.391493
 30
0.0
 40
0
 41
0
  0
VERTEX
  8
0
 10
2.51042
 20
0.391493
 30
0.0
 40
0
 41
0
  0
SEQEND
 8
0
  0
POLYLINE
  8
0
 62
     7
 66
     1
 10
0
 20
0
 30
0.0
 70
     1
 40
0
 41
0
  0
VERTEX
  8
0
 10
2.66917
 20
0.692437
 30
0.0
 40
0
 41
0
  0
VERTEX
  8
0
 10
2.56549
 20
0.692437
 30
0.0
 40
0
 41
0
  0
VERTEX
  8
0
 10
2.49431
 20
0.621257
 30
0.0
 40
0
 41
0
  0
VERTEX
  8
0
 10
2.30865
 20
0.806967
 30
0.0
 40
0
 41
0
  0
VERTEX
  8
0
 10
2.30865
 20
0.946451
 30
0.0
 40
0
 41
0
  0
VERTEX
  8
0
 10
2.12944
 20
0.946451
 30
0.0
 40
0
 41
0
  0
VERTEX
  8
0
 10
2.12944
 20
0.732639
 30
0.0
 40
0
 41
0
  0
VERTEX
  8
0
 10
2.21957
 20
0.642524
 30
0.0
 40
0
 41
0
  0
VERTEX
  8
0
 10
2.32699
 20
0.642524
 30
0.0
 40
0
 41
0
  0
VERTEX
  8
0
 10
2.40369
 20
0.56581
 30
0.0
 40
0
 41
0
  0
VERTEX
  8
0
 10
2.39529
 20
0.5574
 30
0.0
 40
0
 41
0
  0
VERTEX
  8
0
 10
2.43371
 20
0.518989
 30
0.0
 40
0
 41
0
  0
VERTEX
  8
0
 10
2.47211
 20
0.5574
 30
0.0
 40
0
 41
0
  0
VERTEX
  8
0
 10
2.43371
 20
0.595811
 30
0.0
 40
0
 41
0
  0
VERTEX
  8
0
 10
2.42524
 20
0.587349
 30
0.0
 40
0
 41
0
  0
VERTEX
  8
0
 10
2.33963
 20
0.67296
 30
0.0
 40
0
 41
0
  0
VERTEX
  8
0
 10
2.2321
 20
0.67296
 30
0.0
 40
0
 41
0
  0
VERTEX
  8
0
 10
2.15994
 20
0.745226
 30
0.0
 40
0
 41
0
  0
VERTEX
  8
0
 10
2.15994
 20
0.915961
 30
0.0
 40
0
 41
0
  0
VERTEX
  8
0
 10
2.27815
 20
0.915961
 30
0.0
 40
0
 41
0
  0
VERTEX
  8
0
 10
2.27815
 20
0.794379
 30
0.0
 40
0
 41
0
  0
VERTEX
  8
0
 10
2.49431
 20
0.578179
 30
0.0
 40
0
 41
0
  0
VERTEX
  8
0
 10
2.57813
 20
0.662001
 30
0.0
 40
0
 41
0
  0
VERTEX
  8
0
 10
2.68186
 20
0.662001
 30
0.0
 40
0
 41
0
  0
VERTEX
  8
0
 10
2.78347
 20
0.7653
 30
0.0
 40
0
 41
0
  0
VERTEX
  8
0
 10
2.78358
 20
0.829861
 30
0.0
 40
0
 41
0
  0
VERTEX
  8
0
 10
2.79546
 20
0.829861
 30
0.0
 40
0
 41
0
  0
VERTEX
  8
0
 10
2.79557
 20
0.884115
 30
0.0
 40
0
 41
0
  0
VERTEX
  8
0
 10
2.74126
 20
0.884278
 30
0.0
 40
0
 41
0
  0
VERTEX
  8
0
 10
2.74121
 20
0.829915
 30
0.0
 40
0
 41
0
  0
VERTEX
  8
0
 10
2.7531
 20
0.829915
 30
0.0
 40
0
 41
0
  0
VERTEX
  8
0
 10
2.75304
 20
0.777778
 30
0.0
 40
0
 41
0
  0
VERTEX
  8
0
 10
2.66917
 20
0.692437
 30
0.0
 40
0
 41
0
  0
SEQEND
 8
0
  0
POLYLINE
  8
0
 62
     7
 66
     1
 10
0
 20
0
 30
0.0
 70
     1
 40
0
 41
0
  0
VERTEX
  8
0
 10
1.72949
 20
0.830838
 30
0.0
 40
0
 41
0
  0
VERTEX
  8
0
 10
1.72949
 20
0.842774
 30
0.0
 40
0
 41
0
  0
VERTEX
  8
0
 10
1.83285
 20
0.842774
 30
0.0
 40
0
 41
0
  0
VERTEX
  8
0
 10
1.83285
 20
0.830838
 30
0.0
 40
0
 41
0
  0
VERTEX
  8
0
 10
1.88715
 20
0.830838
 30
0.0
 40
0
 41
0
  0
VERTEX
  8
0
 10
1.88715
 20
0.885146
 30
0.0
 40
0
 41
0
  0
VERTEX
  8
0
 10
1.83285
 20
0.885146
 30
0.0
 40
0
 41
0
  0
VERTEX
  8
0
 10
1.83285
 20
0.87321
 30
0.0
 40
0
 41
0
  0
VERTEX
  8
0
 10
1.72949
 20
0.87321
 30
0.0
 40
0
 41
0
  0
VERTEX
  8
0
 10
1.72949
 20
0.885146
 30
0.0
 40
0
 41
0
  0
VERTEX
  8
0
 10
1.67518
 20
0.885146
 30
0.0
 40
0
 41
0
  0
VERTEX
  8
0
 10
1.67518
 20
0.830838
 30
0.0
 40
0
 41
0
  0
VERTEX
  8
0
 10
1.72949
 20
0.830838
 30
0.0
 40
0
 41
0
  0
SEQEND
 8
0
  0
POLYLINE
  8
0
 62
     7
 66
     1
 10
0
 20
0
 30
0.0
 70
     1
 40
0
 41
0
  0
VERTEX
  8
0
 10
1.59944
 20
0.398981
 30
0.0
 40
0
 41
0
  0
VERTEX
  8
0
 10
1.59944
 20
0.153971
 30
0.0
 40
0
 41
0
  0
VERTEX
  8
0
 10
1.58757
 20
0.153971
 30
0.0
 40
0
 41
0
  0
VERTEX
  8
0
 10
1.58757
 20
0.0997179
 30
0.0
 40
0
 41
0
  0
VERTEX
  8
0
 10
1.64182
 20
0.0997179
 30
0.0
 40
0
 41
0
  0
VERTEX
  8
0
 10
1.64182
 20
0.153971
 30
0.0
 40
0
 41
0
  0
VERTEX
  8
0
 10
1.62989
 20
0.153971
 30
0.0
 40
0
 41
0
  0
VERTEX
  8
0
 10
1.62989
 20
0.398981
 30
0.0
 40
0
 41
0
  0
VERTEX
  8
0
 10
1.64182
 20
0.398981
 30
0.0
 40
0
 41
0
  0
VERTEX
  8
0
 10
1.64182
 20
0.453233
 30
0.0
 40
0
 41
0
  0
VERTEX
  8
0
 10
1.58757
 20
0.453233
 30
0.0
 40
0
 41
0
  0
VERTEX
  8
0
 10
1.58757
 20
0.398981
 30
0.0
 40
0
 41
0
  0
VERTEX
  8
0
 10
1.59944
 20
0.398981
 30
0.0
 40
0
 41
0
  0
SEQEND
 8
0
  0
POLYLINE
  8
0
 62
     7
 66
     1
 10
0
 20
0
 30
0.0
 70
     1
 40
0
 41
0
  0
VERTEX
  8
0
 10
1.70426
 20
0.767253
 30
0.0
 40
0
 41
0
  0
VERTEX
  8
0
 10
1.95057
 20
0.767253
 30
0.0
 40
0
 41
0
  0
VERTEX
  8
0
 10
1.95057
 20
0.946451
 30
0.0
 40
0
 41
0
  0
VERTEX
  8
0
 10
1.27875
 20
0.946451
 30
0.0
 40
0
 41
0
  0
VERTEX
  8
0
 10
1.27875
 20
0.767253
 30
0.0
 40
0
 41
0
  0
VERTEX
  8
0
 10
1.52512
 20
0.767253
 30
0.0
 40
0
 41
0
  0
VERTEX
  8
0
 10
1.52512
 20
0.042589
 30
0.0
 40
0
 41
0
  0
VERTEX
  8
0
 10
1.70426
 20
0.042589
 30
0.0
 40
0
 41
0
  0
VERTEX
  8
0
 10
1.70426
 20
0.458225
 30
0.0
 40
0
 41
0
  0
VERTEX
  8
0
 10
1.62993
 20
0.532553
 30
0.0
 40
0
 41
0
  0
VERTEX
  8
0
 10
1.62993
 20
0.87321
 30
0.0
 40
0
 41
0
  0
VERTEX
  8
0
 10
1.39328
 20
0.87321
 30
0.0
 40
0
 41
0
  0
VERTEX
  8
0
 10
1.39328
 20
0.885146
 30
0.0
 40
0
 41
0
  0
VERTEX
  8
0
 10
1.33898
 20
0.885146
 30
0.0
 40
0
 41
0
  0
VERTEX
  8
0
 10
1.33898
 20
0.830838
 30
0.0
 40
0
 41
0
  0
VERTEX
  8
0
 10
1.39328
 20
0.830838
 30
0.0
 40
0
 41
0
  0
VERTEX
  8
0
 10
1.39328
 20
0.842774
 30
0.0
 40
0
 41
0
  0
VERTEX
  8
0
 10
1.59944
 20
0.842774
 30
0.0
 40
0
 41
0
  0
VERTEX
  8
0
 10
1.59944
 20
0.519911
 30
0.0
 40
0
 41
0
  0
VERTEX
  8
0
 10
1.67383
 20
0.445637
 30
0.0
 40
0
 41
0
  0
VERTEX
  8
0
 10
1.67383
 20
0.0730251
 30
0.0
 40
0
 41
0
  0
VERTEX
  8
0
 10
1.55556
 20
0.0730251
 30
0.0
 40
0
 41
0
  0
VERTEX
  8
0
 10
1.55556
 20
0.797689
 30
0.0
 40
0
 41
0
  0
VERTEX
  8
0
 10
1.30924
 20
0.797689
 30
0.0
 40
0
 41
0
  0
VERTEX
  8
0
 10
1.30924
 20
0.915961
 30
0.0
 40
0
 41
0
  0
VERTEX
  8
0
 10
1.92014
 20
0.915961
 30
0.0
 40
0
 41
0
  0
VERTEX
  8
0
 10
1.92014
 20
0.797689
 30
0.0
 40
0
 41
0
  0
VERTEX
  8
0
 10
1.67383
 20
0.797689
 30
0.0
 40
0
 41
0
  0
VERTEX
  8
0
 10
1.67383
 20
0.586643
 30
0.0
 40
0
 41
0
  0
VERTEX
  8
0
 10
1.66189
 20
0.586643
 30
0.0
 40
0
 41
0
  0
VERTEX
  8
0
 10
1.66189
 20
0.532281
 30
0.0
 40
0
 41
0
  0
VERTEX
  8
0
 10
1.71619
 20
0.532281
 30
0.0
 40
0
 41
0
  0
VERTEX
  8
0
 10
1.71619
 20
0.586643
 30
0.0
 40
0
 41
0
  0
VERTEX
  8
0
 10
1.70426
 20
0.586643
 30
0.0
 40
0
 41
0
  0
VERTEX
  8
0
 10
1.70426
 20
0.767253
 30
0.0
 40
0
 41
0
  0
SEQEND
 8
0
  0
POLYLINE
  8
0
 62
     7
 66
     1
 10
0
 20
0
 30
0.0
 70
     1
 40
0
 41
0
  0
VERTEX
  8
0
 10
0.987468
 20
0.405817
 30
0.0
 40
0
 41
0
  0
VERTEX
  8
0
 10
0.987468
 20
0.159071
 30
0.0
 40
0
 41
0
  0
VERTEX
  8
0
 10
0.975532
 20
0.159071
 30
0.0
 40
0
 41
0
  0
VERTEX
  8
0
 10
0.975532
 20
0.104763
 30
0.0
 40
0
 41
0
  0
VERTEX
  8
0
 10
1.02984
 20
0.104763
 30
0.0
 40
0
 41
0
  0
VERTEX
  8
0
 10
1.02984
 20
0.159071
 30
0.0
 40
0
 41
0
  0
VERTEX
  8
0
 10
1.01796
 20
0.159071
 30
0.0
 40
0
 41
0
  0
VERTEX
  8
0
 10
1.01796
 20
0.405817
 30
0.0
 40
0
 41
0
  0
VERTEX
  8
0
 10
1.02984
 20
0.405817
 30
0.0
 40
0
 41
0
  0
VERTEX
  8
0
 10
1.02984
 20
0.460069
 30
0.0
 40
0
 41
0
  0
VERTEX
  8
0
 10
0.975532
 20
0.460069
 30
0.0
 40
0
 41
0
  0
VERTEX
  8
0
 10
0.975532
 20
0.405817
 30
0.0
 40
0
 41
0
  0
VERTEX
  8
0
 10
0.987468
 20
0.405817
 30
0.0
 40
0
 41
0
  0
SEQEND
 8
0
  0
POLYLINE
  8
0
 62
     7
 66
     1
 10
0
 20
0
 30
0.0
 70
     1
 40
0
 41
0
  0
VERTEX
  8
0
 10
1.05675
 20
0.565483
 30
0.0
 40
0
 41
0
  0
VERTEX
  8
0
 10
1.111
 20
0.565483
 30
0.0
 40
0
 41
0
  0
VERTEX
  8
0
 10
1.111
 20
0.619792
 30
0.0
 40
0
 41
0
  0
VERTEX
  8
0
 10
1.09912
 20
0.619792
 30
0.0
 40
0
 41
0
  0
VERTEX
  8
0
 10
1.09912
 20
0.946451
 30
0.0
 40
0
 41
0
  0
VERTEX
  8
0
 10
0.910969
 20
0.946451
 30
0.0
 40
0
 41
0
  0
VERTEX
  8
0
 10
0.910969
 20
0.0425347
 30
0.0
 40
0
 41
0
  0
VERTEX
  8
0
 10
1.09912
 20
0.0425347
 30
0.0
 40
0
 41
0
  0
VERTEX
  8
0
 10
1.09912
 20
0.465332
 30
0.0
 40
0
 41
0
  0
VERTEX
  8
0
 10
1.0179
 20
0.556099
 30
0.0
 40
0
 41
0
  0
VERTEX
  8
0
 10
1.01796
 20
0.830132
 30
0.0
 40
0
 41
0
  0
VERTEX
  8
0
 10
1.02984
 20
0.830132
 30
0.0
 40
0
 41
0
  0
VERTEX
  8
0
 10
1.02984
 20
0.88444
 30
0.0
 40
0
 41
0
  0
VERTEX
  8
0
 10
0.975478
 20
0.88444
 30
0.0
 40
0
 41
0
  0
VERTEX
  8
0
 10
0.975478
 20
0.830132
 30
0.0
 40
0
 41
0
  0
VERTEX
  8
0
 10
0.987468
 20
0.830132
 30
0.0
 40
0
 41
0
  0
VERTEX
  8
0
 10
0.987414
 20
0.543457
 30
0.0
 40
0
 41
0
  0
VERTEX
  8
0
 10
1.06868
 20
0.4528
 30
0.0
 40
0
 41
0
  0
VERTEX
  8
0
 10
1.06868
 20
0.0730251
 30
0.0
 40
0
 41
0
  0
VERTEX
  8
0
 10
0.941407
 20
0.0730251
 30
0.0
 40
0
 41
0
  0
VERTEX
  8
0
 10
0.941407
 20
0.915961
 30
0.0
 40
0
 41
0
  0
VERTEX
  8
0
 10
1.06868
 20
0.915961
 30
0.0
 40
0
 41
0
  0
VERTEX
  8
0
 10
1.06868
 20
0.619792
 30
0.0
 40
0
 41
0
  0
VERTEX
  8
0
 10
1.05675
 20
0.619792
 30
0.0
 40
0
 41
0
  0
VERTEX
  8
0
 10
1.05675
 20
0.565483
 30
0.0
 40
0
 41
0
  0
SEQEND
 8
0
  0
POLYLINE
  8
0
 62
     7
 66
     1
 10
0
 20
0
 30
0.0
 70
     1
 40
0
 41
0
  0
VERTEX
  8
0
 10
0.461426
 20
0.829753
 30
0.0
 40
0
 41
0
  0
VERTEX
  8
0
 10
0.461426
 20
0.841635
 30
0.0
 40
0
 41
0
  0
VERTEX
  8
0
 10
0.482693
 20
0.841635
 30
0.0
 40
0
 41
0
  0
VERTEX
  8
0
 10
0.600315
 20
0.723361
 30
0.0
 40
0
 41
0
  0
VERTEX
  8
0
 10
0.595324
 20
0.723361
 30
0.0
 40
0
 41
0
  0
VERTEX
  8
0
 10
0.595324
 20
0.669
 30
0.0
 40
0
 41
0
  0
VERTEX
  8
0
 10
0.649631
 20
0.669
 30
0.0
 40
0
 41
0
  0
VERTEX
  8
0
 10
0.649631
 20
0.723361
 30
0.0
 40
0
 41
0
  0
VERTEX
  8
0
 10
0.637696
 20
0.723361
 30
0.0
 40
0
 41
0
  0
VERTEX
  8
0
 10
0.637696
 20
0.729004
 30
0.0
 40
0
 41
0
  0
VERTEX
  8
0
 10
0.495389
 20
0.872071
 30
0.0
 40
0
 41
0
  0
VERTEX
  8
0
 10
0.461426
 20
0.872071
 30
0.0
 40
0
 41
0
  0
VERTEX
  8
0
 10
0.461426
 20
0.884006
 30
0.0
 40
0
 41
0
  0
VERTEX
  8
0
 10
0.407118
 20
0.884006
 30
0.0
 40
0
 41
0
  0
VERTEX
  8
0
 10
0.407118
 20
0.829753
 30
0.0
 40
0
 41
0
  0
VERTEX
  8
0
 10
0.461426
 20
0.829753
 30
0.0
 40
0
 41
0
  0
SEQEND
 8
0
  0
POLYLINE
  8
0
 62
     7
 66
     1
 10
0
 20
0
 30
0.0
 70
     1
 40
0
 41
0
  0
VERTEX
  8
0
 10
0.713108
 20
0.606337
 30
0.0
 40
0
 41
0
  0
VERTEX
  8
0
 10
0.713108
 20
0.756347
 30
0.0
 40
0
 41
0
  0
VERTEX
  8
0
 10
0.523058
 20
0.946451
 30
0.0
 40
0
 41
0
  0
VERTEX
  8
0
 10
0.393067
 20
0.946451
 30
0.0
 40
0
 41
0
  0
VERTEX
  8
0
 10
0.3227
 20
0.870876
 30
0.0
 40
0
 41
0
  0
VERTEX
  8
0
 10
0.258572
 20
0.869575
 30
0.0
 40
0
 41
0
  0
VERTEX
  8
0
 10
0.116102
 20
0.72716
 30
0.0
 40
0
 41
0
  0
VERTEX
  8
0
 10
0.116102
 20
0.680393
 30
0.0
 40
0
 41
0
  0
VERTEX
  8
0
 10
0.104167
 20
0.680393
 30
0.0
 40
0
 41
0
  0
VERTEX
  8
0
 10
0.104167
 20
0.626031
 30
0.0
 40
0
 41
0
  0
VERTEX
  8
0
 10
0.158421
 20
0.626031
 30
0.0
 40
0
 41
0
  0
VERTEX
  8
0
 10
0.158421
 20
0.680393
 30
0.0
 40
0
 41
0
  0
VERTEX
  8
0
 10
0.146539
 20
0.680393
 30
0.0
 40
0
 41
0
  0
VERTEX
  8
0
 10
0.146539
 20
0.714518
 30
0.0
 40
0
 41
0
  0
VERTEX
  8
0
 10
0.271431
 20
0.839356
 30
0.0
 40
0
 41
0
  0
VERTEX
  8
0
 10
0.336154
 20
0.840603
 30
0.0
 40
0
 41
0
  0
VERTEX
  8
0
 10
0.406358
 20
0.915961
 30
0.0
 40
0
 41
0
  0
VERTEX
  8
0
 10
0.510417
 20
0.915961
 30
0.0
 40
0
 41
0
  0
VERTEX
  8
0
 10
0.682617
 20
0.743761
 30
0.0
 40
0
 41
0
  0
VERTEX
  8
0
 10
0.682617
 20
0.636828
 30
0.0
 40
0
 41
0
  0
VERTEX
  8
0
 10
0.564399
 20
0.636828
 30
0.0
 40
0
 41
0
  0
VERTEX
  8
0
 10
0.564399
 20
0.694607
 30
0.0
 40
0
 41
0
  0
VERTEX
  8
0
 10
0.461317
 20
0.797689
 30
0.0
 40
0
 41
0
  0
VERTEX
  8
0
 10
0.293078
 20
0.797689
 30
0.0
 40
0
 41
0
  0
VERTEX
  8
0
 10
0.189996
 20
0.694607
 30
0.0
 40
0
 41
0
  0
VERTEX
  8
0
 10
0.189996
 20
0.478515
 30
0.0
 40
0
 41
0
  0
VERTEX
  8
0
 10
0.17806
 20
0.478515
 30
0.0
 40
0
 41
0
  0
VERTEX
  8
0
 10
0.17806
 20
0.424208
 30
0.0
 40
0
 41
0
  0
VERTEX
  8
0
 10
0.232368
 20
0.424208
 30
0.0
 40
0
 41
0
  0
VERTEX
  8
0
 10
0.232368
 20
0.478515
 30
0.0
 40
0
 41
0
  0
VERTEX
  8
0
 10
0.220486
 20
0.478515
 30
0.0
 40
0
 41
0
  0
VERTEX
  8
0
 10
0.220486
 20
0.681967
 30
0.0
 40
0
 41
0
  0
VERTEX
  8
0
 10
0.305718
 20
0.767199
 30
0.0
 40
0
 41
0
  0
VERTEX
  8
0
 10
0.448676
 20
0.767199
 30
0.0
 40
0
 41
0
  0
VERTEX
  8
0
 10
0.533908
 20
0.681967
 30
0.0
 40
0
 41
0
  0
VERTEX
  8
0
 10
0.533908
 20
0.606337
 30
0.0
 40
0
 41
0
  0
VERTEX
  8
0
 10
0.713108
 20
0.606337
 30
0.0
 40
0
 41
0
  0
SEQEND
 8
0
  0
POLYLINE
  8
0
 62
     7
 66
     1
 10
0
 20
0
 30
0.0
 70
     1
 40
0
 41
0
  0
VERTEX
  8
0
 10
0.266601
 20
0.904025
 30
0.0
 40
0
 41
0
  0
VERTEX
  8
0
 10
0.32091
 20
0.904025
 30
0.0
 40
0
 41
0
  0
VERTEX
  8
0
 10
0.32091
 20
0.958333
 30
0.0
 40
0
 41
0
  0
VERTEX
  8
0
 10
0.266601
 20
0.958333
 30
0.0
 40
0
 41
0
  0
VERTEX
  8
0
 10
0.266601
 20
0.946451
 30
0.0
 40
0
 41
0
  0
VERTEX
  8
0
 10
0.231337
 20
0.946451
 30
0.0
 40
0
 41
0
  0
VERTEX
  8
0
 10
0.0412869
 20
0.756347
 30
0.0
 40
0
 41
0
  0
VERTEX
  8
0
 10
0.0412869
 20
0.597928
 30
0.0
 40
0
 41
0
  0
VERTEX
  8
0
 10
0.116102
 20
0.52181
 30
0.0
 40
0
 41
0
  0
VERTEX
  8
0
 10
0.116102
 20
0.261285
 30
0.0
 40
0
 41
0
  0
VERTEX
  8
0
 10
0.265136
 20
0.113444
 30
0.0
 40
0
 41
0
  0
VERTEX
  8
0
 10
0.308485
 20
0.113932
 30
0.0
 40
0
 41
0
  0
VERTEX
  8
0
 10
0.308594
 20
0.102105
 30
0.0
 40
0
 41
0
  0
VERTEX
  8
0
 10
0.362901
 20
0.102539
 30
0.0
 40
0
 41
0
  0
VERTEX
  8
0
 10
0.362414
 20
0.156793
 30
0.0
 40
0
 41
0
  0
VERTEX
  8
0
 10
0.30816
 20
0.156358
 30
0.0
 40
0
 41
0
  0
VERTEX
  8
0
 10
0.308268
 20
0.144368
 30
0.0
 40
0
 41
0
  0
VERTEX
  8
0
 10
0.277561
 20
0.143989
 30
0.0
 40
0
 41
0
  0
VERTEX
  8
0
 10
0.146539
 20
0.273981
 30
0.0
 40
0
 41
0
  0
VERTEX
  8
0
 10
0.146539
 20
0.534343
 30
0.0
 40
0
 41
0
  0
VERTEX
  8
0
 10
0.0717231
 20
0.610406
 30
0.0
 40
0
 41
0
  0
VERTEX
  8
0
 10
0.0717231
 20
0.743761
 30
0.0
 40
0
 41
0
  0
VERTEX
  8
0
 10
0.243978
 20
0.915961
 30
0.0
 40
0
 41
0
  0
VERTEX
  8
0
 10
0.266601
 20
0.915961
 30
0.0
 40
0
 41
0
  0
VERTEX
  8
0
 10
0.266601
 20
0.904025
 30
0.0
 40
0
 41
0
  0
SEQEND
 8
0
  0
POLYLINE
  8
0
 62
     7
 66
     1
 10
0
 20
0
 30
0.0
 70
     1
 40
0
 41
0
  0
VERTEX
  8
0
 10
0.453722
 20
0.103299
 30
0.0
 40
0
 41
0
  0
VERTEX
  8
0
 10
0.453668
 20
0.115343
 30
0.0
 40
0
 41
0
  0
VERTEX
  8
0
 10
0.489583
 20
0.115723
 30
0.0
 40
0
 41
0
  0
VERTEX
  8
0
 10
0.637696
 20
0.263618
 30
0.0
 40
0
 41
0
  0
VERTEX
  8
0
 10
0.637696
 20
0.263726
 30
0.0
 40
0
 41
0
  0
VERTEX
  8
0
 10
0.649631
 20
0.263618
 30
0.0
 40
0
 41
0
  0
VERTEX
  8
0
 10
0.649849
 20
0.317925
 30
0.0
 40
0
 41
0
  0
VERTEX
  8
0
 10
0.595594
 20
0.318197
 30
0.0
 40
0
 41
0
  0
VERTEX
  8
0
 10
0.595324
 20
0.264324
 30
0.0
 40
0
 41
0
  0
VERTEX
  8
0
 10
0.476887
 20
0.146104
 30
0.0
 40
0
 41
0
  0
VERTEX
  8
0
 10
0.453396
 20
0.145779
 30
0.0
 40
0
 41
0
  0
VERTEX
  8
0
 10
0.453342
 20
0.157607
 30
0.0
 40
0
 41
0
  0
VERTEX
  8
0
 10
0.398981
 20
0.157172
 30
0.0
 40
0
 41
0
  0
VERTEX
  8
0
 10
0.399468
 20
0.102865
 30
0.0
 40
0
 41
0
  0
VERTEX
  8
0
 10
0.453722
 20
0.103299
 30
0.0
 40
0
 41
0
  0
SEQEND
 8
0
  0
POLYLINE
  8
0
 62
     7
 66
     1
 10
0
 20
0
 30
0.0
 70
     1
 40
0
 41
0
  0
VERTEX
  8
0
 10
0.0836589
 20
0.528049
 30
0.0
 40
0
 41
0
  0
VERTEX
  8
0
 10
0.0293511
 20
0.528049
 30
0.0
 40
0
 41
0
  0
VERTEX
  8
0
 10
0.0293511
 20
0.473796
 30
0.0
 40
0
 41
0
  0
VERTEX
  8
0
 10
0.0412869
 20
0.473796
 30
0.0
 40
0
 41
0
  0
VERTEX
  8
0
 10
0.0412869
 20
0.232585
 30
0.0
 40
0
 41
0
  0
VERTEX
  8
0
 10
0.231337
 20
0.0425347
 30
0.0
 40
0
 41
0
  0
VERTEX
  8
0
 10
0.519911
 20
0.0425347
 30
0.0
 40
0
 41
0
  0
VERTEX
  8
0
 10
0.713108
 20
0.232531
 30
0.0
 40
0
 41
0
  0
VERTEX
  8
0
 10
0.713108
 20
0.384819
 30
0.0
 40
0
 41
0
  0
VERTEX
  8
0
 10
0.533908
 20
0.384819
 30
0.0
 40
0
 41
0
  0
VERTEX
  8
0
 10
0.533908
 20
0.307021
 30
0.0
 40
0
 41
0
  0
VERTEX
  8
0
 10
0.448676
 20
0.221789
 30
0.0
 40
0
 41
0
  0
VERTEX
  8
0
 10
0.305718
 20
0.221789
 30
0.0
 40
0
 41
0
  0
VERTEX
  8
0
 10
0.220486
 20
0.307021
 30
0.0
 40
0
 41
0
  0
VERTEX
  8
0
 10
0.220486
 20
0.337674
 30
0.0
 40
0
 41
0
  0
VERTEX
  8
0
 10
0.232368
 20
0.337674
 30
0.0
 40
0
 41
0
  0
VERTEX
  8
0
 10
0.232368
 20
0.391928
 30
0.0
 40
0
 41
0
  0
VERTEX
  8
0
 10
0.17806
 20
0.391928
 30
0.0
 40
0
 41
0
  0
VERTEX
  8
0
 10
0.17806
 20
0.337674
 30
0.0
 40
0
 41
0
  0
VERTEX
  8
0
 10
0.189996
 20
0.337674
 30
0.0
 40
0
 41
0
  0
VERTEX
  8
0
 10
0.189996
 20
0.294379
 30
0.0
 40
0
 41
0
  0
VERTEX
  8
0
 10
0.293078
 20
0.191243
 30
0.0
 40
0
 41
0
  0
VERTEX
  8
0
 10
0.461317
 20
0.191243
 30
0.0
 40
0
 41
0
  0
VERTEX
  8
0
 10
0.564399
 20
0.294379
 30
0.0
 40
0
 41
0
  0
VERTEX
  8
0
 10
0.564399
 20
0.354329
 30
0.0
 40
0
 41
0
  0
VERTEX
  8
0
 10
0.682617
 20
0.354329
 30
0.0
 40
0
 41
0
  0
VERTEX
  8
0
 10
0.682617
 20
0.245335
 30
0.0
 40
0
 41
0
  0
VERTEX
  8
0
 10
0.507433
 20
0.0730251
 30
0.0
 40
0
 41
0
  0
VERTEX
  8
0
 10
0.243978
 20
0.0730251
 30
0.0
 40
0
 41
0
  0
VERTEX
  8
0
 10
0.0717231
 20
0.245226
 30
0.0
 40
0
 41
0
  0
VERTEX
  8
0
 10
0.0717231
 20
0.473796
 30
0.0
 40
0
 41
0
  0
VERTEX
  8
0
 10
0.0836589
 20
0.473796
 30
0.0
 40
0
 41
0
  0
VERTEX
  8
0
 10
0.0836589
 20
0.528049
 30
0.0
 40
0
 41
0
  0
SEQEND
 8
0
  0
POLYLINE
  8
0
 62
     7
 66
     1
 10
0
 20
0
 30
0.0
 70
     1
 40
0
 41
0
  0
VERTEX
  8
0
 10
2.30306
 20
0.618924
 30
0.0
 40
0
 41
0
  0
VERTEX
  8
0
 10
2.26471
 20
0.580567
 30
0.0
 40
0
 41
0
  0
VERTEX
  8
0
 10
2.30306
 20
0.542156
 30
0.0
 40
0
 41
0
  0
VERTEX
  8
0
 10
2.31147
 20
0.550564
 30
0.0
 40
0
 41
0
  0
VERTEX
  8
0
 10
2.40474
 20
0.457303
 30
0.0
 40
0
 41
0
  0
VERTEX
  8
0
 10
2.40474
 20
0.042589
 30
0.0
 40
0
 41
0
  0
VERTEX
  8
0
 10
2.58388
 20
0.042589
 30
0.0
 40
0
 41
0
  0
VERTEX
  8
0
 10
2.58388
 20
0.202094
 30
0.0
 40
0
 41
0
  0
VERTEX
  8
0
 10
2.59581
 20
0.202094
 30
0.0
 40
0
 41
0
  0
VERTEX
  8
0
 10
2.59581
 20
0.256347
 30
0.0
 40
0
 41
0
  0
VERTEX
  8
0
 10
2.54156
 20
0.256347
 30
0.0
 40
0
 41
0
  0
VERTEX
  8
0
 10
2.54156
 20
0.202094
 30
0.0
 40
0
 41
0
  0
VERTEX
  8
0
 10
2.55344
 20
0.202094
 30
0.0
 40
0
 41
0
  0
VERTEX
  8
0
 10
2.55344
 20
0.0730251
 30
0.0
 40
0
 41
0
  0
VERTEX
  8
0
 10
2.43522
 20
0.0730251
 30
0.0
 40
0
 41
0
  0
VERTEX
  8
0
 10
2.43522
 20
0.469943
 30
0.0
 40
0
 41
0
  0
VERTEX
  8
0
 10
2.33301
 20
0.572103
 30
0.0
 40
0
 41
0
  0
VERTEX
  8
0
 10
2.34147
 20
0.580567
 30
0.0
 40
0
 41
0
  0
VERTEX
  8
0
 10
2.30306
 20
0.618924
 30
0.0
 40
0
 41
0
  0
SEQEND
 8
0
  0
ENDSEC
  0
EOF
