  0
SECTION
  2
HEADER
  9
$ACADVER
  1
AC1009
  9
$FILLMODE
 70
 0
  9
$SPLFRAME
 70
 1
  9
$EXTMIN
 10
0
 20
0
 30
0.0
  9
$EXTMAX
 10
41.6667
 20
41.6667
 30
0.0
  0
ENDSEC
  0
SECTION
  2
TABLES
  0
TABLE
  2
LAYER
 70
1
  0
LAYER
  2
0
 70
     0
 62
     7
  6
CONTINUOUS
  0
ENDTAB
  0
ENDSEC
  0
SECTION
  2
ENTITIES
  0
POLYLINE
  8
0
 62
     0
 66
     1
 10
0
 20
0
 30
0.0
 70
     1
 40
0
 41
0
  0
VERTEX
  8
0
 10
5.10775
 20
1.03852
 30
0.0
 40
0
 41
0
  0
VERTEX
  8
0
 10
5.10775
 20
0.00314671
 30
0.0
 40
0
 41
0
  0
VERTEX
  8
0
 10
5.56554
 20
0.00358074
 30
0.0
 40
0
 41
0
  0
VERTEX
  8
0
 10
5.60856
 20
0.00358074
 30
0.0
 40
0
 41
0
  0
VERTEX
  8
0
 10
5.60856
 20
0.00363499
 30
0.0
 40
0
 41
0
  0
VERTEX
  8
0
 10
5.78364
 20
0.00379775
 30
0.0
 40
0
 41
0
  0
VERTEX
  8
0
 10
5.96039
 20
0.179796
 30
0.0
 40
0
 41
0
  0
VERTEX
  8
0
 10
5.96039
 20
0.481554
 30
0.0
 40
0
 41
0
  0
VERTEX
  8
0
 10
5.92106
 20
0.520833
 30
0.0
 40
0
 41
0
  0
VERTEX
  8
0
 10
5.96039
 20
0.560167
 30
0.0
 40
0
 41
0
  0
VERTEX
  8
0
 10
5.96039
 20
0.861871
 30
0.0
 40
0
 41
0
  0
VERTEX
  8
0
 10
5.78369
 20
1.03852
 30
0.0
 40
0
 41
0
  0
VERTEX
  8
0
 10
5.10775
 20
1.03852
 30
0.0
 40
0
 41
0
  0
SEQEND
 8
0
  0
POLYLINE
  8
0
 62
     0
 66
     1
 10
0
 20
0
 30
0.0
 70
     1
 40
0
 41
0
  0
VERTEX
  8
0
 10
5.38249
 20
0.763781
 30
0.0
 40
0
 41
0
  0
VERTEX
  8
0
 10
5.66976
 20
0.763781
 30
0.0
 40
0
 41
0
  0
VERTEX
  8
0
 10
5.69407
 20
0.739475
 30
0.0
 40
0
 41
0
  0
VERTEX
  8
0
 10
5.69407
 20
0.680339
 30
0.0
 40
0
 41
0
  0
VERTEX
  8
0
 10
5.67068
 20
0.658203
 30
0.0
 40
0
 41
0
  0
VERTEX
  8
0
 10
5.38249
 20
0.658203
 30
0.0
 40
0
 41
0
  0
VERTEX
  8
0
 10
5.38249
 20
0.763781
 30
0.0
 40
0
 41
0
  0
SEQEND
 8
0
  0
POLYLINE
  8
0
 62
     0
 66
     1
 10
0
 20
0
 30
0.0
 70
     1
 40
0
 41
0
  0
VERTEX
  8
0
 10
5.38249
 20
0.383572
 30
0.0
 40
0
 41
0
  0
VERTEX
  8
0
 10
5.66976
 20
0.383518
 30
0.0
 40
0
 41
0
  0
VERTEX
  8
0
 10
5.69358
 20
0.359646
 30
0.0
 40
0
 41
0
  0
VERTEX
  8
0
 10
5.6926
 20
0.300836
 30
0.0
 40
0
 41
0
  0
VERTEX
  8
0
 10
5.66932
 20
0.277561
 30
0.0
 40
0
 41
0
  0
VERTEX
  8
0
 10
5.38249
 20
0.273004
 30
0.0
 40
0
 41
0
  0
VERTEX
  8
0
 10
5.38249
 20
0.383572
 30
0.0
 40
0
 41
0
  0
SEQEND
 8
0
  0
POLYLINE
  8
0
 62
     0
 66
     1
 10
0
 20
0
 30
0.0
 70
     1
 40
0
 41
0
  0
VERTEX
  8
0
 10
4.31304
 20
1.03483
 30
0.0
 40
0
 41
0
  0
VERTEX
  8
0
 10
4.08897
 20
0.812554
 30
0.0
 40
0
 41
0
  0
VERTEX
  8
0
 10
4.08897
 20
0
 30
0.0
 40
0
 41
0
  0
VERTEX
  8
0
 10
4.36219
 20
0
 30
0.0
 40
0
 41
0
  0
VERTEX
  8
0
 10
4.36219
 20
0.283149
 30
0.0
 40
0
 41
0
  0
VERTEX
  8
0
 10
4.69433
 20
0.283149
 30
0.0
 40
0
 41
0
  0
VERTEX
  8
0
 10
4.69433
 20
0
 30
0.0
 40
0
 41
0
  0
VERTEX
  8
0
 10
4.96744
 20
0
 30
0.0
 40
0
 41
0
  0
VERTEX
  8
0
 10
4.96744
 20
0.817817
 30
0.0
 40
0
 41
0
  0
VERTEX
  8
0
 10
4.74121
 20
1.03678
 30
0.0
 40
0
 41
0
  0
VERTEX
  8
0
 10
4.31304
 20
1.03483
 30
0.0
 40
0
 41
0
  0
SEQEND
 8
0
  0
POLYLINE
  8
0
 62
     0
 66
     1
 10
0
 20
0
 30
0.0
 70
     1
 40
0
 41
0
  0
VERTEX
  8
0
 10
4.3629
 20
0.695856
 30
0.0
 40
0
 41
0
  0
VERTEX
  8
0
 10
4.42714
 20
0.760092
 30
0.0
 40
0
 41
0
  0
VERTEX
  8
0
 10
4.62869
 20
0.759928
 30
0.0
 40
0
 41
0
  0
VERTEX
  8
0
 10
4.69276
 20
0.695856
 30
0.0
 40
0
 41
0
  0
VERTEX
  8
0
 10
4.69276
 20
0.558106
 30
0.0
 40
0
 41
0
  0
VERTEX
  8
0
 10
4.3629
 20
0.558106
 30
0.0
 40
0
 41
0
  0
VERTEX
  8
0
 10
4.3629
 20
0.695856
 30
0.0
 40
0
 41
0
  0
SEQEND
 8
0
  0
POLYLINE
  8
0
 62
     0
 66
     1
 10
0
 20
0
 30
0.0
 70
     1
 40
0
 41
0
  0
VERTEX
  8
0
 10
3.13525
 20
1.03673
 30
0.0
 40
0
 41
0
  0
VERTEX
  8
0
 10
3.13607
 20
0.00135634
 30
0.0
 40
0
 41
0
  0
VERTEX
  8
0
 10
3.9879
 20
0.00135634
 30
0.0
 40
0
 41
0
  0
VERTEX
  8
0
 10
3.9879
 20
0.27615
 30
0.0
 40
0
 41
0
  0
VERTEX
  8
0
 10
3.41
 20
0.27615
 30
0.0
 40
0
 41
0
  0
VERTEX
  8
0
 10
3.41
 20
1.03673
 30
0.0
 40
0
 41
0
  0
VERTEX
  8
0
 10
3.13525
 20
1.03673
 30
0.0
 40
0
 41
0
  0
SEQEND
 8
0
  0
POLYLINE
  8
0
 62
     0
 66
     1
 10
0
 20
0
 30
0.0
 70
     1
 40
0
 41
0
  0
VERTEX
  8
0
 10
2.76969
 20
1.03673
 30
0.0
 40
0
 41
0
  0
VERTEX
  8
0
 10
2.76969
 20
0.864367
 30
0.0
 40
0
 41
0
  0
VERTEX
  8
0
 10
2.61811
 20
0.713433
 30
0.0
 40
0
 41
0
  0
VERTEX
  8
0
 10
2.46653
 20
0.865018
 30
0.0
 40
0
 41
0
  0
VERTEX
  8
0
 10
2.46653
 20
1.03673
 30
0.0
 40
0
 41
0
  0
VERTEX
  8
0
 10
2.19179
 20
1.03673
 30
0.0
 40
0
 41
0
  0
VERTEX
  8
0
 10
2.19179
 20
0.751031
 30
0.0
 40
0
 41
0
  0
VERTEX
  8
0
 10
2.48074
 20
0.462076
 30
0.0
 40
0
 41
0
  0
VERTEX
  8
0
 10
2.48074
 20
0.00135634
 30
0.0
 40
0
 41
0
  0
VERTEX
  8
0
 10
2.75549
 20
0.00135634
 30
0.0
 40
0
 41
0
  0
VERTEX
  8
0
 10
2.75282
 20
0.462076
 30
0.0
 40
0
 41
0
  0
VERTEX
  8
0
 10
3.04312
 20
0.752388
 30
0.0
 40
0
 41
0
  0
VERTEX
  8
0
 10
3.04312
 20
1.03673
 30
0.0
 40
0
 41
0
  0
VERTEX
  8
0
 10
2.76969
 20
1.03673
 30
0.0
 40
0
 41
0
  0
SEQEND
 8
0
  0
POLYLINE
  8
0
 62
     0
 66
     1
 10
0
 20
0
 30
0.0
 70
     1
 40
0
 41
0
  0
VERTEX
  8
0
 10
1.29888
 20
1.03673
 30
0.0
 40
0
 41
0
  0
VERTEX
  8
0
 10
1.29888
 20
0.76199
 30
0.0
 40
0
 41
0
  0
VERTEX
  8
0
 10
1.55746
 20
0.76199
 30
0.0
 40
0
 41
0
  0
VERTEX
  8
0
 10
1.55746
 20
0.00135634
 30
0.0
 40
0
 41
0
  0
VERTEX
  8
0
 10
1.83214
 20
0.00135634
 30
0.0
 40
0
 41
0
  0
VERTEX
  8
0
 10
1.83214
 20
0.76199
 30
0.0
 40
0
 41
0
  0
VERTEX
  8
0
 10
2.09065
 20
0.76199
 30
0.0
 40
0
 41
0
  0
VERTEX
  8
0
 10
2.09065
 20
1.03673
 30
0.0
 40
0
 41
0
  0
VERTEX
  8
0
 10
1.29888
 20
1.03673
 30
0.0
 40
0
 41
0
  0
SEQEND
 8
0
  0
POLYLINE
  8
0
 62
     0
 66
     1
 10
0
 20
0
 30
0.0
 70
     1
 40
0
 41
0
  0
VERTEX
  8
0
 10
0.912869
 20
1.03673
 30
0.0
 40
0
 41
0
  0
VERTEX
  8
0
 10
0.912869
 20
0.00135634
 30
0.0
 40
0
 41
0
  0
VERTEX
  8
0
 10
1.19699
 20
0.00135634
 30
0.0
 40
0
 41
0
  0
VERTEX
  8
0
 10
1.19699
 20
0.550239
 30
0.0
 40
0
 41
0
  0
VERTEX
  8
0
 10
1.19699
 20
1.03673
 30
0.0
 40
0
 41
0
  0
VERTEX
  8
0
 10
0.912869
 20
1.03673
 30
0.0
 40
0
 41
0
  0
SEQEND
 8
0
  0
POLYLINE
  8
0
 62
     0
 66
     1
 10
0
 20
0
 30
0.0
 70
     1
 40
0
 41
0
  0
VERTEX
  8
0
 10
0.224121
 20
1.03597
 30
0.0
 40
0
 41
0
  0
VERTEX
  8
0
 10
0
 20
0.811794
 30
0.0
 40
0
 41
0
  0
VERTEX
  8
0
 10
0
 20
0.226238
 30
0.0
 40
0
 41
0
  0
VERTEX
  8
0
 10
0.224881
 20
0.00135634
 30
0.0
 40
0
 41
0
  0
VERTEX
  8
0
 10
0.563476
 20
0.00135634
 30
0.0
 40
0
 41
0
  0
VERTEX
  8
0
 10
0.791829
 20
0.225911
 30
0.0
 40
0
 41
0
  0
VERTEX
  8
0
 10
0.791829
 20
0.447211
 30
0.0
 40
0
 41
0
  0
VERTEX
  8
0
 10
0.51709
 20
0.447211
 30
0.0
 40
0
 41
0
  0
VERTEX
  8
0
 10
0.51709
 20
0.340224
 30
0.0
 40
0
 41
0
  0
VERTEX
  8
0
 10
0.453017
 20
0.27615
 30
0.0
 40
0
 41
0
  0
VERTEX
  8
0
 10
0.338976
 20
0.27615
 30
0.0
 40
0
 41
0
  0
VERTEX
  8
0
 10
0.274306
 20
0.342231
 30
0.0
 40
0
 41
0
  0
VERTEX
  8
0
 10
0.274306
 20
0.457574
 30
0.0
 40
0
 41
0
  0
VERTEX
  8
0
 10
0.27474
 20
0.697863
 30
0.0
 40
0
 41
0
  0
VERTEX
  8
0
 10
0.338813
 20
0.761936
 30
0.0
 40
0
 41
0
  0
VERTEX
  8
0
 10
0.453017
 20
0.761936
 30
0.0
 40
0
 41
0
  0
VERTEX
  8
0
 10
0.51709
 20
0.697863
 30
0.0
 40
0
 41
0
  0
VERTEX
  8
0
 10
0.51709
 20
0.593099
 30
0.0
 40
0
 41
0
  0
VERTEX
  8
0
 10
0.791829
 20
0.593099
 30
0.0
 40
0
 41
0
  0
VERTEX
  8
0
 10
0.791829
 20
0.811794
 30
0.0
 40
0
 41
0
  0
VERTEX
  8
0
 10
0.566949
 20
1.03673
 30
0.0
 40
0
 41
0
  0
VERTEX
  8
0
 10
0.224121
 20
1.03597
 30
0.0
 40
0
 41
0
  0
SEQEND
 8
0
  0
POLYLINE
  8
0
 62
     3
 66
     1
 10
0
 20
0
 30
0.0
 70
     1
 40
0
 41
0
  0
VERTEX
  8
0
 10
5.92958
 20
0.643229
 30
0.0
 40
0
 41
0
  0
VERTEX
  8
0
 10
5.92958
 20
0.70025
 30
0.0
 40
0
 41
0
  0
VERTEX
  8
0
 10
5.87256
 20
0.70025
 30
0.0
 40
0
 41
0
  0
VERTEX
  8
0
 10
5.87256
 20
0.643229
 30
0.0
 40
0
 41
0
  0
VERTEX
  8
0
 10
5.8851
 20
0.643229
 30
0.0
 40
0
 41
0
  0
VERTEX
  8
0
 10
5.8851
 20
0.591362
 30
0.0
 40
0
 41
0
  0
VERTEX
  8
0
 10
5.81456
 20
0.520833
 30
0.0
 40
0
 41
0
  0
VERTEX
  8
0
 10
5.8851
 20
0.450304
 30
0.0
 40
0
 41
0
  0
VERTEX
  8
0
 10
5.8851
 20
0.2111
 30
0.0
 40
0
 41
0
  0
VERTEX
  8
0
 10
5.7525
 20
0.0791015
 30
0.0
 40
0
 41
0
  0
VERTEX
  8
0
 10
5.67725
 20
0.0791015
 30
0.0
 40
0
 41
0
  0
VERTEX
  8
0
 10
5.60721
 20
0.149089
 30
0.0
 40
0
 41
0
  0
VERTEX
  8
0
 10
5.25885
 20
0.149089
 30
0.0
 40
0
 41
0
  0
VERTEX
  8
0
 10
5.25885
 20
0.199761
 30
0.0
 40
0
 41
0
  0
VERTEX
  8
0
 10
5.18306
 20
0.265246
 30
0.0
 40
0
 41
0
  0
VERTEX
  8
0
 10
5.18306
 20
0.963217
 30
0.0
 40
0
 41
0
  0
VERTEX
  8
0
 10
5.26497
 20
0.963217
 30
0.0
 40
0
 41
0
  0
VERTEX
  8
0
 10
5.26497
 20
0.950738
 30
0.0
 40
0
 41
0
  0
VERTEX
  8
0
 10
5.322
 20
0.950738
 30
0.0
 40
0
 41
0
  0
VERTEX
  8
0
 10
5.322
 20
1.0077
 30
0.0
 40
0
 41
0
  0
VERTEX
  8
0
 10
5.26497
 20
1.0077
 30
0.0
 40
0
 41
0
  0
VERTEX
  8
0
 10
5.26497
 20
0.995226
 30
0.0
 40
0
 41
0
  0
VERTEX
  8
0
 10
5.1511
 20
0.995226
 30
0.0
 40
0
 41
0
  0
VERTEX
  8
0
 10
5.1511
 20
0.250651
 30
0.0
 40
0
 41
0
  0
VERTEX
  8
0
 10
5.22689
 20
0.185167
 30
0.0
 40
0
 41
0
  0
VERTEX
  8
0
 10
5.22689
 20
0.117133
 30
0.0
 40
0
 41
0
  0
VERTEX
  8
0
 10
5.59397
 20
0.117133
 30
0.0
 40
0
 41
0
  0
VERTEX
  8
0
 10
5.66401
 20
0.0471463
 30
0.0
 40
0
 41
0
  0
VERTEX
  8
0
 10
5.76568
 20
0.0471463
 30
0.0
 40
0
 41
0
  0
VERTEX
  8
0
 10
5.9171
 20
0.197808
 30
0.0
 40
0
 41
0
  0
VERTEX
  8
0
 10
5.9171
 20
0.463596
 30
0.0
 40
0
 41
0
  0
VERTEX
  8
0
 10
5.85975
 20
0.520833
 30
0.0
 40
0
 41
0
  0
VERTEX
  8
0
 10
5.9171
 20
0.578125
 30
0.0
 40
0
 41
0
  0
VERTEX
  8
0
 10
5.9171
 20
0.643229
 30
0.0
 40
0
 41
0
  0
VERTEX
  8
0
 10
5.92958
 20
0.643229
 30
0.0
 40
0
 41
0
  0
SEQEND
 8
0
  0
POLYLINE
  8
0
 62
     3
 66
     1
 10
0
 20
0
 30
0.0
 70
     1
 40
0
 41
0
  0
VERTEX
  8
0
 10
5.72461
 20
0.104655
 30
0.0
 40
0
 41
0
  0
VERTEX
  8
0
 10
5.72461
 20
0.117133
 30
0.0
 40
0
 41
0
  0
VERTEX
  8
0
 10
5.72781
 20
0.117133
 30
0.0
 40
0
 41
0
  0
VERTEX
  8
0
 10
5.83897
 20
0.229329
 30
0.0
 40
0
 41
0
  0
VERTEX
  8
0
 10
5.83897
 20
0.432617
 30
0.0
 40
0
 41
0
  0
VERTEX
  8
0
 10
5.81776
 20
0.454699
 30
0.0
 40
0
 41
0
  0
VERTEX
  8
0
 10
5.82676
 20
0.463379
 30
0.0
 40
0
 41
0
  0
VERTEX
  8
0
 10
5.78733
 20
0.504503
 30
0.0
 40
0
 41
0
  0
VERTEX
  8
0
 10
5.74621
 20
0.465061
 30
0.0
 40
0
 41
0
  0
VERTEX
  8
0
 10
5.78564
 20
0.423936
 30
0.0
 40
0
 41
0
  0
VERTEX
  8
0
 10
5.79471
 20
0.432563
 30
0.0
 40
0
 41
0
  0
VERTEX
  8
0
 10
5.80697
 20
0.41976
 30
0.0
 40
0
 41
0
  0
VERTEX
  8
0
 10
5.80697
 20
0.242458
 30
0.0
 40
0
 41
0
  0
VERTEX
  8
0
 10
5.72461
 20
0.159289
 30
0.0
 40
0
 41
0
  0
VERTEX
  8
0
 10
5.72461
 20
0.161621
 30
0.0
 40
0
 41
0
  0
VERTEX
  8
0
 10
5.66764
 20
0.161621
 30
0.0
 40
0
 41
0
  0
VERTEX
  8
0
 10
5.66764
 20
0.104655
 30
0.0
 40
0
 41
0
  0
VERTEX
  8
0
 10
5.72461
 20
0.104655
 30
0.0
 40
0
 41
0
  0
SEQEND
 8
0
  0
POLYLINE
  8
0
 62
     3
 66
     1
 10
0
 20
0
 30
0.0
 70
     1
 40
0
 41
0
  0
VERTEX
  8
0
 10
5.73215
 20
0.920085
 30
0.0
 40
0
 41
0
  0
VERTEX
  8
0
 10
5.22672
 20
0.920085
 30
0.0
 40
0
 41
0
  0
VERTEX
  8
0
 10
5.22672
 20
0.5829
 30
0.0
 40
0
 41
0
  0
VERTEX
  8
0
 10
5.39931
 20
0.5829
 30
0.0
 40
0
 41
0
  0
VERTEX
  8
0
 10
5.39931
 20
0.570367
 30
0.0
 40
0
 41
0
  0
VERTEX
  8
0
 10
5.45632
 20
0.570367
 30
0.0
 40
0
 41
0
  0
VERTEX
  8
0
 10
5.45632
 20
0.627388
 30
0.0
 40
0
 41
0
  0
VERTEX
  8
0
 10
5.39931
 20
0.627388
 30
0.0
 40
0
 41
0
  0
VERTEX
  8
0
 10
5.39931
 20
0.614854
 30
0.0
 40
0
 41
0
  0
VERTEX
  8
0
 10
5.25868
 20
0.614854
 30
0.0
 40
0
 41
0
  0
VERTEX
  8
0
 10
5.25868
 20
0.888075
 30
0.0
 40
0
 41
0
  0
VERTEX
  8
0
 10
5.71886
 20
0.888075
 30
0.0
 40
0
 41
0
  0
VERTEX
  8
0
 10
5.80697
 20
0.799968
 30
0.0
 40
0
 41
0
  0
VERTEX
  8
0
 10
5.80697
 20
0.621962
 30
0.0
 40
0
 41
0
  0
VERTEX
  8
0
 10
5.71647
 20
0.537164
 30
0.0
 40
0
 41
0
  0
VERTEX
  8
0
 10
5.54915
 20
0.536838
 30
0.0
 40
0
 41
0
  0
VERTEX
  8
0
 10
5.46094
 20
0.458822
 30
0.0
 40
0
 41
0
  0
VERTEX
  8
0
 10
5.30718
 20
0.458822
 30
0.0
 40
0
 41
0
  0
VERTEX
  8
0
 10
5.30718
 20
0.196451
 30
0.0
 40
0
 41
0
  0
VERTEX
  8
0
 10
5.70101
 20
0.202692
 30
0.0
 40
0
 41
0
  0
VERTEX
  8
0
 10
5.76742
 20
0.269043
 30
0.0
 40
0
 41
0
  0
VERTEX
  8
0
 10
5.76937
 20
0.390354
 30
0.0
 40
0
 41
0
  0
VERTEX
  8
0
 10
5.7009
 20
0.458822
 30
0.0
 40
0
 41
0
  0
VERTEX
  8
0
 10
5.60444
 20
0.458822
 30
0.0
 40
0
 41
0
  0
VERTEX
  8
0
 10
5.60444
 20
0.4713
 30
0.0
 40
0
 41
0
  0
VERTEX
  8
0
 10
5.54753
 20
0.4713
 30
0.0
 40
0
 41
0
  0
VERTEX
  8
0
 10
5.54753
 20
0.414279
 30
0.0
 40
0
 41
0
  0
VERTEX
  8
0
 10
5.60444
 20
0.414279
 30
0.0
 40
0
 41
0
  0
VERTEX
  8
0
 10
5.60444
 20
0.426867
 30
0.0
 40
0
 41
0
  0
VERTEX
  8
0
 10
5.68772
 20
0.426867
 30
0.0
 40
0
 41
0
  0
VERTEX
  8
0
 10
5.73719
 20
0.377279
 30
0.0
 40
0
 41
0
  0
VERTEX
  8
0
 10
5.73568
 20
0.282553
 30
0.0
 40
0
 41
0
  0
VERTEX
  8
0
 10
5.68756
 20
0.234429
 30
0.0
 40
0
 41
0
  0
VERTEX
  8
0
 10
5.33919
 20
0.22895
 30
0.0
 40
0
 41
0
  0
VERTEX
  8
0
 10
5.33919
 20
0.426867
 30
0.0
 40
0
 41
0
  0
VERTEX
  8
0
 10
5.47304
 20
0.426867
 30
0.0
 40
0
 41
0
  0
VERTEX
  8
0
 10
5.56131
 20
0.504883
 30
0.0
 40
0
 41
0
  0
VERTEX
  8
0
 10
5.72911
 20
0.505208
 30
0.0
 40
0
 41
0
  0
VERTEX
  8
0
 10
5.83897
 20
0.608128
 30
0.0
 40
0
 41
0
  0
VERTEX
  8
0
 10
5.83897
 20
0.813206
 30
0.0
 40
0
 41
0
  0
VERTEX
  8
0
 10
5.73215
 20
0.920085
 30
0.0
 40
0
 41
0
  0
SEQEND
 8
0
  0
POLYLINE
  8
0
 62
     3
 66
     1
 10
0
 20
0
 30
0.0
 70
     1
 40
0
 41
0
  0
VERTEX
  8
0
 10
5.25868
 20
0.321343
 30
0.0
 40
0
 41
0
  0
VERTEX
  8
0
 10
5.25868
 20
0.50434
 30
0.0
 40
0
 41
0
  0
VERTEX
  8
0
 10
5.45344
 20
0.50434
 30
0.0
 40
0
 41
0
  0
VERTEX
  8
0
 10
5.53907
 20
0.5829
 30
0.0
 40
0
 41
0
  0
VERTEX
  8
0
 10
5.70063
 20
0.5829
 30
0.0
 40
0
 41
0
  0
VERTEX
  8
0
 10
5.76937
 20
0.647894
 30
0.0
 40
0
 41
0
  0
VERTEX
  8
0
 10
5.76937
 20
0.770671
 30
0.0
 40
0
 41
0
  0
VERTEX
  8
0
 10
5.7009
 20
0.839139
 30
0.0
 40
0
 41
0
  0
VERTEX
  8
0
 10
5.30718
 20
0.839139
 30
0.0
 40
0
 41
0
  0
VERTEX
  8
0
 10
5.30718
 20
0.704969
 30
0.0
 40
0
 41
0
  0
VERTEX
  8
0
 10
5.29465
 20
0.704969
 30
0.0
 40
0
 41
0
  0
VERTEX
  8
0
 10
5.29465
 20
0.647894
 30
0.0
 40
0
 41
0
  0
VERTEX
  8
0
 10
5.35161
 20
0.647894
 30
0.0
 40
0
 41
0
  0
VERTEX
  8
0
 10
5.35161
 20
0.704969
 30
0.0
 40
0
 41
0
  0
VERTEX
  8
0
 10
5.33919
 20
0.704969
 30
0.0
 40
0
 41
0
  0
VERTEX
  8
0
 10
5.33919
 20
0.807129
 30
0.0
 40
0
 41
0
  0
VERTEX
  8
0
 10
5.68772
 20
0.807129
 30
0.0
 40
0
 41
0
  0
VERTEX
  8
0
 10
5.73742
 20
0.757433
 30
0.0
 40
0
 41
0
  0
VERTEX
  8
0
 10
5.73742
 20
0.661675
 30
0.0
 40
0
 41
0
  0
VERTEX
  8
0
 10
5.68793
 20
0.614854
 30
0.0
 40
0
 41
0
  0
VERTEX
  8
0
 10
5.52664
 20
0.614854
 30
0.0
 40
0
 41
0
  0
VERTEX
  8
0
 10
5.44097
 20
0.536296
 30
0.0
 40
0
 41
0
  0
VERTEX
  8
0
 10
5.22672
 20
0.536296
 30
0.0
 40
0
 41
0
  0
VERTEX
  8
0
 10
5.22672
 20
0.321343
 30
0.0
 40
0
 41
0
  0
VERTEX
  8
0
 10
5.21419
 20
0.321343
 30
0.0
 40
0
 41
0
  0
VERTEX
  8
0
 10
5.21419
 20
0.264378
 30
0.0
 40
0
 41
0
  0
VERTEX
  8
0
 10
5.27121
 20
0.264378
 30
0.0
 40
0
 41
0
  0
VERTEX
  8
0
 10
5.27121
 20
0.321343
 30
0.0
 40
0
 41
0
  0
VERTEX
  8
0
 10
5.25868
 20
0.321343
 30
0.0
 40
0
 41
0
  0
SEQEND
 8
0
  0
POLYLINE
  8
0
 62
     3
 66
     1
 10
0
 20
0
 30
0.0
 70
     1
 40
0
 41
0
  0
VERTEX
  8
0
 10
5.87256
 20
0.737793
 30
0.0
 40
0
 41
0
  0
VERTEX
  8
0
 10
5.92958
 20
0.737793
 30
0.0
 40
0
 41
0
  0
VERTEX
  8
0
 10
5.92958
 20
0.79476
 30
0.0
 40
0
 41
0
  0
VERTEX
  8
0
 10
5.9171
 20
0.79476
 30
0.0
 40
0
 41
0
  0
VERTEX
  8
0
 10
5.9171
 20
0.843858
 30
0.0
 40
0
 41
0
  0
VERTEX
  8
0
 10
5.76574
 20
0.995226
 30
0.0
 40
0
 41
0
  0
VERTEX
  8
0
 10
5.41417
 20
0.995226
 30
0.0
 40
0
 41
0
  0
VERTEX
  8
0
 10
5.41417
 20
1.0077
 30
0.0
 40
0
 41
0
  0
VERTEX
  8
0
 10
5.35721
 20
1.0077
 30
0.0
 40
0
 41
0
  0
VERTEX
  8
0
 10
5.35721
 20
0.950738
 30
0.0
 40
0
 41
0
  0
VERTEX
  8
0
 10
5.41417
 20
0.950738
 30
0.0
 40
0
 41
0
  0
VERTEX
  8
0
 10
5.41417
 20
0.963217
 30
0.0
 40
0
 41
0
  0
VERTEX
  8
0
 10
5.7525
 20
0.963217
 30
0.0
 40
0
 41
0
  0
VERTEX
  8
0
 10
5.8851
 20
0.830621
 30
0.0
 40
0
 41
0
  0
VERTEX
  8
0
 10
5.8851
 20
0.79476
 30
0.0
 40
0
 41
0
  0
VERTEX
  8
0
 10
5.87256
 20
0.79476
 30
0.0
 40
0
 41
0
  0
VERTEX
  8
0
 10
5.87256
 20
0.737793
 30
0.0
 40
0
 41
0
  0
SEQEND
 8
0
  0
POLYLINE
  8
0
 62
     3
 66
     1
 10
0
 20
0
 30
0.0
 70
     1
 40
0
 41
0
  0
VERTEX
  8
0
 10
5.19558
 20
0.183322
 30
0.0
 40
0
 41
0
  0
VERTEX
  8
0
 10
5.13861
 20
0.183322
 30
0.0
 40
0
 41
0
  0
VERTEX
  8
0
 10
5.13861
 20
0.126356
 30
0.0
 40
0
 41
0
  0
VERTEX
  8
0
 10
5.1511
 20
0.126356
 30
0.0
 40
0
 41
0
  0
VERTEX
  8
0
 10
5.1511
 20
0.0464953
 30
0.0
 40
0
 41
0
  0
VERTEX
  8
0
 10
5.52115
 20
0.0464953
 30
0.0
 40
0
 41
0
  0
VERTEX
  8
0
 10
5.52115
 20
0.0339626
 30
0.0
 40
0
 41
0
  0
VERTEX
  8
0
 10
5.57818
 20
0.0339626
 30
0.0
 40
0
 41
0
  0
VERTEX
  8
0
 10
5.57818
 20
0.0909831
 30
0.0
 40
0
 41
0
  0
VERTEX
  8
0
 10
5.52115
 20
0.0909831
 30
0.0
 40
0
 41
0
  0
VERTEX
  8
0
 10
5.52115
 20
0.0784506
 30
0.0
 40
0
 41
0
  0
VERTEX
  8
0
 10
5.18306
 20
0.0784506
 30
0.0
 40
0
 41
0
  0
VERTEX
  8
0
 10
5.18306
 20
0.126356
 30
0.0
 40
0
 41
0
  0
VERTEX
  8
0
 10
5.19558
 20
0.126356
 30
0.0
 40
0
 41
0
  0
VERTEX
  8
0
 10
5.19558
 20
0.183322
 30
0.0
 40
0
 41
0
  0
SEQEND
 8
0
  0
POLYLINE
  8
0
 62
     3
 66
     1
 10
0
 20
0
 30
0.0
 70
     1
 40
0
 41
0
  0
VERTEX
  8
0
 10
4.9241
 20
0.662056
 30
0.0
 40
0
 41
0
  0
VERTEX
  8
0
 10
4.93664
 20
0.662056
 30
0.0
 40
0
 41
0
  0
VERTEX
  8
0
 10
4.93664
 20
0.719075
 30
0.0
 40
0
 41
0
  0
VERTEX
  8
0
 10
4.87967
 20
0.719075
 30
0.0
 40
0
 41
0
  0
VERTEX
  8
0
 10
4.87967
 20
0.662056
 30
0.0
 40
0
 41
0
  0
VERTEX
  8
0
 10
4.89214
 20
0.662056
 30
0.0
 40
0
 41
0
  0
VERTEX
  8
0
 10
4.89214
 20
0.0753039
 30
0.0
 40
0
 41
0
  0
VERTEX
  8
0
 10
4.76964
 20
0.0753039
 30
0.0
 40
0
 41
0
  0
VERTEX
  8
0
 10
4.76964
 20
0.358453
 30
0.0
 40
0
 41
0
  0
VERTEX
  8
0
 10
4.57101
 20
0.358453
 30
0.0
 40
0
 41
0
  0
VERTEX
  8
0
 10
4.57101
 20
0.370985
 30
0.0
 40
0
 41
0
  0
VERTEX
  8
0
 10
4.51406
 20
0.370985
 30
0.0
 40
0
 41
0
  0
VERTEX
  8
0
 10
4.51406
 20
0.313965
 30
0.0
 40
0
 41
0
  0
VERTEX
  8
0
 10
4.57101
 20
0.313965
 30
0.0
 40
0
 41
0
  0
VERTEX
  8
0
 10
4.57101
 20
0.326497
 30
0.0
 40
0
 41
0
  0
VERTEX
  8
0
 10
4.73768
 20
0.326497
 30
0.0
 40
0
 41
0
  0
VERTEX
  8
0
 10
4.73768
 20
0.0432943
 30
0.0
 40
0
 41
0
  0
VERTEX
  8
0
 10
4.9241
 20
0.0432943
 30
0.0
 40
0
 41
0
  0
VERTEX
  8
0
 10
4.9241
 20
0.662056
 30
0.0
 40
0
 41
0
  0
SEQEND
 8
0
  0
POLYLINE
  8
0
 62
     3
 66
     1
 10
0
 20
0
 30
0.0
 70
     1
 40
0
 41
0
  0
VERTEX
  8
0
 10
4.65018
 20
0.928765
 30
0.0
 40
0
 41
0
  0
VERTEX
  8
0
 10
4.59315
 20
0.928765
 30
0.0
 40
0
 41
0
  0
VERTEX
  8
0
 10
4.59315
 20
0.871744
 30
0.0
 40
0
 41
0
  0
VERTEX
  8
0
 10
4.65018
 20
0.871744
 30
0.0
 40
0
 41
0
  0
VERTEX
  8
0
 10
4.65018
 20
0.884278
 30
0.0
 40
0
 41
0
  0
VERTEX
  8
0
 10
4.6856
 20
0.884278
 30
0.0
 40
0
 41
0
  0
VERTEX
  8
0
 10
4.81332
 20
0.756565
 30
0.0
 40
0
 41
0
  0
VERTEX
  8
0
 10
4.81332
 20
0.542751
 30
0.0
 40
0
 41
0
  0
VERTEX
  8
0
 10
4.80078
 20
0.542751
 30
0.0
 40
0
 41
0
  0
VERTEX
  8
0
 10
4.80078
 20
0.485786
 30
0.0
 40
0
 41
0
  0
VERTEX
  8
0
 10
4.85786
 20
0.485786
 30
0.0
 40
0
 41
0
  0
VERTEX
  8
0
 10
4.85786
 20
0.542751
 30
0.0
 40
0
 41
0
  0
VERTEX
  8
0
 10
4.84526
 20
0.542751
 30
0.0
 40
0
 41
0
  0
VERTEX
  8
0
 10
4.84526
 20
0.769803
 30
0.0
 40
0
 41
0
  0
VERTEX
  8
0
 10
4.69883
 20
0.916233
 30
0.0
 40
0
 41
0
  0
VERTEX
  8
0
 10
4.65018
 20
0.916233
 30
0.0
 40
0
 41
0
  0
VERTEX
  8
0
 10
4.65018
 20
0.928765
 30
0.0
 40
0
 41
0
  0
SEQEND
 8
0
  0
POLYLINE
  8
0
 62
     3
 66
     1
 10
0
 20
0
 30
0.0
 70
     1
 40
0
 41
0
  0
VERTEX
  8
0
 10
4.36176
 20
0.916233
 30
0.0
 40
0
 41
0
  0
VERTEX
  8
0
 10
4.20856
 20
0.763021
 30
0.0
 40
0
 41
0
  0
VERTEX
  8
0
 10
4.20856
 20
0.406412
 30
0.0
 40
0
 41
0
  0
VERTEX
  8
0
 10
4.36263
 20
0.406412
 30
0.0
 40
0
 41
0
  0
VERTEX
  8
0
 10
4.36263
 20
0.393935
 30
0.0
 40
0
 41
0
  0
VERTEX
  8
0
 10
4.4196
 20
0.393935
 30
0.0
 40
0
 41
0
  0
VERTEX
  8
0
 10
4.4196
 20
0.4509
 30
0.0
 40
0
 41
0
  0
VERTEX
  8
0
 10
4.36263
 20
0.4509
 30
0.0
 40
0
 41
0
  0
VERTEX
  8
0
 10
4.36263
 20
0.438368
 30
0.0
 40
0
 41
0
  0
VERTEX
  8
0
 10
4.2405
 20
0.438368
 30
0.0
 40
0
 41
0
  0
VERTEX
  8
0
 10
4.2405
 20
0.749838
 30
0.0
 40
0
 41
0
  0
VERTEX
  8
0
 10
4.375
 20
0.884278
 30
0.0
 40
0
 41
0
  0
VERTEX
  8
0
 10
4.50336
 20
0.884278
 30
0.0
 40
0
 41
0
  0
VERTEX
  8
0
 10
4.58567
 20
0.803331
 30
0.0
 40
0
 41
0
  0
VERTEX
  8
0
 10
4.64665
 20
0.803331
 30
0.0
 40
0
 41
0
  0
VERTEX
  8
0
 10
4.73611
 20
0.713813
 30
0.0
 40
0
 41
0
  0
VERTEX
  8
0
 10
4.73611
 20
0.514757
 30
0.0
 40
0
 41
0
  0
VERTEX
  8
0
 10
4.31961
 20
0.514757
 30
0.0
 40
0
 41
0
  0
VERTEX
  8
0
 10
4.31961
 20
0.713813
 30
0.0
 40
0
 41
0
  0
VERTEX
  8
0
 10
4.40907
 20
0.803331
 30
0.0
 40
0
 41
0
  0
VERTEX
  8
0
 10
4.45925
 20
0.803331
 30
0.0
 40
0
 41
0
  0
VERTEX
  8
0
 10
4.45925
 20
0.790853
 30
0.0
 40
0
 41
0
  0
VERTEX
  8
0
 10
4.51628
 20
0.790853
 30
0.0
 40
0
 41
0
  0
VERTEX
  8
0
 10
4.51628
 20
0.847819
 30
0.0
 40
0
 41
0
  0
VERTEX
  8
0
 10
4.45925
 20
0.847819
 30
0.0
 40
0
 41
0
  0
VERTEX
  8
0
 10
4.45925
 20
0.835286
 30
0.0
 40
0
 41
0
  0
VERTEX
  8
0
 10
4.39578
 20
0.835286
 30
0.0
 40
0
 41
0
  0
VERTEX
  8
0
 10
4.28765
 20
0.727106
 30
0.0
 40
0
 41
0
  0
VERTEX
  8
0
 10
4.28765
 20
0.482801
 30
0.0
 40
0
 41
0
  0
VERTEX
  8
0
 10
4.76807
 20
0.482801
 30
0.0
 40
0
 41
0
  0
VERTEX
  8
0
 10
4.76807
 20
0.727106
 30
0.0
 40
0
 41
0
  0
VERTEX
  8
0
 10
4.65989
 20
0.835286
 30
0.0
 40
0
 41
0
  0
VERTEX
  8
0
 10
4.59879
 20
0.835286
 30
0.0
 40
0
 41
0
  0
VERTEX
  8
0
 10
4.5165
 20
0.916233
 30
0.0
 40
0
 41
0
  0
VERTEX
  8
0
 10
4.36176
 20
0.916233
 30
0.0
 40
0
 41
0
  0
SEQEND
 8
0
  0
POLYLINE
  8
0
 62
     3
 66
     1
 10
0
 20
0
 30
0.0
 70
     1
 40
0
 41
0
  0
VERTEX
  8
0
 10
4.20856
 20
0.29975
 30
0.0
 40
0
 41
0
  0
VERTEX
  8
0
 10
4.20856
 20
0.181369
 30
0.0
 40
0
 41
0
  0
VERTEX
  8
0
 10
4.19601
 20
0.181369
 30
0.0
 40
0
 41
0
  0
VERTEX
  8
0
 10
4.19601
 20
0.124403
 30
0.0
 40
0
 41
0
  0
VERTEX
  8
0
 10
4.25304
 20
0.124403
 30
0.0
 40
0
 41
0
  0
VERTEX
  8
0
 10
4.25304
 20
0.181369
 30
0.0
 40
0
 41
0
  0
VERTEX
  8
0
 10
4.2405
 20
0.181369
 30
0.0
 40
0
 41
0
  0
VERTEX
  8
0
 10
4.2405
 20
0.29975
 30
0.0
 40
0
 41
0
  0
VERTEX
  8
0
 10
4.25304
 20
0.29975
 30
0.0
 40
0
 41
0
  0
VERTEX
  8
0
 10
4.25304
 20
0.356717
 30
0.0
 40
0
 41
0
  0
VERTEX
  8
0
 10
4.19601
 20
0.356717
 30
0.0
 40
0
 41
0
  0
VERTEX
  8
0
 10
4.19601
 20
0.29975
 30
0.0
 40
0
 41
0
  0
VERTEX
  8
0
 10
4.20856
 20
0.29975
 30
0.0
 40
0
 41
0
  0
SEQEND
 8
0
  0
POLYLINE
  8
0
 62
     3
 66
     1
 10
0
 20
0
 30
0.0
 70
     1
 40
0
 41
0
  0
VERTEX
  8
0
 10
4.87967
 20
0.759224
 30
0.0
 40
0
 41
0
  0
VERTEX
  8
0
 10
4.93664
 20
0.759224
 30
0.0
 40
0
 41
0
  0
VERTEX
  8
0
 10
4.93664
 20
0.816243
 30
0.0
 40
0
 41
0
  0
VERTEX
  8
0
 10
4.90424
 20
0.816243
 30
0.0
 40
0
 41
0
  0
VERTEX
  8
0
 10
4.72364
 20
0.993381
 30
0.0
 40
0
 41
0
  0
VERTEX
  8
0
 10
4.33106
 20
0.991536
 30
0.0
 40
0
 41
0
  0
VERTEX
  8
0
 10
4.13232
 20
0.794487
 30
0.0
 40
0
 41
0
  0
VERTEX
  8
0
 10
4.13232
 20
0.0432943
 30
0.0
 40
0
 41
0
  0
VERTEX
  8
0
 10
4.31885
 20
0.0432943
 30
0.0
 40
0
 41
0
  0
VERTEX
  8
0
 10
4.31885
 20
0.326497
 30
0.0
 40
0
 41
0
  0
VERTEX
  8
0
 10
4.44618
 20
0.326497
 30
0.0
 40
0
 41
0
  0
VERTEX
  8
0
 10
4.53212
 20
0.406412
 30
0.0
 40
0
 41
0
  0
VERTEX
  8
0
 10
4.81332
 20
0.406412
 30
0.0
 40
0
 41
0
  0
VERTEX
  8
0
 10
4.81332
 20
0.181369
 30
0.0
 40
0
 41
0
  0
VERTEX
  8
0
 10
4.80078
 20
0.181369
 30
0.0
 40
0
 41
0
  0
VERTEX
  8
0
 10
4.80078
 20
0.124403
 30
0.0
 40
0
 41
0
  0
VERTEX
  8
0
 10
4.85786
 20
0.124403
 30
0.0
 40
0
 41
0
  0
VERTEX
  8
0
 10
4.85786
 20
0.181369
 30
0.0
 40
0
 41
0
  0
VERTEX
  8
0
 10
4.84526
 20
0.181369
 30
0.0
 40
0
 41
0
  0
VERTEX
  8
0
 10
4.84526
 20
0.438368
 30
0.0
 40
0
 41
0
  0
VERTEX
  8
0
 10
4.51953
 20
0.438368
 30
0.0
 40
0
 41
0
  0
VERTEX
  8
0
 10
4.4336
 20
0.358453
 30
0.0
 40
0
 41
0
  0
VERTEX
  8
0
 10
4.28689
 20
0.358453
 30
0.0
 40
0
 41
0
  0
VERTEX
  8
0
 10
4.28689
 20
0.0753039
 30
0.0
 40
0
 41
0
  0
VERTEX
  8
0
 10
4.16428
 20
0.0753039
 30
0.0
 40
0
 41
0
  0
VERTEX
  8
0
 10
4.16428
 20
0.781142
 30
0.0
 40
0
 41
0
  0
VERTEX
  8
0
 10
4.34424
 20
0.959636
 30
0.0
 40
0
 41
0
  0
VERTEX
  8
0
 10
4.71061
 20
0.961372
 30
0.0
 40
0
 41
0
  0
VERTEX
  8
0
 10
4.87967
 20
0.795628
 30
0.0
 40
0
 41
0
  0
VERTEX
  8
0
 10
4.87967
 20
0.759224
 30
0.0
 40
0
 41
0
  0
SEQEND
 8
0
  0
POLYLINE
  8
0
 62
     3
 66
     1
 10
0
 20
0
 30
0.0
 70
     1
 40
0
 41
0
  0
VERTEX
  8
0
 10
3.59543
 20
0.10357
 30
0.0
 40
0
 41
0
  0
VERTEX
  8
0
 10
3.59543
 20
0.116102
 30
0.0
 40
0
 41
0
  0
VERTEX
  8
0
 10
3.81999
 20
0.116102
 30
0.0
 40
0
 41
0
  0
VERTEX
  8
0
 10
3.81999
 20
0.10357
 30
0.0
 40
0
 41
0
  0
VERTEX
  8
0
 10
3.87701
 20
0.10357
 30
0.0
 40
0
 41
0
  0
VERTEX
  8
0
 10
3.87701
 20
0.16059
 30
0.0
 40
0
 41
0
  0
VERTEX
  8
0
 10
3.81999
 20
0.16059
 30
0.0
 40
0
 41
0
  0
VERTEX
  8
0
 10
3.81999
 20
0.148058
 30
0.0
 40
0
 41
0
  0
VERTEX
  8
0
 10
3.59543
 20
0.148058
 30
0.0
 40
0
 41
0
  0
VERTEX
  8
0
 10
3.59543
 20
0.16059
 30
0.0
 40
0
 41
0
  0
VERTEX
  8
0
 10
3.53847
 20
0.16059
 30
0.0
 40
0
 41
0
  0
VERTEX
  8
0
 10
3.53847
 20
0.10357
 30
0.0
 40
0
 41
0
  0
VERTEX
  8
0
 10
3.59543
 20
0.10357
 30
0.0
 40
0
 41
0
  0
SEQEND
 8
0
  0
POLYLINE
  8
0
 62
     3
 66
     1
 10
0
 20
0
 30
0.0
 70
     1
 40
0
 41
0
  0
VERTEX
  8
0
 10
3.17936
 20
0.0446506
 30
0.0
 40
0
 41
0
  0
VERTEX
  8
0
 10
3.94461
 20
0.0446506
 30
0.0
 40
0
 41
0
  0
VERTEX
  8
0
 10
3.94461
 20
0.232801
 30
0.0
 40
0
 41
0
  0
VERTEX
  8
0
 10
3.52317
 20
0.232801
 30
0.0
 40
0
 41
0
  0
VERTEX
  8
0
 10
3.44319
 20
0.148058
 30
0.0
 40
0
 41
0
  0
VERTEX
  8
0
 10
3.28564
 20
0.148058
 30
0.0
 40
0
 41
0
  0
VERTEX
  8
0
 10
3.28564
 20
0.374024
 30
0.0
 40
0
 41
0
  0
VERTEX
  8
0
 10
3.29812
 20
0.374024
 30
0.0
 40
0
 41
0
  0
VERTEX
  8
0
 10
3.29812
 20
0.43099
 30
0.0
 40
0
 41
0
  0
VERTEX
  8
0
 10
3.24115
 20
0.43099
 30
0.0
 40
0
 41
0
  0
VERTEX
  8
0
 10
3.24115
 20
0.374024
 30
0.0
 40
0
 41
0
  0
VERTEX
  8
0
 10
3.25369
 20
0.374024
 30
0.0
 40
0
 41
0
  0
VERTEX
  8
0
 10
3.25369
 20
0.116102
 30
0.0
 40
0
 41
0
  0
VERTEX
  8
0
 10
3.45697
 20
0.116102
 30
0.0
 40
0
 41
0
  0
VERTEX
  8
0
 10
3.53694
 20
0.200738
 30
0.0
 40
0
 41
0
  0
VERTEX
  8
0
 10
3.9126
 20
0.200738
 30
0.0
 40
0
 41
0
  0
VERTEX
  8
0
 10
3.9126
 20
0.0766601
 30
0.0
 40
0
 41
0
  0
VERTEX
  8
0
 10
3.21137
 20
0.0766601
 30
0.0
 40
0
 41
0
  0
VERTEX
  8
0
 10
3.21137
 20
0.427518
 30
0.0
 40
0
 41
0
  0
VERTEX
  8
0
 10
3.28808
 20
0.503635
 30
0.0
 40
0
 41
0
  0
VERTEX
  8
0
 10
3.28808
 20
0.871311
 30
0.0
 40
0
 41
0
  0
VERTEX
  8
0
 10
3.30057
 20
0.871311
 30
0.0
 40
0
 41
0
  0
VERTEX
  8
0
 10
3.30057
 20
0.928276
 30
0.0
 40
0
 41
0
  0
VERTEX
  8
0
 10
3.2436
 20
0.928276
 30
0.0
 40
0
 41
0
  0
VERTEX
  8
0
 10
3.2436
 20
0.871311
 30
0.0
 40
0
 41
0
  0
VERTEX
  8
0
 10
3.25612
 20
0.871311
 30
0.0
 40
0
 41
0
  0
VERTEX
  8
0
 10
3.25612
 20
0.516982
 30
0.0
 40
0
 41
0
  0
VERTEX
  8
0
 10
3.17936
 20
0.44081
 30
0.0
 40
0
 41
0
  0
VERTEX
  8
0
 10
3.17936
 20
0.0446506
 30
0.0
 40
0
 41
0
  0
SEQEND
 8
0
  0
POLYLINE
  8
0
 62
     3
 66
     1
 10
0
 20
0
 30
0.0
 70
     1
 40
0
 41
0
  0
VERTEX
  8
0
 10
3.39312
 20
0.18826
 30
0.0
 40
0
 41
0
  0
VERTEX
  8
0
 10
3.45008
 20
0.18826
 30
0.0
 40
0
 41
0
  0
VERTEX
  8
0
 10
3.45008
 20
0.245281
 30
0.0
 40
0
 41
0
  0
VERTEX
  8
0
 10
3.39312
 20
0.245281
 30
0.0
 40
0
 41
0
  0
VERTEX
  8
0
 10
3.39312
 20
0.232801
 30
0.0
 40
0
 41
0
  0
VERTEX
  8
0
 10
3.36664
 20
0.232801
 30
0.0
 40
0
 41
0
  0
VERTEX
  8
0
 10
3.36664
 20
0.993381
 30
0.0
 40
0
 41
0
  0
VERTEX
  8
0
 10
3.1786
 20
0.993381
 30
0.0
 40
0
 41
0
  0
VERTEX
  8
0
 10
3.1786
 20
0.568414
 30
0.0
 40
0
 41
0
  0
VERTEX
  8
0
 10
3.16613
 20
0.568414
 30
0.0
 40
0
 41
0
  0
VERTEX
  8
0
 10
3.16613
 20
0.511447
 30
0.0
 40
0
 41
0
  0
VERTEX
  8
0
 10
3.22314
 20
0.511447
 30
0.0
 40
0
 41
0
  0
VERTEX
  8
0
 10
3.22314
 20
0.568414
 30
0.0
 40
0
 41
0
  0
VERTEX
  8
0
 10
3.21061
 20
0.568414
 30
0.0
 40
0
 41
0
  0
VERTEX
  8
0
 10
3.21061
 20
0.961426
 30
0.0
 40
0
 41
0
  0
VERTEX
  8
0
 10
3.33475
 20
0.961426
 30
0.0
 40
0
 41
0
  0
VERTEX
  8
0
 10
3.33475
 20
0.200738
 30
0.0
 40
0
 41
0
  0
VERTEX
  8
0
 10
3.39312
 20
0.200738
 30
0.0
 40
0
 41
0
  0
VERTEX
  8
0
 10
3.39312
 20
0.18826
 30
0.0
 40
0
 41
0
  0
SEQEND
 8
0
  0
POLYLINE
  8
0
 62
     3
 66
     1
 10
0
 20
0
 30
0.0
 70
     1
 40
0
 41
0
  0
VERTEX
  8
0
 10
2.70947
 20
0.480035
 30
0.0
 40
0
 41
0
  0
VERTEX
  8
0
 10
2.99978
 20
0.77029
 30
0.0
 40
0
 41
0
  0
VERTEX
  8
0
 10
2.99978
 20
0.993381
 30
0.0
 40
0
 41
0
  0
VERTEX
  8
0
 10
2.81304
 20
0.993381
 30
0.0
 40
0
 41
0
  0
VERTEX
  8
0
 10
2.81304
 20
0.847006
 30
0.0
 40
0
 41
0
  0
VERTEX
  8
0
 10
2.78521
 20
0.819228
 30
0.0
 40
0
 41
0
  0
VERTEX
  8
0
 10
2.77636
 20
0.828017
 30
0.0
 40
0
 41
0
  0
VERTEX
  8
0
 10
2.73606
 20
0.787761
 30
0.0
 40
0
 41
0
  0
VERTEX
  8
0
 10
2.77636
 20
0.74745
 30
0.0
 40
0
 41
0
  0
VERTEX
  8
0
 10
2.81668
 20
0.787761
 30
0.0
 40
0
 41
0
  0
VERTEX
  8
0
 10
2.80778
 20
0.796604
 30
0.0
 40
0
 41
0
  0
VERTEX
  8
0
 10
2.845
 20
0.833768
 30
0.0
 40
0
 41
0
  0
VERTEX
  8
0
 10
2.845
 20
0.961426
 30
0.0
 40
0
 41
0
  0
VERTEX
  8
0
 10
2.96783
 20
0.961426
 30
0.0
 40
0
 41
0
  0
VERTEX
  8
0
 10
2.96783
 20
0.783583
 30
0.0
 40
0
 41
0
  0
VERTEX
  8
0
 10
2.67751
 20
0.493272
 30
0.0
 40
0
 41
0
  0
VERTEX
  8
0
 10
2.67751
 20
0.360026
 30
0.0
 40
0
 41
0
  0
VERTEX
  8
0
 10
2.60215
 20
0.284668
 30
0.0
 40
0
 41
0
  0
VERTEX
  8
0
 10
2.60215
 20
0.167318
 30
0.0
 40
0
 41
0
  0
VERTEX
  8
0
 10
2.58963
 20
0.167318
 30
0.0
 40
0
 41
0
  0
VERTEX
  8
0
 10
2.58963
 20
0.110352
 30
0.0
 40
0
 41
0
  0
VERTEX
  8
0
 10
2.6466
 20
0.110352
 30
0.0
 40
0
 41
0
  0
VERTEX
  8
0
 10
2.6466
 20
0.167318
 30
0.0
 40
0
 41
0
  0
VERTEX
  8
0
 10
2.63411
 20
0.167318
 30
0.0
 40
0
 41
0
  0
VERTEX
  8
0
 10
2.63411
 20
0.271376
 30
0.0
 40
0
 41
0
  0
VERTEX
  8
0
 10
2.70947
 20
0.346843
 30
0.0
 40
0
 41
0
  0
VERTEX
  8
0
 10
2.70947
 20
0.480035
 30
0.0
 40
0
 41
0
  0
SEQEND
 8
0
  0
POLYLINE
  8
0
 62
     3
 66
     1
 10
0
 20
0
 30
0.0
 70
     1
 40
0
 41
0
  0
VERTEX
  8
0
 10
2.34403
 20
0.819282
 30
0.0
 40
0
 41
0
  0
VERTEX
  8
0
 10
2.34403
 20
0.871094
 30
0.0
 40
0
 41
0
  0
VERTEX
  8
0
 10
2.35656
 20
0.871094
 30
0.0
 40
0
 41
0
  0
VERTEX
  8
0
 10
2.35656
 20
0.92806
 30
0.0
 40
0
 41
0
  0
VERTEX
  8
0
 10
2.29953
 20
0.92806
 30
0.0
 40
0
 41
0
  0
VERTEX
  8
0
 10
2.29953
 20
0.871094
 30
0.0
 40
0
 41
0
  0
VERTEX
  8
0
 10
2.31207
 20
0.871094
 30
0.0
 40
0
 41
0
  0
VERTEX
  8
0
 10
2.31207
 20
0.806044
 30
0.0
 40
0
 41
0
  0
VERTEX
  8
0
 10
2.34526
 20
0.772786
 30
0.0
 40
0
 41
0
  0
VERTEX
  8
0
 10
2.33643
 20
0.763943
 30
0.0
 40
0
 41
0
  0
VERTEX
  8
0
 10
2.37674
 20
0.723633
 30
0.0
 40
0
 41
0
  0
VERTEX
  8
0
 10
2.41704
 20
0.763943
 30
0.0
 40
0
 41
0
  0
VERTEX
  8
0
 10
2.37674
 20
0.804254
 30
0.0
 40
0
 41
0
  0
VERTEX
  8
0
 10
2.36789
 20
0.79541
 30
0.0
 40
0
 41
0
  0
VERTEX
  8
0
 10
2.34403
 20
0.819282
 30
0.0
 40
0
 41
0
  0
SEQEND
 8
0
  0
POLYLINE
  8
0
 62
     3
 66
     1
 10
0
 20
0
 30
0.0
 70
     1
 40
0
 41
0
  0
VERTEX
  8
0
 10
2.63499
 20
0.410915
 30
0.0
 40
0
 41
0
  0
VERTEX
  8
0
 10
2.63499
 20
0.512424
 30
0.0
 40
0
 41
0
  0
VERTEX
  8
0
 10
2.72222
 20
0.599664
 30
0.0
 40
0
 41
0
  0
VERTEX
  8
0
 10
2.73107
 20
0.590821
 30
0.0
 40
0
 41
0
  0
VERTEX
  8
0
 10
2.77138
 20
0.631076
 30
0.0
 40
0
 41
0
  0
VERTEX
  8
0
 10
2.73107
 20
0.671386
 30
0.0
 40
0
 41
0
  0
VERTEX
  8
0
 10
2.69075
 20
0.631076
 30
0.0
 40
0
 41
0
  0
VERTEX
  8
0
 10
2.6996
 20
0.622287
 30
0.0
 40
0
 41
0
  0
VERTEX
  8
0
 10
2.60308
 20
0.525662
 30
0.0
 40
0
 41
0
  0
VERTEX
  8
0
 10
2.60308
 20
0.410915
 30
0.0
 40
0
 41
0
  0
VERTEX
  8
0
 10
2.59056
 20
0.410915
 30
0.0
 40
0
 41
0
  0
VERTEX
  8
0
 10
2.59056
 20
0.354004
 30
0.0
 40
0
 41
0
  0
VERTEX
  8
0
 10
2.64751
 20
0.354004
 30
0.0
 40
0
 41
0
  0
VERTEX
  8
0
 10
2.64751
 20
0.410915
 30
0.0
 40
0
 41
0
  0
VERTEX
  8
0
 10
2.63499
 20
0.410915
 30
0.0
 40
0
 41
0
  0
SEQEND
 8
0
  0
POLYLINE
  8
0
 62
     3
 66
     1
 10
0
 20
0
 30
0.0
 70
     1
 40
0
 41
0
  0
VERTEX
  8
0
 10
2.8016
 20
0.726833
 30
0.0
 40
0
 41
0
  0
VERTEX
  8
0
 10
2.69282
 20
0.726833
 30
0.0
 40
0
 41
0
  0
VERTEX
  8
0
 10
2.61811
 20
0.652126
 30
0.0
 40
0
 41
0
  0
VERTEX
  8
0
 10
2.42324
 20
0.84706
 30
0.0
 40
0
 41
0
  0
VERTEX
  8
0
 10
2.42324
 20
0.993381
 30
0.0
 40
0
 41
0
  0
VERTEX
  8
0
 10
2.23514
 20
0.993381
 30
0.0
 40
0
 41
0
  0
VERTEX
  8
0
 10
2.23514
 20
0.768989
 30
0.0
 40
0
 41
0
  0
VERTEX
  8
0
 10
2.32969
 20
0.674425
 30
0.0
 40
0
 41
0
  0
VERTEX
  8
0
 10
2.44249
 20
0.674425
 30
0.0
 40
0
 41
0
  0
VERTEX
  8
0
 10
2.523
 20
0.593912
 30
0.0
 40
0
 41
0
  0
VERTEX
  8
0
 10
2.51417
 20
0.585069
 30
0.0
 40
0
 41
0
  0
VERTEX
  8
0
 10
2.55447
 20
0.54476
 30
0.0
 40
0
 41
0
  0
VERTEX
  8
0
 10
2.59478
 20
0.585069
 30
0.0
 40
0
 41
0
  0
VERTEX
  8
0
 10
2.55447
 20
0.625379
 30
0.0
 40
0
 41
0
  0
VERTEX
  8
0
 10
2.54563
 20
0.616482
 30
0.0
 40
0
 41
0
  0
VERTEX
  8
0
 10
2.45574
 20
0.706381
 30
0.0
 40
0
 41
0
  0
VERTEX
  8
0
 10
2.34289
 20
0.706381
 30
0.0
 40
0
 41
0
  0
VERTEX
  8
0
 10
2.26708
 20
0.782226
 30
0.0
 40
0
 41
0
  0
VERTEX
  8
0
 10
2.26708
 20
0.961426
 30
0.0
 40
0
 41
0
  0
VERTEX
  8
0
 10
2.39122
 20
0.961426
 30
0.0
 40
0
 41
0
  0
VERTEX
  8
0
 10
2.39122
 20
0.833768
 30
0.0
 40
0
 41
0
  0
VERTEX
  8
0
 10
2.61811
 20
0.606879
 30
0.0
 40
0
 41
0
  0
VERTEX
  8
0
 10
2.70606
 20
0.694879
 30
0.0
 40
0
 41
0
  0
VERTEX
  8
0
 10
2.81494
 20
0.694879
 30
0.0
 40
0
 41
0
  0
VERTEX
  8
0
 10
2.9216
 20
0.803331
 30
0.0
 40
0
 41
0
  0
VERTEX
  8
0
 10
2.92171
 20
0.871039
 30
0.0
 40
0
 41
0
  0
VERTEX
  8
0
 10
2.93425
 20
0.871039
 30
0.0
 40
0
 41
0
  0
VERTEX
  8
0
 10
2.93431
 20
0.928006
 30
0.0
 40
0
 41
0
  0
VERTEX
  8
0
 10
2.87728
 20
0.928114
 30
0.0
 40
0
 41
0
  0
VERTEX
  8
0
 10
2.87728
 20
0.871094
 30
0.0
 40
0
 41
0
  0
VERTEX
  8
0
 10
2.88976
 20
0.871094
 30
0.0
 40
0
 41
0
  0
VERTEX
  8
0
 10
2.88965
 20
0.816407
 30
0.0
 40
0
 41
0
  0
VERTEX
  8
0
 10
2.8016
 20
0.726833
 30
0.0
 40
0
 41
0
  0
SEQEND
 8
0
  0
POLYLINE
  8
0
 62
     3
 66
     1
 10
0
 20
0
 30
0.0
 70
     1
 40
0
 41
0
  0
VERTEX
  8
0
 10
1.81532
 20
0.872071
 30
0.0
 40
0
 41
0
  0
VERTEX
  8
0
 10
1.81532
 20
0.884603
 30
0.0
 40
0
 41
0
  0
VERTEX
  8
0
 10
1.92383
 20
0.884603
 30
0.0
 40
0
 41
0
  0
VERTEX
  8
0
 10
1.92383
 20
0.872071
 30
0.0
 40
0
 41
0
  0
VERTEX
  8
0
 10
1.98079
 20
0.872071
 30
0.0
 40
0
 41
0
  0
VERTEX
  8
0
 10
1.98079
 20
0.92909
 30
0.0
 40
0
 41
0
  0
VERTEX
  8
0
 10
1.92383
 20
0.92909
 30
0.0
 40
0
 41
0
  0
VERTEX
  8
0
 10
1.92383
 20
0.916558
 30
0.0
 40
0
 41
0
  0
VERTEX
  8
0
 10
1.81532
 20
0.916558
 30
0.0
 40
0
 41
0
  0
VERTEX
  8
0
 10
1.81532
 20
0.92909
 30
0.0
 40
0
 41
0
  0
VERTEX
  8
0
 10
1.75831
 20
0.92909
 30
0.0
 40
0
 41
0
  0
VERTEX
  8
0
 10
1.75831
 20
0.872071
 30
0.0
 40
0
 41
0
  0
VERTEX
  8
0
 10
1.81532
 20
0.872071
 30
0.0
 40
0
 41
0
  0
SEQEND
 8
0
  0
POLYLINE
  8
0
 62
     3
 66
     1
 10
0
 20
0
 30
0.0
 70
     1
 40
0
 41
0
  0
VERTEX
  8
0
 10
1.67882
 20
0.418782
 30
0.0
 40
0
 41
0
  0
VERTEX
  8
0
 10
1.67882
 20
0.161621
 30
0.0
 40
0
 41
0
  0
VERTEX
  8
0
 10
1.66635
 20
0.161621
 30
0.0
 40
0
 41
0
  0
VERTEX
  8
0
 10
1.66635
 20
0.104655
 30
0.0
 40
0
 41
0
  0
VERTEX
  8
0
 10
1.72331
 20
0.104655
 30
0.0
 40
0
 41
0
  0
VERTEX
  8
0
 10
1.72331
 20
0.161621
 30
0.0
 40
0
 41
0
  0
VERTEX
  8
0
 10
1.71078
 20
0.161621
 30
0.0
 40
0
 41
0
  0
VERTEX
  8
0
 10
1.71078
 20
0.418782
 30
0.0
 40
0
 41
0
  0
VERTEX
  8
0
 10
1.72331
 20
0.418782
 30
0.0
 40
0
 41
0
  0
VERTEX
  8
0
 10
1.72331
 20
0.475749
 30
0.0
 40
0
 41
0
  0
VERTEX
  8
0
 10
1.66635
 20
0.475749
 30
0.0
 40
0
 41
0
  0
VERTEX
  8
0
 10
1.66635
 20
0.418782
 30
0.0
 40
0
 41
0
  0
VERTEX
  8
0
 10
1.67882
 20
0.418782
 30
0.0
 40
0
 41
0
  0
SEQEND
 8
0
  0
POLYLINE
  8
0
 62
     3
 66
     1
 10
0
 20
0
 30
0.0
 70
     1
 40
0
 41
0
  0
VERTEX
  8
0
 10
1.78885
 20
0.805339
 30
0.0
 40
0
 41
0
  0
VERTEX
  8
0
 10
2.04742
 20
0.805339
 30
0.0
 40
0
 41
0
  0
VERTEX
  8
0
 10
2.04742
 20
0.993381
 30
0.0
 40
0
 41
0
  0
VERTEX
  8
0
 10
1.34223
 20
0.993381
 30
0.0
 40
0
 41
0
  0
VERTEX
  8
0
 10
1.34223
 20
0.805339
 30
0.0
 40
0
 41
0
  0
VERTEX
  8
0
 10
1.60081
 20
0.805339
 30
0.0
 40
0
 41
0
  0
VERTEX
  8
0
 10
1.60081
 20
0.0447049
 30
0.0
 40
0
 41
0
  0
VERTEX
  8
0
 10
1.78885
 20
0.0447049
 30
0.0
 40
0
 41
0
  0
VERTEX
  8
0
 10
1.78885
 20
0.481011
 30
0.0
 40
0
 41
0
  0
VERTEX
  8
0
 10
1.71083
 20
0.558974
 30
0.0
 40
0
 41
0
  0
VERTEX
  8
0
 10
1.71083
 20
0.916558
 30
0.0
 40
0
 41
0
  0
VERTEX
  8
0
 10
1.4624
 20
0.916558
 30
0.0
 40
0
 41
0
  0
VERTEX
  8
0
 10
1.4624
 20
0.92909
 30
0.0
 40
0
 41
0
  0
VERTEX
  8
0
 10
1.40543
 20
0.92909
 30
0.0
 40
0
 41
0
  0
VERTEX
  8
0
 10
1.40543
 20
0.872071
 30
0.0
 40
0
 41
0
  0
VERTEX
  8
0
 10
1.4624
 20
0.872071
 30
0.0
 40
0
 41
0
  0
VERTEX
  8
0
 10
1.4624
 20
0.884603
 30
0.0
 40
0
 41
0
  0
VERTEX
  8
0
 10
1.67887
 20
0.884603
 30
0.0
 40
0
 41
0
  0
VERTEX
  8
0
 10
1.67887
 20
0.545736
 30
0.0
 40
0
 41
0
  0
VERTEX
  8
0
 10
1.75689
 20
0.467719
 30
0.0
 40
0
 41
0
  0
VERTEX
  8
0
 10
1.75689
 20
0.0766601
 30
0.0
 40
0
 41
0
  0
VERTEX
  8
0
 10
1.63276
 20
0.0766601
 30
0.0
 40
0
 41
0
  0
VERTEX
  8
0
 10
1.63276
 20
0.837294
 30
0.0
 40
0
 41
0
  0
VERTEX
  8
0
 10
1.37419
 20
0.837294
 30
0.0
 40
0
 41
0
  0
VERTEX
  8
0
 10
1.37419
 20
0.961426
 30
0.0
 40
0
 41
0
  0
VERTEX
  8
0
 10
2.0154
 20
0.961426
 30
0.0
 40
0
 41
0
  0
VERTEX
  8
0
 10
2.0154
 20
0.837294
 30
0.0
 40
0
 41
0
  0
VERTEX
  8
0
 10
1.75689
 20
0.837294
 30
0.0
 40
0
 41
0
  0
VERTEX
  8
0
 10
1.75689
 20
0.615722
 30
0.0
 40
0
 41
0
  0
VERTEX
  8
0
 10
1.74442
 20
0.615722
 30
0.0
 40
0
 41
0
  0
VERTEX
  8
0
 10
1.74442
 20
0.558703
 30
0.0
 40
0
 41
0
  0
VERTEX
  8
0
 10
1.80132
 20
0.558703
 30
0.0
 40
0
 41
0
  0
VERTEX
  8
0
 10
1.80132
 20
0.615722
 30
0.0
 40
0
 41
0
  0
VERTEX
  8
0
 10
1.78885
 20
0.615722
 30
0.0
 40
0
 41
0
  0
VERTEX
  8
0
 10
1.78885
 20
0.805339
 30
0.0
 40
0
 41
0
  0
SEQEND
 8
0
  0
POLYLINE
  8
0
 62
     3
 66
     1
 10
0
 20
0
 30
0.0
 70
     1
 40
0
 41
0
  0
VERTEX
  8
0
 10
1.03646
 20
0.425944
 30
0.0
 40
0
 41
0
  0
VERTEX
  8
0
 10
1.03646
 20
0.166992
 30
0.0
 40
0
 41
0
  0
VERTEX
  8
0
 10
1.02398
 20
0.166992
 30
0.0
 40
0
 41
0
  0
VERTEX
  8
0
 10
1.02398
 20
0.109972
 30
0.0
 40
0
 41
0
  0
VERTEX
  8
0
 10
1.08095
 20
0.109972
 30
0.0
 40
0
 41
0
  0
VERTEX
  8
0
 10
1.08095
 20
0.166992
 30
0.0
 40
0
 41
0
  0
VERTEX
  8
0
 10
1.06847
 20
0.166992
 30
0.0
 40
0
 41
0
  0
VERTEX
  8
0
 10
1.06847
 20
0.425944
 30
0.0
 40
0
 41
0
  0
VERTEX
  8
0
 10
1.08095
 20
0.425944
 30
0.0
 40
0
 41
0
  0
VERTEX
  8
0
 10
1.08095
 20
0.48291
 30
0.0
 40
0
 41
0
  0
VERTEX
  8
0
 10
1.02398
 20
0.48291
 30
0.0
 40
0
 41
0
  0
VERTEX
  8
0
 10
1.02398
 20
0.425944
 30
0.0
 40
0
 41
0
  0
VERTEX
  8
0
 10
1.03646
 20
0.425944
 30
0.0
 40
0
 41
0
  0
SEQEND
 8
0
  0
POLYLINE
  8
0
 62
     3
 66
     1
 10
0
 20
0
 30
0.0
 70
     1
 40
0
 41
0
  0
VERTEX
  8
0
 10
1.10921
 20
0.593588
 30
0.0
 40
0
 41
0
  0
VERTEX
  8
0
 10
1.16618
 20
0.593588
 30
0.0
 40
0
 41
0
  0
VERTEX
  8
0
 10
1.16618
 20
0.650553
 30
0.0
 40
0
 41
0
  0
VERTEX
  8
0
 10
1.15365
 20
0.650553
 30
0.0
 40
0
 41
0
  0
VERTEX
  8
0
 10
1.15365
 20
0.993381
 30
0.0
 40
0
 41
0
  0
VERTEX
  8
0
 10
0.956164
 20
0.993381
 30
0.0
 40
0
 41
0
  0
VERTEX
  8
0
 10
0.956164
 20
0.0446506
 30
0.0
 40
0
 41
0
  0
VERTEX
  8
0
 10
1.15365
 20
0.0446506
 30
0.0
 40
0
 41
0
  0
VERTEX
  8
0
 10
1.15365
 20
0.488444
 30
0.0
 40
0
 41
0
  0
VERTEX
  8
0
 10
1.06841
 20
0.583713
 30
0.0
 40
0
 41
0
  0
VERTEX
  8
0
 10
1.06847
 20
0.871311
 30
0.0
 40
0
 41
0
  0
VERTEX
  8
0
 10
1.08095
 20
0.871311
 30
0.0
 40
0
 41
0
  0
VERTEX
  8
0
 10
1.08095
 20
0.928331
 30
0.0
 40
0
 41
0
  0
VERTEX
  8
0
 10
1.02393
 20
0.928331
 30
0.0
 40
0
 41
0
  0
VERTEX
  8
0
 10
1.02393
 20
0.871311
 30
0.0
 40
0
 41
0
  0
VERTEX
  8
0
 10
1.03646
 20
0.871311
 30
0.0
 40
0
 41
0
  0
VERTEX
  8
0
 10
1.0364
 20
0.570421
 30
0.0
 40
0
 41
0
  0
VERTEX
  8
0
 10
1.12169
 20
0.475261
 30
0.0
 40
0
 41
0
  0
VERTEX
  8
0
 10
1.12169
 20
0.0766601
 30
0.0
 40
0
 41
0
  0
VERTEX
  8
0
 10
0.988118
 20
0.0766601
 30
0.0
 40
0
 41
0
  0
VERTEX
  8
0
 10
0.988118
 20
0.961426
 30
0.0
 40
0
 41
0
  0
VERTEX
  8
0
 10
1.12169
 20
0.961426
 30
0.0
 40
0
 41
0
  0
VERTEX
  8
0
 10
1.12169
 20
0.650553
 30
0.0
 40
0
 41
0
  0
VERTEX
  8
0
 10
1.10921
 20
0.650553
 30
0.0
 40
0
 41
0
  0
VERTEX
  8
0
 10
1.10921
 20
0.593588
 30
0.0
 40
0
 41
0
  0
SEQEND
 8
0
  0
POLYLINE
  8
0
 62
     3
 66
     1
 10
0
 20
0
 30
0.0
 70
     1
 40
0
 41
0
  0
VERTEX
  8
0
 10
0.484321
 20
0.870931
 30
0.0
 40
0
 41
0
  0
VERTEX
  8
0
 10
0.484321
 20
0.883356
 30
0.0
 40
0
 41
0
  0
VERTEX
  8
0
 10
0.506619
 20
0.883356
 30
0.0
 40
0
 41
0
  0
VERTEX
  8
0
 10
0.6301
 20
0.759224
 30
0.0
 40
0
 41
0
  0
VERTEX
  8
0
 10
0.624892
 20
0.759224
 30
0.0
 40
0
 41
0
  0
VERTEX
  8
0
 10
0.624892
 20
0.702203
 30
0.0
 40
0
 41
0
  0
VERTEX
  8
0
 10
0.681858
 20
0.702203
 30
0.0
 40
0
 41
0
  0
VERTEX
  8
0
 10
0.681858
 20
0.759224
 30
0.0
 40
0
 41
0
  0
VERTEX
  8
0
 10
0.669325
 20
0.759224
 30
0.0
 40
0
 41
0
  0
VERTEX
  8
0
 10
0.669325
 20
0.765192
 30
0.0
 40
0
 41
0
  0
VERTEX
  8
0
 10
0.519965
 20
0.915365
 30
0.0
 40
0
 41
0
  0
VERTEX
  8
0
 10
0.484321
 20
0.915365
 30
0.0
 40
0
 41
0
  0
VERTEX
  8
0
 10
0.484321
 20
0.927897
 30
0.0
 40
0
 41
0
  0
VERTEX
  8
0
 10
0.4273
 20
0.927897
 30
0.0
 40
0
 41
0
  0
VERTEX
  8
0
 10
0.4273
 20
0.870931
 30
0.0
 40
0
 41
0
  0
VERTEX
  8
0
 10
0.484321
 20
0.870931
 30
0.0
 40
0
 41
0
  0
SEQEND
 8
0
  0
POLYLINE
  8
0
 62
     3
 66
     1
 10
0
 20
0
 30
0.0
 70
     1
 40
0
 41
0
  0
VERTEX
  8
0
 10
0.748535
 20
0.636447
 30
0.0
 40
0
 41
0
  0
VERTEX
  8
0
 10
0.748535
 20
0.793892
 30
0.0
 40
0
 41
0
  0
VERTEX
  8
0
 10
0.54899
 20
0.993381
 30
0.0
 40
0
 41
0
  0
VERTEX
  8
0
 10
0.412597
 20
0.993381
 30
0.0
 40
0
 41
0
  0
VERTEX
  8
0
 10
0.338704
 20
0.914117
 30
0.0
 40
0
 41
0
  0
VERTEX
  8
0
 10
0.271376
 20
0.912761
 30
0.0
 40
0
 41
0
  0
VERTEX
  8
0
 10
0.121853
 20
0.763237
 30
0.0
 40
0
 41
0
  0
VERTEX
  8
0
 10
0.121853
 20
0.714139
 30
0.0
 40
0
 41
0
  0
VERTEX
  8
0
 10
0.109321
 20
0.714139
 30
0.0
 40
0
 41
0
  0
VERTEX
  8
0
 10
0.109321
 20
0.657118
 30
0.0
 40
0
 41
0
  0
VERTEX
  8
0
 10
0.166288
 20
0.657118
 30
0.0
 40
0
 41
0
  0
VERTEX
  8
0
 10
0.166288
 20
0.714139
 30
0.0
 40
0
 41
0
  0
VERTEX
  8
0
 10
0.153808
 20
0.714139
 30
0.0
 40
0
 41
0
  0
VERTEX
  8
0
 10
0.153808
 20
0.749946
 30
0.0
 40
0
 41
0
  0
VERTEX
  8
0
 10
0.284885
 20
0.881022
 30
0.0
 40
0
 41
0
  0
VERTEX
  8
0
 10
0.35281
 20
0.882324
 30
0.0
 40
0
 41
0
  0
VERTEX
  8
0
 10
0.42654
 20
0.961426
 30
0.0
 40
0
 41
0
  0
VERTEX
  8
0
 10
0.535753
 20
0.961426
 30
0.0
 40
0
 41
0
  0
VERTEX
  8
0
 10
0.716525
 20
0.780653
 30
0.0
 40
0
 41
0
  0
VERTEX
  8
0
 10
0.716525
 20
0.668457
 30
0.0
 40
0
 41
0
  0
VERTEX
  8
0
 10
0.592393
 20
0.668457
 30
0.0
 40
0
 41
0
  0
VERTEX
  8
0
 10
0.592393
 20
0.729058
 30
0.0
 40
0
 41
0
  0
VERTEX
  8
0
 10
0.484213
 20
0.837294
 30
0.0
 40
0
 41
0
  0
VERTEX
  8
0
 10
0.307617
 20
0.837294
 30
0.0
 40
0
 41
0
  0
VERTEX
  8
0
 10
0.199436
 20
0.729058
 30
0.0
 40
0
 41
0
  0
VERTEX
  8
0
 10
0.199436
 20
0.502225
 30
0.0
 40
0
 41
0
  0
VERTEX
  8
0
 10
0.186903
 20
0.502225
 30
0.0
 40
0
 41
0
  0
VERTEX
  8
0
 10
0.186903
 20
0.445258
 30
0.0
 40
0
 41
0
  0
VERTEX
  8
0
 10
0.243924
 20
0.445258
 30
0.0
 40
0
 41
0
  0
VERTEX
  8
0
 10
0.243924
 20
0.502225
 30
0.0
 40
0
 41
0
  0
VERTEX
  8
0
 10
0.231392
 20
0.502225
 30
0.0
 40
0
 41
0
  0
VERTEX
  8
0
 10
0.231392
 20
0.715821
 30
0.0
 40
0
 41
0
  0
VERTEX
  8
0
 10
0.320856
 20
0.805285
 30
0.0
 40
0
 41
0
  0
VERTEX
  8
0
 10
0.470975
 20
0.805285
 30
0.0
 40
0
 41
0
  0
VERTEX
  8
0
 10
0.560439
 20
0.715821
 30
0.0
 40
0
 41
0
  0
VERTEX
  8
0
 10
0.560439
 20
0.636447
 30
0.0
 40
0
 41
0
  0
VERTEX
  8
0
 10
0.748535
 20
0.636447
 30
0.0
 40
0
 41
0
  0
SEQEND
 8
0
  0
POLYLINE
  8
0
 62
     3
 66
     1
 10
0
 20
0
 30
0.0
 70
     1
 40
0
 41
0
  0
VERTEX
  8
0
 10
0.279839
 20
0.948893
 30
0.0
 40
0
 41
0
  0
VERTEX
  8
0
 10
0.336806
 20
0.948893
 30
0.0
 40
0
 41
0
  0
VERTEX
  8
0
 10
0.336806
 20
1.00586
 30
0.0
 40
0
 41
0
  0
VERTEX
  8
0
 10
0.279839
 20
1.00586
 30
0.0
 40
0
 41
0
  0
VERTEX
  8
0
 10
0.279839
 20
0.993381
 30
0.0
 40
0
 41
0
  0
VERTEX
  8
0
 10
0.242839
 20
0.993381
 30
0.0
 40
0
 41
0
  0
VERTEX
  8
0
 10
0.0433485
 20
0.793892
 30
0.0
 40
0
 41
0
  0
VERTEX
  8
0
 10
0.0433485
 20
0.627604
 30
0.0
 40
0
 41
0
  0
VERTEX
  8
0
 10
0.121853
 20
0.547689
 30
0.0
 40
0
 41
0
  0
VERTEX
  8
0
 10
0.121853
 20
0.274251
 30
0.0
 40
0
 41
0
  0
VERTEX
  8
0
 10
0.278267
 20
0.119086
 30
0.0
 40
0
 41
0
  0
VERTEX
  8
0
 10
0.323785
 20
0.119575
 30
0.0
 40
0
 41
0
  0
VERTEX
  8
0
 10
0.323893
 20
0.107205
 30
0.0
 40
0
 41
0
  0
VERTEX
  8
0
 10
0.380914
 20
0.107639
 30
0.0
 40
0
 41
0
  0
VERTEX
  8
0
 10
0.380425
 20
0.164606
 30
0.0
 40
0
 41
0
  0
VERTEX
  8
0
 10
0.32346
 20
0.164117
 30
0.0
 40
0
 41
0
  0
VERTEX
  8
0
 10
0.323568
 20
0.151531
 30
0.0
 40
0
 41
0
  0
VERTEX
  8
0
 10
0.291342
 20
0.15115
 30
0.0
 40
0
 41
0
  0
VERTEX
  8
0
 10
0.153808
 20
0.287597
 30
0.0
 40
0
 41
0
  0
VERTEX
  8
0
 10
0.153808
 20
0.560818
 30
0.0
 40
0
 41
0
  0
VERTEX
  8
0
 10
0.0753039
 20
0.640679
 30
0.0
 40
0
 41
0
  0
VERTEX
  8
0
 10
0.0753039
 20
0.780653
 30
0.0
 40
0
 41
0
  0
VERTEX
  8
0
 10
0.256076
 20
0.961426
 30
0.0
 40
0
 41
0
  0
VERTEX
  8
0
 10
0.279839
 20
0.961426
 30
0.0
 40
0
 41
0
  0
VERTEX
  8
0
 10
0.279839
 20
0.948893
 30
0.0
 40
0
 41
0
  0
SEQEND
 8
0
  0
POLYLINE
  8
0
 62
     3
 66
     1
 10
0
 20
0
 30
0.0
 70
     1
 40
0
 41
0
  0
VERTEX
  8
0
 10
0.476238
 20
0.108453
 30
0.0
 40
0
 41
0
  0
VERTEX
  8
0
 10
0.476129
 20
0.121039
 30
0.0
 40
0
 41
0
  0
VERTEX
  8
0
 10
0.513889
 20
0.121473
 30
0.0
 40
0
 41
0
  0
VERTEX
  8
0
 10
0.669379
 20
0.276693
 30
0.0
 40
0
 41
0
  0
VERTEX
  8
0
 10
0.669379
 20
0.276801
 30
0.0
 40
0
 41
0
  0
VERTEX
  8
0
 10
0.681858
 20
0.276693
 30
0.0
 40
0
 41
0
  0
VERTEX
  8
0
 10
0.682129
 20
0.333713
 30
0.0
 40
0
 41
0
  0
VERTEX
  8
0
 10
0.625163
 20
0.334039
 30
0.0
 40
0
 41
0
  0
VERTEX
  8
0
 10
0.624892
 20
0.277399
 30
0.0
 40
0
 41
0
  0
VERTEX
  8
0
 10
0.500543
 20
0.153321
 30
0.0
 40
0
 41
0
  0
VERTEX
  8
0
 10
0.475911
 20
0.153049
 30
0.0
 40
0
 41
0
  0
VERTEX
  8
0
 10
0.475803
 20
0.165474
 30
0.0
 40
0
 41
0
  0
VERTEX
  8
0
 10
0.418782
 20
0.164985
 30
0.0
 40
0
 41
0
  0
VERTEX
  8
0
 10
0.419271
 20
0.107964
 30
0.0
 40
0
 41
0
  0
VERTEX
  8
0
 10
0.476238
 20
0.108453
 30
0.0
 40
0
 41
0
  0
SEQEND
 8
0
  0
POLYLINE
  8
0
 62
     3
 66
     1
 10
0
 20
0
 30
0.0
 70
     1
 40
0
 41
0
  0
VERTEX
  8
0
 10
0.0878364
 20
0.554254
 30
0.0
 40
0
 41
0
  0
VERTEX
  8
0
 10
0.030816
 20
0.554254
 30
0.0
 40
0
 41
0
  0
VERTEX
  8
0
 10
0.030816
 20
0.497287
 30
0.0
 40
0
 41
0
  0
VERTEX
  8
0
 10
0.0433485
 20
0.497287
 30
0.0
 40
0
 41
0
  0
VERTEX
  8
0
 10
0.0433485
 20
0.24414
 30
0.0
 40
0
 41
0
  0
VERTEX
  8
0
 10
0.242839
 20
0.0446506
 30
0.0
 40
0
 41
0
  0
VERTEX
  8
0
 10
0.545736
 20
0.0446506
 30
0.0
 40
0
 41
0
  0
VERTEX
  8
0
 10
0.748535
 20
0.244086
 30
0.0
 40
0
 41
0
  0
VERTEX
  8
0
 10
0.748535
 20
0.403917
 30
0.0
 40
0
 41
0
  0
VERTEX
  8
0
 10
0.560439
 20
0.403917
 30
0.0
 40
0
 41
0
  0
VERTEX
  8
0
 10
0.560439
 20
0.322265
 30
0.0
 40
0
 41
0
  0
VERTEX
  8
0
 10
0.470975
 20
0.232801
 30
0.0
 40
0
 41
0
  0
VERTEX
  8
0
 10
0.320856
 20
0.232801
 30
0.0
 40
0
 41
0
  0
VERTEX
  8
0
 10
0.231392
 20
0.322265
 30
0.0
 40
0
 41
0
  0
VERTEX
  8
0
 10
0.231392
 20
0.354438
 30
0.0
 40
0
 41
0
  0
VERTEX
  8
0
 10
0.243924
 20
0.354438
 30
0.0
 40
0
 41
0
  0
VERTEX
  8
0
 10
0.243924
 20
0.411404
 30
0.0
 40
0
 41
0
  0
VERTEX
  8
0
 10
0.186903
 20
0.411404
 30
0.0
 40
0
 41
0
  0
VERTEX
  8
0
 10
0.186903
 20
0.354438
 30
0.0
 40
0
 41
0
  0
VERTEX
  8
0
 10
0.199436
 20
0.354438
 30
0.0
 40
0
 41
0
  0
VERTEX
  8
0
 10
0.199436
 20
0.308974
 30
0.0
 40
0
 41
0
  0
VERTEX
  8
0
 10
0.307617
 20
0.200738
 30
0.0
 40
0
 41
0
  0
VERTEX
  8
0
 10
0.484213
 20
0.200738
 30
0.0
 40
0
 41
0
  0
VERTEX
  8
0
 10
0.592393
 20
0.308974
 30
0.0
 40
0
 41
0
  0
VERTEX
  8
0
 10
0.592393
 20
0.371907
 30
0.0
 40
0
 41
0
  0
VERTEX
  8
0
 10
0.716525
 20
0.371907
 30
0.0
 40
0
 41
0
  0
VERTEX
  8
0
 10
0.716525
 20
0.257488
 30
0.0
 40
0
 41
0
  0
VERTEX
  8
0
 10
0.532607
 20
0.0766601
 30
0.0
 40
0
 41
0
  0
VERTEX
  8
0
 10
0.256076
 20
0.0766601
 30
0.0
 40
0
 41
0
  0
VERTEX
  8
0
 10
0.0753039
 20
0.257433
 30
0.0
 40
0
 41
0
  0
VERTEX
  8
0
 10
0.0753039
 20
0.497287
 30
0.0
 40
0
 41
0
  0
VERTEX
  8
0
 10
0.0878364
 20
0.497287
 30
0.0
 40
0
 41
0
  0
VERTEX
  8
0
 10
0.0878364
 20
0.554254
 30
0.0
 40
0
 41
0
  0
SEQEND
 8
0
  0
POLYLINE
  8
0
 62
     3
 66
     1
 10
0
 20
0
 30
0.0
 70
     1
 40
0
 41
0
  0
VERTEX
  8
0
 10
2.41737
 20
0.649631
 30
0.0
 40
0
 41
0
  0
VERTEX
  8
0
 10
2.37706
 20
0.609375
 30
0.0
 40
0
 41
0
  0
VERTEX
  8
0
 10
2.41737
 20
0.569065
 30
0.0
 40
0
 41
0
  0
VERTEX
  8
0
 10
2.42617
 20
0.577854
 30
0.0
 40
0
 41
0
  0
VERTEX
  8
0
 10
2.52408
 20
0.480035
 30
0.0
 40
0
 41
0
  0
VERTEX
  8
0
 10
2.52408
 20
0.0447049
 30
0.0
 40
0
 41
0
  0
VERTEX
  8
0
 10
2.71212
 20
0.0447049
 30
0.0
 40
0
 41
0
  0
VERTEX
  8
0
 10
2.71212
 20
0.212076
 30
0.0
 40
0
 41
0
  0
VERTEX
  8
0
 10
2.72467
 20
0.212076
 30
0.0
 40
0
 41
0
  0
VERTEX
  8
0
 10
2.72467
 20
0.269097
 30
0.0
 40
0
 41
0
  0
VERTEX
  8
0
 10
2.66769
 20
0.269097
 30
0.0
 40
0
 41
0
  0
VERTEX
  8
0
 10
2.66769
 20
0.212076
 30
0.0
 40
0
 41
0
  0
VERTEX
  8
0
 10
2.68018
 20
0.212076
 30
0.0
 40
0
 41
0
  0
VERTEX
  8
0
 10
2.68018
 20
0.0766601
 30
0.0
 40
0
 41
0
  0
VERTEX
  8
0
 10
2.55604
 20
0.0766601
 30
0.0
 40
0
 41
0
  0
VERTEX
  8
0
 10
2.55604
 20
0.493272
 30
0.0
 40
0
 41
0
  0
VERTEX
  8
0
 10
2.44879
 20
0.600478
 30
0.0
 40
0
 41
0
  0
VERTEX
  8
0
 10
2.45768
 20
0.609375
 30
0.0
 40
0
 41
0
  0
VERTEX
  8
0
 10
2.41737
 20
0.649631
 30
0.0
 40
0
 41
0
  0
SEQEND
 8
0
  0
ENDSEC
  0
EOF
