  0
SECTION
  2
HEADER
  9
$ACADVER
  1
AC1009
  9
$FILLMODE
 70
 0
  9
$SPLFRAME
 70
 1
  9
$EXTMIN
 10
0
 20
0
 30
0.0
  9
$EXTMAX
 10
41.6667
 20
41.6667
 30
0.0
  0
ENDSEC
  0
SECTION
  2
TABLES
  0
TABLE
  2
LAYER
 70
1
  0
LAYER
  2
0
 70
     0
 62
     7
  6
CONTINUOUS
  0
ENDTAB
  0
ENDSEC
  0
SECTION
  2
ENTITIES
  0
POLYLINE
  8
0
 62
     0
 66
     1
 10
0
 20
0
 30
0.0
 70
     1
 40
0
 41
0
  0
VERTEX
  8
0
 10
0.333876
 20
1.32319
 30
0.0
 40
0
 41
0
  0
VERTEX
  8
0
 10
0
 20
0.989258
 30
0.0
 40
0
 41
0
  0
VERTEX
  8
0
 10
0
 20
0.313368
 30
0.0
 40
0
 41
0
  0
VERTEX
  8
0
 10
0.313368
 20
0
 30
0.0
 40
0
 41
0
  0
VERTEX
  8
0
 10
5.51975
 20
0
 30
0.0
 40
0
 41
0
  0
VERTEX
  8
0
 10
5.78885
 20
0.269151
 30
0.0
 40
0
 41
0
  0
VERTEX
  8
0
 10
5.78885
 20
1.03695
 30
0.0
 40
0
 41
0
  0
VERTEX
  8
0
 10
5.50265
 20
1.32319
 30
0.0
 40
0
 41
0
  0
VERTEX
  8
0
 10
0.333876
 20
1.32319
 30
0.0
 40
0
 41
0
  0
SEQEND
 8
0
  0
POLYLINE
  8
0
 62
     7
 66
     1
 10
0
 20
0
 30
0.0
 70
     1
 40
0
 41
0
  0
VERTEX
  8
0
 10
5.58208
 20
0.778375
 30
0.0
 40
0
 41
0
  0
VERTEX
  8
0
 10
5.58208
 20
0.832736
 30
0.0
 40
0
 41
0
  0
VERTEX
  8
0
 10
5.52772
 20
0.832736
 30
0.0
 40
0
 41
0
  0
VERTEX
  8
0
 10
5.52772
 20
0.778375
 30
0.0
 40
0
 41
0
  0
VERTEX
  8
0
 10
5.53965
 20
0.778375
 30
0.0
 40
0
 41
0
  0
VERTEX
  8
0
 10
5.53965
 20
0.728896
 30
0.0
 40
0
 41
0
  0
VERTEX
  8
0
 10
5.47239
 20
0.661567
 30
0.0
 40
0
 41
0
  0
VERTEX
  8
0
 10
5.53965
 20
0.594293
 30
0.0
 40
0
 41
0
  0
VERTEX
  8
0
 10
5.53965
 20
0.366157
 30
0.0
 40
0
 41
0
  0
VERTEX
  8
0
 10
5.41319
 20
0.240235
 30
0.0
 40
0
 41
0
  0
VERTEX
  8
0
 10
5.34136
 20
0.240235
 30
0.0
 40
0
 41
0
  0
VERTEX
  8
0
 10
5.27463
 20
0.306967
 30
0.0
 40
0
 41
0
  0
VERTEX
  8
0
 10
4.94228
 20
0.306967
 30
0.0
 40
0
 41
0
  0
VERTEX
  8
0
 10
4.94228
 20
0.355306
 30
0.0
 40
0
 41
0
  0
VERTEX
  8
0
 10
4.87001
 20
0.417751
 30
0.0
 40
0
 41
0
  0
VERTEX
  8
0
 10
4.87001
 20
1.0836
 30
0.0
 40
0
 41
0
  0
VERTEX
  8
0
 10
4.94814
 20
1.0836
 30
0.0
 40
0
 41
0
  0
VERTEX
  8
0
 10
4.94814
 20
1.07167
 30
0.0
 40
0
 41
0
  0
VERTEX
  8
0
 10
5.0025
 20
1.07167
 30
0.0
 40
0
 41
0
  0
VERTEX
  8
0
 10
5.0025
 20
1.12598
 30
0.0
 40
0
 41
0
  0
VERTEX
  8
0
 10
4.94814
 20
1.12598
 30
0.0
 40
0
 41
0
  0
VERTEX
  8
0
 10
4.94814
 20
1.11409
 30
0.0
 40
0
 41
0
  0
VERTEX
  8
0
 10
4.83946
 20
1.11409
 30
0.0
 40
0
 41
0
  0
VERTEX
  8
0
 10
4.83946
 20
0.403863
 30
0.0
 40
0
 41
0
  0
VERTEX
  8
0
 10
4.91178
 20
0.341363
 30
0.0
 40
0
 41
0
  0
VERTEX
  8
0
 10
4.91178
 20
0.276476
 30
0.0
 40
0
 41
0
  0
VERTEX
  8
0
 10
5.26193
 20
0.276476
 30
0.0
 40
0
 41
0
  0
VERTEX
  8
0
 10
5.32878
 20
0.209744
 30
0.0
 40
0
 41
0
  0
VERTEX
  8
0
 10
5.42578
 20
0.209744
 30
0.0
 40
0
 41
0
  0
VERTEX
  8
0
 10
5.57015
 20
0.353461
 30
0.0
 40
0
 41
0
  0
VERTEX
  8
0
 10
5.57015
 20
0.606987
 30
0.0
 40
0
 41
0
  0
VERTEX
  8
0
 10
5.51551
 20
0.661567
 30
0.0
 40
0
 41
0
  0
VERTEX
  8
0
 10
5.57015
 20
0.716254
 30
0.0
 40
0
 41
0
  0
VERTEX
  8
0
 10
5.57015
 20
0.778375
 30
0.0
 40
0
 41
0
  0
VERTEX
  8
0
 10
5.58208
 20
0.778375
 30
0.0
 40
0
 41
0
  0
SEQEND
 8
0
  0
POLYLINE
  8
0
 62
     7
 66
     1
 10
0
 20
0
 30
0.0
 70
     1
 40
0
 41
0
  0
VERTEX
  8
0
 10
5.38661
 20
0.264594
 30
0.0
 40
0
 41
0
  0
VERTEX
  8
0
 10
5.38661
 20
0.276476
 30
0.0
 40
0
 41
0
  0
VERTEX
  8
0
 10
5.38965
 20
0.276476
 30
0.0
 40
0
 41
0
  0
VERTEX
  8
0
 10
5.49567
 20
0.383518
 30
0.0
 40
0
 41
0
  0
VERTEX
  8
0
 10
5.49567
 20
0.577419
 30
0.0
 40
0
 41
0
  0
VERTEX
  8
0
 10
5.47542
 20
0.598525
 30
0.0
 40
0
 41
0
  0
VERTEX
  8
0
 10
5.48406
 20
0.606771
 30
0.0
 40
0
 41
0
  0
VERTEX
  8
0
 10
5.44646
 20
0.645996
 30
0.0
 40
0
 41
0
  0
VERTEX
  8
0
 10
5.40717
 20
0.608344
 30
0.0
 40
0
 41
0
  0
VERTEX
  8
0
 10
5.44482
 20
0.569174
 30
0.0
 40
0
 41
0
  0
VERTEX
  8
0
 10
5.4534
 20
0.577419
 30
0.0
 40
0
 41
0
  0
VERTEX
  8
0
 10
5.46511
 20
0.565158
 30
0.0
 40
0
 41
0
  0
VERTEX
  8
0
 10
5.46511
 20
0.39605
 30
0.0
 40
0
 41
0
  0
VERTEX
  8
0
 10
5.38661
 20
0.316732
 30
0.0
 40
0
 41
0
  0
VERTEX
  8
0
 10
5.38661
 20
0.318956
 30
0.0
 40
0
 41
0
  0
VERTEX
  8
0
 10
5.33225
 20
0.318956
 30
0.0
 40
0
 41
0
  0
VERTEX
  8
0
 10
5.33225
 20
0.264594
 30
0.0
 40
0
 41
0
  0
VERTEX
  8
0
 10
5.38661
 20
0.264594
 30
0.0
 40
0
 41
0
  0
SEQEND
 8
0
  0
POLYLINE
  8
0
 62
     7
 66
     1
 10
0
 20
0
 30
0.0
 70
     1
 40
0
 41
0
  0
VERTEX
  8
0
 10
5.39378
 20
1.04243
 30
0.0
 40
0
 41
0
  0
VERTEX
  8
0
 10
4.91168
 20
1.04243
 30
0.0
 40
0
 41
0
  0
VERTEX
  8
0
 10
4.91168
 20
0.720811
 30
0.0
 40
0
 41
0
  0
VERTEX
  8
0
 10
5.07628
 20
0.720811
 30
0.0
 40
0
 41
0
  0
VERTEX
  8
0
 10
5.07628
 20
0.708876
 30
0.0
 40
0
 41
0
  0
VERTEX
  8
0
 10
5.13064
 20
0.708876
 30
0.0
 40
0
 41
0
  0
VERTEX
  8
0
 10
5.13064
 20
0.763237
 30
0.0
 40
0
 41
0
  0
VERTEX
  8
0
 10
5.07628
 20
0.763237
 30
0.0
 40
0
 41
0
  0
VERTEX
  8
0
 10
5.07628
 20
0.751303
 30
0.0
 40
0
 41
0
  0
VERTEX
  8
0
 10
4.94217
 20
0.751303
 30
0.0
 40
0
 41
0
  0
VERTEX
  8
0
 10
4.94217
 20
1.01188
 30
0.0
 40
0
 41
0
  0
VERTEX
  8
0
 10
5.38113
 20
1.01188
 30
0.0
 40
0
 41
0
  0
VERTEX
  8
0
 10
5.46511
 20
0.927897
 30
0.0
 40
0
 41
0
  0
VERTEX
  8
0
 10
5.46511
 20
0.758083
 30
0.0
 40
0
 41
0
  0
VERTEX
  8
0
 10
5.37879
 20
0.677137
 30
0.0
 40
0
 41
0
  0
VERTEX
  8
0
 10
5.21924
 20
0.676812
 30
0.0
 40
0
 41
0
  0
VERTEX
  8
0
 10
5.13504
 20
0.602431
 30
0.0
 40
0
 41
0
  0
VERTEX
  8
0
 10
4.98839
 20
0.602431
 30
0.0
 40
0
 41
0
  0
VERTEX
  8
0
 10
4.98839
 20
0.352214
 30
0.0
 40
0
 41
0
  0
VERTEX
  8
0
 10
5.3641
 20
0.358128
 30
0.0
 40
0
 41
0
  0
VERTEX
  8
0
 10
5.42746
 20
0.421442
 30
0.0
 40
0
 41
0
  0
VERTEX
  8
0
 10
5.42931
 20
0.53711
 30
0.0
 40
0
 41
0
  0
VERTEX
  8
0
 10
5.36399
 20
0.602431
 30
0.0
 40
0
 41
0
  0
VERTEX
  8
0
 10
5.27197
 20
0.602431
 30
0.0
 40
0
 41
0
  0
VERTEX
  8
0
 10
5.27197
 20
0.614312
 30
0.0
 40
0
 41
0
  0
VERTEX
  8
0
 10
5.21767
 20
0.614312
 30
0.0
 40
0
 41
0
  0
VERTEX
  8
0
 10
5.21767
 20
0.55995
 30
0.0
 40
0
 41
0
  0
VERTEX
  8
0
 10
5.27197
 20
0.55995
 30
0.0
 40
0
 41
0
  0
VERTEX
  8
0
 10
5.27197
 20
0.57194
 30
0.0
 40
0
 41
0
  0
VERTEX
  8
0
 10
5.35135
 20
0.57194
 30
0.0
 40
0
 41
0
  0
VERTEX
  8
0
 10
5.3986
 20
0.524631
 30
0.0
 40
0
 41
0
  0
VERTEX
  8
0
 10
5.39714
 20
0.434299
 30
0.0
 40
0
 41
0
  0
VERTEX
  8
0
 10
5.35124
 20
0.3884
 30
0.0
 40
0
 41
0
  0
VERTEX
  8
0
 10
5.01888
 20
0.383192
 30
0.0
 40
0
 41
0
  0
VERTEX
  8
0
 10
5.01888
 20
0.57194
 30
0.0
 40
0
 41
0
  0
VERTEX
  8
0
 10
5.1466
 20
0.57194
 30
0.0
 40
0
 41
0
  0
VERTEX
  8
0
 10
5.23085
 20
0.646376
 30
0.0
 40
0
 41
0
  0
VERTEX
  8
0
 10
5.3909
 20
0.646647
 30
0.0
 40
0
 41
0
  0
VERTEX
  8
0
 10
5.49567
 20
0.744792
 30
0.0
 40
0
 41
0
  0
VERTEX
  8
0
 10
5.49567
 20
0.940539
 30
0.0
 40
0
 41
0
  0
VERTEX
  8
0
 10
5.39378
 20
1.04243
 30
0.0
 40
0
 41
0
  0
SEQEND
 8
0
  0
POLYLINE
  8
0
 62
     7
 66
     1
 10
0
 20
0
 30
0.0
 70
     1
 40
0
 41
0
  0
VERTEX
  8
0
 10
4.94217
 20
0.471354
 30
0.0
 40
0
 41
0
  0
VERTEX
  8
0
 10
4.94217
 20
0.645833
 30
0.0
 40
0
 41
0
  0
VERTEX
  8
0
 10
5.12793
 20
0.645833
 30
0.0
 40
0
 41
0
  0
VERTEX
  8
0
 10
5.20958
 20
0.720811
 30
0.0
 40
0
 41
0
  0
VERTEX
  8
0
 10
5.36372
 20
0.720811
 30
0.0
 40
0
 41
0
  0
VERTEX
  8
0
 10
5.42931
 20
0.782824
 30
0.0
 40
0
 41
0
  0
VERTEX
  8
0
 10
5.42931
 20
0.899903
 30
0.0
 40
0
 41
0
  0
VERTEX
  8
0
 10
5.36399
 20
0.965169
 30
0.0
 40
0
 41
0
  0
VERTEX
  8
0
 10
4.98839
 20
0.965169
 30
0.0
 40
0
 41
0
  0
VERTEX
  8
0
 10
4.98839
 20
0.837185
 30
0.0
 40
0
 41
0
  0
VERTEX
  8
0
 10
4.97646
 20
0.837185
 30
0.0
 40
0
 41
0
  0
VERTEX
  8
0
 10
4.97646
 20
0.782824
 30
0.0
 40
0
 41
0
  0
VERTEX
  8
0
 10
5.03082
 20
0.782824
 30
0.0
 40
0
 41
0
  0
VERTEX
  8
0
 10
5.03082
 20
0.837185
 30
0.0
 40
0
 41
0
  0
VERTEX
  8
0
 10
5.01888
 20
0.837185
 30
0.0
 40
0
 41
0
  0
VERTEX
  8
0
 10
5.01888
 20
0.934679
 30
0.0
 40
0
 41
0
  0
VERTEX
  8
0
 10
5.35135
 20
0.934679
 30
0.0
 40
0
 41
0
  0
VERTEX
  8
0
 10
5.39876
 20
0.887261
 30
0.0
 40
0
 41
0
  0
VERTEX
  8
0
 10
5.39876
 20
0.795953
 30
0.0
 40
0
 41
0
  0
VERTEX
  8
0
 10
5.35161
 20
0.751303
 30
0.0
 40
0
 41
0
  0
VERTEX
  8
0
 10
5.19775
 20
0.751303
 30
0.0
 40
0
 41
0
  0
VERTEX
  8
0
 10
5.11604
 20
0.676324
 30
0.0
 40
0
 41
0
  0
VERTEX
  8
0
 10
4.91168
 20
0.676324
 30
0.0
 40
0
 41
0
  0
VERTEX
  8
0
 10
4.91168
 20
0.471354
 30
0.0
 40
0
 41
0
  0
VERTEX
  8
0
 10
4.89974
 20
0.471354
 30
0.0
 40
0
 41
0
  0
VERTEX
  8
0
 10
4.89974
 20
0.416938
 30
0.0
 40
0
 41
0
  0
VERTEX
  8
0
 10
4.95404
 20
0.416938
 30
0.0
 40
0
 41
0
  0
VERTEX
  8
0
 10
4.95404
 20
0.471354
 30
0.0
 40
0
 41
0
  0
VERTEX
  8
0
 10
4.94217
 20
0.471354
 30
0.0
 40
0
 41
0
  0
SEQEND
 8
0
  0
POLYLINE
  8
0
 62
     7
 66
     1
 10
0
 20
0
 30
0.0
 70
     1
 40
0
 41
0
  0
VERTEX
  8
0
 10
5.52772
 20
0.868544
 30
0.0
 40
0
 41
0
  0
VERTEX
  8
0
 10
5.58208
 20
0.868544
 30
0.0
 40
0
 41
0
  0
VERTEX
  8
0
 10
5.58208
 20
0.922906
 30
0.0
 40
0
 41
0
  0
VERTEX
  8
0
 10
5.57015
 20
0.922906
 30
0.0
 40
0
 41
0
  0
VERTEX
  8
0
 10
5.57015
 20
0.969726
 30
0.0
 40
0
 41
0
  0
VERTEX
  8
0
 10
5.42583
 20
1.11409
 30
0.0
 40
0
 41
0
  0
VERTEX
  8
0
 10
5.09044
 20
1.11409
 30
0.0
 40
0
 41
0
  0
VERTEX
  8
0
 10
5.09044
 20
1.12598
 30
0.0
 40
0
 41
0
  0
VERTEX
  8
0
 10
5.03614
 20
1.12598
 30
0.0
 40
0
 41
0
  0
VERTEX
  8
0
 10
5.03614
 20
1.07167
 30
0.0
 40
0
 41
0
  0
VERTEX
  8
0
 10
5.09044
 20
1.07167
 30
0.0
 40
0
 41
0
  0
VERTEX
  8
0
 10
5.09044
 20
1.0836
 30
0.0
 40
0
 41
0
  0
VERTEX
  8
0
 10
5.41319
 20
1.0836
 30
0.0
 40
0
 41
0
  0
VERTEX
  8
0
 10
5.53965
 20
0.957086
 30
0.0
 40
0
 41
0
  0
VERTEX
  8
0
 10
5.53965
 20
0.922906
 30
0.0
 40
0
 41
0
  0
VERTEX
  8
0
 10
5.52772
 20
0.922906
 30
0.0
 40
0
 41
0
  0
VERTEX
  8
0
 10
5.52772
 20
0.868544
 30
0.0
 40
0
 41
0
  0
SEQEND
 8
0
  0
POLYLINE
  8
0
 62
     7
 66
     1
 10
0
 20
0
 30
0.0
 70
     1
 40
0
 41
0
  0
VERTEX
  8
0
 10
4.88194
 20
0.339626
 30
0.0
 40
0
 41
0
  0
VERTEX
  8
0
 10
4.82758
 20
0.339626
 30
0.0
 40
0
 41
0
  0
VERTEX
  8
0
 10
4.82758
 20
0.285319
 30
0.0
 40
0
 41
0
  0
VERTEX
  8
0
 10
4.83946
 20
0.285319
 30
0.0
 40
0
 41
0
  0
VERTEX
  8
0
 10
4.83946
 20
0.209093
 30
0.0
 40
0
 41
0
  0
VERTEX
  8
0
 10
5.19249
 20
0.209093
 30
0.0
 40
0
 41
0
  0
VERTEX
  8
0
 10
5.19249
 20
0.197211
 30
0.0
 40
0
 41
0
  0
VERTEX
  8
0
 10
5.24685
 20
0.197211
 30
0.0
 40
0
 41
0
  0
VERTEX
  8
0
 10
5.24685
 20
0.251574
 30
0.0
 40
0
 41
0
  0
VERTEX
  8
0
 10
5.19249
 20
0.251574
 30
0.0
 40
0
 41
0
  0
VERTEX
  8
0
 10
5.19249
 20
0.239583
 30
0.0
 40
0
 41
0
  0
VERTEX
  8
0
 10
4.87001
 20
0.239583
 30
0.0
 40
0
 41
0
  0
VERTEX
  8
0
 10
4.87001
 20
0.285319
 30
0.0
 40
0
 41
0
  0
VERTEX
  8
0
 10
4.88194
 20
0.285319
 30
0.0
 40
0
 41
0
  0
VERTEX
  8
0
 10
4.88194
 20
0.339626
 30
0.0
 40
0
 41
0
  0
SEQEND
 8
0
  0
POLYLINE
  8
0
 62
     7
 66
     1
 10
0
 20
0
 30
0.0
 70
     1
 40
0
 41
0
  0
VERTEX
  8
0
 10
4.66411
 20
0.796278
 30
0.0
 40
0
 41
0
  0
VERTEX
  8
0
 10
4.67606
 20
0.796278
 30
0.0
 40
0
 41
0
  0
VERTEX
  8
0
 10
4.67606
 20
0.850694
 30
0.0
 40
0
 41
0
  0
VERTEX
  8
0
 10
4.62169
 20
0.850694
 30
0.0
 40
0
 41
0
  0
VERTEX
  8
0
 10
4.62169
 20
0.796278
 30
0.0
 40
0
 41
0
  0
VERTEX
  8
0
 10
4.63357
 20
0.796278
 30
0.0
 40
0
 41
0
  0
VERTEX
  8
0
 10
4.63357
 20
0.2366
 30
0.0
 40
0
 41
0
  0
VERTEX
  8
0
 10
4.51676
 20
0.2366
 30
0.0
 40
0
 41
0
  0
VERTEX
  8
0
 10
4.51676
 20
0.506674
 30
0.0
 40
0
 41
0
  0
VERTEX
  8
0
 10
4.32726
 20
0.506674
 30
0.0
 40
0
 41
0
  0
VERTEX
  8
0
 10
4.32726
 20
0.518608
 30
0.0
 40
0
 41
0
  0
VERTEX
  8
0
 10
4.27289
 20
0.518608
 30
0.0
 40
0
 41
0
  0
VERTEX
  8
0
 10
4.27289
 20
0.464301
 30
0.0
 40
0
 41
0
  0
VERTEX
  8
0
 10
4.32726
 20
0.464301
 30
0.0
 40
0
 41
0
  0
VERTEX
  8
0
 10
4.32726
 20
0.476183
 30
0.0
 40
0
 41
0
  0
VERTEX
  8
0
 10
4.48628
 20
0.476183
 30
0.0
 40
0
 41
0
  0
VERTEX
  8
0
 10
4.48628
 20
0.206108
 30
0.0
 40
0
 41
0
  0
VERTEX
  8
0
 10
4.66411
 20
0.206108
 30
0.0
 40
0
 41
0
  0
VERTEX
  8
0
 10
4.66411
 20
0.796278
 30
0.0
 40
0
 41
0
  0
SEQEND
 8
0
  0
POLYLINE
  8
0
 62
     7
 66
     1
 10
0
 20
0
 30
0.0
 70
     1
 40
0
 41
0
  0
VERTEX
  8
0
 10
4.40278
 20
1.05073
 30
0.0
 40
0
 41
0
  0
VERTEX
  8
0
 10
4.34842
 20
1.05073
 30
0.0
 40
0
 41
0
  0
VERTEX
  8
0
 10
4.34842
 20
0.996311
 30
0.0
 40
0
 41
0
  0
VERTEX
  8
0
 10
4.40278
 20
0.996311
 30
0.0
 40
0
 41
0
  0
VERTEX
  8
0
 10
4.40278
 20
1.00825
 30
0.0
 40
0
 41
0
  0
VERTEX
  8
0
 10
4.43658
 20
1.00825
 30
0.0
 40
0
 41
0
  0
VERTEX
  8
0
 10
4.55843
 20
0.886447
 30
0.0
 40
0
 41
0
  0
VERTEX
  8
0
 10
4.55843
 20
0.682508
 30
0.0
 40
0
 41
0
  0
VERTEX
  8
0
 10
4.5465
 20
0.682508
 30
0.0
 40
0
 41
0
  0
VERTEX
  8
0
 10
4.5465
 20
0.628147
 30
0.0
 40
0
 41
0
  0
VERTEX
  8
0
 10
4.60086
 20
0.628147
 30
0.0
 40
0
 41
0
  0
VERTEX
  8
0
 10
4.60086
 20
0.682508
 30
0.0
 40
0
 41
0
  0
VERTEX
  8
0
 10
4.58892
 20
0.682508
 30
0.0
 40
0
 41
0
  0
VERTEX
  8
0
 10
4.58892
 20
0.899089
 30
0.0
 40
0
 41
0
  0
VERTEX
  8
0
 10
4.44922
 20
1.03879
 30
0.0
 40
0
 41
0
  0
VERTEX
  8
0
 10
4.40278
 20
1.03879
 30
0.0
 40
0
 41
0
  0
VERTEX
  8
0
 10
4.40278
 20
1.05073
 30
0.0
 40
0
 41
0
  0
SEQEND
 8
0
  0
POLYLINE
  8
0
 62
     7
 66
     1
 10
0
 20
0
 30
0.0
 70
     1
 40
0
 41
0
  0
VERTEX
  8
0
 10
4.12771
 20
1.03879
 30
0.0
 40
0
 41
0
  0
VERTEX
  8
0
 10
3.98156
 20
0.892632
 30
0.0
 40
0
 41
0
  0
VERTEX
  8
0
 10
3.98156
 20
0.552408
 30
0.0
 40
0
 41
0
  0
VERTEX
  8
0
 10
4.12853
 20
0.552408
 30
0.0
 40
0
 41
0
  0
VERTEX
  8
0
 10
4.12853
 20
0.540528
 30
0.0
 40
0
 41
0
  0
VERTEX
  8
0
 10
4.18283
 20
0.540528
 30
0.0
 40
0
 41
0
  0
VERTEX
  8
0
 10
4.18283
 20
0.594889
 30
0.0
 40
0
 41
0
  0
VERTEX
  8
0
 10
4.12853
 20
0.594889
 30
0.0
 40
0
 41
0
  0
VERTEX
  8
0
 10
4.12853
 20
0.5829
 30
0.0
 40
0
 41
0
  0
VERTEX
  8
0
 10
4.01204
 20
0.5829
 30
0.0
 40
0
 41
0
  0
VERTEX
  8
0
 10
4.01204
 20
0.879992
 30
0.0
 40
0
 41
0
  0
VERTEX
  8
0
 10
4.14031
 20
1.00825
 30
0.0
 40
0
 41
0
  0
VERTEX
  8
0
 10
4.26275
 20
1.00825
 30
0.0
 40
0
 41
0
  0
VERTEX
  8
0
 10
4.34125
 20
0.931044
 30
0.0
 40
0
 41
0
  0
VERTEX
  8
0
 10
4.39942
 20
0.931044
 30
0.0
 40
0
 41
0
  0
VERTEX
  8
0
 10
4.48475
 20
0.845703
 30
0.0
 40
0
 41
0
  0
VERTEX
  8
0
 10
4.48475
 20
0.655817
 30
0.0
 40
0
 41
0
  0
VERTEX
  8
0
 10
4.08746
 20
0.655817
 30
0.0
 40
0
 41
0
  0
VERTEX
  8
0
 10
4.08746
 20
0.845703
 30
0.0
 40
0
 41
0
  0
VERTEX
  8
0
 10
4.17279
 20
0.931044
 30
0.0
 40
0
 41
0
  0
VERTEX
  8
0
 10
4.22071
 20
0.931044
 30
0.0
 40
0
 41
0
  0
VERTEX
  8
0
 10
4.22071
 20
0.919108
 30
0.0
 40
0
 41
0
  0
VERTEX
  8
0
 10
4.27507
 20
0.919108
 30
0.0
 40
0
 41
0
  0
VERTEX
  8
0
 10
4.27507
 20
0.973469
 30
0.0
 40
0
 41
0
  0
VERTEX
  8
0
 10
4.22071
 20
0.973469
 30
0.0
 40
0
 41
0
  0
VERTEX
  8
0
 10
4.22071
 20
0.961589
 30
0.0
 40
0
 41
0
  0
VERTEX
  8
0
 10
4.16015
 20
0.961589
 30
0.0
 40
0
 41
0
  0
VERTEX
  8
0
 10
4.05697
 20
0.858344
 30
0.0
 40
0
 41
0
  0
VERTEX
  8
0
 10
4.05697
 20
0.625325
 30
0.0
 40
0
 41
0
  0
VERTEX
  8
0
 10
4.51525
 20
0.625325
 30
0.0
 40
0
 41
0
  0
VERTEX
  8
0
 10
4.51525
 20
0.858344
 30
0.0
 40
0
 41
0
  0
VERTEX
  8
0
 10
4.41206
 20
0.961589
 30
0.0
 40
0
 41
0
  0
VERTEX
  8
0
 10
4.35379
 20
0.961589
 30
0.0
 40
0
 41
0
  0
VERTEX
  8
0
 10
4.27528
 20
1.03879
 30
0.0
 40
0
 41
0
  0
VERTEX
  8
0
 10
4.12771
 20
1.03879
 30
0.0
 40
0
 41
0
  0
SEQEND
 8
0
  0
POLYLINE
  8
0
 62
     7
 66
     1
 10
0
 20
0
 30
0.0
 70
     1
 40
0
 41
0
  0
VERTEX
  8
0
 10
3.98156
 20
0.450683
 30
0.0
 40
0
 41
0
  0
VERTEX
  8
0
 10
3.98156
 20
0.337782
 30
0.0
 40
0
 41
0
  0
VERTEX
  8
0
 10
3.96962
 20
0.337782
 30
0.0
 40
0
 41
0
  0
VERTEX
  8
0
 10
3.96962
 20
0.283475
 30
0.0
 40
0
 41
0
  0
VERTEX
  8
0
 10
4.02393
 20
0.283475
 30
0.0
 40
0
 41
0
  0
VERTEX
  8
0
 10
4.02393
 20
0.337782
 30
0.0
 40
0
 41
0
  0
VERTEX
  8
0
 10
4.01204
 20
0.337782
 30
0.0
 40
0
 41
0
  0
VERTEX
  8
0
 10
4.01204
 20
0.450683
 30
0.0
 40
0
 41
0
  0
VERTEX
  8
0
 10
4.02393
 20
0.450683
 30
0.0
 40
0
 41
0
  0
VERTEX
  8
0
 10
4.02393
 20
0.504992
 30
0.0
 40
0
 41
0
  0
VERTEX
  8
0
 10
3.96962
 20
0.504992
 30
0.0
 40
0
 41
0
  0
VERTEX
  8
0
 10
3.96962
 20
0.450683
 30
0.0
 40
0
 41
0
  0
VERTEX
  8
0
 10
3.98156
 20
0.450683
 30
0.0
 40
0
 41
0
  0
SEQEND
 8
0
  0
POLYLINE
  8
0
 62
     7
 66
     1
 10
0
 20
0
 30
0.0
 70
     1
 40
0
 41
0
  0
VERTEX
  8
0
 10
4.62169
 20
0.888997
 30
0.0
 40
0
 41
0
  0
VERTEX
  8
0
 10
4.67606
 20
0.888997
 30
0.0
 40
0
 41
0
  0
VERTEX
  8
0
 10
4.67606
 20
0.943414
 30
0.0
 40
0
 41
0
  0
VERTEX
  8
0
 10
4.64513
 20
0.943414
 30
0.0
 40
0
 41
0
  0
VERTEX
  8
0
 10
4.47287
 20
1.11236
 30
0.0
 40
0
 41
0
  0
VERTEX
  8
0
 10
4.09836
 20
1.11062
 30
0.0
 40
0
 41
0
  0
VERTEX
  8
0
 10
3.90881
 20
0.922635
 30
0.0
 40
0
 41
0
  0
VERTEX
  8
0
 10
3.90881
 20
0.206108
 30
0.0
 40
0
 41
0
  0
VERTEX
  8
0
 10
4.08675
 20
0.206108
 30
0.0
 40
0
 41
0
  0
VERTEX
  8
0
 10
4.08675
 20
0.476183
 30
0.0
 40
0
 41
0
  0
VERTEX
  8
0
 10
4.20817
 20
0.476183
 30
0.0
 40
0
 41
0
  0
VERTEX
  8
0
 10
4.29015
 20
0.552408
 30
0.0
 40
0
 41
0
  0
VERTEX
  8
0
 10
4.55843
 20
0.552408
 30
0.0
 40
0
 41
0
  0
VERTEX
  8
0
 10
4.55843
 20
0.337782
 30
0.0
 40
0
 41
0
  0
VERTEX
  8
0
 10
4.5465
 20
0.337782
 30
0.0
 40
0
 41
0
  0
VERTEX
  8
0
 10
4.5465
 20
0.283475
 30
0.0
 40
0
 41
0
  0
VERTEX
  8
0
 10
4.60086
 20
0.283475
 30
0.0
 40
0
 41
0
  0
VERTEX
  8
0
 10
4.60086
 20
0.337782
 30
0.0
 40
0
 41
0
  0
VERTEX
  8
0
 10
4.58892
 20
0.337782
 30
0.0
 40
0
 41
0
  0
VERTEX
  8
0
 10
4.58892
 20
0.5829
 30
0.0
 40
0
 41
0
  0
VERTEX
  8
0
 10
4.27821
 20
0.5829
 30
0.0
 40
0
 41
0
  0
VERTEX
  8
0
 10
4.19618
 20
0.506674
 30
0.0
 40
0
 41
0
  0
VERTEX
  8
0
 10
4.05626
 20
0.506674
 30
0.0
 40
0
 41
0
  0
VERTEX
  8
0
 10
4.05626
 20
0.2366
 30
0.0
 40
0
 41
0
  0
VERTEX
  8
0
 10
3.93929
 20
0.2366
 30
0.0
 40
0
 41
0
  0
VERTEX
  8
0
 10
3.93929
 20
0.909885
 30
0.0
 40
0
 41
0
  0
VERTEX
  8
0
 10
4.11094
 20
1.08019
 30
0.0
 40
0
 41
0
  0
VERTEX
  8
0
 10
4.46044
 20
1.08181
 30
0.0
 40
0
 41
0
  0
VERTEX
  8
0
 10
4.62169
 20
0.923719
 30
0.0
 40
0
 41
0
  0
VERTEX
  8
0
 10
4.62169
 20
0.888997
 30
0.0
 40
0
 41
0
  0
SEQEND
 8
0
  0
POLYLINE
  8
0
 62
     7
 66
     1
 10
0
 20
0
 30
0.0
 70
     1
 40
0
 41
0
  0
VERTEX
  8
0
 10
3.46679
 20
0.263564
 30
0.0
 40
0
 41
0
  0
VERTEX
  8
0
 10
3.46679
 20
0.275553
 30
0.0
 40
0
 41
0
  0
VERTEX
  8
0
 10
3.68104
 20
0.275553
 30
0.0
 40
0
 41
0
  0
VERTEX
  8
0
 10
3.68104
 20
0.263564
 30
0.0
 40
0
 41
0
  0
VERTEX
  8
0
 10
3.7354
 20
0.263564
 30
0.0
 40
0
 41
0
  0
VERTEX
  8
0
 10
3.7354
 20
0.317925
 30
0.0
 40
0
 41
0
  0
VERTEX
  8
0
 10
3.68104
 20
0.317925
 30
0.0
 40
0
 41
0
  0
VERTEX
  8
0
 10
3.68104
 20
0.306044
 30
0.0
 40
0
 41
0
  0
VERTEX
  8
0
 10
3.46679
 20
0.306044
 30
0.0
 40
0
 41
0
  0
VERTEX
  8
0
 10
3.46679
 20
0.317925
 30
0.0
 40
0
 41
0
  0
VERTEX
  8
0
 10
3.41243
 20
0.317925
 30
0.0
 40
0
 41
0
  0
VERTEX
  8
0
 10
3.41243
 20
0.263564
 30
0.0
 40
0
 41
0
  0
VERTEX
  8
0
 10
3.46679
 20
0.263564
 30
0.0
 40
0
 41
0
  0
SEQEND
 8
0
  0
POLYLINE
  8
0
 62
     7
 66
     1
 10
0
 20
0
 30
0.0
 70
     1
 40
0
 41
0
  0
VERTEX
  8
0
 10
3.06993
 20
0.207357
 30
0.0
 40
0
 41
0
  0
VERTEX
  8
0
 10
3.79986
 20
0.207357
 30
0.0
 40
0
 41
0
  0
VERTEX
  8
0
 10
3.79986
 20
0.386774
 30
0.0
 40
0
 41
0
  0
VERTEX
  8
0
 10
3.39785
 20
0.386774
 30
0.0
 40
0
 41
0
  0
VERTEX
  8
0
 10
3.32156
 20
0.306044
 30
0.0
 40
0
 41
0
  0
VERTEX
  8
0
 10
3.17128
 20
0.306044
 30
0.0
 40
0
 41
0
  0
VERTEX
  8
0
 10
3.17128
 20
0.521539
 30
0.0
 40
0
 41
0
  0
VERTEX
  8
0
 10
3.18321
 20
0.521539
 30
0.0
 40
0
 41
0
  0
VERTEX
  8
0
 10
3.18321
 20
0.5759
 30
0.0
 40
0
 41
0
  0
VERTEX
  8
0
 10
3.12885
 20
0.5759
 30
0.0
 40
0
 41
0
  0
VERTEX
  8
0
 10
3.12885
 20
0.521539
 30
0.0
 40
0
 41
0
  0
VERTEX
  8
0
 10
3.14079
 20
0.521539
 30
0.0
 40
0
 41
0
  0
VERTEX
  8
0
 10
3.14079
 20
0.275553
 30
0.0
 40
0
 41
0
  0
VERTEX
  8
0
 10
3.33475
 20
0.275553
 30
0.0
 40
0
 41
0
  0
VERTEX
  8
0
 10
3.41097
 20
0.356282
 30
0.0
 40
0
 41
0
  0
VERTEX
  8
0
 10
3.76937
 20
0.356282
 30
0.0
 40
0
 41
0
  0
VERTEX
  8
0
 10
3.76937
 20
0.237901
 30
0.0
 40
0
 41
0
  0
VERTEX
  8
0
 10
3.10042
 20
0.237901
 30
0.0
 40
0
 41
0
  0
VERTEX
  8
0
 10
3.10042
 20
0.572537
 30
0.0
 40
0
 41
0
  0
VERTEX
  8
0
 10
3.17361
 20
0.645182
 30
0.0
 40
0
 41
0
  0
VERTEX
  8
0
 10
3.17361
 20
0.995931
 30
0.0
 40
0
 41
0
  0
VERTEX
  8
0
 10
3.18554
 20
0.995931
 30
0.0
 40
0
 41
0
  0
VERTEX
  8
0
 10
3.18554
 20
1.05024
 30
0.0
 40
0
 41
0
  0
VERTEX
  8
0
 10
3.13118
 20
1.05024
 30
0.0
 40
0
 41
0
  0
VERTEX
  8
0
 10
3.13118
 20
0.995931
 30
0.0
 40
0
 41
0
  0
VERTEX
  8
0
 10
3.14312
 20
0.995931
 30
0.0
 40
0
 41
0
  0
VERTEX
  8
0
 10
3.14312
 20
0.657878
 30
0.0
 40
0
 41
0
  0
VERTEX
  8
0
 10
3.06993
 20
0.585232
 30
0.0
 40
0
 41
0
  0
VERTEX
  8
0
 10
3.06993
 20
0.207357
 30
0.0
 40
0
 41
0
  0
SEQEND
 8
0
  0
POLYLINE
  8
0
 62
     7
 66
     1
 10
0
 20
0
 30
0.0
 70
     1
 40
0
 41
0
  0
VERTEX
  8
0
 10
3.27382
 20
0.344347
 30
0.0
 40
0
 41
0
  0
VERTEX
  8
0
 10
3.32818
 20
0.344347
 30
0.0
 40
0
 41
0
  0
VERTEX
  8
0
 10
3.32818
 20
0.398708
 30
0.0
 40
0
 41
0
  0
VERTEX
  8
0
 10
3.27382
 20
0.398708
 30
0.0
 40
0
 41
0
  0
VERTEX
  8
0
 10
3.27382
 20
0.386774
 30
0.0
 40
0
 41
0
  0
VERTEX
  8
0
 10
3.24854
 20
0.386774
 30
0.0
 40
0
 41
0
  0
VERTEX
  8
0
 10
3.24854
 20
1.11236
 30
0.0
 40
0
 41
0
  0
VERTEX
  8
0
 10
3.06917
 20
1.11236
 30
0.0
 40
0
 41
0
  0
VERTEX
  8
0
 10
3.06917
 20
0.706976
 30
0.0
 40
0
 41
0
  0
VERTEX
  8
0
 10
3.05724
 20
0.706976
 30
0.0
 40
0
 41
0
  0
VERTEX
  8
0
 10
3.05724
 20
0.652615
 30
0.0
 40
0
 41
0
  0
VERTEX
  8
0
 10
3.1116
 20
0.652615
 30
0.0
 40
0
 41
0
  0
VERTEX
  8
0
 10
3.1116
 20
0.706976
 30
0.0
 40
0
 41
0
  0
VERTEX
  8
0
 10
3.09967
 20
0.706976
 30
0.0
 40
0
 41
0
  0
VERTEX
  8
0
 10
3.09967
 20
1.08187
 30
0.0
 40
0
 41
0
  0
VERTEX
  8
0
 10
3.2181
 20
1.08187
 30
0.0
 40
0
 41
0
  0
VERTEX
  8
0
 10
3.2181
 20
0.356282
 30
0.0
 40
0
 41
0
  0
VERTEX
  8
0
 10
3.27382
 20
0.356282
 30
0.0
 40
0
 41
0
  0
VERTEX
  8
0
 10
3.27382
 20
0.344347
 30
0.0
 40
0
 41
0
  0
SEQEND
 8
0
  0
POLYLINE
  8
0
 62
     7
 66
     1
 10
0
 20
0
 30
0.0
 70
     1
 40
0
 41
0
  0
VERTEX
  8
0
 10
2.65072
 20
0.622667
 30
0.0
 40
0
 41
0
  0
VERTEX
  8
0
 10
2.92763
 20
0.899576
 30
0.0
 40
0
 41
0
  0
VERTEX
  8
0
 10
2.92763
 20
1.11236
 30
0.0
 40
0
 41
0
  0
VERTEX
  8
0
 10
2.74951
 20
1.11236
 30
0.0
 40
0
 41
0
  0
VERTEX
  8
0
 10
2.74951
 20
0.972711
 30
0.0
 40
0
 41
0
  0
VERTEX
  8
0
 10
2.72293
 20
0.946181
 30
0.0
 40
0
 41
0
  0
VERTEX
  8
0
 10
2.71451
 20
0.954644
 30
0.0
 40
0
 41
0
  0
VERTEX
  8
0
 10
2.67606
 20
0.916233
 30
0.0
 40
0
 41
0
  0
VERTEX
  8
0
 10
2.71451
 20
0.877767
 30
0.0
 40
0
 41
0
  0
VERTEX
  8
0
 10
2.75293
 20
0.916233
 30
0.0
 40
0
 41
0
  0
VERTEX
  8
0
 10
2.74447
 20
0.924642
 30
0.0
 40
0
 41
0
  0
VERTEX
  8
0
 10
2.77994
 20
0.960069
 30
0.0
 40
0
 41
0
  0
VERTEX
  8
0
 10
2.77994
 20
1.08187
 30
0.0
 40
0
 41
0
  0
VERTEX
  8
0
 10
2.89714
 20
1.08187
 30
0.0
 40
0
 41
0
  0
VERTEX
  8
0
 10
2.89714
 20
0.912218
 30
0.0
 40
0
 41
0
  0
VERTEX
  8
0
 10
2.62022
 20
0.635308
 30
0.0
 40
0
 41
0
  0
VERTEX
  8
0
 10
2.62022
 20
0.508192
 30
0.0
 40
0
 41
0
  0
VERTEX
  8
0
 10
2.54829
 20
0.436307
 30
0.0
 40
0
 41
0
  0
VERTEX
  8
0
 10
2.54829
 20
0.324382
 30
0.0
 40
0
 41
0
  0
VERTEX
  8
0
 10
2.53635
 20
0.324382
 30
0.0
 40
0
 41
0
  0
VERTEX
  8
0
 10
2.53635
 20
0.270019
 30
0.0
 40
0
 41
0
  0
VERTEX
  8
0
 10
2.59071
 20
0.270019
 30
0.0
 40
0
 41
0
  0
VERTEX
  8
0
 10
2.59071
 20
0.324382
 30
0.0
 40
0
 41
0
  0
VERTEX
  8
0
 10
2.57878
 20
0.324382
 30
0.0
 40
0
 41
0
  0
VERTEX
  8
0
 10
2.57878
 20
0.423611
 30
0.0
 40
0
 41
0
  0
VERTEX
  8
0
 10
2.65072
 20
0.495606
 30
0.0
 40
0
 41
0
  0
VERTEX
  8
0
 10
2.65072
 20
0.622667
 30
0.0
 40
0
 41
0
  0
SEQEND
 8
0
  0
POLYLINE
  8
0
 62
     7
 66
     1
 10
0
 20
0
 30
0.0
 70
     1
 40
0
 41
0
  0
VERTEX
  8
0
 10
2.30208
 20
0.946235
 30
0.0
 40
0
 41
0
  0
VERTEX
  8
0
 10
2.30208
 20
0.99566
 30
0.0
 40
0
 41
0
  0
VERTEX
  8
0
 10
2.31401
 20
0.99566
 30
0.0
 40
0
 41
0
  0
VERTEX
  8
0
 10
2.31401
 20
1.05008
 30
0.0
 40
0
 41
0
  0
VERTEX
  8
0
 10
2.25965
 20
1.05008
 30
0.0
 40
0
 41
0
  0
VERTEX
  8
0
 10
2.25965
 20
0.99566
 30
0.0
 40
0
 41
0
  0
VERTEX
  8
0
 10
2.2716
 20
0.99566
 30
0.0
 40
0
 41
0
  0
VERTEX
  8
0
 10
2.2716
 20
0.933649
 30
0.0
 40
0
 41
0
  0
VERTEX
  8
0
 10
2.30328
 20
0.901964
 30
0.0
 40
0
 41
0
  0
VERTEX
  8
0
 10
2.29482
 20
0.8935
 30
0.0
 40
0
 41
0
  0
VERTEX
  8
0
 10
2.33328
 20
0.855035
 30
0.0
 40
0
 41
0
  0
VERTEX
  8
0
 10
2.37169
 20
0.8935
 30
0.0
 40
0
 41
0
  0
VERTEX
  8
0
 10
2.33328
 20
0.931913
 30
0.0
 40
0
 41
0
  0
VERTEX
  8
0
 10
2.32488
 20
0.923503
 30
0.0
 40
0
 41
0
  0
VERTEX
  8
0
 10
2.30208
 20
0.946235
 30
0.0
 40
0
 41
0
  0
SEQEND
 8
0
  0
POLYLINE
  8
0
 62
     7
 66
     1
 10
0
 20
0
 30
0.0
 70
     1
 40
0
 41
0
  0
VERTEX
  8
0
 10
2.57964
 20
0.556749
 30
0.0
 40
0
 41
0
  0
VERTEX
  8
0
 10
2.57964
 20
0.653537
 30
0.0
 40
0
 41
0
  0
VERTEX
  8
0
 10
2.66288
 20
0.736763
 30
0.0
 40
0
 41
0
  0
VERTEX
  8
0
 10
2.67128
 20
0.728353
 30
0.0
 40
0
 41
0
  0
VERTEX
  8
0
 10
2.70975
 20
0.766764
 30
0.0
 40
0
 41
0
  0
VERTEX
  8
0
 10
2.67128
 20
0.805176
 30
0.0
 40
0
 41
0
  0
VERTEX
  8
0
 10
2.63286
 20
0.766764
 30
0.0
 40
0
 41
0
  0
VERTEX
  8
0
 10
2.64128
 20
0.758356
 30
0.0
 40
0
 41
0
  0
VERTEX
  8
0
 10
2.54915
 20
0.666233
 30
0.0
 40
0
 41
0
  0
VERTEX
  8
0
 10
2.54915
 20
0.556749
 30
0.0
 40
0
 41
0
  0
VERTEX
  8
0
 10
2.53722
 20
0.556749
 30
0.0
 40
0
 41
0
  0
VERTEX
  8
0
 10
2.53722
 20
0.502442
 30
0.0
 40
0
 41
0
  0
VERTEX
  8
0
 10
2.59158
 20
0.502442
 30
0.0
 40
0
 41
0
  0
VERTEX
  8
0
 10
2.59158
 20
0.556749
 30
0.0
 40
0
 41
0
  0
VERTEX
  8
0
 10
2.57964
 20
0.556749
 30
0.0
 40
0
 41
0
  0
SEQEND
 8
0
  0
POLYLINE
  8
0
 62
     7
 66
     1
 10
0
 20
0
 30
0.0
 70
     1
 40
0
 41
0
  0
VERTEX
  8
0
 10
2.73856
 20
0.858074
 30
0.0
 40
0
 41
0
  0
VERTEX
  8
0
 10
2.63476
 20
0.858074
 30
0.0
 40
0
 41
0
  0
VERTEX
  8
0
 10
2.56353
 20
0.786838
 30
0.0
 40
0
 41
0
  0
VERTEX
  8
0
 10
2.37761
 20
0.972765
 30
0.0
 40
0
 41
0
  0
VERTEX
  8
0
 10
2.37761
 20
1.11236
 30
0.0
 40
0
 41
0
  0
VERTEX
  8
0
 10
2.19819
 20
1.11236
 30
0.0
 40
0
 41
0
  0
VERTEX
  8
0
 10
2.19819
 20
0.898329
 30
0.0
 40
0
 41
0
  0
VERTEX
  8
0
 10
2.28842
 20
0.808106
 30
0.0
 40
0
 41
0
  0
VERTEX
  8
0
 10
2.396
 20
0.808106
 30
0.0
 40
0
 41
0
  0
VERTEX
  8
0
 10
2.47276
 20
0.731282
 30
0.0
 40
0
 41
0
  0
VERTEX
  8
0
 10
2.46442
 20
0.722819
 30
0.0
 40
0
 41
0
  0
VERTEX
  8
0
 10
2.50282
 20
0.684407
 30
0.0
 40
0
 41
0
  0
VERTEX
  8
0
 10
2.54129
 20
0.722819
 30
0.0
 40
0
 41
0
  0
VERTEX
  8
0
 10
2.50282
 20
0.761285
 30
0.0
 40
0
 41
0
  0
VERTEX
  8
0
 10
2.49436
 20
0.752821
 30
0.0
 40
0
 41
0
  0
VERTEX
  8
0
 10
2.40864
 20
0.838596
 30
0.0
 40
0
 41
0
  0
VERTEX
  8
0
 10
2.301
 20
0.838596
 30
0.0
 40
0
 41
0
  0
VERTEX
  8
0
 10
2.22868
 20
0.910915
 30
0.0
 40
0
 41
0
  0
VERTEX
  8
0
 10
2.22868
 20
1.08187
 30
0.0
 40
0
 41
0
  0
VERTEX
  8
0
 10
2.34711
 20
1.08187
 30
0.0
 40
0
 41
0
  0
VERTEX
  8
0
 10
2.34711
 20
0.960069
 30
0.0
 40
0
 41
0
  0
VERTEX
  8
0
 10
2.56353
 20
0.743653
 30
0.0
 40
0
 41
0
  0
VERTEX
  8
0
 10
2.6474
 20
0.827582
 30
0.0
 40
0
 41
0
  0
VERTEX
  8
0
 10
2.75131
 20
0.827582
 30
0.0
 40
0
 41
0
  0
VERTEX
  8
0
 10
2.85308
 20
0.931044
 30
0.0
 40
0
 41
0
  0
VERTEX
  8
0
 10
2.85314
 20
0.99566
 30
0.0
 40
0
 41
0
  0
VERTEX
  8
0
 10
2.86507
 20
0.99566
 30
0.0
 40
0
 41
0
  0
VERTEX
  8
0
 10
2.86513
 20
1.05002
 30
0.0
 40
0
 41
0
  0
VERTEX
  8
0
 10
2.81076
 20
1.05013
 30
0.0
 40
0
 41
0
  0
VERTEX
  8
0
 10
2.81076
 20
0.99566
 30
0.0
 40
0
 41
0
  0
VERTEX
  8
0
 10
2.82264
 20
0.99566
 30
0.0
 40
0
 41
0
  0
VERTEX
  8
0
 10
2.8226
 20
0.943522
 30
0.0
 40
0
 41
0
  0
VERTEX
  8
0
 10
2.73856
 20
0.858074
 30
0.0
 40
0
 41
0
  0
SEQEND
 8
0
  0
POLYLINE
  8
0
 62
     7
 66
     1
 10
0
 20
0
 30
0.0
 70
     1
 40
0
 41
0
  0
VERTEX
  8
0
 10
1.86783
 20
0.996636
 30
0.0
 40
0
 41
0
  0
VERTEX
  8
0
 10
1.86783
 20
1.00857
 30
0.0
 40
0
 41
0
  0
VERTEX
  8
0
 10
1.97136
 20
1.00857
 30
0.0
 40
0
 41
0
  0
VERTEX
  8
0
 10
1.97136
 20
0.996636
 30
0.0
 40
0
 41
0
  0
VERTEX
  8
0
 10
2.02572
 20
0.996636
 30
0.0
 40
0
 41
0
  0
VERTEX
  8
0
 10
2.02572
 20
1.051
 30
0.0
 40
0
 41
0
  0
VERTEX
  8
0
 10
1.97136
 20
1.051
 30
0.0
 40
0
 41
0
  0
VERTEX
  8
0
 10
1.97136
 20
1.03906
 30
0.0
 40
0
 41
0
  0
VERTEX
  8
0
 10
1.86783
 20
1.03906
 30
0.0
 40
0
 41
0
  0
VERTEX
  8
0
 10
1.86783
 20
1.051
 30
0.0
 40
0
 41
0
  0
VERTEX
  8
0
 10
1.81347
 20
1.051
 30
0.0
 40
0
 41
0
  0
VERTEX
  8
0
 10
1.81347
 20
0.996636
 30
0.0
 40
0
 41
0
  0
VERTEX
  8
0
 10
1.86783
 20
0.996636
 30
0.0
 40
0
 41
0
  0
SEQEND
 8
0
  0
POLYLINE
  8
0
 62
     7
 66
     1
 10
0
 20
0
 30
0.0
 70
     1
 40
0
 41
0
  0
VERTEX
  8
0
 10
1.73768
 20
0.564236
 30
0.0
 40
0
 41
0
  0
VERTEX
  8
0
 10
1.73768
 20
0.318956
 30
0.0
 40
0
 41
0
  0
VERTEX
  8
0
 10
1.72575
 20
0.318956
 30
0.0
 40
0
 41
0
  0
VERTEX
  8
0
 10
1.72575
 20
0.264594
 30
0.0
 40
0
 41
0
  0
VERTEX
  8
0
 10
1.78006
 20
0.264594
 30
0.0
 40
0
 41
0
  0
VERTEX
  8
0
 10
1.78006
 20
0.318956
 30
0.0
 40
0
 41
0
  0
VERTEX
  8
0
 10
1.76818
 20
0.318956
 30
0.0
 40
0
 41
0
  0
VERTEX
  8
0
 10
1.76818
 20
0.564236
 30
0.0
 40
0
 41
0
  0
VERTEX
  8
0
 10
1.78006
 20
0.564236
 30
0.0
 40
0
 41
0
  0
VERTEX
  8
0
 10
1.78006
 20
0.618599
 30
0.0
 40
0
 41
0
  0
VERTEX
  8
0
 10
1.72575
 20
0.618599
 30
0.0
 40
0
 41
0
  0
VERTEX
  8
0
 10
1.72575
 20
0.564236
 30
0.0
 40
0
 41
0
  0
VERTEX
  8
0
 10
1.73768
 20
0.564236
 30
0.0
 40
0
 41
0
  0
SEQEND
 8
0
  0
POLYLINE
  8
0
 62
     7
 66
     1
 10
0
 20
0
 30
0.0
 70
     1
 40
0
 41
0
  0
VERTEX
  8
0
 10
1.84261
 20
0.932997
 30
0.0
 40
0
 41
0
  0
VERTEX
  8
0
 10
2.08925
 20
0.932997
 30
0.0
 40
0
 41
0
  0
VERTEX
  8
0
 10
2.08925
 20
1.11236
 30
0.0
 40
0
 41
0
  0
VERTEX
  8
0
 10
1.41661
 20
1.11236
 30
0.0
 40
0
 41
0
  0
VERTEX
  8
0
 10
1.41661
 20
0.932997
 30
0.0
 40
0
 41
0
  0
VERTEX
  8
0
 10
1.66325
 20
0.932997
 30
0.0
 40
0
 41
0
  0
VERTEX
  8
0
 10
1.66325
 20
0.207411
 30
0.0
 40
0
 41
0
  0
VERTEX
  8
0
 10
1.84261
 20
0.207411
 30
0.0
 40
0
 41
0
  0
VERTEX
  8
0
 10
1.84261
 20
0.623589
 30
0.0
 40
0
 41
0
  0
VERTEX
  8
0
 10
1.76824
 20
0.697971
 30
0.0
 40
0
 41
0
  0
VERTEX
  8
0
 10
1.76824
 20
1.03906
 30
0.0
 40
0
 41
0
  0
VERTEX
  8
0
 10
1.53125
 20
1.03906
 30
0.0
 40
0
 41
0
  0
VERTEX
  8
0
 10
1.53125
 20
1.051
 30
0.0
 40
0
 41
0
  0
VERTEX
  8
0
 10
1.47689
 20
1.051
 30
0.0
 40
0
 41
0
  0
VERTEX
  8
0
 10
1.47689
 20
0.996636
 30
0.0
 40
0
 41
0
  0
VERTEX
  8
0
 10
1.53125
 20
0.996636
 30
0.0
 40
0
 41
0
  0
VERTEX
  8
0
 10
1.53125
 20
1.00857
 30
0.0
 40
0
 41
0
  0
VERTEX
  8
0
 10
1.73768
 20
1.00857
 30
0.0
 40
0
 41
0
  0
VERTEX
  8
0
 10
1.73768
 20
0.685331
 30
0.0
 40
0
 41
0
  0
VERTEX
  8
0
 10
1.81213
 20
0.610949
 30
0.0
 40
0
 41
0
  0
VERTEX
  8
0
 10
1.81213
 20
0.237901
 30
0.0
 40
0
 41
0
  0
VERTEX
  8
0
 10
1.69368
 20
0.237901
 30
0.0
 40
0
 41
0
  0
VERTEX
  8
0
 10
1.69368
 20
0.963488
 30
0.0
 40
0
 41
0
  0
VERTEX
  8
0
 10
1.4471
 20
0.963488
 30
0.0
 40
0
 41
0
  0
VERTEX
  8
0
 10
1.4471
 20
1.08187
 30
0.0
 40
0
 41
0
  0
VERTEX
  8
0
 10
2.05875
 20
1.08187
 30
0.0
 40
0
 41
0
  0
VERTEX
  8
0
 10
2.05875
 20
0.963488
 30
0.0
 40
0
 41
0
  0
VERTEX
  8
0
 10
1.81213
 20
0.963488
 30
0.0
 40
0
 41
0
  0
VERTEX
  8
0
 10
1.81213
 20
0.752115
 30
0.0
 40
0
 41
0
  0
VERTEX
  8
0
 10
1.80024
 20
0.752115
 30
0.0
 40
0
 41
0
  0
VERTEX
  8
0
 10
1.80024
 20
0.697646
 30
0.0
 40
0
 41
0
  0
VERTEX
  8
0
 10
1.85454
 20
0.697646
 30
0.0
 40
0
 41
0
  0
VERTEX
  8
0
 10
1.85454
 20
0.752115
 30
0.0
 40
0
 41
0
  0
VERTEX
  8
0
 10
1.84261
 20
0.752115
 30
0.0
 40
0
 41
0
  0
VERTEX
  8
0
 10
1.84261
 20
0.932997
 30
0.0
 40
0
 41
0
  0
SEQEND
 8
0
  0
POLYLINE
  8
0
 62
     7
 66
     1
 10
0
 20
0
 30
0.0
 70
     1
 40
0
 41
0
  0
VERTEX
  8
0
 10
1.14545
 20
0.571072
 30
0.0
 40
0
 41
0
  0
VERTEX
  8
0
 10
1.14545
 20
0.324056
 30
0.0
 40
0
 41
0
  0
VERTEX
  8
0
 10
1.13352
 20
0.324056
 30
0.0
 40
0
 41
0
  0
VERTEX
  8
0
 10
1.13352
 20
0.26964
 30
0.0
 40
0
 41
0
  0
VERTEX
  8
0
 10
1.18793
 20
0.26964
 30
0.0
 40
0
 41
0
  0
VERTEX
  8
0
 10
1.18793
 20
0.324056
 30
0.0
 40
0
 41
0
  0
VERTEX
  8
0
 10
1.176
 20
0.324056
 30
0.0
 40
0
 41
0
  0
VERTEX
  8
0
 10
1.176
 20
0.571072
 30
0.0
 40
0
 41
0
  0
VERTEX
  8
0
 10
1.18793
 20
0.571072
 30
0.0
 40
0
 41
0
  0
VERTEX
  8
0
 10
1.18793
 20
0.625379
 30
0.0
 40
0
 41
0
  0
VERTEX
  8
0
 10
1.13352
 20
0.625379
 30
0.0
 40
0
 41
0
  0
VERTEX
  8
0
 10
1.13352
 20
0.571072
 30
0.0
 40
0
 41
0
  0
VERTEX
  8
0
 10
1.14545
 20
0.571072
 30
0.0
 40
0
 41
0
  0
SEQEND
 8
0
  0
POLYLINE
  8
0
 62
     7
 66
     1
 10
0
 20
0
 30
0.0
 70
     1
 40
0
 41
0
  0
VERTEX
  8
0
 10
1.22428
 20
0.730957
 30
0.0
 40
0
 41
0
  0
VERTEX
  8
0
 10
1.27865
 20
0.730957
 30
0.0
 40
0
 41
0
  0
VERTEX
  8
0
 10
1.27865
 20
0.785319
 30
0.0
 40
0
 41
0
  0
VERTEX
  8
0
 10
1.26671
 20
0.785319
 30
0.0
 40
0
 41
0
  0
VERTEX
  8
0
 10
1.26671
 20
1.11236
 30
0.0
 40
0
 41
0
  0
VERTEX
  8
0
 10
1.05827
 20
1.11236
 30
0.0
 40
0
 41
0
  0
VERTEX
  8
0
 10
1.05827
 20
0.207357
 30
0.0
 40
0
 41
0
  0
VERTEX
  8
0
 10
1.26671
 20
0.207357
 30
0.0
 40
0
 41
0
  0
VERTEX
  8
0
 10
1.26671
 20
0.630697
 30
0.0
 40
0
 41
0
  0
VERTEX
  8
0
 10
1.19282
 20
0.704644
 30
0.0
 40
0
 41
0
  0
VERTEX
  8
0
 10
1.19282
 20
0.704644
 30
0.0
 40
0
 41
0
  0
VERTEX
  8
0
 10
1.17594
 20
0.721571
 30
0.0
 40
0
 41
0
  0
VERTEX
  8
0
 10
1.176
 20
0.995931
 30
0.0
 40
0
 41
0
  0
VERTEX
  8
0
 10
1.18793
 20
0.995931
 30
0.0
 40
0
 41
0
  0
VERTEX
  8
0
 10
1.18793
 20
1.05035
 30
0.0
 40
0
 41
0
  0
VERTEX
  8
0
 10
1.13352
 20
1.05035
 30
0.0
 40
0
 41
0
  0
VERTEX
  8
0
 10
1.13352
 20
0.995931
 30
0.0
 40
0
 41
0
  0
VERTEX
  8
0
 10
1.14545
 20
0.995931
 30
0.0
 40
0
 41
0
  0
VERTEX
  8
0
 10
1.14545
 20
0.708876
 30
0.0
 40
0
 41
0
  0
VERTEX
  8
0
 10
1.16238
 20
0.692003
 30
0.0
 40
0
 41
0
  0
VERTEX
  8
0
 10
1.23622
 20
0.61811
 30
0.0
 40
0
 41
0
  0
VERTEX
  8
0
 10
1.23622
 20
0.237901
 30
0.0
 40
0
 41
0
  0
VERTEX
  8
0
 10
1.08881
 20
0.237901
 30
0.0
 40
0
 41
0
  0
VERTEX
  8
0
 10
1.08881
 20
1.08187
 30
0.0
 40
0
 41
0
  0
VERTEX
  8
0
 10
1.23622
 20
1.08187
 30
0.0
 40
0
 41
0
  0
VERTEX
  8
0
 10
1.23622
 20
0.785319
 30
0.0
 40
0
 41
0
  0
VERTEX
  8
0
 10
1.22428
 20
0.785319
 30
0.0
 40
0
 41
0
  0
VERTEX
  8
0
 10
1.22428
 20
0.730957
 30
0.0
 40
0
 41
0
  0
SEQEND
 8
0
  0
POLYLINE
  8
0
 62
     7
 66
     1
 10
0
 20
0
 30
0.0
 70
     1
 40
0
 41
0
  0
VERTEX
  8
0
 10
0.631674
 20
0.268175
 30
0.0
 40
0
 41
0
  0
VERTEX
  8
0
 10
0.631511
 20
0.280219
 30
0.0
 40
0
 41
0
  0
VERTEX
  8
0
 10
0.667481
 20
0.280599
 30
0.0
 40
0
 41
0
  0
VERTEX
  8
0
 10
0.815864
 20
0.428711
 30
0.0
 40
0
 41
0
  0
VERTEX
  8
0
 10
0.815864
 20
0.428819
 30
0.0
 40
0
 41
0
  0
VERTEX
  8
0
 10
0.827746
 20
0.428765
 30
0.0
 40
0
 41
0
  0
VERTEX
  8
0
 10
0.828017
 20
0.483074
 30
0.0
 40
0
 41
0
  0
VERTEX
  8
0
 10
0.773708
 20
0.483399
 30
0.0
 40
0
 41
0
  0
VERTEX
  8
0
 10
0.773383
 20
0.429417
 30
0.0
 40
0
 41
0
  0
VERTEX
  8
0
 10
0.654785
 20
0.311035
 30
0.0
 40
0
 41
0
  0
VERTEX
  8
0
 10
0.631347
 20
0.31071
 30
0.0
 40
0
 41
0
  0
VERTEX
  8
0
 10
0.631239
 20
0.322592
 30
0.0
 40
0
 41
0
  0
VERTEX
  8
0
 10
0.576878
 20
0.322103
 30
0.0
 40
0
 41
0
  0
VERTEX
  8
0
 10
0.577311
 20
0.26774
 30
0.0
 40
0
 41
0
  0
VERTEX
  8
0
 10
0.631674
 20
0.268175
 30
0.0
 40
0
 41
0
  0
SEQEND
 8
0
  0
POLYLINE
  8
0
 62
     7
 66
     1
 10
0
 20
0
 30
0.0
 70
     1
 40
0
 41
0
  0
VERTEX
  8
0
 10
0.697917
 20
0.207357
 30
0.0
 40
0
 41
0
  0
VERTEX
  8
0
 10
0.891331
 20
0.397624
 30
0.0
 40
0
 41
0
  0
VERTEX
  8
0
 10
0.891331
 20
0.550022
 30
0.0
 40
0
 41
0
  0
VERTEX
  8
0
 10
0.711914
 20
0.550022
 30
0.0
 40
0
 41
0
  0
VERTEX
  8
0
 10
0.711914
 20
0.472168
 30
0.0
 40
0
 41
0
  0
VERTEX
  8
0
 10
0.626628
 20
0.386774
 30
0.0
 40
0
 41
0
  0
VERTEX
  8
0
 10
0.483453
 20
0.386774
 30
0.0
 40
0
 41
0
  0
VERTEX
  8
0
 10
0.398113
 20
0.472168
 30
0.0
 40
0
 41
0
  0
VERTEX
  8
0
 10
0.398113
 20
0.502875
 30
0.0
 40
0
 41
0
  0
VERTEX
  8
0
 10
0.409993
 20
0.502875
 30
0.0
 40
0
 41
0
  0
VERTEX
  8
0
 10
0.409993
 20
0.557238
 30
0.0
 40
0
 41
0
  0
VERTEX
  8
0
 10
0.355686
 20
0.557238
 30
0.0
 40
0
 41
0
  0
VERTEX
  8
0
 10
0.355686
 20
0.502875
 30
0.0
 40
0
 41
0
  0
VERTEX
  8
0
 10
0.367567
 20
0.502875
 30
0.0
 40
0
 41
0
  0
VERTEX
  8
0
 10
0.367567
 20
0.459526
 30
0.0
 40
0
 41
0
  0
VERTEX
  8
0
 10
0.470811
 20
0.356282
 30
0.0
 40
0
 41
0
  0
VERTEX
  8
0
 10
0.639214
 20
0.356282
 30
0.0
 40
0
 41
0
  0
VERTEX
  8
0
 10
0.742404
 20
0.459526
 30
0.0
 40
0
 41
0
  0
VERTEX
  8
0
 10
0.742404
 20
0.519476
 30
0.0
 40
0
 41
0
  0
VERTEX
  8
0
 10
0.86084
 20
0.519476
 30
0.0
 40
0
 41
0
  0
VERTEX
  8
0
 10
0.86084
 20
0.410374
 30
0.0
 40
0
 41
0
  0
VERTEX
  8
0
 10
0.685385
 20
0.237901
 30
0.0
 40
0
 41
0
  0
VERTEX
  8
0
 10
0.421604
 20
0.237901
 30
0.0
 40
0
 41
0
  0
VERTEX
  8
0
 10
0.249186
 20
0.410319
 30
0.0
 40
0
 41
0
  0
VERTEX
  8
0
 10
0.249186
 20
0.639106
 30
0.0
 40
0
 41
0
  0
VERTEX
  8
0
 10
0.261122
 20
0.639106
 30
0.0
 40
0
 41
0
  0
VERTEX
  8
0
 10
0.261122
 20
0.693522
 30
0.0
 40
0
 41
0
  0
VERTEX
  8
0
 10
0.20676
 20
0.693522
 30
0.0
 40
0
 41
0
  0
VERTEX
  8
0
 10
0.20676
 20
0.639106
 30
0.0
 40
0
 41
0
  0
VERTEX
  8
0
 10
0.218642
 20
0.639106
 30
0.0
 40
0
 41
0
  0
VERTEX
  8
0
 10
0.218642
 20
0.397678
 30
0.0
 40
0
 41
0
  0
VERTEX
  8
0
 10
0.408962
 20
0.207357
 30
0.0
 40
0
 41
0
  0
VERTEX
  8
0
 10
0.697917
 20
0.207357
 30
0.0
 40
0
 41
0
  0
SEQEND
 8
0
  0
POLYLINE
  8
0
 62
     7
 66
     1
 10
0
 20
0
 30
0.0
 70
     1
 40
0
 41
0
  0
VERTEX
  8
0
 10
0.639324
 20
0.995497
 30
0.0
 40
0
 41
0
  0
VERTEX
  8
0
 10
0.639324
 20
1.00743
 30
0.0
 40
0
 41
0
  0
VERTEX
  8
0
 10
0.660644
 20
1.00743
 30
0.0
 40
0
 41
0
  0
VERTEX
  8
0
 10
0.778429
 20
0.888997
 30
0.0
 40
0
 41
0
  0
VERTEX
  8
0
 10
0.773383
 20
0.888997
 30
0.0
 40
0
 41
0
  0
VERTEX
  8
0
 10
0.773383
 20
0.834636
 30
0.0
 40
0
 41
0
  0
VERTEX
  8
0
 10
0.827746
 20
0.834636
 30
0.0
 40
0
 41
0
  0
VERTEX
  8
0
 10
0.827746
 20
0.888997
 30
0.0
 40
0
 41
0
  0
VERTEX
  8
0
 10
0.81581
 20
0.888997
 30
0.0
 40
0
 41
0
  0
VERTEX
  8
0
 10
0.81581
 20
0.89464
 30
0.0
 40
0
 41
0
  0
VERTEX
  8
0
 10
0.673286
 20
1.03798
 30
0.0
 40
0
 41
0
  0
VERTEX
  8
0
 10
0.639324
 20
1.03798
 30
0.0
 40
0
 41
0
  0
VERTEX
  8
0
 10
0.639324
 20
1.04986
 30
0.0
 40
0
 41
0
  0
VERTEX
  8
0
 10
0.584961
 20
1.04986
 30
0.0
 40
0
 41
0
  0
VERTEX
  8
0
 10
0.584961
 20
0.995497
 30
0.0
 40
0
 41
0
  0
VERTEX
  8
0
 10
0.639324
 20
0.995497
 30
0.0
 40
0
 41
0
  0
SEQEND
 8
0
  0
POLYLINE
  8
0
 62
     7
 66
     1
 10
0
 20
0
 30
0.0
 70
     1
 40
0
 41
0
  0
VERTEX
  8
0
 10
0.711914
 20
0.771864
 30
0.0
 40
0
 41
0
  0
VERTEX
  8
0
 10
0.891331
 20
0.771864
 30
0.0
 40
0
 41
0
  0
VERTEX
  8
0
 10
0.891331
 20
0.922038
 30
0.0
 40
0
 41
0
  0
VERTEX
  8
0
 10
0.70101
 20
1.11236
 30
0.0
 40
0
 41
0
  0
VERTEX
  8
0
 10
0.570964
 20
1.11236
 30
0.0
 40
0
 41
0
  0
VERTEX
  8
0
 10
0.500435
 20
1.03678
 30
0.0
 40
0
 41
0
  0
VERTEX
  8
0
 10
0.436253
 20
1.03543
 30
0.0
 40
0
 41
0
  0
VERTEX
  8
0
 10
0.293565
 20
0.892796
 30
0.0
 40
0
 41
0
  0
VERTEX
  8
0
 10
0.293565
 20
0.845975
 30
0.0
 40
0
 41
0
  0
VERTEX
  8
0
 10
0.281629
 20
0.845975
 30
0.0
 40
0
 41
0
  0
VERTEX
  8
0
 10
0.281629
 20
0.791558
 30
0.0
 40
0
 41
0
  0
VERTEX
  8
0
 10
0.335992
 20
0.791558
 30
0.0
 40
0
 41
0
  0
VERTEX
  8
0
 10
0.335992
 20
0.845975
 30
0.0
 40
0
 41
0
  0
VERTEX
  8
0
 10
0.324056
 20
0.845975
 30
0.0
 40
0
 41
0
  0
VERTEX
  8
0
 10
0.324056
 20
0.880154
 30
0.0
 40
0
 41
0
  0
VERTEX
  8
0
 10
0.449056
 20
1.00521
 30
0.0
 40
0
 41
0
  0
VERTEX
  8
0
 10
0.513889
 20
1.00646
 30
0.0
 40
0
 41
0
  0
VERTEX
  8
0
 10
0.584201
 20
1.08187
 30
0.0
 40
0
 41
0
  0
VERTEX
  8
0
 10
0.688422
 20
1.08187
 30
0.0
 40
0
 41
0
  0
VERTEX
  8
0
 10
0.86084
 20
0.909451
 30
0.0
 40
0
 41
0
  0
VERTEX
  8
0
 10
0.86084
 20
0.802354
 30
0.0
 40
0
 41
0
  0
VERTEX
  8
0
 10
0.742404
 20
0.802354
 30
0.0
 40
0
 41
0
  0
VERTEX
  8
0
 10
0.742404
 20
0.860243
 30
0.0
 40
0
 41
0
  0
VERTEX
  8
0
 10
0.639214
 20
0.963488
 30
0.0
 40
0
 41
0
  0
VERTEX
  8
0
 10
0.470811
 20
0.963488
 30
0.0
 40
0
 41
0
  0
VERTEX
  8
0
 10
0.367567
 20
0.860243
 30
0.0
 40
0
 41
0
  0
VERTEX
  8
0
 10
0.367567
 20
0.643826
 30
0.0
 40
0
 41
0
  0
VERTEX
  8
0
 10
0.355686
 20
0.643826
 30
0.0
 40
0
 41
0
  0
VERTEX
  8
0
 10
0.355686
 20
0.589518
 30
0.0
 40
0
 41
0
  0
VERTEX
  8
0
 10
0.409993
 20
0.589518
 30
0.0
 40
0
 41
0
  0
VERTEX
  8
0
 10
0.409993
 20
0.643826
 30
0.0
 40
0
 41
0
  0
VERTEX
  8
0
 10
0.398113
 20
0.643826
 30
0.0
 40
0
 41
0
  0
VERTEX
  8
0
 10
0.398113
 20
0.847601
 30
0.0
 40
0
 41
0
  0
VERTEX
  8
0
 10
0.483453
 20
0.932943
 30
0.0
 40
0
 41
0
  0
VERTEX
  8
0
 10
0.626628
 20
0.932943
 30
0.0
 40
0
 41
0
  0
VERTEX
  8
0
 10
0.711914
 20
0.847601
 30
0.0
 40
0
 41
0
  0
VERTEX
  8
0
 10
0.711914
 20
0.771864
 30
0.0
 40
0
 41
0
  0
SEQEND
 8
0
  0
POLYLINE
  8
0
 62
     7
 66
     1
 10
0
 20
0
 30
0.0
 70
     1
 40
0
 41
0
  0
VERTEX
  8
0
 10
0.444282
 20
1.06993
 30
0.0
 40
0
 41
0
  0
VERTEX
  8
0
 10
0.498643
 20
1.06993
 30
0.0
 40
0
 41
0
  0
VERTEX
  8
0
 10
0.498643
 20
1.12424
 30
0.0
 40
0
 41
0
  0
VERTEX
  8
0
 10
0.444282
 20
1.12424
 30
0.0
 40
0
 41
0
  0
VERTEX
  8
0
 10
0.444282
 20
1.11236
 30
0.0
 40
0
 41
0
  0
VERTEX
  8
0
 10
0.408962
 20
1.11236
 30
0.0
 40
0
 41
0
  0
VERTEX
  8
0
 10
0.218642
 20
0.922038
 30
0.0
 40
0
 41
0
  0
VERTEX
  8
0
 10
0.218642
 20
0.763456
 30
0.0
 40
0
 41
0
  0
VERTEX
  8
0
 10
0.293565
 20
0.687229
 30
0.0
 40
0
 41
0
  0
VERTEX
  8
0
 10
0.293565
 20
0.426378
 30
0.0
 40
0
 41
0
  0
VERTEX
  8
0
 10
0.442763
 20
0.278375
 30
0.0
 40
0
 41
0
  0
VERTEX
  8
0
 10
0.486219
 20
0.278863
 30
0.0
 40
0
 41
0
  0
VERTEX
  8
0
 10
0.486328
 20
0.266982
 30
0.0
 40
0
 41
0
  0
VERTEX
  8
0
 10
0.54069
 20
0.267415
 30
0.0
 40
0
 41
0
  0
VERTEX
  8
0
 10
0.540201
 20
0.321778
 30
0.0
 40
0
 41
0
  0
VERTEX
  8
0
 10
0.485894
 20
0.321343
 30
0.0
 40
0
 41
0
  0
VERTEX
  8
0
 10
0.486003
 20
0.309299
 30
0.0
 40
0
 41
0
  0
VERTEX
  8
0
 10
0.45524
 20
0.308919
 30
0.0
 40
0
 41
0
  0
VERTEX
  8
0
 10
0.324056
 20
0.439074
 30
0.0
 40
0
 41
0
  0
VERTEX
  8
0
 10
0.324056
 20
0.699761
 30
0.0
 40
0
 41
0
  0
VERTEX
  8
0
 10
0.249186
 20
0.775933
 30
0.0
 40
0
 41
0
  0
VERTEX
  8
0
 10
0.249186
 20
0.909451
 30
0.0
 40
0
 41
0
  0
VERTEX
  8
0
 10
0.421604
 20
1.08187
 30
0.0
 40
0
 41
0
  0
VERTEX
  8
0
 10
0.444282
 20
1.08187
 30
0.0
 40
0
 41
0
  0
VERTEX
  8
0
 10
0.444282
 20
1.06993
 30
0.0
 40
0
 41
0
  0
SEQEND
 8
0
  0
POLYLINE
  8
0
 62
     7
 66
     1
 10
0
 20
0
 30
0.0
 70
     1
 40
0
 41
0
  0
VERTEX
  8
0
 10
2.37201
 20
0.784451
 30
0.0
 40
0
 41
0
  0
VERTEX
  8
0
 10
2.33361
 20
0.746039
 30
0.0
 40
0
 41
0
  0
VERTEX
  8
0
 10
2.37201
 20
0.707574
 30
0.0
 40
0
 41
0
  0
VERTEX
  8
0
 10
2.38049
 20
0.715983
 30
0.0
 40
0
 41
0
  0
VERTEX
  8
0
 10
2.47385
 20
0.622667
 30
0.0
 40
0
 41
0
  0
VERTEX
  8
0
 10
2.47385
 20
0.207411
 30
0.0
 40
0
 41
0
  0
VERTEX
  8
0
 10
2.65321
 20
0.207411
 30
0.0
 40
0
 41
0
  0
VERTEX
  8
0
 10
2.65321
 20
0.367079
 30
0.0
 40
0
 41
0
  0
VERTEX
  8
0
 10
2.66515
 20
0.367079
 30
0.0
 40
0
 41
0
  0
VERTEX
  8
0
 10
2.66515
 20
0.421442
 30
0.0
 40
0
 41
0
  0
VERTEX
  8
0
 10
2.61083
 20
0.421442
 30
0.0
 40
0
 41
0
  0
VERTEX
  8
0
 10
2.61083
 20
0.367079
 30
0.0
 40
0
 41
0
  0
VERTEX
  8
0
 10
2.62278
 20
0.367079
 30
0.0
 40
0
 41
0
  0
VERTEX
  8
0
 10
2.62278
 20
0.237901
 30
0.0
 40
0
 41
0
  0
VERTEX
  8
0
 10
2.50435
 20
0.237901
 30
0.0
 40
0
 41
0
  0
VERTEX
  8
0
 10
2.50435
 20
0.635308
 30
0.0
 40
0
 41
0
  0
VERTEX
  8
0
 10
2.40201
 20
0.737576
 30
0.0
 40
0
 41
0
  0
VERTEX
  8
0
 10
2.41049
 20
0.746039
 30
0.0
 40
0
 41
0
  0
VERTEX
  8
0
 10
2.37201
 20
0.784451
 30
0.0
 40
0
 41
0
  0
SEQEND
 8
0
  0
ENDSEC
  0
EOF
