  0
SECTION
  2
HEADER
  9
$ACADVER
  1
AC1009
  9
$FILLMODE
 70
 0
  9
$SPLFRAME
 70
 1
  9
$EXTMIN
 10
0
 20
0
 30
0.0
  9
$EXTMAX
 10
41.6667
 20
41.6667
 30
0.0
  0
ENDSEC
  0
SECTION
  2
TABLES
  0
TABLE
  2
LAYER
 70
1
  0
LAYER
  2
0
 70
     0
 62
     7
  6
CONTINUOUS
  0
ENDTAB
  0
ENDSEC
  0
SECTION
  2
ENTITIES
  0
POLYLINE
  8
0
 62
     0
 66
     1
 10
0
 20
0
 30
0.0
 70
     1
 40
0
 41
0
  0
VERTEX
  8
0
 10
0.633843
 20
2.44672
 30
0.0
 40
0
 41
0
  0
VERTEX
  8
0
 10
0.250597
 20
2.44586
 30
0.0
 40
0
 41
0
  0
VERTEX
  8
0
 10
0
 20
2.19526
 30
0.0
 40
0
 41
0
  0
VERTEX
  8
0
 10
0
 20
1.54047
 30
0.0
 40
0
 41
0
  0
VERTEX
  8
0
 10
0.251411
 20
1.28901
 30
0.0
 40
0
 41
0
  0
VERTEX
  8
0
 10
0.629992
 20
1.28901
 30
0.0
 40
0
 41
0
  0
VERTEX
  8
0
 10
0.885308
 20
1.54015
 30
0.0
 40
0
 41
0
  0
VERTEX
  8
0
 10
0.885308
 20
1.7876
 30
0.0
 40
0
 41
0
  0
VERTEX
  8
0
 10
0.578125
 20
1.7876
 30
0.0
 40
0
 41
0
  0
VERTEX
  8
0
 10
0.578125
 20
1.66792
 30
0.0
 40
0
 41
0
  0
VERTEX
  8
0
 10
0.506511
 20
1.59625
 30
0.0
 40
0
 41
0
  0
VERTEX
  8
0
 10
0.378961
 20
1.59625
 30
0.0
 40
0
 41
0
  0
VERTEX
  8
0
 10
0.306694
 20
1.67019
 30
0.0
 40
0
 41
0
  0
VERTEX
  8
0
 10
0.306694
 20
1.79915
 30
0.0
 40
0
 41
0
  0
VERTEX
  8
0
 10
0.307183
 20
2.06782
 30
0.0
 40
0
 41
0
  0
VERTEX
  8
0
 10
0.378851
 20
2.13949
 30
0.0
 40
0
 41
0
  0
VERTEX
  8
0
 10
0.506511
 20
2.13949
 30
0.0
 40
0
 41
0
  0
VERTEX
  8
0
 10
0.578125
 20
2.06782
 30
0.0
 40
0
 41
0
  0
VERTEX
  8
0
 10
0.578125
 20
1.95068
 30
0.0
 40
0
 41
0
  0
VERTEX
  8
0
 10
0.885308
 20
1.95068
 30
0.0
 40
0
 41
0
  0
VERTEX
  8
0
 10
0.885308
 20
2.19526
 30
0.0
 40
0
 41
0
  0
VERTEX
  8
0
 10
0.633843
 20
2.44672
 30
0.0
 40
0
 41
0
  0
SEQEND
 8
0
  0
POLYLINE
  8
0
 62
     0
 66
     1
 10
0
 20
0
 30
0.0
 70
     1
 40
0
 41
0
  0
VERTEX
  8
0
 10
3.09033
 20
2.44667
 30
0.0
 40
0
 41
0
  0
VERTEX
  8
0
 10
3.09033
 20
2.25401
 30
0.0
 40
0
 41
0
  0
VERTEX
  8
0
 10
2.92085
 20
2.08518
 30
0.0
 40
0
 41
0
  0
VERTEX
  8
0
 10
2.75136
 20
2.25472
 30
0.0
 40
0
 41
0
  0
VERTEX
  8
0
 10
2.75136
 20
2.44667
 30
0.0
 40
0
 41
0
  0
VERTEX
  8
0
 10
2.44417
 20
2.44667
 30
0.0
 40
0
 41
0
  0
VERTEX
  8
0
 10
2.44417
 20
2.12733
 30
0.0
 40
0
 41
0
  0
VERTEX
  8
0
 10
2.76725
 20
1.80414
 30
0.0
 40
0
 41
0
  0
VERTEX
  8
0
 10
2.76725
 20
1.28906
 30
0.0
 40
0
 41
0
  0
VERTEX
  8
0
 10
3.07437
 20
1.28906
 30
0.0
 40
0
 41
0
  0
VERTEX
  8
0
 10
3.07146
 20
1.80419
 30
0.0
 40
0
 41
0
  0
VERTEX
  8
0
 10
3.396
 20
2.12875
 30
0.0
 40
0
 41
0
  0
VERTEX
  8
0
 10
3.396
 20
2.44667
 30
0.0
 40
0
 41
0
  0
VERTEX
  8
0
 10
3.09033
 20
2.44667
 30
0.0
 40
0
 41
0
  0
SEQEND
 8
0
  0
POLYLINE
  8
0
 62
     0
 66
     1
 10
0
 20
0
 30
0.0
 70
     1
 40
0
 41
0
  0
VERTEX
  8
0
 10
1.45226
 20
2.44667
 30
0.0
 40
0
 41
0
  0
VERTEX
  8
0
 10
1.45226
 20
2.13954
 30
0.0
 40
0
 41
0
  0
VERTEX
  8
0
 10
1.74132
 20
2.13954
 30
0.0
 40
0
 41
0
  0
VERTEX
  8
0
 10
1.74132
 20
1.28906
 30
0.0
 40
0
 41
0
  0
VERTEX
  8
0
 10
2.04844
 20
1.28906
 30
0.0
 40
0
 41
0
  0
VERTEX
  8
0
 10
2.04844
 20
2.13954
 30
0.0
 40
0
 41
0
  0
VERTEX
  8
0
 10
2.33751
 20
2.13954
 30
0.0
 40
0
 41
0
  0
VERTEX
  8
0
 10
2.33751
 20
2.44667
 30
0.0
 40
0
 41
0
  0
VERTEX
  8
0
 10
1.45226
 20
2.44667
 30
0.0
 40
0
 41
0
  0
SEQEND
 8
0
  0
POLYLINE
  8
0
 62
     0
 66
     1
 10
0
 20
0
 30
0.0
 70
     1
 40
0
 41
0
  0
VERTEX
  8
0
 10
1.02062
 20
2.44667
 30
0.0
 40
0
 41
0
  0
VERTEX
  8
0
 10
1.02062
 20
1.28901
 30
0.0
 40
0
 41
0
  0
VERTEX
  8
0
 10
1.33827
 20
1.28901
 30
0.0
 40
0
 41
0
  0
VERTEX
  8
0
 10
1.33827
 20
1.90278
 30
0.0
 40
0
 41
0
  0
VERTEX
  8
0
 10
1.33827
 20
2.44667
 30
0.0
 40
0
 41
0
  0
VERTEX
  8
0
 10
1.02062
 20
2.44667
 30
0.0
 40
0
 41
0
  0
SEQEND
 8
0
  0
POLYLINE
  8
0
 62
     0
 66
     1
 10
0
 20
0
 30
0.0
 70
     1
 40
0
 41
0
  0
VERTEX
  8
0
 10
2.31299
 20
1.16113
 30
0.0
 40
0
 41
0
  0
VERTEX
  8
0
 10
2.31299
 20
0.00352647
 30
0.0
 40
0
 41
0
  0
VERTEX
  8
0
 10
2.82488
 20
0.00401476
 30
0.0
 40
0
 41
0
  0
VERTEX
  8
0
 10
2.87299
 20
0.00401476
 30
0.0
 40
0
 41
0
  0
VERTEX
  8
0
 10
2.87299
 20
0.00406901
 30
0.0
 40
0
 41
0
  0
VERTEX
  8
0
 10
3.06868
 20
0.00423178
 30
0.0
 40
0
 41
0
  0
VERTEX
  8
0
 10
3.26633
 20
0.201064
 30
0.0
 40
0
 41
0
  0
VERTEX
  8
0
 10
3.26633
 20
0.538411
 30
0.0
 40
0
 41
0
  0
VERTEX
  8
0
 10
3.22233
 20
0.582357
 30
0.0
 40
0
 41
0
  0
VERTEX
  8
0
 10
3.26633
 20
0.626357
 30
0.0
 40
0
 41
0
  0
VERTEX
  8
0
 10
3.26633
 20
0.963596
 30
0.0
 40
0
 41
0
  0
VERTEX
  8
0
 10
3.06879
 20
1.16113
 30
0.0
 40
0
 41
0
  0
VERTEX
  8
0
 10
2.31299
 20
1.16113
 30
0.0
 40
0
 41
0
  0
SEQEND
 8
0
  0
POLYLINE
  8
0
 62
     0
 66
     1
 10
0
 20
0
 30
0.0
 70
     1
 40
0
 41
0
  0
VERTEX
  8
0
 10
2.62022
 20
0.85395
 30
0.0
 40
0
 41
0
  0
VERTEX
  8
0
 10
2.94135
 20
0.85395
 30
0.0
 40
0
 41
0
  0
VERTEX
  8
0
 10
2.96853
 20
0.826768
 30
0.0
 40
0
 41
0
  0
VERTEX
  8
0
 10
2.96853
 20
0.760688
 30
0.0
 40
0
 41
0
  0
VERTEX
  8
0
 10
2.94243
 20
0.735894
 30
0.0
 40
0
 41
0
  0
VERTEX
  8
0
 10
2.62022
 20
0.735894
 30
0.0
 40
0
 41
0
  0
VERTEX
  8
0
 10
2.62022
 20
0.85395
 30
0.0
 40
0
 41
0
  0
SEQEND
 8
0
  0
POLYLINE
  8
0
 62
     0
 66
     1
 10
0
 20
0
 30
0.0
 70
     1
 40
0
 41
0
  0
VERTEX
  8
0
 10
2.62022
 20
0.428874
 30
0.0
 40
0
 41
0
  0
VERTEX
  8
0
 10
2.94135
 20
0.428765
 30
0.0
 40
0
 41
0
  0
VERTEX
  8
0
 10
2.96799
 20
0.402072
 30
0.0
 40
0
 41
0
  0
VERTEX
  8
0
 10
2.96696
 20
0.336317
 30
0.0
 40
0
 41
0
  0
VERTEX
  8
0
 10
2.94092
 20
0.310275
 30
0.0
 40
0
 41
0
  0
VERTEX
  8
0
 10
2.62022
 20
0.305231
 30
0.0
 40
0
 41
0
  0
VERTEX
  8
0
 10
2.62022
 20
0.428874
 30
0.0
 40
0
 41
0
  0
SEQEND
 8
0
  0
POLYLINE
  8
0
 62
     0
 66
     1
 10
0
 20
0
 30
0.0
 70
     1
 40
0
 41
0
  0
VERTEX
  8
0
 10
1.43875
 20
1.15701
 30
0.0
 40
0
 41
0
  0
VERTEX
  8
0
 10
1.18815
 20
0.908475
 30
0.0
 40
0
 41
0
  0
VERTEX
  8
0
 10
1.18815
 20
0
 30
0.0
 40
0
 41
0
  0
VERTEX
  8
0
 10
1.4936
 20
0
 30
0.0
 40
0
 41
0
  0
VERTEX
  8
0
 10
1.4936
 20
0.316569
 30
0.0
 40
0
 41
0
  0
VERTEX
  8
0
 10
1.86507
 20
0.316569
 30
0.0
 40
0
 41
0
  0
VERTEX
  8
0
 10
1.86507
 20
0
 30
0.0
 40
0
 41
0
  0
VERTEX
  8
0
 10
2.17036
 20
0
 30
0.0
 40
0
 41
0
  0
VERTEX
  8
0
 10
2.17036
 20
0.914387
 30
0.0
 40
0
 41
0
  0
VERTEX
  8
0
 10
1.91743
 20
1.15918
 30
0.0
 40
0
 41
0
  0
VERTEX
  8
0
 10
1.43875
 20
1.15701
 30
0.0
 40
0
 41
0
  0
SEQEND
 8
0
  0
POLYLINE
  8
0
 62
     0
 66
     1
 10
0
 20
0
 30
0.0
 70
     1
 40
0
 41
0
  0
VERTEX
  8
0
 10
1.49447
 20
0.778049
 30
0.0
 40
0
 41
0
  0
VERTEX
  8
0
 10
1.56625
 20
0.849826
 30
0.0
 40
0
 41
0
  0
VERTEX
  8
0
 10
1.79156
 20
0.849664
 30
0.0
 40
0
 41
0
  0
VERTEX
  8
0
 10
1.86322
 20
0.778049
 30
0.0
 40
0
 41
0
  0
VERTEX
  8
0
 10
1.86322
 20
0.623969
 30
0.0
 40
0
 41
0
  0
VERTEX
  8
0
 10
1.49447
 20
0.623969
 30
0.0
 40
0
 41
0
  0
VERTEX
  8
0
 10
1.49447
 20
0.778049
 30
0.0
 40
0
 41
0
  0
SEQEND
 8
0
  0
POLYLINE
  8
0
 62
     0
 66
     1
 10
0
 20
0
 30
0.0
 70
     1
 40
0
 41
0
  0
VERTEX
  8
0
 10
0.111979
 20
1.15913
 30
0.0
 40
0
 41
0
  0
VERTEX
  8
0
 10
0.112902
 20
0.0015191
 30
0.0
 40
0
 41
0
  0
VERTEX
  8
0
 10
1.06527
 20
0.0015191
 30
0.0
 40
0
 41
0
  0
VERTEX
  8
0
 10
1.06527
 20
0.308703
 30
0.0
 40
0
 41
0
  0
VERTEX
  8
0
 10
0.419108
 20
0.308703
 30
0.0
 40
0
 41
0
  0
VERTEX
  8
0
 10
0.419108
 20
1.15913
 30
0.0
 40
0
 41
0
  0
VERTEX
  8
0
 10
0.111979
 20
1.15913
 30
0.0
 40
0
 41
0
  0
SEQEND
 8
0
  0
POLYLINE
  8
0
 62
     7
 66
     1
 10
0
 20
0
 30
0.0
 70
     1
 40
0
 41
0
  0
VERTEX
  8
0
 10
3.34754
 20
2.14882
 30
0.0
 40
0
 41
0
  0
VERTEX
  8
0
 10
3.34754
 20
2.39822
 30
0.0
 40
0
 41
0
  0
VERTEX
  8
0
 10
3.13878
 20
2.39822
 30
0.0
 40
0
 41
0
  0
VERTEX
  8
0
 10
3.13878
 20
2.23454
 30
0.0
 40
0
 41
0
  0
VERTEX
  8
0
 10
3.10769
 20
2.20344
 30
0.0
 40
0
 41
0
  0
VERTEX
  8
0
 10
3.09776
 20
2.21338
 30
0.0
 40
0
 41
0
  0
VERTEX
  8
0
 10
3.05274
 20
2.16829
 30
0.0
 40
0
 41
0
  0
VERTEX
  8
0
 10
3.09776
 20
2.12332
 30
0.0
 40
0
 41
0
  0
VERTEX
  8
0
 10
3.14279
 20
2.16829
 30
0.0
 40
0
 41
0
  0
VERTEX
  8
0
 10
3.13292
 20
2.17822
 30
0.0
 40
0
 41
0
  0
VERTEX
  8
0
 10
3.17453
 20
2.21978
 30
0.0
 40
0
 41
0
  0
VERTEX
  8
0
 10
3.17453
 20
2.36247
 30
0.0
 40
0
 41
0
  0
VERTEX
  8
0
 10
3.31185
 20
2.36247
 30
0.0
 40
0
 41
0
  0
VERTEX
  8
0
 10
3.31185
 20
2.16363
 30
0.0
 40
0
 41
0
  0
VERTEX
  8
0
 10
2.98731
 20
1.83908
 30
0.0
 40
0
 41
0
  0
VERTEX
  8
0
 10
2.98731
 20
1.69011
 30
0.0
 40
0
 41
0
  0
VERTEX
  8
0
 10
2.903
 20
1.60585
 30
0.0
 40
0
 41
0
  0
VERTEX
  8
0
 10
2.903
 20
1.47467
 30
0.0
 40
0
 41
0
  0
VERTEX
  8
0
 10
2.889
 20
1.47467
 30
0.0
 40
0
 41
0
  0
VERTEX
  8
0
 10
2.889
 20
1.41092
 30
0.0
 40
0
 41
0
  0
VERTEX
  8
0
 10
2.95269
 20
1.41092
 30
0.0
 40
0
 41
0
  0
VERTEX
  8
0
 10
2.95269
 20
1.47467
 30
0.0
 40
0
 41
0
  0
VERTEX
  8
0
 10
2.93875
 20
1.47467
 30
0.0
 40
0
 41
0
  0
VERTEX
  8
0
 10
2.93875
 20
1.59099
 30
0.0
 40
0
 41
0
  0
VERTEX
  8
0
 10
3.023
 20
1.67535
 30
0.0
 40
0
 41
0
  0
VERTEX
  8
0
 10
3.023
 20
1.82428
 30
0.0
 40
0
 41
0
  0
VERTEX
  8
0
 10
3.34754
 20
2.14882
 30
0.0
 40
0
 41
0
  0
SEQEND
 8
0
  0
POLYLINE
  8
0
 62
     7
 66
     1
 10
0
 20
0
 30
0.0
 70
     1
 40
0
 41
0
  0
VERTEX
  8
0
 10
2.61436
 20
2.20356
 30
0.0
 40
0
 41
0
  0
VERTEX
  8
0
 10
2.61436
 20
2.2615
 30
0.0
 40
0
 41
0
  0
VERTEX
  8
0
 10
2.62842
 20
2.2615
 30
0.0
 40
0
 41
0
  0
VERTEX
  8
0
 10
2.62842
 20
2.32519
 30
0.0
 40
0
 41
0
  0
VERTEX
  8
0
 10
2.56467
 20
2.32519
 30
0.0
 40
0
 41
0
  0
VERTEX
  8
0
 10
2.56467
 20
2.2615
 30
0.0
 40
0
 41
0
  0
VERTEX
  8
0
 10
2.57867
 20
2.2615
 30
0.0
 40
0
 41
0
  0
VERTEX
  8
0
 10
2.57867
 20
2.18875
 30
0.0
 40
0
 41
0
  0
VERTEX
  8
0
 10
2.61583
 20
2.15164
 30
0.0
 40
0
 41
0
  0
VERTEX
  8
0
 10
2.6059
 20
2.14171
 30
0.0
 40
0
 41
0
  0
VERTEX
  8
0
 10
2.65099
 20
2.09663
 30
0.0
 40
0
 41
0
  0
VERTEX
  8
0
 10
2.69596
 20
2.14171
 30
0.0
 40
0
 41
0
  0
VERTEX
  8
0
 10
2.65099
 20
2.18679
 30
0.0
 40
0
 41
0
  0
VERTEX
  8
0
 10
2.64106
 20
2.17686
 30
0.0
 40
0
 41
0
  0
VERTEX
  8
0
 10
2.61436
 20
2.20356
 30
0.0
 40
0
 41
0
  0
SEQEND
 8
0
  0
POLYLINE
  8
0
 62
     7
 66
     1
 10
0
 20
0
 30
0.0
 70
     1
 40
0
 41
0
  0
VERTEX
  8
0
 10
2.93972
 20
1.74701
 30
0.0
 40
0
 41
0
  0
VERTEX
  8
0
 10
2.93972
 20
1.86046
 30
0.0
 40
0
 41
0
  0
VERTEX
  8
0
 10
3.03728
 20
1.95801
 30
0.0
 40
0
 41
0
  0
VERTEX
  8
0
 10
3.04715
 20
1.94814
 30
0.0
 40
0
 41
0
  0
VERTEX
  8
0
 10
3.09218
 20
1.99317
 30
0.0
 40
0
 41
0
  0
VERTEX
  8
0
 10
3.04715
 20
2.03819
 30
0.0
 40
0
 41
0
  0
VERTEX
  8
0
 10
3.00206
 20
1.99317
 30
0.0
 40
0
 41
0
  0
VERTEX
  8
0
 10
3.01193
 20
1.98329
 30
0.0
 40
0
 41
0
  0
VERTEX
  8
0
 10
2.90403
 20
1.87532
 30
0.0
 40
0
 41
0
  0
VERTEX
  8
0
 10
2.90403
 20
1.74701
 30
0.0
 40
0
 41
0
  0
VERTEX
  8
0
 10
2.88997
 20
1.74701
 30
0.0
 40
0
 41
0
  0
VERTEX
  8
0
 10
2.88997
 20
1.68332
 30
0.0
 40
0
 41
0
  0
VERTEX
  8
0
 10
2.95372
 20
1.68332
 30
0.0
 40
0
 41
0
  0
VERTEX
  8
0
 10
2.95372
 20
1.74701
 30
0.0
 40
0
 41
0
  0
VERTEX
  8
0
 10
2.93972
 20
1.74701
 30
0.0
 40
0
 41
0
  0
SEQEND
 8
0
  0
POLYLINE
  8
0
 62
     7
 66
     1
 10
0
 20
0
 30
0.0
 70
     1
 40
0
 41
0
  0
VERTEX
  8
0
 10
3.12597
 20
2.10021
 30
0.0
 40
0
 41
0
  0
VERTEX
  8
0
 10
3.00439
 20
2.10021
 30
0.0
 40
0
 41
0
  0
VERTEX
  8
0
 10
2.92085
 20
2.01665
 30
0.0
 40
0
 41
0
  0
VERTEX
  8
0
 10
2.7029
 20
2.2346
 30
0.0
 40
0
 41
0
  0
VERTEX
  8
0
 10
2.7029
 20
2.39822
 30
0.0
 40
0
 41
0
  0
VERTEX
  8
0
 10
2.49262
 20
2.39822
 30
0.0
 40
0
 41
0
  0
VERTEX
  8
0
 10
2.49262
 20
2.14735
 30
0.0
 40
0
 41
0
  0
VERTEX
  8
0
 10
2.59836
 20
2.04161
 30
0.0
 40
0
 41
0
  0
VERTEX
  8
0
 10
2.7245
 20
2.04161
 30
0.0
 40
0
 41
0
  0
VERTEX
  8
0
 10
2.81451
 20
1.95156
 30
0.0
 40
0
 41
0
  0
VERTEX
  8
0
 10
2.80464
 20
1.94168
 30
0.0
 40
0
 41
0
  0
VERTEX
  8
0
 10
2.84967
 20
1.89665
 30
0.0
 40
0
 41
0
  0
VERTEX
  8
0
 10
2.89475
 20
1.94168
 30
0.0
 40
0
 41
0
  0
VERTEX
  8
0
 10
2.84967
 20
1.98676
 30
0.0
 40
0
 41
0
  0
VERTEX
  8
0
 10
2.83974
 20
1.97683
 30
0.0
 40
0
 41
0
  0
VERTEX
  8
0
 10
2.73926
 20
2.07736
 30
0.0
 40
0
 41
0
  0
VERTEX
  8
0
 10
2.61313
 20
2.07736
 30
0.0
 40
0
 41
0
  0
VERTEX
  8
0
 10
2.52843
 20
2.16211
 30
0.0
 40
0
 41
0
  0
VERTEX
  8
0
 10
2.52843
 20
2.36247
 30
0.0
 40
0
 41
0
  0
VERTEX
  8
0
 10
2.66715
 20
2.36247
 30
0.0
 40
0
 41
0
  0
VERTEX
  8
0
 10
2.66715
 20
2.21978
 30
0.0
 40
0
 41
0
  0
VERTEX
  8
0
 10
2.92085
 20
1.9661
 30
0.0
 40
0
 41
0
  0
VERTEX
  8
0
 10
3.01915
 20
2.06446
 30
0.0
 40
0
 41
0
  0
VERTEX
  8
0
 10
3.1409
 20
2.06446
 30
0.0
 40
0
 41
0
  0
VERTEX
  8
0
 10
3.26019
 20
2.18571
 30
0.0
 40
0
 41
0
  0
VERTEX
  8
0
 10
3.26031
 20
2.26144
 30
0.0
 40
0
 41
0
  0
VERTEX
  8
0
 10
3.27425
 20
2.26144
 30
0.0
 40
0
 41
0
  0
VERTEX
  8
0
 10
3.27436
 20
2.32514
 30
0.0
 40
0
 41
0
  0
VERTEX
  8
0
 10
3.21061
 20
2.32531
 30
0.0
 40
0
 41
0
  0
VERTEX
  8
0
 10
3.21056
 20
2.2615
 30
0.0
 40
0
 41
0
  0
VERTEX
  8
0
 10
3.2245
 20
2.26144
 30
0.0
 40
0
 41
0
  0
VERTEX
  8
0
 10
3.22444
 20
2.20036
 30
0.0
 40
0
 41
0
  0
VERTEX
  8
0
 10
3.12597
 20
2.10021
 30
0.0
 40
0
 41
0
  0
SEQEND
 8
0
  0
POLYLINE
  8
0
 62
     7
 66
     1
 10
0
 20
0
 30
0.0
 70
     1
 40
0
 41
0
  0
VERTEX
  8
0
 10
3.00265
 20
0.117025
 30
0.0
 40
0
 41
0
  0
VERTEX
  8
0
 10
3.00265
 20
0.130968
 30
0.0
 40
0
 41
0
  0
VERTEX
  8
0
 10
3.00629
 20
0.130968
 30
0.0
 40
0
 41
0
  0
VERTEX
  8
0
 10
3.13053
 20
0.256401
 30
0.0
 40
0
 41
0
  0
VERTEX
  8
0
 10
3.13053
 20
0.483724
 30
0.0
 40
0
 41
0
  0
VERTEX
  8
0
 10
3.10682
 20
0.50841
 30
0.0
 40
0
 41
0
  0
VERTEX
  8
0
 10
3.11697
 20
0.518121
 30
0.0
 40
0
 41
0
  0
VERTEX
  8
0
 10
3.07286
 20
0.564074
 30
0.0
 40
0
 41
0
  0
VERTEX
  8
0
 10
3.02686
 20
0.519965
 30
0.0
 40
0
 41
0
  0
VERTEX
  8
0
 10
3.07096
 20
0.474012
 30
0.0
 40
0
 41
0
  0
VERTEX
  8
0
 10
3.08106
 20
0.483669
 30
0.0
 40
0
 41
0
  0
VERTEX
  8
0
 10
3.09478
 20
0.469293
 30
0.0
 40
0
 41
0
  0
VERTEX
  8
0
 10
3.09478
 20
0.271104
 30
0.0
 40
0
 41
0
  0
VERTEX
  8
0
 10
3.00265
 20
0.178114
 30
0.0
 40
0
 41
0
  0
VERTEX
  8
0
 10
3.00265
 20
0.180718
 30
0.0
 40
0
 41
0
  0
VERTEX
  8
0
 10
2.93896
 20
0.180718
 30
0.0
 40
0
 41
0
  0
VERTEX
  8
0
 10
2.93896
 20
0.117025
 30
0.0
 40
0
 41
0
  0
VERTEX
  8
0
 10
3.00265
 20
0.117025
 30
0.0
 40
0
 41
0
  0
SEQEND
 8
0
  0
POLYLINE
  8
0
 62
     7
 66
     1
 10
0
 20
0
 30
0.0
 70
     1
 40
0
 41
0
  0
VERTEX
  8
0
 10
3.01112
 20
1.0287
 30
0.0
 40
0
 41
0
  0
VERTEX
  8
0
 10
2.44607
 20
1.0287
 30
0.0
 40
0
 41
0
  0
VERTEX
  8
0
 10
2.44607
 20
0.651747
 30
0.0
 40
0
 41
0
  0
VERTEX
  8
0
 10
2.639
 20
0.651747
 30
0.0
 40
0
 41
0
  0
VERTEX
  8
0
 10
2.639
 20
0.63775
 30
0.0
 40
0
 41
0
  0
VERTEX
  8
0
 10
2.70275
 20
0.63775
 30
0.0
 40
0
 41
0
  0
VERTEX
  8
0
 10
2.70275
 20
0.701497
 30
0.0
 40
0
 41
0
  0
VERTEX
  8
0
 10
2.639
 20
0.701497
 30
0.0
 40
0
 41
0
  0
VERTEX
  8
0
 10
2.639
 20
0.687446
 30
0.0
 40
0
 41
0
  0
VERTEX
  8
0
 10
2.48178
 20
0.687446
 30
0.0
 40
0
 41
0
  0
VERTEX
  8
0
 10
2.48178
 20
0.992893
 30
0.0
 40
0
 41
0
  0
VERTEX
  8
0
 10
2.99631
 20
0.992893
 30
0.0
 40
0
 41
0
  0
VERTEX
  8
0
 10
3.09478
 20
0.894422
 30
0.0
 40
0
 41
0
  0
VERTEX
  8
0
 10
3.09478
 20
0.695421
 30
0.0
 40
0
 41
0
  0
VERTEX
  8
0
 10
2.9936
 20
0.600532
 30
0.0
 40
0
 41
0
  0
VERTEX
  8
0
 10
2.80653
 20
0.600206
 30
0.0
 40
0
 41
0
  0
VERTEX
  8
0
 10
2.7079
 20
0.513021
 30
0.0
 40
0
 41
0
  0
VERTEX
  8
0
 10
2.53597
 20
0.513021
 30
0.0
 40
0
 41
0
  0
VERTEX
  8
0
 10
2.53597
 20
0.219672
 30
0.0
 40
0
 41
0
  0
VERTEX
  8
0
 10
2.97635
 20
0.226617
 30
0.0
 40
0
 41
0
  0
VERTEX
  8
0
 10
3.05057
 20
0.300836
 30
0.0
 40
0
 41
0
  0
VERTEX
  8
0
 10
3.05274
 20
0.436469
 30
0.0
 40
0
 41
0
  0
VERTEX
  8
0
 10
2.97624
 20
0.513021
 30
0.0
 40
0
 41
0
  0
VERTEX
  8
0
 10
2.86837
 20
0.513021
 30
0.0
 40
0
 41
0
  0
VERTEX
  8
0
 10
2.86837
 20
0.526964
 30
0.0
 40
0
 41
0
  0
VERTEX
  8
0
 10
2.80469
 20
0.526964
 30
0.0
 40
0
 41
0
  0
VERTEX
  8
0
 10
2.80469
 20
0.463217
 30
0.0
 40
0
 41
0
  0
VERTEX
  8
0
 10
2.86837
 20
0.463217
 30
0.0
 40
0
 41
0
  0
VERTEX
  8
0
 10
2.86837
 20
0.477214
 30
0.0
 40
0
 41
0
  0
VERTEX
  8
0
 10
2.96143
 20
0.477214
 30
0.0
 40
0
 41
0
  0
VERTEX
  8
0
 10
3.01676
 20
0.421821
 30
0.0
 40
0
 41
0
  0
VERTEX
  8
0
 10
3.01508
 20
0.315918
 30
0.0
 40
0
 41
0
  0
VERTEX
  8
0
 10
2.96132
 20
0.262153
 30
0.0
 40
0
 41
0
  0
VERTEX
  8
0
 10
2.57172
 20
0.255968
 30
0.0
 40
0
 41
0
  0
VERTEX
  8
0
 10
2.57172
 20
0.477214
 30
0.0
 40
0
 41
0
  0
VERTEX
  8
0
 10
2.7214
 20
0.477214
 30
0.0
 40
0
 41
0
  0
VERTEX
  8
0
 10
2.82015
 20
0.564507
 30
0.0
 40
0
 41
0
  0
VERTEX
  8
0
 10
3.00776
 20
0.564833
 30
0.0
 40
0
 41
0
  0
VERTEX
  8
0
 10
3.13053
 20
0.67985
 30
0.0
 40
0
 41
0
  0
VERTEX
  8
0
 10
3.13053
 20
0.909233
 30
0.0
 40
0
 41
0
  0
VERTEX
  8
0
 10
3.01112
 20
1.0287
 30
0.0
 40
0
 41
0
  0
SEQEND
 8
0
  0
POLYLINE
  8
0
 62
     7
 66
     1
 10
0
 20
0
 30
0.0
 70
     1
 40
0
 41
0
  0
VERTEX
  8
0
 10
2.48178
 20
0.359321
 30
0.0
 40
0
 41
0
  0
VERTEX
  8
0
 10
2.48178
 20
0.563911
 30
0.0
 40
0
 41
0
  0
VERTEX
  8
0
 10
2.69954
 20
0.563911
 30
0.0
 40
0
 41
0
  0
VERTEX
  8
0
 10
2.79525
 20
0.651747
 30
0.0
 40
0
 41
0
  0
VERTEX
  8
0
 10
2.97592
 20
0.651747
 30
0.0
 40
0
 41
0
  0
VERTEX
  8
0
 10
3.05274
 20
0.724393
 30
0.0
 40
0
 41
0
  0
VERTEX
  8
0
 10
3.05274
 20
0.861654
 30
0.0
 40
0
 41
0
  0
VERTEX
  8
0
 10
2.97624
 20
0.938206
 30
0.0
 40
0
 41
0
  0
VERTEX
  8
0
 10
2.53597
 20
0.938206
 30
0.0
 40
0
 41
0
  0
VERTEX
  8
0
 10
2.53597
 20
0.78814
 30
0.0
 40
0
 41
0
  0
VERTEX
  8
0
 10
2.52203
 20
0.78814
 30
0.0
 40
0
 41
0
  0
VERTEX
  8
0
 10
2.52203
 20
0.724393
 30
0.0
 40
0
 41
0
  0
VERTEX
  8
0
 10
2.58572
 20
0.724393
 30
0.0
 40
0
 41
0
  0
VERTEX
  8
0
 10
2.58572
 20
0.78814
 30
0.0
 40
0
 41
0
  0
VERTEX
  8
0
 10
2.57172
 20
0.78814
 30
0.0
 40
0
 41
0
  0
VERTEX
  8
0
 10
2.57172
 20
0.902399
 30
0.0
 40
0
 41
0
  0
VERTEX
  8
0
 10
2.96143
 20
0.902399
 30
0.0
 40
0
 41
0
  0
VERTEX
  8
0
 10
3.01699
 20
0.846843
 30
0.0
 40
0
 41
0
  0
VERTEX
  8
0
 10
3.01699
 20
0.7398
 30
0.0
 40
0
 41
0
  0
VERTEX
  8
0
 10
2.96169
 20
0.687446
 30
0.0
 40
0
 41
0
  0
VERTEX
  8
0
 10
2.78136
 20
0.687446
 30
0.0
 40
0
 41
0
  0
VERTEX
  8
0
 10
2.6856
 20
0.599664
 30
0.0
 40
0
 41
0
  0
VERTEX
  8
0
 10
2.44607
 20
0.599664
 30
0.0
 40
0
 41
0
  0
VERTEX
  8
0
 10
2.44607
 20
0.359321
 30
0.0
 40
0
 41
0
  0
VERTEX
  8
0
 10
2.43207
 20
0.359321
 30
0.0
 40
0
 41
0
  0
VERTEX
  8
0
 10
2.43207
 20
0.295574
 30
0.0
 40
0
 41
0
  0
VERTEX
  8
0
 10
2.49576
 20
0.295574
 30
0.0
 40
0
 41
0
  0
VERTEX
  8
0
 10
2.49576
 20
0.359321
 30
0.0
 40
0
 41
0
  0
VERTEX
  8
0
 10
2.48178
 20
0.359321
 30
0.0
 40
0
 41
0
  0
SEQEND
 8
0
  0
POLYLINE
  8
0
 62
     7
 66
     1
 10
0
 20
0
 30
0.0
 70
     1
 40
0
 41
0
  0
VERTEX
  8
0
 10
3.04872
 20
1.11268
 30
0.0
 40
0
 41
0
  0
VERTEX
  8
0
 10
2.6556
 20
1.11268
 30
0.0
 40
0
 41
0
  0
VERTEX
  8
0
 10
2.6556
 20
1.12668
 30
0.0
 40
0
 41
0
  0
VERTEX
  8
0
 10
2.5919
 20
1.12668
 30
0.0
 40
0
 41
0
  0
VERTEX
  8
0
 10
2.5919
 20
1.06299
 30
0.0
 40
0
 41
0
  0
VERTEX
  8
0
 10
2.6556
 20
1.06299
 30
0.0
 40
0
 41
0
  0
VERTEX
  8
0
 10
2.6556
 20
1.07699
 30
0.0
 40
0
 41
0
  0
VERTEX
  8
0
 10
3.0339
 20
1.07699
 30
0.0
 40
0
 41
0
  0
VERTEX
  8
0
 10
3.18213
 20
0.928711
 30
0.0
 40
0
 41
0
  0
VERTEX
  8
0
 10
3.18213
 20
0.888618
 30
0.0
 40
0
 41
0
  0
VERTEX
  8
0
 10
3.16812
 20
0.888618
 30
0.0
 40
0
 41
0
  0
VERTEX
  8
0
 10
3.16812
 20
0.824869
 30
0.0
 40
0
 41
0
  0
VERTEX
  8
0
 10
3.23188
 20
0.824869
 30
0.0
 40
0
 41
0
  0
VERTEX
  8
0
 10
3.23188
 20
0.888618
 30
0.0
 40
0
 41
0
  0
VERTEX
  8
0
 10
3.21789
 20
0.888618
 30
0.0
 40
0
 41
0
  0
VERTEX
  8
0
 10
3.21789
 20
0.943522
 30
0.0
 40
0
 41
0
  0
VERTEX
  8
0
 10
3.04872
 20
1.11268
 30
0.0
 40
0
 41
0
  0
SEQEND
 8
0
  0
POLYLINE
  8
0
 62
     7
 66
     1
 10
0
 20
0
 30
0.0
 70
     1
 40
0
 41
0
  0
VERTEX
  8
0
 10
2.99024
 20
1.52474
 30
0.0
 40
0
 41
0
  0
VERTEX
  8
0
 10
2.99024
 20
1.37326
 30
0.0
 40
0
 41
0
  0
VERTEX
  8
0
 10
2.85146
 20
1.37326
 30
0.0
 40
0
 41
0
  0
VERTEX
  8
0
 10
2.85146
 20
1.83908
 30
0.0
 40
0
 41
0
  0
VERTEX
  8
0
 10
2.73156
 20
1.95899
 30
0.0
 40
0
 41
0
  0
VERTEX
  8
0
 10
2.74143
 20
1.96886
 30
0.0
 40
0
 41
0
  0
VERTEX
  8
0
 10
2.6964
 20
2.01389
 30
0.0
 40
0
 41
0
  0
VERTEX
  8
0
 10
2.65136
 20
1.96886
 30
0.0
 40
0
 41
0
  0
VERTEX
  8
0
 10
2.6964
 20
1.92378
 30
0.0
 40
0
 41
0
  0
VERTEX
  8
0
 10
2.70628
 20
1.93365
 30
0.0
 40
0
 41
0
  0
VERTEX
  8
0
 10
2.81569
 20
1.82428
 30
0.0
 40
0
 41
0
  0
VERTEX
  8
0
 10
2.81569
 20
1.33757
 30
0.0
 40
0
 41
0
  0
VERTEX
  8
0
 10
3.02593
 20
1.33757
 30
0.0
 40
0
 41
0
  0
VERTEX
  8
0
 10
3.02593
 20
1.52474
 30
0.0
 40
0
 41
0
  0
VERTEX
  8
0
 10
3.03999
 20
1.52474
 30
0.0
 40
0
 41
0
  0
VERTEX
  8
0
 10
3.03999
 20
1.58843
 30
0.0
 40
0
 41
0
  0
VERTEX
  8
0
 10
2.97624
 20
1.58843
 30
0.0
 40
0
 41
0
  0
VERTEX
  8
0
 10
2.97624
 20
1.52474
 30
0.0
 40
0
 41
0
  0
VERTEX
  8
0
 10
2.99024
 20
1.52474
 30
0.0
 40
0
 41
0
  0
SEQEND
 8
0
  0
POLYLINE
  8
0
 62
     7
 66
     1
 10
0
 20
0
 30
0.0
 70
     1
 40
0
 41
0
  0
VERTEX
  8
0
 10
2.48876
 20
1.11268
 30
0.0
 40
0
 41
0
  0
VERTEX
  8
0
 10
2.36143
 20
1.11268
 30
0.0
 40
0
 41
0
  0
VERTEX
  8
0
 10
2.36143
 20
0.280274
 30
0.0
 40
0
 41
0
  0
VERTEX
  8
0
 10
2.44624
 20
0.207032
 30
0.0
 40
0
 41
0
  0
VERTEX
  8
0
 10
2.44624
 20
0.130968
 30
0.0
 40
0
 41
0
  0
VERTEX
  8
0
 10
2.85667
 20
0.130968
 30
0.0
 40
0
 41
0
  0
VERTEX
  8
0
 10
2.93494
 20
0.0527344
 30
0.0
 40
0
 41
0
  0
VERTEX
  8
0
 10
3.04867
 20
0.0527344
 30
0.0
 40
0
 41
0
  0
VERTEX
  8
0
 10
3.21789
 20
0.221192
 30
0.0
 40
0
 41
0
  0
VERTEX
  8
0
 10
3.21789
 20
0.518283
 30
0.0
 40
0
 41
0
  0
VERTEX
  8
0
 10
3.15381
 20
0.582357
 30
0.0
 40
0
 41
0
  0
VERTEX
  8
0
 10
3.21789
 20
0.646376
 30
0.0
 40
0
 41
0
  0
VERTEX
  8
0
 10
3.21789
 20
0.719185
 30
0.0
 40
0
 41
0
  0
VERTEX
  8
0
 10
3.23188
 20
0.719185
 30
0.0
 40
0
 41
0
  0
VERTEX
  8
0
 10
3.23188
 20
0.782932
 30
0.0
 40
0
 41
0
  0
VERTEX
  8
0
 10
3.16812
 20
0.782932
 30
0.0
 40
0
 41
0
  0
VERTEX
  8
0
 10
3.16812
 20
0.719185
 30
0.0
 40
0
 41
0
  0
VERTEX
  8
0
 10
3.18213
 20
0.719185
 30
0.0
 40
0
 41
0
  0
VERTEX
  8
0
 10
3.18213
 20
0.661187
 30
0.0
 40
0
 41
0
  0
VERTEX
  8
0
 10
3.10325
 20
0.582357
 30
0.0
 40
0
 41
0
  0
VERTEX
  8
0
 10
3.18213
 20
0.503472
 30
0.0
 40
0
 41
0
  0
VERTEX
  8
0
 10
3.18213
 20
0.236057
 30
0.0
 40
0
 41
0
  0
VERTEX
  8
0
 10
3.0339
 20
0.0884332
 30
0.0
 40
0
 41
0
  0
VERTEX
  8
0
 10
2.94976
 20
0.0884332
 30
0.0
 40
0
 41
0
  0
VERTEX
  8
0
 10
2.87147
 20
0.166721
 30
0.0
 40
0
 41
0
  0
VERTEX
  8
0
 10
2.48193
 20
0.166721
 30
0.0
 40
0
 41
0
  0
VERTEX
  8
0
 10
2.48193
 20
0.223361
 30
0.0
 40
0
 41
0
  0
VERTEX
  8
0
 10
2.39725
 20
0.29655
 30
0.0
 40
0
 41
0
  0
VERTEX
  8
0
 10
2.39725
 20
1.07699
 30
0.0
 40
0
 41
0
  0
VERTEX
  8
0
 10
2.48876
 20
1.07699
 30
0.0
 40
0
 41
0
  0
VERTEX
  8
0
 10
2.48876
 20
1.06299
 30
0.0
 40
0
 41
0
  0
VERTEX
  8
0
 10
2.55251
 20
1.06299
 30
0.0
 40
0
 41
0
  0
VERTEX
  8
0
 10
2.55251
 20
1.12668
 30
0.0
 40
0
 41
0
  0
VERTEX
  8
0
 10
2.48876
 20
1.12668
 30
0.0
 40
0
 41
0
  0
VERTEX
  8
0
 10
2.48876
 20
1.11268
 30
0.0
 40
0
 41
0
  0
SEQEND
 8
0
  0
POLYLINE
  8
0
 62
     7
 66
     1
 10
0
 20
0
 30
0.0
 70
     1
 40
0
 41
0
  0
VERTEX
  8
0
 10
2.41118
 20
0.204969
 30
0.0
 40
0
 41
0
  0
VERTEX
  8
0
 10
2.3475
 20
0.204969
 30
0.0
 40
0
 41
0
  0
VERTEX
  8
0
 10
2.3475
 20
0.141276
 30
0.0
 40
0
 41
0
  0
VERTEX
  8
0
 10
2.36143
 20
0.141276
 30
0.0
 40
0
 41
0
  0
VERTEX
  8
0
 10
2.36143
 20
0.0519749
 30
0.0
 40
0
 41
0
  0
VERTEX
  8
0
 10
2.77522
 20
0.0519749
 30
0.0
 40
0
 41
0
  0
VERTEX
  8
0
 10
2.77522
 20
0.0380317
 30
0.0
 40
0
 41
0
  0
VERTEX
  8
0
 10
2.83897
 20
0.0380317
 30
0.0
 40
0
 41
0
  0
VERTEX
  8
0
 10
2.83897
 20
0.10178
 30
0.0
 40
0
 41
0
  0
VERTEX
  8
0
 10
2.77522
 20
0.10178
 30
0.0
 40
0
 41
0
  0
VERTEX
  8
0
 10
2.77522
 20
0.0877279
 30
0.0
 40
0
 41
0
  0
VERTEX
  8
0
 10
2.39725
 20
0.0877279
 30
0.0
 40
0
 41
0
  0
VERTEX
  8
0
 10
2.39725
 20
0.141276
 30
0.0
 40
0
 41
0
  0
VERTEX
  8
0
 10
2.41118
 20
0.141276
 30
0.0
 40
0
 41
0
  0
VERTEX
  8
0
 10
2.41118
 20
0.204969
 30
0.0
 40
0
 41
0
  0
SEQEND
 8
0
  0
POLYLINE
  8
0
 62
     7
 66
     1
 10
0
 20
0
 30
0.0
 70
     1
 40
0
 41
0
  0
VERTEX
  8
0
 10
2.02962
 20
2.26258
 30
0.0
 40
0
 41
0
  0
VERTEX
  8
0
 10
2.02962
 20
2.27658
 30
0.0
 40
0
 41
0
  0
VERTEX
  8
0
 10
2.15093
 20
2.27658
 30
0.0
 40
0
 41
0
  0
VERTEX
  8
0
 10
2.15093
 20
2.26258
 30
0.0
 40
0
 41
0
  0
VERTEX
  8
0
 10
2.21463
 20
2.26258
 30
0.0
 40
0
 41
0
  0
VERTEX
  8
0
 10
2.21463
 20
2.32633
 30
0.0
 40
0
 41
0
  0
VERTEX
  8
0
 10
2.15093
 20
2.32633
 30
0.0
 40
0
 41
0
  0
VERTEX
  8
0
 10
2.15093
 20
2.31233
 30
0.0
 40
0
 41
0
  0
VERTEX
  8
0
 10
2.02962
 20
2.31233
 30
0.0
 40
0
 41
0
  0
VERTEX
  8
0
 10
2.02962
 20
2.32633
 30
0.0
 40
0
 41
0
  0
VERTEX
  8
0
 10
1.96593
 20
2.32633
 30
0.0
 40
0
 41
0
  0
VERTEX
  8
0
 10
1.96593
 20
2.26258
 30
0.0
 40
0
 41
0
  0
VERTEX
  8
0
 10
2.02962
 20
2.26258
 30
0.0
 40
0
 41
0
  0
SEQEND
 8
0
  0
POLYLINE
  8
0
 62
     7
 66
     1
 10
0
 20
0
 30
0.0
 70
     1
 40
0
 41
0
  0
VERTEX
  8
0
 10
1.87701
 20
1.75581
 30
0.0
 40
0
 41
0
  0
VERTEX
  8
0
 10
1.87701
 20
1.46826
 30
0.0
 40
0
 41
0
  0
VERTEX
  8
0
 10
1.86307
 20
1.46826
 30
0.0
 40
0
 41
0
  0
VERTEX
  8
0
 10
1.86307
 20
1.40457
 30
0.0
 40
0
 41
0
  0
VERTEX
  8
0
 10
1.92676
 20
1.40457
 30
0.0
 40
0
 41
0
  0
VERTEX
  8
0
 10
1.92676
 20
1.46826
 30
0.0
 40
0
 41
0
  0
VERTEX
  8
0
 10
1.91276
 20
1.46826
 30
0.0
 40
0
 41
0
  0
VERTEX
  8
0
 10
1.91276
 20
1.75581
 30
0.0
 40
0
 41
0
  0
VERTEX
  8
0
 10
1.92676
 20
1.75581
 30
0.0
 40
0
 41
0
  0
VERTEX
  8
0
 10
1.92676
 20
1.8195
 30
0.0
 40
0
 41
0
  0
VERTEX
  8
0
 10
1.86307
 20
1.8195
 30
0.0
 40
0
 41
0
  0
VERTEX
  8
0
 10
1.86307
 20
1.75581
 30
0.0
 40
0
 41
0
  0
VERTEX
  8
0
 10
1.87701
 20
1.75581
 30
0.0
 40
0
 41
0
  0
SEQEND
 8
0
  0
POLYLINE
  8
0
 62
     7
 66
     1
 10
0
 20
0
 30
0.0
 70
     1
 40
0
 41
0
  0
VERTEX
  8
0
 10
2.00006
 20
2.18799
 30
0.0
 40
0
 41
0
  0
VERTEX
  8
0
 10
2.28907
 20
2.18799
 30
0.0
 40
0
 41
0
  0
VERTEX
  8
0
 10
2.28907
 20
2.39822
 30
0.0
 40
0
 41
0
  0
VERTEX
  8
0
 10
1.50071
 20
2.39822
 30
0.0
 40
0
 41
0
  0
VERTEX
  8
0
 10
1.50071
 20
2.18799
 30
0.0
 40
0
 41
0
  0
VERTEX
  8
0
 10
1.78976
 20
2.18799
 30
0.0
 40
0
 41
0
  0
VERTEX
  8
0
 10
1.78976
 20
1.33757
 30
0.0
 40
0
 41
0
  0
VERTEX
  8
0
 10
2.00006
 20
1.33757
 30
0.0
 40
0
 41
0
  0
VERTEX
  8
0
 10
2.00006
 20
1.82536
 30
0.0
 40
0
 41
0
  0
VERTEX
  8
0
 10
1.91282
 20
1.91254
 30
0.0
 40
0
 41
0
  0
VERTEX
  8
0
 10
1.91282
 20
2.31233
 30
0.0
 40
0
 41
0
  0
VERTEX
  8
0
 10
1.6351
 20
2.31233
 30
0.0
 40
0
 41
0
  0
VERTEX
  8
0
 10
1.6351
 20
2.32633
 30
0.0
 40
0
 41
0
  0
VERTEX
  8
0
 10
1.57135
 20
2.32633
 30
0.0
 40
0
 41
0
  0
VERTEX
  8
0
 10
1.57135
 20
2.26258
 30
0.0
 40
0
 41
0
  0
VERTEX
  8
0
 10
1.6351
 20
2.26258
 30
0.0
 40
0
 41
0
  0
VERTEX
  8
0
 10
1.6351
 20
2.27658
 30
0.0
 40
0
 41
0
  0
VERTEX
  8
0
 10
1.87706
 20
2.27658
 30
0.0
 40
0
 41
0
  0
VERTEX
  8
0
 10
1.87706
 20
1.89768
 30
0.0
 40
0
 41
0
  0
VERTEX
  8
0
 10
1.96425
 20
1.81054
 30
0.0
 40
0
 41
0
  0
VERTEX
  8
0
 10
1.96425
 20
1.37326
 30
0.0
 40
0
 41
0
  0
VERTEX
  8
0
 10
1.82553
 20
1.37326
 30
0.0
 40
0
 41
0
  0
VERTEX
  8
0
 10
1.82553
 20
2.22368
 30
0.0
 40
0
 41
0
  0
VERTEX
  8
0
 10
1.53646
 20
2.22368
 30
0.0
 40
0
 41
0
  0
VERTEX
  8
0
 10
1.53646
 20
2.36247
 30
0.0
 40
0
 41
0
  0
VERTEX
  8
0
 10
2.25336
 20
2.36247
 30
0.0
 40
0
 41
0
  0
VERTEX
  8
0
 10
2.25336
 20
2.22368
 30
0.0
 40
0
 41
0
  0
VERTEX
  8
0
 10
1.96425
 20
2.22368
 30
0.0
 40
0
 41
0
  0
VERTEX
  8
0
 10
1.96425
 20
1.97601
 30
0.0
 40
0
 41
0
  0
VERTEX
  8
0
 10
1.95036
 20
1.97601
 30
0.0
 40
0
 41
0
  0
VERTEX
  8
0
 10
1.95036
 20
1.91217
 30
0.0
 40
0
 41
0
  0
VERTEX
  8
0
 10
2.014
 20
1.91217
 30
0.0
 40
0
 41
0
  0
VERTEX
  8
0
 10
2.014
 20
1.97601
 30
0.0
 40
0
 41
0
  0
VERTEX
  8
0
 10
2.00006
 20
1.97601
 30
0.0
 40
0
 41
0
  0
VERTEX
  8
0
 10
2.00006
 20
2.18799
 30
0.0
 40
0
 41
0
  0
SEQEND
 8
0
  0
POLYLINE
  8
0
 62
     7
 66
     1
 10
0
 20
0
 30
0.0
 70
     1
 40
0
 41
0
  0
VERTEX
  8
0
 10
1.8156
 20
1.03841
 30
0.0
 40
0
 41
0
  0
VERTEX
  8
0
 10
1.75185
 20
1.03841
 30
0.0
 40
0
 41
0
  0
VERTEX
  8
0
 10
1.75185
 20
0.974718
 30
0.0
 40
0
 41
0
  0
VERTEX
  8
0
 10
1.8156
 20
0.974718
 30
0.0
 40
0
 41
0
  0
VERTEX
  8
0
 10
1.8156
 20
0.988661
 30
0.0
 40
0
 41
0
  0
VERTEX
  8
0
 10
1.85519
 20
0.988661
 30
0.0
 40
0
 41
0
  0
VERTEX
  8
0
 10
1.99804
 20
0.845865
 30
0.0
 40
0
 41
0
  0
VERTEX
  8
0
 10
1.99804
 20
0.606825
 30
0.0
 40
0
 41
0
  0
VERTEX
  8
0
 10
1.98406
 20
0.606825
 30
0.0
 40
0
 41
0
  0
VERTEX
  8
0
 10
1.98406
 20
0.543132
 30
0.0
 40
0
 41
0
  0
VERTEX
  8
0
 10
2.04779
 20
0.543132
 30
0.0
 40
0
 41
0
  0
VERTEX
  8
0
 10
2.04779
 20
0.606825
 30
0.0
 40
0
 41
0
  0
VERTEX
  8
0
 10
2.03381
 20
0.606825
 30
0.0
 40
0
 41
0
  0
VERTEX
  8
0
 10
2.03381
 20
0.860678
 30
0.0
 40
0
 41
0
  0
VERTEX
  8
0
 10
1.87001
 20
1.02441
 30
0.0
 40
0
 41
0
  0
VERTEX
  8
0
 10
1.8156
 20
1.02441
 30
0.0
 40
0
 41
0
  0
VERTEX
  8
0
 10
1.8156
 20
1.03841
 30
0.0
 40
0
 41
0
  0
SEQEND
 8
0
  0
POLYLINE
  8
0
 62
     7
 66
     1
 10
0
 20
0
 30
0.0
 70
     1
 40
0
 41
0
  0
VERTEX
  8
0
 10
1.49317
 20
1.02441
 30
0.0
 40
0
 41
0
  0
VERTEX
  8
0
 10
1.32189
 20
0.853136
 30
0.0
 40
0
 41
0
  0
VERTEX
  8
0
 10
1.32189
 20
0.454372
 30
0.0
 40
0
 41
0
  0
VERTEX
  8
0
 10
1.49414
 20
0.454372
 30
0.0
 40
0
 41
0
  0
VERTEX
  8
0
 10
1.49414
 20
0.440375
 30
0.0
 40
0
 41
0
  0
VERTEX
  8
0
 10
1.55783
 20
0.440375
 30
0.0
 40
0
 41
0
  0
VERTEX
  8
0
 10
1.55783
 20
0.504178
 30
0.0
 40
0
 41
0
  0
VERTEX
  8
0
 10
1.49414
 20
0.504178
 30
0.0
 40
0
 41
0
  0
VERTEX
  8
0
 10
1.49414
 20
0.490126
 30
0.0
 40
0
 41
0
  0
VERTEX
  8
0
 10
1.35764
 20
0.490126
 30
0.0
 40
0
 41
0
  0
VERTEX
  8
0
 10
1.35764
 20
0.838325
 30
0.0
 40
0
 41
0
  0
VERTEX
  8
0
 10
1.50792
 20
0.988661
 30
0.0
 40
0
 41
0
  0
VERTEX
  8
0
 10
1.65147
 20
0.988661
 30
0.0
 40
0
 41
0
  0
VERTEX
  8
0
 10
1.74349
 20
0.898167
 30
0.0
 40
0
 41
0
  0
VERTEX
  8
0
 10
1.81164
 20
0.898167
 30
0.0
 40
0
 41
0
  0
VERTEX
  8
0
 10
1.91168
 20
0.798122
 30
0.0
 40
0
 41
0
  0
VERTEX
  8
0
 10
1.91168
 20
0.575575
 30
0.0
 40
0
 41
0
  0
VERTEX
  8
0
 10
1.44601
 20
0.575575
 30
0.0
 40
0
 41
0
  0
VERTEX
  8
0
 10
1.44601
 20
0.798122
 30
0.0
 40
0
 41
0
  0
VERTEX
  8
0
 10
1.54601
 20
0.898167
 30
0.0
 40
0
 41
0
  0
VERTEX
  8
0
 10
1.60221
 20
0.898167
 30
0.0
 40
0
 41
0
  0
VERTEX
  8
0
 10
1.60221
 20
0.884169
 30
0.0
 40
0
 41
0
  0
VERTEX
  8
0
 10
1.6659
 20
0.884169
 30
0.0
 40
0
 41
0
  0
VERTEX
  8
0
 10
1.6659
 20
0.947863
 30
0.0
 40
0
 41
0
  0
VERTEX
  8
0
 10
1.60221
 20
0.947863
 30
0.0
 40
0
 41
0
  0
VERTEX
  8
0
 10
1.60221
 20
0.933919
 30
0.0
 40
0
 41
0
  0
VERTEX
  8
0
 10
1.53125
 20
0.933919
 30
0.0
 40
0
 41
0
  0
VERTEX
  8
0
 10
1.41026
 20
0.812935
 30
0.0
 40
0
 41
0
  0
VERTEX
  8
0
 10
1.41026
 20
0.539768
 30
0.0
 40
0
 41
0
  0
VERTEX
  8
0
 10
1.94743
 20
0.539768
 30
0.0
 40
0
 41
0
  0
VERTEX
  8
0
 10
1.94743
 20
0.812935
 30
0.0
 40
0
 41
0
  0
VERTEX
  8
0
 10
1.82644
 20
0.933919
 30
0.0
 40
0
 41
0
  0
VERTEX
  8
0
 10
1.75814
 20
0.933919
 30
0.0
 40
0
 41
0
  0
VERTEX
  8
0
 10
1.66618
 20
1.02441
 30
0.0
 40
0
 41
0
  0
VERTEX
  8
0
 10
1.49317
 20
1.02441
 30
0.0
 40
0
 41
0
  0
SEQEND
 8
0
  0
POLYLINE
  8
0
 62
     7
 66
     1
 10
0
 20
0
 30
0.0
 70
     1
 40
0
 41
0
  0
VERTEX
  8
0
 10
1.32189
 20
0.335124
 30
0.0
 40
0
 41
0
  0
VERTEX
  8
0
 10
1.32189
 20
0.2028
 30
0.0
 40
0
 41
0
  0
VERTEX
  8
0
 10
1.30789
 20
0.2028
 30
0.0
 40
0
 41
0
  0
VERTEX
  8
0
 10
1.30789
 20
0.139106
 30
0.0
 40
0
 41
0
  0
VERTEX
  8
0
 10
1.37158
 20
0.139106
 30
0.0
 40
0
 41
0
  0
VERTEX
  8
0
 10
1.37158
 20
0.2028
 30
0.0
 40
0
 41
0
  0
VERTEX
  8
0
 10
1.35764
 20
0.2028
 30
0.0
 40
0
 41
0
  0
VERTEX
  8
0
 10
1.35764
 20
0.335124
 30
0.0
 40
0
 41
0
  0
VERTEX
  8
0
 10
1.37158
 20
0.335124
 30
0.0
 40
0
 41
0
  0
VERTEX
  8
0
 10
1.37158
 20
0.398817
 30
0.0
 40
0
 41
0
  0
VERTEX
  8
0
 10
1.30789
 20
0.398817
 30
0.0
 40
0
 41
0
  0
VERTEX
  8
0
 10
1.30789
 20
0.335124
 30
0.0
 40
0
 41
0
  0
VERTEX
  8
0
 10
1.32189
 20
0.335124
 30
0.0
 40
0
 41
0
  0
SEQEND
 8
0
  0
POLYLINE
  8
0
 62
     7
 66
     1
 10
0
 20
0
 30
0.0
 70
     1
 40
0
 41
0
  0
VERTEX
  8
0
 10
1.89774
 20
1.11068
 30
0.0
 40
0
 41
0
  0
VERTEX
  8
0
 10
1.45876
 20
1.10862
 30
0.0
 40
0
 41
0
  0
VERTEX
  8
0
 10
1.2366
 20
0.888237
 30
0.0
 40
0
 41
0
  0
VERTEX
  8
0
 10
1.2366
 20
0.0484483
 30
0.0
 40
0
 41
0
  0
VERTEX
  8
0
 10
1.44521
 20
0.0484483
 30
0.0
 40
0
 41
0
  0
VERTEX
  8
0
 10
1.44521
 20
0.365018
 30
0.0
 40
0
 41
0
  0
VERTEX
  8
0
 10
1.58751
 20
0.365018
 30
0.0
 40
0
 41
0
  0
VERTEX
  8
0
 10
1.68365
 20
0.454372
 30
0.0
 40
0
 41
0
  0
VERTEX
  8
0
 10
1.99804
 20
0.454372
 30
0.0
 40
0
 41
0
  0
VERTEX
  8
0
 10
1.99804
 20
0.2028
 30
0.0
 40
0
 41
0
  0
VERTEX
  8
0
 10
1.98406
 20
0.2028
 30
0.0
 40
0
 41
0
  0
VERTEX
  8
0
 10
1.98406
 20
0.139106
 30
0.0
 40
0
 41
0
  0
VERTEX
  8
0
 10
2.04779
 20
0.139106
 30
0.0
 40
0
 41
0
  0
VERTEX
  8
0
 10
2.04779
 20
0.2028
 30
0.0
 40
0
 41
0
  0
VERTEX
  8
0
 10
2.03381
 20
0.2028
 30
0.0
 40
0
 41
0
  0
VERTEX
  8
0
 10
2.03381
 20
0.490126
 30
0.0
 40
0
 41
0
  0
VERTEX
  8
0
 10
1.6696
 20
0.490126
 30
0.0
 40
0
 41
0
  0
VERTEX
  8
0
 10
1.57346
 20
0.400717
 30
0.0
 40
0
 41
0
  0
VERTEX
  8
0
 10
1.4095
 20
0.400717
 30
0.0
 40
0
 41
0
  0
VERTEX
  8
0
 10
1.4095
 20
0.0842014
 30
0.0
 40
0
 41
0
  0
VERTEX
  8
0
 10
1.27235
 20
0.0842014
 30
0.0
 40
0
 41
0
  0
VERTEX
  8
0
 10
1.27235
 20
0.873372
 30
0.0
 40
0
 41
0
  0
VERTEX
  8
0
 10
1.47364
 20
1.07297
 30
0.0
 40
0
 41
0
  0
VERTEX
  8
0
 10
1.88325
 20
1.07487
 30
0.0
 40
0
 41
0
  0
VERTEX
  8
0
 10
2.07215
 20
0.889594
 30
0.0
 40
0
 41
0
  0
VERTEX
  8
0
 10
2.07215
 20
0.848904
 30
0.0
 40
0
 41
0
  0
VERTEX
  8
0
 10
2.1359
 20
0.848904
 30
0.0
 40
0
 41
0
  0
VERTEX
  8
0
 10
2.1359
 20
0.912651
 30
0.0
 40
0
 41
0
  0
VERTEX
  8
0
 10
2.09972
 20
0.912651
 30
0.0
 40
0
 41
0
  0
VERTEX
  8
0
 10
1.89774
 20
1.11068
 30
0.0
 40
0
 41
0
  0
SEQEND
 8
0
  0
POLYLINE
  8
0
 62
     7
 66
     1
 10
0
 20
0
 30
0.0
 70
     1
 40
0
 41
0
  0
VERTEX
  8
0
 10
1.15885
 20
1.76378
 30
0.0
 40
0
 41
0
  0
VERTEX
  8
0
 10
1.15885
 20
1.47428
 30
0.0
 40
0
 41
0
  0
VERTEX
  8
0
 10
1.1448
 20
1.47428
 30
0.0
 40
0
 41
0
  0
VERTEX
  8
0
 10
1.1448
 20
1.41049
 30
0.0
 40
0
 41
0
  0
VERTEX
  8
0
 10
1.20855
 20
1.41049
 30
0.0
 40
0
 41
0
  0
VERTEX
  8
0
 10
1.20855
 20
1.47428
 30
0.0
 40
0
 41
0
  0
VERTEX
  8
0
 10
1.19461
 20
1.47428
 30
0.0
 40
0
 41
0
  0
VERTEX
  8
0
 10
1.19461
 20
1.76378
 30
0.0
 40
0
 41
0
  0
VERTEX
  8
0
 10
1.20855
 20
1.76378
 30
0.0
 40
0
 41
0
  0
VERTEX
  8
0
 10
1.20855
 20
1.82747
 30
0.0
 40
0
 41
0
  0
VERTEX
  8
0
 10
1.1448
 20
1.82747
 30
0.0
 40
0
 41
0
  0
VERTEX
  8
0
 10
1.1448
 20
1.76378
 30
0.0
 40
0
 41
0
  0
VERTEX
  8
0
 10
1.15885
 20
1.76378
 30
0.0
 40
0
 41
0
  0
SEQEND
 8
0
  0
POLYLINE
  8
0
 62
     7
 66
     1
 10
0
 20
0
 30
0.0
 70
     1
 40
0
 41
0
  0
VERTEX
  8
0
 10
1.24018
 20
1.95122
 30
0.0
 40
0
 41
0
  0
VERTEX
  8
0
 10
1.30382
 20
1.95122
 30
0.0
 40
0
 41
0
  0
VERTEX
  8
0
 10
1.30382
 20
2.01492
 30
0.0
 40
0
 41
0
  0
VERTEX
  8
0
 10
1.28982
 20
2.01492
 30
0.0
 40
0
 41
0
  0
VERTEX
  8
0
 10
1.28982
 20
2.39822
 30
0.0
 40
0
 41
0
  0
VERTEX
  8
0
 10
1.06907
 20
2.39822
 30
0.0
 40
0
 41
0
  0
VERTEX
  8
0
 10
1.06907
 20
1.33751
 30
0.0
 40
0
 41
0
  0
VERTEX
  8
0
 10
1.28982
 20
1.33751
 30
0.0
 40
0
 41
0
  0
VERTEX
  8
0
 10
1.28982
 20
1.83365
 30
0.0
 40
0
 41
0
  0
VERTEX
  8
0
 10
1.1945
 20
1.94015
 30
0.0
 40
0
 41
0
  0
VERTEX
  8
0
 10
1.19461
 20
2.26178
 30
0.0
 40
0
 41
0
  0
VERTEX
  8
0
 10
1.20855
 20
2.26178
 30
0.0
 40
0
 41
0
  0
VERTEX
  8
0
 10
1.20855
 20
2.32553
 30
0.0
 40
0
 41
0
  0
VERTEX
  8
0
 10
1.1448
 20
2.32553
 30
0.0
 40
0
 41
0
  0
VERTEX
  8
0
 10
1.1448
 20
2.26178
 30
0.0
 40
0
 41
0
  0
VERTEX
  8
0
 10
1.15885
 20
2.26178
 30
0.0
 40
0
 41
0
  0
VERTEX
  8
0
 10
1.15875
 20
1.92535
 30
0.0
 40
0
 41
0
  0
VERTEX
  8
0
 10
1.25412
 20
1.8189
 30
0.0
 40
0
 41
0
  0
VERTEX
  8
0
 10
1.25412
 20
1.37326
 30
0.0
 40
0
 41
0
  0
VERTEX
  8
0
 10
1.10482
 20
1.37326
 30
0.0
 40
0
 41
0
  0
VERTEX
  8
0
 10
1.10482
 20
2.36247
 30
0.0
 40
0
 41
0
  0
VERTEX
  8
0
 10
1.25412
 20
2.36247
 30
0.0
 40
0
 41
0
  0
VERTEX
  8
0
 10
1.25412
 20
2.01492
 30
0.0
 40
0
 41
0
  0
VERTEX
  8
0
 10
1.24018
 20
2.01492
 30
0.0
 40
0
 41
0
  0
VERTEX
  8
0
 10
1.24018
 20
1.95122
 30
0.0
 40
0
 41
0
  0
SEQEND
 8
0
  0
POLYLINE
  8
0
 62
     7
 66
     1
 10
0
 20
0
 30
0.0
 70
     1
 40
0
 41
0
  0
VERTEX
  8
0
 10
0.626465
 20
0.115831
 30
0.0
 40
0
 41
0
  0
VERTEX
  8
0
 10
0.626465
 20
0.129829
 30
0.0
 40
0
 41
0
  0
VERTEX
  8
0
 10
0.87755
 20
0.129829
 30
0.0
 40
0
 41
0
  0
VERTEX
  8
0
 10
0.87755
 20
0.115831
 30
0.0
 40
0
 41
0
  0
VERTEX
  8
0
 10
0.941243
 20
0.115831
 30
0.0
 40
0
 41
0
  0
VERTEX
  8
0
 10
0.941243
 20
0.179579
 30
0.0
 40
0
 41
0
  0
VERTEX
  8
0
 10
0.87755
 20
0.179579
 30
0.0
 40
0
 41
0
  0
VERTEX
  8
0
 10
0.87755
 20
0.165582
 30
0.0
 40
0
 41
0
  0
VERTEX
  8
0
 10
0.626465
 20
0.165582
 30
0.0
 40
0
 41
0
  0
VERTEX
  8
0
 10
0.626465
 20
0.179579
 30
0.0
 40
0
 41
0
  0
VERTEX
  8
0
 10
0.562717
 20
0.179579
 30
0.0
 40
0
 41
0
  0
VERTEX
  8
0
 10
0.562717
 20
0.115831
 30
0.0
 40
0
 41
0
  0
VERTEX
  8
0
 10
0.626465
 20
0.115831
 30
0.0
 40
0
 41
0
  0
SEQEND
 8
0
  0
POLYLINE
  8
0
 62
     7
 66
     1
 10
0
 20
0
 30
0.0
 70
     1
 40
0
 41
0
  0
VERTEX
  8
0
 10
0.161296
 20
0.0499675
 30
0.0
 40
0
 41
0
  0
VERTEX
  8
0
 10
1.01687
 20
0.0499675
 30
0.0
 40
0
 41
0
  0
VERTEX
  8
0
 10
1.01687
 20
0.260254
 30
0.0
 40
0
 41
0
  0
VERTEX
  8
0
 10
0.545628
 20
0.260254
 30
0.0
 40
0
 41
0
  0
VERTEX
  8
0
 10
0.456272
 20
0.165582
 30
0.0
 40
0
 41
0
  0
VERTEX
  8
0
 10
0.280111
 20
0.165582
 30
0.0
 40
0
 41
0
  0
VERTEX
  8
0
 10
0.280111
 20
0.418186
 30
0.0
 40
0
 41
0
  0
VERTEX
  8
0
 10
0.294054
 20
0.418186
 30
0.0
 40
0
 41
0
  0
VERTEX
  8
0
 10
0.294054
 20
0.481879
 30
0.0
 40
0
 41
0
  0
VERTEX
  8
0
 10
0.23036
 20
0.481879
 30
0.0
 40
0
 41
0
  0
VERTEX
  8
0
 10
0.23036
 20
0.418186
 30
0.0
 40
0
 41
0
  0
VERTEX
  8
0
 10
0.244358
 20
0.418186
 30
0.0
 40
0
 41
0
  0
VERTEX
  8
0
 10
0.244358
 20
0.129829
 30
0.0
 40
0
 41
0
  0
VERTEX
  8
0
 10
0.471679
 20
0.129829
 30
0.0
 40
0
 41
0
  0
VERTEX
  8
0
 10
0.561035
 20
0.224447
 30
0.0
 40
0
 41
0
  0
VERTEX
  8
0
 10
0.981065
 20
0.224447
 30
0.0
 40
0
 41
0
  0
VERTEX
  8
0
 10
0.981065
 20
0.0856663
 30
0.0
 40
0
 41
0
  0
VERTEX
  8
0
 10
0.197049
 20
0.0856663
 30
0.0
 40
0
 41
0
  0
VERTEX
  8
0
 10
0.197049
 20
0.477919
 30
0.0
 40
0
 41
0
  0
VERTEX
  8
0
 10
0.282824
 20
0.563097
 30
0.0
 40
0
 41
0
  0
VERTEX
  8
0
 10
0.282824
 20
0.974229
 30
0.0
 40
0
 41
0
  0
VERTEX
  8
0
 10
0.296767
 20
0.974229
 30
0.0
 40
0
 41
0
  0
VERTEX
  8
0
 10
0.296767
 20
1.03792
 30
0.0
 40
0
 41
0
  0
VERTEX
  8
0
 10
0.233128
 20
1.03792
 30
0.0
 40
0
 41
0
  0
VERTEX
  8
0
 10
0.233128
 20
0.974229
 30
0.0
 40
0
 41
0
  0
VERTEX
  8
0
 10
0.247125
 20
0.974229
 30
0.0
 40
0
 41
0
  0
VERTEX
  8
0
 10
0.247125
 20
0.577963
 30
0.0
 40
0
 41
0
  0
VERTEX
  8
0
 10
0.161296
 20
0.492839
 30
0.0
 40
0
 41
0
  0
VERTEX
  8
0
 10
0.161296
 20
0.0499675
 30
0.0
 40
0
 41
0
  0
SEQEND
 8
0
  0
POLYLINE
  8
0
 62
     7
 66
     1
 10
0
 20
0
 30
0.0
 70
     1
 40
0
 41
0
  0
VERTEX
  8
0
 10
0.541504
 20
2.26129
 30
0.0
 40
0
 41
0
  0
VERTEX
  8
0
 10
0.541504
 20
2.27522
 30
0.0
 40
0
 41
0
  0
VERTEX
  8
0
 10
0.566461
 20
2.27522
 30
0.0
 40
0
 41
0
  0
VERTEX
  8
0
 10
0.704536
 20
2.13644
 30
0.0
 40
0
 41
0
  0
VERTEX
  8
0
 10
0.698622
 20
2.13644
 30
0.0
 40
0
 41
0
  0
VERTEX
  8
0
 10
0.698622
 20
2.07269
 30
0.0
 40
0
 41
0
  0
VERTEX
  8
0
 10
0.762369
 20
2.07269
 30
0.0
 40
0
 41
0
  0
VERTEX
  8
0
 10
0.762369
 20
2.13644
 30
0.0
 40
0
 41
0
  0
VERTEX
  8
0
 10
0.748372
 20
2.13644
 30
0.0
 40
0
 41
0
  0
VERTEX
  8
0
 10
0.748372
 20
2.14307
 30
0.0
 40
0
 41
0
  0
VERTEX
  8
0
 10
0.581326
 20
2.31104
 30
0.0
 40
0
 41
0
  0
VERTEX
  8
0
 10
0.541504
 20
2.31104
 30
0.0
 40
0
 41
0
  0
VERTEX
  8
0
 10
0.541504
 20
2.32497
 30
0.0
 40
0
 41
0
  0
VERTEX
  8
0
 10
0.477756
 20
2.32497
 30
0.0
 40
0
 41
0
  0
VERTEX
  8
0
 10
0.477756
 20
2.26129
 30
0.0
 40
0
 41
0
  0
VERTEX
  8
0
 10
0.541504
 20
2.26129
 30
0.0
 40
0
 41
0
  0
SEQEND
 8
0
  0
POLYLINE
  8
0
 62
     7
 66
     1
 10
0
 20
0
 30
0.0
 70
     1
 40
0
 41
0
  0
VERTEX
  8
0
 10
0.83686
 20
1.99914
 30
0.0
 40
0
 41
0
  0
VERTEX
  8
0
 10
0.83686
 20
2.17512
 30
0.0
 40
0
 41
0
  0
VERTEX
  8
0
 10
0.613824
 20
2.39822
 30
0.0
 40
0
 41
0
  0
VERTEX
  8
0
 10
0.461317
 20
2.39822
 30
0.0
 40
0
 41
0
  0
VERTEX
  8
0
 10
0.378689
 20
2.30963
 30
0.0
 40
0
 41
0
  0
VERTEX
  8
0
 10
0.30344
 20
2.30811
 30
0.0
 40
0
 41
0
  0
VERTEX
  8
0
 10
0.13623
 20
2.1409
 30
0.0
 40
0
 41
0
  0
VERTEX
  8
0
 10
0.13623
 20
2.08599
 30
0.0
 40
0
 41
0
  0
VERTEX
  8
0
 10
0.122233
 20
2.08599
 30
0.0
 40
0
 41
0
  0
VERTEX
  8
0
 10
0.122233
 20
2.02225
 30
0.0
 40
0
 41
0
  0
VERTEX
  8
0
 10
0.185926
 20
2.02225
 30
0.0
 40
0
 41
0
  0
VERTEX
  8
0
 10
0.185926
 20
2.08599
 30
0.0
 40
0
 41
0
  0
VERTEX
  8
0
 10
0.171983
 20
2.08599
 30
0.0
 40
0
 41
0
  0
VERTEX
  8
0
 10
0.171983
 20
2.12608
 30
0.0
 40
0
 41
0
  0
VERTEX
  8
0
 10
0.318468
 20
2.27262
 30
0.0
 40
0
 41
0
  0
VERTEX
  8
0
 10
0.394476
 20
2.27408
 30
0.0
 40
0
 41
0
  0
VERTEX
  8
0
 10
0.476833
 20
2.36247
 30
0.0
 40
0
 41
0
  0
VERTEX
  8
0
 10
0.599012
 20
2.36247
 30
0.0
 40
0
 41
0
  0
VERTEX
  8
0
 10
0.801053
 20
2.16037
 30
0.0
 40
0
 41
0
  0
VERTEX
  8
0
 10
0.801053
 20
2.03494
 30
0.0
 40
0
 41
0
  0
VERTEX
  8
0
 10
0.662326
 20
2.03494
 30
0.0
 40
0
 41
0
  0
VERTEX
  8
0
 10
0.662326
 20
2.10271
 30
0.0
 40
0
 41
0
  0
VERTEX
  8
0
 10
0.541396
 20
2.22368
 30
0.0
 40
0
 41
0
  0
VERTEX
  8
0
 10
0.343967
 20
2.22368
 30
0.0
 40
0
 41
0
  0
VERTEX
  8
0
 10
0.222982
 20
2.10271
 30
0.0
 40
0
 41
0
  0
VERTEX
  8
0
 10
0.222982
 20
1.84907
 30
0.0
 40
0
 41
0
  0
VERTEX
  8
0
 10
0.208985
 20
1.84907
 30
0.0
 40
0
 41
0
  0
VERTEX
  8
0
 10
0.208985
 20
1.78537
 30
0.0
 40
0
 41
0
  0
VERTEX
  8
0
 10
0.272678
 20
1.78537
 30
0.0
 40
0
 41
0
  0
VERTEX
  8
0
 10
0.272678
 20
1.84907
 30
0.0
 40
0
 41
0
  0
VERTEX
  8
0
 10
0.258735
 20
1.84907
 30
0.0
 40
0
 41
0
  0
VERTEX
  8
0
 10
0.258735
 20
2.08789
 30
0.0
 40
0
 41
0
  0
VERTEX
  8
0
 10
0.358778
 20
2.18793
 30
0.0
 40
0
 41
0
  0
VERTEX
  8
0
 10
0.526585
 20
2.18793
 30
0.0
 40
0
 41
0
  0
VERTEX
  8
0
 10
0.626574
 20
2.08789
 30
0.0
 40
0
 41
0
  0
VERTEX
  8
0
 10
0.626574
 20
1.99914
 30
0.0
 40
0
 41
0
  0
VERTEX
  8
0
 10
0.83686
 20
1.99914
 30
0.0
 40
0
 41
0
  0
SEQEND
 8
0
  0
POLYLINE
  8
0
 62
     7
 66
     1
 10
0
 20
0
 30
0.0
 70
     1
 40
0
 41
0
  0
VERTEX
  8
0
 10
0.312879
 20
2.34853
 30
0.0
 40
0
 41
0
  0
VERTEX
  8
0
 10
0.376574
 20
2.34853
 30
0.0
 40
0
 41
0
  0
VERTEX
  8
0
 10
0.376574
 20
2.41222
 30
0.0
 40
0
 41
0
  0
VERTEX
  8
0
 10
0.312879
 20
2.41222
 30
0.0
 40
0
 41
0
  0
VERTEX
  8
0
 10
0.312879
 20
2.39822
 30
0.0
 40
0
 41
0
  0
VERTEX
  8
0
 10
0.271485
 20
2.39822
 30
0.0
 40
0
 41
0
  0
VERTEX
  8
0
 10
0.0484483
 20
2.17512
 30
0.0
 40
0
 41
0
  0
VERTEX
  8
0
 10
0.0484483
 20
1.98926
 30
0.0
 40
0
 41
0
  0
VERTEX
  8
0
 10
0.13623
 20
1.89996
 30
0.0
 40
0
 41
0
  0
VERTEX
  8
0
 10
0.13623
 20
1.59424
 30
0.0
 40
0
 41
0
  0
VERTEX
  8
0
 10
0.311143
 20
1.42068
 30
0.0
 40
0
 41
0
  0
VERTEX
  8
0
 10
0.362033
 20
1.42128
 30
0.0
 40
0
 41
0
  0
VERTEX
  8
0
 10
0.362142
 20
1.40739
 30
0.0
 40
0
 41
0
  0
VERTEX
  8
0
 10
0.42589
 20
1.40793
 30
0.0
 40
0
 41
0
  0
VERTEX
  8
0
 10
0.425347
 20
1.47163
 30
0.0
 40
0
 41
0
  0
VERTEX
  8
0
 10
0.3616
 20
1.47108
 30
0.0
 40
0
 41
0
  0
VERTEX
  8
0
 10
0.361762
 20
1.45697
 30
0.0
 40
0
 41
0
  0
VERTEX
  8
0
 10
0.325738
 20
1.45654
 30
0.0
 40
0
 41
0
  0
VERTEX
  8
0
 10
0.171983
 20
1.6091
 30
0.0
 40
0
 41
0
  0
VERTEX
  8
0
 10
0.171983
 20
1.91461
 30
0.0
 40
0
 41
0
  0
VERTEX
  8
0
 10
0.0842014
 20
2.0039
 30
0.0
 40
0
 41
0
  0
VERTEX
  8
0
 10
0.0842014
 20
2.16037
 30
0.0
 40
0
 41
0
  0
VERTEX
  8
0
 10
0.286296
 20
2.36247
 30
0.0
 40
0
 41
0
  0
VERTEX
  8
0
 10
0.312879
 20
2.36247
 30
0.0
 40
0
 41
0
  0
VERTEX
  8
0
 10
0.312879
 20
2.34853
 30
0.0
 40
0
 41
0
  0
SEQEND
 8
0
  0
POLYLINE
  8
0
 62
     7
 66
     1
 10
0
 20
0
 30
0.0
 70
     1
 40
0
 41
0
  0
VERTEX
  8
0
 10
0.532497
 20
1.40881
 30
0.0
 40
0
 41
0
  0
VERTEX
  8
0
 10
0.532389
 20
1.4229
 30
0.0
 40
0
 41
0
  0
VERTEX
  8
0
 10
0.57449
 20
1.42339
 30
0.0
 40
0
 41
0
  0
VERTEX
  8
0
 10
0.748372
 20
1.59694
 30
0.0
 40
0
 41
0
  0
VERTEX
  8
0
 10
0.748372
 20
1.59706
 30
0.0
 40
0
 41
0
  0
VERTEX
  8
0
 10
0.762369
 20
1.59694
 30
0.0
 40
0
 41
0
  0
VERTEX
  8
0
 10
0.762642
 20
1.66069
 30
0.0
 40
0
 41
0
  0
VERTEX
  8
0
 10
0.699001
 20
1.66097
 30
0.0
 40
0
 41
0
  0
VERTEX
  8
0
 10
0.698622
 20
1.59776
 30
0.0
 40
0
 41
0
  0
VERTEX
  8
0
 10
0.559625
 20
1.45904
 30
0.0
 40
0
 41
0
  0
VERTEX
  8
0
 10
0.532118
 20
1.45871
 30
0.0
 40
0
 41
0
  0
VERTEX
  8
0
 10
0.53201
 20
1.47254
 30
0.0
 40
0
 41
0
  0
VERTEX
  8
0
 10
0.468261
 20
1.472
 30
0.0
 40
0
 41
0
  0
VERTEX
  8
0
 10
0.46875
 20
1.40831
 30
0.0
 40
0
 41
0
  0
VERTEX
  8
0
 10
0.532497
 20
1.40881
 30
0.0
 40
0
 41
0
  0
SEQEND
 8
0
  0
POLYLINE
  8
0
 62
     7
 66
     1
 10
0
 20
0
 30
0.0
 70
     1
 40
0
 41
0
  0
VERTEX
  8
0
 10
0.0981988
 20
1.90728
 30
0.0
 40
0
 41
0
  0
VERTEX
  8
0
 10
0.034451
 20
1.90728
 30
0.0
 40
0
 41
0
  0
VERTEX
  8
0
 10
0.034451
 20
1.84353
 30
0.0
 40
0
 41
0
  0
VERTEX
  8
0
 10
0.0484483
 20
1.84353
 30
0.0
 40
0
 41
0
  0
VERTEX
  8
0
 10
0.0484483
 20
1.56054
 30
0.0
 40
0
 41
0
  0
VERTEX
  8
0
 10
0.271485
 20
1.33751
 30
0.0
 40
0
 41
0
  0
VERTEX
  8
0
 10
0.610135
 20
1.33751
 30
0.0
 40
0
 41
0
  0
VERTEX
  8
0
 10
0.83686
 20
1.56049
 30
0.0
 40
0
 41
0
  0
VERTEX
  8
0
 10
0.83686
 20
1.73915
 30
0.0
 40
0
 41
0
  0
VERTEX
  8
0
 10
0.626574
 20
1.73915
 30
0.0
 40
0
 41
0
  0
VERTEX
  8
0
 10
0.626574
 20
1.64785
 30
0.0
 40
0
 41
0
  0
VERTEX
  8
0
 10
0.526585
 20
1.54779
 30
0.0
 40
0
 41
0
  0
VERTEX
  8
0
 10
0.358778
 20
1.54779
 30
0.0
 40
0
 41
0
  0
VERTEX
  8
0
 10
0.258735
 20
1.64785
 30
0.0
 40
0
 41
0
  0
VERTEX
  8
0
 10
0.258735
 20
1.68386
 30
0.0
 40
0
 41
0
  0
VERTEX
  8
0
 10
0.272678
 20
1.68386
 30
0.0
 40
0
 41
0
  0
VERTEX
  8
0
 10
0.272678
 20
1.74756
 30
0.0
 40
0
 41
0
  0
VERTEX
  8
0
 10
0.208985
 20
1.74756
 30
0.0
 40
0
 41
0
  0
VERTEX
  8
0
 10
0.208985
 20
1.68386
 30
0.0
 40
0
 41
0
  0
VERTEX
  8
0
 10
0.222982
 20
1.68386
 30
0.0
 40
0
 41
0
  0
VERTEX
  8
0
 10
0.222982
 20
1.63303
 30
0.0
 40
0
 41
0
  0
VERTEX
  8
0
 10
0.343967
 20
1.51204
 30
0.0
 40
0
 41
0
  0
VERTEX
  8
0
 10
0.541396
 20
1.51204
 30
0.0
 40
0
 41
0
  0
VERTEX
  8
0
 10
0.662326
 20
1.63303
 30
0.0
 40
0
 41
0
  0
VERTEX
  8
0
 10
0.662326
 20
1.70335
 30
0.0
 40
0
 41
0
  0
VERTEX
  8
0
 10
0.801053
 20
1.70335
 30
0.0
 40
0
 41
0
  0
VERTEX
  8
0
 10
0.801053
 20
1.57547
 30
0.0
 40
0
 41
0
  0
VERTEX
  8
0
 10
0.595486
 20
1.37326
 30
0.0
 40
0
 41
0
  0
VERTEX
  8
0
 10
0.286296
 20
1.37326
 30
0.0
 40
0
 41
0
  0
VERTEX
  8
0
 10
0.0842014
 20
1.57536
 30
0.0
 40
0
 41
0
  0
VERTEX
  8
0
 10
0.0842014
 20
1.84353
 30
0.0
 40
0
 41
0
  0
VERTEX
  8
0
 10
0.0981988
 20
1.84353
 30
0.0
 40
0
 41
0
  0
VERTEX
  8
0
 10
0.0981988
 20
1.90728
 30
0.0
 40
0
 41
0
  0
SEQEND
 8
0
  0
POLYLINE
  8
0
 62
     7
 66
     1
 10
0
 20
0
 30
0.0
 70
     1
 40
0
 41
0
  0
VERTEX
  8
0
 10
0.160428
 20
0.635525
 30
0.0
 40
0
 41
0
  0
VERTEX
  8
0
 10
0.146431
 20
0.635525
 30
0.0
 40
0
 41
0
  0
VERTEX
  8
0
 10
0.146431
 20
0.571832
 30
0.0
 40
0
 41
0
  0
VERTEX
  8
0
 10
0.210178
 20
0.571832
 30
0.0
 40
0
 41
0
  0
VERTEX
  8
0
 10
0.210178
 20
0.635525
 30
0.0
 40
0
 41
0
  0
VERTEX
  8
0
 10
0.196181
 20
0.635525
 30
0.0
 40
0
 41
0
  0
VERTEX
  8
0
 10
0.196181
 20
1.07492
 30
0.0
 40
0
 41
0
  0
VERTEX
  8
0
 10
0.334961
 20
1.07492
 30
0.0
 40
0
 41
0
  0
VERTEX
  8
0
 10
0.334961
 20
0.224447
 30
0.0
 40
0
 41
0
  0
VERTEX
  8
0
 10
0.400228
 20
0.224447
 30
0.0
 40
0
 41
0
  0
VERTEX
  8
0
 10
0.400228
 20
0.210504
 30
0.0
 40
0
 41
0
  0
VERTEX
  8
0
 10
0.463921
 20
0.210504
 30
0.0
 40
0
 41
0
  0
VERTEX
  8
0
 10
0.463921
 20
0.274251
 30
0.0
 40
0
 41
0
  0
VERTEX
  8
0
 10
0.400228
 20
0.274251
 30
0.0
 40
0
 41
0
  0
VERTEX
  8
0
 10
0.400228
 20
0.260254
 30
0.0
 40
0
 41
0
  0
VERTEX
  8
0
 10
0.37066
 20
0.260254
 30
0.0
 40
0
 41
0
  0
VERTEX
  8
0
 10
0.37066
 20
1.11068
 30
0.0
 40
0
 41
0
  0
VERTEX
  8
0
 10
0.160428
 20
1.11068
 30
0.0
 40
0
 41
0
  0
VERTEX
  8
0
 10
0.160428
 20
0.635525
 30
0.0
 40
0
 41
0
  0
SEQEND
 8
0
  0
POLYLINE
  8
0
 62
     7
 66
     1
 10
0
 20
0
 30
0.0
 70
     1
 40
0
 41
0
  0
VERTEX
  8
0
 10
1.72711
 20
0.414768
 30
0.0
 40
0
 41
0
  0
VERTEX
  8
0
 10
1.66342
 20
0.414768
 30
0.0
 40
0
 41
0
  0
VERTEX
  8
0
 10
1.66342
 20
0.351074
 30
0.0
 40
0
 41
0
  0
VERTEX
  8
0
 10
1.72711
 20
0.351074
 30
0.0
 40
0
 41
0
  0
VERTEX
  8
0
 10
1.72711
 20
0.365018
 30
0.0
 40
0
 41
0
  0
VERTEX
  8
0
 10
1.91347
 20
0.365018
 30
0.0
 40
0
 41
0
  0
VERTEX
  8
0
 10
1.91347
 20
0.0484483
 30
0.0
 40
0
 41
0
  0
VERTEX
  8
0
 10
2.1219
 20
0.0484483
 30
0.0
 40
0
 41
0
  0
VERTEX
  8
0
 10
2.1219
 20
0.740235
 30
0.0
 40
0
 41
0
  0
VERTEX
  8
0
 10
2.1359
 20
0.740235
 30
0.0
 40
0
 41
0
  0
VERTEX
  8
0
 10
2.1359
 20
0.803928
 30
0.0
 40
0
 41
0
  0
VERTEX
  8
0
 10
2.07215
 20
0.803928
 30
0.0
 40
0
 41
0
  0
VERTEX
  8
0
 10
2.07215
 20
0.740235
 30
0.0
 40
0
 41
0
  0
VERTEX
  8
0
 10
2.0861
 20
0.740235
 30
0.0
 40
0
 41
0
  0
VERTEX
  8
0
 10
2.0861
 20
0.0842014
 30
0.0
 40
0
 41
0
  0
VERTEX
  8
0
 10
1.94922
 20
0.0842014
 30
0.0
 40
0
 41
0
  0
VERTEX
  8
0
 10
1.94922
 20
0.400717
 30
0.0
 40
0
 41
0
  0
VERTEX
  8
0
 10
1.72711
 20
0.400717
 30
0.0
 40
0
 41
0
  0
VERTEX
  8
0
 10
1.72711
 20
0.414768
 30
0.0
 40
0
 41
0
  0
SEQEND
 8
0
  0
ENDSEC
  0
EOF
