  0
SECTION
  2
HEADER
  9
$ACADVER
  1
AC1009
  9
$FILLMODE
 70
 0
  9
$SPLFRAME
 70
 1
  9
$EXTMIN
 10
0
 20
0
 30
0.0
  9
$EXTMAX
 10
41.6667
 20
41.6667
 30
0.0
  0
ENDSEC
  0
SECTION
  2
TABLES
  0
TABLE
  2
LAYER
 70
1
  0
LAYER
  2
0
 70
     0
 62
     7
  6
CONTINUOUS
  0
ENDTAB
  0
ENDSEC
  0
SECTION
  2
ENTITIES
  0
POLYLINE
  8
0
 62
     3
 66
     1
 10
0
 20
0
 30
0.0
 70
     1
 40
0
 41
0
  0
VERTEX
  8
0
 10
0.702419
 20
2.71143
 30
0.0
 40
0
 41
0
  0
VERTEX
  8
0
 10
0.277669
 20
2.71044
 30
0.0
 40
0
 41
0
  0
VERTEX
  8
0
 10
0
 20
2.43272
 30
0.0
 40
0
 41
0
  0
VERTEX
  8
0
 10
0
 20
1.70714
 30
0.0
 40
0
 41
0
  0
VERTEX
  8
0
 10
0.278646
 20
1.4285
 30
0.0
 40
0
 41
0
  0
VERTEX
  8
0
 10
0.698133
 20
1.4285
 30
0.0
 40
0
 41
0
  0
VERTEX
  8
0
 10
0.981065
 20
1.70676
 30
0.0
 40
0
 41
0
  0
VERTEX
  8
0
 10
0.981065
 20
1.98101
 30
0.0
 40
0
 41
0
  0
VERTEX
  8
0
 10
0.640679
 20
1.98101
 30
0.0
 40
0
 41
0
  0
VERTEX
  8
0
 10
0.640679
 20
1.84836
 30
0.0
 40
0
 41
0
  0
VERTEX
  8
0
 10
0.561307
 20
1.76893
 30
0.0
 40
0
 41
0
  0
VERTEX
  8
0
 10
0.419976
 20
1.76893
 30
0.0
 40
0
 41
0
  0
VERTEX
  8
0
 10
0.339844
 20
1.85092
 30
0.0
 40
0
 41
0
  0
VERTEX
  8
0
 10
0.339844
 20
1.99382
 30
0.0
 40
0
 41
0
  0
VERTEX
  8
0
 10
0.34044
 20
2.2915
 30
0.0
 40
0
 41
0
  0
VERTEX
  8
0
 10
0.419814
 20
2.37093
 30
0.0
 40
0
 41
0
  0
VERTEX
  8
0
 10
0.561307
 20
2.37093
 30
0.0
 40
0
 41
0
  0
VERTEX
  8
0
 10
0.640679
 20
2.2915
 30
0.0
 40
0
 41
0
  0
VERTEX
  8
0
 10
0.640679
 20
2.16174
 30
0.0
 40
0
 41
0
  0
VERTEX
  8
0
 10
0.981065
 20
2.16174
 30
0.0
 40
0
 41
0
  0
VERTEX
  8
0
 10
0.981065
 20
2.43272
 30
0.0
 40
0
 41
0
  0
VERTEX
  8
0
 10
0.702419
 20
2.71143
 30
0.0
 40
0
 41
0
  0
SEQEND
 8
0
  0
POLYLINE
  8
0
 62
     3
 66
     1
 10
0
 20
0
 30
0.0
 70
     1
 40
0
 41
0
  0
VERTEX
  8
0
 10
3.42464
 20
2.71137
 30
0.0
 40
0
 41
0
  0
VERTEX
  8
0
 10
3.42464
 20
2.49789
 30
0.0
 40
0
 41
0
  0
VERTEX
  8
0
 10
3.23682
 20
2.31076
 30
0.0
 40
0
 41
0
  0
VERTEX
  8
0
 10
3.04904
 20
2.49864
 30
0.0
 40
0
 41
0
  0
VERTEX
  8
0
 10
3.04904
 20
2.71137
 30
0.0
 40
0
 41
0
  0
VERTEX
  8
0
 10
2.70861
 20
2.71137
 30
0.0
 40
0
 41
0
  0
VERTEX
  8
0
 10
2.70861
 20
2.35747
 30
0.0
 40
0
 41
0
  0
VERTEX
  8
0
 10
3.06662
 20
1.99935
 30
0.0
 40
0
 41
0
  0
VERTEX
  8
0
 10
3.06662
 20
1.42854
 30
0.0
 40
0
 41
0
  0
VERTEX
  8
0
 10
3.40701
 20
1.42854
 30
0.0
 40
0
 41
0
  0
VERTEX
  8
0
 10
3.40375
 20
1.9994
 30
0.0
 40
0
 41
0
  0
VERTEX
  8
0
 10
3.7634
 20
2.35906
 30
0.0
 40
0
 41
0
  0
VERTEX
  8
0
 10
3.7634
 20
2.71137
 30
0.0
 40
0
 41
0
  0
VERTEX
  8
0
 10
3.42464
 20
2.71137
 30
0.0
 40
0
 41
0
  0
SEQEND
 8
0
  0
POLYLINE
  8
0
 62
     3
 66
     1
 10
0
 20
0
 30
0.0
 70
     1
 40
0
 41
0
  0
VERTEX
  8
0
 10
1.60938
 20
2.71137
 30
0.0
 40
0
 41
0
  0
VERTEX
  8
0
 10
1.60938
 20
2.37104
 30
0.0
 40
0
 41
0
  0
VERTEX
  8
0
 10
1.92974
 20
2.37104
 30
0.0
 40
0
 41
0
  0
VERTEX
  8
0
 10
1.92974
 20
1.42854
 30
0.0
 40
0
 41
0
  0
VERTEX
  8
0
 10
2.27007
 20
1.42854
 30
0.0
 40
0
 41
0
  0
VERTEX
  8
0
 10
2.27007
 20
2.37104
 30
0.0
 40
0
 41
0
  0
VERTEX
  8
0
 10
2.59044
 20
2.37104
 30
0.0
 40
0
 41
0
  0
VERTEX
  8
0
 10
2.59044
 20
2.71137
 30
0.0
 40
0
 41
0
  0
VERTEX
  8
0
 10
1.60938
 20
2.71137
 30
0.0
 40
0
 41
0
  0
SEQEND
 8
0
  0
POLYLINE
  8
0
 62
     3
 66
     1
 10
0
 20
0
 30
0.0
 70
     1
 40
0
 41
0
  0
VERTEX
  8
0
 10
1.13102
 20
2.71137
 30
0.0
 40
0
 41
0
  0
VERTEX
  8
0
 10
1.13102
 20
1.4285
 30
0.0
 40
0
 41
0
  0
VERTEX
  8
0
 10
1.48307
 20
1.4285
 30
0.0
 40
0
 41
0
  0
VERTEX
  8
0
 10
1.48307
 20
2.10861
 30
0.0
 40
0
 41
0
  0
VERTEX
  8
0
 10
1.48307
 20
2.71137
 30
0.0
 40
0
 41
0
  0
VERTEX
  8
0
 10
1.13102
 20
2.71137
 30
0.0
 40
0
 41
0
  0
SEQEND
 8
0
  0
POLYLINE
  8
0
 62
     3
 66
     1
 10
0
 20
0
 30
0.0
 70
     1
 40
0
 41
0
  0
VERTEX
  8
0
 10
2.56326
 20
1.28678
 30
0.0
 40
0
 41
0
  0
VERTEX
  8
0
 10
2.56326
 20
0.00390625
 30
0.0
 40
0
 41
0
  0
VERTEX
  8
0
 10
3.13049
 20
0.00444879
 30
0.0
 40
0
 41
0
  0
VERTEX
  8
0
 10
3.18381
 20
0.00444879
 30
0.0
 40
0
 41
0
  0
VERTEX
  8
0
 10
3.18381
 20
0.00450304
 30
0.0
 40
0
 41
0
  0
VERTEX
  8
0
 10
3.40067
 20
0.00472006
 30
0.0
 40
0
 41
0
  0
VERTEX
  8
0
 10
3.61968
 20
0.222765
 30
0.0
 40
0
 41
0
  0
VERTEX
  8
0
 10
3.61968
 20
0.596625
 30
0.0
 40
0
 41
0
  0
VERTEX
  8
0
 10
3.57096
 20
0.645344
 30
0.0
 40
0
 41
0
  0
VERTEX
  8
0
 10
3.61968
 20
0.694065
 30
0.0
 40
0
 41
0
  0
VERTEX
  8
0
 10
3.61968
 20
1.06787
 30
0.0
 40
0
 41
0
  0
VERTEX
  8
0
 10
3.40076
 20
1.28678
 30
0.0
 40
0
 41
0
  0
VERTEX
  8
0
 10
2.56326
 20
1.28678
 30
0.0
 40
0
 41
0
  0
SEQEND
 8
0
  0
POLYLINE
  8
0
 62
     3
 66
     1
 10
0
 20
0
 30
0.0
 70
     1
 40
0
 41
0
  0
VERTEX
  8
0
 10
2.90369
 20
0.946343
 30
0.0
 40
0
 41
0
  0
VERTEX
  8
0
 10
3.2596
 20
0.946343
 30
0.0
 40
0
 41
0
  0
VERTEX
  8
0
 10
3.28971
 20
0.916233
 30
0.0
 40
0
 41
0
  0
VERTEX
  8
0
 10
3.28971
 20
0.842936
 30
0.0
 40
0
 41
0
  0
VERTEX
  8
0
 10
3.26074
 20
0.815539
 30
0.0
 40
0
 41
0
  0
VERTEX
  8
0
 10
2.90369
 20
0.815539
 30
0.0
 40
0
 41
0
  0
VERTEX
  8
0
 10
2.90369
 20
0.946343
 30
0.0
 40
0
 41
0
  0
SEQEND
 8
0
  0
POLYLINE
  8
0
 62
     3
 66
     1
 10
0
 20
0
 30
0.0
 70
     1
 40
0
 41
0
  0
VERTEX
  8
0
 10
2.90369
 20
0.475315
 30
0.0
 40
0
 41
0
  0
VERTEX
  8
0
 10
3.25956
 20
0.475151
 30
0.0
 40
0
 41
0
  0
VERTEX
  8
0
 10
3.28911
 20
0.445583
 30
0.0
 40
0
 41
0
  0
VERTEX
  8
0
 10
3.28797
 20
0.372721
 30
0.0
 40
0
 41
0
  0
VERTEX
  8
0
 10
3.25906
 20
0.343858
 30
0.0
 40
0
 41
0
  0
VERTEX
  8
0
 10
2.90369
 20
0.338271
 30
0.0
 40
0
 41
0
  0
VERTEX
  8
0
 10
2.90369
 20
0.475315
 30
0.0
 40
0
 41
0
  0
SEQEND
 8
0
  0
POLYLINE
  8
0
 62
     3
 66
     1
 10
0
 20
0
 30
0.0
 70
     1
 40
0
 41
0
  0
VERTEX
  8
0
 10
1.5944
 20
1.28217
 30
0.0
 40
0
 41
0
  0
VERTEX
  8
0
 10
1.31673
 20
1.00673
 30
0.0
 40
0
 41
0
  0
VERTEX
  8
0
 10
1.31673
 20
0
 30
0.0
 40
0
 41
0
  0
VERTEX
  8
0
 10
1.65522
 20
0
 30
0.0
 40
0
 41
0
  0
VERTEX
  8
0
 10
1.65522
 20
0.350803
 30
0.0
 40
0
 41
0
  0
VERTEX
  8
0
 10
2.06685
 20
0.350803
 30
0.0
 40
0
 41
0
  0
VERTEX
  8
0
 10
2.06685
 20
0
 30
0.0
 40
0
 41
0
  0
VERTEX
  8
0
 10
2.40517
 20
0
 30
0.0
 40
0
 41
0
  0
VERTEX
  8
0
 10
2.40517
 20
1.01329
 30
0.0
 40
0
 41
0
  0
VERTEX
  8
0
 10
2.12483
 20
1.28461
 30
0.0
 40
0
 41
0
  0
VERTEX
  8
0
 10
1.5944
 20
1.28217
 30
0.0
 40
0
 41
0
  0
SEQEND
 8
0
  0
POLYLINE
  8
0
 62
     3
 66
     1
 10
0
 20
0
 30
0.0
 70
     1
 40
0
 41
0
  0
VERTEX
  8
0
 10
1.65614
 20
0.862196
 30
0.0
 40
0
 41
0
  0
VERTEX
  8
0
 10
1.73574
 20
0.941732
 30
0.0
 40
0
 41
0
  0
VERTEX
  8
0
 10
1.9854
 20
0.941624
 30
0.0
 40
0
 41
0
  0
VERTEX
  8
0
 10
2.06483
 20
0.862196
 30
0.0
 40
0
 41
0
  0
VERTEX
  8
0
 10
2.06483
 20
0.691461
 30
0.0
 40
0
 41
0
  0
VERTEX
  8
0
 10
1.65614
 20
0.691461
 30
0.0
 40
0
 41
0
  0
VERTEX
  8
0
 10
1.65614
 20
0.862196
 30
0.0
 40
0
 41
0
  0
SEQEND
 8
0
  0
POLYLINE
  8
0
 62
     3
 66
     1
 10
0
 20
0
 30
0.0
 70
     1
 40
0
 41
0
  0
VERTEX
  8
0
 10
0.124078
 20
1.28456
 30
0.0
 40
0
 41
0
  0
VERTEX
  8
0
 10
0.125108
 20
0.00168186
 30
0.0
 40
0
 41
0
  0
VERTEX
  8
0
 10
1.1805
 20
0.00168186
 30
0.0
 40
0
 41
0
  0
VERTEX
  8
0
 10
1.1805
 20
0.342068
 30
0.0
 40
0
 41
0
  0
VERTEX
  8
0
 10
0.464464
 20
0.342068
 30
0.0
 40
0
 41
0
  0
VERTEX
  8
0
 10
0.464464
 20
1.28456
 30
0.0
 40
0
 41
0
  0
VERTEX
  8
0
 10
0.124078
 20
1.28456
 30
0.0
 40
0
 41
0
  0
SEQEND
 8
0
  0
POLYLINE
  8
0
 62
     7
 66
     1
 10
0
 20
0
 30
0.0
 70
     1
 40
0
 41
0
  0
VERTEX
  8
0
 10
3.70975
 20
2.38129
 30
0.0
 40
0
 41
0
  0
VERTEX
  8
0
 10
3.70975
 20
2.65767
 30
0.0
 40
0
 41
0
  0
VERTEX
  8
0
 10
3.47835
 20
2.65767
 30
0.0
 40
0
 41
0
  0
VERTEX
  8
0
 10
3.47835
 20
2.47629
 30
0.0
 40
0
 41
0
  0
VERTEX
  8
0
 10
3.4439
 20
2.44185
 30
0.0
 40
0
 41
0
  0
VERTEX
  8
0
 10
3.43294
 20
2.45281
 30
0.0
 40
0
 41
0
  0
VERTEX
  8
0
 10
3.38297
 20
2.40289
 30
0.0
 40
0
 41
0
  0
VERTEX
  8
0
 10
3.43294
 20
2.35303
 30
0.0
 40
0
 41
0
  0
VERTEX
  8
0
 10
3.48286
 20
2.40289
 30
0.0
 40
0
 41
0
  0
VERTEX
  8
0
 10
3.4719
 20
2.41385
 30
0.0
 40
0
 41
0
  0
VERTEX
  8
0
 10
3.51796
 20
2.45996
 30
0.0
 40
0
 41
0
  0
VERTEX
  8
0
 10
3.51796
 20
2.61806
 30
0.0
 40
0
 41
0
  0
VERTEX
  8
0
 10
3.67014
 20
2.61806
 30
0.0
 40
0
 41
0
  0
VERTEX
  8
0
 10
3.67014
 20
2.39774
 30
0.0
 40
0
 41
0
  0
VERTEX
  8
0
 10
3.31044
 20
2.03803
 30
0.0
 40
0
 41
0
  0
VERTEX
  8
0
 10
3.31044
 20
1.87299
 30
0.0
 40
0
 41
0
  0
VERTEX
  8
0
 10
3.21707
 20
1.77957
 30
0.0
 40
0
 41
0
  0
VERTEX
  8
0
 10
3.21707
 20
1.63422
 30
0.0
 40
0
 41
0
  0
VERTEX
  8
0
 10
3.20156
 20
1.63422
 30
0.0
 40
0
 41
0
  0
VERTEX
  8
0
 10
3.20156
 20
1.56358
 30
0.0
 40
0
 41
0
  0
VERTEX
  8
0
 10
3.27214
 20
1.56358
 30
0.0
 40
0
 41
0
  0
VERTEX
  8
0
 10
3.27214
 20
1.63422
 30
0.0
 40
0
 41
0
  0
VERTEX
  8
0
 10
3.25667
 20
1.63422
 30
0.0
 40
0
 41
0
  0
VERTEX
  8
0
 10
3.25667
 20
1.76313
 30
0.0
 40
0
 41
0
  0
VERTEX
  8
0
 10
3.35004
 20
1.85661
 30
0.0
 40
0
 41
0
  0
VERTEX
  8
0
 10
3.35004
 20
2.02165
 30
0.0
 40
0
 41
0
  0
VERTEX
  8
0
 10
3.70975
 20
2.38129
 30
0.0
 40
0
 41
0
  0
SEQEND
 8
0
  0
POLYLINE
  8
0
 62
     7
 66
     1
 10
0
 20
0
 30
0.0
 70
     1
 40
0
 41
0
  0
VERTEX
  8
0
 10
2.89725
 20
2.44194
 30
0.0
 40
0
 41
0
  0
VERTEX
  8
0
 10
2.89725
 20
2.50618
 30
0.0
 40
0
 41
0
  0
VERTEX
  8
0
 10
2.91276
 20
2.50618
 30
0.0
 40
0
 41
0
  0
VERTEX
  8
0
 10
2.91276
 20
2.57676
 30
0.0
 40
0
 41
0
  0
VERTEX
  8
0
 10
2.84218
 20
2.57676
 30
0.0
 40
0
 41
0
  0
VERTEX
  8
0
 10
2.84218
 20
2.50618
 30
0.0
 40
0
 41
0
  0
VERTEX
  8
0
 10
2.85764
 20
2.50618
 30
0.0
 40
0
 41
0
  0
VERTEX
  8
0
 10
2.85764
 20
2.42557
 30
0.0
 40
0
 41
0
  0
VERTEX
  8
0
 10
2.89882
 20
2.38439
 30
0.0
 40
0
 41
0
  0
VERTEX
  8
0
 10
2.88786
 20
2.37337
 30
0.0
 40
0
 41
0
  0
VERTEX
  8
0
 10
2.93778
 20
2.32346
 30
0.0
 40
0
 41
0
  0
VERTEX
  8
0
 10
2.98768
 20
2.37337
 30
0.0
 40
0
 41
0
  0
VERTEX
  8
0
 10
2.93778
 20
2.42333
 30
0.0
 40
0
 41
0
  0
VERTEX
  8
0
 10
2.92681
 20
2.41237
 30
0.0
 40
0
 41
0
  0
VERTEX
  8
0
 10
2.89725
 20
2.44194
 30
0.0
 40
0
 41
0
  0
SEQEND
 8
0
  0
POLYLINE
  8
0
 62
     7
 66
     1
 10
0
 20
0
 30
0.0
 70
     1
 40
0
 41
0
  0
VERTEX
  8
0
 10
3.25776
 20
1.93604
 30
0.0
 40
0
 41
0
  0
VERTEX
  8
0
 10
3.25776
 20
2.06174
 30
0.0
 40
0
 41
0
  0
VERTEX
  8
0
 10
3.36583
 20
2.16986
 30
0.0
 40
0
 41
0
  0
VERTEX
  8
0
 10
3.37679
 20
2.1589
 30
0.0
 40
0
 41
0
  0
VERTEX
  8
0
 10
3.42676
 20
2.20882
 30
0.0
 40
0
 41
0
  0
VERTEX
  8
0
 10
3.37679
 20
2.25868
 30
0.0
 40
0
 41
0
  0
VERTEX
  8
0
 10
3.32682
 20
2.20882
 30
0.0
 40
0
 41
0
  0
VERTEX
  8
0
 10
3.33783
 20
2.19786
 30
0.0
 40
0
 41
0
  0
VERTEX
  8
0
 10
3.21821
 20
2.07824
 30
0.0
 40
0
 41
0
  0
VERTEX
  8
0
 10
3.21821
 20
1.93604
 30
0.0
 40
0
 41
0
  0
VERTEX
  8
0
 10
3.20269
 20
1.93604
 30
0.0
 40
0
 41
0
  0
VERTEX
  8
0
 10
3.20269
 20
1.86546
 30
0.0
 40
0
 41
0
  0
VERTEX
  8
0
 10
3.27328
 20
1.86546
 30
0.0
 40
0
 41
0
  0
VERTEX
  8
0
 10
3.27328
 20
1.93604
 30
0.0
 40
0
 41
0
  0
VERTEX
  8
0
 10
3.25776
 20
1.93604
 30
0.0
 40
0
 41
0
  0
SEQEND
 8
0
  0
POLYLINE
  8
0
 62
     7
 66
     1
 10
0
 20
0
 30
0.0
 70
     1
 40
0
 41
0
  0
VERTEX
  8
0
 10
3.46414
 20
2.32742
 30
0.0
 40
0
 41
0
  0
VERTEX
  8
0
 10
3.32943
 20
2.32742
 30
0.0
 40
0
 41
0
  0
VERTEX
  8
0
 10
3.23682
 20
2.23486
 30
0.0
 40
0
 41
0
  0
VERTEX
  8
0
 10
2.99533
 20
2.47635
 30
0.0
 40
0
 41
0
  0
VERTEX
  8
0
 10
2.99533
 20
2.65767
 30
0.0
 40
0
 41
0
  0
VERTEX
  8
0
 10
2.76226
 20
2.65767
 30
0.0
 40
0
 41
0
  0
VERTEX
  8
0
 10
2.76226
 20
2.37967
 30
0.0
 40
0
 41
0
  0
VERTEX
  8
0
 10
2.8795
 20
2.26247
 30
0.0
 40
0
 41
0
  0
VERTEX
  8
0
 10
3.01926
 20
2.26247
 30
0.0
 40
0
 41
0
  0
VERTEX
  8
0
 10
3.11903
 20
2.16271
 30
0.0
 40
0
 41
0
  0
VERTEX
  8
0
 10
3.10801
 20
2.15175
 30
0.0
 40
0
 41
0
  0
VERTEX
  8
0
 10
3.15799
 20
2.10183
 30
0.0
 40
0
 41
0
  0
VERTEX
  8
0
 10
3.20796
 20
2.15175
 30
0.0
 40
0
 41
0
  0
VERTEX
  8
0
 10
3.15799
 20
2.20171
 30
0.0
 40
0
 41
0
  0
VERTEX
  8
0
 10
3.14697
 20
2.19069
 30
0.0
 40
0
 41
0
  0
VERTEX
  8
0
 10
3.03564
 20
2.30208
 30
0.0
 40
0
 41
0
  0
VERTEX
  8
0
 10
2.89583
 20
2.30208
 30
0.0
 40
0
 41
0
  0
VERTEX
  8
0
 10
2.80192
 20
2.39606
 30
0.0
 40
0
 41
0
  0
VERTEX
  8
0
 10
2.80192
 20
2.61806
 30
0.0
 40
0
 41
0
  0
VERTEX
  8
0
 10
2.95574
 20
2.61806
 30
0.0
 40
0
 41
0
  0
VERTEX
  8
0
 10
2.95574
 20
2.45996
 30
0.0
 40
0
 41
0
  0
VERTEX
  8
0
 10
3.23682
 20
2.17882
 30
0.0
 40
0
 41
0
  0
VERTEX
  8
0
 10
3.34581
 20
2.28782
 30
0.0
 40
0
 41
0
  0
VERTEX
  8
0
 10
3.48074
 20
2.28782
 30
0.0
 40
0
 41
0
  0
VERTEX
  8
0
 10
3.6129
 20
2.42219
 30
0.0
 40
0
 41
0
  0
VERTEX
  8
0
 10
3.61301
 20
2.50612
 30
0.0
 40
0
 41
0
  0
VERTEX
  8
0
 10
3.62853
 20
2.50612
 30
0.0
 40
0
 41
0
  0
VERTEX
  8
0
 10
3.62864
 20
2.57667
 30
0.0
 40
0
 41
0
  0
VERTEX
  8
0
 10
3.558
 20
2.57688
 30
0.0
 40
0
 41
0
  0
VERTEX
  8
0
 10
3.55794
 20
2.50618
 30
0.0
 40
0
 41
0
  0
VERTEX
  8
0
 10
3.57335
 20
2.50612
 30
0.0
 40
0
 41
0
  0
VERTEX
  8
0
 10
3.57329
 20
2.43838
 30
0.0
 40
0
 41
0
  0
VERTEX
  8
0
 10
3.46414
 20
2.32742
 30
0.0
 40
0
 41
0
  0
SEQEND
 8
0
  0
POLYLINE
  8
0
 62
     7
 66
     1
 10
0
 20
0
 30
0.0
 70
     1
 40
0
 41
0
  0
VERTEX
  8
0
 10
3.32753
 20
0.129666
 30
0.0
 40
0
 41
0
  0
VERTEX
  8
0
 10
3.32753
 20
0.145128
 30
0.0
 40
0
 41
0
  0
VERTEX
  8
0
 10
3.33154
 20
0.145128
 30
0.0
 40
0
 41
0
  0
VERTEX
  8
0
 10
3.46924
 20
0.284125
 30
0.0
 40
0
 41
0
  0
VERTEX
  8
0
 10
3.46924
 20
0.536079
 30
0.0
 40
0
 41
0
  0
VERTEX
  8
0
 10
3.44299
 20
0.563422
 30
0.0
 40
0
 41
0
  0
VERTEX
  8
0
 10
3.45415
 20
0.574164
 30
0.0
 40
0
 41
0
  0
VERTEX
  8
0
 10
3.40533
 20
0.625108
 30
0.0
 40
0
 41
0
  0
VERTEX
  8
0
 10
3.35433
 20
0.576226
 30
0.0
 40
0
 41
0
  0
VERTEX
  8
0
 10
3.40321
 20
0.525282
 30
0.0
 40
0
 41
0
  0
VERTEX
  8
0
 10
3.41439
 20
0.535969
 30
0.0
 40
0
 41
0
  0
VERTEX
  8
0
 10
3.42958
 20
0.520074
 30
0.0
 40
0
 41
0
  0
VERTEX
  8
0
 10
3.42958
 20
0.300401
 30
0.0
 40
0
 41
0
  0
VERTEX
  8
0
 10
3.32753
 20
0.197374
 30
0.0
 40
0
 41
0
  0
VERTEX
  8
0
 10
3.32753
 20
0.20025
 30
0.0
 40
0
 41
0
  0
VERTEX
  8
0
 10
3.25694
 20
0.20025
 30
0.0
 40
0
 41
0
  0
VERTEX
  8
0
 10
3.25694
 20
0.129666
 30
0.0
 40
0
 41
0
  0
VERTEX
  8
0
 10
3.32753
 20
0.129666
 30
0.0
 40
0
 41
0
  0
SEQEND
 8
0
  0
POLYLINE
  8
0
 62
     7
 66
     1
 10
0
 20
0
 30
0.0
 70
     1
 40
0
 41
0
  0
VERTEX
  8
0
 10
3.33692
 20
1.14003
 30
0.0
 40
0
 41
0
  0
VERTEX
  8
0
 10
2.71072
 20
1.14003
 30
0.0
 40
0
 41
0
  0
VERTEX
  8
0
 10
2.71072
 20
0.722222
 30
0.0
 40
0
 41
0
  0
VERTEX
  8
0
 10
2.92453
 20
0.722222
 30
0.0
 40
0
 41
0
  0
VERTEX
  8
0
 10
2.92453
 20
0.70676
 30
0.0
 40
0
 41
0
  0
VERTEX
  8
0
 10
2.99511
 20
0.70676
 30
0.0
 40
0
 41
0
  0
VERTEX
  8
0
 10
2.99511
 20
0.777399
 30
0.0
 40
0
 41
0
  0
VERTEX
  8
0
 10
2.92453
 20
0.777399
 30
0.0
 40
0
 41
0
  0
VERTEX
  8
0
 10
2.92453
 20
0.761828
 30
0.0
 40
0
 41
0
  0
VERTEX
  8
0
 10
2.75028
 20
0.761828
 30
0.0
 40
0
 41
0
  0
VERTEX
  8
0
 10
2.75028
 20
1.10032
 30
0.0
 40
0
 41
0
  0
VERTEX
  8
0
 10
3.32047
 20
1.10032
 30
0.0
 40
0
 41
0
  0
VERTEX
  8
0
 10
3.42958
 20
0.991211
 30
0.0
 40
0
 41
0
  0
VERTEX
  8
0
 10
3.42958
 20
0.770671
 30
0.0
 40
0
 41
0
  0
VERTEX
  8
0
 10
3.31749
 20
0.665528
 30
0.0
 40
0
 41
0
  0
VERTEX
  8
0
 10
3.11019
 20
0.665147
 30
0.0
 40
0
 41
0
  0
VERTEX
  8
0
 10
3.00088
 20
0.568522
 30
0.0
 40
0
 41
0
  0
VERTEX
  8
0
 10
2.81033
 20
0.568522
 30
0.0
 40
0
 41
0
  0
VERTEX
  8
0
 10
2.81033
 20
0.243435
 30
0.0
 40
0
 41
0
  0
VERTEX
  8
0
 10
3.29833
 20
0.251139
 30
0.0
 40
0
 41
0
  0
VERTEX
  8
0
 10
3.38064
 20
0.333388
 30
0.0
 40
0
 41
0
  0
VERTEX
  8
0
 10
3.38303
 20
0.483669
 30
0.0
 40
0
 41
0
  0
VERTEX
  8
0
 10
3.29824
 20
0.568522
 30
0.0
 40
0
 41
0
  0
VERTEX
  8
0
 10
3.17871
 20
0.568522
 30
0.0
 40
0
 41
0
  0
VERTEX
  8
0
 10
3.17871
 20
0.583931
 30
0.0
 40
0
 41
0
  0
VERTEX
  8
0
 10
3.10813
 20
0.583931
 30
0.0
 40
0
 41
0
  0
VERTEX
  8
0
 10
3.10813
 20
0.513346
 30
0.0
 40
0
 41
0
  0
VERTEX
  8
0
 10
3.17871
 20
0.513346
 30
0.0
 40
0
 41
0
  0
VERTEX
  8
0
 10
3.17871
 20
0.528862
 30
0.0
 40
0
 41
0
  0
VERTEX
  8
0
 10
3.28179
 20
0.528862
 30
0.0
 40
0
 41
0
  0
VERTEX
  8
0
 10
3.34315
 20
0.467449
 30
0.0
 40
0
 41
0
  0
VERTEX
  8
0
 10
3.34125
 20
0.350097
 30
0.0
 40
0
 41
0
  0
VERTEX
  8
0
 10
3.28168
 20
0.290474
 30
0.0
 40
0
 41
0
  0
VERTEX
  8
0
 10
2.84999
 20
0.283692
 30
0.0
 40
0
 41
0
  0
VERTEX
  8
0
 10
2.84999
 20
0.528862
 30
0.0
 40
0
 41
0
  0
VERTEX
  8
0
 10
3.01585
 20
0.528862
 30
0.0
 40
0
 41
0
  0
VERTEX
  8
0
 10
3.12528
 20
0.625597
 30
0.0
 40
0
 41
0
  0
VERTEX
  8
0
 10
3.33311
 20
0.625922
 30
0.0
 40
0
 41
0
  0
VERTEX
  8
0
 10
3.46924
 20
0.753418
 30
0.0
 40
0
 41
0
  0
VERTEX
  8
0
 10
3.46924
 20
1.0076
 30
0.0
 40
0
 41
0
  0
VERTEX
  8
0
 10
3.33692
 20
1.14003
 30
0.0
 40
0
 41
0
  0
SEQEND
 8
0
  0
POLYLINE
  8
0
 62
     7
 66
     1
 10
0
 20
0
 30
0.0
 70
     1
 40
0
 41
0
  0
VERTEX
  8
0
 10
2.75028
 20
0.398221
 30
0.0
 40
0
 41
0
  0
VERTEX
  8
0
 10
2.75028
 20
0.624892
 30
0.0
 40
0
 41
0
  0
VERTEX
  8
0
 10
2.9916
 20
0.624892
 30
0.0
 40
0
 41
0
  0
VERTEX
  8
0
 10
3.09771
 20
0.722222
 30
0.0
 40
0
 41
0
  0
VERTEX
  8
0
 10
3.29785
 20
0.722222
 30
0.0
 40
0
 41
0
  0
VERTEX
  8
0
 10
3.38303
 20
0.802735
 30
0.0
 40
0
 41
0
  0
VERTEX
  8
0
 10
3.38303
 20
0.954915
 30
0.0
 40
0
 41
0
  0
VERTEX
  8
0
 10
3.29824
 20
1.03966
 30
0.0
 40
0
 41
0
  0
VERTEX
  8
0
 10
2.81033
 20
1.03966
 30
0.0
 40
0
 41
0
  0
VERTEX
  8
0
 10
2.81033
 20
0.873426
 30
0.0
 40
0
 41
0
  0
VERTEX
  8
0
 10
2.79486
 20
0.873426
 30
0.0
 40
0
 41
0
  0
VERTEX
  8
0
 10
2.79486
 20
0.802735
 30
0.0
 40
0
 41
0
  0
VERTEX
  8
0
 10
2.86546
 20
0.802735
 30
0.0
 40
0
 41
0
  0
VERTEX
  8
0
 10
2.86546
 20
0.873426
 30
0.0
 40
0
 41
0
  0
VERTEX
  8
0
 10
2.84999
 20
0.873426
 30
0.0
 40
0
 41
0
  0
VERTEX
  8
0
 10
2.84999
 20
1.00005
 30
0.0
 40
0
 41
0
  0
VERTEX
  8
0
 10
3.28179
 20
1.00005
 30
0.0
 40
0
 41
0
  0
VERTEX
  8
0
 10
3.34338
 20
0.938476
 30
0.0
 40
0
 41
0
  0
VERTEX
  8
0
 10
3.34338
 20
0.819879
 30
0.0
 40
0
 41
0
  0
VERTEX
  8
0
 10
3.28213
 20
0.761828
 30
0.0
 40
0
 41
0
  0
VERTEX
  8
0
 10
3.08231
 20
0.761828
 30
0.0
 40
0
 41
0
  0
VERTEX
  8
0
 10
2.97613
 20
0.664497
 30
0.0
 40
0
 41
0
  0
VERTEX
  8
0
 10
2.71072
 20
0.664497
 30
0.0
 40
0
 41
0
  0
VERTEX
  8
0
 10
2.71072
 20
0.398221
 30
0.0
 40
0
 41
0
  0
VERTEX
  8
0
 10
2.69521
 20
0.398221
 30
0.0
 40
0
 41
0
  0
VERTEX
  8
0
 10
2.69521
 20
0.327582
 30
0.0
 40
0
 41
0
  0
VERTEX
  8
0
 10
2.76585
 20
0.327582
 30
0.0
 40
0
 41
0
  0
VERTEX
  8
0
 10
2.76585
 20
0.398221
 30
0.0
 40
0
 41
0
  0
VERTEX
  8
0
 10
2.75028
 20
0.398221
 30
0.0
 40
0
 41
0
  0
SEQEND
 8
0
  0
POLYLINE
  8
0
 62
     7
 66
     1
 10
0
 20
0
 30
0.0
 70
     1
 40
0
 41
0
  0
VERTEX
  8
0
 10
3.37853
 20
1.23307
 30
0.0
 40
0
 41
0
  0
VERTEX
  8
0
 10
2.94293
 20
1.23307
 30
0.0
 40
0
 41
0
  0
VERTEX
  8
0
 10
2.94293
 20
1.24859
 30
0.0
 40
0
 41
0
  0
VERTEX
  8
0
 10
2.87235
 20
1.24859
 30
0.0
 40
0
 41
0
  0
VERTEX
  8
0
 10
2.87235
 20
1.17801
 30
0.0
 40
0
 41
0
  0
VERTEX
  8
0
 10
2.94293
 20
1.17801
 30
0.0
 40
0
 41
0
  0
VERTEX
  8
0
 10
2.94293
 20
1.19347
 30
0.0
 40
0
 41
0
  0
VERTEX
  8
0
 10
3.36214
 20
1.19347
 30
0.0
 40
0
 41
0
  0
VERTEX
  8
0
 10
3.52642
 20
1.02919
 30
0.0
 40
0
 41
0
  0
VERTEX
  8
0
 10
3.52642
 20
0.984754
 30
0.0
 40
0
 41
0
  0
VERTEX
  8
0
 10
3.51085
 20
0.984754
 30
0.0
 40
0
 41
0
  0
VERTEX
  8
0
 10
3.51085
 20
0.914117
 30
0.0
 40
0
 41
0
  0
VERTEX
  8
0
 10
3.58154
 20
0.914117
 30
0.0
 40
0
 41
0
  0
VERTEX
  8
0
 10
3.58154
 20
0.984754
 30
0.0
 40
0
 41
0
  0
VERTEX
  8
0
 10
3.56603
 20
0.984754
 30
0.0
 40
0
 41
0
  0
VERTEX
  8
0
 10
3.56603
 20
1.04557
 30
0.0
 40
0
 41
0
  0
VERTEX
  8
0
 10
3.37853
 20
1.23307
 30
0.0
 40
0
 41
0
  0
SEQEND
 8
0
  0
POLYLINE
  8
0
 62
     7
 66
     1
 10
0
 20
0
 30
0.0
 70
     1
 40
0
 41
0
  0
VERTEX
  8
0
 10
3.31375
 20
1.68967
 30
0.0
 40
0
 41
0
  0
VERTEX
  8
0
 10
3.31375
 20
1.52181
 30
0.0
 40
0
 41
0
  0
VERTEX
  8
0
 10
3.16
 20
1.52181
 30
0.0
 40
0
 41
0
  0
VERTEX
  8
0
 10
3.16
 20
2.03803
 30
0.0
 40
0
 41
0
  0
VERTEX
  8
0
 10
3.02707
 20
2.1709
 30
0.0
 40
0
 41
0
  0
VERTEX
  8
0
 10
3.03803
 20
2.18186
 30
0.0
 40
0
 41
0
  0
VERTEX
  8
0
 10
2.98813
 20
2.23178
 30
0.0
 40
0
 41
0
  0
VERTEX
  8
0
 10
2.93821
 20
2.18186
 30
0.0
 40
0
 41
0
  0
VERTEX
  8
0
 10
2.98813
 20
2.13189
 30
0.0
 40
0
 41
0
  0
VERTEX
  8
0
 10
2.99903
 20
2.14285
 30
0.0
 40
0
 41
0
  0
VERTEX
  8
0
 10
3.12033
 20
2.02165
 30
0.0
 40
0
 41
0
  0
VERTEX
  8
0
 10
3.12033
 20
1.48226
 30
0.0
 40
0
 41
0
  0
VERTEX
  8
0
 10
3.35335
 20
1.48226
 30
0.0
 40
0
 41
0
  0
VERTEX
  8
0
 10
3.35335
 20
1.68967
 30
0.0
 40
0
 41
0
  0
VERTEX
  8
0
 10
3.36888
 20
1.68967
 30
0.0
 40
0
 41
0
  0
VERTEX
  8
0
 10
3.36888
 20
1.76031
 30
0.0
 40
0
 41
0
  0
VERTEX
  8
0
 10
3.29824
 20
1.76031
 30
0.0
 40
0
 41
0
  0
VERTEX
  8
0
 10
3.29824
 20
1.68967
 30
0.0
 40
0
 41
0
  0
VERTEX
  8
0
 10
3.31375
 20
1.68967
 30
0.0
 40
0
 41
0
  0
SEQEND
 8
0
  0
POLYLINE
  8
0
 62
     7
 66
     1
 10
0
 20
0
 30
0.0
 70
     1
 40
0
 41
0
  0
VERTEX
  8
0
 10
2.75803
 20
1.23307
 30
0.0
 40
0
 41
0
  0
VERTEX
  8
0
 10
2.61697
 20
1.23307
 30
0.0
 40
0
 41
0
  0
VERTEX
  8
0
 10
2.61697
 20
0.310601
 30
0.0
 40
0
 41
0
  0
VERTEX
  8
0
 10
2.71089
 20
0.229438
 30
0.0
 40
0
 41
0
  0
VERTEX
  8
0
 10
2.71089
 20
0.145128
 30
0.0
 40
0
 41
0
  0
VERTEX
  8
0
 10
3.16569
 20
0.145128
 30
0.0
 40
0
 41
0
  0
VERTEX
  8
0
 10
3.2525
 20
0.0583768
 30
0.0
 40
0
 41
0
  0
VERTEX
  8
0
 10
3.37847
 20
0.0583768
 30
0.0
 40
0
 41
0
  0
VERTEX
  8
0
 10
3.56603
 20
0.245117
 30
0.0
 40
0
 41
0
  0
VERTEX
  8
0
 10
3.56603
 20
0.574382
 30
0.0
 40
0
 41
0
  0
VERTEX
  8
0
 10
3.49501
 20
0.645344
 30
0.0
 40
0
 41
0
  0
VERTEX
  8
0
 10
3.56603
 20
0.716308
 30
0.0
 40
0
 41
0
  0
VERTEX
  8
0
 10
3.56603
 20
0.797038
 30
0.0
 40
0
 41
0
  0
VERTEX
  8
0
 10
3.58154
 20
0.797038
 30
0.0
 40
0
 41
0
  0
VERTEX
  8
0
 10
3.58154
 20
0.867622
 30
0.0
 40
0
 41
0
  0
VERTEX
  8
0
 10
3.51085
 20
0.867622
 30
0.0
 40
0
 41
0
  0
VERTEX
  8
0
 10
3.51085
 20
0.797038
 30
0.0
 40
0
 41
0
  0
VERTEX
  8
0
 10
3.52642
 20
0.797038
 30
0.0
 40
0
 41
0
  0
VERTEX
  8
0
 10
3.52642
 20
0.732747
 30
0.0
 40
0
 41
0
  0
VERTEX
  8
0
 10
3.43896
 20
0.645344
 30
0.0
 40
0
 41
0
  0
VERTEX
  8
0
 10
3.52642
 20
0.557943
 30
0.0
 40
0
 41
0
  0
VERTEX
  8
0
 10
3.52642
 20
0.26161
 30
0.0
 40
0
 41
0
  0
VERTEX
  8
0
 10
3.36214
 20
0.0979818
 30
0.0
 40
0
 41
0
  0
VERTEX
  8
0
 10
3.26887
 20
0.0979818
 30
0.0
 40
0
 41
0
  0
VERTEX
  8
0
 10
3.18213
 20
0.184733
 30
0.0
 40
0
 41
0
  0
VERTEX
  8
0
 10
2.75049
 20
0.184733
 30
0.0
 40
0
 41
0
  0
VERTEX
  8
0
 10
2.75049
 20
0.247504
 30
0.0
 40
0
 41
0
  0
VERTEX
  8
0
 10
2.65657
 20
0.328614
 30
0.0
 40
0
 41
0
  0
VERTEX
  8
0
 10
2.65657
 20
1.19347
 30
0.0
 40
0
 41
0
  0
VERTEX
  8
0
 10
2.75803
 20
1.19347
 30
0.0
 40
0
 41
0
  0
VERTEX
  8
0
 10
2.75803
 20
1.17801
 30
0.0
 40
0
 41
0
  0
VERTEX
  8
0
 10
2.82867
 20
1.17801
 30
0.0
 40
0
 41
0
  0
VERTEX
  8
0
 10
2.82867
 20
1.24859
 30
0.0
 40
0
 41
0
  0
VERTEX
  8
0
 10
2.75803
 20
1.24859
 30
0.0
 40
0
 41
0
  0
VERTEX
  8
0
 10
2.75803
 20
1.23307
 30
0.0
 40
0
 41
0
  0
SEQEND
 8
0
  0
POLYLINE
  8
0
 62
     7
 66
     1
 10
0
 20
0
 30
0.0
 70
     1
 40
0
 41
0
  0
VERTEX
  8
0
 10
2.6721
 20
0.22716
 30
0.0
 40
0
 41
0
  0
VERTEX
  8
0
 10
2.60151
 20
0.22716
 30
0.0
 40
0
 41
0
  0
VERTEX
  8
0
 10
2.60151
 20
0.156575
 30
0.0
 40
0
 41
0
  0
VERTEX
  8
0
 10
2.61697
 20
0.156575
 30
0.0
 40
0
 41
0
  0
VERTEX
  8
0
 10
2.61697
 20
0.0576172
 30
0.0
 40
0
 41
0
  0
VERTEX
  8
0
 10
3.07553
 20
0.0576172
 30
0.0
 40
0
 41
0
  0
VERTEX
  8
0
 10
3.07553
 20
0.0421007
 30
0.0
 40
0
 41
0
  0
VERTEX
  8
0
 10
3.14611
 20
0.0421007
 30
0.0
 40
0
 41
0
  0
VERTEX
  8
0
 10
3.14611
 20
0.112793
 30
0.0
 40
0
 41
0
  0
VERTEX
  8
0
 10
3.07553
 20
0.112793
 30
0.0
 40
0
 41
0
  0
VERTEX
  8
0
 10
3.07553
 20
0.0972222
 30
0.0
 40
0
 41
0
  0
VERTEX
  8
0
 10
2.65657
 20
0.0972222
 30
0.0
 40
0
 41
0
  0
VERTEX
  8
0
 10
2.65657
 20
0.156575
 30
0.0
 40
0
 41
0
  0
VERTEX
  8
0
 10
2.6721
 20
0.156575
 30
0.0
 40
0
 41
0
  0
VERTEX
  8
0
 10
2.6721
 20
0.22716
 30
0.0
 40
0
 41
0
  0
SEQEND
 8
0
  0
POLYLINE
  8
0
 62
     7
 66
     1
 10
0
 20
0
 30
0.0
 70
     1
 40
0
 41
0
  0
VERTEX
  8
0
 10
2.24918
 20
2.50738
 30
0.0
 40
0
 41
0
  0
VERTEX
  8
0
 10
2.24918
 20
2.52289
 30
0.0
 40
0
 41
0
  0
VERTEX
  8
0
 10
2.38363
 20
2.52289
 30
0.0
 40
0
 41
0
  0
VERTEX
  8
0
 10
2.38363
 20
2.50738
 30
0.0
 40
0
 41
0
  0
VERTEX
  8
0
 10
2.45426
 20
2.50738
 30
0.0
 40
0
 41
0
  0
VERTEX
  8
0
 10
2.45426
 20
2.57801
 30
0.0
 40
0
 41
0
  0
VERTEX
  8
0
 10
2.38363
 20
2.57801
 30
0.0
 40
0
 41
0
  0
VERTEX
  8
0
 10
2.38363
 20
2.5625
 30
0.0
 40
0
 41
0
  0
VERTEX
  8
0
 10
2.24918
 20
2.5625
 30
0.0
 40
0
 41
0
  0
VERTEX
  8
0
 10
2.24918
 20
2.57801
 30
0.0
 40
0
 41
0
  0
VERTEX
  8
0
 10
2.1786
 20
2.57801
 30
0.0
 40
0
 41
0
  0
VERTEX
  8
0
 10
2.1786
 20
2.50738
 30
0.0
 40
0
 41
0
  0
VERTEX
  8
0
 10
2.24918
 20
2.50738
 30
0.0
 40
0
 41
0
  0
SEQEND
 8
0
  0
POLYLINE
  8
0
 62
     7
 66
     1
 10
0
 20
0
 30
0.0
 70
     1
 40
0
 41
0
  0
VERTEX
  8
0
 10
2.08008
 20
1.94581
 30
0.0
 40
0
 41
0
  0
VERTEX
  8
0
 10
2.08008
 20
1.62711
 30
0.0
 40
0
 41
0
  0
VERTEX
  8
0
 10
2.06461
 20
1.62711
 30
0.0
 40
0
 41
0
  0
VERTEX
  8
0
 10
2.06461
 20
1.55653
 30
0.0
 40
0
 41
0
  0
VERTEX
  8
0
 10
2.13519
 20
1.55653
 30
0.0
 40
0
 41
0
  0
VERTEX
  8
0
 10
2.13519
 20
1.62711
 30
0.0
 40
0
 41
0
  0
VERTEX
  8
0
 10
2.11968
 20
1.62711
 30
0.0
 40
0
 41
0
  0
VERTEX
  8
0
 10
2.11968
 20
1.94581
 30
0.0
 40
0
 41
0
  0
VERTEX
  8
0
 10
2.13519
 20
1.94581
 30
0.0
 40
0
 41
0
  0
VERTEX
  8
0
 10
2.13519
 20
2.01633
 30
0.0
 40
0
 41
0
  0
VERTEX
  8
0
 10
2.06461
 20
2.01633
 30
0.0
 40
0
 41
0
  0
VERTEX
  8
0
 10
2.06461
 20
1.94581
 30
0.0
 40
0
 41
0
  0
VERTEX
  8
0
 10
2.08008
 20
1.94581
 30
0.0
 40
0
 41
0
  0
SEQEND
 8
0
  0
POLYLINE
  8
0
 62
     7
 66
     1
 10
0
 20
0
 30
0.0
 70
     1
 40
0
 41
0
  0
VERTEX
  8
0
 10
2.21642
 20
2.42469
 30
0.0
 40
0
 41
0
  0
VERTEX
  8
0
 10
2.53674
 20
2.42469
 30
0.0
 40
0
 41
0
  0
VERTEX
  8
0
 10
2.53674
 20
2.65767
 30
0.0
 40
0
 41
0
  0
VERTEX
  8
0
 10
1.66308
 20
2.65767
 30
0.0
 40
0
 41
0
  0
VERTEX
  8
0
 10
1.66308
 20
2.42469
 30
0.0
 40
0
 41
0
  0
VERTEX
  8
0
 10
1.9834
 20
2.42469
 30
0.0
 40
0
 41
0
  0
VERTEX
  8
0
 10
1.9834
 20
1.48226
 30
0.0
 40
0
 41
0
  0
VERTEX
  8
0
 10
2.21642
 20
1.48226
 30
0.0
 40
0
 41
0
  0
VERTEX
  8
0
 10
2.21642
 20
2.02285
 30
0.0
 40
0
 41
0
  0
VERTEX
  8
0
 10
2.11974
 20
2.11947
 30
0.0
 40
0
 41
0
  0
VERTEX
  8
0
 10
2.11974
 20
2.5625
 30
0.0
 40
0
 41
0
  0
VERTEX
  8
0
 10
1.81196
 20
2.5625
 30
0.0
 40
0
 41
0
  0
VERTEX
  8
0
 10
1.81196
 20
2.57801
 30
0.0
 40
0
 41
0
  0
VERTEX
  8
0
 10
1.74137
 20
2.57801
 30
0.0
 40
0
 41
0
  0
VERTEX
  8
0
 10
1.74137
 20
2.50738
 30
0.0
 40
0
 41
0
  0
VERTEX
  8
0
 10
1.81196
 20
2.50738
 30
0.0
 40
0
 41
0
  0
VERTEX
  8
0
 10
1.81196
 20
2.52289
 30
0.0
 40
0
 41
0
  0
VERTEX
  8
0
 10
2.08014
 20
2.52289
 30
0.0
 40
0
 41
0
  0
VERTEX
  8
0
 10
2.08014
 20
2.10303
 30
0.0
 40
0
 41
0
  0
VERTEX
  8
0
 10
2.17676
 20
2.0064
 30
0.0
 40
0
 41
0
  0
VERTEX
  8
0
 10
2.17676
 20
1.52181
 30
0.0
 40
0
 41
0
  0
VERTEX
  8
0
 10
2.023
 20
1.52181
 30
0.0
 40
0
 41
0
  0
VERTEX
  8
0
 10
2.023
 20
2.46431
 30
0.0
 40
0
 41
0
  0
VERTEX
  8
0
 10
1.70269
 20
2.46431
 30
0.0
 40
0
 41
0
  0
VERTEX
  8
0
 10
1.70269
 20
2.61806
 30
0.0
 40
0
 41
0
  0
VERTEX
  8
0
 10
2.49718
 20
2.61806
 30
0.0
 40
0
 41
0
  0
VERTEX
  8
0
 10
2.49718
 20
2.46431
 30
0.0
 40
0
 41
0
  0
VERTEX
  8
0
 10
2.17676
 20
2.46431
 30
0.0
 40
0
 41
0
  0
VERTEX
  8
0
 10
2.17676
 20
2.18978
 30
0.0
 40
0
 41
0
  0
VERTEX
  8
0
 10
2.16135
 20
2.18978
 30
0.0
 40
0
 41
0
  0
VERTEX
  8
0
 10
2.16135
 20
2.11908
 30
0.0
 40
0
 41
0
  0
VERTEX
  8
0
 10
2.23188
 20
2.11908
 30
0.0
 40
0
 41
0
  0
VERTEX
  8
0
 10
2.23188
 20
2.18978
 30
0.0
 40
0
 41
0
  0
VERTEX
  8
0
 10
2.21642
 20
2.18978
 30
0.0
 40
0
 41
0
  0
VERTEX
  8
0
 10
2.21642
 20
2.42469
 30
0.0
 40
0
 41
0
  0
SEQEND
 8
0
  0
POLYLINE
  8
0
 62
     7
 66
     1
 10
0
 20
0
 30
0.0
 70
     1
 40
0
 41
0
  0
VERTEX
  8
0
 10
2.01199
 20
1.15077
 30
0.0
 40
0
 41
0
  0
VERTEX
  8
0
 10
1.9414
 20
1.15077
 30
0.0
 40
0
 41
0
  0
VERTEX
  8
0
 10
1.9414
 20
1.08013
 30
0.0
 40
0
 41
0
  0
VERTEX
  8
0
 10
2.01199
 20
1.08013
 30
0.0
 40
0
 41
0
  0
VERTEX
  8
0
 10
2.01199
 20
1.09565
 30
0.0
 40
0
 41
0
  0
VERTEX
  8
0
 10
2.05593
 20
1.09565
 30
0.0
 40
0
 41
0
  0
VERTEX
  8
0
 10
2.21419
 20
0.937392
 30
0.0
 40
0
 41
0
  0
VERTEX
  8
0
 10
2.21419
 20
0.672472
 30
0.0
 40
0
 41
0
  0
VERTEX
  8
0
 10
2.19874
 20
0.672472
 30
0.0
 40
0
 41
0
  0
VERTEX
  8
0
 10
2.19874
 20
0.601887
 30
0.0
 40
0
 41
0
  0
VERTEX
  8
0
 10
2.26932
 20
0.601887
 30
0.0
 40
0
 41
0
  0
VERTEX
  8
0
 10
2.26932
 20
0.672472
 30
0.0
 40
0
 41
0
  0
VERTEX
  8
0
 10
2.25385
 20
0.672472
 30
0.0
 40
0
 41
0
  0
VERTEX
  8
0
 10
2.25385
 20
0.953831
 30
0.0
 40
0
 41
0
  0
VERTEX
  8
0
 10
2.07232
 20
1.13525
 30
0.0
 40
0
 41
0
  0
VERTEX
  8
0
 10
2.01199
 20
1.13525
 30
0.0
 40
0
 41
0
  0
VERTEX
  8
0
 10
2.01199
 20
1.15077
 30
0.0
 40
0
 41
0
  0
SEQEND
 8
0
  0
POLYLINE
  8
0
 62
     7
 66
     1
 10
0
 20
0
 30
0.0
 70
     1
 40
0
 41
0
  0
VERTEX
  8
0
 10
1.65474
 20
1.13525
 30
0.0
 40
0
 41
0
  0
VERTEX
  8
0
 10
1.4649
 20
0.945421
 30
0.0
 40
0
 41
0
  0
VERTEX
  8
0
 10
1.4649
 20
0.503526
 30
0.0
 40
0
 41
0
  0
VERTEX
  8
0
 10
1.65582
 20
0.503526
 30
0.0
 40
0
 41
0
  0
VERTEX
  8
0
 10
1.65582
 20
0.488064
 30
0.0
 40
0
 41
0
  0
VERTEX
  8
0
 10
1.72635
 20
0.488064
 30
0.0
 40
0
 41
0
  0
VERTEX
  8
0
 10
1.72635
 20
0.558703
 30
0.0
 40
0
 41
0
  0
VERTEX
  8
0
 10
1.65582
 20
0.558703
 30
0.0
 40
0
 41
0
  0
VERTEX
  8
0
 10
1.65582
 20
0.543132
 30
0.0
 40
0
 41
0
  0
VERTEX
  8
0
 10
1.5045
 20
0.543132
 30
0.0
 40
0
 41
0
  0
VERTEX
  8
0
 10
1.5045
 20
0.929036
 30
0.0
 40
0
 41
0
  0
VERTEX
  8
0
 10
1.67111
 20
1.09565
 30
0.0
 40
0
 41
0
  0
VERTEX
  8
0
 10
1.83018
 20
1.09565
 30
0.0
 40
0
 41
0
  0
VERTEX
  8
0
 10
1.93213
 20
0.995335
 30
0.0
 40
0
 41
0
  0
VERTEX
  8
0
 10
2.00765
 20
0.995335
 30
0.0
 40
0
 41
0
  0
VERTEX
  8
0
 10
2.11849
 20
0.884494
 30
0.0
 40
0
 41
0
  0
VERTEX
  8
0
 10
2.11849
 20
0.637858
 30
0.0
 40
0
 41
0
  0
VERTEX
  8
0
 10
1.60243
 20
0.637858
 30
0.0
 40
0
 41
0
  0
VERTEX
  8
0
 10
1.60243
 20
0.884494
 30
0.0
 40
0
 41
0
  0
VERTEX
  8
0
 10
1.71326
 20
0.995335
 30
0.0
 40
0
 41
0
  0
VERTEX
  8
0
 10
1.77556
 20
0.995335
 30
0.0
 40
0
 41
0
  0
VERTEX
  8
0
 10
1.77556
 20
0.979818
 30
0.0
 40
0
 41
0
  0
VERTEX
  8
0
 10
1.84614
 20
0.979818
 30
0.0
 40
0
 41
0
  0
VERTEX
  8
0
 10
1.84614
 20
1.0504
 30
0.0
 40
0
 41
0
  0
VERTEX
  8
0
 10
1.77556
 20
1.0504
 30
0.0
 40
0
 41
0
  0
VERTEX
  8
0
 10
1.77556
 20
1.03494
 30
0.0
 40
0
 41
0
  0
VERTEX
  8
0
 10
1.69689
 20
1.03494
 30
0.0
 40
0
 41
0
  0
VERTEX
  8
0
 10
1.56282
 20
0.900879
 30
0.0
 40
0
 41
0
  0
VERTEX
  8
0
 10
1.56282
 20
0.598199
 30
0.0
 40
0
 41
0
  0
VERTEX
  8
0
 10
2.1581
 20
0.598199
 30
0.0
 40
0
 41
0
  0
VERTEX
  8
0
 10
2.1581
 20
0.900879
 30
0.0
 40
0
 41
0
  0
VERTEX
  8
0
 10
2.02408
 20
1.03494
 30
0.0
 40
0
 41
0
  0
VERTEX
  8
0
 10
1.94835
 20
1.03494
 30
0.0
 40
0
 41
0
  0
VERTEX
  8
0
 10
1.8464
 20
1.13525
 30
0.0
 40
0
 41
0
  0
VERTEX
  8
0
 10
1.65474
 20
1.13525
 30
0.0
 40
0
 41
0
  0
SEQEND
 8
0
  0
POLYLINE
  8
0
 62
     7
 66
     1
 10
0
 20
0
 30
0.0
 70
     1
 40
0
 41
0
  0
VERTEX
  8
0
 10
1.4649
 20
0.371419
 30
0.0
 40
0
 41
0
  0
VERTEX
  8
0
 10
1.4649
 20
0.224718
 30
0.0
 40
0
 41
0
  0
VERTEX
  8
0
 10
1.44938
 20
0.224718
 30
0.0
 40
0
 41
0
  0
VERTEX
  8
0
 10
1.44938
 20
0.154135
 30
0.0
 40
0
 41
0
  0
VERTEX
  8
0
 10
1.52001
 20
0.154135
 30
0.0
 40
0
 41
0
  0
VERTEX
  8
0
 10
1.52001
 20
0.224718
 30
0.0
 40
0
 41
0
  0
VERTEX
  8
0
 10
1.5045
 20
0.224718
 30
0.0
 40
0
 41
0
  0
VERTEX
  8
0
 10
1.5045
 20
0.371419
 30
0.0
 40
0
 41
0
  0
VERTEX
  8
0
 10
1.52001
 20
0.371419
 30
0.0
 40
0
 41
0
  0
VERTEX
  8
0
 10
1.52001
 20
0.441949
 30
0.0
 40
0
 41
0
  0
VERTEX
  8
0
 10
1.44938
 20
0.441949
 30
0.0
 40
0
 41
0
  0
VERTEX
  8
0
 10
1.44938
 20
0.371419
 30
0.0
 40
0
 41
0
  0
VERTEX
  8
0
 10
1.4649
 20
0.371419
 30
0.0
 40
0
 41
0
  0
SEQEND
 8
0
  0
POLYLINE
  8
0
 62
     7
 66
     1
 10
0
 20
0
 30
0.0
 70
     1
 40
0
 41
0
  0
VERTEX
  8
0
 10
2.10303
 20
1.23079
 30
0.0
 40
0
 41
0
  0
VERTEX
  8
0
 10
1.6166
 20
1.22857
 30
0.0
 40
0
 41
0
  0
VERTEX
  8
0
 10
1.37039
 20
0.984375
 30
0.0
 40
0
 41
0
  0
VERTEX
  8
0
 10
1.37044
 20
0.053711
 30
0.0
 40
0
 41
0
  0
VERTEX
  8
0
 10
1.60157
 20
0.053711
 30
0.0
 40
0
 41
0
  0
VERTEX
  8
0
 10
1.60157
 20
0.404514
 30
0.0
 40
0
 41
0
  0
VERTEX
  8
0
 10
1.75928
 20
0.404514
 30
0.0
 40
0
 41
0
  0
VERTEX
  8
0
 10
1.86578
 20
0.503526
 30
0.0
 40
0
 41
0
  0
VERTEX
  8
0
 10
2.21419
 20
0.503526
 30
0.0
 40
0
 41
0
  0
VERTEX
  8
0
 10
2.21419
 20
0.224718
 30
0.0
 40
0
 41
0
  0
VERTEX
  8
0
 10
2.19874
 20
0.224718
 30
0.0
 40
0
 41
0
  0
VERTEX
  8
0
 10
2.19874
 20
0.154135
 30
0.0
 40
0
 41
0
  0
VERTEX
  8
0
 10
2.26932
 20
0.154135
 30
0.0
 40
0
 41
0
  0
VERTEX
  8
0
 10
2.26932
 20
0.224718
 30
0.0
 40
0
 41
0
  0
VERTEX
  8
0
 10
2.25385
 20
0.224718
 30
0.0
 40
0
 41
0
  0
VERTEX
  8
0
 10
2.25385
 20
0.543132
 30
0.0
 40
0
 41
0
  0
VERTEX
  8
0
 10
1.85021
 20
0.543132
 30
0.0
 40
0
 41
0
  0
VERTEX
  8
0
 10
1.74371
 20
0.444065
 30
0.0
 40
0
 41
0
  0
VERTEX
  8
0
 10
1.56196
 20
0.444065
 30
0.0
 40
0
 41
0
  0
VERTEX
  8
0
 10
1.56196
 20
0.093316
 30
0.0
 40
0
 41
0
  0
VERTEX
  8
0
 10
1.41
 20
0.093316
 30
0.0
 40
0
 41
0
  0
VERTEX
  8
0
 10
1.41
 20
0.967882
 30
0.0
 40
0
 41
0
  0
VERTEX
  8
0
 10
1.63303
 20
1.18902
 30
0.0
 40
0
 41
0
  0
VERTEX
  8
0
 10
2.08697
 20
1.19113
 30
0.0
 40
0
 41
0
  0
VERTEX
  8
0
 10
2.29639
 20
0.98584
 30
0.0
 40
0
 41
0
  0
VERTEX
  8
0
 10
2.29639
 20
0.940701
 30
0.0
 40
0
 41
0
  0
VERTEX
  8
0
 10
2.36697
 20
0.940701
 30
0.0
 40
0
 41
0
  0
VERTEX
  8
0
 10
2.36697
 20
1.01139
 30
0.0
 40
0
 41
0
  0
VERTEX
  8
0
 10
2.32688
 20
1.01139
 30
0.0
 40
0
 41
0
  0
VERTEX
  8
0
 10
2.10303
 20
1.23079
 30
0.0
 40
0
 41
0
  0
SEQEND
 8
0
  0
POLYLINE
  8
0
 62
     7
 66
     1
 10
0
 20
0
 30
0.0
 70
     1
 40
0
 41
0
  0
VERTEX
  8
0
 10
1.28418
 20
1.95464
 30
0.0
 40
0
 41
0
  0
VERTEX
  8
0
 10
1.28418
 20
1.63374
 30
0.0
 40
0
 41
0
  0
VERTEX
  8
0
 10
1.26866
 20
1.63374
 30
0.0
 40
0
 41
0
  0
VERTEX
  8
0
 10
1.26866
 20
1.5631
 30
0.0
 40
0
 41
0
  0
VERTEX
  8
0
 10
1.3393
 20
1.5631
 30
0.0
 40
0
 41
0
  0
VERTEX
  8
0
 10
1.3393
 20
1.63374
 30
0.0
 40
0
 41
0
  0
VERTEX
  8
0
 10
1.32384
 20
1.63374
 30
0.0
 40
0
 41
0
  0
VERTEX
  8
0
 10
1.32384
 20
1.95464
 30
0.0
 40
0
 41
0
  0
VERTEX
  8
0
 10
1.3393
 20
1.95464
 30
0.0
 40
0
 41
0
  0
VERTEX
  8
0
 10
1.3393
 20
2.02522
 30
0.0
 40
0
 41
0
  0
VERTEX
  8
0
 10
1.26866
 20
2.02522
 30
0.0
 40
0
 41
0
  0
VERTEX
  8
0
 10
1.26866
 20
1.95464
 30
0.0
 40
0
 41
0
  0
VERTEX
  8
0
 10
1.28418
 20
1.95464
 30
0.0
 40
0
 41
0
  0
SEQEND
 8
0
  0
POLYLINE
  8
0
 62
     7
 66
     1
 10
0
 20
0
 30
0.0
 70
     1
 40
0
 41
0
  0
VERTEX
  8
0
 10
1.37435
 20
2.16233
 30
0.0
 40
0
 41
0
  0
VERTEX
  8
0
 10
1.44487
 20
2.16233
 30
0.0
 40
0
 41
0
  0
VERTEX
  8
0
 10
1.44487
 20
2.23292
 30
0.0
 40
0
 41
0
  0
VERTEX
  8
0
 10
1.42936
 20
2.23292
 30
0.0
 40
0
 41
0
  0
VERTEX
  8
0
 10
1.42936
 20
2.65767
 30
0.0
 40
0
 41
0
  0
VERTEX
  8
0
 10
1.18468
 20
2.65767
 30
0.0
 40
0
 41
0
  0
VERTEX
  8
0
 10
1.18468
 20
1.48221
 30
0.0
 40
0
 41
0
  0
VERTEX
  8
0
 10
1.42936
 20
1.48221
 30
0.0
 40
0
 41
0
  0
VERTEX
  8
0
 10
1.42936
 20
2.03207
 30
0.0
 40
0
 41
0
  0
VERTEX
  8
0
 10
1.32373
 20
2.15007
 30
0.0
 40
0
 41
0
  0
VERTEX
  8
0
 10
1.32384
 20
2.50646
 30
0.0
 40
0
 41
0
  0
VERTEX
  8
0
 10
1.3393
 20
2.50646
 30
0.0
 40
0
 41
0
  0
VERTEX
  8
0
 10
1.3393
 20
2.57715
 30
0.0
 40
0
 41
0
  0
VERTEX
  8
0
 10
1.26866
 20
2.57715
 30
0.0
 40
0
 41
0
  0
VERTEX
  8
0
 10
1.26866
 20
2.50646
 30
0.0
 40
0
 41
0
  0
VERTEX
  8
0
 10
1.28418
 20
2.50646
 30
0.0
 40
0
 41
0
  0
VERTEX
  8
0
 10
1.28413
 20
2.13363
 30
0.0
 40
0
 41
0
  0
VERTEX
  8
0
 10
1.38976
 20
2.01574
 30
0.0
 40
0
 41
0
  0
VERTEX
  8
0
 10
1.38976
 20
1.52181
 30
0.0
 40
0
 41
0
  0
VERTEX
  8
0
 10
1.22434
 20
1.52181
 30
0.0
 40
0
 41
0
  0
VERTEX
  8
0
 10
1.22434
 20
2.61806
 30
0.0
 40
0
 41
0
  0
VERTEX
  8
0
 10
1.38976
 20
2.61806
 30
0.0
 40
0
 41
0
  0
VERTEX
  8
0
 10
1.38976
 20
2.23292
 30
0.0
 40
0
 41
0
  0
VERTEX
  8
0
 10
1.37435
 20
2.23292
 30
0.0
 40
0
 41
0
  0
VERTEX
  8
0
 10
1.37435
 20
2.16233
 30
0.0
 40
0
 41
0
  0
SEQEND
 8
0
  0
POLYLINE
  8
0
 62
     7
 66
     1
 10
0
 20
0
 30
0.0
 70
     1
 40
0
 41
0
  0
VERTEX
  8
0
 10
0.694282
 20
0.128309
 30
0.0
 40
0
 41
0
  0
VERTEX
  8
0
 10
0.694282
 20
0.143881
 30
0.0
 40
0
 41
0
  0
VERTEX
  8
0
 10
0.972493
 20
0.143881
 30
0.0
 40
0
 41
0
  0
VERTEX
  8
0
 10
0.972493
 20
0.128309
 30
0.0
 40
0
 41
0
  0
VERTEX
  8
0
 10
1.04308
 20
0.128309
 30
0.0
 40
0
 41
0
  0
VERTEX
  8
0
 10
1.04308
 20
0.199001
 30
0.0
 40
0
 41
0
  0
VERTEX
  8
0
 10
0.972493
 20
0.199001
 30
0.0
 40
0
 41
0
  0
VERTEX
  8
0
 10
0.972493
 20
0.183485
 30
0.0
 40
0
 41
0
  0
VERTEX
  8
0
 10
0.694282
 20
0.183485
 30
0.0
 40
0
 41
0
  0
VERTEX
  8
0
 10
0.694282
 20
0.199001
 30
0.0
 40
0
 41
0
  0
VERTEX
  8
0
 10
0.623643
 20
0.199001
 30
0.0
 40
0
 41
0
  0
VERTEX
  8
0
 10
0.623643
 20
0.128309
 30
0.0
 40
0
 41
0
  0
VERTEX
  8
0
 10
0.694282
 20
0.128309
 30
0.0
 40
0
 41
0
  0
SEQEND
 8
0
  0
POLYLINE
  8
0
 62
     7
 66
     1
 10
0
 20
0
 30
0.0
 70
     1
 40
0
 41
0
  0
VERTEX
  8
0
 10
0.178765
 20
0.0553386
 30
0.0
 40
0
 41
0
  0
VERTEX
  8
0
 10
1.12684
 20
0.0553386
 30
0.0
 40
0
 41
0
  0
VERTEX
  8
0
 10
1.12684
 20
0.288411
 30
0.0
 40
0
 41
0
  0
VERTEX
  8
0
 10
0.604656
 20
0.288411
 30
0.0
 40
0
 41
0
  0
VERTEX
  8
0
 10
0.505588
 20
0.183485
 30
0.0
 40
0
 41
0
  0
VERTEX
  8
0
 10
0.310385
 20
0.183485
 30
0.0
 40
0
 41
0
  0
VERTEX
  8
0
 10
0.310385
 20
0.463433
 30
0.0
 40
0
 41
0
  0
VERTEX
  8
0
 10
0.3259
 20
0.463433
 30
0.0
 40
0
 41
0
  0
VERTEX
  8
0
 10
0.3259
 20
0.534017
 30
0.0
 40
0
 41
0
  0
VERTEX
  8
0
 10
0.255263
 20
0.534017
 30
0.0
 40
0
 41
0
  0
VERTEX
  8
0
 10
0.255263
 20
0.463433
 30
0.0
 40
0
 41
0
  0
VERTEX
  8
0
 10
0.270779
 20
0.463433
 30
0.0
 40
0
 41
0
  0
VERTEX
  8
0
 10
0.270779
 20
0.143881
 30
0.0
 40
0
 41
0
  0
VERTEX
  8
0
 10
0.522732
 20
0.143881
 30
0.0
 40
0
 41
0
  0
VERTEX
  8
0
 10
0.621744
 20
0.248753
 30
0.0
 40
0
 41
0
  0
VERTEX
  8
0
 10
1.08724
 20
0.248753
 30
0.0
 40
0
 41
0
  0
VERTEX
  8
0
 10
1.08724
 20
0.0949436
 30
0.0
 40
0
 41
0
  0
VERTEX
  8
0
 10
0.218371
 20
0.0949436
 30
0.0
 40
0
 41
0
  0
VERTEX
  8
0
 10
0.218371
 20
0.529676
 30
0.0
 40
0
 41
0
  0
VERTEX
  8
0
 10
0.313422
 20
0.624024
 30
0.0
 40
0
 41
0
  0
VERTEX
  8
0
 10
0.313422
 20
1.07959
 30
0.0
 40
0
 41
0
  0
VERTEX
  8
0
 10
0.328885
 20
1.07959
 30
0.0
 40
0
 41
0
  0
VERTEX
  8
0
 10
0.328885
 20
1.15017
 30
0.0
 40
0
 41
0
  0
VERTEX
  8
0
 10
0.258301
 20
1.15017
 30
0.0
 40
0
 41
0
  0
VERTEX
  8
0
 10
0.258301
 20
1.07959
 30
0.0
 40
0
 41
0
  0
VERTEX
  8
0
 10
0.273872
 20
1.07959
 30
0.0
 40
0
 41
0
  0
VERTEX
  8
0
 10
0.273872
 20
0.640517
 30
0.0
 40
0
 41
0
  0
VERTEX
  8
0
 10
0.178765
 20
0.546169
 30
0.0
 40
0
 41
0
  0
VERTEX
  8
0
 10
0.178765
 20
0.0553386
 30
0.0
 40
0
 41
0
  0
SEQEND
 8
0
  0
POLYLINE
  8
0
 62
     7
 66
     1
 10
0
 20
0
 30
0.0
 70
     1
 40
0
 41
0
  0
VERTEX
  8
0
 10
0.600043
 20
2.50592
 30
0.0
 40
0
 41
0
  0
VERTEX
  8
0
 10
0.600043
 20
2.52138
 30
0.0
 40
0
 41
0
  0
VERTEX
  8
0
 10
0.627713
 20
2.52138
 30
0.0
 40
0
 41
0
  0
VERTEX
  8
0
 10
0.780761
 20
2.36757
 30
0.0
 40
0
 41
0
  0
VERTEX
  8
0
 10
0.774197
 20
2.36757
 30
0.0
 40
0
 41
0
  0
VERTEX
  8
0
 10
0.774197
 20
2.29693
 30
0.0
 40
0
 41
0
  0
VERTEX
  8
0
 10
0.844835
 20
2.29693
 30
0.0
 40
0
 41
0
  0
VERTEX
  8
0
 10
0.844835
 20
2.36757
 30
0.0
 40
0
 41
0
  0
VERTEX
  8
0
 10
0.829318
 20
2.36757
 30
0.0
 40
0
 41
0
  0
VERTEX
  8
0
 10
0.829318
 20
2.37494
 30
0.0
 40
0
 41
0
  0
VERTEX
  8
0
 10
0.644206
 20
2.56104
 30
0.0
 40
0
 41
0
  0
VERTEX
  8
0
 10
0.600043
 20
2.56104
 30
0.0
 40
0
 41
0
  0
VERTEX
  8
0
 10
0.600043
 20
2.5765
 30
0.0
 40
0
 41
0
  0
VERTEX
  8
0
 10
0.52946
 20
2.5765
 30
0.0
 40
0
 41
0
  0
VERTEX
  8
0
 10
0.52946
 20
2.50592
 30
0.0
 40
0
 41
0
  0
VERTEX
  8
0
 10
0.600043
 20
2.50592
 30
0.0
 40
0
 41
0
  0
SEQEND
 8
0
  0
POLYLINE
  8
0
 62
     7
 66
     1
 10
0
 20
0
 30
0.0
 70
     1
 40
0
 41
0
  0
VERTEX
  8
0
 10
0.927408
 20
2.21539
 30
0.0
 40
0
 41
0
  0
VERTEX
  8
0
 10
0.927408
 20
2.41049
 30
0.0
 40
0
 41
0
  0
VERTEX
  8
0
 10
0.680231
 20
2.65767
 30
0.0
 40
0
 41
0
  0
VERTEX
  8
0
 10
0.511231
 20
2.65767
 30
0.0
 40
0
 41
0
  0
VERTEX
  8
0
 10
0.41965
 20
2.55951
 30
0.0
 40
0
 41
0
  0
VERTEX
  8
0
 10
0.336262
 20
2.55778
 30
0.0
 40
0
 41
0
  0
VERTEX
  8
0
 10
0.150988
 20
2.3725
 30
0.0
 40
0
 41
0
  0
VERTEX
  8
0
 10
0.150988
 20
2.31168
 30
0.0
 40
0
 41
0
  0
VERTEX
  8
0
 10
0.135471
 20
2.31168
 30
0.0
 40
0
 41
0
  0
VERTEX
  8
0
 10
0.135471
 20
2.24104
 30
0.0
 40
0
 41
0
  0
VERTEX
  8
0
 10
0.206054
 20
2.24104
 30
0.0
 40
0
 41
0
  0
VERTEX
  8
0
 10
0.206054
 20
2.31168
 30
0.0
 40
0
 41
0
  0
VERTEX
  8
0
 10
0.190593
 20
2.31168
 30
0.0
 40
0
 41
0
  0
VERTEX
  8
0
 10
0.190593
 20
2.35613
 30
0.0
 40
0
 41
0
  0
VERTEX
  8
0
 10
0.352919
 20
2.5185
 30
0.0
 40
0
 41
0
  0
VERTEX
  8
0
 10
0.437121
 20
2.52013
 30
0.0
 40
0
 41
0
  0
VERTEX
  8
0
 10
0.528429
 20
2.61806
 30
0.0
 40
0
 41
0
  0
VERTEX
  8
0
 10
0.663846
 20
2.61806
 30
0.0
 40
0
 41
0
  0
VERTEX
  8
0
 10
0.88775
 20
2.3941
 30
0.0
 40
0
 41
0
  0
VERTEX
  8
0
 10
0.88775
 20
2.2551
 30
0.0
 40
0
 41
0
  0
VERTEX
  8
0
 10
0.733996
 20
2.2551
 30
0.0
 40
0
 41
0
  0
VERTEX
  8
0
 10
0.733996
 20
2.33024
 30
0.0
 40
0
 41
0
  0
VERTEX
  8
0
 10
0.599935
 20
2.46431
 30
0.0
 40
0
 41
0
  0
VERTEX
  8
0
 10
0.381131
 20
2.46431
 30
0.0
 40
0
 41
0
  0
VERTEX
  8
0
 10
0.247071
 20
2.33024
 30
0.0
 40
0
 41
0
  0
VERTEX
  8
0
 10
0.247071
 20
2.04915
 30
0.0
 40
0
 41
0
  0
VERTEX
  8
0
 10
0.231608
 20
2.04915
 30
0.0
 40
0
 41
0
  0
VERTEX
  8
0
 10
0.231608
 20
1.97857
 30
0.0
 40
0
 41
0
  0
VERTEX
  8
0
 10
0.302192
 20
1.97857
 30
0.0
 40
0
 41
0
  0
VERTEX
  8
0
 10
0.302192
 20
2.04915
 30
0.0
 40
0
 41
0
  0
VERTEX
  8
0
 10
0.286729
 20
2.04915
 30
0.0
 40
0
 41
0
  0
VERTEX
  8
0
 10
0.286729
 20
2.31381
 30
0.0
 40
0
 41
0
  0
VERTEX
  8
0
 10
0.397569
 20
2.42464
 30
0.0
 40
0
 41
0
  0
VERTEX
  8
0
 10
0.58355
 20
2.42464
 30
0.0
 40
0
 41
0
  0
VERTEX
  8
0
 10
0.69439
 20
2.31381
 30
0.0
 40
0
 41
0
  0
VERTEX
  8
0
 10
0.69439
 20
2.21539
 30
0.0
 40
0
 41
0
  0
VERTEX
  8
0
 10
0.927408
 20
2.21539
 30
0.0
 40
0
 41
0
  0
SEQEND
 8
0
  0
POLYLINE
  8
0
 62
     7
 66
     1
 10
0
 20
0
 30
0.0
 70
     1
 40
0
 41
0
  0
VERTEX
  8
0
 10
0.346733
 20
2.6026
 30
0.0
 40
0
 41
0
  0
VERTEX
  8
0
 10
0.417318
 20
2.6026
 30
0.0
 40
0
 41
0
  0
VERTEX
  8
0
 10
0.417318
 20
2.67318
 30
0.0
 40
0
 41
0
  0
VERTEX
  8
0
 10
0.346733
 20
2.67318
 30
0.0
 40
0
 41
0
  0
VERTEX
  8
0
 10
0.346733
 20
2.65767
 30
0.0
 40
0
 41
0
  0
VERTEX
  8
0
 10
0.300836
 20
2.65767
 30
0.0
 40
0
 41
0
  0
VERTEX
  8
0
 10
0.053711
 20
2.41049
 30
0.0
 40
0
 41
0
  0
VERTEX
  8
0
 10
0.053711
 20
2.20449
 30
0.0
 40
0
 41
0
  0
VERTEX
  8
0
 10
0.150988
 20
2.10553
 30
0.0
 40
0
 41
0
  0
VERTEX
  8
0
 10
0.150988
 20
1.76671
 30
0.0
 40
0
 41
0
  0
VERTEX
  8
0
 10
0.344781
 20
1.57443
 30
0.0
 40
0
 41
0
  0
VERTEX
  8
0
 10
0.401204
 20
1.57503
 30
0.0
 40
0
 41
0
  0
VERTEX
  8
0
 10
0.401313
 20
1.55963
 30
0.0
 40
0
 41
0
  0
VERTEX
  8
0
 10
0.471951
 20
1.56022
 30
0.0
 40
0
 41
0
  0
VERTEX
  8
0
 10
0.471354
 20
1.63081
 30
0.0
 40
0
 41
0
  0
VERTEX
  8
0
 10
0.400771
 20
1.63021
 30
0.0
 40
0
 41
0
  0
VERTEX
  8
0
 10
0.400879
 20
1.61464
 30
0.0
 40
0
 41
0
  0
VERTEX
  8
0
 10
0.360949
 20
1.61415
 30
0.0
 40
0
 41
0
  0
VERTEX
  8
0
 10
0.190593
 20
1.78321
 30
0.0
 40
0
 41
0
  0
VERTEX
  8
0
 10
0.190593
 20
2.12175
 30
0.0
 40
0
 41
0
  0
VERTEX
  8
0
 10
0.093316
 20
2.22071
 30
0.0
 40
0
 41
0
  0
VERTEX
  8
0
 10
0.093316
 20
2.3941
 30
0.0
 40
0
 41
0
  0
VERTEX
  8
0
 10
0.317275
 20
2.61806
 30
0.0
 40
0
 41
0
  0
VERTEX
  8
0
 10
0.346733
 20
2.61806
 30
0.0
 40
0
 41
0
  0
VERTEX
  8
0
 10
0.346733
 20
2.6026
 30
0.0
 40
0
 41
0
  0
SEQEND
 8
0
  0
POLYLINE
  8
0
 62
     7
 66
     1
 10
0
 20
0
 30
0.0
 70
     1
 40
0
 41
0
  0
VERTEX
  8
0
 10
0.590061
 20
1.56119
 30
0.0
 40
0
 41
0
  0
VERTEX
  8
0
 10
0.589953
 20
1.57688
 30
0.0
 40
0
 41
0
  0
VERTEX
  8
0
 10
0.636664
 20
1.57736
 30
0.0
 40
0
 41
0
  0
VERTEX
  8
0
 10
0.829372
 20
1.76969
 30
0.0
 40
0
 41
0
  0
VERTEX
  8
0
 10
0.829372
 20
1.76981
 30
0.0
 40
0
 41
0
  0
VERTEX
  8
0
 10
0.844835
 20
1.76975
 30
0.0
 40
0
 41
0
  0
VERTEX
  8
0
 10
0.845161
 20
1.84033
 30
0.0
 40
0
 41
0
  0
VERTEX
  8
0
 10
0.774576
 20
1.84071
 30
0.0
 40
0
 41
0
  0
VERTEX
  8
0
 10
0.774197
 20
1.77061
 30
0.0
 40
0
 41
0
  0
VERTEX
  8
0
 10
0.620171
 20
1.61686
 30
0.0
 40
0
 41
0
  0
VERTEX
  8
0
 10
0.589681
 20
1.61649
 30
0.0
 40
0
 41
0
  0
VERTEX
  8
0
 10
0.589572
 20
1.63183
 30
0.0
 40
0
 41
0
  0
VERTEX
  8
0
 10
0.518935
 20
1.63129
 30
0.0
 40
0
 41
0
  0
VERTEX
  8
0
 10
0.519476
 20
1.56065
 30
0.0
 40
0
 41
0
  0
VERTEX
  8
0
 10
0.590061
 20
1.56119
 30
0.0
 40
0
 41
0
  0
SEQEND
 8
0
  0
POLYLINE
  8
0
 62
     7
 66
     1
 10
0
 20
0
 30
0.0
 70
     1
 40
0
 41
0
  0
VERTEX
  8
0
 10
0.108832
 20
2.11367
 30
0.0
 40
0
 41
0
  0
VERTEX
  8
0
 10
0.0381401
 20
2.11367
 30
0.0
 40
0
 41
0
  0
VERTEX
  8
0
 10
0.0381401
 20
2.04297
 30
0.0
 40
0
 41
0
  0
VERTEX
  8
0
 10
0.053711
 20
2.04297
 30
0.0
 40
0
 41
0
  0
VERTEX
  8
0
 10
0.053711
 20
1.72939
 30
0.0
 40
0
 41
0
  0
VERTEX
  8
0
 10
0.300836
 20
1.48221
 30
0.0
 40
0
 41
0
  0
VERTEX
  8
0
 10
0.676161
 20
1.48221
 30
0.0
 40
0
 41
0
  0
VERTEX
  8
0
 10
0.927408
 20
1.72933
 30
0.0
 40
0
 41
0
  0
VERTEX
  8
0
 10
0.927408
 20
1.92731
 30
0.0
 40
0
 41
0
  0
VERTEX
  8
0
 10
0.69439
 20
1.92731
 30
0.0
 40
0
 41
0
  0
VERTEX
  8
0
 10
0.69439
 20
1.82611
 30
0.0
 40
0
 41
0
  0
VERTEX
  8
0
 10
0.58355
 20
1.71528
 30
0.0
 40
0
 41
0
  0
VERTEX
  8
0
 10
0.397569
 20
1.71528
 30
0.0
 40
0
 41
0
  0
VERTEX
  8
0
 10
0.286729
 20
1.82611
 30
0.0
 40
0
 41
0
  0
VERTEX
  8
0
 10
0.286729
 20
1.86604
 30
0.0
 40
0
 41
0
  0
VERTEX
  8
0
 10
0.302192
 20
1.86604
 30
0.0
 40
0
 41
0
  0
VERTEX
  8
0
 10
0.302192
 20
1.93664
 30
0.0
 40
0
 41
0
  0
VERTEX
  8
0
 10
0.231608
 20
1.93664
 30
0.0
 40
0
 41
0
  0
VERTEX
  8
0
 10
0.231608
 20
1.86604
 30
0.0
 40
0
 41
0
  0
VERTEX
  8
0
 10
0.247071
 20
1.86604
 30
0.0
 40
0
 41
0
  0
VERTEX
  8
0
 10
0.247071
 20
1.80974
 30
0.0
 40
0
 41
0
  0
VERTEX
  8
0
 10
0.381131
 20
1.67562
 30
0.0
 40
0
 41
0
  0
VERTEX
  8
0
 10
0.599935
 20
1.67562
 30
0.0
 40
0
 41
0
  0
VERTEX
  8
0
 10
0.733996
 20
1.80974
 30
0.0
 40
0
 41
0
  0
VERTEX
  8
0
 10
0.733996
 20
1.88764
 30
0.0
 40
0
 41
0
  0
VERTEX
  8
0
 10
0.88775
 20
1.88764
 30
0.0
 40
0
 41
0
  0
VERTEX
  8
0
 10
0.88775
 20
1.74593
 30
0.0
 40
0
 41
0
  0
VERTEX
  8
0
 10
0.659885
 20
1.52181
 30
0.0
 40
0
 41
0
  0
VERTEX
  8
0
 10
0.317275
 20
1.52181
 30
0.0
 40
0
 41
0
  0
VERTEX
  8
0
 10
0.093316
 20
1.74582
 30
0.0
 40
0
 41
0
  0
VERTEX
  8
0
 10
0.093316
 20
2.04297
 30
0.0
 40
0
 41
0
  0
VERTEX
  8
0
 10
0.108832
 20
2.04297
 30
0.0
 40
0
 41
0
  0
VERTEX
  8
0
 10
0.108832
 20
2.11367
 30
0.0
 40
0
 41
0
  0
SEQEND
 8
0
  0
POLYLINE
  8
0
 62
     7
 66
     1
 10
0
 20
0
 30
0.0
 70
     1
 40
0
 41
0
  0
VERTEX
  8
0
 10
0.177789
 20
0.704264
 30
0.0
 40
0
 41
0
  0
VERTEX
  8
0
 10
0.162272
 20
0.704264
 30
0.0
 40
0
 41
0
  0
VERTEX
  8
0
 10
0.162272
 20
0.633681
 30
0.0
 40
0
 41
0
  0
VERTEX
  8
0
 10
0.23291
 20
0.633681
 30
0.0
 40
0
 41
0
  0
VERTEX
  8
0
 10
0.23291
 20
0.704264
 30
0.0
 40
0
 41
0
  0
VERTEX
  8
0
 10
0.217393
 20
0.704264
 30
0.0
 40
0
 41
0
  0
VERTEX
  8
0
 10
0.217393
 20
1.19124
 30
0.0
 40
0
 41
0
  0
VERTEX
  8
0
 10
0.371203
 20
1.19124
 30
0.0
 40
0
 41
0
  0
VERTEX
  8
0
 10
0.371203
 20
0.248753
 30
0.0
 40
0
 41
0
  0
VERTEX
  8
0
 10
0.443576
 20
0.248753
 30
0.0
 40
0
 41
0
  0
VERTEX
  8
0
 10
0.443576
 20
0.23329
 30
0.0
 40
0
 41
0
  0
VERTEX
  8
0
 10
0.514106
 20
0.23329
 30
0.0
 40
0
 41
0
  0
VERTEX
  8
0
 10
0.514106
 20
0.303928
 30
0.0
 40
0
 41
0
  0
VERTEX
  8
0
 10
0.443576
 20
0.303928
 30
0.0
 40
0
 41
0
  0
VERTEX
  8
0
 10
0.443576
 20
0.288411
 30
0.0
 40
0
 41
0
  0
VERTEX
  8
0
 10
0.410753
 20
0.288411
 30
0.0
 40
0
 41
0
  0
VERTEX
  8
0
 10
0.410753
 20
1.23079
 30
0.0
 40
0
 41
0
  0
VERTEX
  8
0
 10
0.177789
 20
1.23079
 30
0.0
 40
0
 41
0
  0
VERTEX
  8
0
 10
0.177789
 20
0.704264
 30
0.0
 40
0
 41
0
  0
SEQEND
 8
0
  0
POLYLINE
  8
0
 62
     7
 66
     1
 10
0
 20
0
 30
0.0
 70
     1
 40
0
 41
0
  0
VERTEX
  8
0
 10
1.91396
 20
0.459636
 30
0.0
 40
0
 41
0
  0
VERTEX
  8
0
 10
1.84338
 20
0.459636
 30
0.0
 40
0
 41
0
  0
VERTEX
  8
0
 10
1.84338
 20
0.389051
 30
0.0
 40
0
 41
0
  0
VERTEX
  8
0
 10
1.91396
 20
0.389051
 30
0.0
 40
0
 41
0
  0
VERTEX
  8
0
 10
1.91396
 20
0.404514
 30
0.0
 40
0
 41
0
  0
VERTEX
  8
0
 10
2.1205
 20
0.404514
 30
0.0
 40
0
 41
0
  0
VERTEX
  8
0
 10
2.1205
 20
0.053711
 30
0.0
 40
0
 41
0
  0
VERTEX
  8
0
 10
2.35146
 20
0.053711
 30
0.0
 40
0
 41
0
  0
VERTEX
  8
0
 10
2.35146
 20
0.820313
 30
0.0
 40
0
 41
0
  0
VERTEX
  8
0
 10
2.36697
 20
0.820313
 30
0.0
 40
0
 41
0
  0
VERTEX
  8
0
 10
2.36697
 20
0.890896
 30
0.0
 40
0
 41
0
  0
VERTEX
  8
0
 10
2.29639
 20
0.890896
 30
0.0
 40
0
 41
0
  0
VERTEX
  8
0
 10
2.29639
 20
0.820313
 30
0.0
 40
0
 41
0
  0
VERTEX
  8
0
 10
2.31179
 20
0.820313
 30
0.0
 40
0
 41
0
  0
VERTEX
  8
0
 10
2.31179
 20
0.093316
 30
0.0
 40
0
 41
0
  0
VERTEX
  8
0
 10
2.1601
 20
0.093316
 30
0.0
 40
0
 41
0
  0
VERTEX
  8
0
 10
2.1601
 20
0.444065
 30
0.0
 40
0
 41
0
  0
VERTEX
  8
0
 10
1.91396
 20
0.444065
 30
0.0
 40
0
 41
0
  0
VERTEX
  8
0
 10
1.91396
 20
0.459636
 30
0.0
 40
0
 41
0
  0
SEQEND
 8
0
  0
ENDSEC
  0
EOF
