  0
SECTION
  2
HEADER
  9
$ACADVER
  1
AC1009
  9
$FILLMODE
 70
 0
  9
$SPLFRAME
 70
 1
  9
$EXTMIN
 10
0
 20
0
 30
0.0
  9
$EXTMAX
 10
41.6667
 20
41.6667
 30
0.0
  0
ENDSEC
  0
SECTION
  2
TABLES
  0
TABLE
  2
LAYER
 70
1
  0
LAYER
  2
0
 70
     0
 62
     7
  6
CONTINUOUS
  0
ENDTAB
  0
ENDSEC
  0
SECTION
  2
ENTITIES
  0
POLYLINE
  8
0
 62
     3
 66
     1
 10
0
 20
0
 30
0.0
 70
     1
 40
0
 41
0
  0
VERTEX
  8
0
 10
0.359754
 20
2.73774
 30
0.0
 40
0
 41
0
  0
VERTEX
  8
0
 10
0
 20
2.37793
 30
0.0
 40
0
 41
0
  0
VERTEX
  8
0
 10
0
 20
0.337619
 30
0.0
 40
0
 41
0
  0
VERTEX
  8
0
 10
0.337619
 20
0
 30
0.0
 40
0
 41
0
  0
VERTEX
  8
0
 10
3.17692
 20
0
 30
0.0
 40
0
 41
0
  0
VERTEX
  8
0
 10
3.46696
 20
0.290039
 30
0.0
 40
0
 41
0
  0
VERTEX
  8
0
 10
3.46696
 20
2.42931
 30
0.0
 40
0
 41
0
  0
VERTEX
  8
0
 10
3.15853
 20
2.73774
 30
0.0
 40
0
 41
0
  0
VERTEX
  8
0
 10
0.359754
 20
2.73774
 30
0.0
 40
0
 41
0
  0
SEQEND
 8
0
  0
POLYLINE
  8
0
 62
     7
 66
     1
 10
0
 20
0
 30
0.0
 70
     1
 40
0
 41
0
  0
VERTEX
  8
0
 10
3.18213
 20
2.10693
 30
0.0
 40
0
 41
0
  0
VERTEX
  8
0
 10
3.18213
 20
2.42529
 30
0.0
 40
0
 41
0
  0
VERTEX
  8
0
 10
2.99018
 20
2.42529
 30
0.0
 40
0
 41
0
  0
VERTEX
  8
0
 10
2.99018
 20
2.18571
 30
0.0
 40
0
 41
0
  0
VERTEX
  8
0
 10
2.78982
 20
1.98546
 30
0.0
 40
0
 41
0
  0
VERTEX
  8
0
 10
2.58946
 20
2.18582
 30
0.0
 40
0
 41
0
  0
VERTEX
  8
0
 10
2.58946
 20
2.42529
 30
0.0
 40
0
 41
0
  0
VERTEX
  8
0
 10
2.39615
 20
2.42529
 30
0.0
 40
0
 41
0
  0
VERTEX
  8
0
 10
2.39615
 20
2.10558
 30
0.0
 40
0
 41
0
  0
VERTEX
  8
0
 10
2.69319
 20
1.80854
 30
0.0
 40
0
 41
0
  0
VERTEX
  8
0
 10
2.69319
 20
1.45025
 30
0.0
 40
0
 41
0
  0
VERTEX
  8
0
 10
2.88644
 20
1.45025
 30
0.0
 40
0
 41
0
  0
VERTEX
  8
0
 10
2.88374
 20
1.80854
 30
0.0
 40
0
 41
0
  0
VERTEX
  8
0
 10
3.18213
 20
2.10693
 30
0.0
 40
0
 41
0
  0
SEQEND
 8
0
  0
POLYLINE
  8
0
 62
     7
 66
     1
 10
0
 20
0
 30
0.0
 70
     1
 40
0
 41
0
  0
VERTEX
  8
0
 10
2.95594
 20
1.29666
 30
0.0
 40
0
 41
0
  0
VERTEX
  8
0
 10
2.32417
 20
1.29666
 30
0.0
 40
0
 41
0
  0
VERTEX
  8
0
 10
2.32417
 20
0.32156
 30
0.0
 40
0
 41
0
  0
VERTEX
  8
0
 10
2.95589
 20
0.322211
 30
0.0
 40
0
 41
0
  0
VERTEX
  8
0
 10
3.11149
 20
0.477106
 30
0.0
 40
0
 41
0
  0
VERTEX
  8
0
 10
3.11149
 20
0.750271
 30
0.0
 40
0
 41
0
  0
VERTEX
  8
0
 10
3.05257
 20
0.809082
 30
0.0
 40
0
 41
0
  0
VERTEX
  8
0
 10
3.11149
 20
0.868001
 30
0.0
 40
0
 41
0
  0
VERTEX
  8
0
 10
3.11149
 20
1.14111
 30
0.0
 40
0
 41
0
  0
VERTEX
  8
0
 10
2.95594
 20
1.29666
 30
0.0
 40
0
 41
0
  0
SEQEND
 8
0
  0
POLYLINE
  8
0
 62
     7
 66
     1
 10
0
 20
0
 30
0.0
 70
     1
 40
0
 41
0
  0
VERTEX
  8
0
 10
2.51747
 20
0.712511
 30
0.0
 40
0
 41
0
  0
VERTEX
  8
0
 10
2.87571
 20
0.712511
 30
0.0
 40
0
 41
0
  0
VERTEX
  8
0
 10
2.9266
 20
0.661567
 30
0.0
 40
0
 41
0
  0
VERTEX
  8
0
 10
2.92503
 20
0.564236
 30
0.0
 40
0
 41
0
  0
VERTEX
  8
0
 10
2.8756
 20
0.514757
 30
0.0
 40
0
 41
0
  0
VERTEX
  8
0
 10
2.51747
 20
0.509115
 30
0.0
 40
0
 41
0
  0
VERTEX
  8
0
 10
2.51747
 20
0.712511
 30
0.0
 40
0
 41
0
  0
SEQEND
 8
0
  0
POLYLINE
  8
0
 62
     7
 66
     1
 10
0
 20
0
 30
0.0
 70
     1
 40
0
 41
0
  0
VERTEX
  8
0
 10
2.92681
 20
0.953885
 30
0.0
 40
0
 41
0
  0
VERTEX
  8
0
 10
2.87597
 20
0.905761
 30
0.0
 40
0
 41
0
  0
VERTEX
  8
0
 10
2.51747
 20
0.905761
 30
0.0
 40
0
 41
0
  0
VERTEX
  8
0
 10
2.51747
 20
1.10335
 30
0.0
 40
0
 41
0
  0
VERTEX
  8
0
 10
2.87571
 20
1.10335
 30
0.0
 40
0
 41
0
  0
VERTEX
  8
0
 10
2.92681
 20
1.0523
 30
0.0
 40
0
 41
0
  0
VERTEX
  8
0
 10
2.92681
 20
0.953885
 30
0.0
 40
0
 41
0
  0
SEQEND
 8
0
  0
POLYLINE
  8
0
 62
     7
 66
     1
 10
0
 20
0
 30
0.0
 70
     1
 40
0
 41
0
  0
VERTEX
  8
0
 10
2.00987
 20
2.23204
 30
0.0
 40
0
 41
0
  0
VERTEX
  8
0
 10
2.27561
 20
2.23204
 30
0.0
 40
0
 41
0
  0
VERTEX
  8
0
 10
2.27561
 20
2.42529
 30
0.0
 40
0
 41
0
  0
VERTEX
  8
0
 10
1.55083
 20
2.42529
 30
0.0
 40
0
 41
0
  0
VERTEX
  8
0
 10
1.55083
 20
2.23204
 30
0.0
 40
0
 41
0
  0
VERTEX
  8
0
 10
1.81662
 20
2.23204
 30
0.0
 40
0
 41
0
  0
VERTEX
  8
0
 10
1.81662
 20
1.45025
 30
0.0
 40
0
 41
0
  0
VERTEX
  8
0
 10
2.00987
 20
1.45025
 30
0.0
 40
0
 41
0
  0
VERTEX
  8
0
 10
2.00987
 20
2.23204
 30
0.0
 40
0
 41
0
  0
SEQEND
 8
0
  0
POLYLINE
  8
0
 62
     7
 66
     1
 10
0
 20
0
 30
0.0
 70
     1
 40
0
 41
0
  0
VERTEX
  8
0
 10
1.86421
 20
1.2889
 30
0.0
 40
0
 41
0
  0
VERTEX
  8
0
 10
1.46067
 20
1.287
 30
0.0
 40
0
 41
0
  0
VERTEX
  8
0
 10
1.25646
 20
1.08447
 30
0.0
 40
0
 41
0
  0
VERTEX
  8
0
 10
1.25646
 20
0.312446
 30
0.0
 40
0
 41
0
  0
VERTEX
  8
0
 10
1.44814
 20
0.312446
 30
0.0
 40
0
 41
0
  0
VERTEX
  8
0
 10
1.44814
 20
0.603461
 30
0.0
 40
0
 41
0
  0
VERTEX
  8
0
 10
1.87864
 20
0.603461
 30
0.0
 40
0
 41
0
  0
VERTEX
  8
0
 10
1.87864
 20
0.312446
 30
0.0
 40
0
 41
0
  0
VERTEX
  8
0
 10
2.07026
 20
0.312446
 30
0.0
 40
0
 41
0
  0
VERTEX
  8
0
 10
2.07026
 20
1.07612
 30
0.0
 40
0
 41
0
  0
VERTEX
  8
0
 10
2.07026
 20
1.08681
 30
0.0
 40
0
 41
0
  0
VERTEX
  8
0
 10
1.86421
 20
1.2889
 30
0.0
 40
0
 41
0
  0
SEQEND
 8
0
  0
POLYLINE
  8
0
 62
     7
 66
     1
 10
0
 20
0
 30
0.0
 70
     1
 40
0
 41
0
  0
VERTEX
  8
0
 10
1.78504
 20
1.09353
 30
0.0
 40
0
 41
0
  0
VERTEX
  8
0
 10
1.87701
 20
1.00157
 30
0.0
 40
0
 41
0
  0
VERTEX
  8
0
 10
1.87701
 20
0.796983
 30
0.0
 40
0
 41
0
  0
VERTEX
  8
0
 10
1.44889
 20
0.796983
 30
0.0
 40
0
 41
0
  0
VERTEX
  8
0
 10
1.44889
 20
1.00157
 30
0.0
 40
0
 41
0
  0
VERTEX
  8
0
 10
1.54085
 20
1.09353
 30
0.0
 40
0
 41
0
  0
VERTEX
  8
0
 10
1.78504
 20
1.09353
 30
0.0
 40
0
 41
0
  0
SEQEND
 8
0
  0
POLYLINE
  8
0
 62
     7
 66
     1
 10
0
 20
0
 30
0.0
 70
     1
 40
0
 41
0
  0
VERTEX
  8
0
 10
1.18951
 20
1.45019
 30
0.0
 40
0
 41
0
  0
VERTEX
  8
0
 10
1.41407
 20
1.45019
 30
0.0
 40
0
 41
0
  0
VERTEX
  8
0
 10
1.41407
 20
2.42529
 30
0.0
 40
0
 41
0
  0
VERTEX
  8
0
 10
1.18951
 20
2.42529
 30
0.0
 40
0
 41
0
  0
VERTEX
  8
0
 10
1.18951
 20
1.45019
 30
0.0
 40
0
 41
0
  0
SEQEND
 8
0
  0
POLYLINE
  8
0
 62
     7
 66
     1
 10
0
 20
0
 30
0.0
 70
     1
 40
0
 41
0
  0
VERTEX
  8
0
 10
0.346679
 20
0.319715
 30
0.0
 40
0
 41
0
  0
VERTEX
  8
0
 10
1.13314
 20
0.319715
 30
0.0
 40
0
 41
0
  0
VERTEX
  8
0
 10
1.13314
 20
0.513021
 30
0.0
 40
0
 41
0
  0
VERTEX
  8
0
 10
0.539117
 20
0.513021
 30
0.0
 40
0
 41
0
  0
VERTEX
  8
0
 10
0.539117
 20
1.29481
 30
0.0
 40
0
 41
0
  0
VERTEX
  8
0
 10
0.345865
 20
1.29481
 30
0.0
 40
0
 41
0
  0
VERTEX
  8
0
 10
0.346679
 20
0.319715
 30
0.0
 40
0
 41
0
  0
SEQEND
 8
0
  0
POLYLINE
  8
0
 62
     7
 66
     1
 10
0
 20
0
 30
0.0
 70
     1
 40
0
 41
0
  0
VERTEX
  8
0
 10
0.816297
 20
1.81944
 30
0.0
 40
0
 41
0
  0
VERTEX
  8
0
 10
0.816297
 20
1.73551
 30
0.0
 40
0
 41
0
  0
VERTEX
  8
0
 10
0.724338
 20
1.6435
 30
0.0
 40
0
 41
0
  0
VERTEX
  8
0
 10
0.570096
 20
1.6435
 30
0.0
 40
0
 41
0
  0
VERTEX
  8
0
 10
0.478136
 20
1.73551
 30
0.0
 40
0
 41
0
  0
VERTEX
  8
0
 10
0.478136
 20
2.14003
 30
0.0
 40
0
 41
0
  0
VERTEX
  8
0
 10
0.570096
 20
2.23199
 30
0.0
 40
0
 41
0
  0
VERTEX
  8
0
 10
0.724338
 20
2.23199
 30
0.0
 40
0
 41
0
  0
VERTEX
  8
0
 10
0.816297
 20
2.14003
 30
0.0
 40
0
 41
0
  0
VERTEX
  8
0
 10
0.816297
 20
2.05843
 30
0.0
 40
0
 41
0
  0
VERTEX
  8
0
 10
1.0096
 20
2.05843
 30
0.0
 40
0
 41
0
  0
VERTEX
  8
0
 10
1.0096
 20
2.22026
 30
0.0
 40
0
 41
0
  0
VERTEX
  8
0
 10
0.804579
 20
2.42529
 30
0.0
 40
0
 41
0
  0
VERTEX
  8
0
 10
0.489854
 20
2.42529
 30
0.0
 40
0
 41
0
  0
VERTEX
  8
0
 10
0.284831
 20
2.22026
 30
0.0
 40
0
 41
0
  0
VERTEX
  8
0
 10
0.284831
 20
2.07553
 30
0.0
 40
0
 41
0
  0
VERTEX
  8
0
 10
0.284831
 20
1.65522
 30
0.0
 40
0
 41
0
  0
VERTEX
  8
0
 10
0.489854
 20
1.45019
 30
0.0
 40
0
 41
0
  0
VERTEX
  8
0
 10
0.801215
 20
1.45019
 30
0.0
 40
0
 41
0
  0
VERTEX
  8
0
 10
1.0096
 20
1.65517
 30
0.0
 40
0
 41
0
  0
VERTEX
  8
0
 10
1.0096
 20
1.81944
 30
0.0
 40
0
 41
0
  0
VERTEX
  8
0
 10
0.816297
 20
1.81944
 30
0.0
 40
0
 41
0
  0
SEQEND
 8
0
  0
ENDSEC
  0
EOF
