  0
SECTION
  2
HEADER
  9
$ACADVER
  1
AC1009
  9
$FILLMODE
 70
 0
  9
$SPLFRAME
 70
 1
  9
$EXTMIN
 10
0
 20
0
 30
0.0
  9
$EXTMAX
 10
41.6667
 20
41.6667
 30
0.0
  0
ENDSEC
  0
SECTION
  2
TABLES
  0
TABLE
  2
LAYER
 70
1
  0
LAYER
  2
0
 70
     0
 62
     7
  6
CONTINUOUS
  0
ENDTAB
  0
ENDSEC
  0
SECTION
  2
ENTITIES
  0
POLYLINE
  8
0
 62
     0
 66
     1
 10
0
 20
0
 30
0.0
 70
     1
 40
0
 41
0
  0
VERTEX
  8
0
 10
0.292589
 20
2.22657
 30
0.0
 40
0
 41
0
  0
VERTEX
  8
0
 10
0
 20
1.93392
 30
0.0
 40
0
 41
0
  0
VERTEX
  8
0
 10
0
 20
0.274576
 30
0.0
 40
0
 41
0
  0
VERTEX
  8
0
 10
0.274576
 20
0
 30
0.0
 40
0
 41
0
  0
VERTEX
  8
0
 10
2.58376
 20
0
 30
0.0
 40
0
 41
0
  0
VERTEX
  8
0
 10
2.81961
 20
0.23584
 30
0.0
 40
0
 41
0
  0
VERTEX
  8
0
 10
2.81961
 20
1.97575
 30
0.0
 40
0
 41
0
  0
VERTEX
  8
0
 10
2.56879
 20
2.22657
 30
0.0
 40
0
 41
0
  0
VERTEX
  8
0
 10
0.292589
 20
2.22657
 30
0.0
 40
0
 41
0
  0
SEQEND
 8
0
  0
POLYLINE
  8
0
 62
     7
 66
     1
 10
0
 20
0
 30
0.0
 70
     1
 40
0
 41
0
  0
VERTEX
  8
0
 10
2.43896
 20
1.96918
 30
0.0
 40
0
 41
0
  0
VERTEX
  8
0
 10
2.43896
 20
1.84614
 30
0.0
 40
0
 41
0
  0
VERTEX
  8
0
 10
2.41558
 20
1.82275
 30
0.0
 40
0
 41
0
  0
VERTEX
  8
0
 10
2.40815
 20
1.83018
 30
0.0
 40
0
 41
0
  0
VERTEX
  8
0
 10
2.37429
 20
1.79633
 30
0.0
 40
0
 41
0
  0
VERTEX
  8
0
 10
2.40815
 20
1.76247
 30
0.0
 40
0
 41
0
  0
VERTEX
  8
0
 10
2.442
 20
1.79633
 30
0.0
 40
0
 41
0
  0
VERTEX
  8
0
 10
2.43457
 20
1.80376
 30
0.0
 40
0
 41
0
  0
VERTEX
  8
0
 10
2.46588
 20
1.83501
 30
0.0
 40
0
 41
0
  0
VERTEX
  8
0
 10
2.46588
 20
1.94233
 30
0.0
 40
0
 41
0
  0
VERTEX
  8
0
 10
2.56913
 20
1.94233
 30
0.0
 40
0
 41
0
  0
VERTEX
  8
0
 10
2.56913
 20
1.79281
 30
0.0
 40
0
 41
0
  0
VERTEX
  8
0
 10
2.32508
 20
1.54878
 30
0.0
 40
0
 41
0
  0
VERTEX
  8
0
 10
2.32508
 20
1.43679
 30
0.0
 40
0
 41
0
  0
VERTEX
  8
0
 10
2.26172
 20
1.37337
 30
0.0
 40
0
 41
0
  0
VERTEX
  8
0
 10
2.26172
 20
1.27474
 30
0.0
 40
0
 41
0
  0
VERTEX
  8
0
 10
2.25114
 20
1.27474
 30
0.0
 40
0
 41
0
  0
VERTEX
  8
0
 10
2.25114
 20
1.22683
 30
0.0
 40
0
 41
0
  0
VERTEX
  8
0
 10
2.29904
 20
1.22683
 30
0.0
 40
0
 41
0
  0
VERTEX
  8
0
 10
2.29904
 20
1.27474
 30
0.0
 40
0
 41
0
  0
VERTEX
  8
0
 10
2.28857
 20
1.27474
 30
0.0
 40
0
 41
0
  0
VERTEX
  8
0
 10
2.28857
 20
1.36225
 30
0.0
 40
0
 41
0
  0
VERTEX
  8
0
 10
2.35194
 20
1.42567
 30
0.0
 40
0
 41
0
  0
VERTEX
  8
0
 10
2.35194
 20
1.53765
 30
0.0
 40
0
 41
0
  0
VERTEX
  8
0
 10
2.59597
 20
1.78168
 30
0.0
 40
0
 41
0
  0
VERTEX
  8
0
 10
2.59597
 20
1.96918
 30
0.0
 40
0
 41
0
  0
VERTEX
  8
0
 10
2.43896
 20
1.96918
 30
0.0
 40
0
 41
0
  0
SEQEND
 8
0
  0
POLYLINE
  8
0
 62
     7
 66
     1
 10
0
 20
0
 30
0.0
 70
     1
 40
0
 41
0
  0
VERTEX
  8
0
 10
2.04471
 20
1.82286
 30
0.0
 40
0
 41
0
  0
VERTEX
  8
0
 10
2.04471
 20
1.86637
 30
0.0
 40
0
 41
0
  0
VERTEX
  8
0
 10
2.05524
 20
1.86637
 30
0.0
 40
0
 41
0
  0
VERTEX
  8
0
 10
2.05524
 20
1.91428
 30
0.0
 40
0
 41
0
  0
VERTEX
  8
0
 10
2.00732
 20
1.91428
 30
0.0
 40
0
 41
0
  0
VERTEX
  8
0
 10
2.00732
 20
1.86637
 30
0.0
 40
0
 41
0
  0
VERTEX
  8
0
 10
2.01779
 20
1.86637
 30
0.0
 40
0
 41
0
  0
VERTEX
  8
0
 10
2.01779
 20
1.81168
 30
0.0
 40
0
 41
0
  0
VERTEX
  8
0
 10
2.04579
 20
1.78375
 30
0.0
 40
0
 41
0
  0
VERTEX
  8
0
 10
2.03836
 20
1.77632
 30
0.0
 40
0
 41
0
  0
VERTEX
  8
0
 10
2.07221
 20
1.74246
 30
0.0
 40
0
 41
0
  0
VERTEX
  8
0
 10
2.10607
 20
1.77632
 30
0.0
 40
0
 41
0
  0
VERTEX
  8
0
 10
2.07221
 20
1.81017
 30
0.0
 40
0
 41
0
  0
VERTEX
  8
0
 10
2.06478
 20
1.80279
 30
0.0
 40
0
 41
0
  0
VERTEX
  8
0
 10
2.04471
 20
1.82286
 30
0.0
 40
0
 41
0
  0
SEQEND
 8
0
  0
POLYLINE
  8
0
 62
     7
 66
     1
 10
0
 20
0
 30
0.0
 70
     1
 40
0
 41
0
  0
VERTEX
  8
0
 10
2.28928
 20
1.47954
 30
0.0
 40
0
 41
0
  0
VERTEX
  8
0
 10
2.28928
 20
1.56483
 30
0.0
 40
0
 41
0
  0
VERTEX
  8
0
 10
2.36262
 20
1.63818
 30
0.0
 40
0
 41
0
  0
VERTEX
  8
0
 10
2.37007
 20
1.63075
 30
0.0
 40
0
 41
0
  0
VERTEX
  8
0
 10
2.40397
 20
1.66461
 30
0.0
 40
0
 41
0
  0
VERTEX
  8
0
 10
2.37007
 20
1.69846
 30
0.0
 40
0
 41
0
  0
VERTEX
  8
0
 10
2.33621
 20
1.66461
 30
0.0
 40
0
 41
0
  0
VERTEX
  8
0
 10
2.34364
 20
1.65717
 30
0.0
 40
0
 41
0
  0
VERTEX
  8
0
 10
2.26247
 20
1.57601
 30
0.0
 40
0
 41
0
  0
VERTEX
  8
0
 10
2.26247
 20
1.47954
 30
0.0
 40
0
 41
0
  0
VERTEX
  8
0
 10
2.25196
 20
1.47954
 30
0.0
 40
0
 41
0
  0
VERTEX
  8
0
 10
2.25196
 20
1.43164
 30
0.0
 40
0
 41
0
  0
VERTEX
  8
0
 10
2.29986
 20
1.43164
 30
0.0
 40
0
 41
0
  0
VERTEX
  8
0
 10
2.29986
 20
1.47954
 30
0.0
 40
0
 41
0
  0
VERTEX
  8
0
 10
2.28928
 20
1.47954
 30
0.0
 40
0
 41
0
  0
SEQEND
 8
0
  0
POLYLINE
  8
0
 62
     7
 66
     1
 10
0
 20
0
 30
0.0
 70
     1
 40
0
 41
0
  0
VERTEX
  8
0
 10
2.42936
 20
1.74511
 30
0.0
 40
0
 41
0
  0
VERTEX
  8
0
 10
2.33794
 20
1.74511
 30
0.0
 40
0
 41
0
  0
VERTEX
  8
0
 10
2.27513
 20
1.68229
 30
0.0
 40
0
 41
0
  0
VERTEX
  8
0
 10
2.11128
 20
1.84619
 30
0.0
 40
0
 41
0
  0
VERTEX
  8
0
 10
2.11128
 20
1.96918
 30
0.0
 40
0
 41
0
  0
VERTEX
  8
0
 10
1.95313
 20
1.96918
 30
0.0
 40
0
 41
0
  0
VERTEX
  8
0
 10
1.95313
 20
1.7806
 30
0.0
 40
0
 41
0
  0
VERTEX
  8
0
 10
2.03267
 20
1.70107
 30
0.0
 40
0
 41
0
  0
VERTEX
  8
0
 10
2.1275
 20
1.70107
 30
0.0
 40
0
 41
0
  0
VERTEX
  8
0
 10
2.19515
 20
1.63336
 30
0.0
 40
0
 41
0
  0
VERTEX
  8
0
 10
2.18772
 20
1.62592
 30
0.0
 40
0
 41
0
  0
VERTEX
  8
0
 10
2.22163
 20
1.59207
 30
0.0
 40
0
 41
0
  0
VERTEX
  8
0
 10
2.25549
 20
1.62592
 30
0.0
 40
0
 41
0
  0
VERTEX
  8
0
 10
2.22163
 20
1.65983
 30
0.0
 40
0
 41
0
  0
VERTEX
  8
0
 10
2.21414
 20
1.65235
 30
0.0
 40
0
 41
0
  0
VERTEX
  8
0
 10
2.13861
 20
1.72792
 30
0.0
 40
0
 41
0
  0
VERTEX
  8
0
 10
2.04372
 20
1.72792
 30
0.0
 40
0
 41
0
  0
VERTEX
  8
0
 10
1.98004
 20
1.79167
 30
0.0
 40
0
 41
0
  0
VERTEX
  8
0
 10
1.98004
 20
1.94233
 30
0.0
 40
0
 41
0
  0
VERTEX
  8
0
 10
2.08436
 20
1.94233
 30
0.0
 40
0
 41
0
  0
VERTEX
  8
0
 10
2.08436
 20
1.83501
 30
0.0
 40
0
 41
0
  0
VERTEX
  8
0
 10
2.27513
 20
1.64432
 30
0.0
 40
0
 41
0
  0
VERTEX
  8
0
 10
2.34907
 20
1.71826
 30
0.0
 40
0
 41
0
  0
VERTEX
  8
0
 10
2.4406
 20
1.71826
 30
0.0
 40
0
 41
0
  0
VERTEX
  8
0
 10
2.53028
 20
1.8094
 30
0.0
 40
0
 41
0
  0
VERTEX
  8
0
 10
2.53039
 20
1.86637
 30
0.0
 40
0
 41
0
  0
VERTEX
  8
0
 10
2.54085
 20
1.86637
 30
0.0
 40
0
 41
0
  0
VERTEX
  8
0
 10
2.54096
 20
1.91422
 30
0.0
 40
0
 41
0
  0
VERTEX
  8
0
 10
2.493
 20
1.91433
 30
0.0
 40
0
 41
0
  0
VERTEX
  8
0
 10
2.493
 20
1.86637
 30
0.0
 40
0
 41
0
  0
VERTEX
  8
0
 10
2.50347
 20
1.86637
 30
0.0
 40
0
 41
0
  0
VERTEX
  8
0
 10
2.50342
 20
1.82042
 30
0.0
 40
0
 41
0
  0
VERTEX
  8
0
 10
2.42936
 20
1.74511
 30
0.0
 40
0
 41
0
  0
SEQEND
 8
0
  0
POLYLINE
  8
0
 62
     7
 66
     1
 10
0
 20
0
 30
0.0
 70
     1
 40
0
 41
0
  0
VERTEX
  8
0
 10
2.37554
 20
0.306261
 30
0.0
 40
0
 41
0
  0
VERTEX
  8
0
 10
2.37554
 20
0.316732
 30
0.0
 40
0
 41
0
  0
VERTEX
  8
0
 10
2.37825
 20
0.316732
 30
0.0
 40
0
 41
0
  0
VERTEX
  8
0
 10
2.47168
 20
0.411079
 30
0.0
 40
0
 41
0
  0
VERTEX
  8
0
 10
2.47168
 20
0.581976
 30
0.0
 40
0
 41
0
  0
VERTEX
  8
0
 10
2.45383
 20
0.600532
 30
0.0
 40
0
 41
0
  0
VERTEX
  8
0
 10
2.46143
 20
0.607856
 30
0.0
 40
0
 41
0
  0
VERTEX
  8
0
 10
2.42833
 20
0.642415
 30
0.0
 40
0
 41
0
  0
VERTEX
  8
0
 10
2.39372
 20
0.609267
 30
0.0
 40
0
 41
0
  0
VERTEX
  8
0
 10
2.42686
 20
0.574707
 30
0.0
 40
0
 41
0
  0
VERTEX
  8
0
 10
2.4344
 20
0.581922
 30
0.0
 40
0
 41
0
  0
VERTEX
  8
0
 10
2.44476
 20
0.571126
 30
0.0
 40
0
 41
0
  0
VERTEX
  8
0
 10
2.44476
 20
0.422092
 30
0.0
 40
0
 41
0
  0
VERTEX
  8
0
 10
2.37554
 20
0.352214
 30
0.0
 40
0
 41
0
  0
VERTEX
  8
0
 10
2.37554
 20
0.354167
 30
0.0
 40
0
 41
0
  0
VERTEX
  8
0
 10
2.32764
 20
0.354167
 30
0.0
 40
0
 41
0
  0
VERTEX
  8
0
 10
2.32764
 20
0.306261
 30
0.0
 40
0
 41
0
  0
VERTEX
  8
0
 10
2.37554
 20
0.306261
 30
0.0
 40
0
 41
0
  0
SEQEND
 8
0
  0
POLYLINE
  8
0
 62
     7
 66
     1
 10
0
 20
0
 30
0.0
 70
     1
 40
0
 41
0
  0
VERTEX
  8
0
 10
2.38189
 20
0.991808
 30
0.0
 40
0
 41
0
  0
VERTEX
  8
0
 10
1.95697
 20
0.991808
 30
0.0
 40
0
 41
0
  0
VERTEX
  8
0
 10
1.95697
 20
0.708333
 30
0.0
 40
0
 41
0
  0
VERTEX
  8
0
 10
2.10211
 20
0.708333
 30
0.0
 40
0
 41
0
  0
VERTEX
  8
0
 10
2.10211
 20
0.697808
 30
0.0
 40
0
 41
0
  0
VERTEX
  8
0
 10
2.14996
 20
0.697808
 30
0.0
 40
0
 41
0
  0
VERTEX
  8
0
 10
2.14996
 20
0.745768
 30
0.0
 40
0
 41
0
  0
VERTEX
  8
0
 10
2.10211
 20
0.745768
 30
0.0
 40
0
 41
0
  0
VERTEX
  8
0
 10
2.10211
 20
0.735189
 30
0.0
 40
0
 41
0
  0
VERTEX
  8
0
 10
1.98389
 20
0.735189
 30
0.0
 40
0
 41
0
  0
VERTEX
  8
0
 10
1.98389
 20
0.964844
 30
0.0
 40
0
 41
0
  0
VERTEX
  8
0
 10
2.37071
 20
0.964844
 30
0.0
 40
0
 41
0
  0
VERTEX
  8
0
 10
2.44476
 20
0.890842
 30
0.0
 40
0
 41
0
  0
VERTEX
  8
0
 10
2.44476
 20
0.741157
 30
0.0
 40
0
 41
0
  0
VERTEX
  8
0
 10
2.36871
 20
0.669868
 30
0.0
 40
0
 41
0
  0
VERTEX
  8
0
 10
2.22808
 20
0.669596
 30
0.0
 40
0
 41
0
  0
VERTEX
  8
0
 10
2.15386
 20
0.604004
 30
0.0
 40
0
 41
0
  0
VERTEX
  8
0
 10
2.02462
 20
0.604004
 30
0.0
 40
0
 41
0
  0
VERTEX
  8
0
 10
2.02462
 20
0.383464
 30
0.0
 40
0
 41
0
  0
VERTEX
  8
0
 10
2.35574
 20
0.388672
 30
0.0
 40
0
 41
0
  0
VERTEX
  8
0
 10
2.41157
 20
0.444499
 30
0.0
 40
0
 41
0
  0
VERTEX
  8
0
 10
2.41314
 20
0.546442
 30
0.0
 40
0
 41
0
  0
VERTEX
  8
0
 10
2.35562
 20
0.604004
 30
0.0
 40
0
 41
0
  0
VERTEX
  8
0
 10
2.27458
 20
0.604004
 30
0.0
 40
0
 41
0
  0
VERTEX
  8
0
 10
2.27458
 20
0.614475
 30
0.0
 40
0
 41
0
  0
VERTEX
  8
0
 10
2.22661
 20
0.614475
 30
0.0
 40
0
 41
0
  0
VERTEX
  8
0
 10
2.22661
 20
0.566569
 30
0.0
 40
0
 41
0
  0
VERTEX
  8
0
 10
2.27458
 20
0.566569
 30
0.0
 40
0
 41
0
  0
VERTEX
  8
0
 10
2.27458
 20
0.577094
 30
0.0
 40
0
 41
0
  0
VERTEX
  8
0
 10
2.34451
 20
0.577094
 30
0.0
 40
0
 41
0
  0
VERTEX
  8
0
 10
2.38612
 20
0.535428
 30
0.0
 40
0
 41
0
  0
VERTEX
  8
0
 10
2.38482
 20
0.455838
 30
0.0
 40
0
 41
0
  0
VERTEX
  8
0
 10
2.3444
 20
0.415365
 30
0.0
 40
0
 41
0
  0
VERTEX
  8
0
 10
2.05154
 20
0.410753
 30
0.0
 40
0
 41
0
  0
VERTEX
  8
0
 10
2.05154
 20
0.577094
 30
0.0
 40
0
 41
0
  0
VERTEX
  8
0
 10
2.16401
 20
0.577094
 30
0.0
 40
0
 41
0
  0
VERTEX
  8
0
 10
2.23828
 20
0.64274
 30
0.0
 40
0
 41
0
  0
VERTEX
  8
0
 10
2.37935
 20
0.642958
 30
0.0
 40
0
 41
0
  0
VERTEX
  8
0
 10
2.47168
 20
0.729492
 30
0.0
 40
0
 41
0
  0
VERTEX
  8
0
 10
2.47168
 20
0.901964
 30
0.0
 40
0
 41
0
  0
VERTEX
  8
0
 10
2.38189
 20
0.991808
 30
0.0
 40
0
 41
0
  0
SEQEND
 8
0
  0
POLYLINE
  8
0
 62
     7
 66
     1
 10
0
 20
0
 30
0.0
 70
     1
 40
0
 41
0
  0
VERTEX
  8
0
 10
1.98389
 20
0.488444
 30
0.0
 40
0
 41
0
  0
VERTEX
  8
0
 10
1.98389
 20
0.642253
 30
0.0
 40
0
 41
0
  0
VERTEX
  8
0
 10
2.14762
 20
0.642253
 30
0.0
 40
0
 41
0
  0
VERTEX
  8
0
 10
2.21957
 20
0.708333
 30
0.0
 40
0
 41
0
  0
VERTEX
  8
0
 10
2.35542
 20
0.708333
 30
0.0
 40
0
 41
0
  0
VERTEX
  8
0
 10
2.41314
 20
0.762967
 30
0.0
 40
0
 41
0
  0
VERTEX
  8
0
 10
2.41314
 20
0.866157
 30
0.0
 40
0
 41
0
  0
VERTEX
  8
0
 10
2.35562
 20
0.923719
 30
0.0
 40
0
 41
0
  0
VERTEX
  8
0
 10
2.02462
 20
0.923719
 30
0.0
 40
0
 41
0
  0
VERTEX
  8
0
 10
2.02462
 20
0.810926
 30
0.0
 40
0
 41
0
  0
VERTEX
  8
0
 10
2.01411
 20
0.810926
 30
0.0
 40
0
 41
0
  0
VERTEX
  8
0
 10
2.01411
 20
0.762967
 30
0.0
 40
0
 41
0
  0
VERTEX
  8
0
 10
2.06201
 20
0.762967
 30
0.0
 40
0
 41
0
  0
VERTEX
  8
0
 10
2.06201
 20
0.810926
 30
0.0
 40
0
 41
0
  0
VERTEX
  8
0
 10
2.05154
 20
0.810926
 30
0.0
 40
0
 41
0
  0
VERTEX
  8
0
 10
2.05154
 20
0.89681
 30
0.0
 40
0
 41
0
  0
VERTEX
  8
0
 10
2.34451
 20
0.89681
 30
0.0
 40
0
 41
0
  0
VERTEX
  8
0
 10
2.38629
 20
0.855035
 30
0.0
 40
0
 41
0
  0
VERTEX
  8
0
 10
2.38629
 20
0.774576
 30
0.0
 40
0
 41
0
  0
VERTEX
  8
0
 10
2.34472
 20
0.735189
 30
0.0
 40
0
 41
0
  0
VERTEX
  8
0
 10
2.2091
 20
0.735189
 30
0.0
 40
0
 41
0
  0
VERTEX
  8
0
 10
2.1371
 20
0.669162
 30
0.0
 40
0
 41
0
  0
VERTEX
  8
0
 10
1.95697
 20
0.669162
 30
0.0
 40
0
 41
0
  0
VERTEX
  8
0
 10
1.95697
 20
0.488444
 30
0.0
 40
0
 41
0
  0
VERTEX
  8
0
 10
1.94646
 20
0.488444
 30
0.0
 40
0
 41
0
  0
VERTEX
  8
0
 10
1.94646
 20
0.440539
 30
0.0
 40
0
 41
0
  0
VERTEX
  8
0
 10
1.99436
 20
0.440539
 30
0.0
 40
0
 41
0
  0
VERTEX
  8
0
 10
1.99436
 20
0.488444
 30
0.0
 40
0
 41
0
  0
VERTEX
  8
0
 10
1.98389
 20
0.488444
 30
0.0
 40
0
 41
0
  0
SEQEND
 8
0
  0
POLYLINE
  8
0
 62
     7
 66
     1
 10
0
 20
0
 30
0.0
 70
     1
 40
0
 41
0
  0
VERTEX
  8
0
 10
2.4101
 20
1.0549
 30
0.0
 40
0
 41
0
  0
VERTEX
  8
0
 10
2.11458
 20
1.0549
 30
0.0
 40
0
 41
0
  0
VERTEX
  8
0
 10
2.11458
 20
1.06543
 30
0.0
 40
0
 41
0
  0
VERTEX
  8
0
 10
2.06668
 20
1.06543
 30
0.0
 40
0
 41
0
  0
VERTEX
  8
0
 10
2.06668
 20
1.01758
 30
0.0
 40
0
 41
0
  0
VERTEX
  8
0
 10
2.11458
 20
1.01758
 30
0.0
 40
0
 41
0
  0
VERTEX
  8
0
 10
2.11458
 20
1.02805
 30
0.0
 40
0
 41
0
  0
VERTEX
  8
0
 10
2.39899
 20
1.02805
 30
0.0
 40
0
 41
0
  0
VERTEX
  8
0
 10
2.51047
 20
0.916613
 30
0.0
 40
0
 41
0
  0
VERTEX
  8
0
 10
2.51047
 20
0.886447
 30
0.0
 40
0
 41
0
  0
VERTEX
  8
0
 10
2.49994
 20
0.886447
 30
0.0
 40
0
 41
0
  0
VERTEX
  8
0
 10
2.49994
 20
0.838542
 30
0.0
 40
0
 41
0
  0
VERTEX
  8
0
 10
2.54785
 20
0.838542
 30
0.0
 40
0
 41
0
  0
VERTEX
  8
0
 10
2.54785
 20
0.886447
 30
0.0
 40
0
 41
0
  0
VERTEX
  8
0
 10
2.53733
 20
0.886447
 30
0.0
 40
0
 41
0
  0
VERTEX
  8
0
 10
2.53733
 20
0.927735
 30
0.0
 40
0
 41
0
  0
VERTEX
  8
0
 10
2.4101
 20
1.0549
 30
0.0
 40
0
 41
0
  0
SEQEND
 8
0
  0
POLYLINE
  8
0
 62
     7
 66
     1
 10
0
 20
0
 30
0.0
 70
     1
 40
0
 41
0
  0
VERTEX
  8
0
 10
2.32731
 20
1.31239
 30
0.0
 40
0
 41
0
  0
VERTEX
  8
0
 10
2.32731
 20
1.19851
 30
0.0
 40
0
 41
0
  0
VERTEX
  8
0
 10
2.22293
 20
1.19851
 30
0.0
 40
0
 41
0
  0
VERTEX
  8
0
 10
2.22293
 20
1.54878
 30
0.0
 40
0
 41
0
  0
VERTEX
  8
0
 10
2.13282
 20
1.63894
 30
0.0
 40
0
 41
0
  0
VERTEX
  8
0
 10
2.14025
 20
1.64638
 30
0.0
 40
0
 41
0
  0
VERTEX
  8
0
 10
2.10633
 20
1.68024
 30
0.0
 40
0
 41
0
  0
VERTEX
  8
0
 10
2.07249
 20
1.64638
 30
0.0
 40
0
 41
0
  0
VERTEX
  8
0
 10
2.10633
 20
1.61247
 30
0.0
 40
0
 41
0
  0
VERTEX
  8
0
 10
2.11376
 20
1.6199
 30
0.0
 40
0
 41
0
  0
VERTEX
  8
0
 10
2.19607
 20
1.53765
 30
0.0
 40
0
 41
0
  0
VERTEX
  8
0
 10
2.19607
 20
1.17166
 30
0.0
 40
0
 41
0
  0
VERTEX
  8
0
 10
2.35417
 20
1.17166
 30
0.0
 40
0
 41
0
  0
VERTEX
  8
0
 10
2.35417
 20
1.31239
 30
0.0
 40
0
 41
0
  0
VERTEX
  8
0
 10
2.36469
 20
1.31239
 30
0.0
 40
0
 41
0
  0
VERTEX
  8
0
 10
2.36469
 20
1.3603
 30
0.0
 40
0
 41
0
  0
VERTEX
  8
0
 10
2.31679
 20
1.3603
 30
0.0
 40
0
 41
0
  0
VERTEX
  8
0
 10
2.31679
 20
1.31239
 30
0.0
 40
0
 41
0
  0
VERTEX
  8
0
 10
2.32731
 20
1.31239
 30
0.0
 40
0
 41
0
  0
SEQEND
 8
0
  0
POLYLINE
  8
0
 62
     7
 66
     1
 10
0
 20
0
 30
0.0
 70
     1
 40
0
 41
0
  0
VERTEX
  8
0
 10
1.98915
 20
1.0549
 30
0.0
 40
0
 41
0
  0
VERTEX
  8
0
 10
1.89339
 20
1.0549
 30
0.0
 40
0
 41
0
  0
VERTEX
  8
0
 10
1.89339
 20
0.429036
 30
0.0
 40
0
 41
0
  0
VERTEX
  8
0
 10
1.95714
 20
0.373969
 30
0.0
 40
0
 41
0
  0
VERTEX
  8
0
 10
1.95714
 20
0.316732
 30
0.0
 40
0
 41
0
  0
VERTEX
  8
0
 10
2.26574
 20
0.316732
 30
0.0
 40
0
 41
0
  0
VERTEX
  8
0
 10
2.3246
 20
0.257921
 30
0.0
 40
0
 41
0
  0
VERTEX
  8
0
 10
2.4101
 20
0.257921
 30
0.0
 40
0
 41
0
  0
VERTEX
  8
0
 10
2.53733
 20
0.384603
 30
0.0
 40
0
 41
0
  0
VERTEX
  8
0
 10
2.53733
 20
0.608018
 30
0.0
 40
0
 41
0
  0
VERTEX
  8
0
 10
2.48915
 20
0.656142
 30
0.0
 40
0
 41
0
  0
VERTEX
  8
0
 10
2.53733
 20
0.704318
 30
0.0
 40
0
 41
0
  0
VERTEX
  8
0
 10
2.53733
 20
0.75906
 30
0.0
 40
0
 41
0
  0
VERTEX
  8
0
 10
2.54785
 20
0.75906
 30
0.0
 40
0
 41
0
  0
VERTEX
  8
0
 10
2.54785
 20
0.806967
 30
0.0
 40
0
 41
0
  0
VERTEX
  8
0
 10
2.49994
 20
0.806967
 30
0.0
 40
0
 41
0
  0
VERTEX
  8
0
 10
2.49994
 20
0.75906
 30
0.0
 40
0
 41
0
  0
VERTEX
  8
0
 10
2.51047
 20
0.75906
 30
0.0
 40
0
 41
0
  0
VERTEX
  8
0
 10
2.51047
 20
0.71544
 30
0.0
 40
0
 41
0
  0
VERTEX
  8
0
 10
2.45117
 20
0.656142
 30
0.0
 40
0
 41
0
  0
VERTEX
  8
0
 10
2.51047
 20
0.596843
 30
0.0
 40
0
 41
0
  0
VERTEX
  8
0
 10
2.51047
 20
0.395779
 30
0.0
 40
0
 41
0
  0
VERTEX
  8
0
 10
2.39899
 20
0.284776
 30
0.0
 40
0
 41
0
  0
VERTEX
  8
0
 10
2.33572
 20
0.284776
 30
0.0
 40
0
 41
0
  0
VERTEX
  8
0
 10
2.27686
 20
0.343642
 30
0.0
 40
0
 41
0
  0
VERTEX
  8
0
 10
1.984
 20
0.343642
 30
0.0
 40
0
 41
0
  0
VERTEX
  8
0
 10
1.984
 20
0.386231
 30
0.0
 40
0
 41
0
  0
VERTEX
  8
0
 10
1.92025
 20
0.441243
 30
0.0
 40
0
 41
0
  0
VERTEX
  8
0
 10
1.92025
 20
1.02805
 30
0.0
 40
0
 41
0
  0
VERTEX
  8
0
 10
1.98915
 20
1.02805
 30
0.0
 40
0
 41
0
  0
VERTEX
  8
0
 10
1.98915
 20
1.01758
 30
0.0
 40
0
 41
0
  0
VERTEX
  8
0
 10
2.03706
 20
1.01758
 30
0.0
 40
0
 41
0
  0
VERTEX
  8
0
 10
2.03706
 20
1.06543
 30
0.0
 40
0
 41
0
  0
VERTEX
  8
0
 10
1.98915
 20
1.06543
 30
0.0
 40
0
 41
0
  0
VERTEX
  8
0
 10
1.98915
 20
1.0549
 30
0.0
 40
0
 41
0
  0
SEQEND
 8
0
  0
POLYLINE
  8
0
 62
     7
 66
     1
 10
0
 20
0
 30
0.0
 70
     1
 40
0
 41
0
  0
VERTEX
  8
0
 10
1.93078
 20
0.372396
 30
0.0
 40
0
 41
0
  0
VERTEX
  8
0
 10
1.88286
 20
0.372396
 30
0.0
 40
0
 41
0
  0
VERTEX
  8
0
 10
1.88286
 20
0.32449
 30
0.0
 40
0
 41
0
  0
VERTEX
  8
0
 10
1.89339
 20
0.32449
 30
0.0
 40
0
 41
0
  0
VERTEX
  8
0
 10
1.89339
 20
0.257379
 30
0.0
 40
0
 41
0
  0
VERTEX
  8
0
 10
2.20449
 20
0.257379
 30
0.0
 40
0
 41
0
  0
VERTEX
  8
0
 10
2.20449
 20
0.246853
 30
0.0
 40
0
 41
0
  0
VERTEX
  8
0
 10
2.25244
 20
0.246853
 30
0.0
 40
0
 41
0
  0
VERTEX
  8
0
 10
2.25244
 20
0.294814
 30
0.0
 40
0
 41
0
  0
VERTEX
  8
0
 10
2.20449
 20
0.294814
 30
0.0
 40
0
 41
0
  0
VERTEX
  8
0
 10
2.20449
 20
0.284233
 30
0.0
 40
0
 41
0
  0
VERTEX
  8
0
 10
1.92025
 20
0.284233
 30
0.0
 40
0
 41
0
  0
VERTEX
  8
0
 10
1.92025
 20
0.32449
 30
0.0
 40
0
 41
0
  0
VERTEX
  8
0
 10
1.93078
 20
0.32449
 30
0.0
 40
0
 41
0
  0
VERTEX
  8
0
 10
1.93078
 20
0.372396
 30
0.0
 40
0
 41
0
  0
SEQEND
 8
0
  0
POLYLINE
  8
0
 62
     7
 66
     1
 10
0
 20
0
 30
0.0
 70
     1
 40
0
 41
0
  0
VERTEX
  8
0
 10
1.662
 20
1.86724
 30
0.0
 40
0
 41
0
  0
VERTEX
  8
0
 10
1.662
 20
1.87771
 30
0.0
 40
0
 41
0
  0
VERTEX
  8
0
 10
1.75319
 20
1.87771
 30
0.0
 40
0
 41
0
  0
VERTEX
  8
0
 10
1.75319
 20
1.86724
 30
0.0
 40
0
 41
0
  0
VERTEX
  8
0
 10
1.80117
 20
1.86724
 30
0.0
 40
0
 41
0
  0
VERTEX
  8
0
 10
1.80117
 20
1.91515
 30
0.0
 40
0
 41
0
  0
VERTEX
  8
0
 10
1.75319
 20
1.91515
 30
0.0
 40
0
 41
0
  0
VERTEX
  8
0
 10
1.75319
 20
1.90462
 30
0.0
 40
0
 41
0
  0
VERTEX
  8
0
 10
1.662
 20
1.90462
 30
0.0
 40
0
 41
0
  0
VERTEX
  8
0
 10
1.662
 20
1.91515
 30
0.0
 40
0
 41
0
  0
VERTEX
  8
0
 10
1.6141
 20
1.91515
 30
0.0
 40
0
 41
0
  0
VERTEX
  8
0
 10
1.6141
 20
1.86724
 30
0.0
 40
0
 41
0
  0
VERTEX
  8
0
 10
1.662
 20
1.86724
 30
0.0
 40
0
 41
0
  0
SEQEND
 8
0
  0
POLYLINE
  8
0
 62
     7
 66
     1
 10
0
 20
0
 30
0.0
 70
     1
 40
0
 41
0
  0
VERTEX
  8
0
 10
1.54725
 20
1.48617
 30
0.0
 40
0
 41
0
  0
VERTEX
  8
0
 10
1.54725
 20
1.26997
 30
0.0
 40
0
 41
0
  0
VERTEX
  8
0
 10
1.53678
 20
1.26997
 30
0.0
 40
0
 41
0
  0
VERTEX
  8
0
 10
1.53678
 20
1.22206
 30
0.0
 40
0
 41
0
  0
VERTEX
  8
0
 10
1.58469
 20
1.22206
 30
0.0
 40
0
 41
0
  0
VERTEX
  8
0
 10
1.58469
 20
1.26997
 30
0.0
 40
0
 41
0
  0
VERTEX
  8
0
 10
1.57417
 20
1.26997
 30
0.0
 40
0
 41
0
  0
VERTEX
  8
0
 10
1.57417
 20
1.48617
 30
0.0
 40
0
 41
0
  0
VERTEX
  8
0
 10
1.58469
 20
1.48617
 30
0.0
 40
0
 41
0
  0
VERTEX
  8
0
 10
1.58469
 20
1.53407
 30
0.0
 40
0
 41
0
  0
VERTEX
  8
0
 10
1.53678
 20
1.53407
 30
0.0
 40
0
 41
0
  0
VERTEX
  8
0
 10
1.53678
 20
1.48617
 30
0.0
 40
0
 41
0
  0
VERTEX
  8
0
 10
1.54725
 20
1.48617
 30
0.0
 40
0
 41
0
  0
SEQEND
 8
0
  0
POLYLINE
  8
0
 62
     7
 66
     1
 10
0
 20
0
 30
0.0
 70
     1
 40
0
 41
0
  0
VERTEX
  8
0
 10
1.63976
 20
1.81114
 30
0.0
 40
0
 41
0
  0
VERTEX
  8
0
 10
1.85715
 20
1.81114
 30
0.0
 40
0
 41
0
  0
VERTEX
  8
0
 10
1.85715
 20
1.96918
 30
0.0
 40
0
 41
0
  0
VERTEX
  8
0
 10
1.26432
 20
1.96918
 30
0.0
 40
0
 41
0
  0
VERTEX
  8
0
 10
1.26432
 20
1.81114
 30
0.0
 40
0
 41
0
  0
VERTEX
  8
0
 10
1.48167
 20
1.81114
 30
0.0
 40
0
 41
0
  0
VERTEX
  8
0
 10
1.48167
 20
1.17166
 30
0.0
 40
0
 41
0
  0
VERTEX
  8
0
 10
1.63976
 20
1.17166
 30
0.0
 40
0
 41
0
  0
VERTEX
  8
0
 10
1.63976
 20
1.53842
 30
0.0
 40
0
 41
0
  0
VERTEX
  8
0
 10
1.57422
 20
1.604
 30
0.0
 40
0
 41
0
  0
VERTEX
  8
0
 10
1.57422
 20
1.90462
 30
0.0
 40
0
 41
0
  0
VERTEX
  8
0
 10
1.3654
 20
1.90462
 30
0.0
 40
0
 41
0
  0
VERTEX
  8
0
 10
1.3654
 20
1.91515
 30
0.0
 40
0
 41
0
  0
VERTEX
  8
0
 10
1.31744
 20
1.91515
 30
0.0
 40
0
 41
0
  0
VERTEX
  8
0
 10
1.31744
 20
1.86724
 30
0.0
 40
0
 41
0
  0
VERTEX
  8
0
 10
1.3654
 20
1.86724
 30
0.0
 40
0
 41
0
  0
VERTEX
  8
0
 10
1.3654
 20
1.87771
 30
0.0
 40
0
 41
0
  0
VERTEX
  8
0
 10
1.54731
 20
1.87771
 30
0.0
 40
0
 41
0
  0
VERTEX
  8
0
 10
1.54731
 20
1.59283
 30
0.0
 40
0
 41
0
  0
VERTEX
  8
0
 10
1.6129
 20
1.52729
 30
0.0
 40
0
 41
0
  0
VERTEX
  8
0
 10
1.6129
 20
1.19851
 30
0.0
 40
0
 41
0
  0
VERTEX
  8
0
 10
1.50851
 20
1.19851
 30
0.0
 40
0
 41
0
  0
VERTEX
  8
0
 10
1.50851
 20
1.83794
 30
0.0
 40
0
 41
0
  0
VERTEX
  8
0
 10
1.29123
 20
1.83794
 30
0.0
 40
0
 41
0
  0
VERTEX
  8
0
 10
1.29123
 20
1.94233
 30
0.0
 40
0
 41
0
  0
VERTEX
  8
0
 10
1.83029
 20
1.94233
 30
0.0
 40
0
 41
0
  0
VERTEX
  8
0
 10
1.83029
 20
1.83794
 30
0.0
 40
0
 41
0
  0
VERTEX
  8
0
 10
1.6129
 20
1.83794
 30
0.0
 40
0
 41
0
  0
VERTEX
  8
0
 10
1.6129
 20
1.65169
 30
0.0
 40
0
 41
0
  0
VERTEX
  8
0
 10
1.60238
 20
1.65169
 30
0.0
 40
0
 41
0
  0
VERTEX
  8
0
 10
1.60238
 20
1.60374
 30
0.0
 40
0
 41
0
  0
VERTEX
  8
0
 10
1.65028
 20
1.60374
 30
0.0
 40
0
 41
0
  0
VERTEX
  8
0
 10
1.65028
 20
1.65169
 30
0.0
 40
0
 41
0
  0
VERTEX
  8
0
 10
1.63976
 20
1.65169
 30
0.0
 40
0
 41
0
  0
VERTEX
  8
0
 10
1.63976
 20
1.81114
 30
0.0
 40
0
 41
0
  0
SEQEND
 8
0
  0
POLYLINE
  8
0
 62
     7
 66
     1
 10
0
 20
0
 30
0.0
 70
     1
 40
0
 41
0
  0
VERTEX
  8
0
 10
1.46056
 20
0.999078
 30
0.0
 40
0
 41
0
  0
VERTEX
  8
0
 10
1.41265
 20
0.999078
 30
0.0
 40
0
 41
0
  0
VERTEX
  8
0
 10
1.41265
 20
0.951172
 30
0.0
 40
0
 41
0
  0
VERTEX
  8
0
 10
1.46056
 20
0.951172
 30
0.0
 40
0
 41
0
  0
VERTEX
  8
0
 10
1.46056
 20
0.961643
 30
0.0
 40
0
 41
0
  0
VERTEX
  8
0
 10
1.4904
 20
0.961643
 30
0.0
 40
0
 41
0
  0
VERTEX
  8
0
 10
1.59776
 20
0.854329
 30
0.0
 40
0
 41
0
  0
VERTEX
  8
0
 10
1.59776
 20
0.674588
 30
0.0
 40
0
 41
0
  0
VERTEX
  8
0
 10
1.58724
 20
0.674588
 30
0.0
 40
0
 41
0
  0
VERTEX
  8
0
 10
1.58724
 20
0.626682
 30
0.0
 40
0
 41
0
  0
VERTEX
  8
0
 10
1.63514
 20
0.626682
 30
0.0
 40
0
 41
0
  0
VERTEX
  8
0
 10
1.63514
 20
0.674588
 30
0.0
 40
0
 41
0
  0
VERTEX
  8
0
 10
1.62463
 20
0.674588
 30
0.0
 40
0
 41
0
  0
VERTEX
  8
0
 10
1.62463
 20
0.865451
 30
0.0
 40
0
 41
0
  0
VERTEX
  8
0
 10
1.50151
 20
0.988553
 30
0.0
 40
0
 41
0
  0
VERTEX
  8
0
 10
1.46056
 20
0.988553
 30
0.0
 40
0
 41
0
  0
VERTEX
  8
0
 10
1.46056
 20
0.999078
 30
0.0
 40
0
 41
0
  0
SEQEND
 8
0
  0
POLYLINE
  8
0
 62
     7
 66
     1
 10
0
 20
0
 30
0.0
 70
     1
 40
0
 41
0
  0
VERTEX
  8
0
 10
1.21815
 20
0.988553
 30
0.0
 40
0
 41
0
  0
VERTEX
  8
0
 10
1.08936
 20
0.859754
 30
0.0
 40
0
 41
0
  0
VERTEX
  8
0
 10
1.08936
 20
0.55995
 30
0.0
 40
0
 41
0
  0
VERTEX
  8
0
 10
1.21886
 20
0.55995
 30
0.0
 40
0
 41
0
  0
VERTEX
  8
0
 10
1.21886
 20
0.549425
 30
0.0
 40
0
 41
0
  0
VERTEX
  8
0
 10
1.26676
 20
0.549425
 30
0.0
 40
0
 41
0
  0
VERTEX
  8
0
 10
1.26676
 20
0.597331
 30
0.0
 40
0
 41
0
  0
VERTEX
  8
0
 10
1.21886
 20
0.597331
 30
0.0
 40
0
 41
0
  0
VERTEX
  8
0
 10
1.21886
 20
0.586806
 30
0.0
 40
0
 41
0
  0
VERTEX
  8
0
 10
1.11627
 20
0.586806
 30
0.0
 40
0
 41
0
  0
VERTEX
  8
0
 10
1.11627
 20
0.848633
 30
0.0
 40
0
 41
0
  0
VERTEX
  8
0
 10
1.22927
 20
0.961643
 30
0.0
 40
0
 41
0
  0
VERTEX
  8
0
 10
1.33718
 20
0.961643
 30
0.0
 40
0
 41
0
  0
VERTEX
  8
0
 10
1.40636
 20
0.893608
 30
0.0
 40
0
 41
0
  0
VERTEX
  8
0
 10
1.45762
 20
0.893608
 30
0.0
 40
0
 41
0
  0
VERTEX
  8
0
 10
1.53282
 20
0.818414
 30
0.0
 40
0
 41
0
  0
VERTEX
  8
0
 10
1.53282
 20
0.651042
 30
0.0
 40
0
 41
0
  0
VERTEX
  8
0
 10
1.18267
 20
0.651042
 30
0.0
 40
0
 41
0
  0
VERTEX
  8
0
 10
1.18267
 20
0.818414
 30
0.0
 40
0
 41
0
  0
VERTEX
  8
0
 10
1.25792
 20
0.893608
 30
0.0
 40
0
 41
0
  0
VERTEX
  8
0
 10
1.30013
 20
0.893608
 30
0.0
 40
0
 41
0
  0
VERTEX
  8
0
 10
1.30013
 20
0.883083
 30
0.0
 40
0
 41
0
  0
VERTEX
  8
0
 10
1.34804
 20
0.883083
 30
0.0
 40
0
 41
0
  0
VERTEX
  8
0
 10
1.34804
 20
0.93099
 30
0.0
 40
0
 41
0
  0
VERTEX
  8
0
 10
1.30013
 20
0.93099
 30
0.0
 40
0
 41
0
  0
VERTEX
  8
0
 10
1.30013
 20
0.920518
 30
0.0
 40
0
 41
0
  0
VERTEX
  8
0
 10
1.2468
 20
0.920518
 30
0.0
 40
0
 41
0
  0
VERTEX
  8
0
 10
1.15582
 20
0.829536
 30
0.0
 40
0
 41
0
  0
VERTEX
  8
0
 10
1.15582
 20
0.624132
 30
0.0
 40
0
 41
0
  0
VERTEX
  8
0
 10
1.55968
 20
0.624132
 30
0.0
 40
0
 41
0
  0
VERTEX
  8
0
 10
1.55968
 20
0.829536
 30
0.0
 40
0
 41
0
  0
VERTEX
  8
0
 10
1.46875
 20
0.920518
 30
0.0
 40
0
 41
0
  0
VERTEX
  8
0
 10
1.41743
 20
0.920518
 30
0.0
 40
0
 41
0
  0
VERTEX
  8
0
 10
1.3482
 20
0.988553
 30
0.0
 40
0
 41
0
  0
VERTEX
  8
0
 10
1.21815
 20
0.988553
 30
0.0
 40
0
 41
0
  0
SEQEND
 8
0
  0
POLYLINE
  8
0
 62
     7
 66
     1
 10
0
 20
0
 30
0.0
 70
     1
 40
0
 41
0
  0
VERTEX
  8
0
 10
1.08936
 20
0.470269
 30
0.0
 40
0
 41
0
  0
VERTEX
  8
0
 10
1.08936
 20
0.370768
 30
0.0
 40
0
 41
0
  0
VERTEX
  8
0
 10
1.07883
 20
0.370768
 30
0.0
 40
0
 41
0
  0
VERTEX
  8
0
 10
1.07883
 20
0.322862
 30
0.0
 40
0
 41
0
  0
VERTEX
  8
0
 10
1.12674
 20
0.322862
 30
0.0
 40
0
 41
0
  0
VERTEX
  8
0
 10
1.12674
 20
0.370768
 30
0.0
 40
0
 41
0
  0
VERTEX
  8
0
 10
1.11627
 20
0.370768
 30
0.0
 40
0
 41
0
  0
VERTEX
  8
0
 10
1.11627
 20
0.470269
 30
0.0
 40
0
 41
0
  0
VERTEX
  8
0
 10
1.12674
 20
0.470269
 30
0.0
 40
0
 41
0
  0
VERTEX
  8
0
 10
1.12674
 20
0.518175
 30
0.0
 40
0
 41
0
  0
VERTEX
  8
0
 10
1.07883
 20
0.518175
 30
0.0
 40
0
 41
0
  0
VERTEX
  8
0
 10
1.07883
 20
0.470269
 30
0.0
 40
0
 41
0
  0
VERTEX
  8
0
 10
1.08936
 20
0.470269
 30
0.0
 40
0
 41
0
  0
SEQEND
 8
0
  0
POLYLINE
  8
0
 62
     7
 66
     1
 10
0
 20
0
 30
0.0
 70
     1
 40
0
 41
0
  0
VERTEX
  8
0
 10
1.52235
 20
1.05339
 30
0.0
 40
0
 41
0
  0
VERTEX
  8
0
 10
1.19228
 20
1.05187
 30
0.0
 40
0
 41
0
  0
VERTEX
  8
0
 10
1.02523
 20
0.886176
 30
0.0
 40
0
 41
0
  0
VERTEX
  8
0
 10
1.02523
 20
0.254719
 30
0.0
 40
0
 41
0
  0
VERTEX
  8
0
 10
1.18207
 20
0.254719
 30
0.0
 40
0
 41
0
  0
VERTEX
  8
0
 10
1.18207
 20
0.492731
 30
0.0
 40
0
 41
0
  0
VERTEX
  8
0
 10
1.28906
 20
0.492731
 30
0.0
 40
0
 41
0
  0
VERTEX
  8
0
 10
1.36138
 20
0.55995
 30
0.0
 40
0
 41
0
  0
VERTEX
  8
0
 10
1.59776
 20
0.55995
 30
0.0
 40
0
 41
0
  0
VERTEX
  8
0
 10
1.59776
 20
0.370768
 30
0.0
 40
0
 41
0
  0
VERTEX
  8
0
 10
1.58724
 20
0.370768
 30
0.0
 40
0
 41
0
  0
VERTEX
  8
0
 10
1.58724
 20
0.322862
 30
0.0
 40
0
 41
0
  0
VERTEX
  8
0
 10
1.63514
 20
0.322862
 30
0.0
 40
0
 41
0
  0
VERTEX
  8
0
 10
1.63514
 20
0.370768
 30
0.0
 40
0
 41
0
  0
VERTEX
  8
0
 10
1.62463
 20
0.370768
 30
0.0
 40
0
 41
0
  0
VERTEX
  8
0
 10
1.62463
 20
0.586806
 30
0.0
 40
0
 41
0
  0
VERTEX
  8
0
 10
1.3508
 20
0.586806
 30
0.0
 40
0
 41
0
  0
VERTEX
  8
0
 10
1.27854
 20
0.519586
 30
0.0
 40
0
 41
0
  0
VERTEX
  8
0
 10
1.15522
 20
0.519586
 30
0.0
 40
0
 41
0
  0
VERTEX
  8
0
 10
1.15522
 20
0.281575
 30
0.0
 40
0
 41
0
  0
VERTEX
  8
0
 10
1.05214
 20
0.281575
 30
0.0
 40
0
 41
0
  0
VERTEX
  8
0
 10
1.05214
 20
0.875
 30
0.0
 40
0
 41
0
  0
VERTEX
  8
0
 10
1.20345
 20
1.02507
 30
0.0
 40
0
 41
0
  0
VERTEX
  8
0
 10
1.51144
 20
1.02648
 30
0.0
 40
0
 41
0
  0
VERTEX
  8
0
 10
1.65354
 20
0.887153
 30
0.0
 40
0
 41
0
  0
VERTEX
  8
0
 10
1.65354
 20
0.856554
 30
0.0
 40
0
 41
0
  0
VERTEX
  8
0
 10
1.70144
 20
0.856554
 30
0.0
 40
0
 41
0
  0
VERTEX
  8
0
 10
1.70144
 20
0.904514
 30
0.0
 40
0
 41
0
  0
VERTEX
  8
0
 10
1.67421
 20
0.904514
 30
0.0
 40
0
 41
0
  0
VERTEX
  8
0
 10
1.52235
 20
1.05339
 30
0.0
 40
0
 41
0
  0
SEQEND
 8
0
  0
POLYLINE
  8
0
 62
     7
 66
     1
 10
0
 20
0
 30
0.0
 70
     1
 40
0
 41
0
  0
VERTEX
  8
0
 10
1.04042
 20
1.49219
 30
0.0
 40
0
 41
0
  0
VERTEX
  8
0
 10
1.05094
 20
1.49219
 30
0.0
 40
0
 41
0
  0
VERTEX
  8
0
 10
1.05094
 20
1.27447
 30
0.0
 40
0
 41
0
  0
VERTEX
  8
0
 10
1.04042
 20
1.27447
 30
0.0
 40
0
 41
0
  0
VERTEX
  8
0
 10
1.04042
 20
1.22651
 30
0.0
 40
0
 41
0
  0
VERTEX
  8
0
 10
1.08832
 20
1.22651
 30
0.0
 40
0
 41
0
  0
VERTEX
  8
0
 10
1.08832
 20
1.27447
 30
0.0
 40
0
 41
0
  0
VERTEX
  8
0
 10
1.07785
 20
1.27447
 30
0.0
 40
0
 41
0
  0
VERTEX
  8
0
 10
1.07785
 20
1.49219
 30
0.0
 40
0
 41
0
  0
VERTEX
  8
0
 10
1.08832
 20
1.49219
 30
0.0
 40
0
 41
0
  0
VERTEX
  8
0
 10
1.08832
 20
1.54004
 30
0.0
 40
0
 41
0
  0
VERTEX
  8
0
 10
1.04042
 20
1.54004
 30
0.0
 40
0
 41
0
  0
VERTEX
  8
0
 10
1.04042
 20
1.49219
 30
0.0
 40
0
 41
0
  0
SEQEND
 8
0
  0
POLYLINE
  8
0
 62
     7
 66
     1
 10
0
 20
0
 30
0.0
 70
     1
 40
0
 41
0
  0
VERTEX
  8
0
 10
1.12039
 20
1.63308
 30
0.0
 40
0
 41
0
  0
VERTEX
  8
0
 10
1.16829
 20
1.63308
 30
0.0
 40
0
 41
0
  0
VERTEX
  8
0
 10
1.16829
 20
1.68099
 30
0.0
 40
0
 41
0
  0
VERTEX
  8
0
 10
1.15777
 20
1.68099
 30
0.0
 40
0
 41
0
  0
VERTEX
  8
0
 10
1.15777
 20
1.96918
 30
0.0
 40
0
 41
0
  0
VERTEX
  8
0
 10
0.974121
 20
1.96918
 30
0.0
 40
0
 41
0
  0
VERTEX
  8
0
 10
0.974121
 20
1.17166
 30
0.0
 40
0
 41
0
  0
VERTEX
  8
0
 10
1.15777
 20
1.17166
 30
0.0
 40
0
 41
0
  0
VERTEX
  8
0
 10
1.15777
 20
1.54471
 30
0.0
 40
0
 41
0
  0
VERTEX
  8
0
 10
1.09272
 20
1.60986
 30
0.0
 40
0
 41
0
  0
VERTEX
  8
0
 10
1.09267
 20
1.60986
 30
0.0
 40
0
 41
0
  0
VERTEX
  8
0
 10
1.07775
 20
1.62478
 30
0.0
 40
0
 41
0
  0
VERTEX
  8
0
 10
1.07785
 20
1.8666
 30
0.0
 40
0
 41
0
  0
VERTEX
  8
0
 10
1.08832
 20
1.8666
 30
0.0
 40
0
 41
0
  0
VERTEX
  8
0
 10
1.08832
 20
1.91456
 30
0.0
 40
0
 41
0
  0
VERTEX
  8
0
 10
1.04037
 20
1.91456
 30
0.0
 40
0
 41
0
  0
VERTEX
  8
0
 10
1.04037
 20
1.8666
 30
0.0
 40
0
 41
0
  0
VERTEX
  8
0
 10
1.05094
 20
1.8666
 30
0.0
 40
0
 41
0
  0
VERTEX
  8
0
 10
1.05089
 20
1.61367
 30
0.0
 40
0
 41
0
  0
VERTEX
  8
0
 10
1.13091
 20
1.53364
 30
0.0
 40
0
 41
0
  0
VERTEX
  8
0
 10
1.13091
 20
1.19851
 30
0.0
 40
0
 41
0
  0
VERTEX
  8
0
 10
1.00103
 20
1.19851
 30
0.0
 40
0
 41
0
  0
VERTEX
  8
0
 10
1.00103
 20
1.94233
 30
0.0
 40
0
 41
0
  0
VERTEX
  8
0
 10
1.13091
 20
1.94233
 30
0.0
 40
0
 41
0
  0
VERTEX
  8
0
 10
1.13091
 20
1.68099
 30
0.0
 40
0
 41
0
  0
VERTEX
  8
0
 10
1.12039
 20
1.68099
 30
0.0
 40
0
 41
0
  0
VERTEX
  8
0
 10
1.12039
 20
1.63308
 30
0.0
 40
0
 41
0
  0
SEQEND
 8
0
  0
POLYLINE
  8
0
 62
     7
 66
     1
 10
0
 20
0
 30
0.0
 70
     1
 40
0
 41
0
  0
VERTEX
  8
0
 10
0.635688
 20
0.305339
 30
0.0
 40
0
 41
0
  0
VERTEX
  8
0
 10
0.635688
 20
0.315918
 30
0.0
 40
0
 41
0
  0
VERTEX
  8
0
 10
0.82449
 20
0.315918
 30
0.0
 40
0
 41
0
  0
VERTEX
  8
0
 10
0.82449
 20
0.305339
 30
0.0
 40
0
 41
0
  0
VERTEX
  8
0
 10
0.87245
 20
0.305339
 30
0.0
 40
0
 41
0
  0
VERTEX
  8
0
 10
0.87245
 20
0.353244
 30
0.0
 40
0
 41
0
  0
VERTEX
  8
0
 10
0.82449
 20
0.353244
 30
0.0
 40
0
 41
0
  0
VERTEX
  8
0
 10
0.82449
 20
0.342774
 30
0.0
 40
0
 41
0
  0
VERTEX
  8
0
 10
0.635688
 20
0.342774
 30
0.0
 40
0
 41
0
  0
VERTEX
  8
0
 10
0.635688
 20
0.353244
 30
0.0
 40
0
 41
0
  0
VERTEX
  8
0
 10
0.587782
 20
0.353244
 30
0.0
 40
0
 41
0
  0
VERTEX
  8
0
 10
0.587782
 20
0.305339
 30
0.0
 40
0
 41
0
  0
VERTEX
  8
0
 10
0.635688
 20
0.305339
 30
0.0
 40
0
 41
0
  0
SEQEND
 8
0
  0
POLYLINE
  8
0
 62
     7
 66
     1
 10
0
 20
0
 30
0.0
 70
     1
 40
0
 41
0
  0
VERTEX
  8
0
 10
0.285969
 20
0.25586
 30
0.0
 40
0
 41
0
  0
VERTEX
  8
0
 10
0.929254
 20
0.25586
 30
0.0
 40
0
 41
0
  0
VERTEX
  8
0
 10
0.929254
 20
0.413954
 30
0.0
 40
0
 41
0
  0
VERTEX
  8
0
 10
0.574924
 20
0.413954
 30
0.0
 40
0
 41
0
  0
VERTEX
  8
0
 10
0.507758
 20
0.342774
 30
0.0
 40
0
 41
0
  0
VERTEX
  8
0
 10
0.375271
 20
0.342774
 30
0.0
 40
0
 41
0
  0
VERTEX
  8
0
 10
0.375271
 20
0.532715
 30
0.0
 40
0
 41
0
  0
VERTEX
  8
0
 10
0.385796
 20
0.532715
 30
0.0
 40
0
 41
0
  0
VERTEX
  8
0
 10
0.385796
 20
0.580621
 30
0.0
 40
0
 41
0
  0
VERTEX
  8
0
 10
0.33789
 20
0.580621
 30
0.0
 40
0
 41
0
  0
VERTEX
  8
0
 10
0.33789
 20
0.532715
 30
0.0
 40
0
 41
0
  0
VERTEX
  8
0
 10
0.348361
 20
0.532715
 30
0.0
 40
0
 41
0
  0
VERTEX
  8
0
 10
0.348361
 20
0.315918
 30
0.0
 40
0
 41
0
  0
VERTEX
  8
0
 10
0.519314
 20
0.315918
 30
0.0
 40
0
 41
0
  0
VERTEX
  8
0
 10
0.586535
 20
0.387044
 30
0.0
 40
0
 41
0
  0
VERTEX
  8
0
 10
0.902344
 20
0.387044
 30
0.0
 40
0
 41
0
  0
VERTEX
  8
0
 10
0.902344
 20
0.282715
 30
0.0
 40
0
 41
0
  0
VERTEX
  8
0
 10
0.312825
 20
0.282715
 30
0.0
 40
0
 41
0
  0
VERTEX
  8
0
 10
0.312825
 20
0.577636
 30
0.0
 40
0
 41
0
  0
VERTEX
  8
0
 10
0.377333
 20
0.64171
 30
0.0
 40
0
 41
0
  0
VERTEX
  8
0
 10
0.377333
 20
0.950792
 30
0.0
 40
0
 41
0
  0
VERTEX
  8
0
 10
0.387858
 20
0.950792
 30
0.0
 40
0
 41
0
  0
VERTEX
  8
0
 10
0.387858
 20
0.998699
 30
0.0
 40
0
 41
0
  0
VERTEX
  8
0
 10
0.339953
 20
0.998699
 30
0.0
 40
0
 41
0
  0
VERTEX
  8
0
 10
0.339953
 20
0.950792
 30
0.0
 40
0
 41
0
  0
VERTEX
  8
0
 10
0.350478
 20
0.950792
 30
0.0
 40
0
 41
0
  0
VERTEX
  8
0
 10
0.350478
 20
0.652886
 30
0.0
 40
0
 41
0
  0
VERTEX
  8
0
 10
0.285969
 20
0.588867
 30
0.0
 40
0
 41
0
  0
VERTEX
  8
0
 10
0.285969
 20
0.25586
 30
0.0
 40
0
 41
0
  0
SEQEND
 8
0
  0
POLYLINE
  8
0
 62
     7
 66
     1
 10
0
 20
0
 30
0.0
 70
     1
 40
0
 41
0
  0
VERTEX
  8
0
 10
0.59809
 20
1.22521
 30
0.0
 40
0
 41
0
  0
VERTEX
  8
0
 10
0.598036
 20
1.23584
 30
0.0
 40
0
 41
0
  0
VERTEX
  8
0
 10
0.629719
 20
1.23617
 30
0.0
 40
0
 41
0
  0
VERTEX
  8
0
 10
0.760471
 20
1.3667
 30
0.0
 40
0
 41
0
  0
VERTEX
  8
0
 10
0.760471
 20
1.36675
 30
0.0
 40
0
 41
0
  0
VERTEX
  8
0
 10
0.770942
 20
1.3667
 30
0.0
 40
0
 41
0
  0
VERTEX
  8
0
 10
0.771158
 20
1.41465
 30
0.0
 40
0
 41
0
  0
VERTEX
  8
0
 10
0.723307
 20
1.41488
 30
0.0
 40
0
 41
0
  0
VERTEX
  8
0
 10
0.723036
 20
1.3673
 30
0.0
 40
0
 41
0
  0
VERTEX
  8
0
 10
0.61849
 20
1.26297
 30
0.0
 40
0
 41
0
  0
VERTEX
  8
0
 10
0.597819
 20
1.26275
 30
0.0
 40
0
 41
0
  0
VERTEX
  8
0
 10
0.597765
 20
1.27317
 30
0.0
 40
0
 41
0
  0
VERTEX
  8
0
 10
0.549804
 20
1.27273
 30
0.0
 40
0
 41
0
  0
VERTEX
  8
0
 10
0.550185
 20
1.22483
 30
0.0
 40
0
 41
0
  0
VERTEX
  8
0
 10
0.59809
 20
1.22521
 30
0.0
 40
0
 41
0
  0
SEQEND
 8
0
  0
POLYLINE
  8
0
 62
     7
 66
     1
 10
0
 20
0
 30
0.0
 70
     1
 40
0
 41
0
  0
VERTEX
  8
0
 10
0.656521
 20
1.17166
 30
0.0
 40
0
 41
0
  0
VERTEX
  8
0
 10
0.826986
 20
1.3393
 30
0.0
 40
0
 41
0
  0
VERTEX
  8
0
 10
0.826986
 20
1.47364
 30
0.0
 40
0
 41
0
  0
VERTEX
  8
0
 10
0.668837
 20
1.47364
 30
0.0
 40
0
 41
0
  0
VERTEX
  8
0
 10
0.668837
 20
1.40494
 30
0.0
 40
0
 41
0
  0
VERTEX
  8
0
 10
0.593642
 20
1.32975
 30
0.0
 40
0
 41
0
  0
VERTEX
  8
0
 10
0.467503
 20
1.32975
 30
0.0
 40
0
 41
0
  0
VERTEX
  8
0
 10
0.392253
 20
1.40494
 30
0.0
 40
0
 41
0
  0
VERTEX
  8
0
 10
0.392253
 20
1.43207
 30
0.0
 40
0
 41
0
  0
VERTEX
  8
0
 10
0.402778
 20
1.43207
 30
0.0
 40
0
 41
0
  0
VERTEX
  8
0
 10
0.402778
 20
1.47999
 30
0.0
 40
0
 41
0
  0
VERTEX
  8
0
 10
0.354872
 20
1.47999
 30
0.0
 40
0
 41
0
  0
VERTEX
  8
0
 10
0.354872
 20
1.43207
 30
0.0
 40
0
 41
0
  0
VERTEX
  8
0
 10
0.365397
 20
1.43207
 30
0.0
 40
0
 41
0
  0
VERTEX
  8
0
 10
0.365397
 20
1.39382
 30
0.0
 40
0
 41
0
  0
VERTEX
  8
0
 10
0.456326
 20
1.30284
 30
0.0
 40
0
 41
0
  0
VERTEX
  8
0
 10
0.604764
 20
1.30284
 30
0.0
 40
0
 41
0
  0
VERTEX
  8
0
 10
0.695692
 20
1.39382
 30
0.0
 40
0
 41
0
  0
VERTEX
  8
0
 10
0.695692
 20
1.44672
 30
0.0
 40
0
 41
0
  0
VERTEX
  8
0
 10
0.800076
 20
1.44672
 30
0.0
 40
0
 41
0
  0
VERTEX
  8
0
 10
0.800076
 20
1.35053
 30
0.0
 40
0
 41
0
  0
VERTEX
  8
0
 10
0.645454
 20
1.19851
 30
0.0
 40
0
 41
0
  0
VERTEX
  8
0
 10
0.412978
 20
1.19851
 30
0.0
 40
0
 41
0
  0
VERTEX
  8
0
 10
0.261014
 20
1.35048
 30
0.0
 40
0
 41
0
  0
VERTEX
  8
0
 10
0.261014
 20
1.55214
 30
0.0
 40
0
 41
0
  0
VERTEX
  8
0
 10
0.271539
 20
1.55214
 30
0.0
 40
0
 41
0
  0
VERTEX
  8
0
 10
0.271539
 20
1.60004
 30
0.0
 40
0
 41
0
  0
VERTEX
  8
0
 10
0.223633
 20
1.60004
 30
0.0
 40
0
 41
0
  0
VERTEX
  8
0
 10
0.223633
 20
1.55214
 30
0.0
 40
0
 41
0
  0
VERTEX
  8
0
 10
0.234158
 20
1.55214
 30
0.0
 40
0
 41
0
  0
VERTEX
  8
0
 10
0.234158
 20
1.33936
 30
0.0
 40
0
 41
0
  0
VERTEX
  8
0
 10
0.401856
 20
1.17166
 30
0.0
 40
0
 41
0
  0
VERTEX
  8
0
 10
0.656521
 20
1.17166
 30
0.0
 40
0
 41
0
  0
SEQEND
 8
0
  0
POLYLINE
  8
0
 62
     7
 66
     1
 10
0
 20
0
 30
0.0
 70
     1
 40
0
 41
0
  0
VERTEX
  8
0
 10
0.604872
 20
1.86621
 30
0.0
 40
0
 41
0
  0
VERTEX
  8
0
 10
0.604872
 20
1.87668
 30
0.0
 40
0
 41
0
  0
VERTEX
  8
0
 10
0.623643
 20
1.87668
 30
0.0
 40
0
 41
0
  0
VERTEX
  8
0
 10
0.727485
 20
1.77235
 30
0.0
 40
0
 41
0
  0
VERTEX
  8
0
 10
0.723036
 20
1.77235
 30
0.0
 40
0
 41
0
  0
VERTEX
  8
0
 10
0.723036
 20
1.72439
 30
0.0
 40
0
 41
0
  0
VERTEX
  8
0
 10
0.770942
 20
1.72439
 30
0.0
 40
0
 41
0
  0
VERTEX
  8
0
 10
0.770942
 20
1.77235
 30
0.0
 40
0
 41
0
  0
VERTEX
  8
0
 10
0.760417
 20
1.77235
 30
0.0
 40
0
 41
0
  0
VERTEX
  8
0
 10
0.760417
 20
1.77735
 30
0.0
 40
0
 41
0
  0
VERTEX
  8
0
 10
0.634819
 20
1.90365
 30
0.0
 40
0
 41
0
  0
VERTEX
  8
0
 10
0.604872
 20
1.90365
 30
0.0
 40
0
 41
0
  0
VERTEX
  8
0
 10
0.604872
 20
1.91411
 30
0.0
 40
0
 41
0
  0
VERTEX
  8
0
 10
0.556967
 20
1.91411
 30
0.0
 40
0
 41
0
  0
VERTEX
  8
0
 10
0.556967
 20
1.86621
 30
0.0
 40
0
 41
0
  0
VERTEX
  8
0
 10
0.604872
 20
1.86621
 30
0.0
 40
0
 41
0
  0
SEQEND
 8
0
  0
POLYLINE
  8
0
 62
     7
 66
     1
 10
0
 20
0
 30
0.0
 70
     1
 40
0
 41
0
  0
VERTEX
  8
0
 10
0.668837
 20
1.66911
 30
0.0
 40
0
 41
0
  0
VERTEX
  8
0
 10
0.826986
 20
1.66911
 30
0.0
 40
0
 41
0
  0
VERTEX
  8
0
 10
0.826986
 20
1.80149
 30
0.0
 40
0
 41
0
  0
VERTEX
  8
0
 10
0.659233
 20
1.96918
 30
0.0
 40
0
 41
0
  0
VERTEX
  8
0
 10
0.544596
 20
1.96918
 30
0.0
 40
0
 41
0
  0
VERTEX
  8
0
 10
0.482476
 20
1.90256
 30
0.0
 40
0
 41
0
  0
VERTEX
  8
0
 10
0.42589
 20
1.90142
 30
0.0
 40
0
 41
0
  0
VERTEX
  8
0
 10
0.300185
 20
1.77572
 30
0.0
 40
0
 41
0
  0
VERTEX
  8
0
 10
0.300185
 20
1.73443
 30
0.0
 40
0
 41
0
  0
VERTEX
  8
0
 10
0.28966
 20
1.73443
 30
0.0
 40
0
 41
0
  0
VERTEX
  8
0
 10
0.28966
 20
1.68647
 30
0.0
 40
0
 41
0
  0
VERTEX
  8
0
 10
0.337565
 20
1.68647
 30
0.0
 40
0
 41
0
  0
VERTEX
  8
0
 10
0.337565
 20
1.73443
 30
0.0
 40
0
 41
0
  0
VERTEX
  8
0
 10
0.32704
 20
1.73443
 30
0.0
 40
0
 41
0
  0
VERTEX
  8
0
 10
0.32704
 20
1.7646
 30
0.0
 40
0
 41
0
  0
VERTEX
  8
0
 10
0.437175
 20
1.87478
 30
0.0
 40
0
 41
0
  0
VERTEX
  8
0
 10
0.494303
 20
1.87588
 30
0.0
 40
0
 41
0
  0
VERTEX
  8
0
 10
0.556261
 20
1.94233
 30
0.0
 40
0
 41
0
  0
VERTEX
  8
0
 10
0.648113
 20
1.94233
 30
0.0
 40
0
 41
0
  0
VERTEX
  8
0
 10
0.800076
 20
1.79036
 30
0.0
 40
0
 41
0
  0
VERTEX
  8
0
 10
0.800076
 20
1.69601
 30
0.0
 40
0
 41
0
  0
VERTEX
  8
0
 10
0.695692
 20
1.69601
 30
0.0
 40
0
 41
0
  0
VERTEX
  8
0
 10
0.695692
 20
1.74696
 30
0.0
 40
0
 41
0
  0
VERTEX
  8
0
 10
0.604764
 20
1.83794
 30
0.0
 40
0
 41
0
  0
VERTEX
  8
0
 10
0.456326
 20
1.83794
 30
0.0
 40
0
 41
0
  0
VERTEX
  8
0
 10
0.365397
 20
1.74696
 30
0.0
 40
0
 41
0
  0
VERTEX
  8
0
 10
0.365397
 20
1.55632
 30
0.0
 40
0
 41
0
  0
VERTEX
  8
0
 10
0.354872
 20
1.55632
 30
0.0
 40
0
 41
0
  0
VERTEX
  8
0
 10
0.354872
 20
1.5084
 30
0.0
 40
0
 41
0
  0
VERTEX
  8
0
 10
0.402778
 20
1.5084
 30
0.0
 40
0
 41
0
  0
VERTEX
  8
0
 10
0.402778
 20
1.55632
 30
0.0
 40
0
 41
0
  0
VERTEX
  8
0
 10
0.392253
 20
1.55632
 30
0.0
 40
0
 41
0
  0
VERTEX
  8
0
 10
0.392253
 20
1.73583
 30
0.0
 40
0
 41
0
  0
VERTEX
  8
0
 10
0.467503
 20
1.81108
 30
0.0
 40
0
 41
0
  0
VERTEX
  8
0
 10
0.593642
 20
1.81108
 30
0.0
 40
0
 41
0
  0
VERTEX
  8
0
 10
0.668837
 20
1.73583
 30
0.0
 40
0
 41
0
  0
VERTEX
  8
0
 10
0.668837
 20
1.66911
 30
0.0
 40
0
 41
0
  0
SEQEND
 8
0
  0
POLYLINE
  8
0
 62
     7
 66
     1
 10
0
 20
0
 30
0.0
 70
     1
 40
0
 41
0
  0
VERTEX
  8
0
 10
0.432997
 20
1.93181
 30
0.0
 40
0
 41
0
  0
VERTEX
  8
0
 10
0.480903
 20
1.93181
 30
0.0
 40
0
 41
0
  0
VERTEX
  8
0
 10
0.480903
 20
1.97965
 30
0.0
 40
0
 41
0
  0
VERTEX
  8
0
 10
0.432997
 20
1.97965
 30
0.0
 40
0
 41
0
  0
VERTEX
  8
0
 10
0.432997
 20
1.96918
 30
0.0
 40
0
 41
0
  0
VERTEX
  8
0
 10
0.401856
 20
1.96918
 30
0.0
 40
0
 41
0
  0
VERTEX
  8
0
 10
0.234158
 20
1.80149
 30
0.0
 40
0
 41
0
  0
VERTEX
  8
0
 10
0.234158
 20
1.66168
 30
0.0
 40
0
 41
0
  0
VERTEX
  8
0
 10
0.300185
 20
1.59457
 30
0.0
 40
0
 41
0
  0
VERTEX
  8
0
 10
0.300185
 20
1.36464
 30
0.0
 40
0
 41
0
  0
VERTEX
  8
0
 10
0.43164
 20
1.23416
 30
0.0
 40
0
 41
0
  0
VERTEX
  8
0
 10
0.469943
 20
1.23465
 30
0.0
 40
0
 41
0
  0
VERTEX
  8
0
 10
0.470053
 20
1.22418
 30
0.0
 40
0
 41
0
  0
VERTEX
  8
0
 10
0.517958
 20
1.22461
 30
0.0
 40
0
 41
0
  0
VERTEX
  8
0
 10
0.517578
 20
1.27246
 30
0.0
 40
0
 41
0
  0
VERTEX
  8
0
 10
0.469618
 20
1.27208
 30
0.0
 40
0
 41
0
  0
VERTEX
  8
0
 10
0.469726
 20
1.26145
 30
0.0
 40
0
 41
0
  0
VERTEX
  8
0
 10
0.442654
 20
1.26112
 30
0.0
 40
0
 41
0
  0
VERTEX
  8
0
 10
0.32704
 20
1.37581
 30
0.0
 40
0
 41
0
  0
VERTEX
  8
0
 10
0.32704
 20
1.60558
 30
0.0
 40
0
 41
0
  0
VERTEX
  8
0
 10
0.261014
 20
1.67269
 30
0.0
 40
0
 41
0
  0
VERTEX
  8
0
 10
0.261014
 20
1.79036
 30
0.0
 40
0
 41
0
  0
VERTEX
  8
0
 10
0.412978
 20
1.94233
 30
0.0
 40
0
 41
0
  0
VERTEX
  8
0
 10
0.432997
 20
1.94233
 30
0.0
 40
0
 41
0
  0
VERTEX
  8
0
 10
0.432997
 20
1.93181
 30
0.0
 40
0
 41
0
  0
SEQEND
 8
0
  0
POLYLINE
  8
0
 62
     7
 66
     1
 10
0
 20
0
 30
0.0
 70
     1
 40
0
 41
0
  0
VERTEX
  8
0
 10
0.285265
 20
0.696126
 30
0.0
 40
0
 41
0
  0
VERTEX
  8
0
 10
0.27474
 20
0.696126
 30
0.0
 40
0
 41
0
  0
VERTEX
  8
0
 10
0.27474
 20
0.648221
 30
0.0
 40
0
 41
0
  0
VERTEX
  8
0
 10
0.3227
 20
0.648221
 30
0.0
 40
0
 41
0
  0
VERTEX
  8
0
 10
0.3227
 20
0.696126
 30
0.0
 40
0
 41
0
  0
VERTEX
  8
0
 10
0.312175
 20
0.696126
 30
0.0
 40
0
 41
0
  0
VERTEX
  8
0
 10
0.312175
 20
1.02653
 30
0.0
 40
0
 41
0
  0
VERTEX
  8
0
 10
0.416558
 20
1.02653
 30
0.0
 40
0
 41
0
  0
VERTEX
  8
0
 10
0.416558
 20
0.387044
 30
0.0
 40
0
 41
0
  0
VERTEX
  8
0
 10
0.465603
 20
0.387044
 30
0.0
 40
0
 41
0
  0
VERTEX
  8
0
 10
0.465603
 20
0.376574
 30
0.0
 40
0
 41
0
  0
VERTEX
  8
0
 10
0.51351
 20
0.376574
 30
0.0
 40
0
 41
0
  0
VERTEX
  8
0
 10
0.51351
 20
0.424479
 30
0.0
 40
0
 41
0
  0
VERTEX
  8
0
 10
0.465603
 20
0.424479
 30
0.0
 40
0
 41
0
  0
VERTEX
  8
0
 10
0.465603
 20
0.413954
 30
0.0
 40
0
 41
0
  0
VERTEX
  8
0
 10
0.44336
 20
0.413954
 30
0.0
 40
0
 41
0
  0
VERTEX
  8
0
 10
0.44336
 20
1.05339
 30
0.0
 40
0
 41
0
  0
VERTEX
  8
0
 10
0.285265
 20
1.05339
 30
0.0
 40
0
 41
0
  0
VERTEX
  8
0
 10
0.285265
 20
0.696126
 30
0.0
 40
0
 41
0
  0
SEQEND
 8
0
  0
POLYLINE
  8
0
 62
     7
 66
     1
 10
0
 20
0
 30
0.0
 70
     1
 40
0
 41
0
  0
VERTEX
  8
0
 10
1.39404
 20
0.530165
 30
0.0
 40
0
 41
0
  0
VERTEX
  8
0
 10
1.34614
 20
0.530165
 30
0.0
 40
0
 41
0
  0
VERTEX
  8
0
 10
1.34614
 20
0.48226
 30
0.0
 40
0
 41
0
  0
VERTEX
  8
0
 10
1.39404
 20
0.48226
 30
0.0
 40
0
 41
0
  0
VERTEX
  8
0
 10
1.39404
 20
0.492731
 30
0.0
 40
0
 41
0
  0
VERTEX
  8
0
 10
1.53418
 20
0.492731
 30
0.0
 40
0
 41
0
  0
VERTEX
  8
0
 10
1.53418
 20
0.254719
 30
0.0
 40
0
 41
0
  0
VERTEX
  8
0
 10
1.69086
 20
0.254719
 30
0.0
 40
0
 41
0
  0
VERTEX
  8
0
 10
1.69086
 20
0.774849
 30
0.0
 40
0
 41
0
  0
VERTEX
  8
0
 10
1.70144
 20
0.774849
 30
0.0
 40
0
 41
0
  0
VERTEX
  8
0
 10
1.70144
 20
0.822754
 30
0.0
 40
0
 41
0
  0
VERTEX
  8
0
 10
1.65354
 20
0.822754
 30
0.0
 40
0
 41
0
  0
VERTEX
  8
0
 10
1.65354
 20
0.774849
 30
0.0
 40
0
 41
0
  0
VERTEX
  8
0
 10
1.66401
 20
0.774849
 30
0.0
 40
0
 41
0
  0
VERTEX
  8
0
 10
1.66401
 20
0.281575
 30
0.0
 40
0
 41
0
  0
VERTEX
  8
0
 10
1.56104
 20
0.281575
 30
0.0
 40
0
 41
0
  0
VERTEX
  8
0
 10
1.56104
 20
0.519586
 30
0.0
 40
0
 41
0
  0
VERTEX
  8
0
 10
1.39404
 20
0.519586
 30
0.0
 40
0
 41
0
  0
VERTEX
  8
0
 10
1.39404
 20
0.530165
 30
0.0
 40
0
 41
0
  0
SEQEND
 8
0
  0
ENDSEC
  0
EOF
