  0
SECTION
  2
HEADER
  9
$ACADVER
  1
AC1009
  9
$FILLMODE
 70
 0
  9
$SPLFRAME
 70
 1
  9
$EXTMIN
 10
0
 20
0
 30
0.0
  9
$EXTMAX
 10
41.6667
 20
41.6667
 30
0.0
  0
ENDSEC
  0
SECTION
  2
TABLES
  0
TABLE
  2
LAYER
 70
1
  0
LAYER
  2
0
 70
     0
 62
     7
  6
CONTINUOUS
  0
ENDTAB
  0
ENDSEC
  0
SECTION
  2
ENTITIES
  0
POLYLINE
  8
0
 62
     0
 66
     1
 10
0
 20
0
 30
0.0
 70
     1
 40
0
 41
0
  0
VERTEX
  8
0
 10
0.650988
 20
2.51281
 30
0.0
 40
0
 41
0
  0
VERTEX
  8
0
 10
0.257379
 20
2.51193
 30
0.0
 40
0
 41
0
  0
VERTEX
  8
0
 10
0
 20
2.25456
 30
0.0
 40
0
 41
0
  0
VERTEX
  8
0
 10
0
 20
1.58208
 30
0.0
 40
0
 41
0
  0
VERTEX
  8
0
 10
0.258247
 20
1.32384
 30
0.0
 40
0
 41
0
  0
VERTEX
  8
0
 10
0.647026
 20
1.32384
 30
0.0
 40
0
 41
0
  0
VERTEX
  8
0
 10
0.909233
 20
1.58176
 30
0.0
 40
0
 41
0
  0
VERTEX
  8
0
 10
0.909233
 20
1.83589
 30
0.0
 40
0
 41
0
  0
VERTEX
  8
0
 10
0.593696
 20
1.83589
 30
0.0
 40
0
 41
0
  0
VERTEX
  8
0
 10
0.593696
 20
1.713
 30
0.0
 40
0
 41
0
  0
VERTEX
  8
0
 10
0.520182
 20
1.63938
 30
0.0
 40
0
 41
0
  0
VERTEX
  8
0
 10
0.389214
 20
1.63938
 30
0.0
 40
0
 41
0
  0
VERTEX
  8
0
 10
0.314942
 20
1.71533
 30
0.0
 40
0
 41
0
  0
VERTEX
  8
0
 10
0.314942
 20
1.84776
 30
0.0
 40
0
 41
0
  0
VERTEX
  8
0
 10
0.315483
 20
2.12364
 30
0.0
 40
0
 41
0
  0
VERTEX
  8
0
 10
0.389051
 20
2.19726
 30
0.0
 40
0
 41
0
  0
VERTEX
  8
0
 10
0.520182
 20
2.19726
 30
0.0
 40
0
 41
0
  0
VERTEX
  8
0
 10
0.593696
 20
2.12364
 30
0.0
 40
0
 41
0
  0
VERTEX
  8
0
 10
0.593696
 20
2.00336
 30
0.0
 40
0
 41
0
  0
VERTEX
  8
0
 10
0.909233
 20
2.00336
 30
0.0
 40
0
 41
0
  0
VERTEX
  8
0
 10
0.909233
 20
2.25456
 30
0.0
 40
0
 41
0
  0
VERTEX
  8
0
 10
0.650988
 20
2.51281
 30
0.0
 40
0
 41
0
  0
SEQEND
 8
0
  0
POLYLINE
  8
0
 62
     0
 66
     1
 10
0
 20
0
 30
0.0
 70
     1
 40
0
 41
0
  0
VERTEX
  8
0
 10
3.17378
 20
2.51275
 30
0.0
 40
0
 41
0
  0
VERTEX
  8
0
 10
3.17378
 20
2.31489
 30
0.0
 40
0
 41
0
  0
VERTEX
  8
0
 10
2.99972
 20
2.1415
 30
0.0
 40
0
 41
0
  0
VERTEX
  8
0
 10
2.82568
 20
2.3156
 30
0.0
 40
0
 41
0
  0
VERTEX
  8
0
 10
2.82568
 20
2.51275
 30
0.0
 40
0
 41
0
  0
VERTEX
  8
0
 10
2.51014
 20
2.51275
 30
0.0
 40
0
 41
0
  0
VERTEX
  8
0
 10
2.51014
 20
2.18479
 30
0.0
 40
0
 41
0
  0
VERTEX
  8
0
 10
2.84201
 20
1.85292
 30
0.0
 40
0
 41
0
  0
VERTEX
  8
0
 10
2.84201
 20
1.32389
 30
0.0
 40
0
 41
0
  0
VERTEX
  8
0
 10
3.15744
 20
1.32389
 30
0.0
 40
0
 41
0
  0
VERTEX
  8
0
 10
3.1544
 20
1.85292
 30
0.0
 40
0
 41
0
  0
VERTEX
  8
0
 10
3.48768
 20
2.18625
 30
0.0
 40
0
 41
0
  0
VERTEX
  8
0
 10
3.48768
 20
2.51275
 30
0.0
 40
0
 41
0
  0
VERTEX
  8
0
 10
3.17378
 20
2.51275
 30
0.0
 40
0
 41
0
  0
SEQEND
 8
0
  0
POLYLINE
  8
0
 62
     0
 66
     1
 10
0
 20
0
 30
0.0
 70
     1
 40
0
 41
0
  0
VERTEX
  8
0
 10
1.49149
 20
2.51275
 30
0.0
 40
0
 41
0
  0
VERTEX
  8
0
 10
1.49149
 20
2.19732
 30
0.0
 40
0
 41
0
  0
VERTEX
  8
0
 10
1.78836
 20
2.19732
 30
0.0
 40
0
 41
0
  0
VERTEX
  8
0
 10
1.78836
 20
1.32389
 30
0.0
 40
0
 41
0
  0
VERTEX
  8
0
 10
2.10379
 20
1.32389
 30
0.0
 40
0
 41
0
  0
VERTEX
  8
0
 10
2.10379
 20
2.19732
 30
0.0
 40
0
 41
0
  0
VERTEX
  8
0
 10
2.40067
 20
2.19732
 30
0.0
 40
0
 41
0
  0
VERTEX
  8
0
 10
2.40067
 20
2.51275
 30
0.0
 40
0
 41
0
  0
VERTEX
  8
0
 10
1.49149
 20
2.51275
 30
0.0
 40
0
 41
0
  0
SEQEND
 8
0
  0
POLYLINE
  8
0
 62
     0
 66
     1
 10
0
 20
0
 30
0.0
 70
     1
 40
0
 41
0
  0
VERTEX
  8
0
 10
1.04818
 20
2.51275
 30
0.0
 40
0
 41
0
  0
VERTEX
  8
0
 10
1.04818
 20
1.32384
 30
0.0
 40
0
 41
0
  0
VERTEX
  8
0
 10
1.37446
 20
1.32384
 30
0.0
 40
0
 41
0
  0
VERTEX
  8
0
 10
1.37446
 20
1.95415
 30
0.0
 40
0
 41
0
  0
VERTEX
  8
0
 10
1.37446
 20
2.51275
 30
0.0
 40
0
 41
0
  0
VERTEX
  8
0
 10
1.04818
 20
2.51275
 30
0.0
 40
0
 41
0
  0
SEQEND
 8
0
  0
POLYLINE
  8
0
 62
     0
 66
     1
 10
0
 20
0
 30
0.0
 70
     1
 40
0
 41
0
  0
VERTEX
  8
0
 10
2.37549
 20
1.19249
 30
0.0
 40
0
 41
0
  0
VERTEX
  8
0
 10
2.37549
 20
0.00363499
 30
0.0
 40
0
 41
0
  0
VERTEX
  8
0
 10
2.90115
 20
0.00412326
 30
0.0
 40
0
 41
0
  0
VERTEX
  8
0
 10
2.95057
 20
0.00412326
 30
0.0
 40
0
 41
0
  0
VERTEX
  8
0
 10
2.95057
 20
0.00417751
 30
0.0
 40
0
 41
0
  0
VERTEX
  8
0
 10
3.15153
 20
0.00439453
 30
0.0
 40
0
 41
0
  0
VERTEX
  8
0
 10
3.35454
 20
0.206489
 30
0.0
 40
0
 41
0
  0
VERTEX
  8
0
 10
3.35454
 20
0.552951
 30
0.0
 40
0
 41
0
  0
VERTEX
  8
0
 10
3.3094
 20
0.598036
 30
0.0
 40
0
 41
0
  0
VERTEX
  8
0
 10
3.35454
 20
0.643229
 30
0.0
 40
0
 41
0
  0
VERTEX
  8
0
 10
3.35454
 20
0.989637
 30
0.0
 40
0
 41
0
  0
VERTEX
  8
0
 10
3.15164
 20
1.19249
 30
0.0
 40
0
 41
0
  0
VERTEX
  8
0
 10
2.37549
 20
1.19249
 30
0.0
 40
0
 41
0
  0
SEQEND
 8
0
  0
POLYLINE
  8
0
 62
     0
 66
     1
 10
0
 20
0
 30
0.0
 70
     1
 40
0
 41
0
  0
VERTEX
  8
0
 10
2.69097
 20
0.877007
 30
0.0
 40
0
 41
0
  0
VERTEX
  8
0
 10
3.02083
 20
0.877007
 30
0.0
 40
0
 41
0
  0
VERTEX
  8
0
 10
3.04872
 20
0.849121
 30
0.0
 40
0
 41
0
  0
VERTEX
  8
0
 10
3.04872
 20
0.781196
 30
0.0
 40
0
 41
0
  0
VERTEX
  8
0
 10
3.02192
 20
0.755806
 30
0.0
 40
0
 41
0
  0
VERTEX
  8
0
 10
2.69097
 20
0.755806
 30
0.0
 40
0
 41
0
  0
VERTEX
  8
0
 10
2.69097
 20
0.877007
 30
0.0
 40
0
 41
0
  0
SEQEND
 8
0
  0
POLYLINE
  8
0
 62
     0
 66
     1
 10
0
 20
0
 30
0.0
 70
     1
 40
0
 41
0
  0
VERTEX
  8
0
 10
2.69097
 20
0.440483
 30
0.0
 40
0
 41
0
  0
VERTEX
  8
0
 10
3.02078
 20
0.440321
 30
0.0
 40
0
 41
0
  0
VERTEX
  8
0
 10
3.04818
 20
0.412978
 30
0.0
 40
0
 41
0
  0
VERTEX
  8
0
 10
3.0471
 20
0.345432
 30
0.0
 40
0
 41
0
  0
VERTEX
  8
0
 10
3.02035
 20
0.318685
 30
0.0
 40
0
 41
0
  0
VERTEX
  8
0
 10
2.69097
 20
0.313476
 30
0.0
 40
0
 41
0
  0
VERTEX
  8
0
 10
2.69097
 20
0.440483
 30
0.0
 40
0
 41
0
  0
SEQEND
 8
0
  0
POLYLINE
  8
0
 62
     0
 66
     1
 10
0
 20
0
 30
0.0
 70
     1
 40
0
 41
0
  0
VERTEX
  8
0
 10
1.4776
 20
1.18826
 30
0.0
 40
0
 41
0
  0
VERTEX
  8
0
 10
1.22027
 20
0.932997
 30
0.0
 40
0
 41
0
  0
VERTEX
  8
0
 10
1.22027
 20
0
 30
0.0
 40
0
 41
0
  0
VERTEX
  8
0
 10
1.53396
 20
0
 30
0.0
 40
0
 41
0
  0
VERTEX
  8
0
 10
1.53396
 20
0.325087
 30
0.0
 40
0
 41
0
  0
VERTEX
  8
0
 10
1.91542
 20
0.325087
 30
0.0
 40
0
 41
0
  0
VERTEX
  8
0
 10
1.91542
 20
0
 30
0.0
 40
0
 41
0
  0
VERTEX
  8
0
 10
2.22894
 20
0
 30
0.0
 40
0
 41
0
  0
VERTEX
  8
0
 10
2.22894
 20
0.939074
 30
0.0
 40
0
 41
0
  0
VERTEX
  8
0
 10
1.96918
 20
1.19048
 30
0.0
 40
0
 41
0
  0
VERTEX
  8
0
 10
1.4776
 20
1.18826
 30
0.0
 40
0
 41
0
  0
SEQEND
 8
0
  0
POLYLINE
  8
0
 62
     0
 66
     1
 10
0
 20
0
 30
0.0
 70
     1
 40
0
 41
0
  0
VERTEX
  8
0
 10
1.53483
 20
0.799046
 30
0.0
 40
0
 41
0
  0
VERTEX
  8
0
 10
1.60856
 20
0.872775
 30
0.0
 40
0
 41
0
  0
VERTEX
  8
0
 10
1.83996
 20
0.872612
 30
0.0
 40
0
 41
0
  0
VERTEX
  8
0
 10
1.91357
 20
0.799046
 30
0.0
 40
0
 41
0
  0
VERTEX
  8
0
 10
1.91357
 20
0.640842
 30
0.0
 40
0
 41
0
  0
VERTEX
  8
0
 10
1.53483
 20
0.640842
 30
0.0
 40
0
 41
0
  0
VERTEX
  8
0
 10
1.53483
 20
0.799046
 30
0.0
 40
0
 41
0
  0
SEQEND
 8
0
  0
POLYLINE
  8
0
 62
     0
 66
     1
 10
0
 20
0
 30
0.0
 70
     1
 40
0
 41
0
  0
VERTEX
  8
0
 10
0.114963
 20
1.19043
 30
0.0
 40
0
 41
0
  0
VERTEX
  8
0
 10
0.11594
 20
0.0015191
 30
0.0
 40
0
 41
0
  0
VERTEX
  8
0
 10
1.09402
 20
0.0015191
 30
0.0
 40
0
 41
0
  0
VERTEX
  8
0
 10
1.09402
 20
0.317003
 30
0.0
 40
0
 41
0
  0
VERTEX
  8
0
 10
0.430447
 20
0.317003
 30
0.0
 40
0
 41
0
  0
VERTEX
  8
0
 10
0.430447
 20
1.19043
 30
0.0
 40
0
 41
0
  0
VERTEX
  8
0
 10
0.114963
 20
1.19043
 30
0.0
 40
0
 41
0
  0
SEQEND
 8
0
  0
POLYLINE
  8
0
 62
     3
 66
     1
 10
0
 20
0
 30
0.0
 70
     1
 40
0
 41
0
  0
VERTEX
  8
0
 10
3.43799
 20
2.20688
 30
0.0
 40
0
 41
0
  0
VERTEX
  8
0
 10
3.43799
 20
2.463
 30
0.0
 40
0
 41
0
  0
VERTEX
  8
0
 10
3.22358
 20
2.463
 30
0.0
 40
0
 41
0
  0
VERTEX
  8
0
 10
3.22358
 20
2.29492
 30
0.0
 40
0
 41
0
  0
VERTEX
  8
0
 10
3.19162
 20
2.26297
 30
0.0
 40
0
 41
0
  0
VERTEX
  8
0
 10
3.18143
 20
2.27317
 30
0.0
 40
0
 41
0
  0
VERTEX
  8
0
 10
3.13514
 20
2.22689
 30
0.0
 40
0
 41
0
  0
VERTEX
  8
0
 10
3.18143
 20
2.18067
 30
0.0
 40
0
 41
0
  0
VERTEX
  8
0
 10
3.22771
 20
2.22689
 30
0.0
 40
0
 41
0
  0
VERTEX
  8
0
 10
3.21756
 20
2.23703
 30
0.0
 40
0
 41
0
  0
VERTEX
  8
0
 10
3.26025
 20
2.27974
 30
0.0
 40
0
 41
0
  0
VERTEX
  8
0
 10
3.26025
 20
2.42626
 30
0.0
 40
0
 41
0
  0
VERTEX
  8
0
 10
3.40132
 20
2.42626
 30
0.0
 40
0
 41
0
  0
VERTEX
  8
0
 10
3.40132
 20
2.22211
 30
0.0
 40
0
 41
0
  0
VERTEX
  8
0
 10
3.06799
 20
1.88878
 30
0.0
 40
0
 41
0
  0
VERTEX
  8
0
 10
3.06799
 20
1.73579
 30
0.0
 40
0
 41
0
  0
VERTEX
  8
0
 10
2.98139
 20
1.64919
 30
0.0
 40
0
 41
0
  0
VERTEX
  8
0
 10
2.98139
 20
1.51449
 30
0.0
 40
0
 41
0
  0
VERTEX
  8
0
 10
2.96701
 20
1.51449
 30
0.0
 40
0
 41
0
  0
VERTEX
  8
0
 10
2.96701
 20
1.449
 30
0.0
 40
0
 41
0
  0
VERTEX
  8
0
 10
3.03244
 20
1.449
 30
0.0
 40
0
 41
0
  0
VERTEX
  8
0
 10
3.03244
 20
1.51449
 30
0.0
 40
0
 41
0
  0
VERTEX
  8
0
 10
3.01807
 20
1.51449
 30
0.0
 40
0
 41
0
  0
VERTEX
  8
0
 10
3.01807
 20
1.63396
 30
0.0
 40
0
 41
0
  0
VERTEX
  8
0
 10
3.10465
 20
1.7206
 30
0.0
 40
0
 41
0
  0
VERTEX
  8
0
 10
3.10465
 20
1.87354
 30
0.0
 40
0
 41
0
  0
VERTEX
  8
0
 10
3.43799
 20
2.20688
 30
0.0
 40
0
 41
0
  0
SEQEND
 8
0
  0
POLYLINE
  8
0
 62
     3
 66
     1
 10
0
 20
0
 30
0.0
 70
     1
 40
0
 41
0
  0
VERTEX
  8
0
 10
2.685
 20
2.26307
 30
0.0
 40
0
 41
0
  0
VERTEX
  8
0
 10
2.685
 20
2.3226
 30
0.0
 40
0
 41
0
  0
VERTEX
  8
0
 10
2.69937
 20
2.3226
 30
0.0
 40
0
 41
0
  0
VERTEX
  8
0
 10
2.69937
 20
2.38797
 30
0.0
 40
0
 41
0
  0
VERTEX
  8
0
 10
2.63396
 20
2.38797
 30
0.0
 40
0
 41
0
  0
VERTEX
  8
0
 10
2.63396
 20
2.3226
 30
0.0
 40
0
 41
0
  0
VERTEX
  8
0
 10
2.64833
 20
2.3226
 30
0.0
 40
0
 41
0
  0
VERTEX
  8
0
 10
2.64833
 20
2.24789
 30
0.0
 40
0
 41
0
  0
VERTEX
  8
0
 10
2.68647
 20
2.20975
 30
0.0
 40
0
 41
0
  0
VERTEX
  8
0
 10
2.67632
 20
2.19954
 30
0.0
 40
0
 41
0
  0
VERTEX
  8
0
 10
2.72254
 20
2.15326
 30
0.0
 40
0
 41
0
  0
VERTEX
  8
0
 10
2.76882
 20
2.19954
 30
0.0
 40
0
 41
0
  0
VERTEX
  8
0
 10
2.72254
 20
2.24582
 30
0.0
 40
0
 41
0
  0
VERTEX
  8
0
 10
2.7124
 20
2.23568
 30
0.0
 40
0
 41
0
  0
VERTEX
  8
0
 10
2.685
 20
2.26307
 30
0.0
 40
0
 41
0
  0
SEQEND
 8
0
  0
POLYLINE
  8
0
 62
     3
 66
     1
 10
0
 20
0
 30
0.0
 70
     1
 40
0
 41
0
  0
VERTEX
  8
0
 10
3.0191
 20
1.79422
 30
0.0
 40
0
 41
0
  0
VERTEX
  8
0
 10
3.0191
 20
1.91069
 30
0.0
 40
0
 41
0
  0
VERTEX
  8
0
 10
3.11931
 20
2.0109
 30
0.0
 40
0
 41
0
  0
VERTEX
  8
0
 10
3.12944
 20
2.00076
 30
0.0
 40
0
 41
0
  0
VERTEX
  8
0
 10
3.17572
 20
2.04699
 30
0.0
 40
0
 41
0
  0
VERTEX
  8
0
 10
3.12944
 20
2.09326
 30
0.0
 40
0
 41
0
  0
VERTEX
  8
0
 10
3.08311
 20
2.04699
 30
0.0
 40
0
 41
0
  0
VERTEX
  8
0
 10
3.09332
 20
2.03689
 30
0.0
 40
0
 41
0
  0
VERTEX
  8
0
 10
2.98242
 20
1.926
 30
0.0
 40
0
 41
0
  0
VERTEX
  8
0
 10
2.98242
 20
1.79422
 30
0.0
 40
0
 41
0
  0
VERTEX
  8
0
 10
2.96804
 20
1.79422
 30
0.0
 40
0
 41
0
  0
VERTEX
  8
0
 10
2.96804
 20
1.72879
 30
0.0
 40
0
 41
0
  0
VERTEX
  8
0
 10
3.03347
 20
1.72879
 30
0.0
 40
0
 41
0
  0
VERTEX
  8
0
 10
3.03347
 20
1.79422
 30
0.0
 40
0
 41
0
  0
VERTEX
  8
0
 10
3.0191
 20
1.79422
 30
0.0
 40
0
 41
0
  0
SEQEND
 8
0
  0
POLYLINE
  8
0
 62
     3
 66
     1
 10
0
 20
0
 30
0.0
 70
     1
 40
0
 41
0
  0
VERTEX
  8
0
 10
3.21039
 20
2.15696
 30
0.0
 40
0
 41
0
  0
VERTEX
  8
0
 10
3.0855
 20
2.15696
 30
0.0
 40
0
 41
0
  0
VERTEX
  8
0
 10
2.99972
 20
2.07113
 30
0.0
 40
0
 41
0
  0
VERTEX
  8
0
 10
2.77593
 20
2.29497
 30
0.0
 40
0
 41
0
  0
VERTEX
  8
0
 10
2.77593
 20
2.463
 30
0.0
 40
0
 41
0
  0
VERTEX
  8
0
 10
2.5599
 20
2.463
 30
0.0
 40
0
 41
0
  0
VERTEX
  8
0
 10
2.5599
 20
2.20535
 30
0.0
 40
0
 41
0
  0
VERTEX
  8
0
 10
2.66857
 20
2.09674
 30
0.0
 40
0
 41
0
  0
VERTEX
  8
0
 10
2.79807
 20
2.09674
 30
0.0
 40
0
 41
0
  0
VERTEX
  8
0
 10
2.89051
 20
2.00429
 30
0.0
 40
0
 41
0
  0
VERTEX
  8
0
 10
2.88037
 20
1.99414
 30
0.0
 40
0
 41
0
  0
VERTEX
  8
0
 10
2.92665
 20
1.94786
 30
0.0
 40
0
 41
0
  0
VERTEX
  8
0
 10
2.97293
 20
1.99414
 30
0.0
 40
0
 41
0
  0
VERTEX
  8
0
 10
2.92665
 20
2.04042
 30
0.0
 40
0
 41
0
  0
VERTEX
  8
0
 10
2.91644
 20
2.03022
 30
0.0
 40
0
 41
0
  0
VERTEX
  8
0
 10
2.81326
 20
2.13346
 30
0.0
 40
0
 41
0
  0
VERTEX
  8
0
 10
2.68371
 20
2.13346
 30
0.0
 40
0
 41
0
  0
VERTEX
  8
0
 10
2.59668
 20
2.22054
 30
0.0
 40
0
 41
0
  0
VERTEX
  8
0
 10
2.59668
 20
2.42626
 30
0.0
 40
0
 41
0
  0
VERTEX
  8
0
 10
2.73921
 20
2.42626
 30
0.0
 40
0
 41
0
  0
VERTEX
  8
0
 10
2.73921
 20
2.27974
 30
0.0
 40
0
 41
0
  0
VERTEX
  8
0
 10
2.99972
 20
2.01921
 30
0.0
 40
0
 41
0
  0
VERTEX
  8
0
 10
3.10069
 20
2.12022
 30
0.0
 40
0
 41
0
  0
VERTEX
  8
0
 10
3.22575
 20
2.12022
 30
0.0
 40
0
 41
0
  0
VERTEX
  8
0
 10
3.34825
 20
2.24474
 30
0.0
 40
0
 41
0
  0
VERTEX
  8
0
 10
3.34836
 20
2.32254
 30
0.0
 40
0
 41
0
  0
VERTEX
  8
0
 10
3.36268
 20
2.32254
 30
0.0
 40
0
 41
0
  0
VERTEX
  8
0
 10
3.36279
 20
2.38792
 30
0.0
 40
0
 41
0
  0
VERTEX
  8
0
 10
3.29731
 20
2.38807
 30
0.0
 40
0
 41
0
  0
VERTEX
  8
0
 10
3.29731
 20
2.3226
 30
0.0
 40
0
 41
0
  0
VERTEX
  8
0
 10
3.31164
 20
2.32254
 30
0.0
 40
0
 41
0
  0
VERTEX
  8
0
 10
3.31153
 20
2.25976
 30
0.0
 40
0
 41
0
  0
VERTEX
  8
0
 10
3.21039
 20
2.15696
 30
0.0
 40
0
 41
0
  0
SEQEND
 8
0
  0
POLYLINE
  8
0
 62
     3
 66
     1
 10
0
 20
0
 30
0.0
 70
     1
 40
0
 41
0
  0
VERTEX
  8
0
 10
3.08376
 20
0.120171
 30
0.0
 40
0
 41
0
  0
VERTEX
  8
0
 10
3.08376
 20
0.134494
 30
0.0
 40
0
 41
0
  0
VERTEX
  8
0
 10
3.08751
 20
0.134494
 30
0.0
 40
0
 41
0
  0
VERTEX
  8
0
 10
3.21511
 20
0.263292
 30
0.0
 40
0
 41
0
  0
VERTEX
  8
0
 10
3.21511
 20
0.496799
 30
0.0
 40
0
 41
0
  0
VERTEX
  8
0
 10
3.19075
 20
0.522136
 30
0.0
 40
0
 41
0
  0
VERTEX
  8
0
 10
3.20111
 20
0.532118
 30
0.0
 40
0
 41
0
  0
VERTEX
  8
0
 10
3.15588
 20
0.579318
 30
0.0
 40
0
 41
0
  0
VERTEX
  8
0
 10
3.10861
 20
0.534017
 30
0.0
 40
0
 41
0
  0
VERTEX
  8
0
 10
3.15392
 20
0.486817
 30
0.0
 40
0
 41
0
  0
VERTEX
  8
0
 10
3.16428
 20
0.496744
 30
0.0
 40
0
 41
0
  0
VERTEX
  8
0
 10
3.17839
 20
0.481987
 30
0.0
 40
0
 41
0
  0
VERTEX
  8
0
 10
3.17839
 20
0.278429
 30
0.0
 40
0
 41
0
  0
VERTEX
  8
0
 10
3.08376
 20
0.182889
 30
0.0
 40
0
 41
0
  0
VERTEX
  8
0
 10
3.08376
 20
0.185601
 30
0.0
 40
0
 41
0
  0
VERTEX
  8
0
 10
3.01833
 20
0.185601
 30
0.0
 40
0
 41
0
  0
VERTEX
  8
0
 10
3.01833
 20
0.120171
 30
0.0
 40
0
 41
0
  0
VERTEX
  8
0
 10
3.08376
 20
0.120171
 30
0.0
 40
0
 41
0
  0
SEQEND
 8
0
  0
POLYLINE
  8
0
 62
     3
 66
     1
 10
0
 20
0
 30
0.0
 70
     1
 40
0
 41
0
  0
VERTEX
  8
0
 10
3.09244
 20
1.05648
 30
0.0
 40
0
 41
0
  0
VERTEX
  8
0
 10
2.51215
 20
1.05648
 30
0.0
 40
0
 41
0
  0
VERTEX
  8
0
 10
2.51215
 20
0.669325
 30
0.0
 40
0
 41
0
  0
VERTEX
  8
0
 10
2.71029
 20
0.669325
 30
0.0
 40
0
 41
0
  0
VERTEX
  8
0
 10
2.71029
 20
0.654949
 30
0.0
 40
0
 41
0
  0
VERTEX
  8
0
 10
2.77572
 20
0.654949
 30
0.0
 40
0
 41
0
  0
VERTEX
  8
0
 10
2.77572
 20
0.720432
 30
0.0
 40
0
 41
0
  0
VERTEX
  8
0
 10
2.71029
 20
0.720432
 30
0.0
 40
0
 41
0
  0
VERTEX
  8
0
 10
2.71029
 20
0.706
 30
0.0
 40
0
 41
0
  0
VERTEX
  8
0
 10
2.54883
 20
0.706
 30
0.0
 40
0
 41
0
  0
VERTEX
  8
0
 10
2.54883
 20
1.01975
 30
0.0
 40
0
 41
0
  0
VERTEX
  8
0
 10
3.07726
 20
1.01975
 30
0.0
 40
0
 41
0
  0
VERTEX
  8
0
 10
3.17839
 20
0.918619
 30
0.0
 40
0
 41
0
  0
VERTEX
  8
0
 10
3.17839
 20
0.714193
 30
0.0
 40
0
 41
0
  0
VERTEX
  8
0
 10
3.07443
 20
0.616754
 30
0.0
 40
0
 41
0
  0
VERTEX
  8
0
 10
2.88238
 20
0.616428
 30
0.0
 40
0
 41
0
  0
VERTEX
  8
0
 10
2.78103
 20
0.526856
 30
0.0
 40
0
 41
0
  0
VERTEX
  8
0
 10
2.60449
 20
0.526856
 30
0.0
 40
0
 41
0
  0
VERTEX
  8
0
 10
2.60449
 20
0.225586
 30
0.0
 40
0
 41
0
  0
VERTEX
  8
0
 10
3.05669
 20
0.232747
 30
0.0
 40
0
 41
0
  0
VERTEX
  8
0
 10
3.13297
 20
0.308974
 30
0.0
 40
0
 41
0
  0
VERTEX
  8
0
 10
3.13519
 20
0.448242
 30
0.0
 40
0
 41
0
  0
VERTEX
  8
0
 10
3.05658
 20
0.526856
 30
0.0
 40
0
 41
0
  0
VERTEX
  8
0
 10
2.94586
 20
0.526856
 30
0.0
 40
0
 41
0
  0
VERTEX
  8
0
 10
2.94586
 20
0.541178
 30
0.0
 40
0
 41
0
  0
VERTEX
  8
0
 10
2.88043
 20
0.541178
 30
0.0
 40
0
 41
0
  0
VERTEX
  8
0
 10
2.88043
 20
0.475749
 30
0.0
 40
0
 41
0
  0
VERTEX
  8
0
 10
2.94586
 20
0.475749
 30
0.0
 40
0
 41
0
  0
VERTEX
  8
0
 10
2.94586
 20
0.490126
 30
0.0
 40
0
 41
0
  0
VERTEX
  8
0
 10
3.04139
 20
0.490126
 30
0.0
 40
0
 41
0
  0
VERTEX
  8
0
 10
3.09825
 20
0.433214
 30
0.0
 40
0
 41
0
  0
VERTEX
  8
0
 10
3.09651
 20
0.32449
 30
0.0
 40
0
 41
0
  0
VERTEX
  8
0
 10
3.04129
 20
0.269206
 30
0.0
 40
0
 41
0
  0
VERTEX
  8
0
 10
2.64122
 20
0.262913
 30
0.0
 40
0
 41
0
  0
VERTEX
  8
0
 10
2.64122
 20
0.490126
 30
0.0
 40
0
 41
0
  0
VERTEX
  8
0
 10
2.79492
 20
0.490126
 30
0.0
 40
0
 41
0
  0
VERTEX
  8
0
 10
2.89632
 20
0.579753
 30
0.0
 40
0
 41
0
  0
VERTEX
  8
0
 10
3.08897
 20
0.580078
 30
0.0
 40
0
 41
0
  0
VERTEX
  8
0
 10
3.21511
 20
0.698242
 30
0.0
 40
0
 41
0
  0
VERTEX
  8
0
 10
3.21511
 20
0.933811
 30
0.0
 40
0
 41
0
  0
VERTEX
  8
0
 10
3.09244
 20
1.05648
 30
0.0
 40
0
 41
0
  0
SEQEND
 8
0
  0
POLYLINE
  8
0
 62
     3
 66
     1
 10
0
 20
0
 30
0.0
 70
     1
 40
0
 41
0
  0
VERTEX
  8
0
 10
2.54883
 20
0.369032
 30
0.0
 40
0
 41
0
  0
VERTEX
  8
0
 10
2.54883
 20
0.579101
 30
0.0
 40
0
 41
0
  0
VERTEX
  8
0
 10
2.7724
 20
0.579101
 30
0.0
 40
0
 41
0
  0
VERTEX
  8
0
 10
2.87076
 20
0.669325
 30
0.0
 40
0
 41
0
  0
VERTEX
  8
0
 10
3.05632
 20
0.669325
 30
0.0
 40
0
 41
0
  0
VERTEX
  8
0
 10
3.13519
 20
0.743924
 30
0.0
 40
0
 41
0
  0
VERTEX
  8
0
 10
3.13519
 20
0.884928
 30
0.0
 40
0
 41
0
  0
VERTEX
  8
0
 10
3.05658
 20
0.963488
 30
0.0
 40
0
 41
0
  0
VERTEX
  8
0
 10
2.60449
 20
0.963488
 30
0.0
 40
0
 41
0
  0
VERTEX
  8
0
 10
2.60449
 20
0.809463
 30
0.0
 40
0
 41
0
  0
VERTEX
  8
0
 10
2.59011
 20
0.809463
 30
0.0
 40
0
 41
0
  0
VERTEX
  8
0
 10
2.59011
 20
0.743924
 30
0.0
 40
0
 41
0
  0
VERTEX
  8
0
 10
2.65554
 20
0.743924
 30
0.0
 40
0
 41
0
  0
VERTEX
  8
0
 10
2.65554
 20
0.809463
 30
0.0
 40
0
 41
0
  0
VERTEX
  8
0
 10
2.64122
 20
0.809463
 30
0.0
 40
0
 41
0
  0
VERTEX
  8
0
 10
2.64122
 20
0.926758
 30
0.0
 40
0
 41
0
  0
VERTEX
  8
0
 10
3.04139
 20
0.926758
 30
0.0
 40
0
 41
0
  0
VERTEX
  8
0
 10
3.09847
 20
0.869738
 30
0.0
 40
0
 41
0
  0
VERTEX
  8
0
 10
3.09847
 20
0.759765
 30
0.0
 40
0
 41
0
  0
VERTEX
  8
0
 10
3.04172
 20
0.706
 30
0.0
 40
0
 41
0
  0
VERTEX
  8
0
 10
2.8565
 20
0.706
 30
0.0
 40
0
 41
0
  0
VERTEX
  8
0
 10
2.75814
 20
0.615831
 30
0.0
 40
0
 41
0
  0
VERTEX
  8
0
 10
2.51215
 20
0.615831
 30
0.0
 40
0
 41
0
  0
VERTEX
  8
0
 10
2.51215
 20
0.369032
 30
0.0
 40
0
 41
0
  0
VERTEX
  8
0
 10
2.49778
 20
0.369032
 30
0.0
 40
0
 41
0
  0
VERTEX
  8
0
 10
2.49778
 20
0.303603
 30
0.0
 40
0
 41
0
  0
VERTEX
  8
0
 10
2.56321
 20
0.303603
 30
0.0
 40
0
 41
0
  0
VERTEX
  8
0
 10
2.56321
 20
0.369032
 30
0.0
 40
0
 41
0
  0
VERTEX
  8
0
 10
2.54883
 20
0.369032
 30
0.0
 40
0
 41
0
  0
SEQEND
 8
0
  0
POLYLINE
  8
0
 62
     3
 66
     1
 10
0
 20
0
 30
0.0
 70
     1
 40
0
 41
0
  0
VERTEX
  8
0
 10
3.13108
 20
1.14274
 30
0.0
 40
0
 41
0
  0
VERTEX
  8
0
 10
2.72738
 20
1.14274
 30
0.0
 40
0
 41
0
  0
VERTEX
  8
0
 10
2.72738
 20
1.15712
 30
0.0
 40
0
 41
0
  0
VERTEX
  8
0
 10
2.66189
 20
1.15712
 30
0.0
 40
0
 41
0
  0
VERTEX
  8
0
 10
2.66189
 20
1.09169
 30
0.0
 40
0
 41
0
  0
VERTEX
  8
0
 10
2.72738
 20
1.09169
 30
0.0
 40
0
 41
0
  0
VERTEX
  8
0
 10
2.72738
 20
1.10607
 30
0.0
 40
0
 41
0
  0
VERTEX
  8
0
 10
3.11583
 20
1.10607
 30
0.0
 40
0
 41
0
  0
VERTEX
  8
0
 10
3.26807
 20
0.953831
 30
0.0
 40
0
 41
0
  0
VERTEX
  8
0
 10
3.26807
 20
0.912597
 30
0.0
 40
0
 41
0
  0
VERTEX
  8
0
 10
3.25369
 20
0.912597
 30
0.0
 40
0
 41
0
  0
VERTEX
  8
0
 10
3.25369
 20
0.847168
 30
0.0
 40
0
 41
0
  0
VERTEX
  8
0
 10
3.31917
 20
0.847168
 30
0.0
 40
0
 41
0
  0
VERTEX
  8
0
 10
3.31917
 20
0.912597
 30
0.0
 40
0
 41
0
  0
VERTEX
  8
0
 10
3.30479
 20
0.912597
 30
0.0
 40
0
 41
0
  0
VERTEX
  8
0
 10
3.30479
 20
0.969021
 30
0.0
 40
0
 41
0
  0
VERTEX
  8
0
 10
3.13108
 20
1.14274
 30
0.0
 40
0
 41
0
  0
SEQEND
 8
0
  0
POLYLINE
  8
0
 62
     3
 66
     1
 10
0
 20
0
 30
0.0
 70
     1
 40
0
 41
0
  0
VERTEX
  8
0
 10
3.07096
 20
1.56592
 30
0.0
 40
0
 41
0
  0
VERTEX
  8
0
 10
3.07096
 20
1.41032
 30
0.0
 40
0
 41
0
  0
VERTEX
  8
0
 10
2.9285
 20
1.41032
 30
0.0
 40
0
 41
0
  0
VERTEX
  8
0
 10
2.9285
 20
1.88878
 30
0.0
 40
0
 41
0
  0
VERTEX
  8
0
 10
2.80533
 20
2.01187
 30
0.0
 40
0
 41
0
  0
VERTEX
  8
0
 10
2.81549
 20
2.02203
 30
0.0
 40
0
 41
0
  0
VERTEX
  8
0
 10
2.76921
 20
2.06831
 30
0.0
 40
0
 41
0
  0
VERTEX
  8
0
 10
2.72299
 20
2.02203
 30
0.0
 40
0
 41
0
  0
VERTEX
  8
0
 10
2.76921
 20
1.97575
 30
0.0
 40
0
 41
0
  0
VERTEX
  8
0
 10
2.77935
 20
1.98589
 30
0.0
 40
0
 41
0
  0
VERTEX
  8
0
 10
2.89176
 20
1.87354
 30
0.0
 40
0
 41
0
  0
VERTEX
  8
0
 10
2.89176
 20
1.37364
 30
0.0
 40
0
 41
0
  0
VERTEX
  8
0
 10
3.10769
 20
1.37364
 30
0.0
 40
0
 41
0
  0
VERTEX
  8
0
 10
3.10769
 20
1.56592
 30
0.0
 40
0
 41
0
  0
VERTEX
  8
0
 10
3.12207
 20
1.56592
 30
0.0
 40
0
 41
0
  0
VERTEX
  8
0
 10
3.12207
 20
1.63135
 30
0.0
 40
0
 41
0
  0
VERTEX
  8
0
 10
3.05664
 20
1.63135
 30
0.0
 40
0
 41
0
  0
VERTEX
  8
0
 10
3.05664
 20
1.56592
 30
0.0
 40
0
 41
0
  0
VERTEX
  8
0
 10
3.07096
 20
1.56592
 30
0.0
 40
0
 41
0
  0
SEQEND
 8
0
  0
POLYLINE
  8
0
 62
     3
 66
     1
 10
0
 20
0
 30
0.0
 70
     1
 40
0
 41
0
  0
VERTEX
  8
0
 10
2.55599
 20
1.14274
 30
0.0
 40
0
 41
0
  0
VERTEX
  8
0
 10
2.42524
 20
1.14274
 30
0.0
 40
0
 41
0
  0
VERTEX
  8
0
 10
2.42524
 20
0.287815
 30
0.0
 40
0
 41
0
  0
VERTEX
  8
0
 10
2.51232
 20
0.212619
 30
0.0
 40
0
 41
0
  0
VERTEX
  8
0
 10
2.51232
 20
0.134494
 30
0.0
 40
0
 41
0
  0
VERTEX
  8
0
 10
2.93381
 20
0.134494
 30
0.0
 40
0
 41
0
  0
VERTEX
  8
0
 10
3.01421
 20
0.054145
 30
0.0
 40
0
 41
0
  0
VERTEX
  8
0
 10
3.13097
 20
0.054145
 30
0.0
 40
0
 41
0
  0
VERTEX
  8
0
 10
3.30479
 20
0.22716
 30
0.0
 40
0
 41
0
  0
VERTEX
  8
0
 10
3.30479
 20
0.532281
 30
0.0
 40
0
 41
0
  0
VERTEX
  8
0
 10
3.23899
 20
0.598036
 30
0.0
 40
0
 41
0
  0
VERTEX
  8
0
 10
3.30479
 20
0.663846
 30
0.0
 40
0
 41
0
  0
VERTEX
  8
0
 10
3.30479
 20
0.738661
 30
0.0
 40
0
 41
0
  0
VERTEX
  8
0
 10
3.31917
 20
0.738661
 30
0.0
 40
0
 41
0
  0
VERTEX
  8
0
 10
3.31917
 20
0.80409
 30
0.0
 40
0
 41
0
  0
VERTEX
  8
0
 10
3.25369
 20
0.80409
 30
0.0
 40
0
 41
0
  0
VERTEX
  8
0
 10
3.25369
 20
0.738661
 30
0.0
 40
0
 41
0
  0
VERTEX
  8
0
 10
3.26807
 20
0.738661
 30
0.0
 40
0
 41
0
  0
VERTEX
  8
0
 10
3.26807
 20
0.67909
 30
0.0
 40
0
 41
0
  0
VERTEX
  8
0
 10
3.18707
 20
0.598036
 30
0.0
 40
0
 41
0
  0
VERTEX
  8
0
 10
3.26807
 20
0.51709
 30
0.0
 40
0
 41
0
  0
VERTEX
  8
0
 10
3.26807
 20
0.242458
 30
0.0
 40
0
 41
0
  0
VERTEX
  8
0
 10
3.11583
 20
0.0908203
 30
0.0
 40
0
 41
0
  0
VERTEX
  8
0
 10
3.0294
 20
0.0908203
 30
0.0
 40
0
 41
0
  0
VERTEX
  8
0
 10
2.949
 20
0.171224
 30
0.0
 40
0
 41
0
  0
VERTEX
  8
0
 10
2.54899
 20
0.171224
 30
0.0
 40
0
 41
0
  0
VERTEX
  8
0
 10
2.54899
 20
0.229383
 30
0.0
 40
0
 41
0
  0
VERTEX
  8
0
 10
2.46197
 20
0.304579
 30
0.0
 40
0
 41
0
  0
VERTEX
  8
0
 10
2.46197
 20
1.10607
 30
0.0
 40
0
 41
0
  0
VERTEX
  8
0
 10
2.55599
 20
1.10607
 30
0.0
 40
0
 41
0
  0
VERTEX
  8
0
 10
2.55599
 20
1.09169
 30
0.0
 40
0
 41
0
  0
VERTEX
  8
0
 10
2.62147
 20
1.09169
 30
0.0
 40
0
 41
0
  0
VERTEX
  8
0
 10
2.62147
 20
1.15712
 30
0.0
 40
0
 41
0
  0
VERTEX
  8
0
 10
2.55599
 20
1.15712
 30
0.0
 40
0
 41
0
  0
VERTEX
  8
0
 10
2.55599
 20
1.14274
 30
0.0
 40
0
 41
0
  0
SEQEND
 8
0
  0
POLYLINE
  8
0
 62
     3
 66
     1
 10
0
 20
0
 30
0.0
 70
     1
 40
0
 41
0
  0
VERTEX
  8
0
 10
2.47635
 20
0.210504
 30
0.0
 40
0
 41
0
  0
VERTEX
  8
0
 10
2.41092
 20
0.210504
 30
0.0
 40
0
 41
0
  0
VERTEX
  8
0
 10
2.41092
 20
0.145074
 30
0.0
 40
0
 41
0
  0
VERTEX
  8
0
 10
2.42524
 20
0.145074
 30
0.0
 40
0
 41
0
  0
VERTEX
  8
0
 10
2.42524
 20
0.0533854
 30
0.0
 40
0
 41
0
  0
VERTEX
  8
0
 10
2.85021
 20
0.0533854
 30
0.0
 40
0
 41
0
  0
VERTEX
  8
0
 10
2.85021
 20
0.0390625
 30
0.0
 40
0
 41
0
  0
VERTEX
  8
0
 10
2.91564
 20
0.0390625
 30
0.0
 40
0
 41
0
  0
VERTEX
  8
0
 10
2.91564
 20
0.104492
 30
0.0
 40
0
 41
0
  0
VERTEX
  8
0
 10
2.85021
 20
0.104492
 30
0.0
 40
0
 41
0
  0
VERTEX
  8
0
 10
2.85021
 20
0.090115
 30
0.0
 40
0
 41
0
  0
VERTEX
  8
0
 10
2.46197
 20
0.090115
 30
0.0
 40
0
 41
0
  0
VERTEX
  8
0
 10
2.46197
 20
0.145074
 30
0.0
 40
0
 41
0
  0
VERTEX
  8
0
 10
2.47635
 20
0.145074
 30
0.0
 40
0
 41
0
  0
VERTEX
  8
0
 10
2.47635
 20
0.210504
 30
0.0
 40
0
 41
0
  0
SEQEND
 8
0
  0
POLYLINE
  8
0
 62
     3
 66
     1
 10
0
 20
0
 30
0.0
 70
     1
 40
0
 41
0
  0
VERTEX
  8
0
 10
2.08442
 20
2.32368
 30
0.0
 40
0
 41
0
  0
VERTEX
  8
0
 10
2.08442
 20
2.33811
 30
0.0
 40
0
 41
0
  0
VERTEX
  8
0
 10
2.20904
 20
2.33811
 30
0.0
 40
0
 41
0
  0
VERTEX
  8
0
 10
2.20904
 20
2.32368
 30
0.0
 40
0
 41
0
  0
VERTEX
  8
0
 10
2.27447
 20
2.32368
 30
0.0
 40
0
 41
0
  0
VERTEX
  8
0
 10
2.27447
 20
2.38917
 30
0.0
 40
0
 41
0
  0
VERTEX
  8
0
 10
2.20904
 20
2.38917
 30
0.0
 40
0
 41
0
  0
VERTEX
  8
0
 10
2.20904
 20
2.37478
 30
0.0
 40
0
 41
0
  0
VERTEX
  8
0
 10
2.08442
 20
2.37478
 30
0.0
 40
0
 41
0
  0
VERTEX
  8
0
 10
2.08442
 20
2.38917
 30
0.0
 40
0
 41
0
  0
VERTEX
  8
0
 10
2.01899
 20
2.38917
 30
0.0
 40
0
 41
0
  0
VERTEX
  8
0
 10
2.01899
 20
2.32368
 30
0.0
 40
0
 41
0
  0
VERTEX
  8
0
 10
2.08442
 20
2.32368
 30
0.0
 40
0
 41
0
  0
SEQEND
 8
0
  0
POLYLINE
  8
0
 62
     3
 66
     1
 10
0
 20
0
 30
0.0
 70
     1
 40
0
 41
0
  0
VERTEX
  8
0
 10
1.92774
 20
1.80322
 30
0.0
 40
0
 41
0
  0
VERTEX
  8
0
 10
1.92774
 20
1.50792
 30
0.0
 40
0
 41
0
  0
VERTEX
  8
0
 10
1.91336
 20
1.50792
 30
0.0
 40
0
 41
0
  0
VERTEX
  8
0
 10
1.91336
 20
1.44254
 30
0.0
 40
0
 41
0
  0
VERTEX
  8
0
 10
1.97879
 20
1.44254
 30
0.0
 40
0
 41
0
  0
VERTEX
  8
0
 10
1.97879
 20
1.50792
 30
0.0
 40
0
 41
0
  0
VERTEX
  8
0
 10
1.96442
 20
1.50792
 30
0.0
 40
0
 41
0
  0
VERTEX
  8
0
 10
1.96442
 20
1.80322
 30
0.0
 40
0
 41
0
  0
VERTEX
  8
0
 10
1.97879
 20
1.80322
 30
0.0
 40
0
 41
0
  0
VERTEX
  8
0
 10
1.97879
 20
1.86865
 30
0.0
 40
0
 41
0
  0
VERTEX
  8
0
 10
1.91336
 20
1.86865
 30
0.0
 40
0
 41
0
  0
VERTEX
  8
0
 10
1.91336
 20
1.80322
 30
0.0
 40
0
 41
0
  0
VERTEX
  8
0
 10
1.92774
 20
1.80322
 30
0.0
 40
0
 41
0
  0
SEQEND
 8
0
  0
POLYLINE
  8
0
 62
     3
 66
     1
 10
0
 20
0
 30
0.0
 70
     1
 40
0
 41
0
  0
VERTEX
  8
0
 10
2.05404
 20
2.24707
 30
0.0
 40
0
 41
0
  0
VERTEX
  8
0
 10
2.35092
 20
2.24707
 30
0.0
 40
0
 41
0
  0
VERTEX
  8
0
 10
2.35092
 20
2.463
 30
0.0
 40
0
 41
0
  0
VERTEX
  8
0
 10
1.54124
 20
2.463
 30
0.0
 40
0
 41
0
  0
VERTEX
  8
0
 10
1.54124
 20
2.24707
 30
0.0
 40
0
 41
0
  0
VERTEX
  8
0
 10
1.83811
 20
2.24707
 30
0.0
 40
0
 41
0
  0
VERTEX
  8
0
 10
1.83811
 20
1.37364
 30
0.0
 40
0
 41
0
  0
VERTEX
  8
0
 10
2.05404
 20
1.37364
 30
0.0
 40
0
 41
0
  0
VERTEX
  8
0
 10
2.05404
 20
1.87468
 30
0.0
 40
0
 41
0
  0
VERTEX
  8
0
 10
1.96446
 20
1.96419
 30
0.0
 40
0
 41
0
  0
VERTEX
  8
0
 10
1.96446
 20
2.37478
 30
0.0
 40
0
 41
0
  0
VERTEX
  8
0
 10
1.67925
 20
2.37478
 30
0.0
 40
0
 41
0
  0
VERTEX
  8
0
 10
1.67925
 20
2.38917
 30
0.0
 40
0
 41
0
  0
VERTEX
  8
0
 10
1.61376
 20
2.38917
 30
0.0
 40
0
 41
0
  0
VERTEX
  8
0
 10
1.61376
 20
2.32368
 30
0.0
 40
0
 41
0
  0
VERTEX
  8
0
 10
1.67925
 20
2.32368
 30
0.0
 40
0
 41
0
  0
VERTEX
  8
0
 10
1.67925
 20
2.33811
 30
0.0
 40
0
 41
0
  0
VERTEX
  8
0
 10
1.92774
 20
2.33811
 30
0.0
 40
0
 41
0
  0
VERTEX
  8
0
 10
1.92774
 20
1.94894
 30
0.0
 40
0
 41
0
  0
VERTEX
  8
0
 10
2.01731
 20
1.85943
 30
0.0
 40
0
 41
0
  0
VERTEX
  8
0
 10
2.01731
 20
1.41032
 30
0.0
 40
0
 41
0
  0
VERTEX
  8
0
 10
1.87483
 20
1.41032
 30
0.0
 40
0
 41
0
  0
VERTEX
  8
0
 10
1.87483
 20
2.28375
 30
0.0
 40
0
 41
0
  0
VERTEX
  8
0
 10
1.5779
 20
2.28375
 30
0.0
 40
0
 41
0
  0
VERTEX
  8
0
 10
1.5779
 20
2.42626
 30
0.0
 40
0
 41
0
  0
VERTEX
  8
0
 10
2.31424
 20
2.42626
 30
0.0
 40
0
 41
0
  0
VERTEX
  8
0
 10
2.31424
 20
2.28375
 30
0.0
 40
0
 41
0
  0
VERTEX
  8
0
 10
2.01731
 20
2.28375
 30
0.0
 40
0
 41
0
  0
VERTEX
  8
0
 10
2.01731
 20
2.02935
 30
0.0
 40
0
 41
0
  0
VERTEX
  8
0
 10
2.00299
 20
2.02935
 30
0.0
 40
0
 41
0
  0
VERTEX
  8
0
 10
2.00299
 20
1.96382
 30
0.0
 40
0
 41
0
  0
VERTEX
  8
0
 10
2.06842
 20
1.96382
 30
0.0
 40
0
 41
0
  0
VERTEX
  8
0
 10
2.06842
 20
2.02935
 30
0.0
 40
0
 41
0
  0
VERTEX
  8
0
 10
2.05404
 20
2.02935
 30
0.0
 40
0
 41
0
  0
VERTEX
  8
0
 10
2.05404
 20
2.24707
 30
0.0
 40
0
 41
0
  0
SEQEND
 8
0
  0
POLYLINE
  8
0
 62
     3
 66
     1
 10
0
 20
0
 30
0.0
 70
     1
 40
0
 41
0
  0
VERTEX
  8
0
 10
1.86464
 20
1.06646
 30
0.0
 40
0
 41
0
  0
VERTEX
  8
0
 10
1.79915
 20
1.06646
 30
0.0
 40
0
 41
0
  0
VERTEX
  8
0
 10
1.79915
 20
1.00103
 30
0.0
 40
0
 41
0
  0
VERTEX
  8
0
 10
1.86464
 20
1.00103
 30
0.0
 40
0
 41
0
  0
VERTEX
  8
0
 10
1.86464
 20
1.01535
 30
0.0
 40
0
 41
0
  0
VERTEX
  8
0
 10
1.90533
 20
1.01535
 30
0.0
 40
0
 41
0
  0
VERTEX
  8
0
 10
2.05197
 20
0.868707
 30
0.0
 40
0
 41
0
  0
VERTEX
  8
0
 10
2.05197
 20
0.62321
 30
0.0
 40
0
 41
0
  0
VERTEX
  8
0
 10
2.03765
 20
0.62321
 30
0.0
 40
0
 41
0
  0
VERTEX
  8
0
 10
2.03765
 20
0.557781
 30
0.0
 40
0
 41
0
  0
VERTEX
  8
0
 10
2.10308
 20
0.557781
 30
0.0
 40
0
 41
0
  0
VERTEX
  8
0
 10
2.10308
 20
0.62321
 30
0.0
 40
0
 41
0
  0
VERTEX
  8
0
 10
2.08871
 20
0.62321
 30
0.0
 40
0
 41
0
  0
VERTEX
  8
0
 10
2.08871
 20
0.883951
 30
0.0
 40
0
 41
0
  0
VERTEX
  8
0
 10
1.92051
 20
1.05208
 30
0.0
 40
0
 41
0
  0
VERTEX
  8
0
 10
1.86464
 20
1.05208
 30
0.0
 40
0
 41
0
  0
VERTEX
  8
0
 10
1.86464
 20
1.06646
 30
0.0
 40
0
 41
0
  0
SEQEND
 8
0
  0
POLYLINE
  8
0
 62
     3
 66
     1
 10
0
 20
0
 30
0.0
 70
     1
 40
0
 41
0
  0
VERTEX
  8
0
 10
1.53347
 20
1.05208
 30
0.0
 40
0
 41
0
  0
VERTEX
  8
0
 10
1.35758
 20
0.876193
 30
0.0
 40
0
 41
0
  0
VERTEX
  8
0
 10
1.35758
 20
0.466635
 30
0.0
 40
0
 41
0
  0
VERTEX
  8
0
 10
1.5345
 20
0.466635
 30
0.0
 40
0
 41
0
  0
VERTEX
  8
0
 10
1.5345
 20
0.452311
 30
0.0
 40
0
 41
0
  0
VERTEX
  8
0
 10
1.59988
 20
0.452311
 30
0.0
 40
0
 41
0
  0
VERTEX
  8
0
 10
1.59988
 20
0.517796
 30
0.0
 40
0
 41
0
  0
VERTEX
  8
0
 10
1.5345
 20
0.517796
 30
0.0
 40
0
 41
0
  0
VERTEX
  8
0
 10
1.5345
 20
0.503364
 30
0.0
 40
0
 41
0
  0
VERTEX
  8
0
 10
1.39432
 20
0.503364
 30
0.0
 40
0
 41
0
  0
VERTEX
  8
0
 10
1.39432
 20
0.860949
 30
0.0
 40
0
 41
0
  0
VERTEX
  8
0
 10
1.54867
 20
1.01535
 30
0.0
 40
0
 41
0
  0
VERTEX
  8
0
 10
1.69607
 20
1.01535
 30
0.0
 40
0
 41
0
  0
VERTEX
  8
0
 10
1.79058
 20
0.922418
 30
0.0
 40
0
 41
0
  0
VERTEX
  8
0
 10
1.86057
 20
0.922418
 30
0.0
 40
0
 41
0
  0
VERTEX
  8
0
 10
1.96332
 20
0.819661
 30
0.0
 40
0
 41
0
  0
VERTEX
  8
0
 10
1.96332
 20
0.591092
 30
0.0
 40
0
 41
0
  0
VERTEX
  8
0
 10
1.48508
 20
0.591092
 30
0.0
 40
0
 41
0
  0
VERTEX
  8
0
 10
1.48508
 20
0.819661
 30
0.0
 40
0
 41
0
  0
VERTEX
  8
0
 10
1.58778
 20
0.922418
 30
0.0
 40
0
 41
0
  0
VERTEX
  8
0
 10
1.64546
 20
0.922418
 30
0.0
 40
0
 41
0
  0
VERTEX
  8
0
 10
1.64546
 20
0.908094
 30
0.0
 40
0
 41
0
  0
VERTEX
  8
0
 10
1.71089
 20
0.908094
 30
0.0
 40
0
 41
0
  0
VERTEX
  8
0
 10
1.71089
 20
0.973469
 30
0.0
 40
0
 41
0
  0
VERTEX
  8
0
 10
1.64546
 20
0.973469
 30
0.0
 40
0
 41
0
  0
VERTEX
  8
0
 10
1.64546
 20
0.959147
 30
0.0
 40
0
 41
0
  0
VERTEX
  8
0
 10
1.5726
 20
0.959147
 30
0.0
 40
0
 41
0
  0
VERTEX
  8
0
 10
1.44835
 20
0.834853
 30
0.0
 40
0
 41
0
  0
VERTEX
  8
0
 10
1.44835
 20
0.554363
 30
0.0
 40
0
 41
0
  0
VERTEX
  8
0
 10
2
 20
0.554363
 30
0.0
 40
0
 41
0
  0
VERTEX
  8
0
 10
2
 20
0.834853
 30
0.0
 40
0
 41
0
  0
VERTEX
  8
0
 10
1.87582
 20
0.959147
 30
0.0
 40
0
 41
0
  0
VERTEX
  8
0
 10
1.80567
 20
0.959147
 30
0.0
 40
0
 41
0
  0
VERTEX
  8
0
 10
1.71115
 20
1.05208
 30
0.0
 40
0
 41
0
  0
VERTEX
  8
0
 10
1.53347
 20
1.05208
 30
0.0
 40
0
 41
0
  0
SEQEND
 8
0
  0
POLYLINE
  8
0
 62
     3
 66
     1
 10
0
 20
0
 30
0.0
 70
     1
 40
0
 41
0
  0
VERTEX
  8
0
 10
1.35758
 20
0.344185
 30
0.0
 40
0
 41
0
  0
VERTEX
  8
0
 10
1.35758
 20
0.208279
 30
0.0
 40
0
 41
0
  0
VERTEX
  8
0
 10
1.34321
 20
0.208279
 30
0.0
 40
0
 41
0
  0
VERTEX
  8
0
 10
1.34321
 20
0.14285
 30
0.0
 40
0
 41
0
  0
VERTEX
  8
0
 10
1.40864
 20
0.14285
 30
0.0
 40
0
 41
0
  0
VERTEX
  8
0
 10
1.40864
 20
0.208279
 30
0.0
 40
0
 41
0
  0
VERTEX
  8
0
 10
1.39432
 20
0.208279
 30
0.0
 40
0
 41
0
  0
VERTEX
  8
0
 10
1.39432
 20
0.344185
 30
0.0
 40
0
 41
0
  0
VERTEX
  8
0
 10
1.40864
 20
0.344185
 30
0.0
 40
0
 41
0
  0
VERTEX
  8
0
 10
1.40864
 20
0.409614
 30
0.0
 40
0
 41
0
  0
VERTEX
  8
0
 10
1.34321
 20
0.409614
 30
0.0
 40
0
 41
0
  0
VERTEX
  8
0
 10
1.34321
 20
0.344185
 30
0.0
 40
0
 41
0
  0
VERTEX
  8
0
 10
1.35758
 20
0.344185
 30
0.0
 40
0
 41
0
  0
SEQEND
 8
0
  0
POLYLINE
  8
0
 62
     3
 66
     1
 10
0
 20
0
 30
0.0
 70
     1
 40
0
 41
0
  0
VERTEX
  8
0
 10
1.949
 20
1.14068
 30
0.0
 40
0
 41
0
  0
VERTEX
  8
0
 10
1.49815
 20
1.13856
 30
0.0
 40
0
 41
0
  0
VERTEX
  8
0
 10
1.27002
 20
0.912272
 30
0.0
 40
0
 41
0
  0
VERTEX
  8
0
 10
1.27002
 20
0.0497504
 30
0.0
 40
0
 41
0
  0
VERTEX
  8
0
 10
1.48421
 20
0.0497504
 30
0.0
 40
0
 41
0
  0
VERTEX
  8
0
 10
1.48421
 20
0.374892
 30
0.0
 40
0
 41
0
  0
VERTEX
  8
0
 10
1.63038
 20
0.374892
 30
0.0
 40
0
 41
0
  0
VERTEX
  8
0
 10
1.72911
 20
0.466635
 30
0.0
 40
0
 41
0
  0
VERTEX
  8
0
 10
2.05197
 20
0.466635
 30
0.0
 40
0
 41
0
  0
VERTEX
  8
0
 10
2.05197
 20
0.208279
 30
0.0
 40
0
 41
0
  0
VERTEX
  8
0
 10
2.03765
 20
0.208279
 30
0.0
 40
0
 41
0
  0
VERTEX
  8
0
 10
2.03765
 20
0.14285
 30
0.0
 40
0
 41
0
  0
VERTEX
  8
0
 10
2.10308
 20
0.14285
 30
0.0
 40
0
 41
0
  0
VERTEX
  8
0
 10
2.10308
 20
0.208279
 30
0.0
 40
0
 41
0
  0
VERTEX
  8
0
 10
2.08871
 20
0.208279
 30
0.0
 40
0
 41
0
  0
VERTEX
  8
0
 10
2.08871
 20
0.503364
 30
0.0
 40
0
 41
0
  0
VERTEX
  8
0
 10
1.71468
 20
0.503364
 30
0.0
 40
0
 41
0
  0
VERTEX
  8
0
 10
1.61594
 20
0.411567
 30
0.0
 40
0
 41
0
  0
VERTEX
  8
0
 10
1.44754
 20
0.411567
 30
0.0
 40
0
 41
0
  0
VERTEX
  8
0
 10
1.44754
 20
0.08648
 30
0.0
 40
0
 41
0
  0
VERTEX
  8
0
 10
1.30675
 20
0.08648
 30
0.0
 40
0
 41
0
  0
VERTEX
  8
0
 10
1.30675
 20
0.896972
 30
0.0
 40
0
 41
0
  0
VERTEX
  8
0
 10
1.5134
 20
1.10194
 30
0.0
 40
0
 41
0
  0
VERTEX
  8
0
 10
1.93414
 20
1.1039
 30
0.0
 40
0
 41
0
  0
VERTEX
  8
0
 10
2.12815
 20
0.913629
 30
0.0
 40
0
 41
0
  0
VERTEX
  8
0
 10
2.12815
 20
0.871799
 30
0.0
 40
0
 41
0
  0
VERTEX
  8
0
 10
2.19358
 20
0.871799
 30
0.0
 40
0
 41
0
  0
VERTEX
  8
0
 10
2.19358
 20
0.937283
 30
0.0
 40
0
 41
0
  0
VERTEX
  8
0
 10
2.15642
 20
0.937283
 30
0.0
 40
0
 41
0
  0
VERTEX
  8
0
 10
1.949
 20
1.14068
 30
0.0
 40
0
 41
0
  0
SEQEND
 8
0
  0
POLYLINE
  8
0
 62
     3
 66
     1
 10
0
 20
0
 30
0.0
 70
     1
 40
0
 41
0
  0
VERTEX
  8
0
 10
1.1901
 20
1.81147
 30
0.0
 40
0
 41
0
  0
VERTEX
  8
0
 10
1.1901
 20
1.51406
 30
0.0
 40
0
 41
0
  0
VERTEX
  8
0
 10
1.17573
 20
1.51406
 30
0.0
 40
0
 41
0
  0
VERTEX
  8
0
 10
1.17573
 20
1.44863
 30
0.0
 40
0
 41
0
  0
VERTEX
  8
0
 10
1.24116
 20
1.44863
 30
0.0
 40
0
 41
0
  0
VERTEX
  8
0
 10
1.24116
 20
1.51406
 30
0.0
 40
0
 41
0
  0
VERTEX
  8
0
 10
1.22689
 20
1.51406
 30
0.0
 40
0
 41
0
  0
VERTEX
  8
0
 10
1.22689
 20
1.81147
 30
0.0
 40
0
 41
0
  0
VERTEX
  8
0
 10
1.24116
 20
1.81147
 30
0.0
 40
0
 41
0
  0
VERTEX
  8
0
 10
1.24116
 20
1.87685
 30
0.0
 40
0
 41
0
  0
VERTEX
  8
0
 10
1.17573
 20
1.87685
 30
0.0
 40
0
 41
0
  0
VERTEX
  8
0
 10
1.17573
 20
1.81147
 30
0.0
 40
0
 41
0
  0
VERTEX
  8
0
 10
1.1901
 20
1.81147
 30
0.0
 40
0
 41
0
  0
SEQEND
 8
0
  0
POLYLINE
  8
0
 62
     3
 66
     1
 10
0
 20
0
 30
0.0
 70
     1
 40
0
 41
0
  0
VERTEX
  8
0
 10
1.27365
 20
2.0039
 30
0.0
 40
0
 41
0
  0
VERTEX
  8
0
 10
1.33908
 20
2.0039
 30
0.0
 40
0
 41
0
  0
VERTEX
  8
0
 10
1.33908
 20
2.06933
 30
0.0
 40
0
 41
0
  0
VERTEX
  8
0
 10
1.32465
 20
2.06933
 30
0.0
 40
0
 41
0
  0
VERTEX
  8
0
 10
1.32465
 20
2.463
 30
0.0
 40
0
 41
0
  0
VERTEX
  8
0
 10
1.09793
 20
2.463
 30
0.0
 40
0
 41
0
  0
VERTEX
  8
0
 10
1.09793
 20
1.37364
 30
0.0
 40
0
 41
0
  0
VERTEX
  8
0
 10
1.32465
 20
1.37364
 30
0.0
 40
0
 41
0
  0
VERTEX
  8
0
 10
1.32465
 20
1.88319
 30
0.0
 40
0
 41
0
  0
VERTEX
  8
0
 10
1.22678
 20
1.99257
 30
0.0
 40
0
 41
0
  0
VERTEX
  8
0
 10
1.22689
 20
2.32286
 30
0.0
 40
0
 41
0
  0
VERTEX
  8
0
 10
1.24116
 20
2.32286
 30
0.0
 40
0
 41
0
  0
VERTEX
  8
0
 10
1.24116
 20
2.38835
 30
0.0
 40
0
 41
0
  0
VERTEX
  8
0
 10
1.17573
 20
2.38835
 30
0.0
 40
0
 41
0
  0
VERTEX
  8
0
 10
1.17573
 20
2.32286
 30
0.0
 40
0
 41
0
  0
VERTEX
  8
0
 10
1.1901
 20
2.32286
 30
0.0
 40
0
 41
0
  0
VERTEX
  8
0
 10
1.19005
 20
1.97732
 30
0.0
 40
0
 41
0
  0
VERTEX
  8
0
 10
1.28798
 20
1.86806
 30
0.0
 40
0
 41
0
  0
VERTEX
  8
0
 10
1.28798
 20
1.41032
 30
0.0
 40
0
 41
0
  0
VERTEX
  8
0
 10
1.13466
 20
1.41032
 30
0.0
 40
0
 41
0
  0
VERTEX
  8
0
 10
1.13466
 20
2.42626
 30
0.0
 40
0
 41
0
  0
VERTEX
  8
0
 10
1.28798
 20
2.42626
 30
0.0
 40
0
 41
0
  0
VERTEX
  8
0
 10
1.28798
 20
2.06933
 30
0.0
 40
0
 41
0
  0
VERTEX
  8
0
 10
1.27365
 20
2.06933
 30
0.0
 40
0
 41
0
  0
VERTEX
  8
0
 10
1.27365
 20
2.0039
 30
0.0
 40
0
 41
0
  0
SEQEND
 8
0
  0
POLYLINE
  8
0
 62
     3
 66
     1
 10
0
 20
0
 30
0.0
 70
     1
 40
0
 41
0
  0
VERTEX
  8
0
 10
0.643392
 20
0.118924
 30
0.0
 40
0
 41
0
  0
VERTEX
  8
0
 10
0.643392
 20
0.133355
 30
0.0
 40
0
 41
0
  0
VERTEX
  8
0
 10
0.901258
 20
0.133355
 30
0.0
 40
0
 41
0
  0
VERTEX
  8
0
 10
0.901258
 20
0.118924
 30
0.0
 40
0
 41
0
  0
VERTEX
  8
0
 10
0.966689
 20
0.118924
 30
0.0
 40
0
 41
0
  0
VERTEX
  8
0
 10
0.966689
 20
0.184407
 30
0.0
 40
0
 41
0
  0
VERTEX
  8
0
 10
0.901258
 20
0.184407
 30
0.0
 40
0
 41
0
  0
VERTEX
  8
0
 10
0.901258
 20
0.170031
 30
0.0
 40
0
 41
0
  0
VERTEX
  8
0
 10
0.643392
 20
0.170031
 30
0.0
 40
0
 41
0
  0
VERTEX
  8
0
 10
0.643392
 20
0.184407
 30
0.0
 40
0
 41
0
  0
VERTEX
  8
0
 10
0.577963
 20
0.184407
 30
0.0
 40
0
 41
0
  0
VERTEX
  8
0
 10
0.577963
 20
0.118924
 30
0.0
 40
0
 41
0
  0
VERTEX
  8
0
 10
0.643392
 20
0.118924
 30
0.0
 40
0
 41
0
  0
SEQEND
 8
0
  0
POLYLINE
  8
0
 62
     3
 66
     1
 10
0
 20
0
 30
0.0
 70
     1
 40
0
 41
0
  0
VERTEX
  8
0
 10
0.165636
 20
0.0512696
 30
0.0
 40
0
 41
0
  0
VERTEX
  8
0
 10
1.04432
 20
0.0512696
 30
0.0
 40
0
 41
0
  0
VERTEX
  8
0
 10
1.04432
 20
0.267253
 30
0.0
 40
0
 41
0
  0
VERTEX
  8
0
 10
0.560385
 20
0.267253
 30
0.0
 40
0
 41
0
  0
VERTEX
  8
0
 10
0.468588
 20
0.170031
 30
0.0
 40
0
 41
0
  0
VERTEX
  8
0
 10
0.287651
 20
0.170031
 30
0.0
 40
0
 41
0
  0
VERTEX
  8
0
 10
0.287651
 20
0.429471
 30
0.0
 40
0
 41
0
  0
VERTEX
  8
0
 10
0.302029
 20
0.429471
 30
0.0
 40
0
 41
0
  0
VERTEX
  8
0
 10
0.302029
 20
0.4949
 30
0.0
 40
0
 41
0
  0
VERTEX
  8
0
 10
0.236546
 20
0.4949
 30
0.0
 40
0
 41
0
  0
VERTEX
  8
0
 10
0.236546
 20
0.429471
 30
0.0
 40
0
 41
0
  0
VERTEX
  8
0
 10
0.250976
 20
0.429471
 30
0.0
 40
0
 41
0
  0
VERTEX
  8
0
 10
0.250976
 20
0.133355
 30
0.0
 40
0
 41
0
  0
VERTEX
  8
0
 10
0.484429
 20
0.133355
 30
0.0
 40
0
 41
0
  0
VERTEX
  8
0
 10
0.576172
 20
0.230524
 30
0.0
 40
0
 41
0
  0
VERTEX
  8
0
 10
1.0076
 20
0.230524
 30
0.0
 40
0
 41
0
  0
VERTEX
  8
0
 10
1.0076
 20
0.0879992
 30
0.0
 40
0
 41
0
  0
VERTEX
  8
0
 10
0.202365
 20
0.0879992
 30
0.0
 40
0
 41
0
  0
VERTEX
  8
0
 10
0.202365
 20
0.490886
 30
0.0
 40
0
 41
0
  0
VERTEX
  8
0
 10
0.290474
 20
0.578342
 30
0.0
 40
0
 41
0
  0
VERTEX
  8
0
 10
0.290474
 20
1.00054
 30
0.0
 40
0
 41
0
  0
VERTEX
  8
0
 10
0.304796
 20
1.00054
 30
0.0
 40
0
 41
0
  0
VERTEX
  8
0
 10
0.304796
 20
1.06592
 30
0.0
 40
0
 41
0
  0
VERTEX
  8
0
 10
0.239421
 20
1.06592
 30
0.0
 40
0
 41
0
  0
VERTEX
  8
0
 10
0.239421
 20
1.00054
 30
0.0
 40
0
 41
0
  0
VERTEX
  8
0
 10
0.253797
 20
1.00054
 30
0.0
 40
0
 41
0
  0
VERTEX
  8
0
 10
0.253797
 20
0.593588
 30
0.0
 40
0
 41
0
  0
VERTEX
  8
0
 10
0.165636
 20
0.506131
 30
0.0
 40
0
 41
0
  0
VERTEX
  8
0
 10
0.165636
 20
0.0512696
 30
0.0
 40
0
 41
0
  0
SEQEND
 8
0
  0
POLYLINE
  8
0
 62
     3
 66
     1
 10
0
 20
0
 30
0.0
 70
     1
 40
0
 41
0
  0
VERTEX
  8
0
 10
0.556099
 20
2.32232
 30
0.0
 40
0
 41
0
  0
VERTEX
  8
0
 10
0.556099
 20
2.33669
 30
0.0
 40
0
 41
0
  0
VERTEX
  8
0
 10
0.58176
 20
2.33669
 30
0.0
 40
0
 41
0
  0
VERTEX
  8
0
 10
0.723525
 20
2.19417
 30
0.0
 40
0
 41
0
  0
VERTEX
  8
0
 10
0.717503
 20
2.19417
 30
0.0
 40
0
 41
0
  0
VERTEX
  8
0
 10
0.717503
 20
2.12869
 30
0.0
 40
0
 41
0
  0
VERTEX
  8
0
 10
0.782932
 20
2.12869
 30
0.0
 40
0
 41
0
  0
VERTEX
  8
0
 10
0.782932
 20
2.19417
 30
0.0
 40
0
 41
0
  0
VERTEX
  8
0
 10
0.768554
 20
2.19417
 30
0.0
 40
0
 41
0
  0
VERTEX
  8
0
 10
0.768554
 20
2.20096
 30
0.0
 40
0
 41
0
  0
VERTEX
  8
0
 10
0.597006
 20
2.37343
 30
0.0
 40
0
 41
0
  0
VERTEX
  8
0
 10
0.556099
 20
2.37343
 30
0.0
 40
0
 41
0
  0
VERTEX
  8
0
 10
0.556099
 20
2.38781
 30
0.0
 40
0
 41
0
  0
VERTEX
  8
0
 10
0.490668
 20
2.38781
 30
0.0
 40
0
 41
0
  0
VERTEX
  8
0
 10
0.490668
 20
2.32232
 30
0.0
 40
0
 41
0
  0
VERTEX
  8
0
 10
0.556099
 20
2.32232
 30
0.0
 40
0
 41
0
  0
SEQEND
 8
0
  0
POLYLINE
  8
0
 62
     3
 66
     1
 10
0
 20
0
 30
0.0
 70
     1
 40
0
 41
0
  0
VERTEX
  8
0
 10
0.859429
 20
2.05311
 30
0.0
 40
0
 41
0
  0
VERTEX
  8
0
 10
0.859483
 20
2.23389
 30
0.0
 40
0
 41
0
  0
VERTEX
  8
0
 10
0.630371
 20
2.463
 30
0.0
 40
0
 41
0
  0
VERTEX
  8
0
 10
0.473796
 20
2.463
 30
0.0
 40
0
 41
0
  0
VERTEX
  8
0
 10
0.388943
 20
2.37201
 30
0.0
 40
0
 41
0
  0
VERTEX
  8
0
 10
0.311632
 20
2.37044
 30
0.0
 40
0
 41
0
  0
VERTEX
  8
0
 10
0.139919
 20
2.19868
 30
0.0
 40
0
 41
0
  0
VERTEX
  8
0
 10
0.139919
 20
2.14236
 30
0.0
 40
0
 41
0
  0
VERTEX
  8
0
 10
0.125542
 20
2.14236
 30
0.0
 40
0
 41
0
  0
VERTEX
  8
0
 10
0.125542
 20
2.07688
 30
0.0
 40
0
 41
0
  0
VERTEX
  8
0
 10
0.190972
 20
2.07688
 30
0.0
 40
0
 41
0
  0
VERTEX
  8
0
 10
0.190972
 20
2.14236
 30
0.0
 40
0
 41
0
  0
VERTEX
  8
0
 10
0.176594
 20
2.14236
 30
0.0
 40
0
 41
0
  0
VERTEX
  8
0
 10
0.176594
 20
2.18349
 30
0.0
 40
0
 41
0
  0
VERTEX
  8
0
 10
0.327094
 20
2.33399
 30
0.0
 40
0
 41
0
  0
VERTEX
  8
0
 10
0.405111
 20
2.3355
 30
0.0
 40
0
 41
0
  0
VERTEX
  8
0
 10
0.489746
 20
2.42626
 30
0.0
 40
0
 41
0
  0
VERTEX
  8
0
 10
0.615181
 20
2.42626
 30
0.0
 40
0
 41
0
  0
VERTEX
  8
0
 10
0.8227
 20
2.21875
 30
0.0
 40
0
 41
0
  0
VERTEX
  8
0
 10
0.8227
 20
2.0899
 30
0.0
 40
0
 41
0
  0
VERTEX
  8
0
 10
0.680231
 20
2.0899
 30
0.0
 40
0
 41
0
  0
VERTEX
  8
0
 10
0.680231
 20
2.1595
 30
0.0
 40
0
 41
0
  0
VERTEX
  8
0
 10
0.55599
 20
2.28375
 30
0.0
 40
0
 41
0
  0
VERTEX
  8
0
 10
0.353244
 20
2.28375
 30
0.0
 40
0
 41
0
  0
VERTEX
  8
0
 10
0.229004
 20
2.1595
 30
0.0
 40
0
 41
0
  0
VERTEX
  8
0
 10
0.229004
 20
1.89903
 30
0.0
 40
0
 41
0
  0
VERTEX
  8
0
 10
0.214626
 20
1.89903
 30
0.0
 40
0
 41
0
  0
VERTEX
  8
0
 10
0.214626
 20
1.83361
 30
0.0
 40
0
 41
0
  0
VERTEX
  8
0
 10
0.280057
 20
1.83361
 30
0.0
 40
0
 41
0
  0
VERTEX
  8
0
 10
0.280057
 20
1.89903
 30
0.0
 40
0
 41
0
  0
VERTEX
  8
0
 10
0.265733
 20
1.89903
 30
0.0
 40
0
 41
0
  0
VERTEX
  8
0
 10
0.265733
 20
2.14432
 30
0.0
 40
0
 41
0
  0
VERTEX
  8
0
 10
0.368435
 20
2.24701
 30
0.0
 40
0
 41
0
  0
VERTEX
  8
0
 10
0.540799
 20
2.24701
 30
0.0
 40
0
 41
0
  0
VERTEX
  8
0
 10
0.6435
 20
2.14432
 30
0.0
 40
0
 41
0
  0
VERTEX
  8
0
 10
0.6435
 20
2.05311
 30
0.0
 40
0
 41
0
  0
VERTEX
  8
0
 10
0.859429
 20
2.05311
 30
0.0
 40
0
 41
0
  0
SEQEND
 8
0
  0
POLYLINE
  8
0
 62
     3
 66
     1
 10
0
 20
0
 30
0.0
 70
     1
 40
0
 41
0
  0
VERTEX
  8
0
 10
0.321343
 20
2.41194
 30
0.0
 40
0
 41
0
  0
VERTEX
  8
0
 10
0.386774
 20
2.41194
 30
0.0
 40
0
 41
0
  0
VERTEX
  8
0
 10
0.386774
 20
2.47732
 30
0.0
 40
0
 41
0
  0
VERTEX
  8
0
 10
0.321343
 20
2.47732
 30
0.0
 40
0
 41
0
  0
VERTEX
  8
0
 10
0.321343
 20
2.463
 30
0.0
 40
0
 41
0
  0
VERTEX
  8
0
 10
0.278808
 20
2.463
 30
0.0
 40
0
 41
0
  0
VERTEX
  8
0
 10
0.0497504
 20
2.23389
 30
0.0
 40
0
 41
0
  0
VERTEX
  8
0
 10
0.0497504
 20
2.04297
 30
0.0
 40
0
 41
0
  0
VERTEX
  8
0
 10
0.139919
 20
1.95128
 30
0.0
 40
0
 41
0
  0
VERTEX
  8
0
 10
0.139919
 20
1.63726
 30
0.0
 40
0
 41
0
  0
VERTEX
  8
0
 10
0.319553
 20
1.4591
 30
0.0
 40
0
 41
0
  0
VERTEX
  8
0
 10
0.371799
 20
1.45969
 30
0.0
 40
0
 41
0
  0
VERTEX
  8
0
 10
0.371907
 20
1.44536
 30
0.0
 40
0
 41
0
  0
VERTEX
  8
0
 10
0.437392
 20
1.44596
 30
0.0
 40
0
 41
0
  0
VERTEX
  8
0
 10
0.436849
 20
1.51133
 30
0.0
 40
0
 41
0
  0
VERTEX
  8
0
 10
0.371365
 20
1.51079
 30
0.0
 40
0
 41
0
  0
VERTEX
  8
0
 10
0.371528
 20
1.49636
 30
0.0
 40
0
 41
0
  0
VERTEX
  8
0
 10
0.334526
 20
1.49588
 30
0.0
 40
0
 41
0
  0
VERTEX
  8
0
 10
0.176594
 20
1.65256
 30
0.0
 40
0
 41
0
  0
VERTEX
  8
0
 10
0.176594
 20
1.96631
 30
0.0
 40
0
 41
0
  0
VERTEX
  8
0
 10
0.08648
 20
2.05806
 30
0.0
 40
0
 41
0
  0
VERTEX
  8
0
 10
0.08648
 20
2.21875
 30
0.0
 40
0
 41
0
  0
VERTEX
  8
0
 10
0.294
 20
2.42626
 30
0.0
 40
0
 41
0
  0
VERTEX
  8
0
 10
0.321343
 20
2.42626
 30
0.0
 40
0
 41
0
  0
VERTEX
  8
0
 10
0.321343
 20
2.41194
 30
0.0
 40
0
 41
0
  0
SEQEND
 8
0
  0
POLYLINE
  8
0
 62
     3
 66
     1
 10
0
 20
0
 30
0.0
 70
     1
 40
0
 41
0
  0
VERTEX
  8
0
 10
0.546875
 20
1.44683
 30
0.0
 40
0
 41
0
  0
VERTEX
  8
0
 10
0.546767
 20
1.46138
 30
0.0
 40
0
 41
0
  0
VERTEX
  8
0
 10
0.590007
 20
1.46186
 30
0.0
 40
0
 41
0
  0
VERTEX
  8
0
 10
0.768608
 20
1.64008
 30
0.0
 40
0
 41
0
  0
VERTEX
  8
0
 10
0.768608
 20
1.64019
 30
0.0
 40
0
 41
0
  0
VERTEX
  8
0
 10
0.782932
 20
1.64008
 30
0.0
 40
0
 41
0
  0
VERTEX
  8
0
 10
0.783257
 20
1.70551
 30
0.0
 40
0
 41
0
  0
VERTEX
  8
0
 10
0.717828
 20
1.70583
 30
0.0
 40
0
 41
0
  0
VERTEX
  8
0
 10
0.717503
 20
1.6409
 30
0.0
 40
0
 41
0
  0
VERTEX
  8
0
 10
0.574707
 20
1.49843
 30
0.0
 40
0
 41
0
  0
VERTEX
  8
0
 10
0.546496
 20
1.4981
 30
0.0
 40
0
 41
0
  0
VERTEX
  8
0
 10
0.546386
 20
1.51232
 30
0.0
 40
0
 41
0
  0
VERTEX
  8
0
 10
0.480903
 20
1.51178
 30
0.0
 40
0
 41
0
  0
VERTEX
  8
0
 10
0.481446
 20
1.44635
 30
0.0
 40
0
 41
0
  0
VERTEX
  8
0
 10
0.546875
 20
1.44683
 30
0.0
 40
0
 41
0
  0
SEQEND
 8
0
  0
POLYLINE
  8
0
 62
     3
 66
     1
 10
0
 20
0
 30
0.0
 70
     1
 40
0
 41
0
  0
VERTEX
  8
0
 10
0.100857
 20
1.95882
 30
0.0
 40
0
 41
0
  0
VERTEX
  8
0
 10
0.0353733
 20
1.95882
 30
0.0
 40
0
 41
0
  0
VERTEX
  8
0
 10
0.0353733
 20
1.89333
 30
0.0
 40
0
 41
0
  0
VERTEX
  8
0
 10
0.0497504
 20
1.89333
 30
0.0
 40
0
 41
0
  0
VERTEX
  8
0
 10
0.0497504
 20
1.60271
 30
0.0
 40
0
 41
0
  0
VERTEX
  8
0
 10
0.278808
 20
1.37364
 30
0.0
 40
0
 41
0
  0
VERTEX
  8
0
 10
0.626628
 20
1.37364
 30
0.0
 40
0
 41
0
  0
VERTEX
  8
0
 10
0.859429
 20
1.60265
 30
0.0
 40
0
 41
0
  0
VERTEX
  8
0
 10
0.859429
 20
1.78614
 30
0.0
 40
0
 41
0
  0
VERTEX
  8
0
 10
0.6435
 20
1.78614
 30
0.0
 40
0
 41
0
  0
VERTEX
  8
0
 10
0.6435
 20
1.69233
 30
0.0
 40
0
 41
0
  0
VERTEX
  8
0
 10
0.540799
 20
1.58963
 30
0.0
 40
0
 41
0
  0
VERTEX
  8
0
 10
0.368435
 20
1.58963
 30
0.0
 40
0
 41
0
  0
VERTEX
  8
0
 10
0.265733
 20
1.69233
 30
0.0
 40
0
 41
0
  0
VERTEX
  8
0
 10
0.265733
 20
1.72933
 30
0.0
 40
0
 41
0
  0
VERTEX
  8
0
 10
0.280057
 20
1.72933
 30
0.0
 40
0
 41
0
  0
VERTEX
  8
0
 10
0.280057
 20
1.79476
 30
0.0
 40
0
 41
0
  0
VERTEX
  8
0
 10
0.214626
 20
1.79476
 30
0.0
 40
0
 41
0
  0
VERTEX
  8
0
 10
0.214626
 20
1.72933
 30
0.0
 40
0
 41
0
  0
VERTEX
  8
0
 10
0.229004
 20
1.72933
 30
0.0
 40
0
 41
0
  0
VERTEX
  8
0
 10
0.229004
 20
1.67714
 30
0.0
 40
0
 41
0
  0
VERTEX
  8
0
 10
0.353244
 20
1.5529
 30
0.0
 40
0
 41
0
  0
VERTEX
  8
0
 10
0.55599
 20
1.5529
 30
0.0
 40
0
 41
0
  0
VERTEX
  8
0
 10
0.680231
 20
1.67714
 30
0.0
 40
0
 41
0
  0
VERTEX
  8
0
 10
0.680231
 20
1.74935
 30
0.0
 40
0
 41
0
  0
VERTEX
  8
0
 10
0.8227
 20
1.74935
 30
0.0
 40
0
 41
0
  0
VERTEX
  8
0
 10
0.8227
 20
1.61806
 30
0.0
 40
0
 41
0
  0
VERTEX
  8
0
 10
0.611546
 20
1.41032
 30
0.0
 40
0
 41
0
  0
VERTEX
  8
0
 10
0.294
 20
1.41032
 30
0.0
 40
0
 41
0
  0
VERTEX
  8
0
 10
0.08648
 20
1.61794
 30
0.0
 40
0
 41
0
  0
VERTEX
  8
0
 10
0.08648
 20
1.89333
 30
0.0
 40
0
 41
0
  0
VERTEX
  8
0
 10
0.100857
 20
1.89333
 30
0.0
 40
0
 41
0
  0
VERTEX
  8
0
 10
0.100857
 20
1.95882
 30
0.0
 40
0
 41
0
  0
SEQEND
 8
0
  0
POLYLINE
  8
0
 62
     3
 66
     1
 10
0
 20
0
 30
0.0
 70
     1
 40
0
 41
0
  0
VERTEX
  8
0
 10
0.164768
 20
0.652669
 30
0.0
 40
0
 41
0
  0
VERTEX
  8
0
 10
0.15039
 20
0.652669
 30
0.0
 40
0
 41
0
  0
VERTEX
  8
0
 10
0.15039
 20
0.58724
 30
0.0
 40
0
 41
0
  0
VERTEX
  8
0
 10
0.215875
 20
0.58724
 30
0.0
 40
0
 41
0
  0
VERTEX
  8
0
 10
0.215875
 20
0.652669
 30
0.0
 40
0
 41
0
  0
VERTEX
  8
0
 10
0.201497
 20
0.652669
 30
0.0
 40
0
 41
0
  0
VERTEX
  8
0
 10
0.201497
 20
1.10395
 30
0.0
 40
0
 41
0
  0
VERTEX
  8
0
 10
0.344021
 20
1.10395
 30
0.0
 40
0
 41
0
  0
VERTEX
  8
0
 10
0.344021
 20
0.230524
 30
0.0
 40
0
 41
0
  0
VERTEX
  8
0
 10
0.411079
 20
0.230524
 30
0.0
 40
0
 41
0
  0
VERTEX
  8
0
 10
0.411079
 20
0.2162
 30
0.0
 40
0
 41
0
  0
VERTEX
  8
0
 10
0.476454
 20
0.2162
 30
0.0
 40
0
 41
0
  0
VERTEX
  8
0
 10
0.476454
 20
0.281629
 30
0.0
 40
0
 41
0
  0
VERTEX
  8
0
 10
0.411079
 20
0.281629
 30
0.0
 40
0
 41
0
  0
VERTEX
  8
0
 10
0.411079
 20
0.267253
 30
0.0
 40
0
 41
0
  0
VERTEX
  8
0
 10
0.380697
 20
0.267253
 30
0.0
 40
0
 41
0
  0
VERTEX
  8
0
 10
0.380697
 20
1.14068
 30
0.0
 40
0
 41
0
  0
VERTEX
  8
0
 10
0.164768
 20
1.14068
 30
0.0
 40
0
 41
0
  0
VERTEX
  8
0
 10
0.164768
 20
0.652669
 30
0.0
 40
0
 41
0
  0
SEQEND
 8
0
  0
POLYLINE
  8
0
 62
     3
 66
     1
 10
0
 20
0
 30
0.0
 70
     1
 40
0
 41
0
  0
VERTEX
  8
0
 10
1.77376
 20
0.425999
 30
0.0
 40
0
 41
0
  0
VERTEX
  8
0
 10
1.70833
 20
0.425999
 30
0.0
 40
0
 41
0
  0
VERTEX
  8
0
 10
1.70833
 20
0.360514
 30
0.0
 40
0
 41
0
  0
VERTEX
  8
0
 10
1.77376
 20
0.360514
 30
0.0
 40
0
 41
0
  0
VERTEX
  8
0
 10
1.77376
 20
0.374892
 30
0.0
 40
0
 41
0
  0
VERTEX
  8
0
 10
1.96517
 20
0.374892
 30
0.0
 40
0
 41
0
  0
VERTEX
  8
0
 10
1.96517
 20
0.0497504
 30
0.0
 40
0
 41
0
  0
VERTEX
  8
0
 10
2.17919
 20
0.0497504
 30
0.0
 40
0
 41
0
  0
VERTEX
  8
0
 10
2.17919
 20
0.7602
 30
0.0
 40
0
 41
0
  0
VERTEX
  8
0
 10
2.19358
 20
0.7602
 30
0.0
 40
0
 41
0
  0
VERTEX
  8
0
 10
2.19358
 20
0.825629
 30
0.0
 40
0
 41
0
  0
VERTEX
  8
0
 10
2.12815
 20
0.825629
 30
0.0
 40
0
 41
0
  0
VERTEX
  8
0
 10
2.12815
 20
0.7602
 30
0.0
 40
0
 41
0
  0
VERTEX
  8
0
 10
2.14247
 20
0.7602
 30
0.0
 40
0
 41
0
  0
VERTEX
  8
0
 10
2.14247
 20
0.08648
 30
0.0
 40
0
 41
0
  0
VERTEX
  8
0
 10
2.00185
 20
0.08648
 30
0.0
 40
0
 41
0
  0
VERTEX
  8
0
 10
2.00185
 20
0.411567
 30
0.0
 40
0
 41
0
  0
VERTEX
  8
0
 10
1.77376
 20
0.411567
 30
0.0
 40
0
 41
0
  0
VERTEX
  8
0
 10
1.77376
 20
0.425999
 30
0.0
 40
0
 41
0
  0
SEQEND
 8
0
  0
ENDSEC
  0
EOF
