  0
SECTION
  2
HEADER
  9
$ACADVER
  1
AC1009
  9
$FILLMODE
 70
 0
  9
$SPLFRAME
 70
 1
  9
$EXTMIN
 10
0
 20
0
 30
0.0
  9
$EXTMAX
 10
41.6667
 20
41.6667
 30
0.0
  0
ENDSEC
  0
SECTION
  2
TABLES
  0
TABLE
  2
LAYER
 70
1
  0
LAYER
  2
0
 70
     0
 62
     7
  6
CONTINUOUS
  0
ENDTAB
  0
ENDSEC
  0
SECTION
  2
ENTITIES
  0
POLYLINE
  8
0
 62
     0
 66
     1
 10
0
 20
0
 30
0.0
 70
     1
 40
0
 41
0
  0
VERTEX
  8
0
 10
4.09125
 20
0.831868
 30
0.0
 40
0
 41
0
  0
VERTEX
  8
0
 10
4.09125
 20
0.00254992
 30
0.0
 40
0
 41
0
  0
VERTEX
  8
0
 10
4.4579
 20
0.00287543
 30
0.0
 40
0
 41
0
  0
VERTEX
  8
0
 10
4.4924
 20
0.00287543
 30
0.0
 40
0
 41
0
  0
VERTEX
  8
0
 10
4.4924
 20
0.00287543
 30
0.0
 40
0
 41
0
  0
VERTEX
  8
0
 10
4.6326
 20
0.00303819
 30
0.0
 40
0
 41
0
  0
VERTEX
  8
0
 10
4.77419
 20
0.144043
 30
0.0
 40
0
 41
0
  0
VERTEX
  8
0
 10
4.77419
 20
0.385688
 30
0.0
 40
0
 41
0
  0
VERTEX
  8
0
 10
4.74268
 20
0.41721
 30
0.0
 40
0
 41
0
  0
VERTEX
  8
0
 10
4.77419
 20
0.448731
 30
0.0
 40
0
 41
0
  0
VERTEX
  8
0
 10
4.77419
 20
0.690321
 30
0.0
 40
0
 41
0
  0
VERTEX
  8
0
 10
4.63265
 20
0.831868
 30
0.0
 40
0
 41
0
  0
VERTEX
  8
0
 10
4.09125
 20
0.831868
 30
0.0
 40
0
 41
0
  0
SEQEND
 8
0
  0
POLYLINE
  8
0
 62
     0
 66
     1
 10
0
 20
0
 30
0.0
 70
     1
 40
0
 41
0
  0
VERTEX
  8
0
 10
4.31131
 20
0.611763
 30
0.0
 40
0
 41
0
  0
VERTEX
  8
0
 10
4.54139
 20
0.611763
 30
0.0
 40
0
 41
0
  0
VERTEX
  8
0
 10
4.56087
 20
0.592339
 30
0.0
 40
0
 41
0
  0
VERTEX
  8
0
 10
4.56087
 20
0.544922
 30
0.0
 40
0
 41
0
  0
VERTEX
  8
0
 10
4.54215
 20
0.527235
 30
0.0
 40
0
 41
0
  0
VERTEX
  8
0
 10
4.31131
 20
0.527235
 30
0.0
 40
0
 41
0
  0
VERTEX
  8
0
 10
4.31131
 20
0.611763
 30
0.0
 40
0
 41
0
  0
SEQEND
 8
0
  0
POLYLINE
  8
0
 62
     0
 66
     1
 10
0
 20
0
 30
0.0
 70
     1
 40
0
 41
0
  0
VERTEX
  8
0
 10
4.31131
 20
0.307237
 30
0.0
 40
0
 41
0
  0
VERTEX
  8
0
 10
4.54139
 20
0.307183
 30
0.0
 40
0
 41
0
  0
VERTEX
  8
0
 10
4.56049
 20
0.288086
 30
0.0
 40
0
 41
0
  0
VERTEX
  8
0
 10
4.55974
 20
0.24094
 30
0.0
 40
0
 41
0
  0
VERTEX
  8
0
 10
4.54107
 20
0.222331
 30
0.0
 40
0
 41
0
  0
VERTEX
  8
0
 10
4.31131
 20
0.218642
 30
0.0
 40
0
 41
0
  0
VERTEX
  8
0
 10
4.31131
 20
0.307237
 30
0.0
 40
0
 41
0
  0
SEQEND
 8
0
  0
POLYLINE
  8
0
 62
     0
 66
     1
 10
0
 20
0
 30
0.0
 70
     1
 40
0
 41
0
  0
VERTEX
  8
0
 10
3.45469
 20
0.828885
 30
0.0
 40
0
 41
0
  0
VERTEX
  8
0
 10
3.27522
 20
0.650825
 30
0.0
 40
0
 41
0
  0
VERTEX
  8
0
 10
3.27522
 20
0
 30
0.0
 40
0
 41
0
  0
VERTEX
  8
0
 10
3.49403
 20
0
 30
0.0
 40
0
 41
0
  0
VERTEX
  8
0
 10
3.49403
 20
0.226779
 30
0.0
 40
0
 41
0
  0
VERTEX
  8
0
 10
3.76014
 20
0.226779
 30
0.0
 40
0
 41
0
  0
VERTEX
  8
0
 10
3.76014
 20
0
 30
0.0
 40
0
 41
0
  0
VERTEX
  8
0
 10
3.97885
 20
0
 30
0.0
 40
0
 41
0
  0
VERTEX
  8
0
 10
3.97885
 20
0.655057
 30
0.0
 40
0
 41
0
  0
VERTEX
  8
0
 10
3.79769
 20
0.830458
 30
0.0
 40
0
 41
0
  0
VERTEX
  8
0
 10
3.45469
 20
0.828885
 30
0.0
 40
0
 41
0
  0
SEQEND
 8
0
  0
POLYLINE
  8
0
 62
     0
 66
     1
 10
0
 20
0
 30
0.0
 70
     1
 40
0
 41
0
  0
VERTEX
  8
0
 10
3.49463
 20
0.5574
 30
0.0
 40
0
 41
0
  0
VERTEX
  8
0
 10
3.54606
 20
0.608832
 30
0.0
 40
0
 41
0
  0
VERTEX
  8
0
 10
3.70751
 20
0.608724
 30
0.0
 40
0
 41
0
  0
VERTEX
  8
0
 10
3.75885
 20
0.5574
 30
0.0
 40
0
 41
0
  0
VERTEX
  8
0
 10
3.75885
 20
0.447049
 30
0.0
 40
0
 41
0
  0
VERTEX
  8
0
 10
3.49463
 20
0.447049
 30
0.0
 40
0
 41
0
  0
VERTEX
  8
0
 10
3.49463
 20
0.5574
 30
0.0
 40
0
 41
0
  0
SEQEND
 8
0
  0
POLYLINE
  8
0
 62
     0
 66
     1
 10
0
 20
0
 30
0.0
 70
     1
 40
0
 41
0
  0
VERTEX
  8
0
 10
2.51133
 20
0.830404
 30
0.0
 40
0
 41
0
  0
VERTEX
  8
0
 10
2.51193
 20
0.00108507
 30
0.0
 40
0
 41
0
  0
VERTEX
  8
0
 10
3.19428
 20
0.00108507
 30
0.0
 40
0
 41
0
  0
VERTEX
  8
0
 10
3.19428
 20
0.221192
 30
0.0
 40
0
 41
0
  0
VERTEX
  8
0
 10
2.73139
 20
0.221192
 30
0.0
 40
0
 41
0
  0
VERTEX
  8
0
 10
2.73139
 20
0.830404
 30
0.0
 40
0
 41
0
  0
VERTEX
  8
0
 10
2.51133
 20
0.830404
 30
0.0
 40
0
 41
0
  0
SEQEND
 8
0
  0
POLYLINE
  8
0
 62
     0
 66
     1
 10
0
 20
0
 30
0.0
 70
     1
 40
0
 41
0
  0
VERTEX
  8
0
 10
2.21853
 20
0.830404
 30
0.0
 40
0
 41
0
  0
VERTEX
  8
0
 10
2.21853
 20
0.692383
 30
0.0
 40
0
 41
0
  0
VERTEX
  8
0
 10
2.09706
 20
0.571451
 30
0.0
 40
0
 41
0
  0
VERTEX
  8
0
 10
1.97564
 20
0.692871
 30
0.0
 40
0
 41
0
  0
VERTEX
  8
0
 10
1.97564
 20
0.830404
 30
0.0
 40
0
 41
0
  0
VERTEX
  8
0
 10
1.75558
 20
0.830404
 30
0.0
 40
0
 41
0
  0
VERTEX
  8
0
 10
1.75558
 20
0.601563
 30
0.0
 40
0
 41
0
  0
VERTEX
  8
0
 10
1.98703
 20
0.370117
 30
0.0
 40
0
 41
0
  0
VERTEX
  8
0
 10
1.98703
 20
0.00108507
 30
0.0
 40
0
 41
0
  0
VERTEX
  8
0
 10
2.20708
 20
0.00108507
 30
0.0
 40
0
 41
0
  0
VERTEX
  8
0
 10
2.20497
 20
0.370117
 30
0.0
 40
0
 41
0
  0
VERTEX
  8
0
 10
2.4375
 20
0.602647
 30
0.0
 40
0
 41
0
  0
VERTEX
  8
0
 10
2.4375
 20
0.830404
 30
0.0
 40
0
 41
0
  0
VERTEX
  8
0
 10
2.21853
 20
0.830404
 30
0.0
 40
0
 41
0
  0
SEQEND
 8
0
  0
POLYLINE
  8
0
 62
     0
 66
     1
 10
0
 20
0
 30
0.0
 70
     1
 40
0
 41
0
  0
VERTEX
  8
0
 10
1.04042
 20
0.830404
 30
0.0
 40
0
 41
0
  0
VERTEX
  8
0
 10
1.04042
 20
0.610351
 30
0.0
 40
0
 41
0
  0
VERTEX
  8
0
 10
1.2475
 20
0.610351
 30
0.0
 40
0
 41
0
  0
VERTEX
  8
0
 10
1.2475
 20
0.00108507
 30
0.0
 40
0
 41
0
  0
VERTEX
  8
0
 10
1.46756
 20
0.00108507
 30
0.0
 40
0
 41
0
  0
VERTEX
  8
0
 10
1.46756
 20
0.610351
 30
0.0
 40
0
 41
0
  0
VERTEX
  8
0
 10
1.67458
 20
0.610351
 30
0.0
 40
0
 41
0
  0
VERTEX
  8
0
 10
1.67458
 20
0.830404
 30
0.0
 40
0
 41
0
  0
VERTEX
  8
0
 10
1.04042
 20
0.830404
 30
0.0
 40
0
 41
0
  0
SEQEND
 8
0
  0
POLYLINE
  8
0
 62
     0
 66
     1
 10
0
 20
0
 30
0.0
 70
     1
 40
0
 41
0
  0
VERTEX
  8
0
 10
0.731174
 20
0.830404
 30
0.0
 40
0
 41
0
  0
VERTEX
  8
0
 10
0.731174
 20
0.00108507
 30
0.0
 40
0
 41
0
  0
VERTEX
  8
0
 10
0.958768
 20
0.00108507
 30
0.0
 40
0
 41
0
  0
VERTEX
  8
0
 10
0.958768
 20
0.440756
 30
0.0
 40
0
 41
0
  0
VERTEX
  8
0
 10
0.958768
 20
0.830404
 30
0.0
 40
0
 41
0
  0
VERTEX
  8
0
 10
0.731174
 20
0.830404
 30
0.0
 40
0
 41
0
  0
SEQEND
 8
0
  0
POLYLINE
  8
0
 62
     0
 66
     1
 10
0
 20
0
 30
0.0
 70
     1
 40
0
 41
0
  0
VERTEX
  8
0
 10
0.179525
 20
0.829807
 30
0.0
 40
0
 41
0
  0
VERTEX
  8
0
 10
0
 20
0.650228
 30
0.0
 40
0
 41
0
  0
VERTEX
  8
0
 10
0
 20
0.181207
 30
0.0
 40
0
 41
0
  0
VERTEX
  8
0
 10
0.180122
 20
0.00108507
 30
0.0
 40
0
 41
0
  0
VERTEX
  8
0
 10
0.451335
 20
0.00108507
 30
0.0
 40
0
 41
0
  0
VERTEX
  8
0
 10
0.634224
 20
0.180935
 30
0.0
 40
0
 41
0
  0
VERTEX
  8
0
 10
0.634224
 20
0.358236
 30
0.0
 40
0
 41
0
  0
VERTEX
  8
0
 10
0.414171
 20
0.358236
 30
0.0
 40
0
 41
0
  0
VERTEX
  8
0
 10
0.414171
 20
0.272515
 30
0.0
 40
0
 41
0
  0
VERTEX
  8
0
 10
0.362847
 20
0.221192
 30
0.0
 40
0
 41
0
  0
VERTEX
  8
0
 10
0.271485
 20
0.221192
 30
0.0
 40
0
 41
0
  0
VERTEX
  8
0
 10
0.219726
 20
0.274089
 30
0.0
 40
0
 41
0
  0
VERTEX
  8
0
 10
0.219726
 20
0.366536
 30
0.0
 40
0
 41
0
  0
VERTEX
  8
0
 10
0.220053
 20
0.558974
 30
0.0
 40
0
 41
0
  0
VERTEX
  8
0
 10
0.271376
 20
0.610297
 30
0.0
 40
0
 41
0
  0
VERTEX
  8
0
 10
0.362847
 20
0.610297
 30
0.0
 40
0
 41
0
  0
VERTEX
  8
0
 10
0.414171
 20
0.558974
 30
0.0
 40
0
 41
0
  0
VERTEX
  8
0
 10
0.414171
 20
0.475043
 30
0.0
 40
0
 41
0
  0
VERTEX
  8
0
 10
0.634224
 20
0.475043
 30
0.0
 40
0
 41
0
  0
VERTEX
  8
0
 10
0.634224
 20
0.650228
 30
0.0
 40
0
 41
0
  0
VERTEX
  8
0
 10
0.454101
 20
0.830404
 30
0.0
 40
0
 41
0
  0
VERTEX
  8
0
 10
0.179525
 20
0.829807
 30
0.0
 40
0
 41
0
  0
SEQEND
 8
0
  0
POLYLINE
  8
0
 62
     7
 66
     1
 10
0
 20
0
 30
0.0
 70
     1
 40
0
 41
0
  0
VERTEX
  8
0
 10
4.74951
 20
0.515246
 30
0.0
 40
0
 41
0
  0
VERTEX
  8
0
 10
4.74951
 20
0.560872
 30
0.0
 40
0
 41
0
  0
VERTEX
  8
0
 10
4.70389
 20
0.560872
 30
0.0
 40
0
 41
0
  0
VERTEX
  8
0
 10
4.70389
 20
0.515246
 30
0.0
 40
0
 41
0
  0
VERTEX
  8
0
 10
4.71386
 20
0.515246
 30
0.0
 40
0
 41
0
  0
VERTEX
  8
0
 10
4.71386
 20
0.473687
 30
0.0
 40
0
 41
0
  0
VERTEX
  8
0
 10
4.65739
 20
0.417156
 30
0.0
 40
0
 41
0
  0
VERTEX
  8
0
 10
4.71386
 20
0.360678
 30
0.0
 40
0
 41
0
  0
VERTEX
  8
0
 10
4.71386
 20
0.169108
 30
0.0
 40
0
 41
0
  0
VERTEX
  8
0
 10
4.60769
 20
0.0633681
 30
0.0
 40
0
 41
0
  0
VERTEX
  8
0
 10
4.54742
 20
0.0633681
 30
0.0
 40
0
 41
0
  0
VERTEX
  8
0
 10
4.49132
 20
0.119412
 30
0.0
 40
0
 41
0
  0
VERTEX
  8
0
 10
4.21229
 20
0.119412
 30
0.0
 40
0
 41
0
  0
VERTEX
  8
0
 10
4.21229
 20
0.159993
 30
0.0
 40
0
 41
0
  0
VERTEX
  8
0
 10
4.15158
 20
0.212457
 30
0.0
 40
0
 41
0
  0
VERTEX
  8
0
 10
4.15158
 20
0.771539
 30
0.0
 40
0
 41
0
  0
VERTEX
  8
0
 10
4.21718
 20
0.771539
 30
0.0
 40
0
 41
0
  0
VERTEX
  8
0
 10
4.21718
 20
0.761501
 30
0.0
 40
0
 41
0
  0
VERTEX
  8
0
 10
4.26286
 20
0.761501
 30
0.0
 40
0
 41
0
  0
VERTEX
  8
0
 10
4.26286
 20
0.807129
 30
0.0
 40
0
 41
0
  0
VERTEX
  8
0
 10
4.21718
 20
0.807129
 30
0.0
 40
0
 41
0
  0
VERTEX
  8
0
 10
4.21718
 20
0.797146
 30
0.0
 40
0
 41
0
  0
VERTEX
  8
0
 10
4.12597
 20
0.797146
 30
0.0
 40
0
 41
0
  0
VERTEX
  8
0
 10
4.12597
 20
0.200792
 30
0.0
 40
0
 41
0
  0
VERTEX
  8
0
 10
4.18668
 20
0.148329
 30
0.0
 40
0
 41
0
  0
VERTEX
  8
0
 10
4.18668
 20
0.0938043
 30
0.0
 40
0
 41
0
  0
VERTEX
  8
0
 10
4.48068
 20
0.0938043
 30
0.0
 40
0
 41
0
  0
VERTEX
  8
0
 10
4.53678
 20
0.0377604
 30
0.0
 40
0
 41
0
  0
VERTEX
  8
0
 10
4.61828
 20
0.0377604
 30
0.0
 40
0
 41
0
  0
VERTEX
  8
0
 10
4.73953
 20
0.158475
 30
0.0
 40
0
 41
0
  0
VERTEX
  8
0
 10
4.73953
 20
0.371311
 30
0.0
 40
0
 41
0
  0
VERTEX
  8
0
 10
4.69358
 20
0.417156
 30
0.0
 40
0
 41
0
  0
VERTEX
  8
0
 10
4.73953
 20
0.463108
 30
0.0
 40
0
 41
0
  0
VERTEX
  8
0
 10
4.73953
 20
0.515246
 30
0.0
 40
0
 41
0
  0
VERTEX
  8
0
 10
4.74951
 20
0.515246
 30
0.0
 40
0
 41
0
  0
SEQEND
 8
0
  0
POLYLINE
  8
0
 62
     7
 66
     1
 10
0
 20
0
 30
0.0
 70
     1
 40
0
 41
0
  0
VERTEX
  8
0
 10
4.58535
 20
0.0838217
 30
0.0
 40
0
 41
0
  0
VERTEX
  8
0
 10
4.58535
 20
0.0938043
 30
0.0
 40
0
 41
0
  0
VERTEX
  8
0
 10
4.58789
 20
0.0938043
 30
0.0
 40
0
 41
0
  0
VERTEX
  8
0
 10
4.67692
 20
0.183649
 30
0.0
 40
0
 41
0
  0
VERTEX
  8
0
 10
4.67692
 20
0.346517
 30
0.0
 40
0
 41
0
  0
VERTEX
  8
0
 10
4.65994
 20
0.364204
 30
0.0
 40
0
 41
0
  0
VERTEX
  8
0
 10
4.66721
 20
0.371149
 30
0.0
 40
0
 41
0
  0
VERTEX
  8
0
 10
4.63558
 20
0.404081
 30
0.0
 40
0
 41
0
  0
VERTEX
  8
0
 10
4.60265
 20
0.372504
 30
0.0
 40
0
 41
0
  0
VERTEX
  8
0
 10
4.63422
 20
0.339572
 30
0.0
 40
0
 41
0
  0
VERTEX
  8
0
 10
4.6415
 20
0.346462
 30
0.0
 40
0
 41
0
  0
VERTEX
  8
0
 10
4.65132
 20
0.336208
 30
0.0
 40
0
 41
0
  0
VERTEX
  8
0
 10
4.65132
 20
0.194228
 30
0.0
 40
0
 41
0
  0
VERTEX
  8
0
 10
4.58535
 20
0.127604
 30
0.0
 40
0
 41
0
  0
VERTEX
  8
0
 10
4.58535
 20
0.129503
 30
0.0
 40
0
 41
0
  0
VERTEX
  8
0
 10
4.53971
 20
0.129503
 30
0.0
 40
0
 41
0
  0
VERTEX
  8
0
 10
4.53971
 20
0.0838217
 30
0.0
 40
0
 41
0
  0
VERTEX
  8
0
 10
4.58535
 20
0.0838217
 30
0.0
 40
0
 41
0
  0
SEQEND
 8
0
  0
POLYLINE
  8
0
 62
     7
 66
     1
 10
0
 20
0
 30
0.0
 70
     1
 40
0
 41
0
  0
VERTEX
  8
0
 10
4.59136
 20
0.736979
 30
0.0
 40
0
 41
0
  0
VERTEX
  8
0
 10
4.18658
 20
0.736979
 30
0.0
 40
0
 41
0
  0
VERTEX
  8
0
 10
4.18658
 20
0.466906
 30
0.0
 40
0
 41
0
  0
VERTEX
  8
0
 10
4.32482
 20
0.466906
 30
0.0
 40
0
 41
0
  0
VERTEX
  8
0
 10
4.32482
 20
0.456868
 30
0.0
 40
0
 41
0
  0
VERTEX
  8
0
 10
4.37044
 20
0.456868
 30
0.0
 40
0
 41
0
  0
VERTEX
  8
0
 10
4.37044
 20
0.50255
 30
0.0
 40
0
 41
0
  0
VERTEX
  8
0
 10
4.32482
 20
0.50255
 30
0.0
 40
0
 41
0
  0
VERTEX
  8
0
 10
4.32482
 20
0.492512
 30
0.0
 40
0
 41
0
  0
VERTEX
  8
0
 10
4.21213
 20
0.492512
 30
0.0
 40
0
 41
0
  0
VERTEX
  8
0
 10
4.21213
 20
0.711372
 30
0.0
 40
0
 41
0
  0
VERTEX
  8
0
 10
4.58074
 20
0.711372
 30
0.0
 40
0
 41
0
  0
VERTEX
  8
0
 10
4.65132
 20
0.640788
 30
0.0
 40
0
 41
0
  0
VERTEX
  8
0
 10
4.65132
 20
0.49821
 30
0.0
 40
0
 41
0
  0
VERTEX
  8
0
 10
4.57883
 20
0.430231
 30
0.0
 40
0
 41
0
  0
VERTEX
  8
0
 10
4.44482
 20
0.429958
 30
0.0
 40
0
 41
0
  0
VERTEX
  8
0
 10
4.37414
 20
0.367512
 30
0.0
 40
0
 41
0
  0
VERTEX
  8
0
 10
4.25097
 20
0.367512
 30
0.0
 40
0
 41
0
  0
VERTEX
  8
0
 10
4.25097
 20
0.157389
 30
0.0
 40
0
 41
0
  0
VERTEX
  8
0
 10
4.56646
 20
0.162381
 30
0.0
 40
0
 41
0
  0
VERTEX
  8
0
 10
4.61963
 20
0.215494
 30
0.0
 40
0
 41
0
  0
VERTEX
  8
0
 10
4.62121
 20
0.312662
 30
0.0
 40
0
 41
0
  0
VERTEX
  8
0
 10
4.56635
 20
0.367512
 30
0.0
 40
0
 41
0
  0
VERTEX
  8
0
 10
4.4891
 20
0.367512
 30
0.0
 40
0
 41
0
  0
VERTEX
  8
0
 10
4.4891
 20
0.377496
 30
0.0
 40
0
 41
0
  0
VERTEX
  8
0
 10
4.44347
 20
0.377496
 30
0.0
 40
0
 41
0
  0
VERTEX
  8
0
 10
4.44347
 20
0.331868
 30
0.0
 40
0
 41
0
  0
VERTEX
  8
0
 10
4.4891
 20
0.331868
 30
0.0
 40
0
 41
0
  0
VERTEX
  8
0
 10
4.4891
 20
0.341906
 30
0.0
 40
0
 41
0
  0
VERTEX
  8
0
 10
4.55578
 20
0.341906
 30
0.0
 40
0
 41
0
  0
VERTEX
  8
0
 10
4.59543
 20
0.302192
 30
0.0
 40
0
 41
0
  0
VERTEX
  8
0
 10
4.59424
 20
0.226346
 30
0.0
 40
0
 41
0
  0
VERTEX
  8
0
 10
4.55567
 20
0.187771
 30
0.0
 40
0
 41
0
  0
VERTEX
  8
0
 10
4.27658
 20
0.183431
 30
0.0
 40
0
 41
0
  0
VERTEX
  8
0
 10
4.27658
 20
0.341906
 30
0.0
 40
0
 41
0
  0
VERTEX
  8
0
 10
4.38385
 20
0.341906
 30
0.0
 40
0
 41
0
  0
VERTEX
  8
0
 10
4.45458
 20
0.404406
 30
0.0
 40
0
 41
0
  0
VERTEX
  8
0
 10
4.58897
 20
0.404676
 30
0.0
 40
0
 41
0
  0
VERTEX
  8
0
 10
4.67692
 20
0.487088
 30
0.0
 40
0
 41
0
  0
VERTEX
  8
0
 10
4.67692
 20
0.651367
 30
0.0
 40
0
 41
0
  0
VERTEX
  8
0
 10
4.59136
 20
0.736979
 30
0.0
 40
0
 41
0
  0
SEQEND
 8
0
  0
POLYLINE
  8
0
 62
     7
 66
     1
 10
0
 20
0
 30
0.0
 70
     1
 40
0
 41
0
  0
VERTEX
  8
0
 10
4.21213
 20
0.257433
 30
0.0
 40
0
 41
0
  0
VERTEX
  8
0
 10
4.21213
 20
0.403971
 30
0.0
 40
0
 41
0
  0
VERTEX
  8
0
 10
4.36817
 20
0.403971
 30
0.0
 40
0
 41
0
  0
VERTEX
  8
0
 10
4.43674
 20
0.466906
 30
0.0
 40
0
 41
0
  0
VERTEX
  8
0
 10
4.56614
 20
0.466906
 30
0.0
 40
0
 41
0
  0
VERTEX
  8
0
 10
4.62121
 20
0.518989
 30
0.0
 40
0
 41
0
  0
VERTEX
  8
0
 10
4.62121
 20
0.617296
 30
0.0
 40
0
 41
0
  0
VERTEX
  8
0
 10
4.56635
 20
0.672146
 30
0.0
 40
0
 41
0
  0
VERTEX
  8
0
 10
4.25097
 20
0.672146
 30
0.0
 40
0
 41
0
  0
VERTEX
  8
0
 10
4.25097
 20
0.564671
 30
0.0
 40
0
 41
0
  0
VERTEX
  8
0
 10
4.241
 20
0.564671
 30
0.0
 40
0
 41
0
  0
VERTEX
  8
0
 10
4.241
 20
0.518989
 30
0.0
 40
0
 41
0
  0
VERTEX
  8
0
 10
4.28662
 20
0.518989
 30
0.0
 40
0
 41
0
  0
VERTEX
  8
0
 10
4.28662
 20
0.564671
 30
0.0
 40
0
 41
0
  0
VERTEX
  8
0
 10
4.27658
 20
0.564671
 30
0.0
 40
0
 41
0
  0
VERTEX
  8
0
 10
4.27658
 20
0.646485
 30
0.0
 40
0
 41
0
  0
VERTEX
  8
0
 10
4.55578
 20
0.646485
 30
0.0
 40
0
 41
0
  0
VERTEX
  8
0
 10
4.5956
 20
0.606662
 30
0.0
 40
0
 41
0
  0
VERTEX
  8
0
 10
4.5956
 20
0.530003
 30
0.0
 40
0
 41
0
  0
VERTEX
  8
0
 10
4.55599
 20
0.492512
 30
0.0
 40
0
 41
0
  0
VERTEX
  8
0
 10
4.42676
 20
0.492512
 30
0.0
 40
0
 41
0
  0
VERTEX
  8
0
 10
4.35818
 20
0.429579
 30
0.0
 40
0
 41
0
  0
VERTEX
  8
0
 10
4.18658
 20
0.429579
 30
0.0
 40
0
 41
0
  0
VERTEX
  8
0
 10
4.18658
 20
0.257433
 30
0.0
 40
0
 41
0
  0
VERTEX
  8
0
 10
4.17654
 20
0.257433
 30
0.0
 40
0
 41
0
  0
VERTEX
  8
0
 10
4.17654
 20
0.211751
 30
0.0
 40
0
 41
0
  0
VERTEX
  8
0
 10
4.22217
 20
0.211751
 30
0.0
 40
0
 41
0
  0
VERTEX
  8
0
 10
4.22217
 20
0.257433
 30
0.0
 40
0
 41
0
  0
VERTEX
  8
0
 10
4.21213
 20
0.257433
 30
0.0
 40
0
 41
0
  0
SEQEND
 8
0
  0
POLYLINE
  8
0
 62
     7
 66
     1
 10
0
 20
0
 30
0.0
 70
     1
 40
0
 41
0
  0
VERTEX
  8
0
 10
4.70389
 20
0.590929
 30
0.0
 40
0
 41
0
  0
VERTEX
  8
0
 10
4.74951
 20
0.590929
 30
0.0
 40
0
 41
0
  0
VERTEX
  8
0
 10
4.74951
 20
0.63661
 30
0.0
 40
0
 41
0
  0
VERTEX
  8
0
 10
4.73953
 20
0.63661
 30
0.0
 40
0
 41
0
  0
VERTEX
  8
0
 10
4.73953
 20
0.675944
 30
0.0
 40
0
 41
0
  0
VERTEX
  8
0
 10
4.61828
 20
0.797146
 30
0.0
 40
0
 41
0
  0
VERTEX
  8
0
 10
4.33669
 20
0.797146
 30
0.0
 40
0
 41
0
  0
VERTEX
  8
0
 10
4.33669
 20
0.807129
 30
0.0
 40
0
 41
0
  0
VERTEX
  8
0
 10
4.29107
 20
0.807129
 30
0.0
 40
0
 41
0
  0
VERTEX
  8
0
 10
4.29107
 20
0.761501
 30
0.0
 40
0
 41
0
  0
VERTEX
  8
0
 10
4.33669
 20
0.761501
 30
0.0
 40
0
 41
0
  0
VERTEX
  8
0
 10
4.33669
 20
0.771539
 30
0.0
 40
0
 41
0
  0
VERTEX
  8
0
 10
4.60769
 20
0.771539
 30
0.0
 40
0
 41
0
  0
VERTEX
  8
0
 10
4.71386
 20
0.66531
 30
0.0
 40
0
 41
0
  0
VERTEX
  8
0
 10
4.71386
 20
0.63661
 30
0.0
 40
0
 41
0
  0
VERTEX
  8
0
 10
4.70389
 20
0.63661
 30
0.0
 40
0
 41
0
  0
VERTEX
  8
0
 10
4.70389
 20
0.590929
 30
0.0
 40
0
 41
0
  0
SEQEND
 8
0
  0
POLYLINE
  8
0
 62
     7
 66
     1
 10
0
 20
0
 30
0.0
 70
     1
 40
0
 41
0
  0
VERTEX
  8
0
 10
4.16162
 20
0.146864
 30
0.0
 40
0
 41
0
  0
VERTEX
  8
0
 10
4.116
 20
0.146864
 30
0.0
 40
0
 41
0
  0
VERTEX
  8
0
 10
4.116
 20
0.101183
 30
0.0
 40
0
 41
0
  0
VERTEX
  8
0
 10
4.12597
 20
0.101183
 30
0.0
 40
0
 41
0
  0
VERTEX
  8
0
 10
4.12597
 20
0.0372721
 30
0.0
 40
0
 41
0
  0
VERTEX
  8
0
 10
4.42236
 20
0.0372721
 30
0.0
 40
0
 41
0
  0
VERTEX
  8
0
 10
4.42236
 20
0.0272353
 30
0.0
 40
0
 41
0
  0
VERTEX
  8
0
 10
4.46804
 20
0.0272353
 30
0.0
 40
0
 41
0
  0
VERTEX
  8
0
 10
4.46804
 20
0.0729167
 30
0.0
 40
0
 41
0
  0
VERTEX
  8
0
 10
4.42236
 20
0.0729167
 30
0.0
 40
0
 41
0
  0
VERTEX
  8
0
 10
4.42236
 20
0.0628797
 30
0.0
 40
0
 41
0
  0
VERTEX
  8
0
 10
4.15158
 20
0.0628797
 30
0.0
 40
0
 41
0
  0
VERTEX
  8
0
 10
4.15158
 20
0.101183
 30
0.0
 40
0
 41
0
  0
VERTEX
  8
0
 10
4.16162
 20
0.101183
 30
0.0
 40
0
 41
0
  0
VERTEX
  8
0
 10
4.16162
 20
0.146864
 30
0.0
 40
0
 41
0
  0
SEQEND
 8
0
  0
POLYLINE
  8
0
 62
     7
 66
     1
 10
0
 20
0
 30
0.0
 70
     1
 40
0
 41
0
  0
VERTEX
  8
0
 10
3.94417
 20
0.530274
 30
0.0
 40
0
 41
0
  0
VERTEX
  8
0
 10
3.95415
 20
0.530274
 30
0.0
 40
0
 41
0
  0
VERTEX
  8
0
 10
3.95415
 20
0.575956
 30
0.0
 40
0
 41
0
  0
VERTEX
  8
0
 10
3.90853
 20
0.575956
 30
0.0
 40
0
 41
0
  0
VERTEX
  8
0
 10
3.90853
 20
0.530274
 30
0.0
 40
0
 41
0
  0
VERTEX
  8
0
 10
3.91857
 20
0.530274
 30
0.0
 40
0
 41
0
  0
VERTEX
  8
0
 10
3.91857
 20
0.0602756
 30
0.0
 40
0
 41
0
  0
VERTEX
  8
0
 10
3.82047
 20
0.0602756
 30
0.0
 40
0
 41
0
  0
VERTEX
  8
0
 10
3.82047
 20
0.28711
 30
0.0
 40
0
 41
0
  0
VERTEX
  8
0
 10
3.66129
 20
0.28711
 30
0.0
 40
0
 41
0
  0
VERTEX
  8
0
 10
3.66129
 20
0.297146
 30
0.0
 40
0
 41
0
  0
VERTEX
  8
0
 10
3.61567
 20
0.297146
 30
0.0
 40
0
 41
0
  0
VERTEX
  8
0
 10
3.61567
 20
0.251465
 30
0.0
 40
0
 41
0
  0
VERTEX
  8
0
 10
3.66129
 20
0.251465
 30
0.0
 40
0
 41
0
  0
VERTEX
  8
0
 10
3.66129
 20
0.261501
 30
0.0
 40
0
 41
0
  0
VERTEX
  8
0
 10
3.79482
 20
0.261501
 30
0.0
 40
0
 41
0
  0
VERTEX
  8
0
 10
3.79482
 20
0.0347222
 30
0.0
 40
0
 41
0
  0
VERTEX
  8
0
 10
3.94417
 20
0.0347222
 30
0.0
 40
0
 41
0
  0
VERTEX
  8
0
 10
3.94417
 20
0.530274
 30
0.0
 40
0
 41
0
  0
SEQEND
 8
0
  0
POLYLINE
  8
0
 62
     7
 66
     1
 10
0
 20
0
 30
0.0
 70
     1
 40
0
 41
0
  0
VERTEX
  8
0
 10
3.72472
 20
0.743924
 30
0.0
 40
0
 41
0
  0
VERTEX
  8
0
 10
3.6791
 20
0.743924
 30
0.0
 40
0
 41
0
  0
VERTEX
  8
0
 10
3.6791
 20
0.698242
 30
0.0
 40
0
 41
0
  0
VERTEX
  8
0
 10
3.72472
 20
0.698242
 30
0.0
 40
0
 41
0
  0
VERTEX
  8
0
 10
3.72472
 20
0.708279
 30
0.0
 40
0
 41
0
  0
VERTEX
  8
0
 10
3.7531
 20
0.708279
 30
0.0
 40
0
 41
0
  0
VERTEX
  8
0
 10
3.85542
 20
0.606011
 30
0.0
 40
0
 41
0
  0
VERTEX
  8
0
 10
3.85542
 20
0.434788
 30
0.0
 40
0
 41
0
  0
VERTEX
  8
0
 10
3.84538
 20
0.434788
 30
0.0
 40
0
 41
0
  0
VERTEX
  8
0
 10
3.84538
 20
0.389106
 30
0.0
 40
0
 41
0
  0
VERTEX
  8
0
 10
3.89106
 20
0.389106
 30
0.0
 40
0
 41
0
  0
VERTEX
  8
0
 10
3.89106
 20
0.434788
 30
0.0
 40
0
 41
0
  0
VERTEX
  8
0
 10
3.88103
 20
0.434788
 30
0.0
 40
0
 41
0
  0
VERTEX
  8
0
 10
3.88103
 20
0.61659
 30
0.0
 40
0
 41
0
  0
VERTEX
  8
0
 10
3.76372
 20
0.733886
 30
0.0
 40
0
 41
0
  0
VERTEX
  8
0
 10
3.72472
 20
0.733886
 30
0.0
 40
0
 41
0
  0
VERTEX
  8
0
 10
3.72472
 20
0.743924
 30
0.0
 40
0
 41
0
  0
SEQEND
 8
0
  0
POLYLINE
  8
0
 62
     7
 66
     1
 10
0
 20
0
 30
0.0
 70
     1
 40
0
 41
0
  0
VERTEX
  8
0
 10
3.49376
 20
0.733886
 30
0.0
 40
0
 41
0
  0
VERTEX
  8
0
 10
3.37104
 20
0.611165
 30
0.0
 40
0
 41
0
  0
VERTEX
  8
0
 10
3.37104
 20
0.325521
 30
0.0
 40
0
 41
0
  0
VERTEX
  8
0
 10
3.49442
 20
0.325521
 30
0.0
 40
0
 41
0
  0
VERTEX
  8
0
 10
3.49442
 20
0.315539
 30
0.0
 40
0
 41
0
  0
VERTEX
  8
0
 10
3.5401
 20
0.315539
 30
0.0
 40
0
 41
0
  0
VERTEX
  8
0
 10
3.5401
 20
0.361165
 30
0.0
 40
0
 41
0
  0
VERTEX
  8
0
 10
3.49442
 20
0.361165
 30
0.0
 40
0
 41
0
  0
VERTEX
  8
0
 10
3.49442
 20
0.351129
 30
0.0
 40
0
 41
0
  0
VERTEX
  8
0
 10
3.3966
 20
0.351129
 30
0.0
 40
0
 41
0
  0
VERTEX
  8
0
 10
3.3966
 20
0.600586
 30
0.0
 40
0
 41
0
  0
VERTEX
  8
0
 10
3.50435
 20
0.708279
 30
0.0
 40
0
 41
0
  0
VERTEX
  8
0
 10
3.60715
 20
0.708279
 30
0.0
 40
0
 41
0
  0
VERTEX
  8
0
 10
3.67307
 20
0.643446
 30
0.0
 40
0
 41
0
  0
VERTEX
  8
0
 10
3.7219
 20
0.643446
 30
0.0
 40
0
 41
0
  0
VERTEX
  8
0
 10
3.79357
 20
0.571778
 30
0.0
 40
0
 41
0
  0
VERTEX
  8
0
 10
3.79357
 20
0.412326
 30
0.0
 40
0
 41
0
  0
VERTEX
  8
0
 10
3.45996
 20
0.412326
 30
0.0
 40
0
 41
0
  0
VERTEX
  8
0
 10
3.45996
 20
0.571778
 30
0.0
 40
0
 41
0
  0
VERTEX
  8
0
 10
3.53162
 20
0.643446
 30
0.0
 40
0
 41
0
  0
VERTEX
  8
0
 10
3.57183
 20
0.643446
 30
0.0
 40
0
 41
0
  0
VERTEX
  8
0
 10
3.57183
 20
0.633464
 30
0.0
 40
0
 41
0
  0
VERTEX
  8
0
 10
3.61746
 20
0.633464
 30
0.0
 40
0
 41
0
  0
VERTEX
  8
0
 10
3.61746
 20
0.67909
 30
0.0
 40
0
 41
0
  0
VERTEX
  8
0
 10
3.57183
 20
0.67909
 30
0.0
 40
0
 41
0
  0
VERTEX
  8
0
 10
3.57183
 20
0.669054
 30
0.0
 40
0
 41
0
  0
VERTEX
  8
0
 10
3.521
 20
0.669054
 30
0.0
 40
0
 41
0
  0
VERTEX
  8
0
 10
3.43435
 20
0.582411
 30
0.0
 40
0
 41
0
  0
VERTEX
  8
0
 10
3.43435
 20
0.386719
 30
0.0
 40
0
 41
0
  0
VERTEX
  8
0
 10
3.81917
 20
0.386719
 30
0.0
 40
0
 41
0
  0
VERTEX
  8
0
 10
3.81917
 20
0.582411
 30
0.0
 40
0
 41
0
  0
VERTEX
  8
0
 10
3.73247
 20
0.669054
 30
0.0
 40
0
 41
0
  0
VERTEX
  8
0
 10
3.6836
 20
0.669054
 30
0.0
 40
0
 41
0
  0
VERTEX
  8
0
 10
3.61768
 20
0.733886
 30
0.0
 40
0
 41
0
  0
VERTEX
  8
0
 10
3.49376
 20
0.733886
 30
0.0
 40
0
 41
0
  0
SEQEND
 8
0
  0
POLYLINE
  8
0
 62
     7
 66
     1
 10
0
 20
0
 30
0.0
 70
     1
 40
0
 41
0
  0
VERTEX
  8
0
 10
3.37104
 20
0.240072
 30
0.0
 40
0
 41
0
  0
VERTEX
  8
0
 10
3.37104
 20
0.14529
 30
0.0
 40
0
 41
0
  0
VERTEX
  8
0
 10
3.361
 20
0.14529
 30
0.0
 40
0
 41
0
  0
VERTEX
  8
0
 10
3.361
 20
0.0996636
 30
0.0
 40
0
 41
0
  0
VERTEX
  8
0
 10
3.40662
 20
0.0996636
 30
0.0
 40
0
 41
0
  0
VERTEX
  8
0
 10
3.40662
 20
0.14529
 30
0.0
 40
0
 41
0
  0
VERTEX
  8
0
 10
3.3966
 20
0.14529
 30
0.0
 40
0
 41
0
  0
VERTEX
  8
0
 10
3.3966
 20
0.240072
 30
0.0
 40
0
 41
0
  0
VERTEX
  8
0
 10
3.40662
 20
0.240072
 30
0.0
 40
0
 41
0
  0
VERTEX
  8
0
 10
3.40662
 20
0.285699
 30
0.0
 40
0
 41
0
  0
VERTEX
  8
0
 10
3.361
 20
0.285699
 30
0.0
 40
0
 41
0
  0
VERTEX
  8
0
 10
3.361
 20
0.240072
 30
0.0
 40
0
 41
0
  0
VERTEX
  8
0
 10
3.37104
 20
0.240072
 30
0.0
 40
0
 41
0
  0
SEQEND
 8
0
  0
POLYLINE
  8
0
 62
     7
 66
     1
 10
0
 20
0
 30
0.0
 70
     1
 40
0
 41
0
  0
VERTEX
  8
0
 10
3.90853
 20
0.608128
 30
0.0
 40
0
 41
0
  0
VERTEX
  8
0
 10
3.95415
 20
0.608128
 30
0.0
 40
0
 41
0
  0
VERTEX
  8
0
 10
3.95415
 20
0.653808
 30
0.0
 40
0
 41
0
  0
VERTEX
  8
0
 10
3.92822
 20
0.653808
 30
0.0
 40
0
 41
0
  0
VERTEX
  8
0
 10
3.78358
 20
0.795682
 30
0.0
 40
0
 41
0
  0
VERTEX
  8
0
 10
3.46912
 20
0.794217
 30
0.0
 40
0
 41
0
  0
VERTEX
  8
0
 10
3.30994
 20
0.636393
 30
0.0
 40
0
 41
0
  0
VERTEX
  8
0
 10
3.30994
 20
0.0347222
 30
0.0
 40
0
 41
0
  0
VERTEX
  8
0
 10
3.45936
 20
0.0347222
 30
0.0
 40
0
 41
0
  0
VERTEX
  8
0
 10
3.45936
 20
0.261501
 30
0.0
 40
0
 41
0
  0
VERTEX
  8
0
 10
3.56131
 20
0.261501
 30
0.0
 40
0
 41
0
  0
VERTEX
  8
0
 10
3.63015
 20
0.325521
 30
0.0
 40
0
 41
0
  0
VERTEX
  8
0
 10
3.85542
 20
0.325521
 30
0.0
 40
0
 41
0
  0
VERTEX
  8
0
 10
3.85542
 20
0.14529
 30
0.0
 40
0
 41
0
  0
VERTEX
  8
0
 10
3.84538
 20
0.14529
 30
0.0
 40
0
 41
0
  0
VERTEX
  8
0
 10
3.84538
 20
0.0996636
 30
0.0
 40
0
 41
0
  0
VERTEX
  8
0
 10
3.89106
 20
0.0996636
 30
0.0
 40
0
 41
0
  0
VERTEX
  8
0
 10
3.89106
 20
0.14529
 30
0.0
 40
0
 41
0
  0
VERTEX
  8
0
 10
3.88103
 20
0.14529
 30
0.0
 40
0
 41
0
  0
VERTEX
  8
0
 10
3.88103
 20
0.351129
 30
0.0
 40
0
 41
0
  0
VERTEX
  8
0
 10
3.62011
 20
0.351129
 30
0.0
 40
0
 41
0
  0
VERTEX
  8
0
 10
3.55126
 20
0.28711
 30
0.0
 40
0
 41
0
  0
VERTEX
  8
0
 10
3.43375
 20
0.28711
 30
0.0
 40
0
 41
0
  0
VERTEX
  8
0
 10
3.43375
 20
0.0602756
 30
0.0
 40
0
 41
0
  0
VERTEX
  8
0
 10
3.3355
 20
0.0602756
 30
0.0
 40
0
 41
0
  0
VERTEX
  8
0
 10
3.3355
 20
0.625706
 30
0.0
 40
0
 41
0
  0
VERTEX
  8
0
 10
3.47971
 20
0.768664
 30
0.0
 40
0
 41
0
  0
VERTEX
  8
0
 10
3.77317
 20
0.770019
 30
0.0
 40
0
 41
0
  0
VERTEX
  8
0
 10
3.90853
 20
0.637315
 30
0.0
 40
0
 41
0
  0
VERTEX
  8
0
 10
3.90853
 20
0.608128
 30
0.0
 40
0
 41
0
  0
SEQEND
 8
0
  0
POLYLINE
  8
0
 62
     7
 66
     1
 10
0
 20
0
 30
0.0
 70
     1
 40
0
 41
0
  0
VERTEX
  8
0
 10
2.87993
 20
0.0829536
 30
0.0
 40
0
 41
0
  0
VERTEX
  8
0
 10
2.87993
 20
0.0929904
 30
0.0
 40
0
 41
0
  0
VERTEX
  8
0
 10
3.05979
 20
0.0929904
 30
0.0
 40
0
 41
0
  0
VERTEX
  8
0
 10
3.05979
 20
0.0829536
 30
0.0
 40
0
 41
0
  0
VERTEX
  8
0
 10
3.10542
 20
0.0829536
 30
0.0
 40
0
 41
0
  0
VERTEX
  8
0
 10
3.10542
 20
0.128635
 30
0.0
 40
0
 41
0
  0
VERTEX
  8
0
 10
3.05979
 20
0.128635
 30
0.0
 40
0
 41
0
  0
VERTEX
  8
0
 10
3.05979
 20
0.118598
 30
0.0
 40
0
 41
0
  0
VERTEX
  8
0
 10
2.87993
 20
0.118598
 30
0.0
 40
0
 41
0
  0
VERTEX
  8
0
 10
2.87993
 20
0.128635
 30
0.0
 40
0
 41
0
  0
VERTEX
  8
0
 10
2.83425
 20
0.128635
 30
0.0
 40
0
 41
0
  0
VERTEX
  8
0
 10
2.83425
 20
0.0829536
 30
0.0
 40
0
 41
0
  0
VERTEX
  8
0
 10
2.87993
 20
0.0829536
 30
0.0
 40
0
 41
0
  0
SEQEND
 8
0
  0
POLYLINE
  8
0
 62
     7
 66
     1
 10
0
 20
0
 30
0.0
 70
     1
 40
0
 41
0
  0
VERTEX
  8
0
 10
2.54665
 20
0.0357531
 30
0.0
 40
0
 41
0
  0
VERTEX
  8
0
 10
3.15956
 20
0.0357531
 30
0.0
 40
0
 41
0
  0
VERTEX
  8
0
 10
3.15956
 20
0.186469
 30
0.0
 40
0
 41
0
  0
VERTEX
  8
0
 10
2.822
 20
0.186469
 30
0.0
 40
0
 41
0
  0
VERTEX
  8
0
 10
2.75797
 20
0.118598
 30
0.0
 40
0
 41
0
  0
VERTEX
  8
0
 10
2.63178
 20
0.118598
 30
0.0
 40
0
 41
0
  0
VERTEX
  8
0
 10
2.63178
 20
0.299587
 30
0.0
 40
0
 41
0
  0
VERTEX
  8
0
 10
2.64176
 20
0.299587
 30
0.0
 40
0
 41
0
  0
VERTEX
  8
0
 10
2.64176
 20
0.345215
 30
0.0
 40
0
 41
0
  0
VERTEX
  8
0
 10
2.59614
 20
0.345215
 30
0.0
 40
0
 41
0
  0
VERTEX
  8
0
 10
2.59614
 20
0.299587
 30
0.0
 40
0
 41
0
  0
VERTEX
  8
0
 10
2.60618
 20
0.299587
 30
0.0
 40
0
 41
0
  0
VERTEX
  8
0
 10
2.60618
 20
0.0929904
 30
0.0
 40
0
 41
0
  0
VERTEX
  8
0
 10
2.76904
 20
0.0929904
 30
0.0
 40
0
 41
0
  0
VERTEX
  8
0
 10
2.83306
 20
0.160807
 30
0.0
 40
0
 41
0
  0
VERTEX
  8
0
 10
3.13396
 20
0.160807
 30
0.0
 40
0
 41
0
  0
VERTEX
  8
0
 10
3.13396
 20
0.061415
 30
0.0
 40
0
 41
0
  0
VERTEX
  8
0
 10
2.57226
 20
0.061415
 30
0.0
 40
0
 41
0
  0
VERTEX
  8
0
 10
2.57226
 20
0.342393
 30
0.0
 40
0
 41
0
  0
VERTEX
  8
0
 10
2.63374
 20
0.403429
 30
0.0
 40
0
 41
0
  0
VERTEX
  8
0
 10
2.63374
 20
0.697917
 30
0.0
 40
0
 41
0
  0
VERTEX
  8
0
 10
2.64372
 20
0.697917
 30
0.0
 40
0
 41
0
  0
VERTEX
  8
0
 10
2.64372
 20
0.743544
 30
0.0
 40
0
 41
0
  0
VERTEX
  8
0
 10
2.5981
 20
0.743544
 30
0.0
 40
0
 41
0
  0
VERTEX
  8
0
 10
2.5981
 20
0.697917
 30
0.0
 40
0
 41
0
  0
VERTEX
  8
0
 10
2.60813
 20
0.697917
 30
0.0
 40
0
 41
0
  0
VERTEX
  8
0
 10
2.60813
 20
0.414063
 30
0.0
 40
0
 41
0
  0
VERTEX
  8
0
 10
2.54665
 20
0.353082
 30
0.0
 40
0
 41
0
  0
VERTEX
  8
0
 10
2.54665
 20
0.0357531
 30
0.0
 40
0
 41
0
  0
SEQEND
 8
0
  0
POLYLINE
  8
0
 62
     7
 66
     1
 10
0
 20
0
 30
0.0
 70
     1
 40
0
 41
0
  0
VERTEX
  8
0
 10
2.71783
 20
0.150825
 30
0.0
 40
0
 41
0
  0
VERTEX
  8
0
 10
2.76346
 20
0.150825
 30
0.0
 40
0
 41
0
  0
VERTEX
  8
0
 10
2.76346
 20
0.196451
 30
0.0
 40
0
 41
0
  0
VERTEX
  8
0
 10
2.71783
 20
0.196451
 30
0.0
 40
0
 41
0
  0
VERTEX
  8
0
 10
2.71783
 20
0.186469
 30
0.0
 40
0
 41
0
  0
VERTEX
  8
0
 10
2.69667
 20
0.186469
 30
0.0
 40
0
 41
0
  0
VERTEX
  8
0
 10
2.69667
 20
0.795682
 30
0.0
 40
0
 41
0
  0
VERTEX
  8
0
 10
2.54601
 20
0.795682
 30
0.0
 40
0
 41
0
  0
VERTEX
  8
0
 10
2.54601
 20
0.455296
 30
0.0
 40
0
 41
0
  0
VERTEX
  8
0
 10
2.53603
 20
0.455296
 30
0.0
 40
0
 41
0
  0
VERTEX
  8
0
 10
2.53603
 20
0.409668
 30
0.0
 40
0
 41
0
  0
VERTEX
  8
0
 10
2.58171
 20
0.409668
 30
0.0
 40
0
 41
0
  0
VERTEX
  8
0
 10
2.58171
 20
0.455296
 30
0.0
 40
0
 41
0
  0
VERTEX
  8
0
 10
2.57167
 20
0.455296
 30
0.0
 40
0
 41
0
  0
VERTEX
  8
0
 10
2.57167
 20
0.770074
 30
0.0
 40
0
 41
0
  0
VERTEX
  8
0
 10
2.67106
 20
0.770074
 30
0.0
 40
0
 41
0
  0
VERTEX
  8
0
 10
2.67106
 20
0.160807
 30
0.0
 40
0
 41
0
  0
VERTEX
  8
0
 10
2.71783
 20
0.160807
 30
0.0
 40
0
 41
0
  0
VERTEX
  8
0
 10
2.71783
 20
0.150825
 30
0.0
 40
0
 41
0
  0
SEQEND
 8
0
  0
POLYLINE
  8
0
 62
     7
 66
     1
 10
0
 20
0
 30
0.0
 70
     1
 40
0
 41
0
  0
VERTEX
  8
0
 10
2.17031
 20
0.384494
 30
0.0
 40
0
 41
0
  0
VERTEX
  8
0
 10
2.40278
 20
0.617025
 30
0.0
 40
0
 41
0
  0
VERTEX
  8
0
 10
2.40278
 20
0.795682
 30
0.0
 40
0
 41
0
  0
VERTEX
  8
0
 10
2.25319
 20
0.795682
 30
0.0
 40
0
 41
0
  0
VERTEX
  8
0
 10
2.25319
 20
0.67844
 30
0.0
 40
0
 41
0
  0
VERTEX
  8
0
 10
2.23096
 20
0.656196
 30
0.0
 40
0
 41
0
  0
VERTEX
  8
0
 10
2.22385
 20
0.663249
 30
0.0
 40
0
 41
0
  0
VERTEX
  8
0
 10
2.19157
 20
0.630968
 30
0.0
 40
0
 41
0
  0
VERTEX
  8
0
 10
2.22385
 20
0.598742
 30
0.0
 40
0
 41
0
  0
VERTEX
  8
0
 10
2.25612
 20
0.630968
 30
0.0
 40
0
 41
0
  0
VERTEX
  8
0
 10
2.24903
 20
0.638075
 30
0.0
 40
0
 41
0
  0
VERTEX
  8
0
 10
2.27881
 20
0.66786
 30
0.0
 40
0
 41
0
  0
VERTEX
  8
0
 10
2.27881
 20
0.770074
 30
0.0
 40
0
 41
0
  0
VERTEX
  8
0
 10
2.37717
 20
0.770074
 30
0.0
 40
0
 41
0
  0
VERTEX
  8
0
 10
2.37717
 20
0.627604
 30
0.0
 40
0
 41
0
  0
VERTEX
  8
0
 10
2.14464
 20
0.395128
 30
0.0
 40
0
 41
0
  0
VERTEX
  8
0
 10
2.14464
 20
0.288411
 30
0.0
 40
0
 41
0
  0
VERTEX
  8
0
 10
2.08431
 20
0.228028
 30
0.0
 40
0
 41
0
  0
VERTEX
  8
0
 10
2.08431
 20
0.134006
 30
0.0
 40
0
 41
0
  0
VERTEX
  8
0
 10
2.07428
 20
0.134006
 30
0.0
 40
0
 41
0
  0
VERTEX
  8
0
 10
2.07428
 20
0.0883789
 30
0.0
 40
0
 41
0
  0
VERTEX
  8
0
 10
2.1199
 20
0.0883789
 30
0.0
 40
0
 41
0
  0
VERTEX
  8
0
 10
2.1199
 20
0.134006
 30
0.0
 40
0
 41
0
  0
VERTEX
  8
0
 10
2.10986
 20
0.134006
 30
0.0
 40
0
 41
0
  0
VERTEX
  8
0
 10
2.10986
 20
0.217393
 30
0.0
 40
0
 41
0
  0
VERTEX
  8
0
 10
2.17031
 20
0.277832
 30
0.0
 40
0
 41
0
  0
VERTEX
  8
0
 10
2.17031
 20
0.384494
 30
0.0
 40
0
 41
0
  0
SEQEND
 8
0
  0
POLYLINE
  8
0
 62
     7
 66
     1
 10
0
 20
0
 30
0.0
 70
     1
 40
0
 41
0
  0
VERTEX
  8
0
 10
1.87756
 20
0.65625
 30
0.0
 40
0
 41
0
  0
VERTEX
  8
0
 10
1.87756
 20
0.697754
 30
0.0
 40
0
 41
0
  0
VERTEX
  8
0
 10
1.88758
 20
0.697754
 30
0.0
 40
0
 41
0
  0
VERTEX
  8
0
 10
1.88758
 20
0.743381
 30
0.0
 40
0
 41
0
  0
VERTEX
  8
0
 10
1.8419
 20
0.743381
 30
0.0
 40
0
 41
0
  0
VERTEX
  8
0
 10
1.8419
 20
0.697754
 30
0.0
 40
0
 41
0
  0
VERTEX
  8
0
 10
1.85194
 20
0.697754
 30
0.0
 40
0
 41
0
  0
VERTEX
  8
0
 10
1.85194
 20
0.645617
 30
0.0
 40
0
 41
0
  0
VERTEX
  8
0
 10
1.87858
 20
0.619032
 30
0.0
 40
0
 41
0
  0
VERTEX
  8
0
 10
1.87147
 20
0.611925
 30
0.0
 40
0
 41
0
  0
VERTEX
  8
0
 10
1.90375
 20
0.579644
 30
0.0
 40
0
 41
0
  0
VERTEX
  8
0
 10
1.93604
 20
0.611925
 30
0.0
 40
0
 41
0
  0
VERTEX
  8
0
 10
1.90375
 20
0.644206
 30
0.0
 40
0
 41
0
  0
VERTEX
  8
0
 10
1.89665
 20
0.637099
 30
0.0
 40
0
 41
0
  0
VERTEX
  8
0
 10
1.87756
 20
0.65625
 30
0.0
 40
0
 41
0
  0
SEQEND
 8
0
  0
POLYLINE
  8
0
 62
     7
 66
     1
 10
0
 20
0
 30
0.0
 70
     1
 40
0
 41
0
  0
VERTEX
  8
0
 10
2.11062
 20
0.329156
 30
0.0
 40
0
 41
0
  0
VERTEX
  8
0
 10
2.11062
 20
0.410428
 30
0.0
 40
0
 41
0
  0
VERTEX
  8
0
 10
2.18044
 20
0.480306
 30
0.0
 40
0
 41
0
  0
VERTEX
  8
0
 10
2.18756
 20
0.473199
 30
0.0
 40
0
 41
0
  0
VERTEX
  8
0
 10
2.21983
 20
0.505479
 30
0.0
 40
0
 41
0
  0
VERTEX
  8
0
 10
2.18756
 20
0.537761
 30
0.0
 40
0
 41
0
  0
VERTEX
  8
0
 10
2.15528
 20
0.505479
 30
0.0
 40
0
 41
0
  0
VERTEX
  8
0
 10
2.16237
 20
0.498426
 30
0.0
 40
0
 41
0
  0
VERTEX
  8
0
 10
2.08501
 20
0.421061
 30
0.0
 40
0
 41
0
  0
VERTEX
  8
0
 10
2.08501
 20
0.329156
 30
0.0
 40
0
 41
0
  0
VERTEX
  8
0
 10
2.07497
 20
0.329156
 30
0.0
 40
0
 41
0
  0
VERTEX
  8
0
 10
2.07497
 20
0.283529
 30
0.0
 40
0
 41
0
  0
VERTEX
  8
0
 10
2.12061
 20
0.283529
 30
0.0
 40
0
 41
0
  0
VERTEX
  8
0
 10
2.12061
 20
0.329156
 30
0.0
 40
0
 41
0
  0
VERTEX
  8
0
 10
2.11062
 20
0.329156
 30
0.0
 40
0
 41
0
  0
SEQEND
 8
0
  0
POLYLINE
  8
0
 62
     7
 66
     1
 10
0
 20
0
 30
0.0
 70
     1
 40
0
 41
0
  0
VERTEX
  8
0
 10
2.24403
 20
0.582194
 30
0.0
 40
0
 41
0
  0
VERTEX
  8
0
 10
2.15696
 20
0.582194
 30
0.0
 40
0
 41
0
  0
VERTEX
  8
0
 10
2.09706
 20
0.522353
 30
0.0
 40
0
 41
0
  0
VERTEX
  8
0
 10
1.94097
 20
0.67844
 30
0.0
 40
0
 41
0
  0
VERTEX
  8
0
 10
1.94097
 20
0.795682
 30
0.0
 40
0
 41
0
  0
VERTEX
  8
0
 10
1.79031
 20
0.795682
 30
0.0
 40
0
 41
0
  0
VERTEX
  8
0
 10
1.79031
 20
0.61594
 30
0.0
 40
0
 41
0
  0
VERTEX
  8
0
 10
1.86604
 20
0.540201
 30
0.0
 40
0
 41
0
  0
VERTEX
  8
0
 10
1.95637
 20
0.540201
 30
0.0
 40
0
 41
0
  0
VERTEX
  8
0
 10
2.02089
 20
0.475694
 30
0.0
 40
0
 41
0
  0
VERTEX
  8
0
 10
2.01383
 20
0.468642
 30
0.0
 40
0
 41
0
  0
VERTEX
  8
0
 10
2.04611
 20
0.436361
 30
0.0
 40
0
 41
0
  0
VERTEX
  8
0
 10
2.0784
 20
0.468642
 30
0.0
 40
0
 41
0
  0
VERTEX
  8
0
 10
2.04611
 20
0.500922
 30
0.0
 40
0
 41
0
  0
VERTEX
  8
0
 10
2.03901
 20
0.493815
 30
0.0
 40
0
 41
0
  0
VERTEX
  8
0
 10
1.96701
 20
0.56581
 30
0.0
 40
0
 41
0
  0
VERTEX
  8
0
 10
1.87663
 20
0.56581
 30
0.0
 40
0
 41
0
  0
VERTEX
  8
0
 10
1.81592
 20
0.626574
 30
0.0
 40
0
 41
0
  0
VERTEX
  8
0
 10
1.81592
 20
0.770074
 30
0.0
 40
0
 41
0
  0
VERTEX
  8
0
 10
1.91531
 20
0.770074
 30
0.0
 40
0
 41
0
  0
VERTEX
  8
0
 10
1.91531
 20
0.66786
 30
0.0
 40
0
 41
0
  0
VERTEX
  8
0
 10
2.09706
 20
0.486111
 30
0.0
 40
0
 41
0
  0
VERTEX
  8
0
 10
2.16754
 20
0.556586
 30
0.0
 40
0
 41
0
  0
VERTEX
  8
0
 10
2.25478
 20
0.556586
 30
0.0
 40
0
 41
0
  0
VERTEX
  8
0
 10
2.34017
 20
0.643446
 30
0.0
 40
0
 41
0
  0
VERTEX
  8
0
 10
2.34028
 20
0.6977
 30
0.0
 40
0
 41
0
  0
VERTEX
  8
0
 10
2.35026
 20
0.6977
 30
0.0
 40
0
 41
0
  0
VERTEX
  8
0
 10
2.35038
 20
0.743326
 30
0.0
 40
0
 41
0
  0
VERTEX
  8
0
 10
2.30469
 20
0.743435
 30
0.0
 40
0
 41
0
  0
VERTEX
  8
0
 10
2.30464
 20
0.697754
 30
0.0
 40
0
 41
0
  0
VERTEX
  8
0
 10
2.31461
 20
0.697754
 30
0.0
 40
0
 41
0
  0
VERTEX
  8
0
 10
2.31461
 20
0.653917
 30
0.0
 40
0
 41
0
  0
VERTEX
  8
0
 10
2.24403
 20
0.582194
 30
0.0
 40
0
 41
0
  0
SEQEND
 8
0
  0
POLYLINE
  8
0
 62
     7
 66
     1
 10
0
 20
0
 30
0.0
 70
     1
 40
0
 41
0
  0
VERTEX
  8
0
 10
1.45404
 20
0.698514
 30
0.0
 40
0
 41
0
  0
VERTEX
  8
0
 10
1.45404
 20
0.70855
 30
0.0
 40
0
 41
0
  0
VERTEX
  8
0
 10
1.54096
 20
0.70855
 30
0.0
 40
0
 41
0
  0
VERTEX
  8
0
 10
1.54096
 20
0.698514
 30
0.0
 40
0
 41
0
  0
VERTEX
  8
0
 10
1.58658
 20
0.698514
 30
0.0
 40
0
 41
0
  0
VERTEX
  8
0
 10
1.58658
 20
0.744194
 30
0.0
 40
0
 41
0
  0
VERTEX
  8
0
 10
1.54096
 20
0.744194
 30
0.0
 40
0
 41
0
  0
VERTEX
  8
0
 10
1.54096
 20
0.734158
 30
0.0
 40
0
 41
0
  0
VERTEX
  8
0
 10
1.45404
 20
0.734158
 30
0.0
 40
0
 41
0
  0
VERTEX
  8
0
 10
1.45404
 20
0.744194
 30
0.0
 40
0
 41
0
  0
VERTEX
  8
0
 10
1.40836
 20
0.744194
 30
0.0
 40
0
 41
0
  0
VERTEX
  8
0
 10
1.40836
 20
0.698514
 30
0.0
 40
0
 41
0
  0
VERTEX
  8
0
 10
1.45404
 20
0.698514
 30
0.0
 40
0
 41
0
  0
SEQEND
 8
0
  0
POLYLINE
  8
0
 62
     7
 66
     1
 10
0
 20
0
 30
0.0
 70
     1
 40
0
 41
0
  0
VERTEX
  8
0
 10
1.34473
 20
0.335449
 30
0.0
 40
0
 41
0
  0
VERTEX
  8
0
 10
1.34473
 20
0.129449
 30
0.0
 40
0
 41
0
  0
VERTEX
  8
0
 10
1.33469
 20
0.129449
 30
0.0
 40
0
 41
0
  0
VERTEX
  8
0
 10
1.33469
 20
0.0838217
 30
0.0
 40
0
 41
0
  0
VERTEX
  8
0
 10
1.38037
 20
0.0838217
 30
0.0
 40
0
 41
0
  0
VERTEX
  8
0
 10
1.38037
 20
0.129449
 30
0.0
 40
0
 41
0
  0
VERTEX
  8
0
 10
1.37033
 20
0.129449
 30
0.0
 40
0
 41
0
  0
VERTEX
  8
0
 10
1.37033
 20
0.335449
 30
0.0
 40
0
 41
0
  0
VERTEX
  8
0
 10
1.38037
 20
0.335449
 30
0.0
 40
0
 41
0
  0
VERTEX
  8
0
 10
1.38037
 20
0.381076
 30
0.0
 40
0
 41
0
  0
VERTEX
  8
0
 10
1.33469
 20
0.381076
 30
0.0
 40
0
 41
0
  0
VERTEX
  8
0
 10
1.33469
 20
0.335449
 30
0.0
 40
0
 41
0
  0
VERTEX
  8
0
 10
1.34473
 20
0.335449
 30
0.0
 40
0
 41
0
  0
SEQEND
 8
0
  0
POLYLINE
  8
0
 62
     7
 66
     1
 10
0
 20
0
 30
0.0
 70
     1
 40
0
 41
0
  0
VERTEX
  8
0
 10
1.43283
 20
0.645074
 30
0.0
 40
0
 41
0
  0
VERTEX
  8
0
 10
1.63992
 20
0.645074
 30
0.0
 40
0
 41
0
  0
VERTEX
  8
0
 10
1.63992
 20
0.795682
 30
0.0
 40
0
 41
0
  0
VERTEX
  8
0
 10
1.07514
 20
0.795682
 30
0.0
 40
0
 41
0
  0
VERTEX
  8
0
 10
1.07514
 20
0.645074
 30
0.0
 40
0
 41
0
  0
VERTEX
  8
0
 10
1.28223
 20
0.645074
 30
0.0
 40
0
 41
0
  0
VERTEX
  8
0
 10
1.28223
 20
0.0358074
 30
0.0
 40
0
 41
0
  0
VERTEX
  8
0
 10
1.43283
 20
0.0358074
 30
0.0
 40
0
 41
0
  0
VERTEX
  8
0
 10
1.43283
 20
0.385254
 30
0.0
 40
0
 41
0
  0
VERTEX
  8
0
 10
1.37039
 20
0.447754
 30
0.0
 40
0
 41
0
  0
VERTEX
  8
0
 10
1.37039
 20
0.734158
 30
0.0
 40
0
 41
0
  0
VERTEX
  8
0
 10
1.17139
 20
0.734158
 30
0.0
 40
0
 41
0
  0
VERTEX
  8
0
 10
1.17139
 20
0.744194
 30
0.0
 40
0
 41
0
  0
VERTEX
  8
0
 10
1.12576
 20
0.744194
 30
0.0
 40
0
 41
0
  0
VERTEX
  8
0
 10
1.12576
 20
0.698514
 30
0.0
 40
0
 41
0
  0
VERTEX
  8
0
 10
1.17139
 20
0.698514
 30
0.0
 40
0
 41
0
  0
VERTEX
  8
0
 10
1.17139
 20
0.70855
 30
0.0
 40
0
 41
0
  0
VERTEX
  8
0
 10
1.34473
 20
0.70855
 30
0.0
 40
0
 41
0
  0
VERTEX
  8
0
 10
1.34473
 20
0.437121
 30
0.0
 40
0
 41
0
  0
VERTEX
  8
0
 10
1.40722
 20
0.374621
 30
0.0
 40
0
 41
0
  0
VERTEX
  8
0
 10
1.40722
 20
0.061415
 30
0.0
 40
0
 41
0
  0
VERTEX
  8
0
 10
1.30783
 20
0.061415
 30
0.0
 40
0
 41
0
  0
VERTEX
  8
0
 10
1.30783
 20
0.670682
 30
0.0
 40
0
 41
0
  0
VERTEX
  8
0
 10
1.10075
 20
0.670682
 30
0.0
 40
0
 41
0
  0
VERTEX
  8
0
 10
1.10075
 20
0.770074
 30
0.0
 40
0
 41
0
  0
VERTEX
  8
0
 10
1.61436
 20
0.770074
 30
0.0
 40
0
 41
0
  0
VERTEX
  8
0
 10
1.61436
 20
0.670682
 30
0.0
 40
0
 41
0
  0
VERTEX
  8
0
 10
1.40722
 20
0.670682
 30
0.0
 40
0
 41
0
  0
VERTEX
  8
0
 10
1.40722
 20
0.493218
 30
0.0
 40
0
 41
0
  0
VERTEX
  8
0
 10
1.39725
 20
0.493218
 30
0.0
 40
0
 41
0
  0
VERTEX
  8
0
 10
1.39725
 20
0.447483
 30
0.0
 40
0
 41
0
  0
VERTEX
  8
0
 10
1.44288
 20
0.447483
 30
0.0
 40
0
 41
0
  0
VERTEX
  8
0
 10
1.44288
 20
0.493218
 30
0.0
 40
0
 41
0
  0
VERTEX
  8
0
 10
1.43283
 20
0.493218
 30
0.0
 40
0
 41
0
  0
VERTEX
  8
0
 10
1.43283
 20
0.645074
 30
0.0
 40
0
 41
0
  0
SEQEND
 8
0
  0
POLYLINE
  8
0
 62
     7
 66
     1
 10
0
 20
0
 30
0.0
 70
     1
 40
0
 41
0
  0
VERTEX
  8
0
 10
0.830186
 20
0.3412
 30
0.0
 40
0
 41
0
  0
VERTEX
  8
0
 10
0.830186
 20
0.133735
 30
0.0
 40
0
 41
0
  0
VERTEX
  8
0
 10
0.820204
 20
0.133735
 30
0.0
 40
0
 41
0
  0
VERTEX
  8
0
 10
0.820204
 20
0.0880533
 30
0.0
 40
0
 41
0
  0
VERTEX
  8
0
 10
0.865831
 20
0.0880533
 30
0.0
 40
0
 41
0
  0
VERTEX
  8
0
 10
0.865831
 20
0.133735
 30
0.0
 40
0
 41
0
  0
VERTEX
  8
0
 10
0.855849
 20
0.133735
 30
0.0
 40
0
 41
0
  0
VERTEX
  8
0
 10
0.855849
 20
0.3412
 30
0.0
 40
0
 41
0
  0
VERTEX
  8
0
 10
0.865831
 20
0.3412
 30
0.0
 40
0
 41
0
  0
VERTEX
  8
0
 10
0.865831
 20
0.386774
 30
0.0
 40
0
 41
0
  0
VERTEX
  8
0
 10
0.820204
 20
0.386774
 30
0.0
 40
0
 41
0
  0
VERTEX
  8
0
 10
0.820204
 20
0.3412
 30
0.0
 40
0
 41
0
  0
VERTEX
  8
0
 10
0.830186
 20
0.3412
 30
0.0
 40
0
 41
0
  0
SEQEND
 8
0
  0
POLYLINE
  8
0
 62
     7
 66
     1
 10
0
 20
0
 30
0.0
 70
     1
 40
0
 41
0
  0
VERTEX
  8
0
 10
0.888456
 20
0.475424
 30
0.0
 40
0
 41
0
  0
VERTEX
  8
0
 10
0.934082
 20
0.475424
 30
0.0
 40
0
 41
0
  0
VERTEX
  8
0
 10
0.934082
 20
0.521104
 30
0.0
 40
0
 41
0
  0
VERTEX
  8
0
 10
0.9241
 20
0.521104
 30
0.0
 40
0
 41
0
  0
VERTEX
  8
0
 10
0.9241
 20
0.795682
 30
0.0
 40
0
 41
0
  0
VERTEX
  8
0
 10
0.765842
 20
0.795682
 30
0.0
 40
0
 41
0
  0
VERTEX
  8
0
 10
0.765842
 20
0.0357531
 30
0.0
 40
0
 41
0
  0
VERTEX
  8
0
 10
0.9241
 20
0.0357531
 30
0.0
 40
0
 41
0
  0
VERTEX
  8
0
 10
0.9241
 20
0.391222
 30
0.0
 40
0
 41
0
  0
VERTEX
  8
0
 10
0.855794
 20
0.467557
 30
0.0
 40
0
 41
0
  0
VERTEX
  8
0
 10
0.855849
 20
0.697917
 30
0.0
 40
0
 41
0
  0
VERTEX
  8
0
 10
0.865831
 20
0.697917
 30
0.0
 40
0
 41
0
  0
VERTEX
  8
0
 10
0.865831
 20
0.743599
 30
0.0
 40
0
 41
0
  0
VERTEX
  8
0
 10
0.82015
 20
0.743599
 30
0.0
 40
0
 41
0
  0
VERTEX
  8
0
 10
0.82015
 20
0.697917
 30
0.0
 40
0
 41
0
  0
VERTEX
  8
0
 10
0.830186
 20
0.697917
 30
0.0
 40
0
 41
0
  0
VERTEX
  8
0
 10
0.830132
 20
0.456922
 30
0.0
 40
0
 41
0
  0
VERTEX
  8
0
 10
0.898492
 20
0.380697
 30
0.0
 40
0
 41
0
  0
VERTEX
  8
0
 10
0.898492
 20
0.061415
 30
0.0
 40
0
 41
0
  0
VERTEX
  8
0
 10
0.791504
 20
0.061415
 30
0.0
 40
0
 41
0
  0
VERTEX
  8
0
 10
0.791504
 20
0.770074
 30
0.0
 40
0
 41
0
  0
VERTEX
  8
0
 10
0.898492
 20
0.770074
 30
0.0
 40
0
 41
0
  0
VERTEX
  8
0
 10
0.898492
 20
0.521104
 30
0.0
 40
0
 41
0
  0
VERTEX
  8
0
 10
0.888456
 20
0.521104
 30
0.0
 40
0
 41
0
  0
VERTEX
  8
0
 10
0.888456
 20
0.475424
 30
0.0
 40
0
 41
0
  0
SEQEND
 8
0
  0
POLYLINE
  8
0
 62
     7
 66
     1
 10
0
 20
0
 30
0.0
 70
     1
 40
0
 41
0
  0
VERTEX
  8
0
 10
0.387913
 20
0.697592
 30
0.0
 40
0
 41
0
  0
VERTEX
  8
0
 10
0.387913
 20
0.707574
 30
0.0
 40
0
 41
0
  0
VERTEX
  8
0
 10
0.405817
 20
0.707574
 30
0.0
 40
0
 41
0
  0
VERTEX
  8
0
 10
0.504719
 20
0.608128
 30
0.0
 40
0
 41
0
  0
VERTEX
  8
0
 10
0.500543
 20
0.608128
 30
0.0
 40
0
 41
0
  0
VERTEX
  8
0
 10
0.500543
 20
0.562446
 30
0.0
 40
0
 41
0
  0
VERTEX
  8
0
 10
0.546169
 20
0.562446
 30
0.0
 40
0
 41
0
  0
VERTEX
  8
0
 10
0.546169
 20
0.608128
 30
0.0
 40
0
 41
0
  0
VERTEX
  8
0
 10
0.536133
 20
0.608128
 30
0.0
 40
0
 41
0
  0
VERTEX
  8
0
 10
0.536133
 20
0.612901
 30
0.0
 40
0
 41
0
  0
VERTEX
  8
0
 10
0.41645
 20
0.733182
 30
0.0
 40
0
 41
0
  0
VERTEX
  8
0
 10
0.387913
 20
0.733182
 30
0.0
 40
0
 41
0
  0
VERTEX
  8
0
 10
0.387913
 20
0.743218
 30
0.0
 40
0
 41
0
  0
VERTEX
  8
0
 10
0.342285
 20
0.743218
 30
0.0
 40
0
 41
0
  0
VERTEX
  8
0
 10
0.342285
 20
0.697592
 30
0.0
 40
0
 41
0
  0
VERTEX
  8
0
 10
0.387913
 20
0.697592
 30
0.0
 40
0
 41
0
  0
SEQEND
 8
0
  0
POLYLINE
  8
0
 62
     7
 66
     1
 10
0
 20
0
 30
0.0
 70
     1
 40
0
 41
0
  0
VERTEX
  8
0
 10
0.599556
 20
0.509765
 30
0.0
 40
0
 41
0
  0
VERTEX
  8
0
 10
0.599556
 20
0.635906
 30
0.0
 40
0
 41
0
  0
VERTEX
  8
0
 10
0.439725
 20
0.795682
 30
0.0
 40
0
 41
0
  0
VERTEX
  8
0
 10
0.330512
 20
0.795682
 30
0.0
 40
0
 41
0
  0
VERTEX
  8
0
 10
0.271322
 20
0.732206
 30
0.0
 40
0
 41
0
  0
VERTEX
  8
0
 10
0.217393
 20
0.731119
 30
0.0
 40
0
 41
0
  0
VERTEX
  8
0
 10
0.0976019
 20
0.611328
 30
0.0
 40
0
 41
0
  0
VERTEX
  8
0
 10
0.0976019
 20
0.571994
 30
0.0
 40
0
 41
0
  0
VERTEX
  8
0
 10
0.0875651
 20
0.571994
 30
0.0
 40
0
 41
0
  0
VERTEX
  8
0
 10
0.0875651
 20
0.526313
 30
0.0
 40
0
 41
0
  0
VERTEX
  8
0
 10
0.133192
 20
0.526313
 30
0.0
 40
0
 41
0
  0
VERTEX
  8
0
 10
0.133192
 20
0.571994
 30
0.0
 40
0
 41
0
  0
VERTEX
  8
0
 10
0.12321
 20
0.571994
 30
0.0
 40
0
 41
0
  0
VERTEX
  8
0
 10
0.12321
 20
0.600694
 30
0.0
 40
0
 41
0
  0
VERTEX
  8
0
 10
0.22819
 20
0.705675
 30
0.0
 40
0
 41
0
  0
VERTEX
  8
0
 10
0.282607
 20
0.70676
 30
0.0
 40
0
 41
0
  0
VERTEX
  8
0
 10
0.341635
 20
0.770074
 30
0.0
 40
0
 41
0
  0
VERTEX
  8
0
 10
0.429144
 20
0.770074
 30
0.0
 40
0
 41
0
  0
VERTEX
  8
0
 10
0.573947
 20
0.625271
 30
0.0
 40
0
 41
0
  0
VERTEX
  8
0
 10
0.573947
 20
0.535428
 30
0.0
 40
0
 41
0
  0
VERTEX
  8
0
 10
0.474501
 20
0.535428
 30
0.0
 40
0
 41
0
  0
VERTEX
  8
0
 10
0.474501
 20
0.583985
 30
0.0
 40
0
 41
0
  0
VERTEX
  8
0
 10
0.387858
 20
0.670682
 30
0.0
 40
0
 41
0
  0
VERTEX
  8
0
 10
0.246419
 20
0.670682
 30
0.0
 40
0
 41
0
  0
VERTEX
  8
0
 10
0.159722
 20
0.583985
 30
0.0
 40
0
 41
0
  0
VERTEX
  8
0
 10
0.159722
 20
0.402289
 30
0.0
 40
0
 41
0
  0
VERTEX
  8
0
 10
0.14974
 20
0.402289
 30
0.0
 40
0
 41
0
  0
VERTEX
  8
0
 10
0.14974
 20
0.356663
 30
0.0
 40
0
 41
0
  0
VERTEX
  8
0
 10
0.195367
 20
0.356663
 30
0.0
 40
0
 41
0
  0
VERTEX
  8
0
 10
0.195367
 20
0.402289
 30
0.0
 40
0
 41
0
  0
VERTEX
  8
0
 10
0.185385
 20
0.402289
 30
0.0
 40
0
 41
0
  0
VERTEX
  8
0
 10
0.185385
 20
0.573351
 30
0.0
 40
0
 41
0
  0
VERTEX
  8
0
 10
0.256999
 20
0.645019
 30
0.0
 40
0
 41
0
  0
VERTEX
  8
0
 10
0.377225
 20
0.645019
 30
0.0
 40
0
 41
0
  0
VERTEX
  8
0
 10
0.448893
 20
0.573351
 30
0.0
 40
0
 41
0
  0
VERTEX
  8
0
 10
0.448893
 20
0.509765
 30
0.0
 40
0
 41
0
  0
VERTEX
  8
0
 10
0.599556
 20
0.509765
 30
0.0
 40
0
 41
0
  0
SEQEND
 8
0
  0
POLYLINE
  8
0
 62
     7
 66
     1
 10
0
 20
0
 30
0.0
 70
     1
 40
0
 41
0
  0
VERTEX
  8
0
 10
0.224175
 20
0.760092
 30
0.0
 40
0
 41
0
  0
VERTEX
  8
0
 10
0.269803
 20
0.760092
 30
0.0
 40
0
 41
0
  0
VERTEX
  8
0
 10
0.269803
 20
0.805664
 30
0.0
 40
0
 41
0
  0
VERTEX
  8
0
 10
0.224175
 20
0.805664
 30
0.0
 40
0
 41
0
  0
VERTEX
  8
0
 10
0.224175
 20
0.795682
 30
0.0
 40
0
 41
0
  0
VERTEX
  8
0
 10
0.194499
 20
0.795682
 30
0.0
 40
0
 41
0
  0
VERTEX
  8
0
 10
0.0347222
 20
0.635906
 30
0.0
 40
0
 41
0
  0
VERTEX
  8
0
 10
0.0347222
 20
0.502713
 30
0.0
 40
0
 41
0
  0
VERTEX
  8
0
 10
0.0976019
 20
0.438693
 30
0.0
 40
0
 41
0
  0
VERTEX
  8
0
 10
0.0976019
 20
0.219672
 30
0.0
 40
0
 41
0
  0
VERTEX
  8
0
 10
0.222874
 20
0.0953776
 30
0.0
 40
0
 41
0
  0
VERTEX
  8
0
 10
0.259386
 20
0.0958117
 30
0.0
 40
0
 41
0
  0
VERTEX
  8
0
 10
0.25944
 20
0.085829
 30
0.0
 40
0
 41
0
  0
VERTEX
  8
0
 10
0.305122
 20
0.0862087
 30
0.0
 40
0
 41
0
  0
VERTEX
  8
0
 10
0.304742
 20
0.131836
 30
0.0
 40
0
 41
0
  0
VERTEX
  8
0
 10
0.259115
 20
0.131456
 30
0.0
 40
0
 41
0
  0
VERTEX
  8
0
 10
0.259169
 20
0.121365
 30
0.0
 40
0
 41
0
  0
VERTEX
  8
0
 10
0.233344
 20
0.121039
 30
0.0
 40
0
 41
0
  0
VERTEX
  8
0
 10
0.12321
 20
0.23036
 30
0.0
 40
0
 41
0
  0
VERTEX
  8
0
 10
0.12321
 20
0.449219
 30
0.0
 40
0
 41
0
  0
VERTEX
  8
0
 10
0.0603299
 20
0.513183
 30
0.0
 40
0
 41
0
  0
VERTEX
  8
0
 10
0.0603299
 20
0.625271
 30
0.0
 40
0
 41
0
  0
VERTEX
  8
0
 10
0.205132
 20
0.770074
 30
0.0
 40
0
 41
0
  0
VERTEX
  8
0
 10
0.224175
 20
0.770074
 30
0.0
 40
0
 41
0
  0
VERTEX
  8
0
 10
0.224175
 20
0.760092
 30
0.0
 40
0
 41
0
  0
SEQEND
 8
0
  0
POLYLINE
  8
0
 62
     7
 66
     1
 10
0
 20
0
 30
0.0
 70
     1
 40
0
 41
0
  0
VERTEX
  8
0
 10
0.381456
 20
0.0868599
 30
0.0
 40
0
 41
0
  0
VERTEX
  8
0
 10
0.381401
 20
0.096951
 30
0.0
 40
0
 41
0
  0
VERTEX
  8
0
 10
0.411621
 20
0.0972765
 30
0.0
 40
0
 41
0
  0
VERTEX
  8
0
 10
0.536133
 20
0.221625
 30
0.0
 40
0
 41
0
  0
VERTEX
  8
0
 10
0.536133
 20
0.221733
 30
0.0
 40
0
 41
0
  0
VERTEX
  8
0
 10
0.546169
 20
0.221625
 30
0.0
 40
0
 41
0
  0
VERTEX
  8
0
 10
0.546386
 20
0.267307
 30
0.0
 40
0
 41
0
  0
VERTEX
  8
0
 10
0.50076
 20
0.267524
 30
0.0
 40
0
 41
0
  0
VERTEX
  8
0
 10
0.500543
 20
0.222222
 30
0.0
 40
0
 41
0
  0
VERTEX
  8
0
 10
0.400933
 20
0.12283
 30
0.0
 40
0
 41
0
  0
VERTEX
  8
0
 10
0.381185
 20
0.122559
 30
0.0
 40
0
 41
0
  0
VERTEX
  8
0
 10
0.381131
 20
0.132541
 30
0.0
 40
0
 41
0
  0
VERTEX
  8
0
 10
0.335449
 20
0.132107
 30
0.0
 40
0
 41
0
  0
VERTEX
  8
0
 10
0.335829
 20
0.08648
 30
0.0
 40
0
 41
0
  0
VERTEX
  8
0
 10
0.381456
 20
0.0868599
 30
0.0
 40
0
 41
0
  0
SEQEND
 8
0
  0
POLYLINE
  8
0
 62
     7
 66
     1
 10
0
 20
0
 30
0.0
 70
     1
 40
0
 41
0
  0
VERTEX
  8
0
 10
0.0703125
 20
0.443956
 30
0.0
 40
0
 41
0
  0
VERTEX
  8
0
 10
0.0246853
 20
0.443956
 30
0.0
 40
0
 41
0
  0
VERTEX
  8
0
 10
0.0246853
 20
0.398329
 30
0.0
 40
0
 41
0
  0
VERTEX
  8
0
 10
0.0347222
 20
0.398329
 30
0.0
 40
0
 41
0
  0
VERTEX
  8
0
 10
0.0347222
 20
0.195583
 30
0.0
 40
0
 41
0
  0
VERTEX
  8
0
 10
0.194499
 20
0.0357531
 30
0.0
 40
0
 41
0
  0
VERTEX
  8
0
 10
0.437121
 20
0.0357531
 30
0.0
 40
0
 41
0
  0
VERTEX
  8
0
 10
0.599556
 20
0.195529
 30
0.0
 40
0
 41
0
  0
VERTEX
  8
0
 10
0.599556
 20
0.323514
 30
0.0
 40
0
 41
0
  0
VERTEX
  8
0
 10
0.448893
 20
0.323514
 30
0.0
 40
0
 41
0
  0
VERTEX
  8
0
 10
0.448893
 20
0.258137
 30
0.0
 40
0
 41
0
  0
VERTEX
  8
0
 10
0.377225
 20
0.186469
 30
0.0
 40
0
 41
0
  0
VERTEX
  8
0
 10
0.256999
 20
0.186469
 30
0.0
 40
0
 41
0
  0
VERTEX
  8
0
 10
0.185385
 20
0.258137
 30
0.0
 40
0
 41
0
  0
VERTEX
  8
0
 10
0.185385
 20
0.283908
 30
0.0
 40
0
 41
0
  0
VERTEX
  8
0
 10
0.195367
 20
0.283908
 30
0.0
 40
0
 41
0
  0
VERTEX
  8
0
 10
0.195367
 20
0.329536
 30
0.0
 40
0
 41
0
  0
VERTEX
  8
0
 10
0.14974
 20
0.329536
 30
0.0
 40
0
 41
0
  0
VERTEX
  8
0
 10
0.14974
 20
0.283908
 30
0.0
 40
0
 41
0
  0
VERTEX
  8
0
 10
0.159722
 20
0.283908
 30
0.0
 40
0
 41
0
  0
VERTEX
  8
0
 10
0.159722
 20
0.247504
 30
0.0
 40
0
 41
0
  0
VERTEX
  8
0
 10
0.246419
 20
0.160807
 30
0.0
 40
0
 41
0
  0
VERTEX
  8
0
 10
0.387858
 20
0.160807
 30
0.0
 40
0
 41
0
  0
VERTEX
  8
0
 10
0.474501
 20
0.247504
 30
0.0
 40
0
 41
0
  0
VERTEX
  8
0
 10
0.474501
 20
0.297906
 30
0.0
 40
0
 41
0
  0
VERTEX
  8
0
 10
0.573947
 20
0.297906
 30
0.0
 40
0
 41
0
  0
VERTEX
  8
0
 10
0.573947
 20
0.206272
 30
0.0
 40
0
 41
0
  0
VERTEX
  8
0
 10
0.426594
 20
0.061415
 30
0.0
 40
0
 41
0
  0
VERTEX
  8
0
 10
0.205132
 20
0.061415
 30
0.0
 40
0
 41
0
  0
VERTEX
  8
0
 10
0.0603299
 20
0.206164
 30
0.0
 40
0
 41
0
  0
VERTEX
  8
0
 10
0.0603299
 20
0.398329
 30
0.0
 40
0
 41
0
  0
VERTEX
  8
0
 10
0.0703125
 20
0.398329
 30
0.0
 40
0
 41
0
  0
VERTEX
  8
0
 10
0.0703125
 20
0.443956
 30
0.0
 40
0
 41
0
  0
SEQEND
 8
0
  0
POLYLINE
  8
0
 62
     7
 66
     1
 10
0
 20
0
 30
0.0
 70
     1
 40
0
 41
0
  0
VERTEX
  8
0
 10
1.93631
 20
0.520344
 30
0.0
 40
0
 41
0
  0
VERTEX
  8
0
 10
1.90403
 20
0.488118
 30
0.0
 40
0
 41
0
  0
VERTEX
  8
0
 10
1.93631
 20
0.455783
 30
0.0
 40
0
 41
0
  0
VERTEX
  8
0
 10
1.94336
 20
0.46289
 30
0.0
 40
0
 41
0
  0
VERTEX
  8
0
 10
2.02175
 20
0.384494
 30
0.0
 40
0
 41
0
  0
VERTEX
  8
0
 10
2.02175
 20
0.0358074
 30
0.0
 40
0
 41
0
  0
VERTEX
  8
0
 10
2.17236
 20
0.0358074
 30
0.0
 40
0
 41
0
  0
VERTEX
  8
0
 10
2.17236
 20
0.169868
 30
0.0
 40
0
 41
0
  0
VERTEX
  8
0
 10
2.18246
 20
0.169868
 30
0.0
 40
0
 41
0
  0
VERTEX
  8
0
 10
2.18246
 20
0.215549
 30
0.0
 40
0
 41
0
  0
VERTEX
  8
0
 10
2.13678
 20
0.215549
 30
0.0
 40
0
 41
0
  0
VERTEX
  8
0
 10
2.13678
 20
0.169868
 30
0.0
 40
0
 41
0
  0
VERTEX
  8
0
 10
2.14681
 20
0.169868
 30
0.0
 40
0
 41
0
  0
VERTEX
  8
0
 10
2.14681
 20
0.061415
 30
0.0
 40
0
 41
0
  0
VERTEX
  8
0
 10
2.04736
 20
0.061415
 30
0.0
 40
0
 41
0
  0
VERTEX
  8
0
 10
2.04736
 20
0.395128
 30
0.0
 40
0
 41
0
  0
VERTEX
  8
0
 10
1.96149
 20
0.481011
 30
0.0
 40
0
 41
0
  0
VERTEX
  8
0
 10
1.96853
 20
0.488118
 30
0.0
 40
0
 41
0
  0
VERTEX
  8
0
 10
1.93631
 20
0.520344
 30
0.0
 40
0
 41
0
  0
SEQEND
 8
0
  0
ENDSEC
  0
EOF
