  0
SECTION
  2
HEADER
  9
$ACADVER
  1
AC1009
  9
$FILLMODE
 70
 0
  9
$SPLFRAME
 70
 1
  9
$EXTMIN
 10
0
 20
0
 30
0.0
  9
$EXTMAX
 10
41.6667
 20
41.6667
 30
0.0
  0
ENDSEC
  0
SECTION
  2
TABLES
  0
TABLE
  2
LAYER
 70
1
  0
LAYER
  2
0
 70
     0
 62
     7
  6
CONTINUOUS
  0
ENDTAB
  0
ENDSEC
  0
SECTION
  2
ENTITIES
  0
POLYLINE
  8
0
 62
     3
 66
     1
 10
0
 20
0
 30
0.0
 70
     1
 40
0
 41
0
  0
VERTEX
  8
0
 10
0.384819
 20
2.06494
 30
0.0
 40
0
 41
0
  0
VERTEX
  8
0
 10
0.310331
 20
1.98508
 30
0.0
 40
0
 41
0
  0
VERTEX
  8
0
 10
0.242458
 20
1.98367
 30
0.0
 40
0
 41
0
  0
VERTEX
  8
0
 10
0.0917426
 20
1.83296
 30
0.0
 40
0
 41
0
  0
VERTEX
  8
0
 10
0.0917426
 20
1.73753
 30
0.0
 40
0
 41
0
  0
VERTEX
  8
0
 10
0.123969
 20
1.73753
 30
0.0
 40
0
 41
0
  0
VERTEX
  8
0
 10
0.123969
 20
1.81961
 30
0.0
 40
0
 41
0
  0
VERTEX
  8
0
 10
0.256076
 20
1.95171
 30
0.0
 40
0
 41
0
  0
VERTEX
  8
0
 10
0.324544
 20
1.95301
 30
0.0
 40
0
 41
0
  0
VERTEX
  8
0
 10
0.398817
 20
2.03271
 30
0.0
 40
0
 41
0
  0
VERTEX
  8
0
 10
0.508897
 20
2.03271
 30
0.0
 40
0
 41
0
  0
VERTEX
  8
0
 10
0.691081
 20
1.85053
 30
0.0
 40
0
 41
0
  0
VERTEX
  8
0
 10
0.691081
 20
1.73742
 30
0.0
 40
0
 41
0
  0
VERTEX
  8
0
 10
0.565972
 20
1.73742
 30
0.0
 40
0
 41
0
  0
VERTEX
  8
0
 10
0.565972
 20
1.7985
 30
0.0
 40
0
 41
0
  0
VERTEX
  8
0
 10
0.456976
 20
1.90761
 30
0.0
 40
0
 41
0
  0
VERTEX
  8
0
 10
0.279025
 20
1.90761
 30
0.0
 40
0
 41
0
  0
VERTEX
  8
0
 10
0.169922
 20
1.7985
 30
0.0
 40
0
 41
0
  0
VERTEX
  8
0
 10
0.169922
 20
1.54318
 30
0.0
 40
0
 41
0
  0
VERTEX
  8
0
 10
0.202149
 20
1.54318
 30
0.0
 40
0
 41
0
  0
VERTEX
  8
0
 10
0.202149
 20
1.78515
 30
0.0
 40
0
 41
0
  0
VERTEX
  8
0
 10
0.292372
 20
1.87532
 30
0.0
 40
0
 41
0
  0
VERTEX
  8
0
 10
0.443631
 20
1.87532
 30
0.0
 40
0
 41
0
  0
VERTEX
  8
0
 10
0.5338
 20
1.78515
 30
0.0
 40
0
 41
0
  0
VERTEX
  8
0
 10
0.5338
 20
1.70518
 30
0.0
 40
0
 41
0
  0
VERTEX
  8
0
 10
0.723361
 20
1.70518
 30
0.0
 40
0
 41
0
  0
VERTEX
  8
0
 10
0.723361
 20
1.86382
 30
0.0
 40
0
 41
0
  0
VERTEX
  8
0
 10
0.522299
 20
2.06494
 30
0.0
 40
0
 41
0
  0
VERTEX
  8
0
 10
0.384819
 20
2.06494
 30
0.0
 40
0
 41
0
  0
SEQEND
 8
0
  0
POLYLINE
  8
0
 62
     3
 66
     1
 10
0
 20
0
 30
0.0
 70
     1
 40
0
 41
0
  0
VERTEX
  8
0
 10
0.214789
 20
1.51247
 30
0.0
 40
0
 41
0
  0
VERTEX
  8
0
 10
0.157335
 20
1.51247
 30
0.0
 40
0
 41
0
  0
VERTEX
  8
0
 10
0.157335
 20
1.56987
 30
0.0
 40
0
 41
0
  0
VERTEX
  8
0
 10
0.214789
 20
1.56987
 30
0.0
 40
0
 41
0
  0
VERTEX
  8
0
 10
0.214789
 20
1.51247
 30
0.0
 40
0
 41
0
  0
SEQEND
 8
0
  0
POLYLINE
  8
0
 62
     3
 66
     1
 10
0
 20
0
 30
0.0
 70
     1
 40
0
 41
0
  0
VERTEX
  8
0
 10
0.0791558
 20
1.72601
 30
0.0
 40
0
 41
0
  0
VERTEX
  8
0
 10
0.136556
 20
1.72601
 30
0.0
 40
0
 41
0
  0
VERTEX
  8
0
 10
0.136556
 20
1.78347
 30
0.0
 40
0
 41
0
  0
VERTEX
  8
0
 10
0.0791558
 20
1.78347
 30
0.0
 40
0
 41
0
  0
VERTEX
  8
0
 10
0.0791558
 20
1.72601
 30
0.0
 40
0
 41
0
  0
SEQEND
 8
0
  0
POLYLINE
  8
0
 62
     3
 66
     1
 10
0
 20
0
 30
0.0
 70
     1
 40
0
 41
0
  0
VERTEX
  8
0
 10
0.643554
 20
1.79878
 30
0.0
 40
0
 41
0
  0
VERTEX
  8
0
 10
0.611328
 20
1.79878
 30
0.0
 40
0
 41
0
  0
VERTEX
  8
0
 10
0.611328
 20
1.82161
 30
0.0
 40
0
 41
0
  0
VERTEX
  8
0
 10
0.479546
 20
1.95404
 30
0.0
 40
0
 41
0
  0
VERTEX
  8
0
 10
0.426921
 20
1.95404
 30
0.0
 40
0
 41
0
  0
VERTEX
  8
0
 10
0.426921
 20
1.98633
 30
0.0
 40
0
 41
0
  0
VERTEX
  8
0
 10
0.493001
 20
1.98633
 30
0.0
 40
0
 41
0
  0
VERTEX
  8
0
 10
0.643554
 20
1.8349
 30
0.0
 40
0
 41
0
  0
VERTEX
  8
0
 10
0.643554
 20
1.79878
 30
0.0
 40
0
 41
0
  0
SEQEND
 8
0
  0
POLYLINE
  8
0
 62
     3
 66
     1
 10
0
 20
0
 30
0.0
 70
     1
 40
0
 41
0
  0
VERTEX
  8
0
 10
0.399631
 20
1.99892
 30
0.0
 40
0
 41
0
  0
VERTEX
  8
0
 10
0.457086
 20
1.99892
 30
0.0
 40
0
 41
0
  0
VERTEX
  8
0
 10
0.457086
 20
1.94146
 30
0.0
 40
0
 41
0
  0
VERTEX
  8
0
 10
0.399631
 20
1.94146
 30
0.0
 40
0
 41
0
  0
VERTEX
  8
0
 10
0.399631
 20
1.99892
 30
0.0
 40
0
 41
0
  0
SEQEND
 8
0
  0
POLYLINE
  8
0
 62
     3
 66
     1
 10
0
 20
0
 30
0.0
 70
     1
 40
0
 41
0
  0
VERTEX
  8
0
 10
0.598742
 20
1.77149
 30
0.0
 40
0
 41
0
  0
VERTEX
  8
0
 10
0.656196
 20
1.77149
 30
0.0
 40
0
 41
0
  0
VERTEX
  8
0
 10
0.656196
 20
1.82894
 30
0.0
 40
0
 41
0
  0
VERTEX
  8
0
 10
0.598742
 20
1.82894
 30
0.0
 40
0
 41
0
  0
VERTEX
  8
0
 10
0.598742
 20
1.77149
 30
0.0
 40
0
 41
0
  0
SEQEND
 8
0
  0
POLYLINE
  8
0
 62
     3
 66
     1
 10
0
 20
0
 30
0.0
 70
     1
 40
0
 41
0
  0
VERTEX
  8
0
 10
0.0125868
 20
1.595
 30
0.0
 40
0
 41
0
  0
VERTEX
  8
0
 10
0.0125868
 20
1.30979
 30
0.0
 40
0
 41
0
  0
VERTEX
  8
0
 10
0.21365
 20
1.10872
 30
0.0
 40
0
 41
0
  0
VERTEX
  8
0
 10
0.518935
 20
1.10872
 30
0.0
 40
0
 41
0
  0
VERTEX
  8
0
 10
0.723361
 20
1.30973
 30
0.0
 40
0
 41
0
  0
VERTEX
  8
0
 10
0.723361
 20
1.47076
 30
0.0
 40
0
 41
0
  0
VERTEX
  8
0
 10
0.5338
 20
1.47076
 30
0.0
 40
0
 41
0
  0
VERTEX
  8
0
 10
0.5338
 20
1.38851
 30
0.0
 40
0
 41
0
  0
VERTEX
  8
0
 10
0.443631
 20
1.29834
 30
0.0
 40
0
 41
0
  0
VERTEX
  8
0
 10
0.292372
 20
1.29834
 30
0.0
 40
0
 41
0
  0
VERTEX
  8
0
 10
0.202203
 20
1.38851
 30
0.0
 40
0
 41
0
  0
VERTEX
  8
0
 10
0.202203
 20
1.45111
 30
0.0
 40
0
 41
0
  0
VERTEX
  8
0
 10
0.169922
 20
1.45111
 30
0.0
 40
0
 41
0
  0
VERTEX
  8
0
 10
0.169922
 20
1.37516
 30
0.0
 40
0
 41
0
  0
VERTEX
  8
0
 10
0.278971
 20
1.26606
 30
0.0
 40
0
 41
0
  0
VERTEX
  8
0
 10
0.456976
 20
1.26606
 30
0.0
 40
0
 41
0
  0
VERTEX
  8
0
 10
0.566026
 20
1.37516
 30
0.0
 40
0
 41
0
  0
VERTEX
  8
0
 10
0.566026
 20
1.43853
 30
0.0
 40
0
 41
0
  0
VERTEX
  8
0
 10
0.691081
 20
1.43853
 30
0.0
 40
0
 41
0
  0
VERTEX
  8
0
 10
0.691081
 20
1.32319
 30
0.0
 40
0
 41
0
  0
VERTEX
  8
0
 10
0.505751
 20
1.14095
 30
0.0
 40
0
 41
0
  0
VERTEX
  8
0
 10
0.227051
 20
1.14095
 30
0.0
 40
0
 41
0
  0
VERTEX
  8
0
 10
0.0448133
 20
1.32313
 30
0.0
 40
0
 41
0
  0
VERTEX
  8
0
 10
0.0448133
 20
1.595
 30
0.0
 40
0
 41
0
  0
VERTEX
  8
0
 10
0.0125868
 20
1.595
 30
0.0
 40
0
 41
0
  0
SEQEND
 8
0
  0
POLYLINE
  8
0
 62
     3
 66
     1
 10
0
 20
0
 30
0.0
 70
     1
 40
0
 41
0
  0
VERTEX
  8
0
 10
0
 20
1.56489
 30
0.0
 40
0
 41
0
  0
VERTEX
  8
0
 10
0.0574544
 20
1.56489
 30
0.0
 40
0
 41
0
  0
VERTEX
  8
0
 10
0.0574544
 20
1.62235
 30
0.0
 40
0
 41
0
  0
VERTEX
  8
0
 10
0
 20
1.62235
 30
0.0
 40
0
 41
0
  0
VERTEX
  8
0
 10
0
 20
1.56489
 30
0.0
 40
0
 41
0
  0
SEQEND
 8
0
  0
POLYLINE
  8
0
 62
     3
 66
     1
 10
0
 20
0
 30
0.0
 70
     1
 40
0
 41
0
  0
VERTEX
  8
0
 10
0.214789
 20
1.47835
 30
0.0
 40
0
 41
0
  0
VERTEX
  8
0
 10
0.157335
 20
1.47835
 30
0.0
 40
0
 41
0
  0
VERTEX
  8
0
 10
0.157335
 20
1.42096
 30
0.0
 40
0
 41
0
  0
VERTEX
  8
0
 10
0.214789
 20
1.42096
 30
0.0
 40
0
 41
0
  0
VERTEX
  8
0
 10
0.214789
 20
1.47835
 30
0.0
 40
0
 41
0
  0
SEQEND
 8
0
  0
POLYLINE
  8
0
 62
     3
 66
     1
 10
0
 20
0
 30
0.0
 70
     1
 40
0
 41
0
  0
VERTEX
  8
0
 10
0.418674
 20
1.18538
 30
0.0
 40
0
 41
0
  0
VERTEX
  8
0
 10
0.418457
 20
1.21756
 30
0.0
 40
0
 41
0
  0
VERTEX
  8
0
 10
0.473415
 20
1.21826
 30
0.0
 40
0
 41
0
  0
VERTEX
  8
0
 10
0.611436
 20
1.35596
 30
0.0
 40
0
 41
0
  0
VERTEX
  8
0
 10
0.611546
 20
1.37299
 30
0.0
 40
0
 41
0
  0
VERTEX
  8
0
 10
0.643718
 20
1.37283
 30
0.0
 40
0
 41
0
  0
VERTEX
  8
0
 10
0.643554
 20
1.34261
 30
0.0
 40
0
 41
0
  0
VERTEX
  8
0
 10
0.486871
 20
1.18614
 30
0.0
 40
0
 41
0
  0
VERTEX
  8
0
 10
0.418674
 20
1.18538
 30
0.0
 40
0
 41
0
  0
SEQEND
 8
0
  0
POLYLINE
  8
0
 62
     3
 66
     1
 10
0
 20
0
 30
0.0
 70
     1
 40
0
 41
0
  0
VERTEX
  8
0
 10
0.391547
 20
1.17253
 30
0.0
 40
0
 41
0
  0
VERTEX
  8
0
 10
0.39106
 20
1.22998
 30
0.0
 40
0
 41
0
  0
VERTEX
  8
0
 10
0.448514
 20
1.23047
 30
0.0
 40
0
 41
0
  0
VERTEX
  8
0
 10
0.448947
 20
1.17296
 30
0.0
 40
0
 41
0
  0
VERTEX
  8
0
 10
0.391547
 20
1.17253
 30
0.0
 40
0
 41
0
  0
SEQEND
 8
0
  0
POLYLINE
  8
0
 62
     3
 66
     1
 10
0
 20
0
 30
0.0
 70
     1
 40
0
 41
0
  0
VERTEX
  8
0
 10
0.656467
 20
1.40007
 30
0.0
 40
0
 41
0
  0
VERTEX
  8
0
 10
0.599067
 20
1.40033
 30
0.0
 40
0
 41
0
  0
VERTEX
  8
0
 10
0.598742
 20
1.34288
 30
0.0
 40
0
 41
0
  0
VERTEX
  8
0
 10
0.656196
 20
1.34261
 30
0.0
 40
0
 41
0
  0
VERTEX
  8
0
 10
0.656467
 20
1.40007
 30
0.0
 40
0
 41
0
  0
SEQEND
 8
0
  0
POLYLINE
  8
0
 62
     3
 66
     1
 10
0
 20
0
 30
0.0
 70
     1
 40
0
 41
0
  0
VERTEX
  8
0
 10
0.21365
 20
2.06494
 30
0.0
 40
0
 41
0
  0
VERTEX
  8
0
 10
0.0125868
 20
1.86382
 30
0.0
 40
0
 41
0
  0
VERTEX
  8
0
 10
0.0125868
 20
1.69624
 30
0.0
 40
0
 41
0
  0
VERTEX
  8
0
 10
0.0917426
 20
1.61572
 30
0.0
 40
0
 41
0
  0
VERTEX
  8
0
 10
0.0917426
 20
1.34012
 30
0.0
 40
0
 41
0
  0
VERTEX
  8
0
 10
0.249403
 20
1.1837
 30
0.0
 40
0
 41
0
  0
VERTEX
  8
0
 10
0.325467
 20
1.18457
 30
0.0
 40
0
 41
0
  0
VERTEX
  8
0
 10
0.325196
 20
1.2168
 30
0.0
 40
0
 41
0
  0
VERTEX
  8
0
 10
0.262587
 20
1.21604
 30
0.0
 40
0
 41
0
  0
VERTEX
  8
0
 10
0.123969
 20
1.35357
 30
0.0
 40
0
 41
0
  0
VERTEX
  8
0
 10
0.123969
 20
1.62896
 30
0.0
 40
0
 41
0
  0
VERTEX
  8
0
 10
0.0448133
 20
1.70947
 30
0.0
 40
0
 41
0
  0
VERTEX
  8
0
 10
0.0448133
 20
1.85053
 30
0.0
 40
0
 41
0
  0
VERTEX
  8
0
 10
0.227051
 20
2.03271
 30
0.0
 40
0
 41
0
  0
VERTEX
  8
0
 10
0.255588
 20
2.03271
 30
0.0
 40
0
 41
0
  0
VERTEX
  8
0
 10
0.255588
 20
2.06494
 30
0.0
 40
0
 41
0
  0
VERTEX
  8
0
 10
0.21365
 20
2.06494
 30
0.0
 40
0
 41
0
  0
SEQEND
 8
0
  0
POLYLINE
  8
0
 62
     3
 66
     1
 10
0
 20
0
 30
0.0
 70
     1
 40
0
 41
0
  0
VERTEX
  8
0
 10
0.250976
 20
2.02007
 30
0.0
 40
0
 41
0
  0
VERTEX
  8
0
 10
0.308431
 20
2.02007
 30
0.0
 40
0
 41
0
  0
VERTEX
  8
0
 10
0.308431
 20
2.07753
 30
0.0
 40
0
 41
0
  0
VERTEX
  8
0
 10
0.250976
 20
2.07753
 30
0.0
 40
0
 41
0
  0
VERTEX
  8
0
 10
0.250976
 20
2.02007
 30
0.0
 40
0
 41
0
  0
SEQEND
 8
0
  0
POLYLINE
  8
0
 62
     3
 66
     1
 10
0
 20
0
 30
0.0
 70
     1
 40
0
 41
0
  0
VERTEX
  8
0
 10
0.352865
 20
1.1722
 30
0.0
 40
0
 41
0
  0
VERTEX
  8
0
 10
0.352376
 20
1.2296
 30
0.0
 40
0
 41
0
  0
VERTEX
  8
0
 10
0.294976
 20
1.22911
 30
0.0
 40
0
 41
0
  0
VERTEX
  8
0
 10
0.29541
 20
1.17171
 30
0.0
 40
0
 41
0
  0
VERTEX
  8
0
 10
0.352865
 20
1.1722
 30
0.0
 40
0
 41
0
  0
SEQEND
 8
0
  0
POLYLINE
  8
0
 62
     3
 66
     1
 10
0
 20
0
 30
0.0
 70
     1
 40
0
 41
0
  0
VERTEX
  8
0
 10
1.24767
 20
2.06494
 30
0.0
 40
0
 41
0
  0
VERTEX
  8
0
 10
1.24767
 20
1.87543
 30
0.0
 40
0
 41
0
  0
VERTEX
  8
0
 10
1.50825
 20
1.87543
 30
0.0
 40
0
 41
0
  0
VERTEX
  8
0
 10
1.50825
 20
1.10872
 30
0.0
 40
0
 41
0
  0
VERTEX
  8
0
 10
1.69781
 20
1.10872
 30
0.0
 40
0
 41
0
  0
VERTEX
  8
0
 10
1.69781
 20
1.5485
 30
0.0
 40
0
 41
0
  0
VERTEX
  8
0
 10
1.61919
 20
1.62711
 30
0.0
 40
0
 41
0
  0
VERTEX
  8
0
 10
1.61919
 20
1.98753
 30
0.0
 40
0
 41
0
  0
VERTEX
  8
0
 10
1.33865
 20
1.98753
 30
0.0
 40
0
 41
0
  0
VERTEX
  8
0
 10
1.33865
 20
1.95529
 30
0.0
 40
0
 41
0
  0
VERTEX
  8
0
 10
1.58697
 20
1.95529
 30
0.0
 40
0
 41
0
  0
VERTEX
  8
0
 10
1.58697
 20
1.61372
 30
0.0
 40
0
 41
0
  0
VERTEX
  8
0
 10
1.66564
 20
1.53515
 30
0.0
 40
0
 41
0
  0
VERTEX
  8
0
 10
1.66564
 20
1.14095
 30
0.0
 40
0
 41
0
  0
VERTEX
  8
0
 10
1.54047
 20
1.14095
 30
0.0
 40
0
 41
0
  0
VERTEX
  8
0
 10
1.54047
 20
1.90761
 30
0.0
 40
0
 41
0
  0
VERTEX
  8
0
 10
1.27989
 20
1.90761
 30
0.0
 40
0
 41
0
  0
VERTEX
  8
0
 10
1.27989
 20
2.03271
 30
0.0
 40
0
 41
0
  0
VERTEX
  8
0
 10
1.92622
 20
2.03271
 30
0.0
 40
0
 41
0
  0
VERTEX
  8
0
 10
1.92622
 20
1.90761
 30
0.0
 40
0
 41
0
  0
VERTEX
  8
0
 10
1.66564
 20
1.90761
 30
0.0
 40
0
 41
0
  0
VERTEX
  8
0
 10
1.66564
 20
1.65408
 30
0.0
 40
0
 41
0
  0
VERTEX
  8
0
 10
1.69781
 20
1.65408
 30
0.0
 40
0
 41
0
  0
VERTEX
  8
0
 10
1.69781
 20
1.87543
 30
0.0
 40
0
 41
0
  0
VERTEX
  8
0
 10
1.95844
 20
1.87543
 30
0.0
 40
0
 41
0
  0
VERTEX
  8
0
 10
1.95844
 20
2.06494
 30
0.0
 40
0
 41
0
  0
VERTEX
  8
0
 10
1.24767
 20
2.06494
 30
0.0
 40
0
 41
0
  0
SEQEND
 8
0
  0
POLYLINE
  8
0
 62
     3
 66
     1
 10
0
 20
0
 30
0.0
 70
     1
 40
0
 41
0
  0
VERTEX
  8
0
 10
1.31136
 20
2.00017
 30
0.0
 40
0
 41
0
  0
VERTEX
  8
0
 10
1.36882
 20
2.00017
 30
0.0
 40
0
 41
0
  0
VERTEX
  8
0
 10
1.36882
 20
1.94265
 30
0.0
 40
0
 41
0
  0
VERTEX
  8
0
 10
1.31136
 20
1.94265
 30
0.0
 40
0
 41
0
  0
VERTEX
  8
0
 10
1.31136
 20
2.00017
 30
0.0
 40
0
 41
0
  0
SEQEND
 8
0
  0
POLYLINE
  8
0
 62
     3
 66
     1
 10
0
 20
0
 30
0.0
 70
     1
 40
0
 41
0
  0
VERTEX
  8
0
 10
1.653
 20
1.62679
 30
0.0
 40
0
 41
0
  0
VERTEX
  8
0
 10
1.71039
 20
1.62679
 30
0.0
 40
0
 41
0
  0
VERTEX
  8
0
 10
1.71039
 20
1.68431
 30
0.0
 40
0
 41
0
  0
VERTEX
  8
0
 10
1.653
 20
1.68431
 30
0.0
 40
0
 41
0
  0
VERTEX
  8
0
 10
1.653
 20
1.62679
 30
0.0
 40
0
 41
0
  0
SEQEND
 8
0
  0
POLYLINE
  8
0
 62
     3
 66
     1
 10
0
 20
0
 30
0.0
 70
     1
 40
0
 41
0
  0
VERTEX
  8
0
 10
1.61914
 20
1.19645
 30
0.0
 40
0
 41
0
  0
VERTEX
  8
0
 10
1.58692
 20
1.19645
 30
0.0
 40
0
 41
0
  0
VERTEX
  8
0
 10
1.58692
 20
1.51594
 30
0.0
 40
0
 41
0
  0
VERTEX
  8
0
 10
1.61914
 20
1.51594
 30
0.0
 40
0
 41
0
  0
VERTEX
  8
0
 10
1.61914
 20
1.19645
 30
0.0
 40
0
 41
0
  0
SEQEND
 8
0
  0
POLYLINE
  8
0
 62
     3
 66
     1
 10
0
 20
0
 30
0.0
 70
     1
 40
0
 41
0
  0
VERTEX
  8
0
 10
1.57433
 20
1.54324
 30
0.0
 40
0
 41
0
  0
VERTEX
  8
0
 10
1.63178
 20
1.54324
 30
0.0
 40
0
 41
0
  0
VERTEX
  8
0
 10
1.63178
 20
1.48583
 30
0.0
 40
0
 41
0
  0
VERTEX
  8
0
 10
1.57433
 20
1.48583
 30
0.0
 40
0
 41
0
  0
VERTEX
  8
0
 10
1.57433
 20
1.54324
 30
0.0
 40
0
 41
0
  0
SEQEND
 8
0
  0
POLYLINE
  8
0
 62
     3
 66
     1
 10
0
 20
0
 30
0.0
 70
     1
 40
0
 41
0
  0
VERTEX
  8
0
 10
1.57433
 20
1.16922
 30
0.0
 40
0
 41
0
  0
VERTEX
  8
0
 10
1.63178
 20
1.16922
 30
0.0
 40
0
 41
0
  0
VERTEX
  8
0
 10
1.63178
 20
1.22662
 30
0.0
 40
0
 41
0
  0
VERTEX
  8
0
 10
1.57433
 20
1.22662
 30
0.0
 40
0
 41
0
  0
VERTEX
  8
0
 10
1.57433
 20
1.16922
 30
0.0
 40
0
 41
0
  0
SEQEND
 8
0
  0
POLYLINE
  8
0
 62
     3
 66
     1
 10
0
 20
0
 30
0.0
 70
     1
 40
0
 41
0
  0
VERTEX
  8
0
 10
1.86404
 20
1.95529
 30
0.0
 40
0
 41
0
  0
VERTEX
  8
0
 10
1.69439
 20
1.95529
 30
0.0
 40
0
 41
0
  0
VERTEX
  8
0
 10
1.69439
 20
1.98753
 30
0.0
 40
0
 41
0
  0
VERTEX
  8
0
 10
1.86404
 20
1.98753
 30
0.0
 40
0
 41
0
  0
VERTEX
  8
0
 10
1.86404
 20
1.95529
 30
0.0
 40
0
 41
0
  0
SEQEND
 8
0
  0
POLYLINE
  8
0
 62
     3
 66
     1
 10
0
 20
0
 30
0.0
 70
     1
 40
0
 41
0
  0
VERTEX
  8
0
 10
1.89128
 20
1.94265
 30
0.0
 40
0
 41
0
  0
VERTEX
  8
0
 10
1.83382
 20
1.94265
 30
0.0
 40
0
 41
0
  0
VERTEX
  8
0
 10
1.83382
 20
2.00017
 30
0.0
 40
0
 41
0
  0
VERTEX
  8
0
 10
1.89128
 20
2.00017
 30
0.0
 40
0
 41
0
  0
VERTEX
  8
0
 10
1.89128
 20
1.94265
 30
0.0
 40
0
 41
0
  0
SEQEND
 8
0
  0
POLYLINE
  8
0
 62
     3
 66
     1
 10
0
 20
0
 30
0.0
 70
     1
 40
0
 41
0
  0
VERTEX
  8
0
 10
1.66704
 20
1.94265
 30
0.0
 40
0
 41
0
  0
VERTEX
  8
0
 10
1.7245
 20
1.94265
 30
0.0
 40
0
 41
0
  0
VERTEX
  8
0
 10
1.7245
 20
2.00017
 30
0.0
 40
0
 41
0
  0
VERTEX
  8
0
 10
1.66704
 20
2.00017
 30
0.0
 40
0
 41
0
  0
VERTEX
  8
0
 10
1.66704
 20
1.94265
 30
0.0
 40
0
 41
0
  0
SEQEND
 8
0
  0
POLYLINE
  8
0
 62
     3
 66
     1
 10
0
 20
0
 30
0.0
 70
     1
 40
0
 41
0
  0
VERTEX
  8
0
 10
2.65597
 20
2.06494
 30
0.0
 40
0
 41
0
  0
VERTEX
  8
0
 10
2.65597
 20
1.91737
 30
0.0
 40
0
 41
0
  0
VERTEX
  8
0
 10
2.60661
 20
1.86806
 30
0.0
 40
0
 41
0
  0
VERTEX
  8
0
 10
2.62944
 20
1.84532
 30
0.0
 40
0
 41
0
  0
VERTEX
  8
0
 10
2.68821
 20
1.90408
 30
0.0
 40
0
 41
0
  0
VERTEX
  8
0
 10
2.68821
 20
2.03271
 30
0.0
 40
0
 41
0
  0
VERTEX
  8
0
 10
2.81201
 20
2.03271
 30
0.0
 40
0
 41
0
  0
VERTEX
  8
0
 10
2.81201
 20
1.85346
 30
0.0
 40
0
 41
0
  0
VERTEX
  8
0
 10
2.51942
 20
1.56088
 30
0.0
 40
0
 41
0
  0
VERTEX
  8
0
 10
2.51942
 20
1.4266
 30
0.0
 40
0
 41
0
  0
VERTEX
  8
0
 10
2.44347
 20
1.35059
 30
0.0
 40
0
 41
0
  0
VERTEX
  8
0
 10
2.44347
 20
1.2022
 30
0.0
 40
0
 41
0
  0
VERTEX
  8
0
 10
2.47564
 20
1.2022
 30
0.0
 40
0
 41
0
  0
VERTEX
  8
0
 10
2.47564
 20
1.33724
 30
0.0
 40
0
 41
0
  0
VERTEX
  8
0
 10
2.55165
 20
1.41331
 30
0.0
 40
0
 41
0
  0
VERTEX
  8
0
 10
2.55165
 20
1.54753
 30
0.0
 40
0
 41
0
  0
VERTEX
  8
0
 10
2.84424
 20
1.84011
 30
0.0
 40
0
 41
0
  0
VERTEX
  8
0
 10
2.84424
 20
2.06494
 30
0.0
 40
0
 41
0
  0
VERTEX
  8
0
 10
2.65597
 20
2.06494
 30
0.0
 40
0
 41
0
  0
SEQEND
 8
0
  0
POLYLINE
  8
0
 62
     3
 66
     1
 10
0
 20
0
 30
0.0
 70
     1
 40
0
 41
0
  0
VERTEX
  8
0
 10
2.48828
 20
1.17491
 30
0.0
 40
0
 41
0
  0
VERTEX
  8
0
 10
2.43083
 20
1.17491
 30
0.0
 40
0
 41
0
  0
VERTEX
  8
0
 10
2.43083
 20
1.23231
 30
0.0
 40
0
 41
0
  0
VERTEX
  8
0
 10
2.48828
 20
1.23231
 30
0.0
 40
0
 41
0
  0
VERTEX
  8
0
 10
2.48828
 20
1.17491
 30
0.0
 40
0
 41
0
  0
SEQEND
 8
0
  0
POLYLINE
  8
0
 62
     3
 66
     1
 10
0
 20
0
 30
0.0
 70
     1
 40
0
 41
0
  0
VERTEX
  8
0
 10
2.57844
 20
1.85769
 30
0.0
 40
0
 41
0
  0
VERTEX
  8
0
 10
2.61903
 20
1.81706
 30
0.0
 40
0
 41
0
  0
VERTEX
  8
0
 10
2.65967
 20
1.85769
 30
0.0
 40
0
 41
0
  0
VERTEX
  8
0
 10
2.61903
 20
1.89828
 30
0.0
 40
0
 41
0
  0
VERTEX
  8
0
 10
2.57844
 20
1.85769
 30
0.0
 40
0
 41
0
  0
SEQEND
 8
0
  0
POLYLINE
  8
0
 62
     3
 66
     1
 10
0
 20
0
 30
0.0
 70
     1
 40
0
 41
0
  0
VERTEX
  8
0
 10
2.47657
 20
1.44775
 30
0.0
 40
0
 41
0
  0
VERTEX
  8
0
 10
2.44439
 20
1.44775
 30
0.0
 40
0
 41
0
  0
VERTEX
  8
0
 10
2.44439
 20
1.59353
 30
0.0
 40
0
 41
0
  0
VERTEX
  8
0
 10
2.56299
 20
1.71224
 30
0.0
 40
0
 41
0
  0
VERTEX
  8
0
 10
2.58583
 20
1.6894
 30
0.0
 40
0
 41
0
  0
VERTEX
  8
0
 10
2.47657
 20
1.58014
 30
0.0
 40
0
 41
0
  0
VERTEX
  8
0
 10
2.47657
 20
1.44775
 30
0.0
 40
0
 41
0
  0
SEQEND
 8
0
  0
POLYLINE
  8
0
 62
     3
 66
     1
 10
0
 20
0
 30
0.0
 70
     1
 40
0
 41
0
  0
VERTEX
  8
0
 10
2.5734
 20
1.7404
 30
0.0
 40
0
 41
0
  0
VERTEX
  8
0
 10
2.61404
 20
1.69976
 30
0.0
 40
0
 41
0
  0
VERTEX
  8
0
 10
2.5734
 20
1.65918
 30
0.0
 40
0
 41
0
  0
VERTEX
  8
0
 10
2.53276
 20
1.69976
 30
0.0
 40
0
 41
0
  0
VERTEX
  8
0
 10
2.5734
 20
1.7404
 30
0.0
 40
0
 41
0
  0
SEQEND
 8
0
  0
POLYLINE
  8
0
 62
     3
 66
     1
 10
0
 20
0
 30
0.0
 70
     1
 40
0
 41
0
  0
VERTEX
  8
0
 10
2.43175
 20
1.42046
 30
0.0
 40
0
 41
0
  0
VERTEX
  8
0
 10
2.48921
 20
1.42046
 30
0.0
 40
0
 41
0
  0
VERTEX
  8
0
 10
2.48921
 20
1.47786
 30
0.0
 40
0
 41
0
  0
VERTEX
  8
0
 10
2.43175
 20
1.47786
 30
0.0
 40
0
 41
0
  0
VERTEX
  8
0
 10
2.43175
 20
1.42046
 30
0.0
 40
0
 41
0
  0
SEQEND
 8
0
  0
POLYLINE
  8
0
 62
     3
 66
     1
 10
0
 20
0
 30
0.0
 70
     1
 40
0
 41
0
  0
VERTEX
  8
0
 10
2.07351
 20
2.06494
 30
0.0
 40
0
 41
0
  0
VERTEX
  8
0
 10
2.07351
 20
1.83876
 30
0.0
 40
0
 41
0
  0
VERTEX
  8
0
 10
2.16883
 20
1.74343
 30
0.0
 40
0
 41
0
  0
VERTEX
  8
0
 10
2.2825
 20
1.74343
 30
0.0
 40
0
 41
0
  0
VERTEX
  8
0
 10
2.38504
 20
1.64094
 30
0.0
 40
0
 41
0
  0
VERTEX
  8
0
 10
2.40776
 20
1.66374
 30
0.0
 40
0
 41
0
  0
VERTEX
  8
0
 10
2.29585
 20
1.77572
 30
0.0
 40
0
 41
0
  0
VERTEX
  8
0
 10
2.18218
 20
1.77572
 30
0.0
 40
0
 41
0
  0
VERTEX
  8
0
 10
2.10574
 20
1.85211
 30
0.0
 40
0
 41
0
  0
VERTEX
  8
0
 10
2.10574
 20
2.03271
 30
0.0
 40
0
 41
0
  0
VERTEX
  8
0
 10
2.23085
 20
2.03271
 30
0.0
 40
0
 41
0
  0
VERTEX
  8
0
 10
2.23085
 20
1.90408
 30
0.0
 40
0
 41
0
  0
VERTEX
  8
0
 10
2.45958
 20
1.6754
 30
0.0
 40
0
 41
0
  0
VERTEX
  8
0
 10
2.54818
 20
1.76406
 30
0.0
 40
0
 41
0
  0
VERTEX
  8
0
 10
2.65793
 20
1.76406
 30
0.0
 40
0
 41
0
  0
VERTEX
  8
0
 10
2.76546
 20
1.87337
 30
0.0
 40
0
 41
0
  0
VERTEX
  8
0
 10
2.76557
 20
1.97179
 30
0.0
 40
0
 41
0
  0
VERTEX
  8
0
 10
2.73335
 20
1.97185
 30
0.0
 40
0
 41
0
  0
VERTEX
  8
0
 10
2.73324
 20
1.88656
 30
0.0
 40
0
 41
0
  0
VERTEX
  8
0
 10
2.64447
 20
1.79628
 30
0.0
 40
0
 41
0
  0
VERTEX
  8
0
 10
2.53489
 20
1.79628
 30
0.0
 40
0
 41
0
  0
VERTEX
  8
0
 10
2.45958
 20
1.72097
 30
0.0
 40
0
 41
0
  0
VERTEX
  8
0
 10
2.26307
 20
1.91743
 30
0.0
 40
0
 41
0
  0
VERTEX
  8
0
 10
2.26307
 20
2.06494
 30
0.0
 40
0
 41
0
  0
VERTEX
  8
0
 10
2.07351
 20
2.06494
 30
0.0
 40
0
 41
0
  0
SEQEND
 8
0
  0
POLYLINE
  8
0
 62
     3
 66
     1
 10
0
 20
0
 30
0.0
 70
     1
 40
0
 41
0
  0
VERTEX
  8
0
 10
2.43604
 20
1.65338
 30
0.0
 40
0
 41
0
  0
VERTEX
  8
0
 10
2.3954
 20
1.61274
 30
0.0
 40
0
 41
0
  0
VERTEX
  8
0
 10
2.35476
 20
1.65338
 30
0.0
 40
0
 41
0
  0
VERTEX
  8
0
 10
2.3954
 20
1.69401
 30
0.0
 40
0
 41
0
  0
VERTEX
  8
0
 10
2.43604
 20
1.65338
 30
0.0
 40
0
 41
0
  0
SEQEND
 8
0
  0
POLYLINE
  8
0
 62
     3
 66
     1
 10
0
 20
0
 30
0.0
 70
     1
 40
0
 41
0
  0
VERTEX
  8
0
 10
2.77821
 20
1.99903
 30
0.0
 40
0
 41
0
  0
VERTEX
  8
0
 10
2.72076
 20
1.99918
 30
0.0
 40
0
 41
0
  0
VERTEX
  8
0
 10
2.72076
 20
1.94168
 30
0.0
 40
0
 41
0
  0
VERTEX
  8
0
 10
2.77815
 20
1.94162
 30
0.0
 40
0
 41
0
  0
VERTEX
  8
0
 10
2.77821
 20
1.99903
 30
0.0
 40
0
 41
0
  0
SEQEND
 8
0
  0
POLYLINE
  8
0
 62
     3
 66
     1
 10
0
 20
0
 30
0.0
 70
     1
 40
0
 41
0
  0
VERTEX
  8
0
 10
2.55431
 20
1.10878
 30
0.0
 40
0
 41
0
  0
VERTEX
  8
0
 10
2.36481
 20
1.10878
 30
0.0
 40
0
 41
0
  0
VERTEX
  8
0
 10
2.36481
 20
1.54753
 30
0.0
 40
0
 41
0
  0
VERTEX
  8
0
 10
2.24479
 20
1.66749
 30
0.0
 40
0
 41
0
  0
VERTEX
  8
0
 10
2.26758
 20
1.69026
 30
0.0
 40
0
 41
0
  0
VERTEX
  8
0
 10
2.39697
 20
1.56088
 30
0.0
 40
0
 41
0
  0
VERTEX
  8
0
 10
2.39697
 20
1.14095
 30
0.0
 40
0
 41
0
  0
VERTEX
  8
0
 10
2.52214
 20
1.14095
 30
0.0
 40
0
 41
0
  0
VERTEX
  8
0
 10
2.52214
 20
1.30767
 30
0.0
 40
0
 41
0
  0
VERTEX
  8
0
 10
2.55431
 20
1.30767
 30
0.0
 40
0
 41
0
  0
VERTEX
  8
0
 10
2.55431
 20
1.10878
 30
0.0
 40
0
 41
0
  0
SEQEND
 8
0
  0
POLYLINE
  8
0
 62
     3
 66
     1
 10
0
 20
0
 30
0.0
 70
     1
 40
0
 41
0
  0
VERTEX
  8
0
 10
2.21664
 20
1.6779
 30
0.0
 40
0
 41
0
  0
VERTEX
  8
0
 10
2.25722
 20
1.71847
 30
0.0
 40
0
 41
0
  0
VERTEX
  8
0
 10
2.29785
 20
1.6779
 30
0.0
 40
0
 41
0
  0
VERTEX
  8
0
 10
2.25722
 20
1.63726
 30
0.0
 40
0
 41
0
  0
VERTEX
  8
0
 10
2.21664
 20
1.6779
 30
0.0
 40
0
 41
0
  0
SEQEND
 8
0
  0
POLYLINE
  8
0
 62
     3
 66
     1
 10
0
 20
0
 30
0.0
 70
     1
 40
0
 41
0
  0
VERTEX
  8
0
 10
2.56689
 20
1.33491
 30
0.0
 40
0
 41
0
  0
VERTEX
  8
0
 10
2.5095
 20
1.33491
 30
0.0
 40
0
 41
0
  0
VERTEX
  8
0
 10
2.5095
 20
1.27745
 30
0.0
 40
0
 41
0
  0
VERTEX
  8
0
 10
2.56689
 20
1.27745
 30
0.0
 40
0
 41
0
  0
VERTEX
  8
0
 10
2.56689
 20
1.33491
 30
0.0
 40
0
 41
0
  0
SEQEND
 8
0
  0
POLYLINE
  8
0
 62
     3
 66
     1
 10
0
 20
0
 30
0.0
 70
     1
 40
0
 41
0
  0
VERTEX
  8
0
 10
2.20589
 20
1.82129
 30
0.0
 40
0
 41
0
  0
VERTEX
  8
0
 10
2.1511
 20
1.87608
 30
0.0
 40
0
 41
0
  0
VERTEX
  8
0
 10
2.1511
 20
1.97179
 30
0.0
 40
0
 41
0
  0
VERTEX
  8
0
 10
2.18326
 20
1.97179
 30
0.0
 40
0
 41
0
  0
VERTEX
  8
0
 10
2.18326
 20
1.88943
 30
0.0
 40
0
 41
0
  0
VERTEX
  8
0
 10
2.22868
 20
1.84407
 30
0.0
 40
0
 41
0
  0
VERTEX
  8
0
 10
2.20589
 20
1.82129
 30
0.0
 40
0
 41
0
  0
SEQEND
 8
0
  0
POLYLINE
  8
0
 62
     3
 66
     1
 10
0
 20
0
 30
0.0
 70
     1
 40
0
 41
0
  0
VERTEX
  8
0
 10
2.13846
 20
1.99908
 30
0.0
 40
0
 41
0
  0
VERTEX
  8
0
 10
2.1959
 20
1.99908
 30
0.0
 40
0
 41
0
  0
VERTEX
  8
0
 10
2.1959
 20
1.94168
 30
0.0
 40
0
 41
0
  0
VERTEX
  8
0
 10
2.13846
 20
1.94168
 30
0.0
 40
0
 41
0
  0
VERTEX
  8
0
 10
2.13846
 20
1.99908
 30
0.0
 40
0
 41
0
  0
SEQEND
 8
0
  0
POLYLINE
  8
0
 62
     3
 66
     1
 10
0
 20
0
 30
0.0
 70
     1
 40
0
 41
0
  0
VERTEX
  8
0
 10
2.21625
 20
1.79308
 30
0.0
 40
0
 41
0
  0
VERTEX
  8
0
 10
2.25689
 20
1.83371
 30
0.0
 40
0
 41
0
  0
VERTEX
  8
0
 10
2.21625
 20
1.87429
 30
0.0
 40
0
 41
0
  0
VERTEX
  8
0
 10
2.17567
 20
1.83371
 30
0.0
 40
0
 41
0
  0
VERTEX
  8
0
 10
2.21625
 20
1.79308
 30
0.0
 40
0
 41
0
  0
SEQEND
 8
0
  0
POLYLINE
  8
0
 62
     3
 66
     1
 10
0
 20
0
 30
0.0
 70
     1
 40
0
 41
0
  0
VERTEX
  8
0
 10
0.320258
 20
0.168078
 30
0.0
 40
0
 41
0
  0
VERTEX
  8
0
 10
0.231282
 20
0.168078
 30
0.0
 40
0
 41
0
  0
VERTEX
  8
0
 10
0.231282
 20
0.934733
 30
0.0
 40
0
 41
0
  0
VERTEX
  8
0
 10
0.106174
 20
0.934733
 30
0.0
 40
0
 41
0
  0
VERTEX
  8
0
 10
0.106174
 20
0.508518
 30
0.0
 40
0
 41
0
  0
VERTEX
  8
0
 10
0.0738932
 20
0.508518
 30
0.0
 40
0
 41
0
  0
VERTEX
  8
0
 10
0.0738932
 20
0.96696
 30
0.0
 40
0
 41
0
  0
VERTEX
  8
0
 10
0.263456
 20
0.96696
 30
0.0
 40
0
 41
0
  0
VERTEX
  8
0
 10
0.263456
 20
0.200358
 30
0.0
 40
0
 41
0
  0
VERTEX
  8
0
 10
0.320258
 20
0.200358
 30
0.0
 40
0
 41
0
  0
VERTEX
  8
0
 10
0.320258
 20
0.168078
 30
0.0
 40
0
 41
0
  0
SEQEND
 8
0
  0
POLYLINE
  8
0
 62
     3
 66
     1
 10
0
 20
0
 30
0.0
 70
     1
 40
0
 41
0
  0
VERTEX
  8
0
 10
0.347547
 20
0.155544
 30
0.0
 40
0
 41
0
  0
VERTEX
  8
0
 10
0.290147
 20
0.155544
 30
0.0
 40
0
 41
0
  0
VERTEX
  8
0
 10
0.290147
 20
0.212944
 30
0.0
 40
0
 41
0
  0
VERTEX
  8
0
 10
0.347547
 20
0.212944
 30
0.0
 40
0
 41
0
  0
VERTEX
  8
0
 10
0.347547
 20
0.155544
 30
0.0
 40
0
 41
0
  0
SEQEND
 8
0
  0
POLYLINE
  8
0
 62
     3
 66
     1
 10
0
 20
0
 30
0.0
 70
     1
 40
0
 41
0
  0
VERTEX
  8
0
 10
0.0613064
 20
0.481228
 30
0.0
 40
0
 41
0
  0
VERTEX
  8
0
 10
0.118761
 20
0.481228
 30
0.0
 40
0
 41
0
  0
VERTEX
  8
0
 10
0.118761
 20
0.538629
 30
0.0
 40
0
 41
0
  0
VERTEX
  8
0
 10
0.0613064
 20
0.538629
 30
0.0
 40
0
 41
0
  0
VERTEX
  8
0
 10
0.0613064
 20
0.481228
 30
0.0
 40
0
 41
0
  0
SEQEND
 8
0
  0
POLYLINE
  8
0
 62
     3
 66
     1
 10
0
 20
0
 30
0.0
 70
     1
 40
0
 41
0
  0
VERTEX
  8
0
 10
0.750597
 20
0.0827908
 30
0.0
 40
0
 41
0
  0
VERTEX
  8
0
 10
0.463867
 20
0.0827908
 30
0.0
 40
0
 41
0
  0
VERTEX
  8
0
 10
0.463867
 20
0.115017
 30
0.0
 40
0
 41
0
  0
VERTEX
  8
0
 10
0.750597
 20
0.115017
 30
0.0
 40
0
 41
0
  0
VERTEX
  8
0
 10
0.750597
 20
0.0827908
 30
0.0
 40
0
 41
0
  0
SEQEND
 8
0
  0
POLYLINE
  8
0
 62
     3
 66
     1
 10
0
 20
0
 30
0.0
 70
     1
 40
0
 41
0
  0
VERTEX
  8
0
 10
0.436578
 20
0.127604
 30
0.0
 40
0
 41
0
  0
VERTEX
  8
0
 10
0.494032
 20
0.127604
 30
0.0
 40
0
 41
0
  0
VERTEX
  8
0
 10
0.494032
 20
0.0701497
 30
0.0
 40
0
 41
0
  0
VERTEX
  8
0
 10
0.436578
 20
0.0701497
 30
0.0
 40
0
 41
0
  0
VERTEX
  8
0
 10
0.436578
 20
0.127604
 30
0.0
 40
0
 41
0
  0
SEQEND
 8
0
  0
POLYLINE
  8
0
 62
     3
 66
     1
 10
0
 20
0
 30
0.0
 70
     1
 40
0
 41
0
  0
VERTEX
  8
0
 10
0.777832
 20
0.127604
 30
0.0
 40
0
 41
0
  0
VERTEX
  8
0
 10
0.720432
 20
0.127604
 30
0.0
 40
0
 41
0
  0
VERTEX
  8
0
 10
0.720432
 20
0.0701497
 30
0.0
 40
0
 41
0
  0
VERTEX
  8
0
 10
0.777832
 20
0.0701497
 30
0.0
 40
0
 41
0
  0
VERTEX
  8
0
 10
0.777832
 20
0.127604
 30
0.0
 40
0
 41
0
  0
SEQEND
 8
0
  0
POLYLINE
  8
0
 62
     3
 66
     1
 10
0
 20
0
 30
0.0
 70
     1
 40
0
 41
0
  0
VERTEX
  8
0
 10
0.152072
 20
0.874132
 30
0.0
 40
0
 41
0
  0
VERTEX
  8
0
 10
0.152072
 20
0.486763
 30
0.0
 40
0
 41
0
  0
VERTEX
  8
0
 10
0.0747071
 20
0.409993
 30
0.0
 40
0
 41
0
  0
VERTEX
  8
0
 10
0.0747071
 20
0.0107422
 30
0.0
 40
0
 41
0
  0
VERTEX
  8
0
 10
0.845975
 20
0.0107422
 30
0.0
 40
0
 41
0
  0
VERTEX
  8
0
 10
0.845975
 20
0.200358
 30
0.0
 40
0
 41
0
  0
VERTEX
  8
0
 10
0.421169
 20
0.200358
 30
0.0
 40
0
 41
0
  0
VERTEX
  8
0
 10
0.340603
 20
0.115017
 30
0.0
 40
0
 41
0
  0
VERTEX
  8
0
 10
0.181803
 20
0.115017
 30
0.0
 40
0
 41
0
  0
VERTEX
  8
0
 10
0.181803
 20
0.372885
 30
0.0
 40
0
 41
0
  0
VERTEX
  8
0
 10
0.149576
 20
0.372885
 30
0.0
 40
0
 41
0
  0
VERTEX
  8
0
 10
0.149576
 20
0.0827908
 30
0.0
 40
0
 41
0
  0
VERTEX
  8
0
 10
0.354492
 20
0.0827908
 30
0.0
 40
0
 41
0
  0
VERTEX
  8
0
 10
0.435058
 20
0.168078
 30
0.0
 40
0
 41
0
  0
VERTEX
  8
0
 10
0.813747
 20
0.168078
 30
0.0
 40
0
 41
0
  0
VERTEX
  8
0
 10
0.813747
 20
0.0429688
 30
0.0
 40
0
 41
0
  0
VERTEX
  8
0
 10
0.106934
 20
0.0429688
 30
0.0
 40
0
 41
0
  0
VERTEX
  8
0
 10
0.106934
 20
0.396593
 30
0.0
 40
0
 41
0
  0
VERTEX
  8
0
 10
0.184244
 20
0.473361
 30
0.0
 40
0
 41
0
  0
VERTEX
  8
0
 10
0.184244
 20
0.874132
 30
0.0
 40
0
 41
0
  0
VERTEX
  8
0
 10
0.152072
 20
0.874132
 30
0.0
 40
0
 41
0
  0
SEQEND
 8
0
  0
POLYLINE
  8
0
 62
     3
 66
     1
 10
0
 20
0
 30
0.0
 70
     1
 40
0
 41
0
  0
VERTEX
  8
0
 10
0.13699
 20
0.400119
 30
0.0
 40
0
 41
0
  0
VERTEX
  8
0
 10
0.194444
 20
0.400119
 30
0.0
 40
0
 41
0
  0
VERTEX
  8
0
 10
0.194444
 20
0.342719
 30
0.0
 40
0
 41
0
  0
VERTEX
  8
0
 10
0.13699
 20
0.342719
 30
0.0
 40
0
 41
0
  0
VERTEX
  8
0
 10
0.13699
 20
0.400119
 30
0.0
 40
0
 41
0
  0
SEQEND
 8
0
  0
POLYLINE
  8
0
 62
     3
 66
     1
 10
0
 20
0
 30
0.0
 70
     1
 40
0
 41
0
  0
VERTEX
  8
0
 10
0.196886
 20
0.901367
 30
0.0
 40
0
 41
0
  0
VERTEX
  8
0
 10
0.139486
 20
0.901367
 30
0.0
 40
0
 41
0
  0
VERTEX
  8
0
 10
0.139486
 20
0.843967
 30
0.0
 40
0
 41
0
  0
VERTEX
  8
0
 10
0.196886
 20
0.843967
 30
0.0
 40
0
 41
0
  0
VERTEX
  8
0
 10
0.196886
 20
0.901367
 30
0.0
 40
0
 41
0
  0
SEQEND
 8
0
  0
POLYLINE
  8
0
 62
     3
 66
     1
 10
0
 20
0
 30
0.0
 70
     1
 40
0
 41
0
  0
VERTEX
  8
0
 10
1.16135
 20
0.965115
 30
0.0
 40
0
 41
0
  0
VERTEX
  8
0
 10
0.9611
 20
0.766493
 30
0.0
 40
0
 41
0
  0
VERTEX
  8
0
 10
0.9611
 20
0.00944011
 30
0.0
 40
0
 41
0
  0
VERTEX
  8
0
 10
1.14909
 20
0.00944011
 30
0.0
 40
0
 41
0
  0
VERTEX
  8
0
 10
1.14909
 20
0.294814
 30
0.0
 40
0
 41
0
  0
VERTEX
  8
0
 10
1.2774
 20
0.294814
 30
0.0
 40
0
 41
0
  0
VERTEX
  8
0
 10
1.36399
 20
0.375379
 30
0.0
 40
0
 41
0
  0
VERTEX
  8
0
 10
1.64746
 20
0.375379
 30
0.0
 40
0
 41
0
  0
VERTEX
  8
0
 10
1.64746
 20
0.118435
 30
0.0
 40
0
 41
0
  0
VERTEX
  8
0
 10
1.67969
 20
0.118435
 30
0.0
 40
0
 41
0
  0
VERTEX
  8
0
 10
1.67969
 20
0.407553
 30
0.0
 40
0
 41
0
  0
VERTEX
  8
0
 10
1.35135
 20
0.407553
 30
0.0
 40
0
 41
0
  0
VERTEX
  8
0
 10
1.2647
 20
0.326986
 30
0.0
 40
0
 41
0
  0
VERTEX
  8
0
 10
1.11686
 20
0.326986
 30
0.0
 40
0
 41
0
  0
VERTEX
  8
0
 10
1.11686
 20
0.0416124
 30
0.0
 40
0
 41
0
  0
VERTEX
  8
0
 10
0.993272
 20
0.0416124
 30
0.0
 40
0
 41
0
  0
VERTEX
  8
0
 10
0.993272
 20
0.753039
 30
0.0
 40
0
 41
0
  0
VERTEX
  8
0
 10
1.1747
 20
0.932997
 30
0.0
 40
0
 41
0
  0
VERTEX
  8
0
 10
1.54394
 20
0.934679
 30
0.0
 40
0
 41
0
  0
VERTEX
  8
0
 10
1.73178
 20
0.750597
 30
0.0
 40
0
 41
0
  0
VERTEX
  8
0
 10
1.73931
 20
0.758301
 30
0.0
 40
0
 41
0
  0
VERTEX
  8
0
 10
1.75911
 20
0.758301
 30
0.0
 40
0
 41
0
  0
VERTEX
  8
0
 10
1.75911
 20
0.768826
 30
0.0
 40
0
 41
0
  0
VERTEX
  8
0
 10
1.55707
 20
0.96696
 30
0.0
 40
0
 41
0
  0
VERTEX
  8
0
 10
1.16135
 20
0.965115
 30
0.0
 40
0
 41
0
  0
SEQEND
 8
0
  0
POLYLINE
  8
0
 62
     3
 66
     1
 10
0
 20
0
 30
0.0
 70
     1
 40
0
 41
0
  0
VERTEX
  8
0
 10
1.77171
 20
0.731011
 30
0.0
 40
0
 41
0
  0
VERTEX
  8
0
 10
1.71431
 20
0.731011
 30
0.0
 40
0
 41
0
  0
VERTEX
  8
0
 10
1.71431
 20
0.788465
 30
0.0
 40
0
 41
0
  0
VERTEX
  8
0
 10
1.77171
 20
0.788465
 30
0.0
 40
0
 41
0
  0
VERTEX
  8
0
 10
1.77171
 20
0.731011
 30
0.0
 40
0
 41
0
  0
SEQEND
 8
0
  0
POLYLINE
  8
0
 62
     3
 66
     1
 10
0
 20
0
 30
0.0
 70
     1
 40
0
 41
0
  0
VERTEX
  8
0
 10
1.63487
 20
0.0911458
 30
0.0
 40
0
 41
0
  0
VERTEX
  8
0
 10
1.69233
 20
0.0911458
 30
0.0
 40
0
 41
0
  0
VERTEX
  8
0
 10
1.69233
 20
0.148546
 30
0.0
 40
0
 41
0
  0
VERTEX
  8
0
 10
1.63487
 20
0.148546
 30
0.0
 40
0
 41
0
  0
VERTEX
  8
0
 10
1.63487
 20
0.0911458
 30
0.0
 40
0
 41
0
  0
SEQEND
 8
0
  0
POLYLINE
  8
0
 62
     3
 66
     1
 10
0
 20
0
 30
0.0
 70
     1
 40
0
 41
0
  0
VERTEX
  8
0
 10
1.72689
 20
0.663249
 30
0.0
 40
0
 41
0
  0
VERTEX
  8
0
 10
1.72689
 20
0.0416124
 30
0.0
 40
0
 41
0
  0
VERTEX
  8
0
 10
1.60346
 20
0.0416124
 30
0.0
 40
0
 41
0
  0
VERTEX
  8
0
 10
1.60346
 20
0.326986
 30
0.0
 40
0
 41
0
  0
VERTEX
  8
0
 10
1.3731
 20
0.326986
 30
0.0
 40
0
 41
0
  0
VERTEX
  8
0
 10
1.3731
 20
0.294814
 30
0.0
 40
0
 41
0
  0
VERTEX
  8
0
 10
1.57124
 20
0.294814
 30
0.0
 40
0
 41
0
  0
VERTEX
  8
0
 10
1.57124
 20
0.00938585
 30
0.0
 40
0
 41
0
  0
VERTEX
  8
0
 10
1.75911
 20
0.00938585
 30
0.0
 40
0
 41
0
  0
VERTEX
  8
0
 10
1.75911
 20
0.663249
 30
0.0
 40
0
 41
0
  0
VERTEX
  8
0
 10
1.72689
 20
0.663249
 30
0.0
 40
0
 41
0
  0
SEQEND
 8
0
  0
POLYLINE
  8
0
 62
     3
 66
     1
 10
0
 20
0
 30
0.0
 70
     1
 40
0
 41
0
  0
VERTEX
  8
0
 10
1.34581
 20
0.339626
 30
0.0
 40
0
 41
0
  0
VERTEX
  8
0
 10
1.40321
 20
0.339626
 30
0.0
 40
0
 41
0
  0
VERTEX
  8
0
 10
1.40321
 20
0.282226
 30
0.0
 40
0
 41
0
  0
VERTEX
  8
0
 10
1.34581
 20
0.282226
 30
0.0
 40
0
 41
0
  0
VERTEX
  8
0
 10
1.34581
 20
0.339626
 30
0.0
 40
0
 41
0
  0
SEQEND
 8
0
  0
POLYLINE
  8
0
 62
     3
 66
     1
 10
0
 20
0
 30
0.0
 70
     1
 40
0
 41
0
  0
VERTEX
  8
0
 10
1.77171
 20
0.690483
 30
0.0
 40
0
 41
0
  0
VERTEX
  8
0
 10
1.71431
 20
0.690483
 30
0.0
 40
0
 41
0
  0
VERTEX
  8
0
 10
1.71431
 20
0.633029
 30
0.0
 40
0
 41
0
  0
VERTEX
  8
0
 10
1.77171
 20
0.633029
 30
0.0
 40
0
 41
0
  0
VERTEX
  8
0
 10
1.77171
 20
0.690483
 30
0.0
 40
0
 41
0
  0
SEQEND
 8
0
  0
POLYLINE
  8
0
 62
     3
 66
     1
 10
0
 20
0
 30
0.0
 70
     1
 40
0
 41
0
  0
VERTEX
  8
0
 10
1.67969
 20
0.482693
 30
0.0
 40
0
 41
0
  0
VERTEX
  8
0
 10
1.64746
 20
0.482693
 30
0.0
 40
0
 41
0
  0
VERTEX
  8
0
 10
1.64746
 20
0.728299
 30
0.0
 40
0
 41
0
  0
VERTEX
  8
0
 10
1.51872
 20
0.856987
 30
0.0
 40
0
 41
0
  0
VERTEX
  8
0
 10
1.45285
 20
0.856987
 30
0.0
 40
0
 41
0
  0
VERTEX
  8
0
 10
1.45285
 20
0.889214
 30
0.0
 40
0
 41
0
  0
VERTEX
  8
0
 10
1.53207
 20
0.889214
 30
0.0
 40
0
 41
0
  0
VERTEX
  8
0
 10
1.67969
 20
0.74159
 30
0.0
 40
0
 41
0
  0
VERTEX
  8
0
 10
1.67969
 20
0.482693
 30
0.0
 40
0
 41
0
  0
SEQEND
 8
0
  0
POLYLINE
  8
0
 62
     3
 66
     1
 10
0
 20
0
 30
0.0
 70
     1
 40
0
 41
0
  0
VERTEX
  8
0
 10
1.69233
 20
0.45535
 30
0.0
 40
0
 41
0
  0
VERTEX
  8
0
 10
1.63487
 20
0.45535
 30
0.0
 40
0
 41
0
  0
VERTEX
  8
0
 10
1.63487
 20
0.512804
 30
0.0
 40
0
 41
0
  0
VERTEX
  8
0
 10
1.69233
 20
0.512804
 30
0.0
 40
0
 41
0
  0
VERTEX
  8
0
 10
1.69233
 20
0.45535
 30
0.0
 40
0
 41
0
  0
SEQEND
 8
0
  0
POLYLINE
  8
0
 62
     3
 66
     1
 10
0
 20
0
 30
0.0
 70
     1
 40
0
 41
0
  0
VERTEX
  8
0
 10
1.42557
 20
0.844401
 30
0.0
 40
0
 41
0
  0
VERTEX
  8
0
 10
1.48301
 20
0.844401
 30
0.0
 40
0
 41
0
  0
VERTEX
  8
0
 10
1.48301
 20
0.901856
 30
0.0
 40
0
 41
0
  0
VERTEX
  8
0
 10
1.42557
 20
0.901856
 30
0.0
 40
0
 41
0
  0
VERTEX
  8
0
 10
1.42557
 20
0.844401
 30
0.0
 40
0
 41
0
  0
SEQEND
 8
0
  0
POLYLINE
  8
0
 62
     3
 66
     1
 10
0
 20
0
 30
0.0
 70
     1
 40
0
 41
0
  0
VERTEX
  8
0
 10
1.22336
 20
0.375325
 30
0.0
 40
0
 41
0
  0
VERTEX
  8
0
 10
1.03792
 20
0.375325
 30
0.0
 40
0
 41
0
  0
VERTEX
  8
0
 10
1.03792
 20
0.73481
 30
0.0
 40
0
 41
0
  0
VERTEX
  8
0
 10
1.19233
 20
0.889214
 30
0.0
 40
0
 41
0
  0
VERTEX
  8
0
 10
1.34825
 20
0.889214
 30
0.0
 40
0
 41
0
  0
VERTEX
  8
0
 10
1.43121
 20
0.807671
 30
0.0
 40
0
 41
0
  0
VERTEX
  8
0
 10
1.49278
 20
0.807671
 30
0.0
 40
0
 41
0
  0
VERTEX
  8
0
 10
1.60183
 20
0.698568
 30
0.0
 40
0
 41
0
  0
VERTEX
  8
0
 10
1.60183
 20
0.452365
 30
0.0
 40
0
 41
0
  0
VERTEX
  8
0
 10
1.11762
 20
0.452365
 30
0.0
 40
0
 41
0
  0
VERTEX
  8
0
 10
1.11762
 20
0.698568
 30
0.0
 40
0
 41
0
  0
VERTEX
  8
0
 10
1.22667
 20
0.807671
 30
0.0
 40
0
 41
0
  0
VERTEX
  8
0
 10
1.3208
 20
0.807671
 30
0.0
 40
0
 41
0
  0
VERTEX
  8
0
 10
1.3208
 20
0.77539
 30
0.0
 40
0
 41
0
  0
VERTEX
  8
0
 10
1.24002
 20
0.77539
 30
0.0
 40
0
 41
0
  0
VERTEX
  8
0
 10
1.14979
 20
0.685221
 30
0.0
 40
0
 41
0
  0
VERTEX
  8
0
 10
1.14979
 20
0.484592
 30
0.0
 40
0
 41
0
  0
VERTEX
  8
0
 10
1.56961
 20
0.484592
 30
0.0
 40
0
 41
0
  0
VERTEX
  8
0
 10
1.56961
 20
0.685221
 30
0.0
 40
0
 41
0
  0
VERTEX
  8
0
 10
1.47944
 20
0.77539
 30
0.0
 40
0
 41
0
  0
VERTEX
  8
0
 10
1.41797
 20
0.77539
 30
0.0
 40
0
 41
0
  0
VERTEX
  8
0
 10
1.33507
 20
0.856987
 30
0.0
 40
0
 41
0
  0
VERTEX
  8
0
 10
1.20568
 20
0.856987
 30
0.0
 40
0
 41
0
  0
VERTEX
  8
0
 10
1.07015
 20
0.721463
 30
0.0
 40
0
 41
0
  0
VERTEX
  8
0
 10
1.07015
 20
0.407553
 30
0.0
 40
0
 41
0
  0
VERTEX
  8
0
 10
1.22336
 20
0.407553
 30
0.0
 40
0
 41
0
  0
VERTEX
  8
0
 10
1.22336
 20
0.375325
 30
0.0
 40
0
 41
0
  0
SEQEND
 8
0
  0
POLYLINE
  8
0
 62
     3
 66
     1
 10
0
 20
0
 30
0.0
 70
     1
 40
0
 41
0
  0
VERTEX
  8
0
 10
1.25065
 20
0.362793
 30
0.0
 40
0
 41
0
  0
VERTEX
  8
0
 10
1.19325
 20
0.362793
 30
0.0
 40
0
 41
0
  0
VERTEX
  8
0
 10
1.19325
 20
0.420247
 30
0.0
 40
0
 41
0
  0
VERTEX
  8
0
 10
1.25065
 20
0.420247
 30
0.0
 40
0
 41
0
  0
VERTEX
  8
0
 10
1.25065
 20
0.362793
 30
0.0
 40
0
 41
0
  0
SEQEND
 8
0
  0
POLYLINE
  8
0
 62
     3
 66
     1
 10
0
 20
0
 30
0.0
 70
     1
 40
0
 41
0
  0
VERTEX
  8
0
 10
1.34809
 20
0.820258
 30
0.0
 40
0
 41
0
  0
VERTEX
  8
0
 10
1.29064
 20
0.820258
 30
0.0
 40
0
 41
0
  0
VERTEX
  8
0
 10
1.29064
 20
0.762858
 30
0.0
 40
0
 41
0
  0
VERTEX
  8
0
 10
1.34809
 20
0.762858
 30
0.0
 40
0
 41
0
  0
VERTEX
  8
0
 10
1.34809
 20
0.820258
 30
0.0
 40
0
 41
0
  0
SEQEND
 8
0
  0
POLYLINE
  8
0
 62
     3
 66
     1
 10
0
 20
0
 30
0.0
 70
     1
 40
0
 41
0
  0
VERTEX
  8
0
 10
1.07015
 20
0.118435
 30
0.0
 40
0
 41
0
  0
VERTEX
  8
0
 10
1.03792
 20
0.118435
 30
0.0
 40
0
 41
0
  0
VERTEX
  8
0
 10
1.03792
 20
0.298014
 30
0.0
 40
0
 41
0
  0
VERTEX
  8
0
 10
1.07015
 20
0.298014
 30
0.0
 40
0
 41
0
  0
VERTEX
  8
0
 10
1.07015
 20
0.118435
 30
0.0
 40
0
 41
0
  0
SEQEND
 8
0
  0
POLYLINE
  8
0
 62
     3
 66
     1
 10
0
 20
0
 30
0.0
 70
     1
 40
0
 41
0
  0
VERTEX
  8
0
 10
1.02528
 20
0.32525
 30
0.0
 40
0
 41
0
  0
VERTEX
  8
0
 10
1.08274
 20
0.32525
 30
0.0
 40
0
 41
0
  0
VERTEX
  8
0
 10
1.08274
 20
0.26785
 30
0.0
 40
0
 41
0
  0
VERTEX
  8
0
 10
1.02528
 20
0.26785
 30
0.0
 40
0
 41
0
  0
VERTEX
  8
0
 10
1.02528
 20
0.32525
 30
0.0
 40
0
 41
0
  0
SEQEND
 8
0
  0
POLYLINE
  8
0
 62
     3
 66
     1
 10
0
 20
0
 30
0.0
 70
     1
 40
0
 41
0
  0
VERTEX
  8
0
 10
1.02528
 20
0.0911458
 30
0.0
 40
0
 41
0
  0
VERTEX
  8
0
 10
1.08274
 20
0.0911458
 30
0.0
 40
0
 41
0
  0
VERTEX
  8
0
 10
1.08274
 20
0.148546
 30
0.0
 40
0
 41
0
  0
VERTEX
  8
0
 10
1.02528
 20
0.148546
 30
0.0
 40
0
 41
0
  0
VERTEX
  8
0
 10
1.02528
 20
0.0911458
 30
0.0
 40
0
 41
0
  0
SEQEND
 8
0
  0
POLYLINE
  8
0
 62
     3
 66
     1
 10
0
 20
0
 30
0.0
 70
     1
 40
0
 41
0
  0
VERTEX
  8
0
 10
2.0019
 20
0.968804
 30
0.0
 40
0
 41
0
  0
VERTEX
  8
0
 10
2.0019
 20
0.218371
 30
0.0
 40
0
 41
0
  0
VERTEX
  8
0
 10
2.07835
 20
0.152344
 30
0.0
 40
0
 41
0
  0
VERTEX
  8
0
 10
2.07835
 20
0.0837674
 30
0.0
 40
0
 41
0
  0
VERTEX
  8
0
 10
2.44824
 20
0.0837674
 30
0.0
 40
0
 41
0
  0
VERTEX
  8
0
 10
2.51887
 20
0.0132921
 30
0.0
 40
0
 41
0
  0
VERTEX
  8
0
 10
2.62136
 20
0.0132921
 30
0.0
 40
0
 41
0
  0
VERTEX
  8
0
 10
2.77393
 20
0.165093
 30
0.0
 40
0
 41
0
  0
VERTEX
  8
0
 10
2.77393
 20
0.432997
 30
0.0
 40
0
 41
0
  0
VERTEX
  8
0
 10
2.71619
 20
0.490668
 30
0.0
 40
0
 41
0
  0
VERTEX
  8
0
 10
2.77393
 20
0.548449
 30
0.0
 40
0
 41
0
  0
VERTEX
  8
0
 10
2.77393
 20
0.64426
 30
0.0
 40
0
 41
0
  0
VERTEX
  8
0
 10
2.74169
 20
0.64426
 30
0.0
 40
0
 41
0
  0
VERTEX
  8
0
 10
2.74169
 20
0.561794
 30
0.0
 40
0
 41
0
  0
VERTEX
  8
0
 10
2.67063
 20
0.490668
 30
0.0
 40
0
 41
0
  0
VERTEX
  8
0
 10
2.74169
 20
0.419596
 30
0.0
 40
0
 41
0
  0
VERTEX
  8
0
 10
2.74169
 20
0.178549
 30
0.0
 40
0
 41
0
  0
VERTEX
  8
0
 10
2.60807
 20
0.0454644
 30
0.0
 40
0
 41
0
  0
VERTEX
  8
0
 10
2.53222
 20
0.0454644
 30
0.0
 40
0
 41
0
  0
VERTEX
  8
0
 10
2.46164
 20
0.115994
 30
0.0
 40
0
 41
0
  0
VERTEX
  8
0
 10
2.11051
 20
0.115994
 30
0.0
 40
0
 41
0
  0
VERTEX
  8
0
 10
2.11051
 20
0.167046
 30
0.0
 40
0
 41
0
  0
VERTEX
  8
0
 10
2.03413
 20
0.233074
 30
0.0
 40
0
 41
0
  0
VERTEX
  8
0
 10
2.03413
 20
0.936578
 30
0.0
 40
0
 41
0
  0
VERTEX
  8
0
 10
2.14686
 20
0.936578
 30
0.0
 40
0
 41
0
  0
VERTEX
  8
0
 10
2.14686
 20
0.968804
 30
0.0
 40
0
 41
0
  0
VERTEX
  8
0
 10
2.0019
 20
0.968804
 30
0.0
 40
0
 41
0
  0
SEQEND
 8
0
  0
POLYLINE
  8
0
 62
     3
 66
     1
 10
0
 20
0
 30
0.0
 70
     1
 40
0
 41
0
  0
VERTEX
  8
0
 10
2.1741
 20
0.92399
 30
0.0
 40
0
 41
0
  0
VERTEX
  8
0
 10
2.11664
 20
0.92399
 30
0.0
 40
0
 41
0
  0
VERTEX
  8
0
 10
2.11664
 20
0.981392
 30
0.0
 40
0
 41
0
  0
VERTEX
  8
0
 10
2.1741
 20
0.981392
 30
0.0
 40
0
 41
0
  0
VERTEX
  8
0
 10
2.1741
 20
0.92399
 30
0.0
 40
0
 41
0
  0
SEQEND
 8
0
  0
POLYLINE
  8
0
 62
     3
 66
     1
 10
0
 20
0
 30
0.0
 70
     1
 40
0
 41
0
  0
VERTEX
  8
0
 10
2.78651
 20
0.67155
 30
0.0
 40
0
 41
0
  0
VERTEX
  8
0
 10
2.72906
 20
0.67155
 30
0.0
 40
0
 41
0
  0
VERTEX
  8
0
 10
2.72906
 20
0.614094
 30
0.0
 40
0
 41
0
  0
VERTEX
  8
0
 10
2.78651
 20
0.614094
 30
0.0
 40
0
 41
0
  0
VERTEX
  8
0
 10
2.78651
 20
0.67155
 30
0.0
 40
0
 41
0
  0
SEQEND
 8
0
  0
POLYLINE
  8
0
 62
     3
 66
     1
 10
0
 20
0
 30
0.0
 70
     1
 40
0
 41
0
  0
VERTEX
  8
0
 10
2.0019
 20
0.12321
 30
0.0
 40
0
 41
0
  0
VERTEX
  8
0
 10
2.0019
 20
0.0125868
 30
0.0
 40
0
 41
0
  0
VERTEX
  8
0
 10
2.40506
 20
0.0125868
 30
0.0
 40
0
 41
0
  0
VERTEX
  8
0
 10
2.40506
 20
0.0448133
 30
0.0
 40
0
 41
0
  0
VERTEX
  8
0
 10
2.03413
 20
0.0448133
 30
0.0
 40
0
 41
0
  0
VERTEX
  8
0
 10
2.03413
 20
0.12321
 30
0.0
 40
0
 41
0
  0
VERTEX
  8
0
 10
2.0019
 20
0.12321
 30
0.0
 40
0
 41
0
  0
SEQEND
 8
0
  0
POLYLINE
  8
0
 62
     3
 66
     1
 10
0
 20
0
 30
0.0
 70
     1
 40
0
 41
0
  0
VERTEX
  8
0
 10
1.98931
 20
0.150553
 30
0.0
 40
0
 41
0
  0
VERTEX
  8
0
 10
2.04676
 20
0.150553
 30
0.0
 40
0
 41
0
  0
VERTEX
  8
0
 10
2.04676
 20
0.093099
 30
0.0
 40
0
 41
0
  0
VERTEX
  8
0
 10
1.98931
 20
0.093099
 30
0.0
 40
0
 41
0
  0
VERTEX
  8
0
 10
1.98931
 20
0.150553
 30
0.0
 40
0
 41
0
  0
SEQEND
 8
0
  0
POLYLINE
  8
0
 62
     3
 66
     1
 10
0
 20
0
 30
0.0
 70
     1
 40
0
 41
0
  0
VERTEX
  8
0
 10
2.37489
 20
0
 30
0.0
 40
0
 41
0
  0
VERTEX
  8
0
 10
2.43235
 20
0
 30
0.0
 40
0
 41
0
  0
VERTEX
  8
0
 10
2.43235
 20
0.0574544
 30
0.0
 40
0
 41
0
  0
VERTEX
  8
0
 10
2.37489
 20
0.0574544
 30
0.0
 40
0
 41
0
  0
VERTEX
  8
0
 10
2.37489
 20
0
 30
0.0
 40
0
 41
0
  0
SEQEND
 8
0
  0
POLYLINE
  8
0
 62
     3
 66
     1
 10
0
 20
0
 30
0.0
 70
     1
 40
0
 41
0
  0
VERTEX
  8
0
 10
2.11035
 20
0.259494
 30
0.0
 40
0
 41
0
  0
VERTEX
  8
0
 10
2.07818
 20
0.259494
 30
0.0
 40
0
 41
0
  0
VERTEX
  8
0
 10
2.07818
 20
0.506293
 30
0.0
 40
0
 41
0
  0
VERTEX
  8
0
 10
2.29411
 20
0.506293
 30
0.0
 40
0
 41
0
  0
VERTEX
  8
0
 10
2.38037
 20
0.585449
 30
0.0
 40
0
 41
0
  0
VERTEX
  8
0
 10
2.54297
 20
0.585449
 30
0.0
 40
0
 41
0
  0
VERTEX
  8
0
 10
2.59283
 20
0.63265
 30
0.0
 40
0
 41
0
  0
VERTEX
  8
0
 10
2.59283
 20
0.729167
 30
0.0
 40
0
 41
0
  0
VERTEX
  8
0
 10
2.54275
 20
0.779243
 30
0.0
 40
0
 41
0
  0
VERTEX
  8
0
 10
2.19146
 20
0.779243
 30
0.0
 40
0
 41
0
  0
VERTEX
  8
0
 10
2.19146
 20
0.64605
 30
0.0
 40
0
 41
0
  0
VERTEX
  8
0
 10
2.15924
 20
0.64605
 30
0.0
 40
0
 41
0
  0
VERTEX
  8
0
 10
2.15924
 20
0.811469
 30
0.0
 40
0
 41
0
  0
VERTEX
  8
0
 10
2.5561
 20
0.811469
 30
0.0
 40
0
 41
0
  0
VERTEX
  8
0
 10
2.62506
 20
0.742512
 30
0.0
 40
0
 41
0
  0
VERTEX
  8
0
 10
2.62506
 20
0.618761
 30
0.0
 40
0
 41
0
  0
VERTEX
  8
0
 10
2.55583
 20
0.553276
 30
0.0
 40
0
 41
0
  0
VERTEX
  8
0
 10
2.3929
 20
0.553276
 30
0.0
 40
0
 41
0
  0
VERTEX
  8
0
 10
2.30664
 20
0.474067
 30
0.0
 40
0
 41
0
  0
VERTEX
  8
0
 10
2.11035
 20
0.474067
 30
0.0
 40
0
 41
0
  0
VERTEX
  8
0
 10
2.11035
 20
0.259494
 30
0.0
 40
0
 41
0
  0
SEQEND
 8
0
  0
POLYLINE
  8
0
 62
     3
 66
     1
 10
0
 20
0
 30
0.0
 70
     1
 40
0
 41
0
  0
VERTEX
  8
0
 10
2.20404
 20
0.618761
 30
0.0
 40
0
 41
0
  0
VERTEX
  8
0
 10
2.1466
 20
0.618761
 30
0.0
 40
0
 41
0
  0
VERTEX
  8
0
 10
2.1466
 20
0.676269
 30
0.0
 40
0
 41
0
  0
VERTEX
  8
0
 10
2.20404
 20
0.676269
 30
0.0
 40
0
 41
0
  0
VERTEX
  8
0
 10
2.20404
 20
0.618761
 30
0.0
 40
0
 41
0
  0
SEQEND
 8
0
  0
POLYLINE
  8
0
 62
     3
 66
     1
 10
0
 20
0
 30
0.0
 70
     1
 40
0
 41
0
  0
VERTEX
  8
0
 10
2.06554
 20
0.232206
 30
0.0
 40
0
 41
0
  0
VERTEX
  8
0
 10
2.12299
 20
0.232206
 30
0.0
 40
0
 41
0
  0
VERTEX
  8
0
 10
2.12299
 20
0.28966
 30
0.0
 40
0
 41
0
  0
VERTEX
  8
0
 10
2.06554
 20
0.28966
 30
0.0
 40
0
 41
0
  0
VERTEX
  8
0
 10
2.06554
 20
0.232206
 30
0.0
 40
0
 41
0
  0
SEQEND
 8
0
  0
POLYLINE
  8
0
 62
     3
 66
     1
 10
0
 20
0
 30
0.0
 70
     1
 40
0
 41
0
  0
VERTEX
  8
0
 10
2.15924
 20
0.163792
 30
0.0
 40
0
 41
0
  0
VERTEX
  8
0
 10
2.15924
 20
0.428168
 30
0.0
 40
0
 41
0
  0
VERTEX
  8
0
 10
2.31418
 20
0.428168
 30
0.0
 40
0
 41
0
  0
VERTEX
  8
0
 10
2.40315
 20
0.506836
 30
0.0
 40
0
 41
0
  0
VERTEX
  8
0
 10
2.57172
 20
0.507107
 30
0.0
 40
0
 41
0
  0
VERTEX
  8
0
 10
2.66297
 20
0.592665
 30
0.0
 40
0
 41
0
  0
VERTEX
  8
0
 10
2.66297
 20
0.772026
 30
0.0
 40
0
 41
0
  0
VERTEX
  8
0
 10
2.57417
 20
0.86084
 30
0.0
 40
0
 41
0
  0
VERTEX
  8
0
 10
2.11035
 20
0.86084
 30
0.0
 40
0
 41
0
  0
VERTEX
  8
0
 10
2.11035
 20
0.585449
 30
0.0
 40
0
 41
0
  0
VERTEX
  8
0
 10
2.28222
 20
0.585449
 30
0.0
 40
0
 41
0
  0
VERTEX
  8
0
 10
2.28222
 20
0.553276
 30
0.0
 40
0
 41
0
  0
VERTEX
  8
0
 10
2.07818
 20
0.553276
 30
0.0
 40
0
 41
0
  0
VERTEX
  8
0
 10
2.07818
 20
0.893067
 30
0.0
 40
0
 41
0
  0
VERTEX
  8
0
 10
2.58751
 20
0.893067
 30
0.0
 40
0
 41
0
  0
VERTEX
  8
0
 10
2.69521
 20
0.785374
 30
0.0
 40
0
 41
0
  0
VERTEX
  8
0
 10
2.69521
 20
0.578614
 30
0.0
 40
0
 41
0
  0
VERTEX
  8
0
 10
2.58453
 20
0.474881
 30
0.0
 40
0
 41
0
  0
VERTEX
  8
0
 10
2.41542
 20
0.474664
 30
0.0
 40
0
 41
0
  0
VERTEX
  8
0
 10
2.32633
 20
0.395942
 30
0.0
 40
0
 41
0
  0
VERTEX
  8
0
 10
2.19146
 20
0.395942
 30
0.0
 40
0
 41
0
  0
VERTEX
  8
0
 10
2.19146
 20
0.196506
 30
0.0
 40
0
 41
0
  0
VERTEX
  8
0
 10
2.54264
 20
0.20204
 30
0.0
 40
0
 41
0
  0
VERTEX
  8
0
 10
2.5911
 20
0.250543
 30
0.0
 40
0
 41
0
  0
VERTEX
  8
0
 10
2.59267
 20
0.345975
 30
0.0
 40
0
 41
0
  0
VERTEX
  8
0
 10
2.54275
 20
0.395942
 30
0.0
 40
0
 41
0
  0
VERTEX
  8
0
 10
2.42871
 20
0.395942
 30
0.0
 40
0
 41
0
  0
VERTEX
  8
0
 10
2.42871
 20
0.428168
 30
0.0
 40
0
 41
0
  0
VERTEX
  8
0
 10
2.5561
 20
0.428168
 30
0.0
 40
0
 41
0
  0
VERTEX
  8
0
 10
2.62511
 20
0.359213
 30
0.0
 40
0
 41
0
  0
VERTEX
  8
0
 10
2.6231
 20
0.236925
 30
0.0
 40
0
 41
0
  0
VERTEX
  8
0
 10
2.55621
 20
0.170031
 30
0.0
 40
0
 41
0
  0
VERTEX
  8
0
 10
2.15924
 20
0.163792
 30
0.0
 40
0
 41
0
  0
SEQEND
 8
0
  0
POLYLINE
  8
0
 62
     3
 66
     1
 10
0
 20
0
 30
0.0
 70
     1
 40
0
 41
0
  0
VERTEX
  8
0
 10
2.40142
 20
0.440756
 30
0.0
 40
0
 41
0
  0
VERTEX
  8
0
 10
2.45888
 20
0.440756
 30
0.0
 40
0
 41
0
  0
VERTEX
  8
0
 10
2.45888
 20
0.383301
 30
0.0
 40
0
 41
0
  0
VERTEX
  8
0
 10
2.40142
 20
0.383301
 30
0.0
 40
0
 41
0
  0
VERTEX
  8
0
 10
2.40142
 20
0.440756
 30
0.0
 40
0
 41
0
  0
SEQEND
 8
0
  0
POLYLINE
  8
0
 62
     3
 66
     1
 10
0
 20
0
 30
0.0
 70
     1
 40
0
 41
0
  0
VERTEX
  8
0
 10
2.30951
 20
0.59809
 30
0.0
 40
0
 41
0
  0
VERTEX
  8
0
 10
2.25206
 20
0.59809
 30
0.0
 40
0
 41
0
  0
VERTEX
  8
0
 10
2.25206
 20
0.540636
 30
0.0
 40
0
 41
0
  0
VERTEX
  8
0
 10
2.30951
 20
0.540636
 30
0.0
 40
0
 41
0
  0
VERTEX
  8
0
 10
2.30951
 20
0.59809
 30
0.0
 40
0
 41
0
  0
SEQEND
 8
0
  0
POLYLINE
  8
0
 62
     3
 66
     1
 10
0
 20
0
 30
0.0
 70
     1
 40
0
 41
0
  0
VERTEX
  8
0
 10
2.58317
 20
0.0837674
 30
0.0
 40
0
 41
0
  0
VERTEX
  8
0
 10
2.54981
 20
0.0837674
 30
0.0
 40
0
 41
0
  0
VERTEX
  8
0
 10
2.54981
 20
0.115994
 30
0.0
 40
0
 41
0
  0
VERTEX
  8
0
 10
2.56976
 20
0.115994
 30
0.0
 40
0
 41
0
  0
VERTEX
  8
0
 10
2.66297
 20
0.210124
 30
0.0
 40
0
 41
0
  0
VERTEX
  8
0
 10
2.66297
 20
0.388781
 30
0.0
 40
0
 41
0
  0
VERTEX
  8
0
 10
2.62972
 20
0.423503
 30
0.0
 40
0
 41
0
  0
VERTEX
  8
0
 10
2.65294
 20
0.445801
 30
0.0
 40
0
 41
0
  0
VERTEX
  8
0
 10
2.69521
 20
0.401801
 30
0.0
 40
0
 41
0
  0
VERTEX
  8
0
 10
2.69521
 20
0.196886
 30
0.0
 40
0
 41
0
  0
VERTEX
  8
0
 10
2.58317
 20
0.0837674
 30
0.0
 40
0
 41
0
  0
SEQEND
 8
0
  0
POLYLINE
  8
0
 62
     3
 66
     1
 10
0
 20
0
 30
0.0
 70
     1
 40
0
 41
0
  0
VERTEX
  8
0
 10
2.52251
 20
0.128635
 30
0.0
 40
0
 41
0
  0
VERTEX
  8
0
 10
2.57997
 20
0.128635
 30
0.0
 40
0
 41
0
  0
VERTEX
  8
0
 10
2.57997
 20
0.0712349
 30
0.0
 40
0
 41
0
  0
VERTEX
  8
0
 10
2.52251
 20
0.0712349
 30
0.0
 40
0
 41
0
  0
VERTEX
  8
0
 10
2.52251
 20
0.128635
 30
0.0
 40
0
 41
0
  0
SEQEND
 8
0
  0
POLYLINE
  8
0
 62
     3
 66
     1
 10
0
 20
0
 30
0.0
 70
     1
 40
0
 41
0
  0
VERTEX
  8
0
 10
2.64318
 20
0.474229
 30
0.0
 40
0
 41
0
  0
VERTEX
  8
0
 10
2.60172
 20
0.434462
 30
0.0
 40
0
 41
0
  0
VERTEX
  8
0
 10
2.6415
 20
0.393067
 30
0.0
 40
0
 41
0
  0
VERTEX
  8
0
 10
2.68294
 20
0.432781
 30
0.0
 40
0
 41
0
  0
VERTEX
  8
0
 10
2.64318
 20
0.474229
 30
0.0
 40
0
 41
0
  0
SEQEND
 8
0
  0
POLYLINE
  8
0
 62
     3
 66
     1
 10
0
 20
0
 30
0.0
 70
     1
 40
0
 41
0
  0
VERTEX
  8
0
 10
2.77393
 20
0.736654
 30
0.0
 40
0
 41
0
  0
VERTEX
  8
0
 10
2.74169
 20
0.736654
 30
0.0
 40
0
 41
0
  0
VERTEX
  8
0
 10
2.74169
 20
0.802951
 30
0.0
 40
0
 41
0
  0
VERTEX
  8
0
 10
2.60801
 20
0.936578
 30
0.0
 40
0
 41
0
  0
VERTEX
  8
0
 10
2.23693
 20
0.936578
 30
0.0
 40
0
 41
0
  0
VERTEX
  8
0
 10
2.23693
 20
0.968804
 30
0.0
 40
0
 41
0
  0
VERTEX
  8
0
 10
2.62142
 20
0.968804
 30
0.0
 40
0
 41
0
  0
VERTEX
  8
0
 10
2.77393
 20
0.816297
 30
0.0
 40
0
 41
0
  0
VERTEX
  8
0
 10
2.77393
 20
0.736654
 30
0.0
 40
0
 41
0
  0
SEQEND
 8
0
  0
POLYLINE
  8
0
 62
     3
 66
     1
 10
0
 20
0
 30
0.0
 70
     1
 40
0
 41
0
  0
VERTEX
  8
0
 10
2.20964
 20
0.981392
 30
0.0
 40
0
 41
0
  0
VERTEX
  8
0
 10
2.26708
 20
0.981392
 30
0.0
 40
0
 41
0
  0
VERTEX
  8
0
 10
2.26708
 20
0.92399
 30
0.0
 40
0
 41
0
  0
VERTEX
  8
0
 10
2.20964
 20
0.92399
 30
0.0
 40
0
 41
0
  0
VERTEX
  8
0
 10
2.20964
 20
0.981392
 30
0.0
 40
0
 41
0
  0
SEQEND
 8
0
  0
POLYLINE
  8
0
 62
     3
 66
     1
 10
0
 20
0
 30
0.0
 70
     1
 40
0
 41
0
  0
VERTEX
  8
0
 10
2.72906
 20
0.709364
 30
0.0
 40
0
 41
0
  0
VERTEX
  8
0
 10
2.78651
 20
0.709364
 30
0.0
 40
0
 41
0
  0
VERTEX
  8
0
 10
2.78651
 20
0.766764
 30
0.0
 40
0
 41
0
  0
VERTEX
  8
0
 10
2.72906
 20
0.766764
 30
0.0
 40
0
 41
0
  0
VERTEX
  8
0
 10
2.72906
 20
0.709364
 30
0.0
 40
0
 41
0
  0
SEQEND
 8
0
  0
POLYLINE
  8
0
 62
     3
 66
     1
 10
0
 20
0
 30
0.0
 70
     1
 40
0
 41
0
  0
VERTEX
  8
0
 10
0.899794
 20
2.06494
 30
0.0
 40
0
 41
0
  0
VERTEX
  8
0
 10
0.899794
 20
1.10872
 30
0.0
 40
0
 41
0
  0
VERTEX
  8
0
 10
1.11995
 20
1.10872
 30
0.0
 40
0
 41
0
  0
VERTEX
  8
0
 10
1.11995
 20
1.55599
 30
0.0
 40
0
 41
0
  0
VERTEX
  8
0
 10
1.04188
 20
1.63417
 30
0.0
 40
0
 41
0
  0
VERTEX
  8
0
 10
1.00971
 20
1.62076
 30
0.0
 40
0
 41
0
  0
VERTEX
  8
0
 10
1.08778
 20
1.54269
 30
0.0
 40
0
 41
0
  0
VERTEX
  8
0
 10
1.08778
 20
1.14095
 30
0.0
 40
0
 41
0
  0
VERTEX
  8
0
 10
0.932021
 20
1.14095
 30
0.0
 40
0
 41
0
  0
VERTEX
  8
0
 10
0.932021
 20
2.03271
 30
0.0
 40
0
 41
0
  0
VERTEX
  8
0
 10
1.08778
 20
2.03271
 30
0.0
 40
0
 41
0
  0
VERTEX
  8
0
 10
1.08778
 20
1.68929
 30
0.0
 40
0
 41
0
  0
VERTEX
  8
0
 10
1.11995
 20
1.68929
 30
0.0
 40
0
 41
0
  0
VERTEX
  8
0
 10
1.11995
 20
2.06494
 30
0.0
 40
0
 41
0
  0
VERTEX
  8
0
 10
0.899794
 20
2.06494
 30
0.0
 40
0
 41
0
  0
SEQEND
 8
0
  0
POLYLINE
  8
0
 62
     3
 66
     1
 10
0
 20
0
 30
0.0
 70
     1
 40
0
 41
0
  0
VERTEX
  8
0
 10
1.07514
 20
1.66194
 30
0.0
 40
0
 41
0
  0
VERTEX
  8
0
 10
1.13254
 20
1.66194
 30
0.0
 40
0
 41
0
  0
VERTEX
  8
0
 10
1.13254
 20
1.7194
 30
0.0
 40
0
 41
0
  0
VERTEX
  8
0
 10
1.07514
 20
1.7194
 30
0.0
 40
0
 41
0
  0
VERTEX
  8
0
 10
1.07514
 20
1.66194
 30
0.0
 40
0
 41
0
  0
SEQEND
 8
0
  0
POLYLINE
  8
0
 62
     3
 66
     1
 10
0
 20
0
 30
0.0
 70
     1
 40
0
 41
0
  0
VERTEX
  8
0
 10
0.979221
 20
1.9994
 30
0.0
 40
0
 41
0
  0
VERTEX
  8
0
 10
1.03668
 20
1.9994
 30
0.0
 40
0
 41
0
  0
VERTEX
  8
0
 10
1.03668
 20
1.94194
 30
0.0
 40
0
 41
0
  0
VERTEX
  8
0
 10
0.979221
 20
1.94194
 30
0.0
 40
0
 41
0
  0
VERTEX
  8
0
 10
0.979221
 20
1.9994
 30
0.0
 40
0
 41
0
  0
SEQEND
 8
0
  0
POLYLINE
  8
0
 62
     3
 66
     1
 10
0
 20
0
 30
0.0
 70
     1
 40
0
 41
0
  0
VERTEX
  8
0
 10
0.991863
 20
1.20182
 30
0.0
 40
0
 41
0
  0
VERTEX
  8
0
 10
1.02414
 20
1.20182
 30
0.0
 40
0
 41
0
  0
VERTEX
  8
0
 10
1.02414
 20
1.52317
 30
0.0
 40
0
 41
0
  0
VERTEX
  8
0
 10
0.991863
 20
1.52317
 30
0.0
 40
0
 41
0
  0
VERTEX
  8
0
 10
0.991863
 20
1.20182
 30
0.0
 40
0
 41
0
  0
SEQEND
 8
0
  0
POLYLINE
  8
0
 62
     3
 66
     1
 10
0
 20
0
 30
0.0
 70
     1
 40
0
 41
0
  0
VERTEX
  8
0
 10
1.03668
 20
1.55046
 30
0.0
 40
0
 41
0
  0
VERTEX
  8
0
 10
0.979275
 20
1.55046
 30
0.0
 40
0
 41
0
  0
VERTEX
  8
0
 10
0.979275
 20
1.493
 30
0.0
 40
0
 41
0
  0
VERTEX
  8
0
 10
1.03668
 20
1.493
 30
0.0
 40
0
 41
0
  0
VERTEX
  8
0
 10
1.03668
 20
1.55046
 30
0.0
 40
0
 41
0
  0
SEQEND
 8
0
  0
POLYLINE
  8
0
 62
     3
 66
     1
 10
0
 20
0
 30
0.0
 70
     1
 40
0
 41
0
  0
VERTEX
  8
0
 10
1.03668
 20
1.17453
 30
0.0
 40
0
 41
0
  0
VERTEX
  8
0
 10
0.979275
 20
1.17453
 30
0.0
 40
0
 41
0
  0
VERTEX
  8
0
 10
0.979275
 20
1.23199
 30
0.0
 40
0
 41
0
  0
VERTEX
  8
0
 10
1.03668
 20
1.23199
 30
0.0
 40
0
 41
0
  0
VERTEX
  8
0
 10
1.03668
 20
1.17453
 30
0.0
 40
0
 41
0
  0
SEQEND
 8
0
  0
POLYLINE
  8
0
 62
     3
 66
     1
 10
0
 20
0
 30
0.0
 70
     1
 40
0
 41
0
  0
VERTEX
  8
0
 10
1.02414
 20
1.97086
 30
0.0
 40
0
 41
0
  0
VERTEX
  8
0
 10
0.991863
 20
1.97086
 30
0.0
 40
0
 41
0
  0
VERTEX
  8
0
 10
0.991808
 20
1.63861
 30
0.0
 40
0
 41
0
  0
VERTEX
  8
0
 10
1.08773
 20
1.54269
 30
0.0
 40
0
 41
0
  0
VERTEX
  8
0
 10
1.11995
 20
1.55599
 30
0.0
 40
0
 41
0
  0
VERTEX
  8
0
 10
1.02403
 20
1.65201
 30
0.0
 40
0
 41
0
  0
VERTEX
  8
0
 10
1.02414
 20
1.97086
 30
0.0
 40
0
 41
0
  0
SEQEND
 8
0
  0
ENDSEC
  0
EOF
