  0
SECTION
  2
HEADER
  9
$ACADVER
  1
AC1009
  9
$FILLMODE
 70
 0
  9
$SPLFRAME
 70
 1
  9
$EXTMIN
 10
0
 20
0
 30
0.0
  9
$EXTMAX
 10
41.6667
 20
41.6667
 30
0.0
  0
ENDSEC
  0
SECTION
  2
TABLES
  0
TABLE
  2
LAYER
 70
1
  0
LAYER
  2
0
 70
     0
 62
     7
  6
CONTINUOUS
  0
ENDTAB
  0
ENDSEC
  0
SECTION
  2
ENTITIES
  0
POLYLINE
  8
0
 62
     3
 66
     1
 10
0
 20
0
 30
0.0
 70
     1
 40
0
 41
0
  0
VERTEX
  8
0
 10
0.334201
 20
1.32433
 30
0.0
 40
0
 41
0
  0
VERTEX
  8
0
 10
0
 20
0.990126
 30
0.0
 40
0
 41
0
  0
VERTEX
  8
0
 10
0
 20
0.313693
 30
0.0
 40
0
 41
0
  0
VERTEX
  8
0
 10
0.313639
 20
0
 30
0.0
 40
0
 41
0
  0
VERTEX
  8
0
 10
5.52436
 20
0
 30
0.0
 40
0
 41
0
  0
VERTEX
  8
0
 10
5.79372
 20
0.269368
 30
0.0
 40
0
 41
0
  0
VERTEX
  8
0
 10
5.79372
 20
1.03782
 30
0.0
 40
0
 41
0
  0
VERTEX
  8
0
 10
5.50726
 20
1.32433
 30
0.0
 40
0
 41
0
  0
VERTEX
  8
0
 10
0.334201
 20
1.32433
 30
0.0
 40
0
 41
0
  0
SEQEND
 8
0
  0
POLYLINE
  8
0
 62
     7
 66
     1
 10
0
 20
0
 30
0.0
 70
     1
 40
0
 41
0
  0
VERTEX
  8
0
 10
5.57487
 20
0.608996
 30
0.0
 40
0
 41
0
  0
VERTEX
  8
0
 10
5.52013
 20
0.663629
 30
0.0
 40
0
 41
0
  0
VERTEX
  8
0
 10
5.57487
 20
0.718371
 30
0.0
 40
0
 41
0
  0
VERTEX
  8
0
 10
5.57487
 20
0.97206
 30
0.0
 40
0
 41
0
  0
VERTEX
  8
0
 10
5.43039
 20
1.11654
 30
0.0
 40
0
 41
0
  0
VERTEX
  8
0
 10
4.84353
 20
1.11654
 30
0.0
 40
0
 41
0
  0
VERTEX
  8
0
 10
4.84353
 20
0.210829
 30
0.0
 40
0
 41
0
  0
VERTEX
  8
0
 10
5.43033
 20
0.211426
 30
0.0
 40
0
 41
0
  0
VERTEX
  8
0
 10
5.57487
 20
0.355251
 30
0.0
 40
0
 41
0
  0
VERTEX
  8
0
 10
5.57487
 20
0.608996
 30
0.0
 40
0
 41
0
  0
SEQEND
 8
0
  0
POLYLINE
  8
0
 62
     7
 66
     1
 10
0
 20
0
 30
0.0
 70
     1
 40
0
 41
0
  0
VERTEX
  8
0
 10
5.02311
 20
0.573893
 30
0.0
 40
0
 41
0
  0
VERTEX
  8
0
 10
5.35585
 20
0.573893
 30
0.0
 40
0
 41
0
  0
VERTEX
  8
0
 10
5.40315
 20
0.526585
 30
0.0
 40
0
 41
0
  0
VERTEX
  8
0
 10
5.40169
 20
0.436143
 30
0.0
 40
0
 41
0
  0
VERTEX
  8
0
 10
5.35574
 20
0.390246
 30
0.0
 40
0
 41
0
  0
VERTEX
  8
0
 10
5.02311
 20
0.384983
 30
0.0
 40
0
 41
0
  0
VERTEX
  8
0
 10
5.02311
 20
0.573893
 30
0.0
 40
0
 41
0
  0
SEQEND
 8
0
  0
POLYLINE
  8
0
 62
     7
 66
     1
 10
0
 20
0
 30
0.0
 70
     1
 40
0
 41
0
  0
VERTEX
  8
0
 10
5.40332
 20
0.798122
 30
0.0
 40
0
 41
0
  0
VERTEX
  8
0
 10
5.35612
 20
0.753418
 30
0.0
 40
0
 41
0
  0
VERTEX
  8
0
 10
5.02311
 20
0.753418
 30
0.0
 40
0
 41
0
  0
VERTEX
  8
0
 10
5.02311
 20
0.936957
 30
0.0
 40
0
 41
0
  0
VERTEX
  8
0
 10
5.35585
 20
0.936957
 30
0.0
 40
0
 41
0
  0
VERTEX
  8
0
 10
5.40332
 20
0.88954
 30
0.0
 40
0
 41
0
  0
VERTEX
  8
0
 10
5.40332
 20
0.798122
 30
0.0
 40
0
 41
0
  0
SEQEND
 8
0
  0
POLYLINE
  8
0
 62
     7
 66
     1
 10
0
 20
0
 30
0.0
 70
     1
 40
0
 41
0
  0
VERTEX
  8
0
 10
4.49007
 20
0.20779
 30
0.0
 40
0
 41
0
  0
VERTEX
  8
0
 10
4.66803
 20
0.20779
 30
0.0
 40
0
 41
0
  0
VERTEX
  8
0
 10
4.66803
 20
0.917101
 30
0.0
 40
0
 41
0
  0
VERTEX
  8
0
 10
4.66803
 20
0.927083
 30
0.0
 40
0
 41
0
  0
VERTEX
  8
0
 10
4.47661
 20
1.1148
 30
0.0
 40
0
 41
0
  0
VERTEX
  8
0
 10
4.10178
 20
1.11306
 30
0.0
 40
0
 41
0
  0
VERTEX
  8
0
 10
3.91211
 20
0.924914
 30
0.0
 40
0
 41
0
  0
VERTEX
  8
0
 10
3.91211
 20
0.20779
 30
0.0
 40
0
 41
0
  0
VERTEX
  8
0
 10
4.09022
 20
0.20779
 30
0.0
 40
0
 41
0
  0
VERTEX
  8
0
 10
4.09022
 20
0.478136
 30
0.0
 40
0
 41
0
  0
VERTEX
  8
0
 10
4.49007
 20
0.478136
 30
0.0
 40
0
 41
0
  0
VERTEX
  8
0
 10
4.49007
 20
0.20779
 30
0.0
 40
0
 41
0
  0
SEQEND
 8
0
  0
POLYLINE
  8
0
 62
     7
 66
     1
 10
0
 20
0
 30
0.0
 70
     1
 40
0
 41
0
  0
VERTEX
  8
0
 10
4.48856
 20
0.657878
 30
0.0
 40
0
 41
0
  0
VERTEX
  8
0
 10
4.09093
 20
0.657878
 30
0.0
 40
0
 41
0
  0
VERTEX
  8
0
 10
4.09093
 20
0.847928
 30
0.0
 40
0
 41
0
  0
VERTEX
  8
0
 10
4.17632
 20
0.933322
 30
0.0
 40
0
 41
0
  0
VERTEX
  8
0
 10
4.4031
 20
0.933322
 30
0.0
 40
0
 41
0
  0
VERTEX
  8
0
 10
4.48856
 20
0.847928
 30
0.0
 40
0
 41
0
  0
VERTEX
  8
0
 10
4.48856
 20
0.657878
 30
0.0
 40
0
 41
0
  0
SEQEND
 8
0
  0
POLYLINE
  8
0
 62
     7
 66
     1
 10
0
 20
0
 30
0.0
 70
     1
 40
0
 41
0
  0
VERTEX
  8
0
 10
3.07254
 20
0.209039
 30
0.0
 40
0
 41
0
  0
VERTEX
  8
0
 10
3.80306
 20
0.209039
 30
0.0
 40
0
 41
0
  0
VERTEX
  8
0
 10
3.80306
 20
0.388618
 30
0.0
 40
0
 41
0
  0
VERTEX
  8
0
 10
3.25131
 20
0.388618
 30
0.0
 40
0
 41
0
  0
VERTEX
  8
0
 10
3.25131
 20
1.1148
 30
0.0
 40
0
 41
0
  0
VERTEX
  8
0
 10
3.07178
 20
1.1148
 30
0.0
 40
0
 41
0
  0
VERTEX
  8
0
 10
3.07254
 20
0.209039
 30
0.0
 40
0
 41
0
  0
SEQEND
 8
0
  0
POLYLINE
  8
0
 62
     7
 66
     1
 10
0
 20
0
 30
0.0
 70
     1
 40
0
 41
0
  0
VERTEX
  8
0
 10
2.65294
 20
0.541938
 30
0.0
 40
0
 41
0
  0
VERTEX
  8
0
 10
2.93007
 20
0.819065
 30
0.0
 40
0
 41
0
  0
VERTEX
  8
0
 10
2.93007
 20
1.1148
 30
0.0
 40
0
 41
0
  0
VERTEX
  8
0
 10
2.75179
 20
1.1148
 30
0.0
 40
0
 41
0
  0
VERTEX
  8
0
 10
2.75179
 20
0.892253
 30
0.0
 40
0
 41
0
  0
VERTEX
  8
0
 10
2.56569
 20
0.706218
 30
0.0
 40
0
 41
0
  0
VERTEX
  8
0
 10
2.37961
 20
0.892361
 30
0.0
 40
0
 41
0
  0
VERTEX
  8
0
 10
2.37961
 20
1.1148
 30
0.0
 40
0
 41
0
  0
VERTEX
  8
0
 10
2.20003
 20
1.1148
 30
0.0
 40
0
 41
0
  0
VERTEX
  8
0
 10
2.20003
 20
0.817817
 30
0.0
 40
0
 41
0
  0
VERTEX
  8
0
 10
2.47592
 20
0.541938
 30
0.0
 40
0
 41
0
  0
VERTEX
  8
0
 10
2.47592
 20
0.209093
 30
0.0
 40
0
 41
0
  0
VERTEX
  8
0
 10
2.65549
 20
0.209093
 30
0.0
 40
0
 41
0
  0
VERTEX
  8
0
 10
2.65294
 20
0.541938
 30
0.0
 40
0
 41
0
  0
SEQEND
 8
0
  0
POLYLINE
  8
0
 62
     7
 66
     1
 10
0
 20
0
 30
0.0
 70
     1
 40
0
 41
0
  0
VERTEX
  8
0
 10
1.84418
 20
0.935275
 30
0.0
 40
0
 41
0
  0
VERTEX
  8
0
 10
2.09104
 20
0.935275
 30
0.0
 40
0
 41
0
  0
VERTEX
  8
0
 10
2.09104
 20
1.1148
 30
0.0
 40
0
 41
0
  0
VERTEX
  8
0
 10
1.41781
 20
1.1148
 30
0.0
 40
0
 41
0
  0
VERTEX
  8
0
 10
1.41781
 20
0.935275
 30
0.0
 40
0
 41
0
  0
VERTEX
  8
0
 10
1.66461
 20
0.935275
 30
0.0
 40
0
 41
0
  0
VERTEX
  8
0
 10
1.66461
 20
0.209093
 30
0.0
 40
0
 41
0
  0
VERTEX
  8
0
 10
1.84418
 20
0.209093
 30
0.0
 40
0
 41
0
  0
VERTEX
  8
0
 10
1.84418
 20
0.935275
 30
0.0
 40
0
 41
0
  0
SEQEND
 8
0
  0
POLYLINE
  8
0
 62
     7
 66
     1
 10
0
 20
0
 30
0.0
 70
     1
 40
0
 41
0
  0
VERTEX
  8
0
 10
1.05919
 20
0.209039
 30
0.0
 40
0
 41
0
  0
VERTEX
  8
0
 10
1.26774
 20
0.209039
 30
0.0
 40
0
 41
0
  0
VERTEX
  8
0
 10
1.26774
 20
1.1148
 30
0.0
 40
0
 41
0
  0
VERTEX
  8
0
 10
1.05919
 20
1.1148
 30
0.0
 40
0
 41
0
  0
VERTEX
  8
0
 10
1.05919
 20
0.209039
 30
0.0
 40
0
 41
0
  0
SEQEND
 8
0
  0
POLYLINE
  8
0
 62
     7
 66
     1
 10
0
 20
0
 30
0.0
 70
     1
 40
0
 41
0
  0
VERTEX
  8
0
 10
0.712511
 20
0.552029
 30
0.0
 40
0
 41
0
  0
VERTEX
  8
0
 10
0.712511
 20
0.474067
 30
0.0
 40
0
 41
0
  0
VERTEX
  8
0
 10
0.627115
 20
0.388618
 30
0.0
 40
0
 41
0
  0
VERTEX
  8
0
 10
0.483832
 20
0.388618
 30
0.0
 40
0
 41
0
  0
VERTEX
  8
0
 10
0.398438
 20
0.474067
 30
0.0
 40
0
 41
0
  0
VERTEX
  8
0
 10
0.398438
 20
0.849826
 30
0.0
 40
0
 41
0
  0
VERTEX
  8
0
 10
0.483832
 20
0.935221
 30
0.0
 40
0
 41
0
  0
VERTEX
  8
0
 10
0.627115
 20
0.935221
 30
0.0
 40
0
 41
0
  0
VERTEX
  8
0
 10
0.712511
 20
0.849826
 30
0.0
 40
0
 41
0
  0
VERTEX
  8
0
 10
0.712511
 20
0.774035
 30
0.0
 40
0
 41
0
  0
VERTEX
  8
0
 10
0.89209
 20
0.774035
 30
0.0
 40
0
 41
0
  0
VERTEX
  8
0
 10
0.89209
 20
0.924371
 30
0.0
 40
0
 41
0
  0
VERTEX
  8
0
 10
0.701606
 20
1.1148
 30
0.0
 40
0
 41
0
  0
VERTEX
  8
0
 10
0.409289
 20
1.1148
 30
0.0
 40
0
 41
0
  0
VERTEX
  8
0
 10
0.218858
 20
0.924371
 30
0.0
 40
0
 41
0
  0
VERTEX
  8
0
 10
0.218858
 20
0.789931
 30
0.0
 40
0
 41
0
  0
VERTEX
  8
0
 10
0.218858
 20
0.399522
 30
0.0
 40
0
 41
0
  0
VERTEX
  8
0
 10
0.409289
 20
0.209093
 30
0.0
 40
0
 41
0
  0
VERTEX
  8
0
 10
0.698514
 20
0.209093
 30
0.0
 40
0
 41
0
  0
VERTEX
  8
0
 10
0.89209
 20
0.399414
 30
0.0
 40
0
 41
0
  0
VERTEX
  8
0
 10
0.89209
 20
0.552029
 30
0.0
 40
0
 41
0
  0
VERTEX
  8
0
 10
0.712511
 20
0.552029
 30
0.0
 40
0
 41
0
  0
SEQEND
 8
0
  0
ENDSEC
  0
EOF
