  0
SECTION
  2
HEADER
  9
$ACADVER
  1
AC1009
  9
$FILLMODE
 70
 0
  9
$SPLFRAME
 70
 1
  9
$EXTMIN
 10
0
 20
0
 30
0.0
  9
$EXTMAX
 10
41.6667
 20
41.6667
 30
0.0
  0
ENDSEC
  0
SECTION
  2
TABLES
  0
TABLE
  2
LAYER
 70
1
  0
LAYER
  2
0
 70
     0
 62
     7
  6
CONTINUOUS
  0
ENDTAB
  0
ENDSEC
  0
SECTION
  2
ENTITIES
  0
POLYLINE
  8
0
 62
     3
 66
     1
 10
0
 20
0
 30
0.0
 70
     1
 40
0
 41
0
  0
VERTEX
  8
0
 10
0.189833
 20
0.418024
 30
0.0
 40
0
 41
0
  0
VERTEX
  8
0
 10
0.15956
 20
0.418024
 30
0.0
 40
0
 41
0
  0
VERTEX
  8
0
 10
0.15956
 20
0.657715
 30
0.0
 40
0
 41
0
  0
VERTEX
  8
0
 10
0.261936
 20
0.760092
 30
0.0
 40
0
 41
0
  0
VERTEX
  8
0
 10
0.429036
 20
0.760092
 30
0.0
 40
0
 41
0
  0
VERTEX
  8
0
 10
0.531358
 20
0.657715
 30
0.0
 40
0
 41
0
  0
VERTEX
  8
0
 10
0.531358
 20
0.600315
 30
0.0
 40
0
 41
0
  0
VERTEX
  8
0
 10
0.648817
 20
0.600315
 30
0.0
 40
0
 41
0
  0
VERTEX
  8
0
 10
0.648817
 20
0.706543
 30
0.0
 40
0
 41
0
  0
VERTEX
  8
0
 10
0.47781
 20
0.877604
 30
0.0
 40
0
 41
0
  0
VERTEX
  8
0
 10
0.374457
 20
0.877604
 30
0.0
 40
0
 41
0
  0
VERTEX
  8
0
 10
0.304688
 20
0.802735
 30
0.0
 40
0
 41
0
  0
VERTEX
  8
0
 10
0.240397
 20
0.80154
 30
0.0
 40
0
 41
0
  0
VERTEX
  8
0
 10
0.116374
 20
0.677518
 30
0.0
 40
0
 41
0
  0
VERTEX
  8
0
 10
0.116374
 20
0.600424
 30
0.0
 40
0
 41
0
  0
VERTEX
  8
0
 10
0.0861546
 20
0.600424
 30
0.0
 40
0
 41
0
  0
VERTEX
  8
0
 10
0.0861546
 20
0.689996
 30
0.0
 40
0
 41
0
  0
VERTEX
  8
0
 10
0.227647
 20
0.831489
 30
0.0
 40
0
 41
0
  0
VERTEX
  8
0
 10
0.291342
 20
0.832844
 30
0.0
 40
0
 41
0
  0
VERTEX
  8
0
 10
0.361274
 20
0.907824
 30
0.0
 40
0
 41
0
  0
VERTEX
  8
0
 10
0.490289
 20
0.907824
 30
0.0
 40
0
 41
0
  0
VERTEX
  8
0
 10
0.67909
 20
0.719021
 30
0.0
 40
0
 41
0
  0
VERTEX
  8
0
 10
0.67909
 20
0.570042
 30
0.0
 40
0
 41
0
  0
VERTEX
  8
0
 10
0.501139
 20
0.570042
 30
0.0
 40
0
 41
0
  0
VERTEX
  8
0
 10
0.501139
 20
0.645182
 30
0.0
 40
0
 41
0
  0
VERTEX
  8
0
 10
0.41645
 20
0.729818
 30
0.0
 40
0
 41
0
  0
VERTEX
  8
0
 10
0.274468
 20
0.729818
 30
0.0
 40
0
 41
0
  0
VERTEX
  8
0
 10
0.189833
 20
0.645182
 30
0.0
 40
0
 41
0
  0
VERTEX
  8
0
 10
0.189833
 20
0.418024
 30
0.0
 40
0
 41
0
  0
SEQEND
 8
0
  0
POLYLINE
  8
0
 62
     3
 66
     1
 10
0
 20
0
 30
0.0
 70
     1
 40
0
 41
0
  0
VERTEX
  8
0
 10
0.201606
 20
0.38916
 30
0.0
 40
0
 41
0
  0
VERTEX
  8
0
 10
0.147732
 20
0.38916
 30
0.0
 40
0
 41
0
  0
VERTEX
  8
0
 10
0.147732
 20
0.443033
 30
0.0
 40
0
 41
0
  0
VERTEX
  8
0
 10
0.201606
 20
0.443033
 30
0.0
 40
0
 41
0
  0
VERTEX
  8
0
 10
0.201606
 20
0.38916
 30
0.0
 40
0
 41
0
  0
SEQEND
 8
0
  0
POLYLINE
  8
0
 62
     3
 66
     1
 10
0
 20
0
 30
0.0
 70
     1
 40
0
 41
0
  0
VERTEX
  8
0
 10
0.0742731
 20
0.589626
 30
0.0
 40
0
 41
0
  0
VERTEX
  8
0
 10
0.128201
 20
0.589626
 30
0.0
 40
0
 41
0
  0
VERTEX
  8
0
 10
0.128201
 20
0.643554
 30
0.0
 40
0
 41
0
  0
VERTEX
  8
0
 10
0.0742731
 20
0.643554
 30
0.0
 40
0
 41
0
  0
VERTEX
  8
0
 10
0.0742731
 20
0.589626
 30
0.0
 40
0
 41
0
  0
SEQEND
 8
0
  0
POLYLINE
  8
0
 62
     3
 66
     1
 10
0
 20
0
 30
0.0
 70
     1
 40
0
 41
0
  0
VERTEX
  8
0
 10
0.604221
 20
0.657986
 30
0.0
 40
0
 41
0
  0
VERTEX
  8
0
 10
0.573947
 20
0.657986
 30
0.0
 40
0
 41
0
  0
VERTEX
  8
0
 10
0.573947
 20
0.679417
 30
0.0
 40
0
 41
0
  0
VERTEX
  8
0
 10
0.450196
 20
0.803711
 30
0.0
 40
0
 41
0
  0
VERTEX
  8
0
 10
0.400825
 20
0.803711
 30
0.0
 40
0
 41
0
  0
VERTEX
  8
0
 10
0.400825
 20
0.833985
 30
0.0
 40
0
 41
0
  0
VERTEX
  8
0
 10
0.462836
 20
0.833985
 30
0.0
 40
0
 41
0
  0
VERTEX
  8
0
 10
0.604221
 20
0.691894
 30
0.0
 40
0
 41
0
  0
VERTEX
  8
0
 10
0.604221
 20
0.657986
 30
0.0
 40
0
 41
0
  0
SEQEND
 8
0
  0
POLYLINE
  8
0
 62
     3
 66
     1
 10
0
 20
0
 30
0.0
 70
     1
 40
0
 41
0
  0
VERTEX
  8
0
 10
0.375162
 20
0.845811
 30
0.0
 40
0
 41
0
  0
VERTEX
  8
0
 10
0.42909
 20
0.845811
 30
0.0
 40
0
 41
0
  0
VERTEX
  8
0
 10
0.42909
 20
0.791883
 30
0.0
 40
0
 41
0
  0
VERTEX
  8
0
 10
0.375162
 20
0.791883
 30
0.0
 40
0
 41
0
  0
VERTEX
  8
0
 10
0.375162
 20
0.845811
 30
0.0
 40
0
 41
0
  0
SEQEND
 8
0
  0
POLYLINE
  8
0
 62
     3
 66
     1
 10
0
 20
0
 30
0.0
 70
     1
 40
0
 41
0
  0
VERTEX
  8
0
 10
0.562121
 20
0.632324
 30
0.0
 40
0
 41
0
  0
VERTEX
  8
0
 10
0.616049
 20
0.632324
 30
0.0
 40
0
 41
0
  0
VERTEX
  8
0
 10
0.616049
 20
0.686253
 30
0.0
 40
0
 41
0
  0
VERTEX
  8
0
 10
0.562121
 20
0.686253
 30
0.0
 40
0
 41
0
  0
VERTEX
  8
0
 10
0.562121
 20
0.632324
 30
0.0
 40
0
 41
0
  0
SEQEND
 8
0
  0
POLYLINE
  8
0
 62
     3
 66
     1
 10
0
 20
0
 30
0.0
 70
     1
 40
0
 41
0
  0
VERTEX
  8
0
 10
0.0118273
 20
0.466635
 30
0.0
 40
0
 41
0
  0
VERTEX
  8
0
 10
0.0118273
 20
0.198893
 30
0.0
 40
0
 41
0
  0
VERTEX
  8
0
 10
0.200629
 20
0.0100912
 30
0.0
 40
0
 41
0
  0
VERTEX
  8
0
 10
0.487196
 20
0.0100912
 30
0.0
 40
0
 41
0
  0
VERTEX
  8
0
 10
0.67909
 20
0.198839
 30
0.0
 40
0
 41
0
  0
VERTEX
  8
0
 10
0.67909
 20
0.349989
 30
0.0
 40
0
 41
0
  0
VERTEX
  8
0
 10
0.501139
 20
0.349989
 30
0.0
 40
0
 41
0
  0
VERTEX
  8
0
 10
0.501139
 20
0.272786
 30
0.0
 40
0
 41
0
  0
VERTEX
  8
0
 10
0.416504
 20
0.188097
 30
0.0
 40
0
 41
0
  0
VERTEX
  8
0
 10
0.274522
 20
0.188097
 30
0.0
 40
0
 41
0
  0
VERTEX
  8
0
 10
0.189833
 20
0.272786
 30
0.0
 40
0
 41
0
  0
VERTEX
  8
0
 10
0.189833
 20
0.331543
 30
0.0
 40
0
 41
0
  0
VERTEX
  8
0
 10
0.15956
 20
0.331543
 30
0.0
 40
0
 41
0
  0
VERTEX
  8
0
 10
0.15956
 20
0.2602
 30
0.0
 40
0
 41
0
  0
VERTEX
  8
0
 10
0.261936
 20
0.157824
 30
0.0
 40
0
 41
0
  0
VERTEX
  8
0
 10
0.429036
 20
0.157824
 30
0.0
 40
0
 41
0
  0
VERTEX
  8
0
 10
0.531358
 20
0.2602
 30
0.0
 40
0
 41
0
  0
VERTEX
  8
0
 10
0.531358
 20
0.319715
 30
0.0
 40
0
 41
0
  0
VERTEX
  8
0
 10
0.648817
 20
0.319715
 30
0.0
 40
0
 41
0
  0
VERTEX
  8
0
 10
0.648817
 20
0.211481
 30
0.0
 40
0
 41
0
  0
VERTEX
  8
0
 10
0.474826
 20
0.0403646
 30
0.0
 40
0
 41
0
  0
VERTEX
  8
0
 10
0.213163
 20
0.0403646
 30
0.0
 40
0
 41
0
  0
VERTEX
  8
0
 10
0.0421007
 20
0.211426
 30
0.0
 40
0
 41
0
  0
VERTEX
  8
0
 10
0.0421007
 20
0.466635
 30
0.0
 40
0
 41
0
  0
VERTEX
  8
0
 10
0.0118273
 20
0.466635
 30
0.0
 40
0
 41
0
  0
SEQEND
 8
0
  0
POLYLINE
  8
0
 62
     3
 66
     1
 10
0
 20
0
 30
0.0
 70
     1
 40
0
 41
0
  0
VERTEX
  8
0
 10
0
 20
0.438368
 30
0.0
 40
0
 41
0
  0
VERTEX
  8
0
 10
0.0539279
 20
0.438368
 30
0.0
 40
0
 41
0
  0
VERTEX
  8
0
 10
0.0539279
 20
0.492296
 30
0.0
 40
0
 41
0
  0
VERTEX
  8
0
 10
0
 20
0.492296
 30
0.0
 40
0
 41
0
  0
VERTEX
  8
0
 10
0
 20
0.438368
 30
0.0
 40
0
 41
0
  0
SEQEND
 8
0
  0
POLYLINE
  8
0
 62
     3
 66
     1
 10
0
 20
0
 30
0.0
 70
     1
 40
0
 41
0
  0
VERTEX
  8
0
 10
0.201606
 20
0.35715
 30
0.0
 40
0
 41
0
  0
VERTEX
  8
0
 10
0.147732
 20
0.35715
 30
0.0
 40
0
 41
0
  0
VERTEX
  8
0
 10
0.147732
 20
0.303222
 30
0.0
 40
0
 41
0
  0
VERTEX
  8
0
 10
0.201606
 20
0.303222
 30
0.0
 40
0
 41
0
  0
VERTEX
  8
0
 10
0.201606
 20
0.35715
 30
0.0
 40
0
 41
0
  0
SEQEND
 8
0
  0
POLYLINE
  8
0
 62
     3
 66
     1
 10
0
 20
0
 30
0.0
 70
     1
 40
0
 41
0
  0
VERTEX
  8
0
 10
0.393067
 20
0.0820313
 30
0.0
 40
0
 41
0
  0
VERTEX
  8
0
 10
0.39285
 20
0.112305
 30
0.0
 40
0
 41
0
  0
VERTEX
  8
0
 10
0.444444
 20
0.112956
 30
0.0
 40
0
 41
0
  0
VERTEX
  8
0
 10
0.574056
 20
0.242242
 30
0.0
 40
0
 41
0
  0
VERTEX
  8
0
 10
0.57411
 20
0.258247
 30
0.0
 40
0
 41
0
  0
VERTEX
  8
0
 10
0.604329
 20
0.258083
 30
0.0
 40
0
 41
0
  0
VERTEX
  8
0
 10
0.604221
 20
0.229656
 30
0.0
 40
0
 41
0
  0
VERTEX
  8
0
 10
0.457086
 20
0.0827908
 30
0.0
 40
0
 41
0
  0
VERTEX
  8
0
 10
0.393067
 20
0.0820313
 30
0.0
 40
0
 41
0
  0
SEQEND
 8
0
  0
POLYLINE
  8
0
 62
     3
 66
     1
 10
0
 20
0
 30
0.0
 70
     1
 40
0
 41
0
  0
VERTEX
  8
0
 10
0.367567
 20
0.0699869
 30
0.0
 40
0
 41
0
  0
VERTEX
  8
0
 10
0.367133
 20
0.123915
 30
0.0
 40
0
 41
0
  0
VERTEX
  8
0
 10
0.421061
 20
0.124403
 30
0.0
 40
0
 41
0
  0
VERTEX
  8
0
 10
0.421496
 20
0.070421
 30
0.0
 40
0
 41
0
  0
VERTEX
  8
0
 10
0.367567
 20
0.0699869
 30
0.0
 40
0
 41
0
  0
SEQEND
 8
0
  0
POLYLINE
  8
0
 62
     3
 66
     1
 10
0
 20
0
 30
0.0
 70
     1
 40
0
 41
0
  0
VERTEX
  8
0
 10
0.616319
 20
0.283637
 30
0.0
 40
0
 41
0
  0
VERTEX
  8
0
 10
0.562392
 20
0.283854
 30
0.0
 40
0
 41
0
  0
VERTEX
  8
0
 10
0.562121
 20
0.229981
 30
0.0
 40
0
 41
0
  0
VERTEX
  8
0
 10
0.616049
 20
0.22971
 30
0.0
 40
0
 41
0
  0
VERTEX
  8
0
 10
0.616319
 20
0.283637
 30
0.0
 40
0
 41
0
  0
SEQEND
 8
0
  0
POLYLINE
  8
0
 62
     3
 66
     1
 10
0
 20
0
 30
0.0
 70
     1
 40
0
 41
0
  0
VERTEX
  8
0
 10
0.200629
 20
0.907824
 30
0.0
 40
0
 41
0
  0
VERTEX
  8
0
 10
0.0118273
 20
0.719021
 30
0.0
 40
0
 41
0
  0
VERTEX
  8
0
 10
0.0118273
 20
0.561686
 30
0.0
 40
0
 41
0
  0
VERTEX
  8
0
 10
0.0861546
 20
0.486111
 30
0.0
 40
0
 41
0
  0
VERTEX
  8
0
 10
0.0861546
 20
0.227376
 30
0.0
 40
0
 41
0
  0
VERTEX
  8
0
 10
0.234104
 20
0.0805122
 30
0.0
 40
0
 41
0
  0
VERTEX
  8
0
 10
0.305556
 20
0.081326
 30
0.0
 40
0
 41
0
  0
VERTEX
  8
0
 10
0.305339
 20
0.111599
 30
0.0
 40
0
 41
0
  0
VERTEX
  8
0
 10
0.246528
 20
0.11084
 30
0.0
 40
0
 41
0
  0
VERTEX
  8
0
 10
0.116374
 20
0.239963
 30
0.0
 40
0
 41
0
  0
VERTEX
  8
0
 10
0.116374
 20
0.498481
 30
0.0
 40
0
 41
0
  0
VERTEX
  8
0
 10
0.0421007
 20
0.57411
 30
0.0
 40
0
 41
0
  0
VERTEX
  8
0
 10
0.0421007
 20
0.706543
 30
0.0
 40
0
 41
0
  0
VERTEX
  8
0
 10
0.213163
 20
0.877604
 30
0.0
 40
0
 41
0
  0
VERTEX
  8
0
 10
0.239963
 20
0.877604
 30
0.0
 40
0
 41
0
  0
VERTEX
  8
0
 10
0.239963
 20
0.907824
 30
0.0
 40
0
 41
0
  0
VERTEX
  8
0
 10
0.200629
 20
0.907824
 30
0.0
 40
0
 41
0
  0
SEQEND
 8
0
  0
POLYLINE
  8
0
 62
     3
 66
     1
 10
0
 20
0
 30
0.0
 70
     1
 40
0
 41
0
  0
VERTEX
  8
0
 10
0.289551
 20
0.865722
 30
0.0
 40
0
 41
0
  0
VERTEX
  8
0
 10
0.235622
 20
0.865722
 30
0.0
 40
0
 41
0
  0
VERTEX
  8
0
 10
0.235622
 20
0.91965
 30
0.0
 40
0
 41
0
  0
VERTEX
  8
0
 10
0.289551
 20
0.91965
 30
0.0
 40
0
 41
0
  0
VERTEX
  8
0
 10
0.289551
 20
0.865722
 30
0.0
 40
0
 41
0
  0
SEQEND
 8
0
  0
POLYLINE
  8
0
 62
     3
 66
     1
 10
0
 20
0
 30
0.0
 70
     1
 40
0
 41
0
  0
VERTEX
  8
0
 10
0.331272
 20
0.0697157
 30
0.0
 40
0
 41
0
  0
VERTEX
  8
0
 10
0.330837
 20
0.123589
 30
0.0
 40
0
 41
0
  0
VERTEX
  8
0
 10
0.27691
 20
0.123155
 30
0.0
 40
0
 41
0
  0
VERTEX
  8
0
 10
0.277344
 20
0.0692275
 30
0.0
 40
0
 41
0
  0
VERTEX
  8
0
 10
0.331272
 20
0.0697157
 30
0.0
 40
0
 41
0
  0
SEQEND
 8
0
  0
POLYLINE
  8
0
 62
     3
 66
     1
 10
0
 20
0
 30
0.0
 70
     1
 40
0
 41
0
  0
VERTEX
  8
0
 10
1.20014
 20
0.907824
 30
0.0
 40
0
 41
0
  0
VERTEX
  8
0
 10
1.20014
 20
0.729926
 30
0.0
 40
0
 41
0
  0
VERTEX
  8
0
 10
1.44476
 20
0.729926
 30
0.0
 40
0
 41
0
  0
VERTEX
  8
0
 10
1.44476
 20
0.0100912
 30
0.0
 40
0
 41
0
  0
VERTEX
  8
0
 10
1.62272
 20
0.0100912
 30
0.0
 40
0
 41
0
  0
VERTEX
  8
0
 10
1.62272
 20
0.42296
 30
0.0
 40
0
 41
0
  0
VERTEX
  8
0
 10
1.54893
 20
0.496744
 30
0.0
 40
0
 41
0
  0
VERTEX
  8
0
 10
1.54893
 20
0.835124
 30
0.0
 40
0
 41
0
  0
VERTEX
  8
0
 10
1.28554
 20
0.835124
 30
0.0
 40
0
 41
0
  0
VERTEX
  8
0
 10
1.28554
 20
0.804904
 30
0.0
 40
0
 41
0
  0
VERTEX
  8
0
 10
1.51867
 20
0.804904
 30
0.0
 40
0
 41
0
  0
VERTEX
  8
0
 10
1.51867
 20
0.484213
 30
0.0
 40
0
 41
0
  0
VERTEX
  8
0
 10
1.5925
 20
0.410428
 30
0.0
 40
0
 41
0
  0
VERTEX
  8
0
 10
1.5925
 20
0.0403646
 30
0.0
 40
0
 41
0
  0
VERTEX
  8
0
 10
1.47504
 20
0.0403646
 30
0.0
 40
0
 41
0
  0
VERTEX
  8
0
 10
1.47504
 20
0.760146
 30
0.0
 40
0
 41
0
  0
VERTEX
  8
0
 10
1.23036
 20
0.760146
 30
0.0
 40
0
 41
0
  0
VERTEX
  8
0
 10
1.23036
 20
0.877604
 30
0.0
 40
0
 41
0
  0
VERTEX
  8
0
 10
1.83712
 20
0.877604
 30
0.0
 40
0
 41
0
  0
VERTEX
  8
0
 10
1.83712
 20
0.760146
 30
0.0
 40
0
 41
0
  0
VERTEX
  8
0
 10
1.5925
 20
0.760146
 30
0.0
 40
0
 41
0
  0
VERTEX
  8
0
 10
1.5925
 20
0.522136
 30
0.0
 40
0
 41
0
  0
VERTEX
  8
0
 10
1.62272
 20
0.522136
 30
0.0
 40
0
 41
0
  0
VERTEX
  8
0
 10
1.62272
 20
0.729926
 30
0.0
 40
0
 41
0
  0
VERTEX
  8
0
 10
1.8674
 20
0.729926
 30
0.0
 40
0
 41
0
  0
VERTEX
  8
0
 10
1.8674
 20
0.907824
 30
0.0
 40
0
 41
0
  0
VERTEX
  8
0
 10
1.20014
 20
0.907824
 30
0.0
 40
0
 41
0
  0
SEQEND
 8
0
  0
POLYLINE
  8
0
 62
     3
 66
     1
 10
0
 20
0
 30
0.0
 70
     1
 40
0
 41
0
  0
VERTEX
  8
0
 10
1.25993
 20
0.793024
 30
0.0
 40
0
 41
0
  0
VERTEX
  8
0
 10
1.25993
 20
0.847006
 30
0.0
 40
0
 41
0
  0
VERTEX
  8
0
 10
1.31386
 20
0.847006
 30
0.0
 40
0
 41
0
  0
VERTEX
  8
0
 10
1.31386
 20
0.793024
 30
0.0
 40
0
 41
0
  0
VERTEX
  8
0
 10
1.25993
 20
0.793024
 30
0.0
 40
0
 41
0
  0
SEQEND
 8
0
  0
POLYLINE
  8
0
 62
     3
 66
     1
 10
0
 20
0
 30
0.0
 70
     1
 40
0
 41
0
  0
VERTEX
  8
0
 10
1.58068
 20
0.496474
 30
0.0
 40
0
 41
0
  0
VERTEX
  8
0
 10
1.63456
 20
0.496474
 30
0.0
 40
0
 41
0
  0
VERTEX
  8
0
 10
1.63456
 20
0.550456
 30
0.0
 40
0
 41
0
  0
VERTEX
  8
0
 10
1.58068
 20
0.550456
 30
0.0
 40
0
 41
0
  0
VERTEX
  8
0
 10
1.58068
 20
0.496474
 30
0.0
 40
0
 41
0
  0
SEQEND
 8
0
  0
POLYLINE
  8
0
 62
     3
 66
     1
 10
0
 20
0
 30
0.0
 70
     1
 40
0
 41
0
  0
VERTEX
  8
0
 10
1.54889
 20
0.0925022
 30
0.0
 40
0
 41
0
  0
VERTEX
  8
0
 10
1.51867
 20
0.0925022
 30
0.0
 40
0
 41
0
  0
VERTEX
  8
0
 10
1.51867
 20
0.392415
 30
0.0
 40
0
 41
0
  0
VERTEX
  8
0
 10
1.54889
 20
0.392415
 30
0.0
 40
0
 41
0
  0
VERTEX
  8
0
 10
1.54889
 20
0.0925022
 30
0.0
 40
0
 41
0
  0
SEQEND
 8
0
  0
POLYLINE
  8
0
 62
     3
 66
     1
 10
0
 20
0
 30
0.0
 70
     1
 40
0
 41
0
  0
VERTEX
  8
0
 10
1.50678
 20
0.418024
 30
0.0
 40
0
 41
0
  0
VERTEX
  8
0
 10
1.56071
 20
0.418024
 30
0.0
 40
0
 41
0
  0
VERTEX
  8
0
 10
1.56071
 20
0.36415
 30
0.0
 40
0
 41
0
  0
VERTEX
  8
0
 10
1.50678
 20
0.36415
 30
0.0
 40
0
 41
0
  0
VERTEX
  8
0
 10
1.50678
 20
0.418024
 30
0.0
 40
0
 41
0
  0
SEQEND
 8
0
  0
POLYLINE
  8
0
 62
     3
 66
     1
 10
0
 20
0
 30
0.0
 70
     1
 40
0
 41
0
  0
VERTEX
  8
0
 10
1.50678
 20
0.0668946
 30
0.0
 40
0
 41
0
  0
VERTEX
  8
0
 10
1.56071
 20
0.0668946
 30
0.0
 40
0
 41
0
  0
VERTEX
  8
0
 10
1.56071
 20
0.120768
 30
0.0
 40
0
 41
0
  0
VERTEX
  8
0
 10
1.50678
 20
0.120768
 30
0.0
 40
0
 41
0
  0
VERTEX
  8
0
 10
1.50678
 20
0.0668946
 30
0.0
 40
0
 41
0
  0
SEQEND
 8
0
  0
POLYLINE
  8
0
 62
     3
 66
     1
 10
0
 20
0
 30
0.0
 70
     1
 40
0
 41
0
  0
VERTEX
  8
0
 10
1.77875
 20
0.804904
 30
0.0
 40
0
 41
0
  0
VERTEX
  8
0
 10
1.61951
 20
0.804904
 30
0.0
 40
0
 41
0
  0
VERTEX
  8
0
 10
1.61951
 20
0.835124
 30
0.0
 40
0
 41
0
  0
VERTEX
  8
0
 10
1.77875
 20
0.835124
 30
0.0
 40
0
 41
0
  0
VERTEX
  8
0
 10
1.77875
 20
0.804904
 30
0.0
 40
0
 41
0
  0
SEQEND
 8
0
  0
POLYLINE
  8
0
 62
     3
 66
     1
 10
0
 20
0
 30
0.0
 70
     1
 40
0
 41
0
  0
VERTEX
  8
0
 10
1.80436
 20
0.793024
 30
0.0
 40
0
 41
0
  0
VERTEX
  8
0
 10
1.75043
 20
0.793024
 30
0.0
 40
0
 41
0
  0
VERTEX
  8
0
 10
1.75043
 20
0.847006
 30
0.0
 40
0
 41
0
  0
VERTEX
  8
0
 10
1.80436
 20
0.847006
 30
0.0
 40
0
 41
0
  0
VERTEX
  8
0
 10
1.80436
 20
0.793024
 30
0.0
 40
0
 41
0
  0
SEQEND
 8
0
  0
POLYLINE
  8
0
 62
     3
 66
     1
 10
0
 20
0
 30
0.0
 70
     1
 40
0
 41
0
  0
VERTEX
  8
0
 10
1.59386
 20
0.793024
 30
0.0
 40
0
 41
0
  0
VERTEX
  8
0
 10
1.64779
 20
0.793024
 30
0.0
 40
0
 41
0
  0
VERTEX
  8
0
 10
1.64779
 20
0.847006
 30
0.0
 40
0
 41
0
  0
VERTEX
  8
0
 10
1.59386
 20
0.847006
 30
0.0
 40
0
 41
0
  0
VERTEX
  8
0
 10
1.59386
 20
0.793024
 30
0.0
 40
0
 41
0
  0
SEQEND
 8
0
  0
POLYLINE
  8
0
 62
     3
 66
     1
 10
0
 20
0
 30
0.0
 70
     1
 40
0
 41
0
  0
VERTEX
  8
0
 10
2.35297
 20
0.0978733
 30
0.0
 40
0
 41
0
  0
VERTEX
  8
0
 10
2.32275
 20
0.0978733
 30
0.0
 40
0
 41
0
  0
VERTEX
  8
0
 10
2.32275
 20
0.237196
 30
0.0
 40
0
 41
0
  0
VERTEX
  8
0
 10
2.3941
 20
0.308539
 30
0.0
 40
0
 41
0
  0
VERTEX
  8
0
 10
2.3941
 20
0.434571
 30
0.0
 40
0
 41
0
  0
VERTEX
  8
0
 10
2.66878
 20
0.709256
 30
0.0
 40
0
 41
0
  0
VERTEX
  8
0
 10
2.66878
 20
0.87755
 30
0.0
 40
0
 41
0
  0
VERTEX
  8
0
 10
2.55257
 20
0.87755
 30
0.0
 40
0
 41
0
  0
VERTEX
  8
0
 10
2.55257
 20
0.756782
 30
0.0
 40
0
 41
0
  0
VERTEX
  8
0
 10
2.49735
 20
0.701606
 30
0.0
 40
0
 41
0
  0
VERTEX
  8
0
 10
2.47597
 20
0.722982
 30
0.0
 40
0
 41
0
  0
VERTEX
  8
0
 10
2.52229
 20
0.769314
 30
0.0
 40
0
 41
0
  0
VERTEX
  8
0
 10
2.52229
 20
0.907824
 30
0.0
 40
0
 41
0
  0
VERTEX
  8
0
 10
2.699
 20
0.907824
 30
0.0
 40
0
 41
0
  0
VERTEX
  8
0
 10
2.699
 20
0.696724
 30
0.0
 40
0
 41
0
  0
VERTEX
  8
0
 10
2.42432
 20
0.422037
 30
0.0
 40
0
 41
0
  0
VERTEX
  8
0
 10
2.42432
 20
0.296007
 30
0.0
 40
0
 41
0
  0
VERTEX
  8
0
 10
2.35297
 20
0.224664
 30
0.0
 40
0
 41
0
  0
VERTEX
  8
0
 10
2.35297
 20
0.0978733
 30
0.0
 40
0
 41
0
  0
SEQEND
 8
0
  0
POLYLINE
  8
0
 62
     3
 66
     1
 10
0
 20
0
 30
0.0
 70
     1
 40
0
 41
0
  0
VERTEX
  8
0
 10
2.36486
 20
0.0722114
 30
0.0
 40
0
 41
0
  0
VERTEX
  8
0
 10
2.31093
 20
0.0722114
 30
0.0
 40
0
 41
0
  0
VERTEX
  8
0
 10
2.31093
 20
0.126139
 30
0.0
 40
0
 41
0
  0
VERTEX
  8
0
 10
2.36486
 20
0.126139
 30
0.0
 40
0
 41
0
  0
VERTEX
  8
0
 10
2.36486
 20
0.0722114
 30
0.0
 40
0
 41
0
  0
SEQEND
 8
0
  0
POLYLINE
  8
0
 62
     3
 66
     1
 10
0
 20
0
 30
0.0
 70
     1
 40
0
 41
0
  0
VERTEX
  8
0
 10
2.44949
 20
0.713271
 30
0.0
 40
0
 41
0
  0
VERTEX
  8
0
 10
2.48762
 20
0.675131
 30
0.0
 40
0
 41
0
  0
VERTEX
  8
0
 10
2.52576
 20
0.713271
 30
0.0
 40
0
 41
0
  0
VERTEX
  8
0
 10
2.48762
 20
0.751357
 30
0.0
 40
0
 41
0
  0
VERTEX
  8
0
 10
2.44949
 20
0.713271
 30
0.0
 40
0
 41
0
  0
SEQEND
 8
0
  0
POLYLINE
  8
0
 62
     3
 66
     1
 10
0
 20
0
 30
0.0
 70
     1
 40
0
 41
0
  0
VERTEX
  8
0
 10
2.35385
 20
0.328396
 30
0.0
 40
0
 41
0
  0
VERTEX
  8
0
 10
2.32362
 20
0.328396
 30
0.0
 40
0
 41
0
  0
VERTEX
  8
0
 10
2.32362
 20
0.465278
 30
0.0
 40
0
 41
0
  0
VERTEX
  8
0
 10
2.435
 20
0.57666
 30
0.0
 40
0
 41
0
  0
VERTEX
  8
0
 10
2.45643
 20
0.555285
 30
0.0
 40
0
 41
0
  0
VERTEX
  8
0
 10
2.35385
 20
0.452692
 30
0.0
 40
0
 41
0
  0
VERTEX
  8
0
 10
2.35385
 20
0.328396
 30
0.0
 40
0
 41
0
  0
SEQEND
 8
0
  0
POLYLINE
  8
0
 62
     3
 66
     1
 10
0
 20
0
 30
0.0
 70
     1
 40
0
 41
0
  0
VERTEX
  8
0
 10
2.44476
 20
0.603136
 30
0.0
 40
0
 41
0
  0
VERTEX
  8
0
 10
2.48292
 20
0.564996
 30
0.0
 40
0
 41
0
  0
VERTEX
  8
0
 10
2.44476
 20
0.52691
 30
0.0
 40
0
 41
0
  0
VERTEX
  8
0
 10
2.40662
 20
0.564996
 30
0.0
 40
0
 41
0
  0
VERTEX
  8
0
 10
2.44476
 20
0.603136
 30
0.0
 40
0
 41
0
  0
SEQEND
 8
0
  0
POLYLINE
  8
0
 62
     3
 66
     1
 10
0
 20
0
 30
0.0
 70
     1
 40
0
 41
0
  0
VERTEX
  8
0
 10
2.31179
 20
0.302789
 30
0.0
 40
0
 41
0
  0
VERTEX
  8
0
 10
2.36572
 20
0.302789
 30
0.0
 40
0
 41
0
  0
VERTEX
  8
0
 10
2.36572
 20
0.356663
 30
0.0
 40
0
 41
0
  0
VERTEX
  8
0
 10
2.31179
 20
0.356663
 30
0.0
 40
0
 41
0
  0
VERTEX
  8
0
 10
2.31179
 20
0.302789
 30
0.0
 40
0
 41
0
  0
SEQEND
 8
0
  0
POLYLINE
  8
0
 62
     3
 66
     1
 10
0
 20
0
 30
0.0
 70
     1
 40
0
 41
0
  0
VERTEX
  8
0
 10
2.2679
 20
0.509765
 30
0.0
 40
0
 41
0
  0
VERTEX
  8
0
 10
2.17171
 20
0.606011
 30
0.0
 40
0
 41
0
  0
VERTEX
  8
0
 10
2.06494
 20
0.606011
 30
0.0
 40
0
 41
0
  0
VERTEX
  8
0
 10
1.97542
 20
0.695475
 30
0.0
 40
0
 41
0
  0
VERTEX
  8
0
 10
1.97542
 20
0.907824
 30
0.0
 40
0
 41
0
  0
VERTEX
  8
0
 10
2.15343
 20
0.907824
 30
0.0
 40
0
 41
0
  0
VERTEX
  8
0
 10
2.15343
 20
0.769368
 30
0.0
 40
0
 41
0
  0
VERTEX
  8
0
 10
2.33789
 20
0.584907
 30
0.0
 40
0
 41
0
  0
VERTEX
  8
0
 10
2.40858
 20
0.655599
 30
0.0
 40
0
 41
0
  0
VERTEX
  8
0
 10
2.51144
 20
0.655599
 30
0.0
 40
0
 41
0
  0
VERTEX
  8
0
 10
2.59483
 20
0.740343
 30
0.0
 40
0
 41
0
  0
VERTEX
  8
0
 10
2.59494
 20
0.820421
 30
0.0
 40
0
 41
0
  0
VERTEX
  8
0
 10
2.62522
 20
0.820367
 30
0.0
 40
0
 41
0
  0
VERTEX
  8
0
 10
2.62511
 20
0.727974
 30
0.0
 40
0
 41
0
  0
VERTEX
  8
0
 10
2.52414
 20
0.625325
 30
0.0
 40
0
 41
0
  0
VERTEX
  8
0
 10
2.42106
 20
0.625325
 30
0.0
 40
0
 41
0
  0
VERTEX
  8
0
 10
2.33789
 20
0.542101
 30
0.0
 40
0
 41
0
  0
VERTEX
  8
0
 10
2.12315
 20
0.756782
 30
0.0
 40
0
 41
0
  0
VERTEX
  8
0
 10
2.12315
 20
0.87755
 30
0.0
 40
0
 41
0
  0
VERTEX
  8
0
 10
2.00575
 20
0.87755
 30
0.0
 40
0
 41
0
  0
VERTEX
  8
0
 10
2.00575
 20
0.708008
 30
0.0
 40
0
 41
0
  0
VERTEX
  8
0
 10
2.07742
 20
0.636231
 30
0.0
 40
0
 41
0
  0
VERTEX
  8
0
 10
2.18419
 20
0.636231
 30
0.0
 40
0
 41
0
  0
VERTEX
  8
0
 10
2.28928
 20
0.531142
 30
0.0
 40
0
 41
0
  0
VERTEX
  8
0
 10
2.2679
 20
0.509765
 30
0.0
 40
0
 41
0
  0
SEQEND
 8
0
  0
POLYLINE
  8
0
 62
     3
 66
     1
 10
0
 20
0
 30
0.0
 70
     1
 40
0
 41
0
  0
VERTEX
  8
0
 10
2.31581
 20
0.521431
 30
0.0
 40
0
 41
0
  0
VERTEX
  8
0
 10
2.27761
 20
0.48329
 30
0.0
 40
0
 41
0
  0
VERTEX
  8
0
 10
2.23947
 20
0.521431
 30
0.0
 40
0
 41
0
  0
VERTEX
  8
0
 10
2.27761
 20
0.559571
 30
0.0
 40
0
 41
0
  0
VERTEX
  8
0
 10
2.31581
 20
0.521431
 30
0.0
 40
0
 41
0
  0
SEQEND
 8
0
  0
POLYLINE
  8
0
 62
     3
 66
     1
 10
0
 20
0
 30
0.0
 70
     1
 40
0
 41
0
  0
VERTEX
  8
0
 10
2.6371
 20
0.845975
 30
0.0
 40
0
 41
0
  0
VERTEX
  8
0
 10
2.58311
 20
0.846083
 30
0.0
 40
0
 41
0
  0
VERTEX
  8
0
 10
2.58311
 20
0.792101
 30
0.0
 40
0
 41
0
  0
VERTEX
  8
0
 10
2.63699
 20
0.792046
 30
0.0
 40
0
 41
0
  0
VERTEX
  8
0
 10
2.6371
 20
0.845975
 30
0.0
 40
0
 41
0
  0
SEQEND
 8
0
  0
POLYLINE
  8
0
 62
     3
 66
     1
 10
0
 20
0
 30
0.0
 70
     1
 40
0
 41
0
  0
VERTEX
  8
0
 10
2.13624
 20
0.534668
 30
0.0
 40
0
 41
0
  0
VERTEX
  8
0
 10
2.24892
 20
0.422092
 30
0.0
 40
0
 41
0
  0
VERTEX
  8
0
 10
2.24892
 20
0.0100912
 30
0.0
 40
0
 41
0
  0
VERTEX
  8
0
 10
2.42686
 20
0.0100912
 30
0.0
 40
0
 41
0
  0
VERTEX
  8
0
 10
2.42686
 20
0.196886
 30
0.0
 40
0
 41
0
  0
VERTEX
  8
0
 10
2.39665
 20
0.196886
 30
0.0
 40
0
 41
0
  0
VERTEX
  8
0
 10
2.39665
 20
0.0403646
 30
0.0
 40
0
 41
0
  0
VERTEX
  8
0
 10
2.27914
 20
0.0403646
 30
0.0
 40
0
 41
0
  0
VERTEX
  8
0
 10
2.27914
 20
0.434571
 30
0.0
 40
0
 41
0
  0
VERTEX
  8
0
 10
2.15767
 20
0.556099
 30
0.0
 40
0
 41
0
  0
VERTEX
  8
0
 10
2.13624
 20
0.534668
 30
0.0
 40
0
 41
0
  0
SEQEND
 8
0
  0
POLYLINE
  8
0
 62
     3
 66
     1
 10
0
 20
0
 30
0.0
 70
     1
 40
0
 41
0
  0
VERTEX
  8
0
 10
2.10981
 20
0.544433
 30
0.0
 40
0
 41
0
  0
VERTEX
  8
0
 10
2.14794
 20
0.582574
 30
0.0
 40
0
 41
0
  0
VERTEX
  8
0
 10
2.18604
 20
0.544433
 30
0.0
 40
0
 41
0
  0
VERTEX
  8
0
 10
2.14794
 20
0.506293
 30
0.0
 40
0
 41
0
  0
VERTEX
  8
0
 10
2.10981
 20
0.544433
 30
0.0
 40
0
 41
0
  0
SEQEND
 8
0
  0
POLYLINE
  8
0
 62
     3
 66
     1
 10
0
 20
0
 30
0.0
 70
     1
 40
0
 41
0
  0
VERTEX
  8
0
 10
2.43869
 20
0.222439
 30
0.0
 40
0
 41
0
  0
VERTEX
  8
0
 10
2.38476
 20
0.222439
 30
0.0
 40
0
 41
0
  0
VERTEX
  8
0
 10
2.38476
 20
0.168511
 30
0.0
 40
0
 41
0
  0
VERTEX
  8
0
 10
2.43869
 20
0.168511
 30
0.0
 40
0
 41
0
  0
VERTEX
  8
0
 10
2.43869
 20
0.222439
 30
0.0
 40
0
 41
0
  0
SEQEND
 8
0
  0
POLYLINE
  8
0
 62
     3
 66
     1
 10
0
 20
0
 30
0.0
 70
     1
 40
0
 41
0
  0
VERTEX
  8
0
 10
2.09978
 20
0.67909
 30
0.0
 40
0
 41
0
  0
VERTEX
  8
0
 10
2.04829
 20
0.730524
 30
0.0
 40
0
 41
0
  0
VERTEX
  8
0
 10
2.04829
 20
0.820367
 30
0.0
 40
0
 41
0
  0
VERTEX
  8
0
 10
2.0785
 20
0.820367
 30
0.0
 40
0
 41
0
  0
VERTEX
  8
0
 10
2.0785
 20
0.743056
 30
0.0
 40
0
 41
0
  0
VERTEX
  8
0
 10
2.12115
 20
0.700467
 30
0.0
 40
0
 41
0
  0
VERTEX
  8
0
 10
2.09978
 20
0.67909
 30
0.0
 40
0
 41
0
  0
SEQEND
 8
0
  0
POLYLINE
  8
0
 62
     3
 66
     1
 10
0
 20
0
 30
0.0
 70
     1
 40
0
 41
0
  0
VERTEX
  8
0
 10
2.0364
 20
0.846029
 30
0.0
 40
0
 41
0
  0
VERTEX
  8
0
 10
2.09033
 20
0.846029
 30
0.0
 40
0
 41
0
  0
VERTEX
  8
0
 10
2.09033
 20
0.792101
 30
0.0
 40
0
 41
0
  0
VERTEX
  8
0
 10
2.0364
 20
0.792101
 30
0.0
 40
0
 41
0
  0
VERTEX
  8
0
 10
2.0364
 20
0.846029
 30
0.0
 40
0
 41
0
  0
SEQEND
 8
0
  0
POLYLINE
  8
0
 62
     3
 66
     1
 10
0
 20
0
 30
0.0
 70
     1
 40
0
 41
0
  0
VERTEX
  8
0
 10
2.10949
 20
0.652561
 30
0.0
 40
0
 41
0
  0
VERTEX
  8
0
 10
2.14762
 20
0.690756
 30
0.0
 40
0
 41
0
  0
VERTEX
  8
0
 10
2.10949
 20
0.728842
 30
0.0
 40
0
 41
0
  0
VERTEX
  8
0
 10
2.07135
 20
0.690756
 30
0.0
 40
0
 41
0
  0
VERTEX
  8
0
 10
2.10949
 20
0.652561
 30
0.0
 40
0
 41
0
  0
SEQEND
 8
0
  0
POLYLINE
  8
0
 62
     3
 66
     1
 10
0
 20
0
 30
0.0
 70
     1
 40
0
 41
0
  0
VERTEX
  8
0
 10
3.07075
 20
0.157824
 30
0.0
 40
0
 41
0
  0
VERTEX
  8
0
 10
2.98719
 20
0.157824
 30
0.0
 40
0
 41
0
  0
VERTEX
  8
0
 10
2.98719
 20
0.877604
 30
0.0
 40
0
 41
0
  0
VERTEX
  8
0
 10
2.86974
 20
0.877604
 30
0.0
 40
0
 41
0
  0
VERTEX
  8
0
 10
2.86974
 20
0.477376
 30
0.0
 40
0
 41
0
  0
VERTEX
  8
0
 10
2.83946
 20
0.477376
 30
0.0
 40
0
 41
0
  0
VERTEX
  8
0
 10
2.83946
 20
0.907824
 30
0.0
 40
0
 41
0
  0
VERTEX
  8
0
 10
3.01742
 20
0.907824
 30
0.0
 40
0
 41
0
  0
VERTEX
  8
0
 10
3.01742
 20
0.188097
 30
0.0
 40
0
 41
0
  0
VERTEX
  8
0
 10
3.07075
 20
0.188097
 30
0.0
 40
0
 41
0
  0
VERTEX
  8
0
 10
3.07075
 20
0.157824
 30
0.0
 40
0
 41
0
  0
SEQEND
 8
0
  0
POLYLINE
  8
0
 62
     3
 66
     1
 10
0
 20
0
 30
0.0
 70
     1
 40
0
 41
0
  0
VERTEX
  8
0
 10
3.09636
 20
0.145996
 30
0.0
 40
0
 41
0
  0
VERTEX
  8
0
 10
3.04243
 20
0.145996
 30
0.0
 40
0
 41
0
  0
VERTEX
  8
0
 10
3.04243
 20
0.199924
 30
0.0
 40
0
 41
0
  0
VERTEX
  8
0
 10
3.09636
 20
0.199924
 30
0.0
 40
0
 41
0
  0
VERTEX
  8
0
 10
3.09636
 20
0.145996
 30
0.0
 40
0
 41
0
  0
SEQEND
 8
0
  0
POLYLINE
  8
0
 62
     3
 66
     1
 10
0
 20
0
 30
0.0
 70
     1
 40
0
 41
0
  0
VERTEX
  8
0
 10
2.82764
 20
0.451768
 30
0.0
 40
0
 41
0
  0
VERTEX
  8
0
 10
2.88157
 20
0.451768
 30
0.0
 40
0
 41
0
  0
VERTEX
  8
0
 10
2.88157
 20
0.505697
 30
0.0
 40
0
 41
0
  0
VERTEX
  8
0
 10
2.82764
 20
0.505697
 30
0.0
 40
0
 41
0
  0
VERTEX
  8
0
 10
2.82764
 20
0.451768
 30
0.0
 40
0
 41
0
  0
SEQEND
 8
0
  0
POLYLINE
  8
0
 62
     3
 66
     1
 10
0
 20
0
 30
0.0
 70
     1
 40
0
 41
0
  0
VERTEX
  8
0
 10
3.47472
 20
0.0777453
 30
0.0
 40
0
 41
0
  0
VERTEX
  8
0
 10
3.20557
 20
0.0777453
 30
0.0
 40
0
 41
0
  0
VERTEX
  8
0
 10
3.20557
 20
0.107964
 30
0.0
 40
0
 41
0
  0
VERTEX
  8
0
 10
3.47472
 20
0.107964
 30
0.0
 40
0
 41
0
  0
VERTEX
  8
0
 10
3.47472
 20
0.0777453
 30
0.0
 40
0
 41
0
  0
SEQEND
 8
0
  0
POLYLINE
  8
0
 62
     3
 66
     1
 10
0
 20
0
 30
0.0
 70
     1
 40
0
 41
0
  0
VERTEX
  8
0
 10
3.1799
 20
0.119792
 30
0.0
 40
0
 41
0
  0
VERTEX
  8
0
 10
3.23389
 20
0.119792
 30
0.0
 40
0
 41
0
  0
VERTEX
  8
0
 10
3.23389
 20
0.0658637
 30
0.0
 40
0
 41
0
  0
VERTEX
  8
0
 10
3.1799
 20
0.0658637
 30
0.0
 40
0
 41
0
  0
VERTEX
  8
0
 10
3.1799
 20
0.119792
 30
0.0
 40
0
 41
0
  0
SEQEND
 8
0
  0
POLYLINE
  8
0
 62
     3
 66
     1
 10
0
 20
0
 30
0.0
 70
     1
 40
0
 41
0
  0
VERTEX
  8
0
 10
3.50032
 20
0.119792
 30
0.0
 40
0
 41
0
  0
VERTEX
  8
0
 10
3.4464
 20
0.119792
 30
0.0
 40
0
 41
0
  0
VERTEX
  8
0
 10
3.4464
 20
0.0658637
 30
0.0
 40
0
 41
0
  0
VERTEX
  8
0
 10
3.50032
 20
0.0658637
 30
0.0
 40
0
 41
0
  0
VERTEX
  8
0
 10
3.50032
 20
0.119792
 30
0.0
 40
0
 41
0
  0
SEQEND
 8
0
  0
POLYLINE
  8
0
 62
     3
 66
     1
 10
0
 20
0
 30
0.0
 70
     1
 40
0
 41
0
  0
VERTEX
  8
0
 10
2.91282
 20
0.820637
 30
0.0
 40
0
 41
0
  0
VERTEX
  8
0
 10
2.91282
 20
0.456976
 30
0.0
 40
0
 41
0
  0
VERTEX
  8
0
 10
2.84022
 20
0.384928
 30
0.0
 40
0
 41
0
  0
VERTEX
  8
0
 10
2.84022
 20
0.0100912
 30
0.0
 40
0
 41
0
  0
VERTEX
  8
0
 10
3.56429
 20
0.0100912
 30
0.0
 40
0
 41
0
  0
VERTEX
  8
0
 10
3.56429
 20
0.188097
 30
0.0
 40
0
 41
0
  0
VERTEX
  8
0
 10
3.16547
 20
0.188097
 30
0.0
 40
0
 41
0
  0
VERTEX
  8
0
 10
3.08985
 20
0.107964
 30
0.0
 40
0
 41
0
  0
VERTEX
  8
0
 10
2.94075
 20
0.107964
 30
0.0
 40
0
 41
0
  0
VERTEX
  8
0
 10
2.94075
 20
0.350097
 30
0.0
 40
0
 41
0
  0
VERTEX
  8
0
 10
2.91049
 20
0.350097
 30
0.0
 40
0
 41
0
  0
VERTEX
  8
0
 10
2.91049
 20
0.0777453
 30
0.0
 40
0
 41
0
  0
VERTEX
  8
0
 10
3.10286
 20
0.0777453
 30
0.0
 40
0
 41
0
  0
VERTEX
  8
0
 10
3.1785
 20
0.157824
 30
0.0
 40
0
 41
0
  0
VERTEX
  8
0
 10
3.53401
 20
0.157824
 30
0.0
 40
0
 41
0
  0
VERTEX
  8
0
 10
3.53401
 20
0.0403646
 30
0.0
 40
0
 41
0
  0
VERTEX
  8
0
 10
2.8705
 20
0.0403646
 30
0.0
 40
0
 41
0
  0
VERTEX
  8
0
 10
2.8705
 20
0.372342
 30
0.0
 40
0
 41
0
  0
VERTEX
  8
0
 10
2.94303
 20
0.44439
 30
0.0
 40
0
 41
0
  0
VERTEX
  8
0
 10
2.94303
 20
0.820637
 30
0.0
 40
0
 41
0
  0
VERTEX
  8
0
 10
2.91282
 20
0.820637
 30
0.0
 40
0
 41
0
  0
SEQEND
 8
0
  0
POLYLINE
  8
0
 62
     3
 66
     1
 10
0
 20
0
 30
0.0
 70
     1
 40
0
 41
0
  0
VERTEX
  8
0
 10
2.89865
 20
0.375651
 30
0.0
 40
0
 41
0
  0
VERTEX
  8
0
 10
2.95258
 20
0.375651
 30
0.0
 40
0
 41
0
  0
VERTEX
  8
0
 10
2.95258
 20
0.321724
 30
0.0
 40
0
 41
0
  0
VERTEX
  8
0
 10
2.89865
 20
0.321724
 30
0.0
 40
0
 41
0
  0
VERTEX
  8
0
 10
2.89865
 20
0.375651
 30
0.0
 40
0
 41
0
  0
SEQEND
 8
0
  0
POLYLINE
  8
0
 62
     3
 66
     1
 10
0
 20
0
 30
0.0
 70
     1
 40
0
 41
0
  0
VERTEX
  8
0
 10
2.95492
 20
0.846246
 30
0.0
 40
0
 41
0
  0
VERTEX
  8
0
 10
2.90099
 20
0.846246
 30
0.0
 40
0
 41
0
  0
VERTEX
  8
0
 10
2.90099
 20
0.792318
 30
0.0
 40
0
 41
0
  0
VERTEX
  8
0
 10
2.95492
 20
0.792318
 30
0.0
 40
0
 41
0
  0
VERTEX
  8
0
 10
2.95492
 20
0.846246
 30
0.0
 40
0
 41
0
  0
SEQEND
 8
0
  0
POLYLINE
  8
0
 62
     3
 66
     1
 10
0
 20
0
 30
0.0
 70
     1
 40
0
 41
0
  0
VERTEX
  8
0
 10
3.86035
 20
0.906087
 30
0.0
 40
0
 41
0
  0
VERTEX
  8
0
 10
3.67236
 20
0.719618
 30
0.0
 40
0
 41
0
  0
VERTEX
  8
0
 10
3.67236
 20
0.00884332
 30
0.0
 40
0
 41
0
  0
VERTEX
  8
0
 10
3.84885
 20
0.00884332
 30
0.0
 40
0
 41
0
  0
VERTEX
  8
0
 10
3.84885
 20
0.276747
 30
0.0
 40
0
 41
0
  0
VERTEX
  8
0
 10
3.96929
 20
0.276747
 30
0.0
 40
0
 41
0
  0
VERTEX
  8
0
 10
4.05062
 20
0.352376
 30
0.0
 40
0
 41
0
  0
VERTEX
  8
0
 10
4.31679
 20
0.352376
 30
0.0
 40
0
 41
0
  0
VERTEX
  8
0
 10
4.31679
 20
0.111165
 30
0.0
 40
0
 41
0
  0
VERTEX
  8
0
 10
4.347
 20
0.111165
 30
0.0
 40
0
 41
0
  0
VERTEX
  8
0
 10
4.347
 20
0.38265
 30
0.0
 40
0
 41
0
  0
VERTEX
  8
0
 10
4.03879
 20
0.38265
 30
0.0
 40
0
 41
0
  0
VERTEX
  8
0
 10
3.95742
 20
0.306967
 30
0.0
 40
0
 41
0
  0
VERTEX
  8
0
 10
3.81863
 20
0.306967
 30
0.0
 40
0
 41
0
  0
VERTEX
  8
0
 10
3.81863
 20
0.0390625
 30
0.0
 40
0
 41
0
  0
VERTEX
  8
0
 10
3.70258
 20
0.0390625
 30
0.0
 40
0
 41
0
  0
VERTEX
  8
0
 10
3.70258
 20
0.706976
 30
0.0
 40
0
 41
0
  0
VERTEX
  8
0
 10
3.87294
 20
0.875922
 30
0.0
 40
0
 41
0
  0
VERTEX
  8
0
 10
4.21962
 20
0.877496
 30
0.0
 40
0
 41
0
  0
VERTEX
  8
0
 10
4.39589
 20
0.704644
 30
0.0
 40
0
 41
0
  0
VERTEX
  8
0
 10
4.403
 20
0.711914
 30
0.0
 40
0
 41
0
  0
VERTEX
  8
0
 10
4.4216
 20
0.711914
 30
0.0
 40
0
 41
0
  0
VERTEX
  8
0
 10
4.4216
 20
0.721789
 30
0.0
 40
0
 41
0
  0
VERTEX
  8
0
 10
4.23188
 20
0.907824
 30
0.0
 40
0
 41
0
  0
VERTEX
  8
0
 10
3.86035
 20
0.906087
 30
0.0
 40
0
 41
0
  0
SEQEND
 8
0
  0
POLYLINE
  8
0
 62
     3
 66
     1
 10
0
 20
0
 30
0.0
 70
     1
 40
0
 41
0
  0
VERTEX
  8
0
 10
4.43343
 20
0.686253
 30
0.0
 40
0
 41
0
  0
VERTEX
  8
0
 10
4.3795
 20
0.686253
 30
0.0
 40
0
 41
0
  0
VERTEX
  8
0
 10
4.3795
 20
0.740235
 30
0.0
 40
0
 41
0
  0
VERTEX
  8
0
 10
4.43343
 20
0.740235
 30
0.0
 40
0
 41
0
  0
VERTEX
  8
0
 10
4.43343
 20
0.686253
 30
0.0
 40
0
 41
0
  0
SEQEND
 8
0
  0
POLYLINE
  8
0
 62
     3
 66
     1
 10
0
 20
0
 30
0.0
 70
     1
 40
0
 41
0
  0
VERTEX
  8
0
 10
4.3049
 20
0.0855578
 30
0.0
 40
0
 41
0
  0
VERTEX
  8
0
 10
4.35883
 20
0.0855578
 30
0.0
 40
0
 41
0
  0
VERTEX
  8
0
 10
4.35883
 20
0.139486
 30
0.0
 40
0
 41
0
  0
VERTEX
  8
0
 10
4.3049
 20
0.139486
 30
0.0
 40
0
 41
0
  0
VERTEX
  8
0
 10
4.3049
 20
0.0855578
 30
0.0
 40
0
 41
0
  0
SEQEND
 8
0
  0
POLYLINE
  8
0
 62
     3
 66
     1
 10
0
 20
0
 30
0.0
 70
     1
 40
0
 41
0
  0
VERTEX
  8
0
 10
4.39133
 20
0.622667
 30
0.0
 40
0
 41
0
  0
VERTEX
  8
0
 10
4.39133
 20
0.0390625
 30
0.0
 40
0
 41
0
  0
VERTEX
  8
0
 10
4.27544
 20
0.0390625
 30
0.0
 40
0
 41
0
  0
VERTEX
  8
0
 10
4.27544
 20
0.307021
 30
0.0
 40
0
 41
0
  0
VERTEX
  8
0
 10
4.05919
 20
0.307021
 30
0.0
 40
0
 41
0
  0
VERTEX
  8
0
 10
4.05919
 20
0.276801
 30
0.0
 40
0
 41
0
  0
VERTEX
  8
0
 10
4.24517
 20
0.276801
 30
0.0
 40
0
 41
0
  0
VERTEX
  8
0
 10
4.24517
 20
0.00884332
 30
0.0
 40
0
 41
0
  0
VERTEX
  8
0
 10
4.42156
 20
0.00884332
 30
0.0
 40
0
 41
0
  0
VERTEX
  8
0
 10
4.42156
 20
0.622667
 30
0.0
 40
0
 41
0
  0
VERTEX
  8
0
 10
4.39133
 20
0.622667
 30
0.0
 40
0
 41
0
  0
SEQEND
 8
0
  0
POLYLINE
  8
0
 62
     3
 66
     1
 10
0
 20
0
 30
0.0
 70
     1
 40
0
 41
0
  0
VERTEX
  8
0
 10
4.03353
 20
0.318847
 30
0.0
 40
0
 41
0
  0
VERTEX
  8
0
 10
4.08746
 20
0.318847
 30
0.0
 40
0
 41
0
  0
VERTEX
  8
0
 10
4.08746
 20
0.264919
 30
0.0
 40
0
 41
0
  0
VERTEX
  8
0
 10
4.03353
 20
0.264919
 30
0.0
 40
0
 41
0
  0
VERTEX
  8
0
 10
4.03353
 20
0.318847
 30
0.0
 40
0
 41
0
  0
SEQEND
 8
0
  0
POLYLINE
  8
0
 62
     3
 66
     1
 10
0
 20
0
 30
0.0
 70
     1
 40
0
 41
0
  0
VERTEX
  8
0
 10
4.43343
 20
0.648221
 30
0.0
 40
0
 41
0
  0
VERTEX
  8
0
 10
4.3795
 20
0.648221
 30
0.0
 40
0
 41
0
  0
VERTEX
  8
0
 10
4.3795
 20
0.594293
 30
0.0
 40
0
 41
0
  0
VERTEX
  8
0
 10
4.43343
 20
0.594293
 30
0.0
 40
0
 41
0
  0
VERTEX
  8
0
 10
4.43343
 20
0.648221
 30
0.0
 40
0
 41
0
  0
SEQEND
 8
0
  0
POLYLINE
  8
0
 62
     3
 66
     1
 10
0
 20
0
 30
0.0
 70
     1
 40
0
 41
0
  0
VERTEX
  8
0
 10
4.347
 20
0.453125
 30
0.0
 40
0
 41
0
  0
VERTEX
  8
0
 10
4.31679
 20
0.453125
 30
0.0
 40
0
 41
0
  0
VERTEX
  8
0
 10
4.31679
 20
0.683757
 30
0.0
 40
0
 41
0
  0
VERTEX
  8
0
 10
4.19586
 20
0.804579
 30
0.0
 40
0
 41
0
  0
VERTEX
  8
0
 10
4.134
 20
0.804579
 30
0.0
 40
0
 41
0
  0
VERTEX
  8
0
 10
4.134
 20
0.834853
 30
0.0
 40
0
 41
0
  0
VERTEX
  8
0
 10
4.20844
 20
0.834853
 30
0.0
 40
0
 41
0
  0
VERTEX
  8
0
 10
4.347
 20
0.696235
 30
0.0
 40
0
 41
0
  0
VERTEX
  8
0
 10
4.347
 20
0.453125
 30
0.0
 40
0
 41
0
  0
SEQEND
 8
0
  0
POLYLINE
  8
0
 62
     3
 66
     1
 10
0
 20
0
 30
0.0
 70
     1
 40
0
 41
0
  0
VERTEX
  8
0
 10
4.35883
 20
0.427518
 30
0.0
 40
0
 41
0
  0
VERTEX
  8
0
 10
4.3049
 20
0.427518
 30
0.0
 40
0
 41
0
  0
VERTEX
  8
0
 10
4.3049
 20
0.481446
 30
0.0
 40
0
 41
0
  0
VERTEX
  8
0
 10
4.35883
 20
0.481446
 30
0.0
 40
0
 41
0
  0
VERTEX
  8
0
 10
4.35883
 20
0.427518
 30
0.0
 40
0
 41
0
  0
SEQEND
 8
0
  0
POLYLINE
  8
0
 62
     3
 66
     1
 10
0
 20
0
 30
0.0
 70
     1
 40
0
 41
0
  0
VERTEX
  8
0
 10
4.1084
 20
0.792751
 30
0.0
 40
0
 41
0
  0
VERTEX
  8
0
 10
4.16233
 20
0.792751
 30
0.0
 40
0
 41
0
  0
VERTEX
  8
0
 10
4.16233
 20
0.846679
 30
0.0
 40
0
 41
0
  0
VERTEX
  8
0
 10
4.1084
 20
0.846679
 30
0.0
 40
0
 41
0
  0
VERTEX
  8
0
 10
4.1084
 20
0.792751
 30
0.0
 40
0
 41
0
  0
SEQEND
 8
0
  0
POLYLINE
  8
0
 62
     3
 66
     1
 10
0
 20
0
 30
0.0
 70
     1
 40
0
 41
0
  0
VERTEX
  8
0
 10
3.91862
 20
0.352376
 30
0.0
 40
0
 41
0
  0
VERTEX
  8
0
 10
3.74447
 20
0.352376
 30
0.0
 40
0
 41
0
  0
VERTEX
  8
0
 10
3.74447
 20
0.689888
 30
0.0
 40
0
 41
0
  0
VERTEX
  8
0
 10
3.88943
 20
0.834853
 30
0.0
 40
0
 41
0
  0
VERTEX
  8
0
 10
4.03586
 20
0.834853
 30
0.0
 40
0
 41
0
  0
VERTEX
  8
0
 10
4.11372
 20
0.758247
 30
0.0
 40
0
 41
0
  0
VERTEX
  8
0
 10
4.17156
 20
0.758247
 30
0.0
 40
0
 41
0
  0
VERTEX
  8
0
 10
4.27393
 20
0.655871
 30
0.0
 40
0
 41
0
  0
VERTEX
  8
0
 10
4.27393
 20
0.424696
 30
0.0
 40
0
 41
0
  0
VERTEX
  8
0
 10
3.81928
 20
0.424696
 30
0.0
 40
0
 41
0
  0
VERTEX
  8
0
 10
3.81928
 20
0.655871
 30
0.0
 40
0
 41
0
  0
VERTEX
  8
0
 10
3.92171
 20
0.758247
 30
0.0
 40
0
 41
0
  0
VERTEX
  8
0
 10
4.01004
 20
0.758247
 30
0.0
 40
0
 41
0
  0
VERTEX
  8
0
 10
4.01004
 20
0.727974
 30
0.0
 40
0
 41
0
  0
VERTEX
  8
0
 10
3.93419
 20
0.727974
 30
0.0
 40
0
 41
0
  0
VERTEX
  8
0
 10
3.84956
 20
0.643283
 30
0.0
 40
0
 41
0
  0
VERTEX
  8
0
 10
3.84956
 20
0.454915
 30
0.0
 40
0
 41
0
  0
VERTEX
  8
0
 10
4.24365
 20
0.454915
 30
0.0
 40
0
 41
0
  0
VERTEX
  8
0
 10
4.24365
 20
0.643283
 30
0.0
 40
0
 41
0
  0
VERTEX
  8
0
 10
4.15901
 20
0.727974
 30
0.0
 40
0
 41
0
  0
VERTEX
  8
0
 10
4.10135
 20
0.727974
 30
0.0
 40
0
 41
0
  0
VERTEX
  8
0
 10
4.02349
 20
0.804579
 30
0.0
 40
0
 41
0
  0
VERTEX
  8
0
 10
3.90196
 20
0.804579
 30
0.0
 40
0
 41
0
  0
VERTEX
  8
0
 10
3.77474
 20
0.677354
 30
0.0
 40
0
 41
0
  0
VERTEX
  8
0
 10
3.77474
 20
0.38265
 30
0.0
 40
0
 41
0
  0
VERTEX
  8
0
 10
3.91862
 20
0.38265
 30
0.0
 40
0
 41
0
  0
VERTEX
  8
0
 10
3.91862
 20
0.352376
 30
0.0
 40
0
 41
0
  0
SEQEND
 8
0
  0
POLYLINE
  8
0
 62
     3
 66
     1
 10
0
 20
0
 30
0.0
 70
     1
 40
0
 41
0
  0
VERTEX
  8
0
 10
3.94417
 20
0.340603
 30
0.0
 40
0
 41
0
  0
VERTEX
  8
0
 10
3.89031
 20
0.340603
 30
0.0
 40
0
 41
0
  0
VERTEX
  8
0
 10
3.89031
 20
0.394532
 30
0.0
 40
0
 41
0
  0
VERTEX
  8
0
 10
3.94417
 20
0.394532
 30
0.0
 40
0
 41
0
  0
VERTEX
  8
0
 10
3.94417
 20
0.340603
 30
0.0
 40
0
 41
0
  0
SEQEND
 8
0
  0
POLYLINE
  8
0
 62
     3
 66
     1
 10
0
 20
0
 30
0.0
 70
     1
 40
0
 41
0
  0
VERTEX
  8
0
 10
4.03564
 20
0.770074
 30
0.0
 40
0
 41
0
  0
VERTEX
  8
0
 10
3.98172
 20
0.770074
 30
0.0
 40
0
 41
0
  0
VERTEX
  8
0
 10
3.98172
 20
0.716146
 30
0.0
 40
0
 41
0
  0
VERTEX
  8
0
 10
4.03564
 20
0.716146
 30
0.0
 40
0
 41
0
  0
VERTEX
  8
0
 10
4.03564
 20
0.770074
 30
0.0
 40
0
 41
0
  0
SEQEND
 8
0
  0
POLYLINE
  8
0
 62
     3
 66
     1
 10
0
 20
0
 30
0.0
 70
     1
 40
0
 41
0
  0
VERTEX
  8
0
 10
3.77474
 20
0.111165
 30
0.0
 40
0
 41
0
  0
VERTEX
  8
0
 10
3.74447
 20
0.111165
 30
0.0
 40
0
 41
0
  0
VERTEX
  8
0
 10
3.74447
 20
0.279785
 30
0.0
 40
0
 41
0
  0
VERTEX
  8
0
 10
3.77474
 20
0.279785
 30
0.0
 40
0
 41
0
  0
VERTEX
  8
0
 10
3.77474
 20
0.111165
 30
0.0
 40
0
 41
0
  0
SEQEND
 8
0
  0
POLYLINE
  8
0
 62
     3
 66
     1
 10
0
 20
0
 30
0.0
 70
     1
 40
0
 41
0
  0
VERTEX
  8
0
 10
3.73269
 20
0.305393
 30
0.0
 40
0
 41
0
  0
VERTEX
  8
0
 10
3.78657
 20
0.305393
 30
0.0
 40
0
 41
0
  0
VERTEX
  8
0
 10
3.78657
 20
0.251465
 30
0.0
 40
0
 41
0
  0
VERTEX
  8
0
 10
3.73269
 20
0.251465
 30
0.0
 40
0
 41
0
  0
VERTEX
  8
0
 10
3.73269
 20
0.305393
 30
0.0
 40
0
 41
0
  0
SEQEND
 8
0
  0
POLYLINE
  8
0
 62
     3
 66
     1
 10
0
 20
0
 30
0.0
 70
     1
 40
0
 41
0
  0
VERTEX
  8
0
 10
3.73269
 20
0.0855578
 30
0.0
 40
0
 41
0
  0
VERTEX
  8
0
 10
3.78657
 20
0.0855578
 30
0.0
 40
0
 41
0
  0
VERTEX
  8
0
 10
3.78657
 20
0.139486
 30
0.0
 40
0
 41
0
  0
VERTEX
  8
0
 10
3.73269
 20
0.139486
 30
0.0
 40
0
 41
0
  0
VERTEX
  8
0
 10
3.73269
 20
0.0855578
 30
0.0
 40
0
 41
0
  0
SEQEND
 8
0
  0
POLYLINE
  8
0
 62
     3
 66
     1
 10
0
 20
0
 30
0.0
 70
     1
 40
0
 41
0
  0
VERTEX
  8
0
 10
4.59554
 20
0.90956
 30
0.0
 40
0
 41
0
  0
VERTEX
  8
0
 10
4.59554
 20
0.204969
 30
0.0
 40
0
 41
0
  0
VERTEX
  8
0
 10
4.66732
 20
0.143067
 30
0.0
 40
0
 41
0
  0
VERTEX
  8
0
 10
4.66732
 20
0.0786675
 30
0.0
 40
0
 41
0
  0
VERTEX
  8
0
 10
5.01465
 20
0.0786675
 30
0.0
 40
0
 41
0
  0
VERTEX
  8
0
 10
5.08089
 20
0.0124783
 30
0.0
 40
0
 41
0
  0
VERTEX
  8
0
 10
5.17714
 20
0.0124783
 30
0.0
 40
0
 41
0
  0
VERTEX
  8
0
 10
5.32036
 20
0.155003
 30
0.0
 40
0
 41
0
  0
VERTEX
  8
0
 10
5.32036
 20
0.406467
 30
0.0
 40
0
 41
0
  0
VERTEX
  8
0
 10
5.26617
 20
0.460667
 30
0.0
 40
0
 41
0
  0
VERTEX
  8
0
 10
5.32036
 20
0.514919
 30
0.0
 40
0
 41
0
  0
VERTEX
  8
0
 10
5.32036
 20
0.604818
 30
0.0
 40
0
 41
0
  0
VERTEX
  8
0
 10
5.2901
 20
0.604818
 30
0.0
 40
0
 41
0
  0
VERTEX
  8
0
 10
5.2901
 20
0.527453
 30
0.0
 40
0
 41
0
  0
VERTEX
  8
0
 10
5.22336
 20
0.460667
 30
0.0
 40
0
 41
0
  0
VERTEX
  8
0
 10
5.2901
 20
0.393935
 30
0.0
 40
0
 41
0
  0
VERTEX
  8
0
 10
5.2901
 20
0.167643
 30
0.0
 40
0
 41
0
  0
VERTEX
  8
0
 10
5.16465
 20
0.0426975
 30
0.0
 40
0
 41
0
  0
VERTEX
  8
0
 10
5.09343
 20
0.0426975
 30
0.0
 40
0
 41
0
  0
VERTEX
  8
0
 10
5.02718
 20
0.108887
 30
0.0
 40
0
 41
0
  0
VERTEX
  8
0
 10
4.69754
 20
0.108887
 30
0.0
 40
0
 41
0
  0
VERTEX
  8
0
 10
4.69754
 20
0.156847
 30
0.0
 40
0
 41
0
  0
VERTEX
  8
0
 10
4.62582
 20
0.218858
 30
0.0
 40
0
 41
0
  0
VERTEX
  8
0
 10
4.62582
 20
0.879286
 30
0.0
 40
0
 41
0
  0
VERTEX
  8
0
 10
4.73167
 20
0.879286
 30
0.0
 40
0
 41
0
  0
VERTEX
  8
0
 10
4.73167
 20
0.90956
 30
0.0
 40
0
 41
0
  0
VERTEX
  8
0
 10
4.59554
 20
0.90956
 30
0.0
 40
0
 41
0
  0
SEQEND
 8
0
  0
POLYLINE
  8
0
 62
     3
 66
     1
 10
0
 20
0
 30
0.0
 70
     1
 40
0
 41
0
  0
VERTEX
  8
0
 10
4.70335
 20
0.867458
 30
0.0
 40
0
 41
0
  0
VERTEX
  8
0
 10
4.75726
 20
0.867458
 30
0.0
 40
0
 41
0
  0
VERTEX
  8
0
 10
4.75726
 20
0.921386
 30
0.0
 40
0
 41
0
  0
VERTEX
  8
0
 10
4.70335
 20
0.921386
 30
0.0
 40
0
 41
0
  0
VERTEX
  8
0
 10
4.70335
 20
0.867458
 30
0.0
 40
0
 41
0
  0
SEQEND
 8
0
  0
POLYLINE
  8
0
 62
     3
 66
     1
 10
0
 20
0
 30
0.0
 70
     1
 40
0
 41
0
  0
VERTEX
  8
0
 10
5.27826
 20
0.576497
 30
0.0
 40
0
 41
0
  0
VERTEX
  8
0
 10
5.33219
 20
0.576497
 30
0.0
 40
0
 41
0
  0
VERTEX
  8
0
 10
5.33219
 20
0.630425
 30
0.0
 40
0
 41
0
  0
VERTEX
  8
0
 10
5.27826
 20
0.630425
 30
0.0
 40
0
 41
0
  0
VERTEX
  8
0
 10
5.27826
 20
0.576497
 30
0.0
 40
0
 41
0
  0
SEQEND
 8
0
  0
POLYLINE
  8
0
 62
     3
 66
     1
 10
0
 20
0
 30
0.0
 70
     1
 40
0
 41
0
  0
VERTEX
  8
0
 10
4.59554
 20
0.115668
 30
0.0
 40
0
 41
0
  0
VERTEX
  8
0
 10
4.59554
 20
0.0118273
 30
0.0
 40
0
 41
0
  0
VERTEX
  8
0
 10
4.97407
 20
0.0118273
 30
0.0
 40
0
 41
0
  0
VERTEX
  8
0
 10
4.97407
 20
0.0421007
 30
0.0
 40
0
 41
0
  0
VERTEX
  8
0
 10
4.62582
 20
0.0421007
 30
0.0
 40
0
 41
0
  0
VERTEX
  8
0
 10
4.62582
 20
0.115668
 30
0.0
 40
0
 41
0
  0
VERTEX
  8
0
 10
4.59554
 20
0.115668
 30
0.0
 40
0
 41
0
  0
SEQEND
 8
0
  0
POLYLINE
  8
0
 62
     3
 66
     1
 10
0
 20
0
 30
0.0
 70
     1
 40
0
 41
0
  0
VERTEX
  8
0
 10
4.58376
 20
0.141331
 30
0.0
 40
0
 41
0
  0
VERTEX
  8
0
 10
4.63769
 20
0.141331
 30
0.0
 40
0
 41
0
  0
VERTEX
  8
0
 10
4.63769
 20
0.0874024
 30
0.0
 40
0
 41
0
  0
VERTEX
  8
0
 10
4.58376
 20
0.0874024
 30
0.0
 40
0
 41
0
  0
VERTEX
  8
0
 10
4.58376
 20
0.141331
 30
0.0
 40
0
 41
0
  0
SEQEND
 8
0
  0
POLYLINE
  8
0
 62
     3
 66
     1
 10
0
 20
0
 30
0.0
 70
     1
 40
0
 41
0
  0
VERTEX
  8
0
 10
4.94575
 20
0
 30
0.0
 40
0
 41
0
  0
VERTEX
  8
0
 10
4.99968
 20
0
 30
0.0
 40
0
 41
0
  0
VERTEX
  8
0
 10
4.99968
 20
0.0539279
 30
0.0
 40
0
 41
0
  0
VERTEX
  8
0
 10
4.94575
 20
0.0539279
 30
0.0
 40
0
 41
0
  0
VERTEX
  8
0
 10
4.94575
 20
0
 30
0.0
 40
0
 41
0
  0
SEQEND
 8
0
  0
POLYLINE
  8
0
 62
     3
 66
     1
 10
0
 20
0
 30
0.0
 70
     1
 40
0
 41
0
  0
VERTEX
  8
0
 10
4.69743
 20
0.243599
 30
0.0
 40
0
 41
0
  0
VERTEX
  8
0
 10
4.66715
 20
0.243599
 30
0.0
 40
0
 41
0
  0
VERTEX
  8
0
 10
4.66715
 20
0.475315
 30
0.0
 40
0
 41
0
  0
VERTEX
  8
0
 10
4.8699
 20
0.475315
 30
0.0
 40
0
 41
0
  0
VERTEX
  8
0
 10
4.9509
 20
0.549642
 30
0.0
 40
0
 41
0
  0
VERTEX
  8
0
 10
5.10357
 20
0.549642
 30
0.0
 40
0
 41
0
  0
VERTEX
  8
0
 10
5.15033
 20
0.593967
 30
0.0
 40
0
 41
0
  0
VERTEX
  8
0
 10
5.15033
 20
0.684571
 30
0.0
 40
0
 41
0
  0
VERTEX
  8
0
 10
5.10335
 20
0.731554
 30
0.0
 40
0
 41
0
  0
VERTEX
  8
0
 10
4.77354
 20
0.731554
 30
0.0
 40
0
 41
0
  0
VERTEX
  8
0
 10
4.77354
 20
0.606554
 30
0.0
 40
0
 41
0
  0
VERTEX
  8
0
 10
4.74328
 20
0.606554
 30
0.0
 40
0
 41
0
  0
VERTEX
  8
0
 10
4.74328
 20
0.761828
 30
0.0
 40
0
 41
0
  0
VERTEX
  8
0
 10
5.11583
 20
0.761828
 30
0.0
 40
0
 41
0
  0
VERTEX
  8
0
 10
5.18061
 20
0.697103
 30
0.0
 40
0
 41
0
  0
VERTEX
  8
0
 10
5.18061
 20
0.580892
 30
0.0
 40
0
 41
0
  0
VERTEX
  8
0
 10
5.11561
 20
0.519422
 30
0.0
 40
0
 41
0
  0
VERTEX
  8
0
 10
4.96268
 20
0.519422
 30
0.0
 40
0
 41
0
  0
VERTEX
  8
0
 10
4.88167
 20
0.445096
 30
0.0
 40
0
 41
0
  0
VERTEX
  8
0
 10
4.69743
 20
0.445096
 30
0.0
 40
0
 41
0
  0
VERTEX
  8
0
 10
4.69743
 20
0.243599
 30
0.0
 40
0
 41
0
  0
SEQEND
 8
0
  0
POLYLINE
  8
0
 62
     3
 66
     1
 10
0
 20
0
 30
0.0
 70
     1
 40
0
 41
0
  0
VERTEX
  8
0
 10
4.78537
 20
0.580892
 30
0.0
 40
0
 41
0
  0
VERTEX
  8
0
 10
4.73144
 20
0.580892
 30
0.0
 40
0
 41
0
  0
VERTEX
  8
0
 10
4.73144
 20
0.634874
 30
0.0
 40
0
 41
0
  0
VERTEX
  8
0
 10
4.78537
 20
0.634874
 30
0.0
 40
0
 41
0
  0
VERTEX
  8
0
 10
4.78537
 20
0.580892
 30
0.0
 40
0
 41
0
  0
SEQEND
 8
0
  0
POLYLINE
  8
0
 62
     3
 66
     1
 10
0
 20
0
 30
0.0
 70
     1
 40
0
 41
0
  0
VERTEX
  8
0
 10
4.65533
 20
0.21799
 30
0.0
 40
0
 41
0
  0
VERTEX
  8
0
 10
4.70925
 20
0.21799
 30
0.0
 40
0
 41
0
  0
VERTEX
  8
0
 10
4.70925
 20
0.271918
 30
0.0
 40
0
 41
0
  0
VERTEX
  8
0
 10
4.65533
 20
0.271918
 30
0.0
 40
0
 41
0
  0
VERTEX
  8
0
 10
4.65533
 20
0.21799
 30
0.0
 40
0
 41
0
  0
SEQEND
 8
0
  0
POLYLINE
  8
0
 62
     3
 66
     1
 10
0
 20
0
 30
0.0
 70
     1
 40
0
 41
0
  0
VERTEX
  8
0
 10
4.74328
 20
0.153754
 30
0.0
 40
0
 41
0
  0
VERTEX
  8
0
 10
4.74328
 20
0.401964
 30
0.0
 40
0
 41
0
  0
VERTEX
  8
0
 10
4.88878
 20
0.401964
 30
0.0
 40
0
 41
0
  0
VERTEX
  8
0
 10
4.97228
 20
0.475803
 30
0.0
 40
0
 41
0
  0
VERTEX
  8
0
 10
5.13053
 20
0.476074
 30
0.0
 40
0
 41
0
  0
VERTEX
  8
0
 10
5.21619
 20
0.556369
 30
0.0
 40
0
 41
0
  0
VERTEX
  8
0
 10
5.21619
 20
0.724826
 30
0.0
 40
0
 41
0
  0
VERTEX
  8
0
 10
5.13282
 20
0.80816
 30
0.0
 40
0
 41
0
  0
VERTEX
  8
0
 10
4.69743
 20
0.80816
 30
0.0
 40
0
 41
0
  0
VERTEX
  8
0
 10
4.69743
 20
0.549642
 30
0.0
 40
0
 41
0
  0
VERTEX
  8
0
 10
4.85878
 20
0.549642
 30
0.0
 40
0
 41
0
  0
VERTEX
  8
0
 10
4.85878
 20
0.519422
 30
0.0
 40
0
 41
0
  0
VERTEX
  8
0
 10
4.66715
 20
0.519422
 30
0.0
 40
0
 41
0
  0
VERTEX
  8
0
 10
4.66715
 20
0.838433
 30
0.0
 40
0
 41
0
  0
VERTEX
  8
0
 10
5.1454
 20
0.838433
 30
0.0
 40
0
 41
0
  0
VERTEX
  8
0
 10
5.24647
 20
0.737358
 30
0.0
 40
0
 41
0
  0
VERTEX
  8
0
 10
5.24647
 20
0.54324
 30
0.0
 40
0
 41
0
  0
VERTEX
  8
0
 10
5.14253
 20
0.445856
 30
0.0
 40
0
 41
0
  0
VERTEX
  8
0
 10
4.98378
 20
0.445583
 30
0.0
 40
0
 41
0
  0
VERTEX
  8
0
 10
4.90018
 20
0.371744
 30
0.0
 40
0
 41
0
  0
VERTEX
  8
0
 10
4.77354
 20
0.371744
 30
0.0
 40
0
 41
0
  0
VERTEX
  8
0
 10
4.77354
 20
0.184462
 30
0.0
 40
0
 41
0
  0
VERTEX
  8
0
 10
5.10325
 20
0.189671
 30
0.0
 40
0
 41
0
  0
VERTEX
  8
0
 10
5.14876
 20
0.235243
 30
0.0
 40
0
 41
0
  0
VERTEX
  8
0
 10
5.15018
 20
0.324815
 30
0.0
 40
0
 41
0
  0
VERTEX
  8
0
 10
5.10335
 20
0.371744
 30
0.0
 40
0
 41
0
  0
VERTEX
  8
0
 10
4.99631
 20
0.371744
 30
0.0
 40
0
 41
0
  0
VERTEX
  8
0
 10
4.99631
 20
0.401964
 30
0.0
 40
0
 41
0
  0
VERTEX
  8
0
 10
5.11589
 20
0.401964
 30
0.0
 40
0
 41
0
  0
VERTEX
  8
0
 10
5.18061
 20
0.33724
 30
0.0
 40
0
 41
0
  0
VERTEX
  8
0
 10
5.17876
 20
0.222439
 30
0.0
 40
0
 41
0
  0
VERTEX
  8
0
 10
5.11594
 20
0.159614
 30
0.0
 40
0
 41
0
  0
VERTEX
  8
0
 10
4.74328
 20
0.153754
 30
0.0
 40
0
 41
0
  0
SEQEND
 8
0
  0
POLYLINE
  8
0
 62
     3
 66
     1
 10
0
 20
0
 30
0.0
 70
     1
 40
0
 41
0
  0
VERTEX
  8
0
 10
4.97071
 20
0.413792
 30
0.0
 40
0
 41
0
  0
VERTEX
  8
0
 10
5.02458
 20
0.413792
 30
0.0
 40
0
 41
0
  0
VERTEX
  8
0
 10
5.02458
 20
0.359864
 30
0.0
 40
0
 41
0
  0
VERTEX
  8
0
 10
4.97071
 20
0.359864
 30
0.0
 40
0
 41
0
  0
VERTEX
  8
0
 10
4.97071
 20
0.413792
 30
0.0
 40
0
 41
0
  0
SEQEND
 8
0
  0
POLYLINE
  8
0
 62
     3
 66
     1
 10
0
 20
0
 30
0.0
 70
     1
 40
0
 41
0
  0
VERTEX
  8
0
 10
4.88439
 20
0.561524
 30
0.0
 40
0
 41
0
  0
VERTEX
  8
0
 10
4.83046
 20
0.561524
 30
0.0
 40
0
 41
0
  0
VERTEX
  8
0
 10
4.83046
 20
0.507596
 30
0.0
 40
0
 41
0
  0
VERTEX
  8
0
 10
4.88439
 20
0.507596
 30
0.0
 40
0
 41
0
  0
VERTEX
  8
0
 10
4.88439
 20
0.561524
 30
0.0
 40
0
 41
0
  0
SEQEND
 8
0
  0
POLYLINE
  8
0
 62
     3
 66
     1
 10
0
 20
0
 30
0.0
 70
     1
 40
0
 41
0
  0
VERTEX
  8
0
 10
5.14133
 20
0.0786675
 30
0.0
 40
0
 41
0
  0
VERTEX
  8
0
 10
5.10992
 20
0.0786675
 30
0.0
 40
0
 41
0
  0
VERTEX
  8
0
 10
5.10992
 20
0.108887
 30
0.0
 40
0
 41
0
  0
VERTEX
  8
0
 10
5.12869
 20
0.108887
 30
0.0
 40
0
 41
0
  0
VERTEX
  8
0
 10
5.21619
 20
0.197265
 30
0.0
 40
0
 41
0
  0
VERTEX
  8
0
 10
5.21619
 20
0.365018
 30
0.0
 40
0
 41
0
  0
VERTEX
  8
0
 10
5.185
 20
0.397569
 30
0.0
 40
0
 41
0
  0
VERTEX
  8
0
 10
5.20682
 20
0.418511
 30
0.0
 40
0
 41
0
  0
VERTEX
  8
0
 10
5.24642
 20
0.377225
 30
0.0
 40
0
 41
0
  0
VERTEX
  8
0
 10
5.24642
 20
0.184842
 30
0.0
 40
0
 41
0
  0
VERTEX
  8
0
 10
5.14133
 20
0.0786675
 30
0.0
 40
0
 41
0
  0
SEQEND
 8
0
  0
POLYLINE
  8
0
 62
     3
 66
     1
 10
0
 20
0
 30
0.0
 70
     1
 40
0
 41
0
  0
VERTEX
  8
0
 10
5.08431
 20
0.120768
 30
0.0
 40
0
 41
0
  0
VERTEX
  8
0
 10
5.13824
 20
0.120768
 30
0.0
 40
0
 41
0
  0
VERTEX
  8
0
 10
5.13824
 20
0.0668403
 30
0.0
 40
0
 41
0
  0
VERTEX
  8
0
 10
5.08431
 20
0.0668403
 30
0.0
 40
0
 41
0
  0
VERTEX
  8
0
 10
5.08431
 20
0.120768
 30
0.0
 40
0
 41
0
  0
SEQEND
 8
0
  0
POLYLINE
  8
0
 62
     3
 66
     1
 10
0
 20
0
 30
0.0
 70
     1
 40
0
 41
0
  0
VERTEX
  8
0
 10
5.19764
 20
0.445204
 30
0.0
 40
0
 41
0
  0
VERTEX
  8
0
 10
5.15869
 20
0.407878
 30
0.0
 40
0
 41
0
  0
VERTEX
  8
0
 10
5.19601
 20
0.368978
 30
0.0
 40
0
 41
0
  0
VERTEX
  8
0
 10
5.23492
 20
0.406304
 30
0.0
 40
0
 41
0
  0
VERTEX
  8
0
 10
5.19764
 20
0.445204
 30
0.0
 40
0
 41
0
  0
SEQEND
 8
0
  0
POLYLINE
  8
0
 62
     3
 66
     1
 10
0
 20
0
 30
0.0
 70
     1
 40
0
 41
0
  0
VERTEX
  8
0
 10
5.32036
 20
0.691624
 30
0.0
 40
0
 41
0
  0
VERTEX
  8
0
 10
5.2901
 20
0.691624
 30
0.0
 40
0
 41
0
  0
VERTEX
  8
0
 10
5.2901
 20
0.753797
 30
0.0
 40
0
 41
0
  0
VERTEX
  8
0
 10
5.16465
 20
0.879286
 30
0.0
 40
0
 41
0
  0
VERTEX
  8
0
 10
4.81619
 20
0.879286
 30
0.0
 40
0
 41
0
  0
VERTEX
  8
0
 10
4.81619
 20
0.90956
 30
0.0
 40
0
 41
0
  0
VERTEX
  8
0
 10
5.17719
 20
0.90956
 30
0.0
 40
0
 41
0
  0
VERTEX
  8
0
 10
5.32036
 20
0.766385
 30
0.0
 40
0
 41
0
  0
VERTEX
  8
0
 10
5.32036
 20
0.691624
 30
0.0
 40
0
 41
0
  0
SEQEND
 8
0
  0
POLYLINE
  8
0
 62
     3
 66
     1
 10
0
 20
0
 30
0.0
 70
     1
 40
0
 41
0
  0
VERTEX
  8
0
 10
4.79058
 20
0.867458
 30
0.0
 40
0
 41
0
  0
VERTEX
  8
0
 10
4.84451
 20
0.867458
 30
0.0
 40
0
 41
0
  0
VERTEX
  8
0
 10
4.84451
 20
0.921386
 30
0.0
 40
0
 41
0
  0
VERTEX
  8
0
 10
4.79058
 20
0.921386
 30
0.0
 40
0
 41
0
  0
VERTEX
  8
0
 10
4.79058
 20
0.867458
 30
0.0
 40
0
 41
0
  0
SEQEND
 8
0
  0
POLYLINE
  8
0
 62
     3
 66
     1
 10
0
 20
0
 30
0.0
 70
     1
 40
0
 41
0
  0
VERTEX
  8
0
 10
5.27826
 20
0.665961
 30
0.0
 40
0
 41
0
  0
VERTEX
  8
0
 10
5.33219
 20
0.665961
 30
0.0
 40
0
 41
0
  0
VERTEX
  8
0
 10
5.33219
 20
0.719889
 30
0.0
 40
0
 41
0
  0
VERTEX
  8
0
 10
5.27826
 20
0.719889
 30
0.0
 40
0
 41
0
  0
VERTEX
  8
0
 10
5.27826
 20
0.665961
 30
0.0
 40
0
 41
0
  0
SEQEND
 8
0
  0
POLYLINE
  8
0
 62
     3
 66
     1
 10
0
 20
0
 30
0.0
 70
     1
 40
0
 41
0
  0
VERTEX
  8
0
 10
0.844726
 20
0.907824
 30
0.0
 40
0
 41
0
  0
VERTEX
  8
0
 10
0.844726
 20
0.0100912
 30
0.0
 40
0
 41
0
  0
VERTEX
  8
0
 10
1.05149
 20
0.0100912
 30
0.0
 40
0
 41
0
  0
VERTEX
  8
0
 10
1.05149
 20
0.430012
 30
0.0
 40
0
 41
0
  0
VERTEX
  8
0
 10
0.97819
 20
0.503364
 30
0.0
 40
0
 41
0
  0
VERTEX
  8
0
 10
0.947917
 20
0.490831
 30
0.0
 40
0
 41
0
  0
VERTEX
  8
0
 10
1.02121
 20
0.417535
 30
0.0
 40
0
 41
0
  0
VERTEX
  8
0
 10
1.02121
 20
0.0403646
 30
0.0
 40
0
 41
0
  0
VERTEX
  8
0
 10
0.875
 20
0.0403646
 30
0.0
 40
0
 41
0
  0
VERTEX
  8
0
 10
0.875
 20
0.877604
 30
0.0
 40
0
 41
0
  0
VERTEX
  8
0
 10
1.02121
 20
0.877604
 30
0.0
 40
0
 41
0
  0
VERTEX
  8
0
 10
1.02121
 20
0.555176
 30
0.0
 40
0
 41
0
  0
VERTEX
  8
0
 10
1.05149
 20
0.555176
 30
0.0
 40
0
 41
0
  0
VERTEX
  8
0
 10
1.05149
 20
0.907824
 30
0.0
 40
0
 41
0
  0
VERTEX
  8
0
 10
0.844726
 20
0.907824
 30
0.0
 40
0
 41
0
  0
SEQEND
 8
0
  0
POLYLINE
  8
0
 62
     3
 66
     1
 10
0
 20
0
 30
0.0
 70
     1
 40
0
 41
0
  0
VERTEX
  8
0
 10
1.00939
 20
0.529514
 30
0.0
 40
0
 41
0
  0
VERTEX
  8
0
 10
1.06331
 20
0.529514
 30
0.0
 40
0
 41
0
  0
VERTEX
  8
0
 10
1.06331
 20
0.583442
 30
0.0
 40
0
 41
0
  0
VERTEX
  8
0
 10
1.00939
 20
0.583442
 30
0.0
 40
0
 41
0
  0
VERTEX
  8
0
 10
1.00939
 20
0.529514
 30
0.0
 40
0
 41
0
  0
SEQEND
 8
0
  0
POLYLINE
  8
0
 62
     3
 66
     1
 10
0
 20
0
 30
0.0
 70
     1
 40
0
 41
0
  0
VERTEX
  8
0
 10
0.919325
 20
0.8463
 30
0.0
 40
0
 41
0
  0
VERTEX
  8
0
 10
0.973253
 20
0.8463
 30
0.0
 40
0
 41
0
  0
VERTEX
  8
0
 10
0.973253
 20
0.792318
 30
0.0
 40
0
 41
0
  0
VERTEX
  8
0
 10
0.919325
 20
0.792318
 30
0.0
 40
0
 41
0
  0
VERTEX
  8
0
 10
0.919325
 20
0.8463
 30
0.0
 40
0
 41
0
  0
SEQEND
 8
0
  0
POLYLINE
  8
0
 62
     3
 66
     1
 10
0
 20
0
 30
0.0
 70
     1
 40
0
 41
0
  0
VERTEX
  8
0
 10
0.931207
 20
0.0974935
 30
0.0
 40
0
 41
0
  0
VERTEX
  8
0
 10
0.961481
 20
0.0974935
 30
0.0
 40
0
 41
0
  0
VERTEX
  8
0
 10
0.961481
 20
0.399197
 30
0.0
 40
0
 41
0
  0
VERTEX
  8
0
 10
0.931207
 20
0.399197
 30
0.0
 40
0
 41
0
  0
VERTEX
  8
0
 10
0.931207
 20
0.0974935
 30
0.0
 40
0
 41
0
  0
SEQEND
 8
0
  0
POLYLINE
  8
0
 62
     3
 66
     1
 10
0
 20
0
 30
0.0
 70
     1
 40
0
 41
0
  0
VERTEX
  8
0
 10
0.973253
 20
0.424804
 30
0.0
 40
0
 41
0
  0
VERTEX
  8
0
 10
0.919379
 20
0.424804
 30
0.0
 40
0
 41
0
  0
VERTEX
  8
0
 10
0.919379
 20
0.370876
 30
0.0
 40
0
 41
0
  0
VERTEX
  8
0
 10
0.973253
 20
0.370876
 30
0.0
 40
0
 41
0
  0
VERTEX
  8
0
 10
0.973253
 20
0.424804
 30
0.0
 40
0
 41
0
  0
SEQEND
 8
0
  0
POLYLINE
  8
0
 62
     3
 66
     1
 10
0
 20
0
 30
0.0
 70
     1
 40
0
 41
0
  0
VERTEX
  8
0
 10
0.973253
 20
0.0718858
 30
0.0
 40
0
 41
0
  0
VERTEX
  8
0
 10
0.919379
 20
0.0718858
 30
0.0
 40
0
 41
0
  0
VERTEX
  8
0
 10
0.919379
 20
0.125814
 30
0.0
 40
0
 41
0
  0
VERTEX
  8
0
 10
0.973253
 20
0.125814
 30
0.0
 40
0
 41
0
  0
VERTEX
  8
0
 10
0.973253
 20
0.0718858
 30
0.0
 40
0
 41
0
  0
SEQEND
 8
0
  0
POLYLINE
  8
0
 62
     3
 66
     1
 10
0
 20
0
 30
0.0
 70
     1
 40
0
 41
0
  0
VERTEX
  8
0
 10
0.961481
 20
0.819499
 30
0.0
 40
0
 41
0
  0
VERTEX
  8
0
 10
0.931207
 20
0.819499
 30
0.0
 40
0
 41
0
  0
VERTEX
  8
0
 10
0.931153
 20
0.507596
 30
0.0
 40
0
 41
0
  0
VERTEX
  8
0
 10
1.02121
 20
0.417535
 30
0.0
 40
0
 41
0
  0
VERTEX
  8
0
 10
1.05143
 20
0.430012
 30
0.0
 40
0
 41
0
  0
VERTEX
  8
0
 10
0.961372
 20
0.520182
 30
0.0
 40
0
 41
0
  0
VERTEX
  8
0
 10
0.961481
 20
0.819499
 30
0.0
 40
0
 41
0
  0
SEQEND
 8
0
  0
ENDSEC
  0
EOF
