<?xml version="1.0" encoding="UTF-8" standalone="no"?>
<!-- Created with Inkscape (http://www.inkscape.org/) -->

<svg
   version="1.1"
   id="svg2"
   width="334.82666"
   height="241.22667"
   viewBox="0 0 334.82666 241.22667"
   sodipodi:docname="CITYLAB_LOGO_ZWART_GROEN_INLINE_COMPACT_CMYK.eps"
   xmlns:inkscape="http://www.inkscape.org/namespaces/inkscape"
   xmlns:sodipodi="http://sodipodi.sourceforge.net/DTD/sodipodi-0.dtd"
   xmlns="http://www.w3.org/2000/svg"
   xmlns:svg="http://www.w3.org/2000/svg">
  <defs
     id="defs6" />
  <sodipodi:namedview
     id="namedview4"
     pagecolor="#ffffff"
     bordercolor="#000000"
     borderopacity="0.25"
     inkscape:showpageshadow="2"
     inkscape:pageopacity="0.0"
     inkscape:pagecheckerboard="0"
     inkscape:deskcolor="#d1d1d1" />
  <g
     id="g8"
     inkscape:groupmode="layer"
     inkscape:label="ink_ext_XXXXXX"
     transform="matrix(1.3333333,0,0,-1.3333333,0,241.22667)">
    <g
       id="g10"
       transform="scale(0.1)">
      <path
         d="M 468.711,1809.21 185.293,1808.58 0,1623.27 V 1139.09 L 185.922,953.168 h 279.926 l 188.785,185.692 v 182.98 H 427.48 v -88.5 l -52.949,-52.99 h -94.304 l -53.45,54.68 v 95.36 l 0.375,198.64 52.973,53 h 94.406 l 52.949,-53 v -86.61 h 227.153 v 180.85 z m 1816.419,-0.03 v -142.45 l -125.33,-124.85 -125.3,125.35 v 141.95 h -227.18 v -236.15 l 238.92,-238.94 V 953.191 h 227.1 l -2.16,380.919 239.97,239.98 v 235.09 z m -1211.26,0 v -227.1 h 213.75 V 953.191 h 227.1 v 628.889 h 213.75 v 227.1 z m -319.198,0 V 953.168 H 989.594 V 1809.18 Z M 1710.35,858.609 V 2.62109 l 378.48,0.34766 h 35.57 V 3 l 144.72,0.14844 146.14,145.52356 v 249.449 l -32.5,32.481 32.5,32.539 v 249.398 l -146.07,146.07 z M 1937.5,631.461 h 237.49 l 20.09,-20.09 v -48.902 l -19.31,-18.297 H 1937.5 Z m 0,-314.32 237.46,-0.102 19.71,-19.707 -0.75,-48.633 -19.28,-19.25 -237.14,-3.75 z M 1063.86,855.543 878.594,671.762 V 0 h 225.846 v 234.07 h 274.67 V 0 h 225.74 v 676.129 l -187.02,181.023 z m 41.21,-280.223 53.1,53.071 166.61,-0.102 53,-52.969 V 461.398 H 1105.07 Z M 82.7891,857.129 83.4688,1.10938 H 787.707 V 228.262 H 309.918 V 857.129 H 82.7891"
         style="fill:#231f20;fill-opacity:1;fill-rule:nonzero;stroke:none"
         id="path12" />
      <path
         d="m 2475.35,1588.94 v 184.42 h -154.39 v -121.04 l -23.01,-22.98 -7.31,7.32 -33.32,-33.31 33.32,-33.29 33.31,33.29 -7.32,7.31 30.75,30.75 v 105.52 h 101.55 v -147.02 l -240,-240.01 v -110.14 l -62.33,-62.33 v -96.99 h -10.36 v -47.14 h 47.12 v 47.14 h -10.34 v 86.01 l 62.33,62.37 v 110.12 z m -542.15,40.48 v 42.84 h 10.36 v 47.09 h -47.12 v -47.09 h 10.34 v -53.8 l 27.48,-27.46 -7.32,-7.34 33.31,-33.31 33.29,33.31 -33.29,33.34 -7.31,-7.32 z m 240.55,-337.6 v 83.9 l 72.13,72.13 7.32,-7.32 33.31,33.31 -33.31,33.29 -33.34,-33.29 7.32,-7.29 -79.83,-79.84 v -94.89 H 2137 v -47.09 h 47.11 v 47.09 z m 137.73,261.17 h -89.91 l -61.77,-61.77 -161.13,161.16 v 120.98 h -155.53 v -185.5 l 78.22,-78.21 h 93.25 l 66.57,-66.58 -7.31,-7.29 33.31,-33.31 33.34,33.31 -33.34,33.31 -7.34,-7.31 -74.3,74.31 h -93.27 l -62.65,62.68 v 148.16 h 102.6 v -105.52 l 187.58,-187.58 72.71,72.74 h 90.03 l 88.2,89.65 0.07,56.02 h 10.33 l 0.08,47.06 -47.14,0.13 -0.03,-47.17 10.31,-0.02 -0.05,-45.21 z M 2220.31,86.5117 v 10.3399 h 2.69 l 91.87,92.7384 v 168.101 l -17.52,18.25 7.47,7.168 -32.61,33.993 -34.02,-32.614 32.63,-33.988 7.45,7.141 10.15,-10.61 V 200.449 l -68.11,-68.758 v 1.938 h -47.09 V 86.5117 Z m 6.26,674.1683 H 1808.75 V 481.91 h 142.65 v -10.328 h 47.12 v 47.137 H 1951.4 V 508.34 h -116.25 v 225.871 h 380.46 l 72.81,-72.813 V 514.219 l -74.82,-70.137 -138.3,-0.262 -72.96,-64.48 H 1875.22 V 162.441 l 325.61,5.129 54.91,54.879 1.61,100.289 -56.6,56.602 h -79.74 v 10.301 h -47.09 v -47.11 h 47.09 v 10.36 h 68.81 l 40.93,-40.981 -1.26,-78.289 -39.77,-39.781 -288.05,-4.551 v 163.602 h 110.67 l 73.02,64.539 138.7,0.218 90.81,85.082 V 672.332 Z M 1835.15,265.699 v 151.27 h 161 l 70.8,64.941 h 133.58 l 56.82,53.731 V 637.16 l -56.6,56.57 H 1875.22 V 582.809 h -10.33 v -47.168 h 47.09 v 47.168 h -10.31 v 84.472 h 288.15 l 41.08,-41.082 v -79.148 l -40.88,-38.711 h -133.35 l -70.82,-64.942 h -177.1 V 265.699 h -10.36 v -47.117 h 47.12 v 47.117 z m 419.21,557.082 H 1963.7 v 10.332 h -47.12 V 786.02 h 47.12 v 10.339 h 279.69 L 2353.01,686.738 V 657.07 h -10.36 v -47.109 h 47.14 v 47.109 h -10.33 v 40.61 z m -43.25,304.669 v -112.01 h -102.6 v 344.46 l -88.67,88.65 7.31,7.32 -33.31,33.31 -33.31,-33.31 33.31,-33.34 7.29,7.32 80.93,-80.91 V 989.043 h 155.48 v 138.407 h 10.35 v 47.11 h -47.11 v -47.11 z M 1840.33,822.781 h -94.16 V 207.238 l 62.68,-54.148 V 96.8516 h 303.48 l 57.9,-57.8828 h 84.08 l 125.15,124.5822 v 219.711 l -47.39,47.34 47.39,47.367 v 53.851 h 10.33 v 47.11 h -47.14 v -47.11 h 10.36 v -42.89 l -58.33,-58.328 58.33,-58.301 V 174.559 L 2243.39,65.3906 h -62.22 l -57.88,57.8794 h -288.02 v 41.89 l -62.65,54.129 v 577.07 h 67.71 V 786.02 h 47.14 v 47.093 h -47.14 z m -57.38,-671.199 h -47.09 v -47.121 h 10.31 V 38.4414 h 305.97 v -10.332 h 47.12 V 75.25 h -47.12 V 64.8711 h -279.52 v 39.5899 h 10.33 z M 1500.79,1673.07 v 10.36 h 89.71 v -10.36 h 47.11 v 47.14 h -47.11 v -10.36 h -89.71 v 10.36 h -47.11 v -47.14 z m -112.83,-374.74 v -212.62 h -10.34 v -47.09 h 47.09 v 47.09 h -10.33 v 212.62 h 10.36 v 47.09 h -47.12 v -47.09 z m 90.96,319.58 h 213.73 v 155.45 h -582.96 v -155.45 h 213.75 V 989.043 h 155.48 v 360.707 l -64.49,64.48 v 295.62 h -205.38 v 10.36 h -47.12 v -47.14 h 47.12 v 10.36 h 178.93 v -280.18 l 64.49,-64.46 v -323.35 h -102.6 v 628.86 h -213.76 v 102.63 h 530.14 V 1644.3 h -213.78 v -183.15 h -10.31 v -47.19 h 47.09 v 47.19 h -10.33 z M 1342.53,767.852 h -47.12 V 720.73 h 47.12 v 10.34 h 29.31 l 105.6,-105.601 V 448.73 h -10.34 v -47.121 h 47.12 v 47.121 h -10.34 v 187.7 l -121.1,121.082 h -40.25 z M 1104.11,757.512 977.445,630.852 V 335.988 H 1104.84 V 325.66 h 47.09 v 47.141 h -47.09 V 362.422 H 1003.9 v 257.469 l 111.15,111.179 h 106.14 l 68.04,-66.929 h 50.38 l 73.97,-73.969 v -164.57 h -344.34 v 164.57 l 73.96,73.969 h 41.54 v -10.332 h 47.11 v 47.089 h -47.11 V 690.59 h -52.47 l -89.46,-89.481 V 399.148 H 1440 v 201.961 l -89.43,89.481 h -50.51 l -68.03,66.922 z M 977.445,247.82 v -97.871 h -10.332 v -47.09 h 47.117 v 47.09 h -10.33 v 97.871 h 10.33 v 47.09 H 967.113 V 247.82 Z M 1403.27,821.273 1078.69,819.766 914.418,656.82 V 35.832 h 154.212 v 234.09 h 105.25 l 71.07,66.066 h 232.49 V 149.949 h -10.34 v -47.09 h 47.12 v 47.09 h -10.34 V 362.422 H 1234.57 L 1163.49,296.32 H 1042.24 V 62.25 h -101.4 v 583.559 l 148.81,147.582 302.91,1.41 139.71,-137 v -30.09 h 47.11 v 47.141 h -26.77 z M 856.895,1304.24 v -214.1 h -10.36 V 1043 h 47.113 v 47.14 h -10.304 v 214.1 h 10.304 v 47.09 h -47.113 v -47.09 z m 60.136,138.58 h 47.09 v 47.12 h -10.355 v 283.42 H 790.496 V 989.016 h 163.27 v 366.894 l -70.5,78.74 0.078,237.81 h 10.304 v 47.14 h -47.136 v -47.14 h 10.383 L 856.844,1423.69 927.34,1345 V 1015.44 H 816.945 v 731.49 H 927.34 V 1489.94 H 917.031 Z M 463.254,85.6289 V 96.0195 H 648.898 V 85.6289 h 47.114 V 132.77 H 648.898 V 122.441 H 463.254 V 132.77 H 416.113 V 85.6289 Z M 119.27,36.9297 H 751.902 V 192.43 H 403.469 L 337.371,122.441 H 207.113 v 186.778 h 10.332 v 47.113 h -47.113 v -47.113 h 10.356 V 96.0195 h 168.097 l 66.07,69.9685 H 725.453 V 63.3594 H 145.691 V 353.422 l 63.434,62.969 v 303.988 h 10.332 v 47.09 h -47.09 v -47.09 h 10.36 v -293 L 119.27,364.43 Z M 400.398,1672.09 v 10.33 h 18.457 l 102.098,-102.63 h -4.348 v -47.14 h 47.114 v 47.14 h -10.36 v 4.91 L 429.84,1708.87 h -29.442 v 10.33 h -47.113 v -47.11 z m 218.407,-193.84 0.023,130.15 -164.953,164.96 H 341.117 l -61.094,-65.52 -55.636,-1.13 -123.649,-123.65 v -40.58 H 90.3828 v -47.14 h 47.1132 v 47.14 h -10.332 v 29.65 l 108.332,108.35 56.192,1.08 60.917,65.37 h 90.336 l 149.414,-149.44 v -92.77 H 489.754 v 50.13 l -89.43,89.45 H 254.328 l -89.453,-89.45 V 1367.3 h -10.332 v -47.09 h 47.09 v 47.09 h -10.309 v 176.59 l 73.965,73.97 h 124.074 l 73.965,-73.97 v -65.64 z M 231.348,1736.6 h 47.117 v 47.09 h -47.117 v -10.33 H 200.754 L 35.8242,1608.4 v -137.45 l 64.9138,-66.04 v -226.07 l 129.328,-128.3 37.637,0.42 0.074,-10.28 47.141,0.41 -0.402,47.09 -47.114,-0.41 0.102,-10.41 -26.652,-0.32 -113.688,112.81 v 225.89 l -64.9179,66.05 v 115.7 l 149.4419,149.44 h 19.66 z m 162.39,-694.89 -0.078,10.46 31.153,0.35 128.574,128.33 v 0.07 l 10.332,-0.05 0.226,47.12 -47.09,0.22 -0.25,-46.76 -102.804,-102.57 -20.34,-0.26 -0.074,10.24 -47.141,-0.38 0.375,-47.12 z M 72.6055,1410.34 H 25.4648 V 1363.2 H 35.8242 V 1153.95 L 200.754,989.016 H 451.16 l 167.645,164.874 v 132.12 H 463.328 v -67.53 l -73.965,-73.96 H 265.289 l -73.965,73.96 v 26.65 h 10.309 v 47.09 h -47.09 v -47.09 h 10.332 v -37.58 l 89.453,-89.48 h 145.996 l 89.43,89.48 v 51.99 h 102.601 v -94.56 L 440.324,1015.44 H 211.688 L 62.2461,1164.91 V 1363.2 H 72.6055 Z M 118.613,469.922 h -10.332 v -47.09 h 47.141 v 47.09 h -10.359 v 324.93 H 247.691 V 165.988 h 48.274 V 155.68 h 47.09 v 47.109 h -47.09 V 192.43 H 274.09 V 821.273 H 118.613 Z M 1277.11,306.699 h -47.12 V 259.59 h 47.12 v 10.332 h 137.8 V 35.832 h 154.12 v 511.527 h 10.35 v 47.11 h -47.11 v -47.11 h 10.31 V 62.25 h -101.25 v 234.07 h -164.22 v 10.379"
         style="fill:#19ae48;fill-opacity:1;fill-rule:nonzero;stroke:none"
         id="path14" />
    </g>
  </g>
</svg>
