<?xml version="1.0" encoding="UTF-8" standalone="no"?>
<!-- Created with Inkscape (http://www.inkscape.org/) -->

<svg
   version="1.1"
   id="svg2"
   width="270.67999"
   height="213.74667"
   viewBox="0 0 270.67999 213.74667"
   sodipodi:docname="CITYLAB_LOGO_ZWART_LABEL_COMPACT_CMYK.eps"
   xmlns:inkscape="http://www.inkscape.org/namespaces/inkscape"
   xmlns:sodipodi="http://sodipodi.sourceforge.net/DTD/sodipodi-0.dtd"
   xmlns="http://www.w3.org/2000/svg"
   xmlns:svg="http://www.w3.org/2000/svg">
  <defs
     id="defs6" />
  <sodipodi:namedview
     id="namedview4"
     pagecolor="#ffffff"
     bordercolor="#000000"
     borderopacity="0.25"
     inkscape:showpageshadow="2"
     inkscape:pageopacity="0.0"
     inkscape:pagecheckerboard="0"
     inkscape:deskcolor="#d1d1d1" />
  <g
     id="g8"
     inkscape:groupmode="layer"
     inkscape:label="ink_ext_XXXXXX"
     transform="matrix(1.3333333,0,0,-1.3333333,0,213.74667)">
    <g
       id="g10"
       transform="scale(0.1)">
      <path
         d="M 210.668,1603.12 0,1392.43 V 197.711 L 197.711,0 H 1860.3 l 169.83,169.82 v 1252.71 l -180.59,180.59 H 210.668"
         style="fill:#231f20;fill-opacity:1;fill-rule:nonzero;stroke:none"
         id="path12" />
      <path
         d="m 1756.07,1417.82 v -88.61 l -16.84,-16.82 -5.36,5.35 -24.39,-24.38 24.39,-24.38 24.39,24.38 -5.36,5.35 22.52,22.49 v 77.28 h 74.34 v -107.67 l -175.71,-175.69 v -80.64 l -45.63,-45.632 v -71.035 h -7.59 V 883.32 h 34.5 v 34.493 h -7.57 v 62.992 l 45.63,45.665 v 80.62 l 175.72,175.72 v 135.01 z m -283.89,-105.38 v 31.35 h 7.58 v 34.5 h -34.49 v -34.5 h 7.56 v -39.37 l 20.12,-20.1 -5.35,-5.38 24.39,-24.39 24.37,24.39 -24.37,24.39 -5.36,-5.34 z m 176.12,-247.17 v 61.43 l 52.81,52.79 5.35,-5.34 24.39,24.37 -24.39,24.39 -24.4,-24.39 5.35,-5.34 -58.44,-58.46 v -69.45 h -7.58 v -34.47 h 34.49 v 34.47 z m 100.83,191.21 h -65.82 l -45.23,-45.22 -117.97,117.99 v 88.57 h -113.86 v -135.8 l 57.26,-57.27 h 68.27 l 48.72,-48.74 -5.33,-5.36 24.39,-24.37 24.4,24.37 -24.4,24.41 -5.38,-5.36 -54.39,54.4 h -68.29 l -45.87,45.9 v 108.48 h 75.12 v -77.28 l 137.33,-137.31 53.23,53.25 h 65.92 l 64.57,65.62 0.06,41.01 h 7.56 l 0.06,34.48 -34.52,0.07 -0.01,-34.53 h 7.54 l -0.03,-33.1 z M 1710.38,220.5 v 7.551 h 1.96 l 67.27,67.918 v 123.07 l -12.84,13.359 5.46,5.25 -23.85,24.891 -24.91,-23.879 23.88,-24.89 5.44,5.23 7.46,-7.77 V 303.922 l -49.87,-50.34 V 255 h -34.49 v -34.5 z m 4.57,493.586 H 1409.04 V 509.988 h 104.46 v -7.566 h 34.48 v 34.519 h -34.48 v -7.613 h -85.11 v 165.375 h 278.53 l 53.33,-53.308 V 533.641 l -54.8,-51.352 -101.24,-0.187 -53.43,-47.231 h -93.05 V 276.09 l 238.39,3.762 40.2,40.179 1.16,73.418 -41.42,41.422 h -58.38 v 7.559 h -34.5 v -34.489 h 34.5 v 7.579 h 50.38 l 29.94,-30 -0.92,-57.321 -29.12,-29.121 -210.87,-3.328 v 119.77 h 81.01 l 53.46,47.25 101.57,0.171 66.48,62.289 V 649.402 Z M 1428.39,351.691 v 110.75 h 117.88 l 51.81,47.547 h 97.82 l 41.58,39.332 v 74.332 l -41.42,41.414 h -238.33 v -81.207 h -7.58 V 549.32 h 34.49 v 34.539 h -7.55 v 61.844 h 210.97 l 30.07,-30.078 V 557.68 l -29.94,-28.352 h -97.64 l -51.83,-47.539 H 1409.04 V 351.691 h -7.58 v -34.5 h 34.49 v 34.5 z m 306.9,407.86 h -212.8 v 7.566 h -34.5 v -34.476 h 34.5 v 7.562 h 204.77 l 80.26,-80.254 V 638.23 h -7.57 v -34.496 h 34.5 v 34.496 h -7.57 v 29.727 z m -59.64,185.359 v -81.984 h -75.14 v 252.194 l -64.9,64.9 5.36,5.36 -24.39,24.39 -24.39,-24.39 24.39,-24.41 5.34,5.34 59.25,-59.22 V 843.598 H 1695 V 944.91 h 7.58 v 34.492 h -34.49 V 944.91 Z M 1432.18,759.551 h -68.95 v -450.66 l 45.91,-39.653 v -41.187 h 222.17 l 42.39,-42.36 h 61.57 l 91.61,91.207 v 160.864 l -34.69,34.66 34.69,34.68 v 39.429 h 7.57 v 34.489 h -34.5 v -34.489 h 7.57 v -31.41 l -42.69,-42.699 42.69,-42.692 V 284.961 l -80.26,-79.922 h -45.55 l -42.38,42.371 h -210.87 v 30.668 l -45.87,39.633 v 422.492 h 49.59 v -7.562 h 34.5 v 34.476 h -34.5 z m -42.02,-491.41 h -34.48 v -34.5 h 7.55 v -48.332 h 224.01 v -7.571 h 34.5 v 34.524 h -34.5 v -7.614 h -204.65 v 28.993 h 7.57 z M 1196.65,1344.4 v 7.56 h 65.67 v -7.56 h 34.5 v 34.51 h -34.5 v -7.59 h -65.67 v 7.59 h -34.5 v -34.51 z m -82.62,-274.36 V 914.371 h -7.56 v -34.476 h 34.49 v 34.476 h -7.56 v 155.669 h 7.56 v 34.48 h -34.49 v -34.48 z m 66.6,233.97 h 156.5 v 113.81 H 910.305 V 1304.01 H 1066.8 V 843.598 h 113.83 v 264.062 l -47.19,47.23 v 216.43 H 983.066 v 7.59 h -34.511 v -34.51 h 34.511 v 7.56 h 130.984 v -205.11 l 47.24,-47.19 V 862.926 h -75.14 V 1323.34 H 929.672 v 75.14 H 1317.8 v -75.14 h -156.51 v -134.11 h -7.57 v -34.53 h 34.48 v 34.53 h -7.57 z M 1051.62,719.332 h -34.5 v -34.496 h 34.5 v 7.566 h 21.46 l 77.31,-77.293 V 485.691 h -7.57 v -34.492 h 34.5 v 34.492 h -7.59 v 137.426 l -88.64,88.649 h -29.47 z M 877.063,711.766 784.328,619.031 V 403.148 h 93.27 v -7.558 h 34.476 v 34.488 H 877.598 V 422.5 h -73.907 v 188.508 l 81.379,81.394 h 77.715 l 49.785,-49 h 36.91 l 54.15,-54.152 V 468.762 H 851.531 V 589.25 l 54.153,54.152 h 30.41 v -7.566 h 34.496 v 34.496 h -34.496 v -7.566 H 897.68 L 832.188,597.262 V 449.391 h 290.792 v 147.871 l -65.47,65.504 h -36.98 l -49.811,49 z M 784.328,338.602 v -71.641 h -7.566 v -34.492 h 34.496 v 34.492 h -7.567 v 71.641 h 7.567 v 34.476 H 776.762 V 338.602 Z M 1096.09,758.445 858.453,757.344 738.184,638.047 V 183.391 H 851.09 v 171.39 h 77.051 l 52.039,48.367 h 170.21 V 266.961 h -7.57 v -34.492 h 34.5 v 34.492 h -7.59 V 422.5 H 972.578 L 920.539,374.109 H 831.742 V 202.738 h -74.215 v 427.246 l 108.953,108.047 221.77,1.032 102.28,-100.317 V 616.73 h 34.5 v 34.512 h -19.6 z M 749.113,1074.37 h 7.567 V 917.613 h -7.567 v -34.515 h 34.496 v 34.515 h -7.562 v 156.757 h 7.562 v 34.47 h -34.496 z m 57.578,101.44 h 34.497 v 34.51 h -7.583 v 207.5 H 701.367 V 843.578 h 132.238 v 268.612 l -46.867,46.92 h -0.015 l -10.735,10.73 0.059,174.11 h 7.562 v 34.52 h -34.531 v -34.52 h 7.602 l -0.035,-182.13 57.613,-57.62 V 862.926 H 720.73 v 535.554 h 93.528 v -188.16 h -7.567 z M 457.715,219.859 v 7.602 h 135.933 v -7.602 h 34.497 v 34.493 h -34.497 v -7.551 H 457.715 v 7.551 h -34.516 v -34.493 z m -251.828,-35.66 h 463.16 V 298.051 H 413.941 l -48.371,-51.25 h -95.386 v 136.75 h 7.582 v 34.5 h -34.493 v -34.5 h 7.567 v -156.09 h 123.066 l 48.395,51.23 h 227.398 v -75.14 H 225.234 V 415.91 l 46.442,46.11 v 222.558 h 7.562 v 34.477 h -34.476 v -34.477 h 7.566 V 470.059 l -46.441,-46.09 z m 224.75,697.961 -0.055,7.641 22.805,0.254 94.136,93.968 v 0.055 l 7.563,-0.035 0.168,34.497 -34.477,0.16 -0.183,-34.235 -75.27,-75.117 -14.89,-0.184 -0.055,7.508 -34.512,-0.293 0.278,-34.496 z M 472.68,843.578 595.418,964.293 V 1061 H 481.57 v -49.42 l -54.136,-54.154 h -90.836 l -54.172,54.154 v 19.51 h 7.562 v 34.48 h -34.476 v -34.48 h 7.566 v -27.52 l 65.492,-65.507 h 106.871 l 65.473,65.507 v 38.07 h 75.141 V 972.391 L 464.746,862.926 H 297.352 l -109.411,109.41 v 145.194 h 7.582 v 34.49 h -34.511 v -34.49 h 7.582 V 964.328 l 120.75,-120.75 z m -37.164,500.102 v 7.55 h 13.511 l 74.75,-75.12 h -3.183 v -34.54 h 34.492 v 34.54 h -7.582 v 3.57 l -90.434,90.93 h -21.554 v 7.56 H 401.02 v -34.49 z m 46.054,-141.92 h 113.848 v 95.29 l -120.75,120.77 h -82.555 l -44.73,-47.97 -40.735,-0.84 -90.527,-90.51 v -29.71 h -7.582 v -34.51 h 34.492 v 34.51 h -7.562 v 21.7 l 79.316,79.34 41.121,0.79 44.617,47.86 h 66.118 l 109.414,-109.41 v -67.94 h -75.141 v 36.7 l -65.473,65.51 H 328.57 l -65.492,-65.51 v -137.3 h -7.566 v -34.48 h 34.476 v 34.48 h -7.562 v 129.29 l 54.172,54.16 h 90.836 l 54.136,-54.16 z m -169.824,189.13 h 34.496 v 34.48 h -34.496 v -7.55 h -22.402 l -120.75,-120.77 v -100.63 l 47.527,-48.35 V 982.551 l 94.668,-93.949 27.574,0.332 0.055,-7.528 34.516,0.293 -0.297,34.477 -34.496,-0.293 0.054,-7.621 -19.492,-0.239 -83.234,82.571 V 1156 l -47.528,48.34 v 84.73 l 109.411,109.41 h 14.394 z M 205.41,501.211 h -7.586 V 466.73 h 34.516 v 34.481 h -7.567 V 739.102 H 299.91 V 278.691 h 35.344 v -7.55 h 34.476 v 34.488 h -34.476 v -7.578 H 319.238 V 758.445 H 205.41 Z m 798.31,-119.5 h -34.493 v -34.492 h 34.493 v 7.562 h 100.89 v -171.39 h 112.83 v 374.507 h 7.59 v 34.5 h -34.5 v -34.5 h 7.55 v -355.16 h -74.12 v 171.371 h -120.24 v 7.602"
         style="fill:#ffffff;fill-opacity:1;fill-rule:nonzero;stroke:none"
         id="path14" />
    </g>
  </g>
</svg>
