<?xml version="1.0" encoding="UTF-8" standalone="no"?>
<!-- Created with Inkscape (http://www.inkscape.org/) -->

<svg
   version="1.1"
   id="svg2"
   width="326.01334"
   height="234.88"
   viewBox="0 0 326.01334 234.88"
   sodipodi:docname="CITYLAB_LOGO_ZWART_WIT_INLINE_COMPACT_CMYK.eps"
   xmlns:inkscape="http://www.inkscape.org/namespaces/inkscape"
   xmlns:sodipodi="http://sodipodi.sourceforge.net/DTD/sodipodi-0.dtd"
   xmlns="http://www.w3.org/2000/svg"
   xmlns:svg="http://www.w3.org/2000/svg">
  <defs
     id="defs6" />
  <sodipodi:namedview
     id="namedview4"
     pagecolor="#ffffff"
     bordercolor="#000000"
     borderopacity="0.25"
     inkscape:showpageshadow="2"
     inkscape:pageopacity="0.0"
     inkscape:pagecheckerboard="0"
     inkscape:deskcolor="#d1d1d1" />
  <g
     id="g8"
     inkscape:groupmode="layer"
     inkscape:label="ink_ext_XXXXXX"
     transform="matrix(1.3333333,0,0,-1.3333333,0,234.88)">
    <g
       id="g10"
       transform="scale(0.1)">
      <path
         d="M 456.387,1761.63 180.422,1761.02 0,1580.57 V 1109.13 L 181.031,928.102 h 272.563 l 183.824,180.808 v 178.17 h -221.18 v -86.17 l -51.554,-51.61 h -91.829 l -52.042,53.25 v 92.85 l 0.367,193.42 51.578,51.61 h 91.926 l 51.554,-51.61 v -84.33 h 221.18 v 176.08 z m 1768.653,-0.02 V 1622.9 L 2103,1501.33 1980.99,1623.39 v 138.22 h -221.2 V 1531.66 L 1992.43,1299 V 928.125 h 221.13 l -2.11,370.905 233.67,233.66 v 228.92 z m -1179.41,0 v -221.13 h 208.13 V 928.125 h 221.13 v 612.355 h 208.13 v 221.13 z m -310.782,0 V 928.102 H 963.566 V 1761.61 Z M 1665.37,836.031 V 2.55078 l 368.53,0.33985 h 34.64 v 0.03125 l 140.9,0.13671 142.31,141.70341 v 242.886 l -31.66,31.633 31.66,31.68 v 242.84 l -142.23,142.23 z m 221.18,-221.179 h 231.24 l 19.56,-19.563 V 547.68 l -18.8,-17.821 h -232 z m 0,-306.051 231.21,-0.102 19.2,-19.187 -0.74,-47.352 -18.77,-18.75 -230.9,-3.648 z M 1035.88,833.043 855.488,654.09 V 0 h 219.902 v 227.922 h 267.45 V 0 h 219.81 v 658.352 l -182.11,176.257 z m 40.13,-272.852 51.7,51.668 162.23,-0.089 51.6,-51.579 V 449.27 H 1076.01 Z M 80.6133,834.586 81.2734,1.07813 H 766.992 V 222.262 H 301.77 V 834.586 H 80.6133"
         style="fill:#231f20;fill-opacity:1;fill-rule:nonzero;stroke:none"
         id="path12" />
      <path
         d="m 2410.25,1547.16 v 179.56 h -150.33 v -117.85 l -22.4,-22.37 -7.12,7.12 -32.44,-32.44 32.44,-32.41 32.43,32.41 -7.12,7.13 29.94,29.94 v 102.74 h 98.87 v -143.16 l -233.68,-233.69 v -107.25 l -60.69,-60.69 v -94.44 h -10.09 v -45.9 h 45.88 v 45.9 h -10.06 v 83.75 l 60.68,60.73 v 107.23 z m -527.89,39.41 v 41.71 h 10.09 v 45.86 h -45.88 v -45.86 h 10.06 v -52.39 l 26.76,-26.73 -7.13,-7.14 32.44,-32.44 32.41,32.44 -32.41,32.46 -7.12,-7.13 z m 234.23,-328.72 v 81.69 l 70.23,70.23 7.13,-7.12 32.43,32.44 -32.43,32.41 -32.47,-32.41 7.13,-7.11 -77.73,-77.75 v -92.38 H 2080.8 V 1212 h 45.87 v 45.85 z m 134.1,254.3 h -87.54 L 2103,1452 1946.11,1608.92 v 117.8 H 1794.67 V 1546.1 l 76.16,-76.15 h 90.8 l 64.82,-64.83 -7.12,-7.1 32.43,-32.43 32.46,32.43 -32.46,32.44 -7.14,-7.13 -72.34,72.37 h -90.83 l -61,61.03 v 144.26 h 99.9 V 1598.25 L 2103,1415.6 l 70.8,70.82 h 87.66 l 85.88,87.3 0.07,54.54 h 10.06 l 0.08,45.83 -45.9,0.12 -0.03,-45.93 10.04,-0.02 -0.05,-44.02 z M 2161.92,84.2383 v 10.0625 h 2.62 L 2254,184.609 v 163.672 l -17.07,17.778 7.27,6.972 -31.75,33.098 -33.12,-31.75 31.78,-33.098 7.24,6.949 9.89,-10.332 V 195.18 l -66.32,-66.95 v 1.879 h -45.85 V 84.2383 Z m 6.1,656.4417 H 1761.18 V 469.238 h 138.9 V 459.18 h 45.88 v 45.898 h -45.88 v -10.109 h -113.19 v 219.929 h 370.46 L 2228.24,644 V 500.699 l -72.85,-68.301 -134.67,-0.25 -71.04,-62.789 H 1825.91 V 158.172 l 317.04,4.988 53.47,53.442 1.56,97.66 -55.1,55.097 h -77.65 v 10.039 h -45.85 V 333.52 h 45.85 v 10.089 h 67 l 39.85,-39.91 -1.22,-76.23 -38.73,-38.731 -280.47,-4.429 v 159.3 h 107.76 l 71.09,62.84 135.06,0.223 88.43,82.84 V 654.648 Z M 1786.89,258.711 v 147.301 h 156.77 l 68.93,63.226 h 130.07 l 55.32,52.313 v 98.859 l -55.1,55.078 H 1825.91 V 567.48 h -10.06 v -45.929 h 45.85 v 45.929 h -10.04 v 82.25 h 280.57 l 40,-40 v -77.062 l -39.8,-37.699 h -129.85 l -68.96,-63.231 H 1761.18 V 258.711 h -10.08 v -45.883 h 45.87 v 45.883 z m 408.18,542.434 h -283.02 v 10.058 h -45.87 v -45.851 h 45.87 v 10.062 H 2184.4 L 2291.13,668.68 v -28.891 h -10.08 v -45.871 h 45.9 v 45.871 h -10.07 v 39.539 z m -42.1,296.655 V 988.734 h -99.91 v 335.406 l -86.34,86.32 7.12,7.12 -32.43,32.44 -32.44,-32.44 32.44,-32.46 7.1,7.12 78.8,-78.77 V 963.031 h 151.38 V 1097.8 h 10.09 v 45.87 H 2142.9 V 1097.8 Z M 1791.93,801.145 h -91.68 V 201.789 l 61.03,-52.73 V 94.3008 h 295.5 l 56.38,-56.3516 h 81.86 L 2316.88,159.25 v 213.93 l -46.14,46.101 46.14,46.117 v 52.43 h 10.07 v 45.883 h -45.9 v -45.883 h 10.08 V 476.07 l -56.79,-56.789 56.79,-56.769 V 169.969 L 2184.4,63.668 h -60.59 l -56.35,56.363 h -280.45 v 40.778 L 1726,213.52 v 561.894 h 65.93 v -10.062 h 45.9 v 45.851 h -45.9 z M 1736.07,147.59 h -45.86 v -45.871 h 10.04 V 37.4297 h 297.93 V 27.3711 h 45.87 v 45.8984 h -45.87 V 63.1602 H 1726 v 38.5588 h 10.07 z m -274.75,1481.48 v 10.08 h 87.35 v -10.08 h 45.88 v 45.9 h -45.88 v -10.09 h -87.35 v 10.09 h -45.87 v -45.9 z m -109.86,-364.88 v -207.03 h -10.07 v -45.85 h 45.86 v 45.85 h -10.07 v 207.03 h 10.09 v 45.85 h -45.88 v -45.85 z m 88.57,311.17 h 208.1 v 151.36 h -567.62 v -151.36 h 208.13 V 963.031 h 151.39 v 351.219 l -62.8,62.79 v 287.84 h -199.98 v 10.09 h -45.87 v -45.9 h 45.87 v 10.08 h 174.23 v -272.81 l 62.79,-62.76 V 988.734 h -99.9 v 612.326 h -208.13 v 99.93 h 516.19 v -99.93 h -208.16 v -178.34 h -10.03 v -45.95 h 45.85 v 45.95 h -10.06 z M 1307.22,747.648 h -45.88 v -45.867 h 45.88 v 10.059 h 28.54 L 1438.58,609.02 V 436.93 h -10.06 v -45.879 h 45.88 v 45.879 h -10.07 V 619.699 L 1346.41,737.59 h -39.19 z M 1075.07,737.59 951.742,614.262 V 327.16 h 124.038 v -10.07 h 45.86 V 363 h -45.86 V 352.879 H 977.496 V 603.59 l 108.224,108.25 h 103.36 l 66.24,-65.168 h 49.06 l 72.02,-72.024 v -160.25 h -335.28 v 160.25 l 72.02,72.024 h 40.44 v -10.063 h 45.88 v 45.852 h -45.88 V 672.43 h -51.09 l -87.1,-87.129 V 388.648 h 386.74 v 196.653 l -87.08,87.129 h -49.18 l -66.24,65.16 z M 951.742,241.301 V 146 H 941.68 v -45.852 h 45.879 V 146 h -10.063 v 95.301 h 10.063 V 287.16 H 941.68 V 241.301 Z M 1366.36,799.676 1050.32,798.207 890.371,639.551 V 34.8906 H 1040.53 V 262.82 h 102.48 l 69.2,64.34 h 226.37 V 146 h -10.06 v -45.852 h 45.88 V 146 h -10.07 V 352.879 H 1202.1 l -69.2,-64.348 H 1014.83 V 60.6094 H 916.098 V 628.828 L 1061,772.527 1355.94,773.898 1491.97,640.5 v -29.301 h 45.88 v 45.903 h -26.07 z M 834.359,1269.94 v -208.47 h -10.086 v -45.9 h 45.875 v 45.9 h -10.035 v 208.47 h 10.035 v 45.85 h -45.875 v -45.85 z m 58.559,134.94 h 45.848 v 45.87 h -10.082 v 275.97 H 769.707 V 963.008 h 158.977 v 357.242 l -68.645,76.67 0.074,231.56 h 10.035 v 45.9 H 824.25 v -45.9 h 10.109 l -0.05,-242.23 68.644,-76.63 V 988.734 H 795.461 V 1700.99 H 902.953 V 1450.75 H 892.918 Z M 451.07,83.3789 V 93.4883 H 631.836 V 83.3789 h 45.875 V 129.281 H 631.836 V 119.219 H 451.07 v 10.062 H 405.172 V 83.3789 Z M 116.133,35.9609 H 732.129 V 187.371 H 392.855 L 328.496,119.219 H 201.664 v 181.859 h 10.063 v 45.883 h -45.875 v -45.883 h 10.086 V 93.4883 h 163.675 l 64.332,68.1327 h 302.43 V 61.6914 H 141.859 V 344.121 l 61.766,61.32 v 296 h 10.063 v 45.848 h -45.852 v -45.848 h 10.086 v -285.3 L 116.133,354.84 Z M 389.871,1628.11 v 10.06 h 17.969 l 99.414,-99.92 h -4.234 v -45.91 h 45.875 v 45.91 h -10.086 v 4.77 l -120.274,120.91 h -28.664 v 10.06 h -45.879 v -45.88 z m 212.66,-188.74 0.024,126.73 -160.614,160.62 H 332.145 l -59.485,-63.8 -54.176,-1.1 -120.3942,-120.39 v -39.52 H 88.0039 v -45.89 h 45.8751 v 45.89 H 123.82 v 28.87 l 105.485,105.51 54.715,1.05 59.316,63.65 h 87.957 l 145.484,-145.51 v -90.33 h -99.906 v 48.81 l -87.074,87.1 H 247.641 l -87.102,-87.1 v -182.62 h -10.062 v -45.86 h 45.851 v 45.86 h -10.035 v 171.95 l 72.02,72.02 h 120.812 l 72.02,-72.02 v -63.92 z m -377.265,251.56 h 45.875 v 45.85 h -45.875 v -10.06 H 195.473 L 34.8828,1566.1 v -133.83 l 63.207,-64.31 v -220.13 l 125.9262,-124.92 36.648,0.42 0.074,-10.02 45.899,0.4 -0.391,45.85 -45.875,-0.4 0.098,-10.13 -25.949,-0.32 -110.7,109.84 v 219.96 l -63.2106,64.31 v 112.66 l 145.5116,145.51 h 19.145 z m 158.117,-676.61 -0.074,10.18 30.332,0.34 125.191,124.95 v 0.07 l 10.063,-0.04 0.218,45.87 -45.851,0.22 -0.242,-45.53 -100.102,-99.88 -19.805,-0.25 -0.07,9.97 -45.902,-0.37 0.367,-45.87 z M 70.6953,1373.25 H 24.7969 v -45.9 H 34.8828 V 1123.6 L 195.473,963.008 h 243.824 l 163.234,160.542 v 128.64 H 451.145 v -65.75 l -72.02,-72.02 H 258.313 l -72.02,72.02 v 25.95 h 10.035 v 45.85 h -45.851 v -45.85 h 10.062 v -36.6 l 87.102,-87.13 h 142.156 l 87.074,87.13 v 50.62 h 99.906 v -92.07 L 428.746,988.734 H 206.121 L 60.6094,1134.27 v 193.08 H 70.6953 Z M 115.496,457.559 h -10.062 v -45.848 h 45.902 v 45.848 H 141.25 v 316.386 h 99.926 V 161.621 h 47.004 v -10.043 h 45.851 v 45.883 H 288.18 v -10.09 H 266.883 V 799.676 H 115.496 Z M 1243.52,298.641 h -45.87 v -45.879 h 45.87 V 262.82 H 1377.7 V 34.8906 h 150.06 V 532.961 h 10.09 v 45.879 h -45.88 v -45.879 h 10.04 V 60.6094 h -98.58 V 288.531 h -159.91 v 10.11"
         style="fill:#ffffff;fill-opacity:1;fill-rule:nonzero;stroke:none"
         id="path14" />
    </g>
  </g>
</svg>
