<?xml version="1.0" encoding="UTF-8" standalone="no"?>
<!-- Created with Inkscape (http://www.inkscape.org/) -->

<svg
   version="1.1"
   id="svg2"
   width="332.82666"
   height="262.82666"
   viewBox="0 0 332.82666 262.82666"
   sodipodi:docname="CITYLAB_LOGO_GROEN_LABEL_COMPACT_CMYK.eps"
   xmlns:inkscape="http://www.inkscape.org/namespaces/inkscape"
   xmlns:sodipodi="http://sodipodi.sourceforge.net/DTD/sodipodi-0.dtd"
   xmlns="http://www.w3.org/2000/svg"
   xmlns:svg="http://www.w3.org/2000/svg">
  <defs
     id="defs6" />
  <sodipodi:namedview
     id="namedview4"
     pagecolor="#ffffff"
     bordercolor="#000000"
     borderopacity="0.25"
     inkscape:showpageshadow="2"
     inkscape:pageopacity="0.0"
     inkscape:pagecheckerboard="0"
     inkscape:deskcolor="#d1d1d1" />
  <g
     id="g8"
     inkscape:groupmode="layer"
     inkscape:label="ink_ext_XXXXXX"
     transform="matrix(1.3333333,0,0,-1.3333333,0,262.82667)">
    <g
       id="g10"
       transform="scale(0.1)">
      <path
         d="M 259.031,1971.16 0,1712.11 V 243.102 L 243.098,0 H 2287.39 L 2496.2,208.809 V 1749.11 l -222.05,222.05 H 259.031"
         style="fill:#19ae48;fill-opacity:1;fill-rule:nonzero;stroke:none"
         id="path12" />
      <path
         d="m 2291.12,1516.99 v 229.22 h -138.2 v -172.48 l -144.26,-144.22 -144.24,144.26 v 172.44 h -139.19 v -230.19 l 213.86,-213.86 v -257.99 h 139.17 l -1.97,257.99 z M 2128.28,933.609 H 1673.4 V 231.531 l 454.85,0.481 112.01,111.508 v 196.66 l -42.41,42.371 42.41,42.41 v 196.66 z M 1812.59,513 h 257.93 l 36.62,-36.672 -1.11,-70.09 -35.6,-35.597 -257.84,-4.082 z m 294.7,173.789 -36.59,-34.648 H 1812.59 V 794.41 h 257.93 l 36.77,-36.769 z m -660.17,920.281 h 191.31 v 139.14 h -521.82 v -139.14 h 191.34 v -562.9 h 139.17 z M 1342.21,928.012 1051.68,926.66 904.633,780.809 V 224.949 H 1042.67 V 434.48 h 309.96 V 224.949 h 137.94 v 549.84 7.723 z m -56.98,-140.66 66.2,-66.223 v -147.32 h -308.22 v 147.32 l 66.2,66.223 z M 856.445,1044.14 h 161.665 v 702.07 H 856.445 Z M 249.594,230.199 H 815.867 V 369.371 H 388.172 V 932.27 H 249.004 Z M 587.727,1309.99 v -60.43 l -66.2,-66.22 H 410.469 l -66.203,66.22 v 291.26 l 66.203,66.2 h 111.058 l 66.2,-66.2 v -58.75 h 139.191 v 116.51 L 579.285,1746.21 H 352.707 L 205.074,1598.58 v -104.2 -302.6 l 147.633,-147.64 h 224.156 l 150.055,147.59 v 118.26 H 587.727"
         style="fill:#ffffff;fill-opacity:1;fill-rule:nonzero;stroke:none"
         id="path14" />
    </g>
  </g>
</svg>
