<?xml version="1.0" encoding="UTF-8" standalone="no"?>
<!-- Created with Inkscape (http://www.inkscape.org/) -->

<svg
   version="1.1"
   id="svg2"
   width="273.04001"
   height="199.44"
   viewBox="0 0 273.04001 199.44"
   sodipodi:docname="CITYLAB_LOGO_GROEN_COMPACT_CMYK.eps"
   xmlns:inkscape="http://www.inkscape.org/namespaces/inkscape"
   xmlns:sodipodi="http://sodipodi.sourceforge.net/DTD/sodipodi-0.dtd"
   xmlns="http://www.w3.org/2000/svg"
   xmlns:svg="http://www.w3.org/2000/svg">
  <defs
     id="defs6" />
  <sodipodi:namedview
     id="namedview4"
     pagecolor="#ffffff"
     bordercolor="#000000"
     borderopacity="0.25"
     inkscape:showpageshadow="2"
     inkscape:pageopacity="0.0"
     inkscape:pagecheckerboard="0"
     inkscape:deskcolor="#d1d1d1" />
  <g
     id="g8"
     inkscape:groupmode="layer"
     inkscape:label="ink_ext_XXXXXX"
     transform="matrix(1.3333333,0,0,-1.3333333,0,199.44)">
    <g
       id="g10"
       transform="scale(0.1)">
      <path
         d="m 277.066,1486.76 -53.625,-57.51 -48.859,-1.02 L 66.0508,1319.72 V 1251 h 23.2148 v 59.1 l 95.0934,95.11 49.301,0.98 53.492,57.38 h 79.27 l 131.176,-131.2 v -81.43 h -90.082 v 44 l -78.5,78.54 H 200.887 l -78.539,-78.54 v -183.83 h 23.215 v 174.21 l 64.949,64.92 h 108.906 l 64.902,-64.92 v -57.6 h 136.493 v 114.25 l -144.77,144.79 h -98.977"
         style="fill:#19ae48;fill-opacity:1;fill-rule:nonzero;stroke:none"
         id="path12" />
      <path
         d="m 154.633,1088.99 h -41.356 v 41.33 h 41.356 v -41.33"
         style="fill:#19ae48;fill-opacity:1;fill-rule:nonzero;stroke:none"
         id="path14" />
      <path
         d="m 56.9805,1242.72 h 41.3554 v 41.38 H 56.9805 v -41.38"
         style="fill:#19ae48;fill-opacity:1;fill-rule:nonzero;stroke:none"
         id="path16" />
      <path
         d="m 463.367,1295.13 h -23.215 v 16.44 l -94.875,95.34 h -37.89 v 23.23 h 47.558 l 108.422,-109.01 v -26"
         style="fill:#19ae48;fill-opacity:1;fill-rule:nonzero;stroke:none"
         id="path18" />
      <path
         d="m 287.727,1439.21 h 41.355 v -41.35 h -41.355 v 41.35"
         style="fill:#19ae48;fill-opacity:1;fill-rule:nonzero;stroke:none"
         id="path20" />
      <path
         d="m 431.105,1275.47 h 41.356 v 41.37 h -41.356 v -41.37"
         style="fill:#19ae48;fill-opacity:1;fill-rule:nonzero;stroke:none"
         id="path22" />
      <path
         d="M 9.07813,1148.42 V 943.047 L 153.848,798.277 373.645,798.281 520.82,943.004 V 1058.95 H 384.328 v -59.231 l -64.902,-64.922 h -108.91 l -64.946,64.922 v 45.081 h -23.215 v -54.702 l 78.516,-78.539 h 128.152 l 78.497,78.539 v 45.632 h 90.062 V 952.715 L 364.137,821.473 H 163.469 L 32.2695,952.672 V 1148.42 H 9.07813"
         style="fill:#19ae48;fill-opacity:1;fill-rule:nonzero;stroke:none"
         id="path24" />
      <path
         d="m 0,1126.73 h 41.3789 v 41.38 H 0 v -41.38"
         style="fill:#19ae48;fill-opacity:1;fill-rule:nonzero;stroke:none"
         id="path26" />
      <path
         d="m 154.633,1064.43 h -41.356 v -41.34 h 41.356 v 41.34"
         style="fill:#19ae48;fill-opacity:1;fill-rule:nonzero;stroke:none"
         id="path28" />
      <path
         d="m 301.453,853.461 -0.18,23.191 39.594,0.489 99.371,99.152 0.067,12.27 23.172,-0.11 -0.11,-21.781 -112.836,-112.66 -49.078,-0.551"
         style="fill:#19ae48;fill-opacity:1;fill-rule:nonzero;stroke:none"
         id="path30" />
      <path
         d="m 281.898,844.219 -0.332,41.355 41.36,0.352 0.328,-41.379 -41.356,-0.328"
         style="fill:#19ae48;fill-opacity:1;fill-rule:nonzero;stroke:none"
         id="path32" />
      <path
         d="m 472.652,1008.04 -41.332,0.2 -0.222,-41.353 41.355,-0.199 0.199,41.352"
         style="fill:#19ae48;fill-opacity:1;fill-rule:nonzero;stroke:none"
         id="path34" />
      <path
         d="M 153.848,1486.76 9.07813,1341.97 V 1221.3 L 66.0586,1163.32 V 964.887 L 179.559,852.27 l 54.773,0.617 -0.18,23.218 -45.082,-0.574 -99.8161,99.043 v 198.266 l -56.9805,57.97 v 101.56 l 131.1956,131.2 h 20.566 v 23.19 h -30.187"
         style="fill:#19ae48;fill-opacity:1;fill-rule:nonzero;stroke:none"
         id="path36" />
      <path
         d="m 180.719,1454.46 h 41.355 v 41.36 h -41.355 v -41.36"
         style="fill:#19ae48;fill-opacity:1;fill-rule:nonzero;stroke:none"
         id="path38" />
      <path
         d="m 254.059,843.984 -0.356,41.336 -41.332,-0.355 0.309,-41.332 41.379,0.351"
         style="fill:#19ae48;fill-opacity:1;fill-rule:nonzero;stroke:none"
         id="path40" />
      <path
         d="M 898.336,1486.76 V 1350.31 H 1085.94 V 798.293 h 136.49 v 316.617 l -56.6,56.6 v 259.51 H 963.836 v -23.2 h 178.774 v -245.93 l 56.63,-56.58 V 821.484 h -90.08 l -0.01,551.996 H 921.527 v 90.09 h 465.333 v -90.09 h -187.62 v -182.53 h 23.19 v 159.36 h 187.63 v 136.45 H 898.336"
         style="fill:#19ae48;fill-opacity:1;fill-rule:nonzero;stroke:none"
         id="path42" />
      <path
         d="m 944.191,1440.1 h 41.36 v -41.38 h -41.36 v 41.38"
         style="fill:#19ae48;fill-opacity:1;fill-rule:nonzero;stroke:none"
         id="path44" />
      <path
         d="m 1190.17,1171.28 h 41.33 v 41.4 h -41.33 v -41.4"
         style="fill:#19ae48;fill-opacity:1;fill-rule:nonzero;stroke:none"
         id="path46" />
      <path
         d="m 1165.78,861.465 h -23.19 v 230.015 h 23.19 V 861.465"
         style="fill:#19ae48;fill-opacity:1;fill-rule:nonzero;stroke:none"
         id="path48" />
      <path
         d="m 1133.52,1111.13 h 41.35 v -41.34 h -41.35 v 41.34"
         style="fill:#19ae48;fill-opacity:1;fill-rule:nonzero;stroke:none"
         id="path50" />
      <path
         d="m 1133.52,841.824 h 41.35 v 41.332 h -41.35 v -41.332"
         style="fill:#19ae48;fill-opacity:1;fill-rule:nonzero;stroke:none"
         id="path52" />
      <path
         d="M 1342.09,1407.81 H 1219.96 V 1431 l 122.13,0.01 v -23.2"
         style="fill:#19ae48;fill-opacity:1;fill-rule:nonzero;stroke:none"
         id="path54" />
      <path
         d="m 1361.73,1398.72 h -41.36 v 41.38 h 41.36 v -41.38"
         style="fill:#19ae48;fill-opacity:1;fill-rule:nonzero;stroke:none"
         id="path56" />
      <path
         d="m 1200.27,1398.72 h 41.36 v 41.38 h -41.36 v -41.38"
         style="fill:#19ae48;fill-opacity:1;fill-rule:nonzero;stroke:none"
         id="path58" />
      <path
         d="m 1912.32,1486.76 v -106.24 l -35.55,-35.5 16.42,-16.4 42.33,42.3 v 92.65 h 89.11 v -129.08 l -210.64,-210.67 v -96.68 l -54.71,-54.706 V 865.578 h 23.2 v 97.235 l 54.7,54.747 v 96.66 l 210.67,210.65 v 161.89 h -135.53"
         style="fill:#19ae48;fill-opacity:1;fill-rule:nonzero;stroke:none"
         id="path60" />
      <path
         d="m 1791.55,845.93 h -41.35 v 41.355 h 41.35 V 845.93"
         style="fill:#19ae48;fill-opacity:1;fill-rule:nonzero;stroke:none"
         id="path62" />
      <path
         d="m 1856.48,1337.53 29.24,-29.24 29.24,29.24 -29.24,29.24 -29.24,-29.24"
         style="fill:#19ae48;fill-opacity:1;fill-rule:nonzero;stroke:none"
         id="path64" />
      <path
         d="m 1783.12,1042.39 h -23.17 v 104.96 l 85.41,85.45 16.44,-16.42 -78.68,-78.68 v -95.31"
         style="fill:#19ae48;fill-opacity:1;fill-rule:nonzero;stroke:none"
         id="path66" />
      <path
         d="m 1852.86,1253.07 29.24,-29.24 -29.24,-29.22 -29.26,29.22 29.26,29.24"
         style="fill:#19ae48;fill-opacity:1;fill-rule:nonzero;stroke:none"
         id="path68" />
      <path
         d="m 1750.86,1022.74 h 41.35 v 41.33 h -41.35 v -41.33"
         style="fill:#19ae48;fill-opacity:1;fill-rule:nonzero;stroke:none"
         id="path70" />
      <path
         d="m 1492.93,1486.76 v -162.84 l 68.63,-68.66 h 81.85 l 73.8,-73.77 16.4,16.39 -80.6,80.62 h -81.85 l -55.01,55.02 v 130.05 h 90.08 v -92.65 l 164.65,-164.63 63.8,63.85 h 79.03 l 77.43,78.67 0.07,70.89 -23.19,0.01 -0.09,-61.39 -63.91,-64.99 h -78.92 l -54.22,-54.22 -141.46,141.46 v 106.19 h -136.49"
         style="fill:#19ae48;fill-opacity:1;fill-rule:nonzero;stroke:none"
         id="path72" />
      <path
         d="m 1753.93,1190.43 -29.26,-29.25 -29.24,29.25 29.24,29.26 29.26,-29.26"
         style="fill:#19ae48;fill-opacity:1;fill-rule:nonzero;stroke:none"
         id="path74" />
      <path
         d="m 2000.33,1439.31 -41.37,0.09 -0.03,-41.4 41.34,-0.03 0.06,41.34"
         style="fill:#19ae48;fill-opacity:1;fill-rule:nonzero;stroke:none"
         id="path76" />
      <path
         d="m 1839.11,798.309 h -136.47 v 315.901 l -86.4,86.36 16.42,16.42 93.17,-93.17 V 821.48 h 90.09 v 120.028 h 23.19 V 798.309"
         style="fill:#19ae48;fill-opacity:1;fill-rule:nonzero;stroke:none"
         id="path78" />
      <path
         d="m 1595.96,1208.07 29.24,29.25 29.24,-29.25 -29.24,-29.26 -29.24,29.26"
         style="fill:#19ae48;fill-opacity:1;fill-rule:nonzero;stroke:none"
         id="path80" />
      <path
         d="m 1848.18,961.125 h -41.36 V 919.77 h 41.36 v 41.355"
         style="fill:#19ae48;fill-opacity:1;fill-rule:nonzero;stroke:none"
         id="path82" />
      <path
         d="m 1588.25,1311.34 -39.48,39.46 v 68.9 h 23.19 v -59.31 l 32.69,-32.66 -16.4,-16.39"
         style="fill:#19ae48;fill-opacity:1;fill-rule:nonzero;stroke:none"
         id="path84" />
      <path
         d="m 1539.69,1439.35 h 41.35 v -41.36 h -41.35 v 41.36"
         style="fill:#19ae48;fill-opacity:1;fill-rule:nonzero;stroke:none"
         id="path86" />
      <path
         d="m 1595.71,1291 29.24,29.26 -29.24,29.24 -29.24,-29.24 29.24,-29.26"
         style="fill:#19ae48;fill-opacity:1;fill-rule:nonzero;stroke:none"
         id="path88" />
      <path
         d="M 230.582,121.031 H 166.52 l -0.004,551.996 H 76.4336 V 366.141 H 53.2188 V 696.219 H 189.688 l 0.003,-551.981 h 40.891 v -23.207"
         style="fill:#19ae48;fill-opacity:1;fill-rule:nonzero;stroke:none"
         id="path90" />
      <path
         d="m 250.234,111.98 h -41.332 v 41.352 h 41.332 V 111.98"
         style="fill:#19ae48;fill-opacity:1;fill-rule:nonzero;stroke:none"
         id="path92" />
      <path
         d="m 44.1367,346.48 h 41.3789 v 41.329 H 44.1367 V 346.48"
         style="fill:#19ae48;fill-opacity:1;fill-rule:nonzero;stroke:none"
         id="path94" />
      <path
         d="M 540.41,59.6094 H 333.984 V 82.8008 H 540.41 V 59.6094"
         style="fill:#19ae48;fill-opacity:1;fill-rule:nonzero;stroke:none"
         id="path96" />
      <path
         d="m 314.344,91.8711 h 41.379 V 50.5195 h -41.379 v 41.3516"
         style="fill:#19ae48;fill-opacity:1;fill-rule:nonzero;stroke:none"
         id="path98" />
      <path
         d="M 560.051,91.8711 H 518.695 V 50.5195 h 41.356 v 41.3516"
         style="fill:#19ae48;fill-opacity:1;fill-rule:nonzero;stroke:none"
         id="path100" />
      <path
         d="M 109.477,629.375 V 350.469 L 53.8008,295.211 V 7.75 H 609.086 l -0.004,136.52 H 303.238 L 245.242,82.8086 H 130.887 L 130.883,268.488 H 107.691 V 59.6094 h 147.547 l 57.996,61.4216 H 585.891 V 30.9492 H 76.9922 V 285.551 l 55.6558,55.281 v 288.543 h -23.171"
         style="fill:#19ae48;fill-opacity:1;fill-rule:nonzero;stroke:none"
         id="path102" />
      <path
         d="M 98.625,288.102 H 139.98 V 246.75 H 98.625 v 41.352"
         style="fill:#19ae48;fill-opacity:1;fill-rule:nonzero;stroke:none"
         id="path104" />
      <path
         d="M 141.746,648.988 H 100.41 v -41.332 h 41.336 v 41.332"
         style="fill:#19ae48;fill-opacity:1;fill-rule:nonzero;stroke:none"
         id="path106" />
      <path
         d="M 836.172,694.898 691.977,551.875 V 6.78125 H 827.344 V 212.262 h 92.379 l 62.363,58 H 1186.17 V 85.2617 h 23.2 V 293.449 H 972.973 L 910.586,235.43 H 804.148 V 29.9805 h -89 V 542.207 l 130.645,129.543 265.857,1.211 135.21,-132.539 5.43,5.558 h 14.28 v 7.571 l -145.48,142.672 -284.918,-1.325"
         style="fill:#19ae48;fill-opacity:1;fill-rule:nonzero;stroke:none"
         id="path108" />
      <path
         d="m 1275.64,526.313 h -41.36 v 41.375 h 41.36 v -41.375"
         style="fill:#19ae48;fill-opacity:1;fill-rule:nonzero;stroke:none"
         id="path110" />
      <path
         d="m 1177.1,65.6289 h 41.36 V 106.969 H 1177.1 V 65.6289"
         style="fill:#19ae48;fill-opacity:1;fill-rule:nonzero;stroke:none"
         id="path112" />
      <path
         d="M 1243.35,477.531 V 29.9609 h -88.87 V 235.441 H 988.641 V 212.27 H 1131.27 V 6.76953 h 135.3 V 477.531 h -23.22"
         style="fill:#19ae48;fill-opacity:1;fill-rule:nonzero;stroke:none"
         id="path114" />
      <path
         d="m 968.977,244.539 h 41.353 v -41.348 h -41.353 v 41.348"
         style="fill:#19ae48;fill-opacity:1;fill-rule:nonzero;stroke:none"
         id="path116" />
      <path
         d="m 1275.64,497.16 h -41.36 v -41.359 h 41.36 v 41.359"
         style="fill:#19ae48;fill-opacity:1;fill-rule:nonzero;stroke:none"
         id="path118" />
      <path
         d="m 1209.37,347.531 h -23.19 v 176.832 l -92.71,92.668 h -47.43 v 23.215 h 57.05 L 1209.37,533.965 V 347.531"
         style="fill:#19ae48;fill-opacity:1;fill-rule:nonzero;stroke:none"
         id="path120" />
      <path
         d="m 1218.46,327.871 h -41.36 v 41.359 h 41.36 v -41.359"
         style="fill:#19ae48;fill-opacity:1;fill-rule:nonzero;stroke:none"
         id="path122" />
      <path
         d="m 1026.4,607.965 h 41.36 v 41.355 h -41.36 v -41.355"
         style="fill:#19ae48;fill-opacity:1;fill-rule:nonzero;stroke:none"
         id="path124" />
      <path
         d="M 880.832,270.25 H 747.297 v 258.82 l 111.18,111.18 h 112.285 l 59.718,-58.746 h 44.33 l 78.5,-78.539 V 325.711 H 804.676 v 177.254 l 78.515,78.539 h 67.774 v -23.215 h -58.172 l -64.926,-64.93 V 348.898 h 302.253 v 144.461 l -64.93,64.93 h -44.25 l -59.69,58.746 h -93.172 l -97.566,-97.566 v -226.02 h 110.32 V 270.25"
         style="fill:#19ae48;fill-opacity:1;fill-rule:nonzero;stroke:none"
         id="path126" />
      <path
         d="m 900.457,261.199 h -41.336 v 41.36 h 41.336 v -41.36"
         style="fill:#19ae48;fill-opacity:1;fill-rule:nonzero;stroke:none"
         id="path128" />
      <path
         d="m 970.609,590.574 h -41.355 v -41.336 h 41.355 v 41.336"
         style="fill:#19ae48;fill-opacity:1;fill-rule:nonzero;stroke:none"
         id="path130" />
      <path
         d="M 770.52,85.2695 H 747.301 V 214.57 H 770.52 V 85.2695"
         style="fill:#19ae48;fill-opacity:1;fill-rule:nonzero;stroke:none"
         id="path132" />
      <path
         d="m 738.211,234.191 h 41.355 v -41.332 h -41.355 v 41.332"
         style="fill:#19ae48;fill-opacity:1;fill-rule:nonzero;stroke:none"
         id="path134" />
      <path
         d="m 738.211,65.6289 h 41.355 V 106.969 H 738.211 V 65.6289"
         style="fill:#19ae48;fill-opacity:1;fill-rule:nonzero;stroke:none"
         id="path136" />
      <path
         d="m 1441.35,697.539 v -540.32 l 55.04,-47.52 V 60.3086 h 266.36 l 50.83,-50.75001 h 73.79 L 1997.23,118.879 v 192.859 l -41.58,41.563 41.58,41.59 v 68.968 h -23.22 v -59.371 l -51.17,-51.187 51.17,-51.18 V 128.551 L 1877.8,32.7305 h -54.6 l -50.82,50.7812 H 1519.56 V 120.27 l -54.99,47.562 v 506.516 h 81.16 v 23.191 h -104.38"
         style="fill:#19ae48;fill-opacity:1;fill-rule:nonzero;stroke:none"
         id="path138" />
      <path
         d="M 1565.37,665.277 H 1524 v 41.332 h 41.37 v -41.332"
         style="fill:#19ae48;fill-opacity:1;fill-rule:nonzero;stroke:none"
         id="path140" />
      <path
         d="m 2006.3,483.5 h -41.36 v -41.359 h 41.36 V 483.5"
         style="fill:#19ae48;fill-opacity:1;fill-rule:nonzero;stroke:none"
         id="path142" />
      <path
         d="M 1441.35,88.6992 V 9.08203 h 290.29 V 32.2695 h -267.07 v 56.4297 h -23.22"
         style="fill:#19ae48;fill-opacity:1;fill-rule:nonzero;stroke:none"
         id="path144" />
      <path
         d="m 1432.3,108.379 h 41.36 V 67.0195 h -41.36 v 41.3595"
         style="fill:#19ae48;fill-opacity:1;fill-rule:nonzero;stroke:none"
         id="path146" />
      <path
         d="m 1709.92,0 h 41.36 v 41.3789 h -41.36 V 0"
         style="fill:#19ae48;fill-opacity:1;fill-rule:nonzero;stroke:none"
         id="path148" />
      <path
         d="m 1519.46,186.82 h -23.19 v 177.711 h 155.47 l 62.14,57.008 h 117.07 l 35.89,33.981 v 69.472 l -36.06,36.063 h -252.93 v -95.883 h -23.21 V 584.27 h 285.74 l 49.67,-49.653 V 445.5 l -49.87,-47.16 h -117.27 l -62.12,-57 H 1519.46 V 186.82"
         style="fill:#19ae48;fill-opacity:1;fill-rule:nonzero;stroke:none"
         id="path150" />
      <path
         d="m 1586.91,445.5 h -41.35 v 41.398 h 41.35 V 445.5"
         style="fill:#19ae48;fill-opacity:1;fill-rule:nonzero;stroke:none"
         id="path152" />
      <path
         d="m 1487.19,167.191 h 41.35 v 41.36 h -41.35 v -41.36"
         style="fill:#19ae48;fill-opacity:1;fill-rule:nonzero;stroke:none"
         id="path154" />
      <path
         d="m 1554.64,117.922 v 190.359 h 111.58 l 64.04,56.629 121.4,0.219 65.67,61.57 v 129.168 l -63.93,63.93 H 1519.46 V 421.531 h 123.76 V 398.34 h -146.95 v 244.676 h 366.75 l 77.53,-77.528 V 416.609 l -79.71,-74.679 -121.75,-0.192 -64.11,-56.648 h -97.13 V 141.488 l 252.84,3.992 34.91,34.911 1.11,68.718 -35.93,35.981 h -82.09 v 23.191 h 91.69 l 49.68,-49.652 -1.42,-88.059 -48.19,-48.148 -285.81,-4.5"
         style="fill:#19ae48;fill-opacity:1;fill-rule:nonzero;stroke:none"
         id="path156" />
      <path
         d="m 1729.03,317.352 h 41.36 v -41.364 h -41.36 v 41.364"
         style="fill:#19ae48;fill-opacity:1;fill-rule:nonzero;stroke:none"
         id="path158" />
      <path
         d="m 1662.85,430.641 h -41.36 V 389.27 h 41.36 v 41.371"
         style="fill:#19ae48;fill-opacity:1;fill-rule:nonzero;stroke:none"
         id="path160" />
      <path
         d="m 1859.89,60.332 h -24.05 v 23.1875 h 14.39 l 67.11,67.7815 V 279.93 l -23.95,24.98 16.73,16.051 30.43,-31.672 V 141.738 l -80.66,-81.406"
         style="fill:#19ae48;fill-opacity:1;fill-rule:nonzero;stroke:none"
         id="path162" />
      <path
         d="m 1816.2,92.6211 h 41.36 V 51.2695 h -41.36 v 41.3516"
         style="fill:#19ae48;fill-opacity:1;fill-rule:nonzero;stroke:none"
         id="path164" />
      <path
         d="m 1903.1,341.449 -29.86,-28.629 28.62,-29.832 29.84,28.621 -28.6,29.84"
         style="fill:#19ae48;fill-opacity:1;fill-rule:nonzero;stroke:none"
         id="path166" />
      <path
         d="m 1997.23,530.402 h -23.22 v 47.711 l -96.22,96.242 h -267.22 v 23.196 h 276.84 l 109.82,-109.813 v -57.336"
         style="fill:#19ae48;fill-opacity:1;fill-rule:nonzero;stroke:none"
         id="path168" />
      <path
         d="m 1590.93,706.609 h 41.36 v -41.332 h -41.36 v 41.332"
         style="fill:#19ae48;fill-opacity:1;fill-rule:nonzero;stroke:none"
         id="path170" />
      <path
         d="m 1964.94,510.73 h 41.36 v 41.36 h -41.36 v -41.36"
         style="fill:#19ae48;fill-opacity:1;fill-rule:nonzero;stroke:none"
         id="path172" />
      <path
         d="M 647.844,1486.76 V 798.27 h 158.539 v 322.04 l -56.211,56.28 -23.192,-9.64 56.208,-56.19 V 821.484 H 671.059 v 642.086 h 112.129 v -247.28 h 23.195 v 270.47 H 647.844"
         style="fill:#19ae48;fill-opacity:1;fill-rule:nonzero;stroke:none"
         id="path174" />
      <path
         d="m 774.113,1196.62 h 41.332 v 41.35 h -41.332 v -41.35"
         style="fill:#19ae48;fill-opacity:1;fill-rule:nonzero;stroke:none"
         id="path176" />
      <path
         d="m 705.039,1439.57 h 41.379 v -41.38 h -41.379 v 41.38"
         style="fill:#19ae48;fill-opacity:1;fill-rule:nonzero;stroke:none"
         id="path178" />
      <path
         d="m 714.152,865.324 h 23.219 V 1096.69 H 714.152 V 865.324"
         style="fill:#19ae48;fill-opacity:1;fill-rule:nonzero;stroke:none"
         id="path180" />
      <path
         d="m 746.418,1116.31 h -41.355 v -41.33 h 41.355 v 41.33"
         style="fill:#19ae48;fill-opacity:1;fill-rule:nonzero;stroke:none"
         id="path182" />
      <path
         d="m 746.418,845.664 h -41.355 v 41.379 h 41.355 v -41.379"
         style="fill:#19ae48;fill-opacity:1;fill-rule:nonzero;stroke:none"
         id="path184" />
      <path
         d="m 737.367,1419.01 h -23.215 l -0.047,-239.2 69.075,-69.07 23.195,9.58 -69.074,69.14 0.066,229.55"
         style="fill:#19ae48;fill-opacity:1;fill-rule:nonzero;stroke:none"
         id="path186" />
    </g>
  </g>
</svg>
