<?xml version="1.0" encoding="UTF-8" standalone="no"?>
<!-- Created with Inkscape (http://www.inkscape.org/) -->

<svg
   version="1.1"
   id="svg2"
   width="361.28"
   height="260.29333"
   viewBox="0 0 361.28 260.29333"
   sodipodi:docname="CITYLAB_LOGO_GROEN_WIT_INLINE_COMPACT_CMYK.eps"
   xmlns:inkscape="http://www.inkscape.org/namespaces/inkscape"
   xmlns:sodipodi="http://sodipodi.sourceforge.net/DTD/sodipodi-0.dtd"
   xmlns="http://www.w3.org/2000/svg"
   xmlns:svg="http://www.w3.org/2000/svg">
  <defs
     id="defs6" />
  <sodipodi:namedview
     id="namedview4"
     pagecolor="#ffffff"
     bordercolor="#000000"
     borderopacity="0.25"
     inkscape:showpageshadow="2"
     inkscape:pageopacity="0.0"
     inkscape:pagecheckerboard="0"
     inkscape:deskcolor="#d1d1d1" />
  <g
     id="g8"
     inkscape:groupmode="layer"
     inkscape:label="ink_ext_XXXXXX"
     transform="matrix(1.3333333,0,0,-1.3333333,0,260.29333)">
    <g
       id="g10"
       transform="scale(0.1)">
      <path
         d="M 505.762,1952.22 199.938,1951.54 0,1751.57 v -522.44 l 200.617,-200.62 h 302.055 l 203.707,200.37 v 197.45 H 461.27 v -95.49 l -57.133,-57.19 H 302.379 l -57.676,59 v 102.9 l 0.406,214.34 57.161,57.2 h 101.867 l 57.133,-57.2 v -93.45 h 245.109 v 195.13 z m 1959.998,-0.03 v -153.71 l -135.24,-134.72 -135.21,135.26 v 153.17 h -245.13 v -254.82 l 257.8,-257.83 v -411 h 245.06 l -2.34,411.03 258.95,258.94 v 253.68 z m -1307.01,0 v -245.05 h 230.65 v -678.6 h 245.05 v 678.6 h 230.65 v 245.05 z m -344.426,0 v -923.68 h 253.496 v 489.7 l -0.01,433.98 z M 1845.54,926.48 1845.55,2.82031 2253.94,3.19922 h 38.39 v 0.03125 l 156.15,0.16016 157.7,157.01937 v 269.18 l -35.08,35.051 35.08,35.097 V 768.859 L 2448.56,926.48 Z m 245.11,-245.109 h 256.26 l 21.68,-21.68 V 606.93 l -20.84,-19.75 h -257.1 z m 0,-339.16 256.23,-0.109 21.27,-21.274 -0.81,-52.469 -20.81,-20.781 -255.88,-4.039 z M 1147.95,923.172 948.043,724.859 V 0 h 243.697 v 252.57 h 296.38 V 0 h 243.59 V 729.578 L 1529.9,924.91 Z m 44.47,-302.383 57.3,57.27 179.78,-0.11 57.18,-57.16 0.01,-122.918 H 1192.42 Z M 89.3359,924.879 90.0703,1.19922 H 849.973 V 246.301 H 334.418 V 924.879 H 89.3359"
         style="fill:#19ae48;fill-opacity:1;fill-rule:nonzero;stroke:none"
         id="path12" />
      <path
         d="m 2671.01,1714.54 v 198.99 h -166.59 v -130.6 l -24.83,-24.79 -7.89,7.89 -35.95,-35.94 35.95,-35.92 35.94,35.92 -7.89,7.89 33.18,33.18 v 113.86 H 2642.5 V 1726.37 L 2383.53,1467.4 v -118.85 l -67.25,-67.26 v -104.66 h -11.18 v -50.86 h 50.84 v 50.86 h -11.15 v 92.81 l 67.25,67.31 v 118.82 z m -585,43.68 v 46.23 h 11.18 v 50.81 h -50.84 v -50.81 h 11.15 v -58.06 l 29.65,-29.62 -7.9,-7.93 35.95,-35.94 35.92,35.94 -35.92,35.98 -7.89,-7.9 z m 259.57,-364.29 v 90.53 l 77.83,77.83 7.89,-7.89 35.95,35.94 -35.95,35.93 -35.97,-35.93 7.9,-7.86 -86.14,-86.16 v -102.39 h -11.17 v -50.81 h 50.83 v 50.81 z m 148.61,281.82 h -97.01 l -66.66,-66.66 -173.87,173.9 v 130.54 h -167.82 v -200.15 l 84.4,-84.4 h 100.62 l 71.84,-71.84 -7.9,-7.87 35.95,-35.94 35.97,35.94 -35.97,35.95 -7.92,-7.9 -80.17,80.2 h -100.64 l -67.61,67.63 v 159.87 h 110.71 v -113.86 l 202.41,-202.41 78.46,78.48 h 97.15 l 95.16,96.75 0.08,60.44 h 11.15 l 0.09,50.78 -50.87,0.14 -0.03,-50.89 11.12,-0.03 -0.05,-48.78 z M 2395.82,93.3516 V 104.5 h 2.9 l 99.13,100.078 v 181.383 l -18.91,19.699 8.06,7.731 -35.18,36.679 -36.71,-35.191 35.21,-36.68 8.03,7.711 10.96,-11.449 v -158.16 l -73.49,-74.199 v 2.089 h -50.81 V 93.3516 Z m 6.76,727.4574 H 1951.72 V 520 h 153.93 v -11.148 h 50.84 v 50.867 h -50.84 V 548.52 h -125.44 v 243.718 h 410.54 l 78.56,-78.558 V 554.871 l -80.73,-75.691 -149.24,-0.282 -78.72,-69.578 H 2023.45 V 175.281 l 351.35,5.528 59.25,59.23 1.73,108.211 -61.06,61.07 h -86.06 v 11.121 h -50.81 v -50.839 h 50.81 v 11.179 h 74.25 l 44.17,-44.222 -1.36,-84.481 -42.91,-42.918 -310.82,-4.91 v 176.531 h 119.42 l 78.78,69.641 149.67,0.238 97.99,91.809 V 725.48 Z M 1980.21,286.699 V 449.93 h 173.73 l 76.4,70.07 h 144.13 l 61.31,57.98 v 109.551 l -61.06,61.039 H 2023.45 V 628.871 H 2012.3 V 577.98 h 50.81 v 50.891 h -11.12 v 91.16 h 310.92 l 44.33,-44.332 v -85.398 l -44.11,-41.781 h -143.89 l -76.42,-70.079 h -191.1 V 286.699 h -11.17 v -50.84 h 50.84 v 50.84 z m 452.34,601.121 h -313.63 v 11.149 h -50.84 v -50.821 h 50.84 v 11.153 h 301.81 L 2539.01,741.02 v -32.008 h -11.18 v -50.84 h 50.87 v 50.84 h -11.15 v 43.808 z m -46.66,328.74 v -120.85 h -110.71 v 371.69 l -95.68,95.65 7.89,7.9 -35.95,35.94 -35.94,-35.94 35.94,-35.97 7.87,7.89 87.33,-87.3 v -388.35 h 167.76 v 149.34 h 11.18 v 50.84 h -50.84 v -50.84 z M 1985.8,887.82 H 1884.2 V 223.621 l 67.63,-58.43 V 104.5 h 327.47 l 62.48,-62.4492 h 90.72 l 135.05,134.4182 v 237.082 l -51.14,51.078 51.14,51.121 v 58.109 h 11.15 v 50.832 h -50.87 v -50.832 h 11.18 V 527.57 l -62.94,-62.941 62.94,-62.91 V 188.352 L 2420.73,70.5586 h -67.15 l -62.45,62.4534 h -310.79 v 45.199 l -67.6,58.41 v 622.68 h 73.06 v -11.153 h 50.86 v 50.821 h -50.86 z m -61.91,-724.261 h -50.81 v -50.84 h 11.12 V 41.4805 h 330.16 V 30.332 h 50.84 v 50.8672 h -50.84 V 69.9883 h -301.62 v 42.7307 h 11.15 z M 1619.42,1805.31 v 11.18 h 96.8 v -11.18 h 50.84 v 50.87 h -50.84 V 1845 h -96.8 v 11.18 h -50.84 v -50.87 z m -121.75,-404.35 v -229.43 h -11.15 v -50.81 h 50.81 v 50.81 h -11.15 v 229.43 h 11.18 v 50.81 h -50.84 v -50.81 z m 98.15,344.83 h 230.62 v 167.74 h -629.03 v -167.74 h 230.65 v -678.57 h 167.76 v 389.22 l -69.59,69.58 V 1845 h -221.61 v 11.18 h -50.84 v -50.87 h 50.84 v 11.18 h 193.07 l 0.01,-302.32 69.58,-69.56 v -348.9 h -110.71 v 678.57 h -230.65 v 110.74 h 572.04 v -110.74 h -230.68 v -197.64 h -11.12 v -50.91 h 50.81 v 50.91 h -11.15 z M 1448.65,828.539 h -50.84 v -50.84 h 50.84 v 11.153 h 31.63 L 1594.22,674.91 V 484.191 h -11.15 v -50.832 h 50.84 v 50.832 h -11.15 v 202.547 l -130.68,130.653 h -43.43 z M 1191.39,817.391 1054.71,680.719 V 362.551 h 137.46 v -11.153 h 50.81 v 50.872 h -50.81 v -11.211 h -108.92 v 277.832 l 119.94,119.961 h 114.53 l 73.41,-72.223 h 54.37 l 79.81,-79.809 V 459.238 H 1153.76 V 636.82 l 79.81,79.809 h 44.82 V 705.48 h 50.84 v 50.821 h -50.84 v -11.129 h -56.62 l -96.52,-96.551 V 430.699 h 428.58 v 217.922 l -96.5,96.551 h -54.5 l -73.41,72.219 z M 1054.71,267.41 V 161.801 h -11.15 V 110.98 h 50.84 v 50.821 h -11.15 V 267.41 h 11.15 v 50.809 h -50.84 V 267.41 Z M 1514.19,886.191 1163.96,884.559 986.699,708.738 V 38.6602 H 1153.11 V 291.25 h 113.56 l 76.69,71.301 h 250.86 v -200.75 h -11.15 V 110.98 h 50.84 v 50.821 h -11.15 v 229.258 h -290.6 l -76.7,-71.321 H 1124.62 V 67.1719 H 1015.21 V 696.859 l 160.58,159.243 326.84,1.519 150.76,-147.82 V 677.32 h 50.84 v 50.871 h -28.89 z M 924.629,1407.34 V 1176.3 h -11.18 v -50.86 h 50.84 v 50.86 h -11.121 v 231.04 h 11.121 v 50.81 h -50.84 v -50.81 z m 64.891,149.53 h 50.81 v 50.84 h -11.18 v 305.82 H 852.98 v -846.34 h 176.17 v 395.9 l -76.064,84.96 0.078,256.61 h 11.125 v 50.87 h -50.867 v -50.87 h 11.207 l -0.055,-268.44 76.066,-84.91 v -355.6 H 881.52 v 789.31 h 119.12 V 1607.71 H 989.52 Z M 499.875,92.3984 V 103.602 H 700.191 V 92.3984 h 50.84 V 143.27 h -50.84 V 132.121 H 499.875 V 143.27 H 449.008 V 92.3984 Z M 128.699,39.8516 H 811.34 V 207.641 H 435.363 l -71.324,-75.52 H 223.484 V 333.66 h 11.153 v 50.84 h -50.84 v -50.84 h 11.176 V 103.602 h 181.382 l 71.297,75.5 H 782.801 V 68.3594 H 157.211 V 381.352 l 68.445,67.957 V 777.32 h 11.149 v 50.809 H 185.992 V 777.32 h 11.18 V 461.16 L 128.699,393.23 Z M 432.051,1804.26 v 11.15 h 19.91 l 110.172,-110.74 h -4.695 v -50.87 h 50.839 v 50.87 h -11.175 v 5.29 l -133.286,133.99 h -31.765 v 11.15 h -50.84 v -50.84 z m 235.668,-209.17 0.027,140.45 -177.992,177.99 H 368.078 l -65.922,-70.69 -60.035,-1.23 -133.418,-133.42 v -43.78 H 97.5234 v -50.87 h 50.8396 v 50.87 h -11.148 v 31.98 l 116.898,116.93 60.633,1.16 65.731,70.54 h 97.476 L 639.18,1723.77 V 1623.66 H 528.465 v 54.09 l -96.496,96.53 H 274.434 l -96.528,-96.53 v -202.37 h -11.148 v -50.82 h 50.812 v 50.82 h -11.125 v 190.55 l 79.817,79.81 h 133.879 l 79.812,-79.81 v -70.84 z m -418.082,278.78 h 50.84 v 50.81 h -50.84 v -11.15 H 216.621 L 38.6563,1735.54 v -148.31 l 70.0467,-71.27 v -243.94 l 139.551,-138.44 40.609,0.46 0.082,-11.1 50.868,0.44 -0.434,50.81 -50.84,-0.44 0.109,-11.23 -28.757,-0.35 -122.676,121.73 v 243.75 l -70.047,71.27 v 124.85 l 161.254,161.25 h 21.215 z m 175.226,-749.82 -0.082,11.29 33.614,0.38 138.734,138.47 v 0.08 l 11.148,-0.06 0.246,50.84 -50.812,0.25 -0.27,-50.46 -110.929,-110.69 -21.949,-0.27 -0.083,11.04 -50.867,-0.4 0.41,-50.84 z M 78.3438,1521.82 H 27.4805 v -50.87 H 38.6563 V 1245.16 L 216.621,1067.19 h 270.203 l 180.895,177.92 v 142.56 H 499.953 v -72.87 l -79.812,-79.82 H 286.262 l -79.813,79.82 v 28.75 h 11.121 v 50.82 h -50.812 v -50.82 h 11.148 V 1303 l 96.528,-96.55 h 157.535 l 96.496,96.55 v 56.1 H 639.18 V 1257.07 L 475.133,1095.71 H 228.422 L 67.168,1256.99 v 213.96 H 78.3438 Z M 127.992,507.059 H 116.844 V 456.25 h 50.867 v 50.809 h -11.18 V 857.68 H 267.27 l 0.003,-678.578 h 52.086 V 167.98 h 50.813 v 50.84 h -50.813 v -11.179 h -23.601 v 678.55 H 127.992 Z M 1378.06,330.941 h -50.84 v -50.839 h 50.84 v 11.148 h 148.69 V 38.6602 h 166.3 V 590.621 h 11.18 v 50.84 h -50.84 v -50.84 h 11.12 V 67.1719 H 1555.26 V 319.738 h -177.2 v 11.203"
         style="fill:#ffffff;fill-opacity:1;fill-rule:nonzero;stroke:none"
         id="path14" />
    </g>
  </g>
</svg>
