<?xml version="1.0" encoding="UTF-8" standalone="no"?>
<!-- Created with Inkscape (http://www.inkscape.org/) -->

<svg
   version="1.1"
   id="svg2"
   width="511.89334"
   height="88.453331"
   viewBox="0 0 511.89334 88.453331"
   sodipodi:docname="CITYLAB_LOGO_GROEN_HORIZONTAAL_CMYK.eps"
   xmlns:inkscape="http://www.inkscape.org/namespaces/inkscape"
   xmlns:sodipodi="http://sodipodi.sourceforge.net/DTD/sodipodi-0.dtd"
   xmlns="http://www.w3.org/2000/svg"
   xmlns:svg="http://www.w3.org/2000/svg">
  <defs
     id="defs6" />
  <sodipodi:namedview
     id="namedview4"
     pagecolor="#ffffff"
     bordercolor="#000000"
     borderopacity="0.25"
     inkscape:showpageshadow="2"
     inkscape:pageopacity="0.0"
     inkscape:pagecheckerboard="0"
     inkscape:deskcolor="#d1d1d1" />
  <g
     id="g8"
     inkscape:groupmode="layer"
     inkscape:label="ink_ext_XXXXXX"
     transform="matrix(1.3333333,0,0,-1.3333333,0,88.453333)">
    <g
       id="g10"
       transform="scale(0.1)">
      <path
         d="m 136.66,300.984 h -21.797 v 172.563 l 73.739,73.738 h 120.293 l 73.695,-73.738 v -41.313 h 84.57 v 76.473 L 344.012,631.855 H 269.59 l -50.223,-53.867 -46.281,-0.89 -89.2969,-89.297 V 432.297 H 62.0313 v 64.516 l 101.8747,101.875 45.871,0.953 50.344,53.992 h 92.902 L 488.957,517.699 V 410.438 H 360.813 v 54.097 l -60.954,60.953 H 197.637 L 136.66,464.535 V 300.984"
         style="fill:#19ae48;fill-opacity:1;fill-rule:nonzero;stroke:none"
         id="path12" />
      <path
         d="m 145.176,280.195 h -38.828 v 38.809 h 38.828 v -38.809"
         style="fill:#19ae48;fill-opacity:1;fill-rule:nonzero;stroke:none"
         id="path14" />
      <path
         d="m 53.4961,424.52 h 38.8242 v 38.847 H 53.4961 V 424.52"
         style="fill:#19ae48;fill-opacity:1;fill-rule:nonzero;stroke:none"
         id="path16" />
      <path
         d="m 435.023,473.73 h -21.796 v 15.438 l -89.067,89.523 h -35.574 v 21.797 h 44.648 L 435.023,498.16 v -24.43"
         style="fill:#19ae48;fill-opacity:1;fill-rule:nonzero;stroke:none"
         id="path18" />
      <path
         d="m 270.129,609 h 38.824 V 570.172 H 270.129 V 609"
         style="fill:#19ae48;fill-opacity:1;fill-rule:nonzero;stroke:none"
         id="path20" />
      <path
         d="m 404.734,455.266 h 38.829 v 38.847 h -38.829 v -38.847"
         style="fill:#19ae48;fill-opacity:1;fill-rule:nonzero;stroke:none"
         id="path22" />
      <path
         d="M 8.52344,335.992 V 143.188 L 144.434,7.27344 H 350.789 L 488.961,143.145 V 252 H 360.816 V 196.391 L 299.887,135.438 H 197.641 l -60.977,60.953 v 42.328 h -21.797 v -51.36 l 73.719,-73.714 h 120.312 l 73.696,73.714 v 42.844 h 84.551 V 152.281 L 341.859,29.0508 H 153.469 L 30.2969,152.223 V 335.992 H 8.52344"
         style="fill:#19ae48;fill-opacity:1;fill-rule:nonzero;stroke:none"
         id="path24" />
      <path
         d="m 0,315.625 h 38.8477 v 38.848 H 0 v -38.848"
         style="fill:#19ae48;fill-opacity:1;fill-rule:nonzero;stroke:none"
         id="path26" />
      <path
         d="m 145.176,257.137 h -38.828 v -38.805 h 38.828 v 38.805"
         style="fill:#19ae48;fill-opacity:1;fill-rule:nonzero;stroke:none"
         id="path28" />
      <path
         d="m 283.012,59.082 -0.164,21.7735 37.168,0.457 93.293,93.0855 0.062,11.52 21.758,-0.102 -0.086,-20.449 L 329.09,59.5977 283.012,59.082"
         style="fill:#19ae48;fill-opacity:1;fill-rule:nonzero;stroke:none"
         id="path30" />
      <path
         d="m 264.656,50.4023 -0.308,38.8243 38.824,0.332 0.312,-38.8438 -38.828,-0.3125"
         style="fill:#19ae48;fill-opacity:1;fill-rule:nonzero;stroke:none"
         id="path32" />
      <path
         d="m 443.742,204.207 -38.804,0.188 -0.208,-38.829 38.825,-0.183 0.187,38.824"
         style="fill:#19ae48;fill-opacity:1;fill-rule:nonzero;stroke:none"
         id="path34" />
      <path
         d="M 144.438,653.637 8.52344,517.703 V 404.418 L 62.0195,349.988 V 163.711 L 168.574,57.9609 l 51.422,0.5821 -0.164,21.7968 -42.328,-0.539 -93.711,92.9842 v 186.133 l -53.4961,54.449 v 95.324 L 153.469,631.863 h 19.308 v 21.774 h -28.339"
         style="fill:#19ae48;fill-opacity:1;fill-rule:nonzero;stroke:none"
         id="path36" />
      <path
         d="m 208.488,623.336 h -38.824 v 38.805 h 38.824 v -38.805"
         style="fill:#19ae48;fill-opacity:1;fill-rule:nonzero;stroke:none"
         id="path38" />
      <path
         d="m 238.52,50.1836 -0.332,38.8047 -38.805,-0.332 0.289,-38.8047 38.848,0.332"
         style="fill:#19ae48;fill-opacity:1;fill-rule:nonzero;stroke:none"
         id="path40" />
      <path
         d="M 864.102,653.637 V 525.535 H 1040.25 V 7.28516 h 128.12 V 304.531 l -53.14,53.145 V 601.305 H 925.594 V 579.527 H 1093.44 V 348.641 L 1146.6,295.52 V 29.0586 h -84.57 V 547.289 H 885.879 v 84.574 H 1322.75 V 547.289 H 1146.6 V 375.93 h 21.77 v 149.605 h 176.15 V 653.637 H 864.102"
         style="fill:#19ae48;fill-opacity:1;fill-rule:nonzero;stroke:none"
         id="path42" />
      <path
         d="m 907.16,570.988 v 38.848 h 38.828 V 570.988 H 907.16"
         style="fill:#19ae48;fill-opacity:1;fill-rule:nonzero;stroke:none"
         id="path44" />
      <path
         d="m 1138.09,357.453 h 38.8 v 38.871 h -38.8 v -38.871"
         style="fill:#19ae48;fill-opacity:1;fill-rule:nonzero;stroke:none"
         id="path46" />
      <path
         d="m 1115.19,66.5898 h -21.77 V 282.539 h 21.77 V 66.5898"
         style="fill:#19ae48;fill-opacity:1;fill-rule:nonzero;stroke:none"
         id="path48" />
      <path
         d="m 1084.9,300.977 h 38.83 v -38.805 h -38.83 v 38.805"
         style="fill:#19ae48;fill-opacity:1;fill-rule:nonzero;stroke:none"
         id="path50" />
      <path
         d="m 1084.9,48.1484 h 38.83 V 86.957 H 1084.9 V 48.1484"
         style="fill:#19ae48;fill-opacity:1;fill-rule:nonzero;stroke:none"
         id="path52" />
      <path
         d="m 1280.71,579.516 h -114.65 v 21.773 h 114.65 v -21.773"
         style="fill:#19ae48;fill-opacity:1;fill-rule:nonzero;stroke:none"
         id="path54" />
      <path
         d="m 1299.15,570.98 h -38.83 v 38.848 h 38.83 V 570.98"
         style="fill:#19ae48;fill-opacity:1;fill-rule:nonzero;stroke:none"
         id="path56" />
      <path
         d="m 1147.57,570.98 h 38.83 v 38.848 h -38.83 V 570.98"
         style="fill:#19ae48;fill-opacity:1;fill-rule:nonzero;stroke:none"
         id="path58" />
      <path
         d="m 1694.16,70.4531 h -21.77 V 170.797 l 51.36,51.359 v 90.746 l 197.77,197.778 v 121.164 h -83.68 v -86.957 l -39.74,-39.715 -15.41,15.391 33.38,33.335 v 99.739 H 1943.3 V 501.648 L 1745.52,303.867 v -90.722 l -51.36,-51.403 V 70.4531"
         style="fill:#19ae48;fill-opacity:1;fill-rule:nonzero;stroke:none"
         id="path60" />
      <path
         d="m 1702.68,52.0039 h -38.82 v 38.8242 h 38.82 V 52.0039"
         style="fill:#19ae48;fill-opacity:1;fill-rule:nonzero;stroke:none"
         id="path62" />
      <path
         d="m 1763.64,513.539 27.45,-27.449 27.45,27.449 -27.45,27.453 -27.45,-27.453"
         style="fill:#19ae48;fill-opacity:1;fill-rule:nonzero;stroke:none"
         id="path64" />
      <path
         d="m 1694.77,236.449 h -21.75 v 98.539 l 80.18,80.223 15.43,-15.414 -73.86,-73.863 v -89.485"
         style="fill:#19ae48;fill-opacity:1;fill-rule:nonzero;stroke:none"
         id="path66" />
      <path
         d="m 1760.24,434.246 27.45,-27.449 -27.45,-27.434 -27.47,27.434 27.47,27.449"
         style="fill:#19ae48;fill-opacity:1;fill-rule:nonzero;stroke:none"
         id="path68" />
      <path
         d="m 1664.48,218 h 38.83 v 38.805 h -38.83 V 218"
         style="fill:#19ae48;fill-opacity:1;fill-rule:nonzero;stroke:none"
         id="path70" />
      <path
         d="m 1632.88,367.039 -69.26,69.281 h -76.85 l -64.45,64.438 v 152.879 h 128.16 v -99.696 l 132.79,-132.804 50.9,50.906 h 74.09 l 60.02,61.016 0.06,57.656 21.8,-0.039 -0.08,-66.547 -72.68,-73.883 h -74.2 l -59.91,-59.918 -154.58,154.559 v 86.957 h -84.56 V 509.77 l 51.63,-51.672 h 76.87 l 75.66,-75.664 -15.41,-15.395"
         style="fill:#19ae48;fill-opacity:1;fill-rule:nonzero;stroke:none"
         id="path72" />
      <path
         d="m 1667.37,375.43 -27.48,-27.45 -27.45,27.45 27.45,27.472 27.48,-27.472"
         style="fill:#19ae48;fill-opacity:1;fill-rule:nonzero;stroke:none"
         id="path74" />
      <path
         d="m 1898.7,609.09 -38.85,0.082 -0.02,-38.867 38.8,-0.02 0.07,38.805"
         style="fill:#19ae48;fill-opacity:1;fill-rule:nonzero;stroke:none"
         id="path76" />
      <path
         d="m 1538.08,384.961 81.14,-81.074 V 7.28125 h 128.12 V 141.746 h -21.77 V 29.0586 h -84.58 V 312.898 l -87.47,87.477 -15.44,-15.414"
         style="fill:#19ae48;fill-opacity:1;fill-rule:nonzero;stroke:none"
         id="path78" />
      <path
         d="m 1519.05,392 27.46,27.453 L 1573.96,392 1546.51,364.527 1519.05,392"
         style="fill:#19ae48;fill-opacity:1;fill-rule:nonzero;stroke:none"
         id="path80" />
      <path
         d="m 1755.85,160.176 h -38.83 v -38.828 h 38.83 v 38.828"
         style="fill:#19ae48;fill-opacity:1;fill-rule:nonzero;stroke:none"
         id="path82" />
      <path
         d="m 1511.82,488.945 -37.07,37.047 v 64.684 h 21.78 v -55.672 l 30.68,-30.664 -15.39,-15.395"
         style="fill:#19ae48;fill-opacity:1;fill-rule:nonzero;stroke:none"
         id="path84" />
      <path
         d="m 1466.22,609.145 h 38.83 v -38.829 h -38.83 v 38.829"
         style="fill:#19ae48;fill-opacity:1;fill-rule:nonzero;stroke:none"
         id="path86" />
      <path
         d="m 1518.82,469.852 27.45,27.472 -27.45,27.453 -27.45,-27.453 27.45,-27.472"
         style="fill:#19ae48;fill-opacity:1;fill-rule:nonzero;stroke:none"
         id="path88" />
      <path
         d="m 2210.92,113.625 h -60.14 v 518.23 h -84.57 V 343.727 h -21.8 v 309.906 h 128.12 V 135.422 h 38.39 v -21.797"
         style="fill:#19ae48;fill-opacity:1;fill-rule:nonzero;stroke:none"
         id="path90" />
      <path
         d="m 2229.37,105.125 h -38.81 v 38.828 h 38.81 v -38.828"
         style="fill:#19ae48;fill-opacity:1;fill-rule:nonzero;stroke:none"
         id="path92" />
      <path
         d="m 2035.88,325.281 h 38.85 v 38.805 h -38.85 v -38.805"
         style="fill:#19ae48;fill-opacity:1;fill-rule:nonzero;stroke:none"
         id="path94" />
      <path
         d="m 2501.79,55.9609 h -193.8 v 21.7735 h 193.8 V 55.9609"
         style="fill:#19ae48;fill-opacity:1;fill-rule:nonzero;stroke:none"
         id="path96" />
      <path
         d="m 2289.55,86.25 h 38.85 V 47.4258 h -38.85 V 86.25"
         style="fill:#19ae48;fill-opacity:1;fill-rule:nonzero;stroke:none"
         id="path98" />
      <path
         d="m 2520.23,86.25 h -38.82 V 47.4258 h 38.82 V 86.25"
         style="fill:#19ae48;fill-opacity:1;fill-rule:nonzero;stroke:none"
         id="path100" />
      <path
         d="m 2097.24,590.875 v -261.84 l -52.29,-51.879 V 7.27734 h 521.34 V 135.441 H 2279.13 L 2224.68,77.7383 H 2117.34 V 252.066 h -21.8 V 55.9648 h 138.52 l 54.47,57.6602 h 255.96 V 29.0508 H 2066.74 V 268.078 l 52.25,51.902 v 270.895 h -21.75"
         style="fill:#19ae48;fill-opacity:1;fill-rule:nonzero;stroke:none"
         id="path102" />
      <path
         d="m 2087.03,270.48 h 38.83 v -38.828 h -38.83 v 38.828"
         style="fill:#19ae48;fill-opacity:1;fill-rule:nonzero;stroke:none"
         id="path104" />
      <path
         d="m 2127.52,609.289 h -38.81 v -38.805 h 38.81 v 38.805"
         style="fill:#19ae48;fill-opacity:1;fill-rule:nonzero;stroke:none"
         id="path106" />
      <path
         d="M 2779.46,652.391 2644.09,518.113 V 6.36719 h 127.09 V 199.277 h 86.72 l 58.55,54.446 h 191.63 V 80.043 h 21.77 V 275.5 h -221.93 l -58.57,-54.469 H 2749.4 V 28.1406 h -83.54 V 509.039 l 122.64,121.617 249.61,1.137 126.92,-124.434 5.12,5.223 h 13.39 v 7.106 l -136.6,133.945 -267.48,-1.242"
         style="fill:#19ae48;fill-opacity:1;fill-rule:nonzero;stroke:none"
         id="path108" />
      <path
         d="m 3192.07,494.113 h -38.82 v 38.848 h 38.82 v -38.848"
         style="fill:#19ae48;fill-opacity:1;fill-rule:nonzero;stroke:none"
         id="path110" />
      <path
         d="m 3099.54,61.6172 h 38.83 v 38.8048 h -38.83 V 61.6172"
         style="fill:#19ae48;fill-opacity:1;fill-rule:nonzero;stroke:none"
         id="path112" />
      <path
         d="M 3161.76,448.32 V 28.1289 h -83.44 V 221.039 H 2922.6 v -21.754 h 133.93 V 6.35547 h 127 V 448.32 h -21.77"
         style="fill:#19ae48;fill-opacity:1;fill-rule:nonzero;stroke:none"
         id="path114" />
      <path
         d="m 2904.15,229.582 h 38.82 v -38.828 h -38.82 v 38.828"
         style="fill:#19ae48;fill-opacity:1;fill-rule:nonzero;stroke:none"
         id="path116" />
      <path
         d="m 3192.07,466.723 h -38.82 v -38.825 h 38.82 v 38.825"
         style="fill:#19ae48;fill-opacity:1;fill-rule:nonzero;stroke:none"
         id="path118" />
      <path
         d="m 3129.84,326.27 h -21.77 v 166.015 l -87.04,87 h -44.54 v 21.793 h 53.57 l 99.78,-99.777 V 326.27"
         style="fill:#19ae48;fill-opacity:1;fill-rule:nonzero;stroke:none"
         id="path120" />
      <path
         d="m 3138.37,307.813 h -38.83 v 38.828 h 38.83 v -38.828"
         style="fill:#19ae48;fill-opacity:1;fill-rule:nonzero;stroke:none"
         id="path122" />
      <path
         d="m 2958.06,570.773 h 38.82 v 38.825 h -38.82 v -38.825"
         style="fill:#19ae48;fill-opacity:1;fill-rule:nonzero;stroke:none"
         id="path124" />
      <path
         d="m 2821.4,253.719 h -125.37 v 242.984 l 104.38,104.379 h 105.42 l 56.06,-55.152 h 41.62 l 73.7,-73.715 V 305.785 H 2749.9 v 166.43 l 73.72,73.715 h 63.62 v -21.793 h -54.61 l -60.95,-60.953 V 327.559 h 283.76 v 135.625 l -60.96,60.953 h -41.52 l -56.06,55.152 h -87.48 l -91.59,-91.598 V 275.492 h 103.57 v -21.773"
         style="fill:#19ae48;fill-opacity:1;fill-rule:nonzero;stroke:none"
         id="path126" />
      <path
         d="m 2839.82,245.223 h -38.81 v 38.828 h 38.81 v -38.828"
         style="fill:#19ae48;fill-opacity:1;fill-rule:nonzero;stroke:none"
         id="path128" />
      <path
         d="m 2905.68,554.445 h -38.83 v -38.804 h 38.83 v 38.804"
         style="fill:#19ae48;fill-opacity:1;fill-rule:nonzero;stroke:none"
         id="path130" />
      <path
         d="m 2717.83,80.0547 h -21.8 V 201.445 h 21.8 V 80.0547"
         style="fill:#19ae48;fill-opacity:1;fill-rule:nonzero;stroke:none"
         id="path132" />
      <path
         d="m 2687.52,219.863 h 38.82 v -38.804 h -38.82 v 38.804"
         style="fill:#19ae48;fill-opacity:1;fill-rule:nonzero;stroke:none"
         id="path134" />
      <path
         d="m 2687.52,61.6172 h 38.82 v 38.8048 h -38.82 V 61.6172"
         style="fill:#19ae48;fill-opacity:1;fill-rule:nonzero;stroke:none"
         id="path136" />
      <path
         d="M 3308.8,654.867 V 147.598 l 51.65,-44.606 V 56.6445 h 250.1 l 47.71,-47.67184 h 69.28 L 3830.66,111.609 v 181.059 l -39.03,39.016 39.03,39.05 v 64.746 h -21.8 v -55.73 l -48.04,-48.066 48.04,-48.047 V 120.684 l -90.31,-89.9574 h -51.28 l -47.71,47.6718 h -237.33 v 34.5196 l -51.65,44.645 v 475.531 h 76.22 v 21.773 h -98"
         style="fill:#19ae48;fill-opacity:1;fill-rule:nonzero;stroke:none"
         id="path138" />
      <path
         d="m 3386.39,624.578 h 38.85 v 38.805 h -38.85 v -38.805"
         style="fill:#19ae48;fill-opacity:1;fill-rule:nonzero;stroke:none"
         id="path140" />
      <path
         d="m 3800.34,415.094 h 38.85 v 38.828 h -38.85 v -38.828"
         style="fill:#19ae48;fill-opacity:1;fill-rule:nonzero;stroke:none"
         id="path142" />
      <path
         d="M 3308.8,83.2773 V 8.52344 h 272.51 V 30.3008 h -250.73 v 52.9765 h -21.78"
         style="fill:#19ae48;fill-opacity:1;fill-rule:nonzero;stroke:none"
         id="path144" />
      <path
         d="m 3300.3,101.75 h 38.83 V 62.9219 H 3300.3 V 101.75"
         style="fill:#19ae48;fill-opacity:1;fill-rule:nonzero;stroke:none"
         id="path146" />
      <path
         d="m 3560.94,0 h 38.83 v 38.8477 h -38.83 V 0"
         style="fill:#19ae48;fill-opacity:1;fill-rule:nonzero;stroke:none"
         id="path148" />
      <path
         d="m 3382.13,175.387 h -21.78 v 166.847 h 145.96 l 58.35,53.516 h 109.91 l 33.69,31.906 v 65.223 l -33.86,33.851 h -237.45 v -90.019 h -21.8 v 111.816 h 268.26 l 46.64,-46.617 v -83.66 l -46.82,-44.277 h -110.1 l -58.32,-53.516 h -132.68 v -145.07"
         style="fill:#19ae48;fill-opacity:1;fill-rule:nonzero;stroke:none"
         id="path150" />
      <path
         d="m 3445.46,418.242 h -38.83 v 38.867 h 38.83 v -38.867"
         style="fill:#19ae48;fill-opacity:1;fill-rule:nonzero;stroke:none"
         id="path152" />
      <path
         d="m 3351.83,156.965 h 38.83 v 38.824 h -38.83 v -38.824"
         style="fill:#19ae48;fill-opacity:1;fill-rule:nonzero;stroke:none"
         id="path154" />
      <path
         d="m 3415.15,110.707 v 178.715 h 104.76 l 60.12,53.164 113.97,0.207 61.66,57.805 v 121.265 l -60.02,60.02 H 3382.13 V 395.75 h 116.19 V 373.973 H 3360.35 V 603.68 h 344.32 l 72.79,-72.785 V 391.129 l -74.84,-70.109 -114.3,-0.207 -60.19,-53.165 h -91.18 V 132.832 l 237.37,3.75 32.78,32.777 1.03,64.516 -33.73,33.773 h -77.07 v 21.774 h 86.09 l 46.63,-46.617 -1.32,-82.664 -45.25,-45.211 -268.33,-4.223"
         style="fill:#19ae48;fill-opacity:1;fill-rule:nonzero;stroke:none"
         id="path156" />
      <path
         d="m 3578.89,297.93 h 38.8 v -38.825 h -38.8 v 38.825"
         style="fill:#19ae48;fill-opacity:1;fill-rule:nonzero;stroke:none"
         id="path158" />
      <path
         d="m 3516.75,404.301 h -38.83 v -38.848 h 38.83 v 38.848"
         style="fill:#19ae48;fill-opacity:1;fill-rule:nonzero;stroke:none"
         id="path160" />
      <path
         d="m 3701.74,56.6406 h -22.59 v 21.7735 h 13.51 l 63.01,63.6289 v 120.766 l -22.48,23.453 15.7,15.062 28.55,-29.73 V 133.07 l -75.7,-76.4294"
         style="fill:#19ae48;fill-opacity:1;fill-rule:nonzero;stroke:none"
         id="path162" />
      <path
         d="m 3660.72,86.957 h 38.83 V 48.1289 h -38.83 V 86.957"
         style="fill:#19ae48;fill-opacity:1;fill-rule:nonzero;stroke:none"
         id="path164" />
      <path
         d="m 3742.3,320.555 -28.03,-26.871 26.87,-28.012 28.01,26.871 -26.85,28.012"
         style="fill:#19ae48;fill-opacity:1;fill-rule:nonzero;stroke:none"
         id="path166" />
      <path
         d="m 3830.67,497.953 h -21.8 v 44.797 l -90.33,90.352 h -250.88 v 21.777 h 259.91 l 103.1,-103.098 v -53.828"
         style="fill:#19ae48;fill-opacity:1;fill-rule:nonzero;stroke:none"
         id="path168" />
      <path
         d="m 3449.23,624.578 h 38.83 v 38.805 h -38.83 v -38.805"
         style="fill:#19ae48;fill-opacity:1;fill-rule:nonzero;stroke:none"
         id="path170" />
      <path
         d="m 3800.34,479.488 h 38.85 v 38.848 h -38.85 v -38.848"
         style="fill:#19ae48;fill-opacity:1;fill-rule:nonzero;stroke:none"
         id="path172" />
      <path
         d="M 608.215,653.637 V 7.26563 h 148.84 V 309.609 l -52.77,52.832 -21.773,-9.054 52.769,-52.75 V 29.0586 H 630.012 V 631.863 H 735.281 V 399.715 h 21.774 v 253.922 h -148.84"
         style="fill:#19ae48;fill-opacity:1;fill-rule:nonzero;stroke:none"
         id="path174" />
      <path
         d="m 726.762,381.238 h 38.804 v 38.828 h -38.804 v -38.828"
         style="fill:#19ae48;fill-opacity:1;fill-rule:nonzero;stroke:none"
         id="path176" />
      <path
         d="m 661.914,609.328 h 38.848 v -38.844 h -38.848 v 38.844"
         style="fill:#19ae48;fill-opacity:1;fill-rule:nonzero;stroke:none"
         id="path178" />
      <path
         d="m 670.469,70.2148 h 21.797 V 287.426 H 670.469 V 70.2148"
         style="fill:#19ae48;fill-opacity:1;fill-rule:nonzero;stroke:none"
         id="path180" />
      <path
         d="m 700.762,305.848 h -38.828 v -38.809 h 38.828 v 38.809"
         style="fill:#19ae48;fill-opacity:1;fill-rule:nonzero;stroke:none"
         id="path182" />
      <path
         d="m 700.762,51.7539 h -38.828 v 38.8477 h 38.828 V 51.7539"
         style="fill:#19ae48;fill-opacity:1;fill-rule:nonzero;stroke:none"
         id="path184" />
      <path
         d="m 692.266,590.035 h -21.797 l -0.043,-224.566 64.847,-64.828 21.778,8.972 -64.852,64.91 0.067,215.512"
         style="fill:#19ae48;fill-opacity:1;fill-rule:nonzero;stroke:none"
         id="path186" />
    </g>
  </g>
</svg>
