<?xml version="1.0" encoding="UTF-8" standalone="no"?>
<!-- Created with Inkscape (http://www.inkscape.org/) -->

<svg
   version="1.1"
   id="svg2"
   width="555.73334"
   height="127.02667"
   viewBox="0 0 555.73334 127.02667"
   sodipodi:docname="CITYLAB_LOGO_ZWART_LABEL_HORIZONTAAL_CMYK.eps"
   xmlns:inkscape="http://www.inkscape.org/namespaces/inkscape"
   xmlns:sodipodi="http://sodipodi.sourceforge.net/DTD/sodipodi-0.dtd"
   xmlns="http://www.w3.org/2000/svg"
   xmlns:svg="http://www.w3.org/2000/svg">
  <defs
     id="defs6" />
  <sodipodi:namedview
     id="namedview4"
     pagecolor="#ffffff"
     bordercolor="#000000"
     borderopacity="0.25"
     inkscape:showpageshadow="2"
     inkscape:pageopacity="0.0"
     inkscape:pagecheckerboard="0"
     inkscape:deskcolor="#d1d1d1" />
  <g
     id="g8"
     inkscape:groupmode="layer"
     inkscape:label="ink_ext_XXXXXX"
     transform="matrix(1.3333333,0,0,-1.3333333,0,127.02667)">
    <g
       id="g10"
       transform="scale(0.1)">
      <path
         d="M 240.406,952.695 0,712.27 V 225.641 L 225.617,0 H 3974.2 l 193.77,193.797 V 746.613 L 3961.91,952.695 H 240.406"
         style="fill:#231f20;fill-opacity:1;fill-rule:nonzero;stroke:none"
         id="path12" />
      <path
         d="m 4019.11,560.422 v 39.133 h -39.15 v -39.133 h 8.59 v -35.625 l -48.44,-48.461 48.44,-48.438 V 263.637 l -91.06,-90.68 h -51.69 l -48.08,48.063 h -239.27 v 34.804 l -52.05,44.973 v 479.402 h 56.25 v -8.59 h 39.15 v 39.11 h -39.15 v -8.571 h -78.23 V 290.777 l 52.08,-44.996 v -46.715 h 252.1 l 48.13,-48.058 h 69.84 L 4010.52,254.5 v 182.516 l -39.36,39.32 39.36,39.363 v 44.723 z M 3878.34,190.496 v 8.57 h 2.2 l 76.34,77.047 v 139.645 l -14.56,15.187 6.2,5.946 -27.08,28.23 -28.27,-27.098 27.09,-28.23 6.2,5.945 8.44,-8.824 V 285.148 l -56.56,-57.117 v 1.598 h -39.14 v -39.133 z m 5.16,560.043 H 3536.41 V 518.977 h 118.51 v -8.59 h 39.14 v 39.152 h -39.14 v -8.609 h -96.58 v 187.64 h 316.07 l 60.49,-60.496 V 545.801 l -62.15,-58.246 -114.9,-0.231 -60.62,-53.586 H 3591.64 V 253.574 l 270.5,4.266 45.63,45.582 1.32,83.305 -47.01,47.011 h -66.25 v 8.571 h -39.13 v -39.133 h 39.13 v 8.613 h 57.15 l 34.01,-34.051 -1.05,-65.054 -33.04,-33.02 -239.29,-3.781 v 135.906 h 91.94 l 60.66,53.606 115.24,0.187 75.43,70.684 v 140.902 z m -325.16,-411.18 v 125.657 h 133.76 l 58.8,53.961 h 110.99 l 47.2,44.636 v 84.317 l -47.01,47.008 h -270.44 v -92.149 h -8.6 v -39.176 h 39.14 v 39.176 h -8.57 v 70.18 h 239.37 l 34.14,-34.133 v -65.75 l -33.97,-32.156 h -110.78 l -58.82,-53.965 H 3536.41 V 339.359 h -8.61 v -39.152 h 39.13 v 39.152 z m 421.62,285.989 h 39.15 v 39.132 h -8.59 v 33.735 l -103.93,103.933 h -241.46 v 8.571 H 3626 v -39.11 h 39.13 v 8.59 h 232.36 l 91.06,-91.078 V 664.48 h -8.59 z M 3514.99,244.543 h -39.14 V 205.41 h 8.57 v -54.844 h 254.19 v -8.589 h 39.13 v 39.152 h -39.13 v -8.613 H 3506.4 v 32.894 h 8.59 z M 3358.16,573.34 h 8.59 v 39.152 h -39.13 V 573.34 h 8.57 V 170.352 h -84.13 v 194.449 h -136.43 v 8.609 h -39.13 v -39.133 h 39.13 v 8.59 h 114.48 V 148.383 h 128.05 z M 3170,756.508 h -39.14 V 717.352 H 3170 v 8.589 h 24.34 l 87.74,-87.695 V 491.418 h -8.61 v -39.152 h 39.15 v 39.152 h -8.59 V 647.34 L 3203.44,747.934 H 3170 Z M 2971.94,747.934 2866.7,642.699 V 397.734 h 105.83 v -8.57 h 39.13 v 39.156 h -39.13 v -8.613 h -83.86 v 213.898 l 92.34,92.336 h 88.18 l 56.51,-55.597 h 41.88 l 61.44,-61.442 V 472.18 h -286.05 v 136.722 l 61.44,61.442 h 34.49 v -8.571 h 39.14 v 39.133 h -39.14 v -8.57 h -43.58 L 2921,617.996 V 450.227 h 329.97 v 167.769 l -74.29,74.34 h -41.97 l -56.51,55.598 z M 2866.7,324.488 v -81.289 h -8.59 v -39.113 h 39.13 v 39.113 h -8.57 v 81.289 h 8.57 v 39.114 h -39.13 v -39.114 z m 460.92,315.606 h 39.13 v 39.156 h -22.24 l -124.06,121.641 -269.64,-1.243 -136.48,-135.355 v -515.91 h 128.12 v 194.484 h 87.44 l 59.03,54.867 h 193.16 V 243.199 h -8.61 v -39.113 h 39.15 v 39.113 h -8.59 V 419.707 H 3080.3 l -59.04,-54.906 H 2920.52 V 170.352 h -84.23 v 484.761 l 123.61,122.61 251.64,1.175 116.08,-113.828 z M 2496.1,189.762 v 8.633 h 154.25 v -8.633 h 39.13 v 39.156 h -39.13 v -8.574 H 2496.1 v 8.574 h -39.15 v -39.156 z m -285.75,-40.457 h 525.55 v 129.183 h -289.47 l -54.89,-58.144 h -108.22 v 155.168 h 8.59 v 39.133 h -39.13 v -39.133 h 8.59 V 198.395 h 139.64 l 54.89,58.121 h 258.05 V 171.277 H 2232.3 V 412.23 l 52.7,52.301 v 252.547 h 8.59 v 39.113 h -39.13 v -39.113 h 8.59 v -243.41 l -52.7,-52.301 z m 146.78,98.64 h 39.14 v 39.133 h -39.14 v -8.59 h -18.17 V 800.891 H 2209.8 V 509.02 h -8.59 v -39.133 h 39.16 v 39.133 h -8.6 v 269.918 h 85.26 V 256.516 h 40.1 z M 1908.5,448.316 2107.88,647.699 V 800.891 H 1979.63 V 700.359 l -19.12,-19.093 -6.07,6.07 -27.68,-27.664 27.68,-27.664 27.67,27.664 -6.08,6.07 25.55,25.52 v 87.676 h 84.35 V 656.793 L 1886.55,457.41 v -91.5 l -51.78,-51.777 v -80.574 h -8.59 v -39.157 h 39.14 v 39.157 h -8.6 v 71.461 l 51.78,51.82 z m -250.99,232.993 v 35.582 h 8.59 v 39.152 h -39.15 v -39.152 h 8.59 v -44.68 l 22.83,-22.813 -6.09,-6.089 27.69,-27.684 27.66,27.684 -27.66,27.683 -6.08,-6.07 z m 199.82,-280.446 v 69.7 l 59.93,59.906 6.07,-6.071 27.69,27.665 -27.69,27.664 -27.68,-27.664 6.07,-6.051 -66.32,-66.336 v -78.813 h -8.61 v -39.109 h 39.13 v 39.109 z m 114.42,216.965 h -74.7 l -51.31,-51.316 -133.87,133.886 V 800.891 H 1582.69 V 646.797 l 64.97,-64.973 h 77.47 l 55.28,-55.304 -6.05,-6.071 27.67,-27.687 27.68,27.687 -27.68,27.684 -6.09,-6.09 -61.74,61.734 h -77.47 l -52.07,52.09 v 123.071 h 85.26 v -87.676 l 155.82,-155.817 60.41,60.434 h 74.8 l 73.27,74.465 0.04,46.547 8.59,-0.024 0.06,39.133 -39.15,0.086 -0.02,-39.195 h 8.57 l -0.04,-37.559 z m -626.9,99.754 v 8.594 h 74.52 v -8.594 h 39.14 v 39.156 h -39.14 v -8.613 h -74.52 v 8.613 h -39.14 v -39.156 z m -93.73,-311.32 V 229.629 h -8.59 V 190.52 h 39.13 v 39.109 h -8.59 v 176.633 h 8.59 v 39.133 h -39.13 v -39.133 z m 75.56,265.488 h 177.58 v 129.141 h -484.3 V 671.75 h 177.56 V 149.328 h 129.16 v 299.641 l -53.57,53.582 v 245.574 h -170.62 v 8.613 h -39.13 v -39.156 h 39.13 v 8.594 h 148.65 V 493.434 l 53.59,-53.563 V 171.277 h -85.26 v 522.422 h -177.56 v 85.239 h 440.4 V 693.699 H 1304.73 V 541.516 h -8.57 V 502.32 h 39.11 v 39.196 h -8.59 z M 824.734,411.18 V 233.305 h -8.589 v -39.153 h 39.152 v 39.153 h -8.57 V 411.18 h 8.57 v 39.109 H 816.145 V 411.18 Z m 56.758,115.109 h 39.133 v 39.152 h -8.594 v 235.45 H 761.973 V 149.305 h 150.058 v 304.789 l -53.183,53.246 h -0.02 l -12.164,12.183 0.043,197.555 h 8.59 v 39.152 h -39.176 v -39.152 h 8.613 l -0.019,-206.672 12.183,-12.183 53.184,-53.184 -0.019,-273.762 H 783.965 V 778.938 H 890.082 V 565.441 h -8.59 z m -426.703,-333.187 -0.082,8.656 25.898,0.293 106.813,106.621 v 0.062 l 8.57,-0.039 0.188,39.133 -39.11,0.207 -0.211,-38.859 -85.41,-85.238 -16.886,-0.211 -0.063,8.527 -39.152,-0.336 0.312,-39.133 z m 47.703,-43.797 139.266,136.976 V 396.035 H 512.574 V 339.949 L 451.156,278.488 H 348.082 l -61.461,61.461 v 22.117 h 8.57 v 39.133 h -39.113 v -39.133 h 8.57 v -31.211 l 74.317,-74.339 H 460.25 l 74.297,74.339 v 43.188 h 85.238 V 295.48 L 493.48,171.277 H 303.551 L 179.41,295.418 v 164.746 h 8.594 v 39.152 h -39.156 v -39.152 h 8.59 V 286.324 L 294.457,149.305 Z m -42.179,567.461 v 8.57 h 15.335 l 84.821,-85.242 h -3.614 v -39.176 h 39.133 v 39.176 h -8.593 v 4.054 l -102.61,103.176 h -24.472 v 8.594 H 421.18 v -39.152 z m 52.261,-161.028 h 129.184 v 108.133 l -137.02,137.02 h -93.66 L 360.309,746.465 314.098,745.52 211.383,642.805 V 609.09 h -8.613 v -39.152 h 39.152 v 39.152 h -8.59 v 24.621 l 90.008,90.027 46.652,0.903 50.621,54.297 h 75.032 l 124.14,-124.141 v -77.086 h -85.238 v 41.652 L 460.25,693.699 H 338.965 L 264.648,619.363 V 463.566 h -8.57 v -39.113 h 39.113 v 39.113 h -8.57 v 146.7 l 61.461,61.441 h 103.074 l 61.418,-61.441 z m -192.679,214.61 h 39.132 v 39.113 h -39.132 v -8.57 H 294.457 L 157.438,663.871 V 549.688 l 53.945,-54.887 V 306.992 l 107.418,-106.582 31.277,0.36 0.063,-8.532 39.156,0.317 -0.336,39.133 -39.113,-0.336 0.062,-8.653 -22.117,-0.273 -94.461,93.703 V 503.813 L 179.41,558.68 v 96.117 l 124.141,124.141 h 16.344 z m 1387.965,-205.535 -27.66,-27.665 27.66,-27.687 6.07,6.051 67.24,-67.196 V 149.328 h 129.16 v 114.961 h 8.59 v 39.152 h -39.13 v -39.152 h 8.59 v -93.012 h -85.26 V 457.41 l -73.65,73.645 6.08,6.093 -27.69,27.665"
         style="fill:#ffffff;fill-opacity:1;fill-rule:nonzero;stroke:none"
         id="path14" />
    </g>
  </g>
</svg>
