<?xml version="1.0" encoding="UTF-8" standalone="no"?>
<!-- Created with Inkscape (http://www.inkscape.org/) -->

<svg
   version="1.1"
   id="svg2"
   width="458.32001"
   height="79.853333"
   viewBox="0 0 458.32001 79.853333"
   sodipodi:docname="CITYLAB_LOGO_ZWART_WIT_INLINE_HORIZONTAAL_CMYK.eps"
   xmlns:inkscape="http://www.inkscape.org/namespaces/inkscape"
   xmlns:sodipodi="http://sodipodi.sourceforge.net/DTD/sodipodi-0.dtd"
   xmlns="http://www.w3.org/2000/svg"
   xmlns:svg="http://www.w3.org/2000/svg">
  <defs
     id="defs6" />
  <sodipodi:namedview
     id="namedview4"
     pagecolor="#ffffff"
     bordercolor="#000000"
     borderopacity="0.25"
     inkscape:showpageshadow="2"
     inkscape:pageopacity="0.0"
     inkscape:pagecheckerboard="0"
     inkscape:deskcolor="#d1d1d1" />
  <g
     id="g8"
     inkscape:groupmode="layer"
     inkscape:label="ink_ext_XXXXXX"
     transform="matrix(1.3333333,0,0,-1.3333333,0,79.853333)">
    <g
       id="g10"
       transform="scale(0.1)">
      <path
         d="M 2945.7,598.941 V 1.82422 l 264,0.24609 h 24.82 v 0.01563 l 100.96,0.10547 101.95,101.51159 v 174.012 l -22.69,22.66 22.69,22.691 v 173.981 l -101.91,101.894 z m 158.46,-158.457 h 165.66 l 14.01,-14.011 v -34.114 l -13.48,-12.765 h -166.19 z m 0,-219.257 165.64,-0.055 13.75,-13.766 -0.54,-33.922 -13.45,-13.414 -165.4,-2.632 z M 2487.4,596.801 2358.16,468.598 V 0 h 157.56 v 163.297 h 191.57 V 0 h 157.49 v 471.648 l -130.46,126.278 z m 28.74,-195.477 37.04,37.02 116.23,-0.071 36.97,-36.949 v -79.465 h -190.24 z m -707.99,196.582 0.46,-597.132562 h 491.27 V 159.246 h -333.29 v 438.66 z m -210.82,0 V 498.5 l -87.43,-87.059 -87.43,87.411 v 99.054 H 1264.02 V 433.137 L 1430.68,266.473 V 0.789063 h 158.44 l -1.54,265.683937 167.43,167.433 v 164 z m -848.248,0 V 439.449 H 898.211 V 0.789063 H 1056.63 V 439.449 h 149.09 v 158.457 z m -222.625,0 V 0.773438 H 690.313 V 597.906 Z M 129.254,597.469 0,468.18 V 130.465 L 129.695,0.773438 H 324.961 L 456.652,130.289 V 257.914 H 298.199 V 196.199 L 261.266,159.246 H 195.48 l -37.289,38.109 v 66.54 l 0.247,138.585 36.968,36.954 h 65.86 L 298.199,402.48 V 342.043 H 456.652 V 468.18 L 326.961,597.906 129.254,597.469"
         style="fill:#231f20;fill-opacity:1;fill-rule:nonzero;stroke:none"
         id="path12" />
      <path
         d="m 3419.66,370.973 v 32.867 h -32.88 V 370.973 H 3394 V 341.055 L 3353.31,300.363 3394,259.695 V 121.758 l -76.46,-76.133 h -43.41 l -40.37,40.3555 h -200.92 v 29.2185 l -43.7,37.778 v 402.531 h 47.23 v -7.207 h 32.88 v 32.847 h -32.88 v -7.191 h -65.68 V 144.559 l 43.72,-37.778 V 67.5469 h 211.7 l 40.39,-40.3555 h 58.65 l 87.3,86.9026 v 153.265 l -33.06,33.004 33.06,33.063 v 37.547 z M 3301.44,60.3555 v 7.1914 h 1.86 l 64.1,64.6991 v 117.258 l -12.23,12.734 5.21,4.996 -22.75,23.711 -23.72,-22.746 22.74,-23.711 5.21,4.981 7.09,-7.399 V 139.84 l -47.51,-47.9845 v 1.3672 h -32.85 V 60.3555 Z m 4.36,470.2655 H 3014.32 V 336.16 h 99.53 v -7.207 h 32.87 v 32.883 h -32.87 v -7.227 h -81.1 v 157.563 h 265.39 l 50.81,-50.809 V 358.695 l -52.2,-48.914 -96.47,-0.191 -50.9,-44.985 h -88.67 v -151.3 l 227.13,3.593 38.31,38.27 1.12,69.961 -39.48,39.476 h -55.63 v 7.192 h -32.85 V 238.93 h 32.85 v 7.242 h 48 l 28.55,-28.586 -0.87,-54.633 -27.75,-27.742 -200.93,-3.156 v 114.117 h 77.2 l 50.93,45.004 96.76,0.176 63.35,59.347 V 468.992 Z M 3032.75,185.332 v 105.527 h 112.32 l 49.37,45.301 h 93.19 l 39.64,37.496 v 70.801 l -39.48,39.477 h -227.08 v -77.375 h -7.21 v -32.903 h 32.85 v 32.903 h -7.19 v 58.925 h 201 l 28.66,-28.671 v -55.211 l -28.52,-26.993 h -93.02 l -49.4,-45.316 H 3014.32 V 185.332 h -7.22 v -32.863 h 32.86 v 32.863 z m 354.03,240.148 h 32.88 v 32.868 h -7.21 v 28.324 l -87.28,87.285 h -202.76 v 7.191 h -32.85 v -32.847 h 32.85 v 7.207 h 195.13 L 3394,479.043 v -20.695 h -7.22 z M 2996.35,105.727 H 2963.5 V 72.8633 h 7.19 V 26.8242 h 213.43 v -7.2265 h 32.87 v 32.8867 h -32.87 v -7.2266 h -194.98 v 27.6055 h 7.21 z M 2839.8,381.813 h 7.21 v 32.882 h -32.85 v -32.882 h 7.19 V 43.4141 h -70.62 V 206.711 h -114.58 v 7.227 H 2603.3 V 181.07 h 32.85 v 7.227 h 96.13 V 24.9844 h 107.52 z m -158,153.808 h -32.86 v -32.867 h 32.86 v 7.207 h 20.43 l 73.68,-73.641 V 313.027 h -7.23 V 280.16 h 32.89 v 32.867 h -7.23 v 130.922 l -84.46,84.461 h -28.08 z m -166.31,-7.211 -88.36,-88.355 V 234.371 h 88.85 v -7.191 h 32.87 v 32.867 h -32.87 v -7.246 h -70.42 v 179.625 l 77.56,77.535 h 74.03 l 47.45,-46.684 h 35.17 l 51.59,-51.597 V 296.875 h -240.2 V 411.68 l 51.6,51.597 h 28.96 v -7.191 h 32.86 v 32.848 h -32.86 v -7.207 h -36.61 l -62.38,-62.403 V 278.441 h 277.07 v 140.883 l -62.4,62.403 h -35.22 l -47.46,46.683 z m -88.36,-355.547 v -68.258 h -7.22 V 71.7578 h 32.86 v 32.8472 h -7.21 v 68.258 h 7.21 v 32.848 h -32.86 v -32.848 z m 387.03,265 h 32.85 v 32.883 h -18.68 l -104.16,102.16 -226.41,-1.07 -114.6,-113.645 V 24.9844 h 107.58 V 188.297 h 73.42 l 49.56,46.074 h 162.19 V 104.605 h -7.23 V 71.7578 h 32.89 v 32.8472 h -7.23 v 148.196 h -187.86 l -49.58,-46.09 h -84.59 V 43.4141 h -70.73 V 450.488 l 103.81,102.95 211.29,0.984 97.48,-95.567 z M 2073.55,59.7422 v 7.2266 h 129.5 v -7.2266 h 32.86 v 32.8672 h -32.86 v -7.2071 h -129.5 v 7.2071 h -32.89 V 59.7422 Z M 1833.59,25.7539 H 2274.9 V 134.246 h -243.06 l -46.1,-48.8437 h -90.87 V 215.691 h 7.21 v 32.868 h -32.87 v -32.868 h 7.23 V 66.9688 h 117.26 l 46.09,48.8082 h 216.66 V 44.2031 H 1852.03 V 246.539 l 44.24,43.918 v 212.051 h 7.21 v 32.847 h -32.85 v -32.847 h 7.23 V 298.137 l -44.27,-43.934 z m 123.26,82.8321 h 32.85 v 32.867 h -32.85 v -7.207 h -15.26 v 438.66 H 1833.14 V 327.813 h -7.21 v -32.848 h 32.88 v 32.848 h -7.22 v 226.644 h 71.59 v -438.68 h 33.67 z m -394.25,168.242 167.41,167.418 v 128.66 h -107.7 v -84.429 l -16.04,-16.028 -5.11,5.086 -23.24,-23.222 23.24,-23.239 23.24,23.239 -5.1,5.105 21.45,21.43 v 73.609 h 70.83 V 451.895 L 1544.16,284.477 v -76.836 l -43.47,-43.477 V 96.5039 h -7.23 V 63.6367 h 32.87 v 32.8672 h -7.21 V 156.52 l 43.48,43.511 z m -210.78,195.656 v 29.883 h 7.23 v 32.867 h -32.87 v -32.867 h 7.21 v -37.512 l 19.17,-19.171 -5.1,-5.102 23.23,-23.258 23.24,23.258 -23.24,23.238 -5.1,-5.105 z m 167.81,-235.5 v 58.524 l 50.31,50.316 5.11,-5.105 23.24,23.238 -23.24,23.238 -23.26,-23.238 5.11,-5.086 -55.69,-55.699 v -66.188 h -7.22 v -32.832 h 32.86 v 32.832 z m 96.09,182.184 h -62.73 l -43.1,-43.09 -112.4,112.418 v 84.41 H 1289.02 V 443.492 l 54.54,-54.543 h 65.05 l 46.44,-46.441 -5.1,-5.102 23.24,-23.238 23.25,23.238 -23.25,23.254 -5.11,-5.121 -51.84,51.844 h -65.06 l -43.71,43.738 v 103.336 h 71.57 v -73.609 l 130.85,-130.852 50.72,50.738 h 62.81 l 61.52,62.543 0.05,39.075 h 7.21 l 0.05,32.847 -32.88,0.071 -0.02,-32.903 h 7.19 l -0.03,-31.551 z m -568.81,83.762 v 7.226 h 62.57 v -7.226 h 32.87 v 32.883 h -32.87 v -7.227 h -62.57 v 7.227 h -32.87 V 502.93 Z M 968.199,241.523 V 93.207 h -7.211 V 60.3555 h 32.867 V 93.207 h -7.226 v 148.316 h 7.226 v 32.852 h -32.867 v -32.852 z m 63.451,222.926 h 149.11 V 572.906 H 774.086 V 464.449 H 923.195 V 25.7734 H 1031.65 V 277.391 l -44.986,44.984 V 528.586 H 843.398 v 7.227 H 810.531 V 502.93 h 32.867 v 7.226 H 968.215 V 314.73 l 45.005,-44.988 V 44.2031 H 941.629 V 482.883 H 792.52 v 71.574 h 369.81 V 482.883 H 1013.22 V 355.102 h -7.21 v -32.903 h 32.85 v 32.903 h -7.21 z M 597.742,245.645 V 96.293 h -7.207 V 63.4102 h 32.867 V 96.293 h -7.211 v 149.352 h 7.211 v 32.851 h -32.867 v -32.851 z m 41.949,96.671 h 32.852 v 32.868 h -7.207 V 572.906 H 551.426 V 25.7539 h 113.91 V 281.688 l -49.18,54.945 0.035,165.875 h 7.211 v 32.883 H 590.5 v -32.883 h 7.242 l -0.035,-173.539 49.195,-54.875 V 44.2031 H 569.875 V 554.457 h 77.027 V 375.184 h -7.211 z M 279.305,502.262 v 7.191 h 12.875 l 71.218,-71.59 h -3.015 V 404.98 h 32.847 v 32.883 h -7.222 v 3.418 l -86.149,86.621 h -20.554 v 7.227 H 246.438 V 502.262 Z M 431.676,367.047 V 457.84 L 316.609,572.906 h -78.66 L 195.332,527.184 156.52,526.395 70.2695,440.16 V 411.855 H 63.043 v -32.902 h 32.8672 v 32.902 h -7.2071 v 20.661 l 75.5859,75.586 39.184,0.753 42.511,45.602 H 308.98 L 413.227,450.211 v -64.715 h -71.59 v 34.969 l -62.383,62.418 H 177.41 L 115.008,420.465 V 289.648 h -7.207 v -32.847 h 32.867 v 32.847 h -7.207 V 412.82 l 51.594,51.594 h 86.55 L 323.203,412.82 V 367.047 Z M 161.398,547.246 h 32.848 v 32.852 h -32.848 v -7.192 H 140.035 L 24.9883,457.84 V 361.961 L 70.2695,315.867 V 158.168 l 90.2145,-89.4961 26.254,0.2969 0.055,-7.1563 32.883,0.2617 -0.281,32.8516 -32.848,-0.2656 0.051,-7.2774 -18.571,-0.2265 -79.3239,78.6917 V 323.445 L 43.418,369.5 v 80.711 l 104.266,104.246 h 13.714 z m 113.258,-484.7147 -0.051,7.2773 21.747,0.2461 89.671,89.5153 v 0.071 l 7.207,-0.055 0.161,32.867 -32.848,0.176 -0.16,-32.637 -71.711,-71.5545 -14.207,-0.1758 -0.055,7.1524 -32.883,-0.2774 0.282,-32.8672 z M 50.6445,319.656 H 17.7773 v -32.867 h 7.211 V 140.805 L 140.035,25.7539 H 314.73 L 431.676,140.77 v 92.16 H 323.203 v -47.086 l -51.598,-51.598 h -86.55 l -51.594,51.598 v 18.57 h 7.207 v 32.848 h -32.867 v -32.848 h 7.207 v -26.219 l 62.402,-62.418 h 101.844 l 62.383,62.418 v 36.285 h 71.59 V 148.504 L 307.156,44.2031 H 147.684 L 43.418,148.449 v 138.34 h 7.2265 z m 1343.4855,55 -23.24,-23.218 23.24,-23.258 5.08,5.086 56.46,-56.438 V 25.7734 h 108.45 V 122.32 h 7.23 v 32.864 h -32.87 V 122.32 h 7.21 V 44.2031 h -71.57 V 284.477 l -61.86,61.839 5.1,5.122 -23.23,23.218"
         style="fill:#ffffff;fill-opacity:1;fill-rule:nonzero;stroke:none"
         id="path14" />
    </g>
  </g>
</svg>
